G04 (created by PCBNEW-RS274X (2011-03-30 BZR 2932)-stable) date 28/04/2011 12:56:03 p.m.*
G01*
G70*
G90*
%MOIN*%
G04 Gerber Fmt 3.4, Leading zero omitted, Abs format*
%FSLAX34Y34*%
G04 APERTURE LIST*
%ADD10C,0.006000*%
%ADD11C,0.007000*%
%ADD12C,0.005000*%
%ADD13C,0.008000*%
G04 APERTURE END LIST*
G54D10*
G54D11*
X15862Y-13238D02*
X15859Y-13262D01*
X15852Y-13285D01*
X15841Y-13306D01*
X15825Y-13325D01*
X15807Y-13340D01*
X15786Y-13352D01*
X15762Y-13359D01*
X15738Y-13361D01*
X15715Y-13359D01*
X15692Y-13352D01*
X15671Y-13341D01*
X15652Y-13326D01*
X15636Y-13308D01*
X15625Y-13286D01*
X15617Y-13263D01*
X15615Y-13239D01*
X15617Y-13216D01*
X15623Y-13193D01*
X15634Y-13171D01*
X15649Y-13152D01*
X15668Y-13137D01*
X15689Y-13125D01*
X15712Y-13117D01*
X15736Y-13115D01*
X15759Y-13116D01*
X15782Y-13123D01*
X15804Y-13134D01*
X15823Y-13149D01*
X15839Y-13167D01*
X15851Y-13188D01*
X15858Y-13211D01*
X15861Y-13235D01*
X15862Y-13238D01*
X15738Y-13671D02*
X16171Y-13238D01*
X15738Y-17962D02*
X15738Y-17529D01*
X15738Y-17962D02*
X16171Y-17962D01*
X20462Y-17962D02*
X20462Y-17529D01*
X20462Y-17962D02*
X20029Y-17962D01*
X20462Y-13238D02*
X20462Y-13671D01*
X20462Y-13238D02*
X20029Y-13238D01*
G54D12*
X14500Y-08600D02*
X14100Y-08600D01*
X14100Y-08600D02*
X14100Y-08000D01*
X14100Y-08000D02*
X14500Y-08000D01*
X14900Y-08000D02*
X15300Y-08000D01*
X15300Y-08000D02*
X15300Y-08600D01*
X15300Y-08600D02*
X14900Y-08600D01*
X13800Y-15400D02*
X13400Y-15400D01*
X13400Y-15400D02*
X13400Y-14800D01*
X13400Y-14800D02*
X13800Y-14800D01*
X14200Y-14800D02*
X14600Y-14800D01*
X14600Y-14800D02*
X14600Y-15400D01*
X14600Y-15400D02*
X14200Y-15400D01*
X22400Y-17200D02*
X22800Y-17200D01*
X22800Y-17200D02*
X22800Y-17800D01*
X22800Y-17800D02*
X22400Y-17800D01*
X22000Y-17800D02*
X21600Y-17800D01*
X21600Y-17800D02*
X21600Y-17200D01*
X21600Y-17200D02*
X22000Y-17200D01*
X22400Y-13900D02*
X22800Y-13900D01*
X22800Y-13900D02*
X22800Y-14500D01*
X22800Y-14500D02*
X22400Y-14500D01*
X22000Y-14500D02*
X21600Y-14500D01*
X21600Y-14500D02*
X21600Y-13900D01*
X21600Y-13900D02*
X22000Y-13900D01*
X18700Y-11200D02*
X18700Y-10800D01*
X18700Y-10800D02*
X19300Y-10800D01*
X19300Y-10800D02*
X19300Y-11200D01*
X19300Y-11600D02*
X19300Y-12000D01*
X19300Y-12000D02*
X18700Y-12000D01*
X18700Y-12000D02*
X18700Y-11600D01*
X16300Y-11300D02*
X16300Y-10900D01*
X16300Y-10900D02*
X16900Y-10900D01*
X16900Y-10900D02*
X16900Y-11300D01*
X16900Y-11700D02*
X16900Y-12100D01*
X16900Y-12100D02*
X16300Y-12100D01*
X16300Y-12100D02*
X16300Y-11700D01*
X19200Y-20200D02*
X19200Y-20600D01*
X19200Y-20600D02*
X18600Y-20600D01*
X18600Y-20600D02*
X18600Y-20200D01*
X18600Y-19800D02*
X18600Y-19400D01*
X18600Y-19400D02*
X19200Y-19400D01*
X19200Y-19400D02*
X19200Y-19800D01*
X16000Y-19600D02*
X16000Y-20000D01*
X16000Y-20000D02*
X15400Y-20000D01*
X15400Y-20000D02*
X15400Y-19600D01*
X15400Y-19200D02*
X15400Y-18800D01*
X15400Y-18800D02*
X16000Y-18800D01*
X16000Y-18800D02*
X16000Y-19200D01*
X10400Y-20600D02*
X10800Y-20600D01*
X10800Y-20600D02*
X10800Y-21200D01*
X10800Y-21200D02*
X10400Y-21200D01*
X10000Y-21200D02*
X09600Y-21200D01*
X09600Y-21200D02*
X09600Y-20600D01*
X09600Y-20600D02*
X10000Y-20600D01*
X12800Y-21200D02*
X12400Y-21200D01*
X12400Y-21200D02*
X12400Y-20600D01*
X12400Y-20600D02*
X12800Y-20600D01*
X13200Y-20600D02*
X13600Y-20600D01*
X13600Y-20600D02*
X13600Y-21200D01*
X13600Y-21200D02*
X13200Y-21200D01*
X11400Y-15300D02*
X11000Y-15300D01*
X11000Y-15300D02*
X11000Y-14700D01*
X11000Y-14700D02*
X11400Y-14700D01*
X11800Y-14700D02*
X12200Y-14700D01*
X12200Y-14700D02*
X12200Y-15300D01*
X12200Y-15300D02*
X11800Y-15300D01*
X11400Y-17900D02*
X11000Y-17900D01*
X11000Y-17900D02*
X11000Y-17300D01*
X11000Y-17300D02*
X11400Y-17300D01*
X11800Y-17300D02*
X12200Y-17300D01*
X12200Y-17300D02*
X12200Y-17900D01*
X12200Y-17900D02*
X11800Y-17900D01*
X13500Y-08000D02*
X13900Y-08000D01*
X13900Y-08000D02*
X13900Y-08600D01*
X13900Y-08600D02*
X13500Y-08600D01*
X13100Y-08600D02*
X12700Y-08600D01*
X12700Y-08600D02*
X12700Y-08000D01*
X12700Y-08000D02*
X13100Y-08000D01*
X15100Y-21800D02*
X14700Y-21800D01*
X14700Y-21800D02*
X14700Y-21200D01*
X14700Y-21200D02*
X15100Y-21200D01*
X15500Y-21200D02*
X15900Y-21200D01*
X15900Y-21200D02*
X15900Y-21800D01*
X15900Y-21800D02*
X15500Y-21800D01*
X15100Y-22900D02*
X14700Y-22900D01*
X14700Y-22900D02*
X14700Y-22300D01*
X14700Y-22300D02*
X15100Y-22300D01*
X15500Y-22300D02*
X15900Y-22300D01*
X15900Y-22300D02*
X15900Y-22900D01*
X15900Y-22900D02*
X15500Y-22900D01*
X15100Y-24700D02*
X14700Y-24700D01*
X14700Y-24700D02*
X14700Y-24100D01*
X14700Y-24100D02*
X15100Y-24100D01*
X15500Y-24100D02*
X15900Y-24100D01*
X15900Y-24100D02*
X15900Y-24700D01*
X15900Y-24700D02*
X15500Y-24700D01*
X15100Y-25600D02*
X14700Y-25600D01*
X14700Y-25600D02*
X14700Y-25000D01*
X14700Y-25000D02*
X15100Y-25000D01*
X15500Y-25000D02*
X15900Y-25000D01*
X15900Y-25000D02*
X15900Y-25600D01*
X15900Y-25600D02*
X15500Y-25600D01*
X15100Y-23800D02*
X14700Y-23800D01*
X14700Y-23800D02*
X14700Y-23200D01*
X14700Y-23200D02*
X15100Y-23200D01*
X15500Y-23200D02*
X15900Y-23200D01*
X15900Y-23200D02*
X15900Y-23800D01*
X15900Y-23800D02*
X15500Y-23800D01*
X16500Y-30600D02*
X16500Y-30200D01*
X16500Y-30200D02*
X17100Y-30200D01*
X17100Y-30200D02*
X17100Y-30600D01*
X17100Y-31000D02*
X17100Y-31400D01*
X17100Y-31400D02*
X16500Y-31400D01*
X16500Y-31400D02*
X16500Y-31000D01*
X15700Y-30900D02*
X16100Y-30900D01*
X16100Y-30900D02*
X16100Y-31500D01*
X16100Y-31500D02*
X15700Y-31500D01*
X15300Y-31500D02*
X14900Y-31500D01*
X14900Y-31500D02*
X14900Y-30900D01*
X14900Y-30900D02*
X15300Y-30900D01*
X15700Y-30000D02*
X16100Y-30000D01*
X16100Y-30000D02*
X16100Y-30600D01*
X16100Y-30600D02*
X15700Y-30600D01*
X15300Y-30600D02*
X14900Y-30600D01*
X14900Y-30600D02*
X14900Y-30000D01*
X14900Y-30000D02*
X15300Y-30000D01*
G54D13*
X14561Y-29357D02*
X14699Y-29357D01*
X14561Y-26994D02*
X14561Y-29357D01*
X15585Y-29357D02*
X15309Y-29357D01*
X16491Y-29357D02*
X16215Y-29357D01*
X17239Y-29357D02*
X17120Y-29357D01*
X17239Y-26994D02*
X17239Y-29357D01*
X14561Y-26994D02*
X15113Y-26443D01*
X17239Y-26994D02*
X16687Y-26443D01*
X26400Y-31300D02*
X26400Y-06300D01*
X26400Y-06300D02*
X28400Y-06300D01*
X28400Y-06300D02*
X28400Y-31300D01*
X28400Y-31300D02*
X26400Y-31300D01*
G54D11*
X29250Y-19050D02*
X29250Y-18550D01*
X29300Y-18550D02*
X29300Y-19050D01*
X29300Y-19050D02*
X29200Y-19050D01*
X29200Y-19050D02*
X29200Y-18550D01*
X29200Y-18550D02*
X29300Y-18550D01*
X29200Y-32800D02*
X29200Y-32600D01*
X29200Y-32800D02*
X29000Y-32800D01*
X25600Y-32800D02*
X25800Y-32800D01*
X25600Y-32800D02*
X25600Y-32600D01*
X29200Y-04800D02*
X29200Y-05000D01*
X29200Y-04800D02*
X29000Y-04800D01*
X25600Y-04800D02*
X25800Y-04800D01*
X25600Y-04800D02*
X25600Y-05000D01*
G54D12*
X13750Y-27750D02*
X13750Y-27350D01*
X13750Y-27350D02*
X14350Y-27350D01*
X14350Y-27350D02*
X14350Y-27750D01*
X14350Y-28150D02*
X14350Y-28550D01*
X14350Y-28550D02*
X13750Y-28550D01*
X13750Y-28550D02*
X13750Y-28150D01*
X21200Y-18600D02*
X20800Y-18600D01*
X20800Y-18600D02*
X20800Y-18000D01*
X20800Y-18000D02*
X21200Y-18000D01*
X21600Y-18000D02*
X22000Y-18000D01*
X22000Y-18000D02*
X22000Y-18600D01*
X22000Y-18600D02*
X21600Y-18600D01*
X17550Y-28300D02*
X17550Y-27900D01*
X17550Y-27900D02*
X18150Y-27900D01*
X18150Y-27900D02*
X18150Y-28300D01*
X18150Y-28700D02*
X18150Y-29100D01*
X18150Y-29100D02*
X17550Y-29100D01*
X17550Y-29100D02*
X17550Y-28700D01*
X17550Y-26800D02*
X17550Y-26400D01*
X17550Y-26400D02*
X18150Y-26400D01*
X18150Y-26400D02*
X18150Y-26800D01*
X18150Y-27200D02*
X18150Y-27600D01*
X18150Y-27600D02*
X17550Y-27600D01*
X17550Y-27600D02*
X17550Y-27200D01*
X17906Y-15439D02*
X17906Y-15219D01*
X18115Y-15418D02*
X18105Y-15429D01*
X18077Y-15439D01*
X18058Y-15439D01*
X18029Y-15429D01*
X18010Y-15408D01*
X18001Y-15387D01*
X17991Y-15345D01*
X17991Y-15313D01*
X18001Y-15271D01*
X18010Y-15250D01*
X18029Y-15230D01*
X18058Y-15219D01*
X18077Y-15219D01*
X18105Y-15230D01*
X18115Y-15240D01*
X18305Y-15439D02*
X18191Y-15439D01*
X18248Y-15439D02*
X18248Y-15219D01*
X18229Y-15250D01*
X18210Y-15271D01*
X18191Y-15282D01*
X17582Y-15939D02*
X17487Y-15939D01*
X17487Y-15719D01*
X17649Y-15939D02*
X17649Y-15719D01*
X17725Y-15719D01*
X17744Y-15730D01*
X17753Y-15740D01*
X17763Y-15761D01*
X17763Y-15792D01*
X17753Y-15813D01*
X17744Y-15824D01*
X17725Y-15834D01*
X17649Y-15834D01*
X17963Y-15918D02*
X17953Y-15929D01*
X17925Y-15939D01*
X17906Y-15939D01*
X17877Y-15929D01*
X17858Y-15908D01*
X17849Y-15887D01*
X17839Y-15845D01*
X17839Y-15813D01*
X17849Y-15771D01*
X17858Y-15750D01*
X17877Y-15730D01*
X17906Y-15719D01*
X17925Y-15719D01*
X17953Y-15730D01*
X17963Y-15740D01*
X18153Y-15939D02*
X18039Y-15939D01*
X18096Y-15939D02*
X18096Y-15719D01*
X18077Y-15750D01*
X18058Y-15771D01*
X18039Y-15782D01*
X18220Y-15719D02*
X18353Y-15719D01*
X18267Y-15939D01*
X18524Y-15719D02*
X18429Y-15719D01*
X18419Y-15824D01*
X18429Y-15813D01*
X18448Y-15803D01*
X18495Y-15803D01*
X18514Y-15813D01*
X18524Y-15824D01*
X18533Y-15845D01*
X18533Y-15897D01*
X18524Y-15918D01*
X18514Y-15929D01*
X18495Y-15939D01*
X18448Y-15939D01*
X18429Y-15929D01*
X18419Y-15918D01*
X18600Y-15719D02*
X18733Y-15939D01*
X18733Y-15719D02*
X18600Y-15939D01*
G54D13*
X15069Y-27674D02*
X15069Y-27981D01*
X15084Y-28018D01*
X15100Y-28036D01*
X15130Y-28054D01*
X15191Y-28054D01*
X15222Y-28036D01*
X15237Y-28018D01*
X15252Y-27981D01*
X15252Y-27674D01*
X15328Y-28090D02*
X15572Y-28090D01*
X15831Y-28054D02*
X15724Y-27873D01*
X15648Y-28054D02*
X15648Y-27674D01*
X15770Y-27674D01*
X15801Y-27692D01*
X15816Y-27710D01*
X15831Y-27746D01*
X15831Y-27800D01*
X15816Y-27837D01*
X15801Y-27855D01*
X15770Y-27873D01*
X15648Y-27873D01*
X15968Y-27855D02*
X16075Y-27855D01*
X16121Y-28054D02*
X15968Y-28054D01*
X15968Y-27674D01*
X16121Y-27674D01*
X16426Y-27692D02*
X16395Y-27674D01*
X16350Y-27674D01*
X16304Y-27692D01*
X16273Y-27728D01*
X16258Y-27764D01*
X16243Y-27837D01*
X16243Y-27891D01*
X16258Y-27963D01*
X16273Y-28000D01*
X16304Y-28036D01*
X16350Y-28054D01*
X16380Y-28054D01*
X16426Y-28036D01*
X16441Y-28018D01*
X16441Y-27891D01*
X16380Y-27891D01*
X16746Y-28054D02*
X16563Y-28054D01*
X16654Y-28054D02*
X16654Y-27674D01*
X16624Y-27728D01*
X16593Y-27764D01*
X16563Y-27782D01*
X26265Y-31911D02*
X26250Y-31929D01*
X26204Y-31946D01*
X26174Y-31946D01*
X26128Y-31929D01*
X26097Y-31894D01*
X26082Y-31860D01*
X26067Y-31791D01*
X26067Y-31740D01*
X26082Y-31671D01*
X26097Y-31637D01*
X26128Y-31603D01*
X26174Y-31586D01*
X26204Y-31586D01*
X26250Y-31603D01*
X26265Y-31620D01*
X26463Y-31586D02*
X26524Y-31586D01*
X26555Y-31603D01*
X26585Y-31637D01*
X26600Y-31706D01*
X26600Y-31826D01*
X26585Y-31894D01*
X26555Y-31929D01*
X26524Y-31946D01*
X26463Y-31946D01*
X26433Y-31929D01*
X26402Y-31894D01*
X26387Y-31826D01*
X26387Y-31706D01*
X26402Y-31637D01*
X26433Y-31603D01*
X26463Y-31586D01*
X26737Y-31946D02*
X26737Y-31586D01*
X26920Y-31946D01*
X26920Y-31586D01*
X27072Y-31946D02*
X27072Y-31586D01*
X27255Y-31946D01*
X27255Y-31586D01*
X27331Y-31980D02*
X27575Y-31980D01*
X27636Y-31620D02*
X27651Y-31603D01*
X27682Y-31586D01*
X27758Y-31586D01*
X27788Y-31603D01*
X27804Y-31620D01*
X27819Y-31654D01*
X27819Y-31689D01*
X27804Y-31740D01*
X27621Y-31946D01*
X27819Y-31946D01*
X28109Y-31586D02*
X27956Y-31586D01*
X27941Y-31757D01*
X27956Y-31740D01*
X27987Y-31723D01*
X28063Y-31723D01*
X28093Y-31740D01*
X28109Y-31757D01*
X28124Y-31791D01*
X28124Y-31877D01*
X28109Y-31911D01*
X28093Y-31929D01*
X28063Y-31946D01*
X27987Y-31946D01*
X27956Y-31929D01*
X27941Y-31911D01*
X28231Y-31586D02*
X28444Y-31946D01*
X28444Y-31586D02*
X28231Y-31946D01*
X28551Y-31620D02*
X28566Y-31603D01*
X28597Y-31586D01*
X28673Y-31586D01*
X28703Y-31603D01*
X28719Y-31620D01*
X28734Y-31654D01*
X28734Y-31689D01*
X28719Y-31740D01*
X28536Y-31946D01*
X28734Y-31946D01*
X25720Y-18044D02*
X25703Y-18029D01*
X25686Y-17998D01*
X25686Y-17922D01*
X25703Y-17892D01*
X25720Y-17876D01*
X25754Y-17861D01*
X25789Y-17861D01*
X25840Y-17876D01*
X26046Y-18059D01*
X26046Y-17861D01*
X25840Y-17678D02*
X25823Y-17709D01*
X25806Y-17724D01*
X25771Y-17739D01*
X25754Y-17739D01*
X25720Y-17724D01*
X25703Y-17709D01*
X25686Y-17678D01*
X25686Y-17617D01*
X25703Y-17587D01*
X25720Y-17571D01*
X25754Y-17556D01*
X25771Y-17556D01*
X25806Y-17571D01*
X25823Y-17587D01*
X25840Y-17617D01*
X25840Y-17678D01*
X25857Y-17709D01*
X25874Y-17724D01*
X25909Y-17739D01*
X25977Y-17739D01*
X26011Y-17724D01*
X26029Y-17709D01*
X26046Y-17678D01*
X26046Y-17617D01*
X26029Y-17587D01*
X26011Y-17571D01*
X25977Y-17556D01*
X25909Y-17556D01*
X25874Y-17571D01*
X25857Y-17587D01*
X25840Y-17617D01*
X25720Y-20044D02*
X25703Y-20029D01*
X25686Y-19998D01*
X25686Y-19922D01*
X25703Y-19892D01*
X25720Y-19876D01*
X25754Y-19861D01*
X25789Y-19861D01*
X25840Y-19876D01*
X26046Y-20059D01*
X26046Y-19861D01*
X25806Y-19587D02*
X26046Y-19587D01*
X25669Y-19663D02*
X25926Y-19739D01*
X25926Y-19541D01*
X25720Y-19044D02*
X25703Y-19029D01*
X25686Y-18998D01*
X25686Y-18922D01*
X25703Y-18892D01*
X25720Y-18876D01*
X25754Y-18861D01*
X25789Y-18861D01*
X25840Y-18876D01*
X26046Y-19059D01*
X26046Y-18861D01*
X25686Y-18587D02*
X25686Y-18648D01*
X25703Y-18678D01*
X25720Y-18693D01*
X25771Y-18724D01*
X25840Y-18739D01*
X25977Y-18739D01*
X26011Y-18724D01*
X26029Y-18709D01*
X26046Y-18678D01*
X26046Y-18617D01*
X26029Y-18587D01*
X26011Y-18571D01*
X25977Y-18556D01*
X25891Y-18556D01*
X25857Y-18571D01*
X25840Y-18587D01*
X25823Y-18617D01*
X25823Y-18678D01*
X25840Y-18709D01*
X25857Y-18724D01*
X25891Y-18739D01*
X25720Y-30891D02*
X25703Y-30876D01*
X25686Y-30845D01*
X25686Y-30769D01*
X25703Y-30739D01*
X25720Y-30723D01*
X25754Y-30708D01*
X25789Y-30708D01*
X25840Y-30723D01*
X26046Y-30906D01*
X26046Y-30708D01*
X25806Y-29739D02*
X26046Y-29739D01*
X25669Y-29815D02*
X25926Y-29891D01*
X25926Y-29693D01*
X25840Y-27830D02*
X25823Y-27861D01*
X25806Y-27876D01*
X25771Y-27891D01*
X25754Y-27891D01*
X25720Y-27876D01*
X25703Y-27861D01*
X25686Y-27830D01*
X25686Y-27769D01*
X25703Y-27739D01*
X25720Y-27723D01*
X25754Y-27708D01*
X25771Y-27708D01*
X25806Y-27723D01*
X25823Y-27739D01*
X25840Y-27769D01*
X25840Y-27830D01*
X25857Y-27861D01*
X25874Y-27876D01*
X25909Y-27891D01*
X25977Y-27891D01*
X26011Y-27876D01*
X26029Y-27861D01*
X26046Y-27830D01*
X26046Y-27769D01*
X26029Y-27739D01*
X26011Y-27723D01*
X25977Y-27708D01*
X25909Y-27708D01*
X25874Y-27723D01*
X25857Y-27739D01*
X25840Y-27769D01*
X25686Y-28739D02*
X25686Y-28800D01*
X25703Y-28830D01*
X25720Y-28845D01*
X25771Y-28876D01*
X25840Y-28891D01*
X25977Y-28891D01*
X26011Y-28876D01*
X26029Y-28861D01*
X26046Y-28830D01*
X26046Y-28769D01*
X26029Y-28739D01*
X26011Y-28723D01*
X25977Y-28708D01*
X25891Y-28708D01*
X25857Y-28723D01*
X25840Y-28739D01*
X25823Y-28769D01*
X25823Y-28830D01*
X25840Y-28861D01*
X25857Y-28876D01*
X25891Y-28891D01*
X26046Y-24861D02*
X26046Y-25044D01*
X26046Y-24953D02*
X25686Y-24953D01*
X25737Y-24983D01*
X25771Y-25014D01*
X25789Y-25044D01*
X25806Y-24587D02*
X26046Y-24587D01*
X25669Y-24663D02*
X25926Y-24739D01*
X25926Y-24541D01*
X26046Y-23861D02*
X26046Y-24044D01*
X26046Y-23953D02*
X25686Y-23953D01*
X25737Y-23983D01*
X25771Y-24014D01*
X25789Y-24044D01*
X25686Y-23587D02*
X25686Y-23648D01*
X25703Y-23678D01*
X25720Y-23693D01*
X25771Y-23724D01*
X25840Y-23739D01*
X25977Y-23739D01*
X26011Y-23724D01*
X26029Y-23709D01*
X26046Y-23678D01*
X26046Y-23617D01*
X26029Y-23587D01*
X26011Y-23571D01*
X25977Y-23556D01*
X25891Y-23556D01*
X25857Y-23571D01*
X25840Y-23587D01*
X25823Y-23617D01*
X25823Y-23678D01*
X25840Y-23709D01*
X25857Y-23724D01*
X25891Y-23739D01*
X26046Y-25861D02*
X26046Y-26044D01*
X26046Y-25953D02*
X25686Y-25953D01*
X25737Y-25983D01*
X25771Y-26014D01*
X25789Y-26044D01*
X25720Y-25739D02*
X25703Y-25724D01*
X25686Y-25693D01*
X25686Y-25617D01*
X25703Y-25587D01*
X25720Y-25571D01*
X25754Y-25556D01*
X25789Y-25556D01*
X25840Y-25571D01*
X26046Y-25754D01*
X26046Y-25556D01*
X26046Y-26861D02*
X26046Y-27044D01*
X26046Y-26953D02*
X25686Y-26953D01*
X25737Y-26983D01*
X25771Y-27014D01*
X25789Y-27044D01*
X25686Y-26663D02*
X25686Y-26632D01*
X25703Y-26602D01*
X25720Y-26587D01*
X25754Y-26571D01*
X25823Y-26556D01*
X25909Y-26556D01*
X25977Y-26571D01*
X26011Y-26587D01*
X26029Y-26602D01*
X26046Y-26632D01*
X26046Y-26663D01*
X26029Y-26693D01*
X26011Y-26709D01*
X25977Y-26724D01*
X25909Y-26739D01*
X25823Y-26739D01*
X25754Y-26724D01*
X25720Y-26709D01*
X25703Y-26693D01*
X25686Y-26663D01*
X25686Y-16059D02*
X25686Y-15861D01*
X25823Y-15968D01*
X25823Y-15922D01*
X25840Y-15892D01*
X25857Y-15876D01*
X25891Y-15861D01*
X25977Y-15861D01*
X26011Y-15876D01*
X26029Y-15892D01*
X26046Y-15922D01*
X26046Y-16014D01*
X26029Y-16044D01*
X26011Y-16059D01*
X25720Y-15739D02*
X25703Y-15724D01*
X25686Y-15693D01*
X25686Y-15617D01*
X25703Y-15587D01*
X25720Y-15571D01*
X25754Y-15556D01*
X25789Y-15556D01*
X25840Y-15571D01*
X26046Y-15754D01*
X26046Y-15556D01*
X25686Y-17059D02*
X25686Y-16861D01*
X25823Y-16968D01*
X25823Y-16922D01*
X25840Y-16892D01*
X25857Y-16876D01*
X25891Y-16861D01*
X25977Y-16861D01*
X26011Y-16876D01*
X26029Y-16892D01*
X26046Y-16922D01*
X26046Y-17014D01*
X26029Y-17044D01*
X26011Y-17059D01*
X25686Y-16663D02*
X25686Y-16632D01*
X25703Y-16602D01*
X25720Y-16587D01*
X25754Y-16571D01*
X25823Y-16556D01*
X25909Y-16556D01*
X25977Y-16571D01*
X26011Y-16587D01*
X26029Y-16602D01*
X26046Y-16632D01*
X26046Y-16663D01*
X26029Y-16693D01*
X26011Y-16709D01*
X25977Y-16724D01*
X25909Y-16739D01*
X25823Y-16739D01*
X25754Y-16724D01*
X25720Y-16709D01*
X25703Y-16693D01*
X25686Y-16663D01*
X25720Y-21044D02*
X25703Y-21029D01*
X25686Y-20998D01*
X25686Y-20922D01*
X25703Y-20892D01*
X25720Y-20876D01*
X25754Y-20861D01*
X25789Y-20861D01*
X25840Y-20876D01*
X26046Y-21059D01*
X26046Y-20861D01*
X25720Y-20739D02*
X25703Y-20724D01*
X25686Y-20693D01*
X25686Y-20617D01*
X25703Y-20587D01*
X25720Y-20571D01*
X25754Y-20556D01*
X25789Y-20556D01*
X25840Y-20571D01*
X26046Y-20754D01*
X26046Y-20556D01*
X25720Y-22044D02*
X25703Y-22029D01*
X25686Y-21998D01*
X25686Y-21922D01*
X25703Y-21892D01*
X25720Y-21876D01*
X25754Y-21861D01*
X25789Y-21861D01*
X25840Y-21876D01*
X26046Y-22059D01*
X26046Y-21861D01*
X25686Y-21663D02*
X25686Y-21632D01*
X25703Y-21602D01*
X25720Y-21587D01*
X25754Y-21571D01*
X25823Y-21556D01*
X25909Y-21556D01*
X25977Y-21571D01*
X26011Y-21587D01*
X26029Y-21602D01*
X26046Y-21632D01*
X26046Y-21663D01*
X26029Y-21693D01*
X26011Y-21709D01*
X25977Y-21724D01*
X25909Y-21739D01*
X25823Y-21739D01*
X25754Y-21724D01*
X25720Y-21709D01*
X25703Y-21693D01*
X25686Y-21663D01*
X26046Y-22861D02*
X26046Y-23044D01*
X26046Y-22953D02*
X25686Y-22953D01*
X25737Y-22983D01*
X25771Y-23014D01*
X25789Y-23044D01*
X25840Y-22678D02*
X25823Y-22709D01*
X25806Y-22724D01*
X25771Y-22739D01*
X25754Y-22739D01*
X25720Y-22724D01*
X25703Y-22709D01*
X25686Y-22678D01*
X25686Y-22617D01*
X25703Y-22587D01*
X25720Y-22571D01*
X25754Y-22556D01*
X25771Y-22556D01*
X25806Y-22571D01*
X25823Y-22587D01*
X25840Y-22617D01*
X25840Y-22678D01*
X25857Y-22709D01*
X25874Y-22724D01*
X25909Y-22739D01*
X25977Y-22739D01*
X26011Y-22724D01*
X26029Y-22709D01*
X26046Y-22678D01*
X26046Y-22617D01*
X26029Y-22587D01*
X26011Y-22571D01*
X25977Y-22556D01*
X25909Y-22556D01*
X25874Y-22571D01*
X25857Y-22587D01*
X25840Y-22617D01*
X25686Y-06876D02*
X25686Y-07029D01*
X25857Y-07044D01*
X25840Y-07029D01*
X25823Y-06998D01*
X25823Y-06922D01*
X25840Y-06892D01*
X25857Y-06876D01*
X25891Y-06861D01*
X25977Y-06861D01*
X26011Y-06876D01*
X26029Y-06892D01*
X26046Y-06922D01*
X26046Y-06998D01*
X26029Y-07029D01*
X26011Y-07044D01*
X25686Y-06663D02*
X25686Y-06632D01*
X25703Y-06602D01*
X25720Y-06587D01*
X25754Y-06571D01*
X25823Y-06556D01*
X25909Y-06556D01*
X25977Y-06571D01*
X26011Y-06587D01*
X26029Y-06602D01*
X26046Y-06632D01*
X26046Y-06663D01*
X26029Y-06693D01*
X26011Y-06709D01*
X25977Y-06724D01*
X25909Y-06739D01*
X25823Y-06739D01*
X25754Y-06724D01*
X25720Y-06709D01*
X25703Y-06693D01*
X25686Y-06663D01*
X25806Y-10892D02*
X26046Y-10892D01*
X25669Y-10968D02*
X25926Y-11044D01*
X25926Y-10846D01*
X25720Y-10739D02*
X25703Y-10724D01*
X25686Y-10693D01*
X25686Y-10617D01*
X25703Y-10587D01*
X25720Y-10571D01*
X25754Y-10556D01*
X25789Y-10556D01*
X25840Y-10571D01*
X26046Y-10754D01*
X26046Y-10556D01*
X25806Y-09892D02*
X26046Y-09892D01*
X25669Y-09968D02*
X25926Y-10044D01*
X25926Y-09846D01*
X25806Y-09587D02*
X26046Y-09587D01*
X25669Y-09663D02*
X25926Y-09739D01*
X25926Y-09541D01*
X25806Y-07892D02*
X26046Y-07892D01*
X25669Y-07968D02*
X25926Y-08044D01*
X25926Y-07846D01*
X25840Y-07678D02*
X25823Y-07709D01*
X25806Y-07724D01*
X25771Y-07739D01*
X25754Y-07739D01*
X25720Y-07724D01*
X25703Y-07709D01*
X25686Y-07678D01*
X25686Y-07617D01*
X25703Y-07587D01*
X25720Y-07571D01*
X25754Y-07556D01*
X25771Y-07556D01*
X25806Y-07571D01*
X25823Y-07587D01*
X25840Y-07617D01*
X25840Y-07678D01*
X25857Y-07709D01*
X25874Y-07724D01*
X25909Y-07739D01*
X25977Y-07739D01*
X26011Y-07724D01*
X26029Y-07709D01*
X26046Y-07678D01*
X26046Y-07617D01*
X26029Y-07587D01*
X26011Y-07571D01*
X25977Y-07556D01*
X25909Y-07556D01*
X25874Y-07571D01*
X25857Y-07587D01*
X25840Y-07617D01*
X25806Y-08892D02*
X26046Y-08892D01*
X25669Y-08968D02*
X25926Y-09044D01*
X25926Y-08846D01*
X25686Y-08587D02*
X25686Y-08648D01*
X25703Y-08678D01*
X25720Y-08693D01*
X25771Y-08724D01*
X25840Y-08739D01*
X25977Y-08739D01*
X26011Y-08724D01*
X26029Y-08709D01*
X26046Y-08678D01*
X26046Y-08617D01*
X26029Y-08587D01*
X26011Y-08571D01*
X25977Y-08556D01*
X25891Y-08556D01*
X25857Y-08571D01*
X25840Y-08587D01*
X25823Y-08617D01*
X25823Y-08678D01*
X25840Y-08709D01*
X25857Y-08724D01*
X25891Y-08739D01*
X25686Y-13059D02*
X25686Y-12861D01*
X25823Y-12968D01*
X25823Y-12922D01*
X25840Y-12892D01*
X25857Y-12876D01*
X25891Y-12861D01*
X25977Y-12861D01*
X26011Y-12876D01*
X26029Y-12892D01*
X26046Y-12922D01*
X26046Y-13014D01*
X26029Y-13044D01*
X26011Y-13059D01*
X25840Y-12678D02*
X25823Y-12709D01*
X25806Y-12724D01*
X25771Y-12739D01*
X25754Y-12739D01*
X25720Y-12724D01*
X25703Y-12709D01*
X25686Y-12678D01*
X25686Y-12617D01*
X25703Y-12587D01*
X25720Y-12571D01*
X25754Y-12556D01*
X25771Y-12556D01*
X25806Y-12571D01*
X25823Y-12587D01*
X25840Y-12617D01*
X25840Y-12678D01*
X25857Y-12709D01*
X25874Y-12724D01*
X25909Y-12739D01*
X25977Y-12739D01*
X26011Y-12724D01*
X26029Y-12709D01*
X26046Y-12678D01*
X26046Y-12617D01*
X26029Y-12587D01*
X26011Y-12571D01*
X25977Y-12556D01*
X25909Y-12556D01*
X25874Y-12571D01*
X25857Y-12587D01*
X25840Y-12617D01*
X25806Y-11892D02*
X26046Y-11892D01*
X25669Y-11968D02*
X25926Y-12044D01*
X25926Y-11846D01*
X25686Y-11663D02*
X25686Y-11632D01*
X25703Y-11602D01*
X25720Y-11587D01*
X25754Y-11571D01*
X25823Y-11556D01*
X25909Y-11556D01*
X25977Y-11571D01*
X26011Y-11587D01*
X26029Y-11602D01*
X26046Y-11632D01*
X26046Y-11663D01*
X26029Y-11693D01*
X26011Y-11709D01*
X25977Y-11724D01*
X25909Y-11739D01*
X25823Y-11739D01*
X25754Y-11724D01*
X25720Y-11709D01*
X25703Y-11693D01*
X25686Y-11663D01*
X25686Y-14059D02*
X25686Y-13861D01*
X25823Y-13968D01*
X25823Y-13922D01*
X25840Y-13892D01*
X25857Y-13876D01*
X25891Y-13861D01*
X25977Y-13861D01*
X26011Y-13876D01*
X26029Y-13892D01*
X26046Y-13922D01*
X26046Y-14014D01*
X26029Y-14044D01*
X26011Y-14059D01*
X25686Y-13587D02*
X25686Y-13648D01*
X25703Y-13678D01*
X25720Y-13693D01*
X25771Y-13724D01*
X25840Y-13739D01*
X25977Y-13739D01*
X26011Y-13724D01*
X26029Y-13709D01*
X26046Y-13678D01*
X26046Y-13617D01*
X26029Y-13587D01*
X26011Y-13571D01*
X25977Y-13556D01*
X25891Y-13556D01*
X25857Y-13571D01*
X25840Y-13587D01*
X25823Y-13617D01*
X25823Y-13678D01*
X25840Y-13709D01*
X25857Y-13724D01*
X25891Y-13739D01*
X25686Y-15059D02*
X25686Y-14861D01*
X25823Y-14968D01*
X25823Y-14922D01*
X25840Y-14892D01*
X25857Y-14876D01*
X25891Y-14861D01*
X25977Y-14861D01*
X26011Y-14876D01*
X26029Y-14892D01*
X26046Y-14922D01*
X26046Y-15014D01*
X26029Y-15044D01*
X26011Y-15059D01*
X25806Y-14587D02*
X26046Y-14587D01*
X25669Y-14663D02*
X25926Y-14739D01*
X25926Y-14541D01*
X28686Y-15059D02*
X28686Y-14861D01*
X28823Y-14968D01*
X28823Y-14922D01*
X28840Y-14892D01*
X28857Y-14876D01*
X28891Y-14861D01*
X28977Y-14861D01*
X29011Y-14876D01*
X29029Y-14892D01*
X29046Y-14922D01*
X29046Y-15014D01*
X29029Y-15044D01*
X29011Y-15059D01*
X28686Y-14754D02*
X28686Y-14556D01*
X28823Y-14663D01*
X28823Y-14617D01*
X28840Y-14587D01*
X28857Y-14571D01*
X28891Y-14556D01*
X28977Y-14556D01*
X29011Y-14571D01*
X29029Y-14587D01*
X29046Y-14617D01*
X29046Y-14709D01*
X29029Y-14739D01*
X29011Y-14754D01*
X28686Y-14059D02*
X28686Y-13861D01*
X28823Y-13968D01*
X28823Y-13922D01*
X28840Y-13892D01*
X28857Y-13876D01*
X28891Y-13861D01*
X28977Y-13861D01*
X29011Y-13876D01*
X29029Y-13892D01*
X29046Y-13922D01*
X29046Y-14014D01*
X29029Y-14044D01*
X29011Y-14059D01*
X28686Y-13571D02*
X28686Y-13724D01*
X28857Y-13739D01*
X28840Y-13724D01*
X28823Y-13693D01*
X28823Y-13617D01*
X28840Y-13587D01*
X28857Y-13571D01*
X28891Y-13556D01*
X28977Y-13556D01*
X29011Y-13571D01*
X29029Y-13587D01*
X29046Y-13617D01*
X29046Y-13693D01*
X29029Y-13724D01*
X29011Y-13739D01*
X28686Y-12059D02*
X28686Y-11861D01*
X28823Y-11968D01*
X28823Y-11922D01*
X28840Y-11892D01*
X28857Y-11876D01*
X28891Y-11861D01*
X28977Y-11861D01*
X29011Y-11876D01*
X29029Y-11892D01*
X29046Y-11922D01*
X29046Y-12014D01*
X29029Y-12044D01*
X29011Y-12059D01*
X29046Y-11709D02*
X29046Y-11648D01*
X29029Y-11617D01*
X29011Y-11602D01*
X28960Y-11571D01*
X28891Y-11556D01*
X28754Y-11556D01*
X28720Y-11571D01*
X28703Y-11587D01*
X28686Y-11617D01*
X28686Y-11678D01*
X28703Y-11709D01*
X28720Y-11724D01*
X28754Y-11739D01*
X28840Y-11739D01*
X28874Y-11724D01*
X28891Y-11709D01*
X28909Y-11678D01*
X28909Y-11617D01*
X28891Y-11587D01*
X28874Y-11571D01*
X28840Y-11556D01*
X28686Y-13059D02*
X28686Y-12861D01*
X28823Y-12968D01*
X28823Y-12922D01*
X28840Y-12892D01*
X28857Y-12876D01*
X28891Y-12861D01*
X28977Y-12861D01*
X29011Y-12876D01*
X29029Y-12892D01*
X29046Y-12922D01*
X29046Y-13014D01*
X29029Y-13044D01*
X29011Y-13059D01*
X28686Y-12754D02*
X28686Y-12541D01*
X29046Y-12678D01*
X28806Y-08892D02*
X29046Y-08892D01*
X28669Y-08968D02*
X28926Y-09044D01*
X28926Y-08846D01*
X28686Y-08571D02*
X28686Y-08724D01*
X28857Y-08739D01*
X28840Y-08724D01*
X28823Y-08693D01*
X28823Y-08617D01*
X28840Y-08587D01*
X28857Y-08571D01*
X28891Y-08556D01*
X28977Y-08556D01*
X29011Y-08571D01*
X29029Y-08587D01*
X29046Y-08617D01*
X29046Y-08693D01*
X29029Y-08724D01*
X29011Y-08739D01*
X28806Y-07892D02*
X29046Y-07892D01*
X28669Y-07968D02*
X28926Y-08044D01*
X28926Y-07846D01*
X28686Y-07754D02*
X28686Y-07541D01*
X29046Y-07678D01*
X28806Y-09892D02*
X29046Y-09892D01*
X28669Y-09968D02*
X28926Y-10044D01*
X28926Y-09846D01*
X28686Y-09754D02*
X28686Y-09556D01*
X28823Y-09663D01*
X28823Y-09617D01*
X28840Y-09587D01*
X28857Y-09571D01*
X28891Y-09556D01*
X28977Y-09556D01*
X29011Y-09571D01*
X29029Y-09587D01*
X29046Y-09617D01*
X29046Y-09709D01*
X29029Y-09739D01*
X29011Y-09754D01*
X28806Y-10892D02*
X29046Y-10892D01*
X28669Y-10968D02*
X28926Y-11044D01*
X28926Y-10846D01*
X29046Y-10556D02*
X29046Y-10739D01*
X29046Y-10648D02*
X28686Y-10648D01*
X28737Y-10678D01*
X28771Y-10709D01*
X28789Y-10739D01*
X28806Y-06892D02*
X29046Y-06892D01*
X28669Y-06968D02*
X28926Y-07044D01*
X28926Y-06846D01*
X29046Y-06709D02*
X29046Y-06648D01*
X29029Y-06617D01*
X29011Y-06602D01*
X28960Y-06571D01*
X28891Y-06556D01*
X28754Y-06556D01*
X28720Y-06571D01*
X28703Y-06587D01*
X28686Y-06617D01*
X28686Y-06678D01*
X28703Y-06709D01*
X28720Y-06724D01*
X28754Y-06739D01*
X28840Y-06739D01*
X28874Y-06724D01*
X28891Y-06709D01*
X28909Y-06678D01*
X28909Y-06617D01*
X28891Y-06587D01*
X28874Y-06571D01*
X28840Y-06556D01*
X29046Y-22861D02*
X29046Y-23044D01*
X29046Y-22953D02*
X28686Y-22953D01*
X28737Y-22983D01*
X28771Y-23014D01*
X28789Y-23044D01*
X28686Y-22754D02*
X28686Y-22541D01*
X29046Y-22678D01*
X29046Y-21861D02*
X29046Y-22044D01*
X29046Y-21953D02*
X28686Y-21953D01*
X28737Y-21983D01*
X28771Y-22014D01*
X28789Y-22044D01*
X29046Y-21709D02*
X29046Y-21648D01*
X29029Y-21617D01*
X29011Y-21602D01*
X28960Y-21571D01*
X28891Y-21556D01*
X28754Y-21556D01*
X28720Y-21571D01*
X28703Y-21587D01*
X28686Y-21617D01*
X28686Y-21678D01*
X28703Y-21709D01*
X28720Y-21724D01*
X28754Y-21739D01*
X28840Y-21739D01*
X28874Y-21724D01*
X28891Y-21709D01*
X28909Y-21678D01*
X28909Y-21617D01*
X28891Y-21587D01*
X28874Y-21571D01*
X28840Y-21556D01*
X28720Y-20044D02*
X28703Y-20029D01*
X28686Y-19998D01*
X28686Y-19922D01*
X28703Y-19892D01*
X28720Y-19876D01*
X28754Y-19861D01*
X28789Y-19861D01*
X28840Y-19876D01*
X29046Y-20059D01*
X29046Y-19861D01*
X28686Y-19754D02*
X28686Y-19556D01*
X28823Y-19663D01*
X28823Y-19617D01*
X28840Y-19587D01*
X28857Y-19571D01*
X28891Y-19556D01*
X28977Y-19556D01*
X29011Y-19571D01*
X29029Y-19587D01*
X29046Y-19617D01*
X29046Y-19709D01*
X29029Y-19739D01*
X29011Y-19754D01*
X28720Y-21044D02*
X28703Y-21029D01*
X28686Y-20998D01*
X28686Y-20922D01*
X28703Y-20892D01*
X28720Y-20876D01*
X28754Y-20861D01*
X28789Y-20861D01*
X28840Y-20876D01*
X29046Y-21059D01*
X29046Y-20861D01*
X29046Y-20556D02*
X29046Y-20739D01*
X29046Y-20648D02*
X28686Y-20648D01*
X28737Y-20678D01*
X28771Y-20709D01*
X28789Y-20739D01*
X28720Y-17044D02*
X28703Y-17029D01*
X28686Y-16998D01*
X28686Y-16922D01*
X28703Y-16892D01*
X28720Y-16876D01*
X28754Y-16861D01*
X28789Y-16861D01*
X28840Y-16876D01*
X29046Y-17059D01*
X29046Y-16861D01*
X29046Y-16709D02*
X29046Y-16648D01*
X29029Y-16617D01*
X29011Y-16602D01*
X28960Y-16571D01*
X28891Y-16556D01*
X28754Y-16556D01*
X28720Y-16571D01*
X28703Y-16587D01*
X28686Y-16617D01*
X28686Y-16678D01*
X28703Y-16709D01*
X28720Y-16724D01*
X28754Y-16739D01*
X28840Y-16739D01*
X28874Y-16724D01*
X28891Y-16709D01*
X28909Y-16678D01*
X28909Y-16617D01*
X28891Y-16587D01*
X28874Y-16571D01*
X28840Y-16556D01*
X28686Y-16059D02*
X28686Y-15861D01*
X28823Y-15968D01*
X28823Y-15922D01*
X28840Y-15892D01*
X28857Y-15876D01*
X28891Y-15861D01*
X28977Y-15861D01*
X29011Y-15876D01*
X29029Y-15892D01*
X29046Y-15922D01*
X29046Y-16014D01*
X29029Y-16044D01*
X29011Y-16059D01*
X29046Y-15556D02*
X29046Y-15739D01*
X29046Y-15648D02*
X28686Y-15648D01*
X28737Y-15678D01*
X28771Y-15709D01*
X28789Y-15739D01*
X28720Y-18044D02*
X28703Y-18029D01*
X28686Y-17998D01*
X28686Y-17922D01*
X28703Y-17892D01*
X28720Y-17876D01*
X28754Y-17861D01*
X28789Y-17861D01*
X28840Y-17876D01*
X29046Y-18059D01*
X29046Y-17861D01*
X28686Y-17754D02*
X28686Y-17541D01*
X29046Y-17678D01*
X28720Y-19044D02*
X28703Y-19029D01*
X28686Y-18998D01*
X28686Y-18922D01*
X28703Y-18892D01*
X28720Y-18876D01*
X28754Y-18861D01*
X28789Y-18861D01*
X28840Y-18876D01*
X29046Y-19059D01*
X29046Y-18861D01*
X28686Y-18571D02*
X28686Y-18724D01*
X28857Y-18739D01*
X28840Y-18724D01*
X28823Y-18693D01*
X28823Y-18617D01*
X28840Y-18587D01*
X28857Y-18571D01*
X28891Y-18556D01*
X28977Y-18556D01*
X29011Y-18571D01*
X29029Y-18587D01*
X29046Y-18617D01*
X29046Y-18693D01*
X29029Y-18724D01*
X29011Y-18739D01*
X29046Y-26861D02*
X29046Y-26800D01*
X29029Y-26769D01*
X29011Y-26754D01*
X28960Y-26723D01*
X28891Y-26708D01*
X28754Y-26708D01*
X28720Y-26723D01*
X28703Y-26739D01*
X28686Y-26769D01*
X28686Y-26830D01*
X28703Y-26861D01*
X28720Y-26876D01*
X28754Y-26891D01*
X28840Y-26891D01*
X28874Y-26876D01*
X28891Y-26861D01*
X28909Y-26830D01*
X28909Y-26769D01*
X28891Y-26739D01*
X28874Y-26723D01*
X28840Y-26708D01*
X29046Y-25861D02*
X29046Y-26044D01*
X29046Y-25953D02*
X28686Y-25953D01*
X28737Y-25983D01*
X28771Y-26014D01*
X28789Y-26044D01*
X29046Y-25556D02*
X29046Y-25739D01*
X29046Y-25648D02*
X28686Y-25648D01*
X28737Y-25678D01*
X28771Y-25709D01*
X28789Y-25739D01*
X29046Y-23861D02*
X29046Y-24044D01*
X29046Y-23953D02*
X28686Y-23953D01*
X28737Y-23983D01*
X28771Y-24014D01*
X28789Y-24044D01*
X28686Y-23571D02*
X28686Y-23724D01*
X28857Y-23739D01*
X28840Y-23724D01*
X28823Y-23693D01*
X28823Y-23617D01*
X28840Y-23587D01*
X28857Y-23571D01*
X28891Y-23556D01*
X28977Y-23556D01*
X29011Y-23571D01*
X29029Y-23587D01*
X29046Y-23617D01*
X29046Y-23693D01*
X29029Y-23724D01*
X29011Y-23739D01*
X29046Y-24861D02*
X29046Y-25044D01*
X29046Y-24953D02*
X28686Y-24953D01*
X28737Y-24983D01*
X28771Y-25014D01*
X28789Y-25044D01*
X28686Y-24754D02*
X28686Y-24556D01*
X28823Y-24663D01*
X28823Y-24617D01*
X28840Y-24587D01*
X28857Y-24571D01*
X28891Y-24556D01*
X28977Y-24556D01*
X29011Y-24571D01*
X29029Y-24587D01*
X29046Y-24617D01*
X29046Y-24709D01*
X29029Y-24739D01*
X29011Y-24754D01*
X28686Y-28723D02*
X28686Y-28876D01*
X28857Y-28891D01*
X28840Y-28876D01*
X28823Y-28845D01*
X28823Y-28769D01*
X28840Y-28739D01*
X28857Y-28723D01*
X28891Y-28708D01*
X28977Y-28708D01*
X29011Y-28723D01*
X29029Y-28739D01*
X29046Y-28769D01*
X29046Y-28845D01*
X29029Y-28876D01*
X29011Y-28891D01*
X28686Y-27906D02*
X28686Y-27693D01*
X29046Y-27830D01*
X28686Y-29906D02*
X28686Y-29708D01*
X28823Y-29815D01*
X28823Y-29769D01*
X28840Y-29739D01*
X28857Y-29723D01*
X28891Y-29708D01*
X28977Y-29708D01*
X29011Y-29723D01*
X29029Y-29739D01*
X29046Y-29769D01*
X29046Y-29861D01*
X29029Y-29891D01*
X29011Y-29906D01*
X29046Y-30708D02*
X29046Y-30891D01*
X29046Y-30800D02*
X28686Y-30800D01*
X28737Y-30830D01*
X28771Y-30861D01*
X28789Y-30891D01*
M02*
