G04 (created by PCBNEW-RS274X (2011-03-30 BZR 2932)-stable) date 28/04/2011 12:56:03 p.m.*
G01*
G70*
G90*
%MOIN*%
G04 Gerber Fmt 3.4, Leading zero omitted, Abs format*
%FSLAX34Y34*%
G04 APERTURE LIST*
%ADD10C,0.006000*%
%ADD11C,0.050000*%
%ADD12C,0.060000*%
%ADD13C,0.106300*%
%ADD14C,0.065000*%
%ADD15C,0.189000*%
%ADD16R,0.189000X0.189000*%
%ADD17R,0.060000X0.060000*%
%ADD18C,0.086600*%
%ADD19R,0.177200X0.047200*%
%ADD20C,0.059100*%
%ADD21C,0.118100*%
%ADD22R,0.055000X0.055000*%
%ADD23C,0.055000*%
%ADD24C,0.031500*%
%ADD25C,0.010000*%
G04 APERTURE END LIST*
G54D10*
G54D11*
X12700Y-16800D03*
X12700Y-15800D03*
G54D12*
X14000Y-09216D03*
X14000Y-11184D03*
X13450Y-23900D03*
X13450Y-24900D03*
X12663Y-24900D03*
X12663Y-23900D03*
G54D13*
X11600Y-22038D03*
X11600Y-26762D03*
G54D14*
X27900Y-18800D03*
X26900Y-18800D03*
X27900Y-17800D03*
X26900Y-17800D03*
X27900Y-16800D03*
X26900Y-16800D03*
X26900Y-13800D03*
X27900Y-13800D03*
X26900Y-14800D03*
X27900Y-14800D03*
X26900Y-15800D03*
X27900Y-15800D03*
X27900Y-09800D03*
X26900Y-09800D03*
X27900Y-08800D03*
X26900Y-08800D03*
X26900Y-10800D03*
X27900Y-10800D03*
X26900Y-11800D03*
X27900Y-11800D03*
X26900Y-12800D03*
X27900Y-12800D03*
X27900Y-24800D03*
X26900Y-24800D03*
X27900Y-23800D03*
X26900Y-23800D03*
X27900Y-22800D03*
X26900Y-22800D03*
X26900Y-19800D03*
X27900Y-19800D03*
X26900Y-20800D03*
X27900Y-20800D03*
X26900Y-21800D03*
X27900Y-21800D03*
X27900Y-27800D03*
X26900Y-27800D03*
X27900Y-26800D03*
X26900Y-26800D03*
X27900Y-25800D03*
X26900Y-25800D03*
X26900Y-06800D03*
X27900Y-06800D03*
X26900Y-07800D03*
X27900Y-07800D03*
X26900Y-28800D03*
X27900Y-28800D03*
X26900Y-29800D03*
X27900Y-29800D03*
X26900Y-30800D03*
X27900Y-30800D03*
G54D15*
X10700Y-30700D03*
G54D16*
X13100Y-30700D03*
G54D15*
X11600Y-28700D03*
G54D17*
X22500Y-19200D03*
G54D12*
X21500Y-19200D03*
G54D17*
X19200Y-29400D03*
G54D12*
X19200Y-30400D03*
X19200Y-31400D03*
G54D18*
X10535Y-19500D03*
G54D19*
X13311Y-19500D03*
X09689Y-19500D03*
G54D18*
X12465Y-19500D03*
G54D17*
X10200Y-10950D03*
G54D12*
X09200Y-10950D03*
X10200Y-11950D03*
X09200Y-11950D03*
X10200Y-12950D03*
X09200Y-12950D03*
X10200Y-13950D03*
X09200Y-13950D03*
G54D20*
X09803Y-23009D03*
X09803Y-24009D03*
X09803Y-24809D03*
X09803Y-25809D03*
G54D21*
X08753Y-21809D03*
X08753Y-27209D03*
G54D22*
X18700Y-27550D03*
G54D23*
X19700Y-27550D03*
G54D22*
X21450Y-29050D03*
G54D23*
X21450Y-30050D03*
G54D14*
X15450Y-18400D03*
X17050Y-25650D03*
X19800Y-20700D03*
X16550Y-10450D03*
X23300Y-14200D03*
X23150Y-20400D03*
X17425Y-23225D03*
X10200Y-15000D03*
X10200Y-17600D03*
X15125Y-20350D03*
G54D24*
X18200Y-21150D02*
X15450Y-18400D01*
X18200Y-24500D02*
X18200Y-21150D01*
X17050Y-25650D02*
X18200Y-24500D01*
G54D25*
X20100Y-20400D02*
X23150Y-20400D01*
X19800Y-20700D02*
X20100Y-20400D01*
X13800Y-17600D02*
X13800Y-13200D01*
X13800Y-13200D02*
X16550Y-10450D01*
X19600Y-10500D02*
X23300Y-14200D01*
X16550Y-10450D02*
X16600Y-10500D01*
X16600Y-10500D02*
X19600Y-10500D01*
X23300Y-20250D02*
X23300Y-14200D01*
X23150Y-20400D02*
X23300Y-20250D01*
X15125Y-20350D02*
X15125Y-20925D01*
X15125Y-20925D02*
X17425Y-23225D01*
X10200Y-17600D02*
X13800Y-17600D01*
X15125Y-18925D02*
X15125Y-20350D01*
X13800Y-17600D02*
X14500Y-18300D01*
X14500Y-18300D02*
X15125Y-18925D01*
X10200Y-15000D02*
X10200Y-17600D01*
X13311Y-19500D02*
X12465Y-19500D01*
X09689Y-19500D02*
X10535Y-19500D01*
G54D10*
G36*
X26250Y-32525D02*
X23050Y-32525D01*
X23050Y-19527D01*
X23050Y-19478D01*
X23050Y-19312D01*
X23050Y-19088D01*
X23050Y-18922D01*
X23050Y-18873D01*
X23040Y-18825D01*
X23021Y-18780D01*
X22993Y-18740D01*
X22958Y-18705D01*
X22917Y-18678D01*
X22872Y-18659D01*
X22824Y-18650D01*
X22612Y-18650D01*
X22550Y-18712D01*
X22550Y-19150D01*
X22988Y-19150D01*
X23050Y-19088D01*
X23050Y-19312D01*
X22988Y-19250D01*
X22550Y-19250D01*
X22550Y-19688D01*
X22612Y-19750D01*
X22824Y-19750D01*
X22872Y-19741D01*
X22917Y-19722D01*
X22958Y-19695D01*
X22993Y-19660D01*
X23021Y-19620D01*
X23040Y-19575D01*
X23050Y-19527D01*
X23050Y-32525D01*
X22450Y-32525D01*
X22450Y-19688D01*
X22450Y-19300D01*
X22450Y-19250D01*
X22450Y-19150D01*
X22450Y-19100D01*
X22450Y-18712D01*
X22388Y-18650D01*
X22176Y-18650D01*
X22128Y-18659D01*
X22083Y-18678D01*
X22042Y-18705D01*
X22007Y-18740D01*
X21979Y-18780D01*
X21960Y-18825D01*
X21950Y-18873D01*
X21950Y-18922D01*
X21950Y-18978D01*
X21944Y-18964D01*
X21889Y-18882D01*
X21820Y-18813D01*
X21739Y-18758D01*
X21649Y-18720D01*
X21553Y-18700D01*
X21454Y-18700D01*
X21358Y-18718D01*
X21267Y-18755D01*
X21185Y-18808D01*
X21115Y-18877D01*
X21060Y-18958D01*
X21021Y-19048D01*
X21001Y-19144D01*
X20999Y-19242D01*
X21017Y-19338D01*
X21053Y-19430D01*
X21106Y-19512D01*
X21174Y-19583D01*
X21255Y-19639D01*
X21345Y-19678D01*
X21440Y-19699D01*
X21539Y-19701D01*
X21635Y-19684D01*
X21726Y-19648D01*
X21809Y-19596D01*
X21880Y-19528D01*
X21937Y-19448D01*
X21950Y-19419D01*
X21950Y-19478D01*
X21950Y-19527D01*
X21960Y-19575D01*
X21979Y-19620D01*
X22007Y-19660D01*
X22042Y-19695D01*
X22083Y-19722D01*
X22128Y-19741D01*
X22176Y-19750D01*
X22388Y-19750D01*
X22450Y-19688D01*
X22450Y-32525D01*
X21925Y-32525D01*
X21925Y-30003D01*
X21924Y-29997D01*
X21924Y-29345D01*
X21924Y-29306D01*
X21924Y-28755D01*
X21916Y-28717D01*
X21901Y-28681D01*
X21880Y-28648D01*
X21852Y-28621D01*
X21820Y-28599D01*
X21784Y-28584D01*
X21745Y-28576D01*
X21706Y-28576D01*
X21155Y-28576D01*
X21117Y-28584D01*
X21081Y-28599D01*
X21048Y-28620D01*
X21021Y-28648D01*
X20999Y-28680D01*
X20984Y-28716D01*
X20976Y-28755D01*
X20976Y-28794D01*
X20976Y-29345D01*
X20984Y-29383D01*
X20999Y-29419D01*
X21020Y-29452D01*
X21048Y-29479D01*
X21080Y-29501D01*
X21116Y-29516D01*
X21155Y-29524D01*
X21194Y-29524D01*
X21745Y-29524D01*
X21783Y-29516D01*
X21819Y-29501D01*
X21852Y-29480D01*
X21879Y-29452D01*
X21901Y-29420D01*
X21916Y-29384D01*
X21924Y-29345D01*
X21924Y-29997D01*
X21907Y-29912D01*
X21871Y-29826D01*
X21820Y-29748D01*
X21754Y-29682D01*
X21677Y-29630D01*
X21591Y-29594D01*
X21499Y-29575D01*
X21406Y-29575D01*
X21315Y-29592D01*
X21228Y-29627D01*
X21151Y-29678D01*
X21084Y-29744D01*
X21032Y-29820D01*
X20995Y-29906D01*
X20976Y-29997D01*
X20974Y-30090D01*
X20991Y-30182D01*
X21026Y-30269D01*
X21076Y-30347D01*
X21141Y-30414D01*
X21218Y-30467D01*
X21303Y-30504D01*
X21394Y-30524D01*
X21487Y-30526D01*
X21579Y-30510D01*
X21666Y-30476D01*
X21744Y-30426D01*
X21812Y-30362D01*
X21865Y-30285D01*
X21903Y-30200D01*
X21924Y-30109D01*
X21925Y-30003D01*
X21925Y-32525D01*
X20225Y-32525D01*
X20225Y-27522D01*
X20209Y-27420D01*
X20174Y-27324D01*
X20152Y-27283D01*
X20061Y-27260D01*
X19990Y-27331D01*
X19990Y-27189D01*
X19967Y-27098D01*
X19874Y-27055D01*
X19774Y-27030D01*
X19672Y-27025D01*
X19570Y-27041D01*
X19474Y-27076D01*
X19433Y-27098D01*
X19410Y-27189D01*
X19700Y-27479D01*
X19990Y-27189D01*
X19990Y-27331D01*
X19771Y-27550D01*
X20061Y-27840D01*
X20152Y-27817D01*
X20195Y-27724D01*
X20220Y-27624D01*
X20225Y-27522D01*
X20225Y-32525D01*
X19990Y-32525D01*
X19990Y-27911D01*
X19700Y-27621D01*
X19629Y-27692D01*
X19629Y-27550D01*
X19339Y-27260D01*
X19248Y-27283D01*
X19205Y-27376D01*
X19180Y-27476D01*
X19175Y-27578D01*
X19191Y-27680D01*
X19226Y-27776D01*
X19248Y-27817D01*
X19339Y-27840D01*
X19629Y-27550D01*
X19629Y-27692D01*
X19410Y-27911D01*
X19433Y-28002D01*
X19526Y-28045D01*
X19626Y-28070D01*
X19728Y-28075D01*
X19830Y-28059D01*
X19926Y-28024D01*
X19967Y-28002D01*
X19990Y-27911D01*
X19990Y-32525D01*
X19700Y-32525D01*
X19700Y-31351D01*
X19681Y-31255D01*
X19644Y-31164D01*
X19589Y-31082D01*
X19520Y-31013D01*
X19439Y-30958D01*
X19349Y-30920D01*
X19253Y-30900D01*
X19244Y-30900D01*
X19335Y-30884D01*
X19426Y-30848D01*
X19509Y-30796D01*
X19580Y-30728D01*
X19637Y-30648D01*
X19677Y-30559D01*
X19698Y-30463D01*
X19700Y-30351D01*
X19699Y-30345D01*
X19699Y-29720D01*
X19699Y-29681D01*
X19699Y-29080D01*
X19691Y-29042D01*
X19676Y-29006D01*
X19655Y-28973D01*
X19627Y-28946D01*
X19595Y-28924D01*
X19559Y-28909D01*
X19520Y-28901D01*
X19481Y-28901D01*
X19174Y-28901D01*
X19174Y-27845D01*
X19174Y-27806D01*
X19174Y-27255D01*
X19166Y-27217D01*
X19151Y-27181D01*
X19130Y-27148D01*
X19102Y-27121D01*
X19070Y-27099D01*
X19034Y-27084D01*
X18995Y-27076D01*
X18956Y-27076D01*
X18557Y-27076D01*
X18557Y-24505D01*
X18557Y-24501D01*
X18557Y-24500D01*
X18557Y-21153D01*
X18557Y-21150D01*
X18555Y-21132D01*
X18551Y-21084D01*
X18550Y-21081D01*
X18532Y-21018D01*
X18530Y-21014D01*
X18524Y-21002D01*
X18499Y-20955D01*
X18497Y-20953D01*
X18497Y-20952D01*
X18479Y-20931D01*
X18456Y-20901D01*
X18454Y-20899D01*
X18453Y-20898D01*
X18447Y-20893D01*
X15972Y-18418D01*
X15974Y-18349D01*
X15954Y-18248D01*
X15915Y-18153D01*
X15858Y-18068D01*
X15786Y-17995D01*
X15701Y-17937D01*
X15606Y-17897D01*
X15505Y-17876D01*
X15403Y-17876D01*
X15302Y-17895D01*
X15206Y-17933D01*
X15120Y-17989D01*
X15047Y-18061D01*
X14989Y-18146D01*
X14948Y-18240D01*
X14927Y-18341D01*
X14925Y-18444D01*
X14944Y-18545D01*
X14982Y-18640D01*
X15037Y-18727D01*
X15108Y-18801D01*
X15193Y-18859D01*
X15287Y-18901D01*
X15387Y-18923D01*
X15470Y-18924D01*
X17843Y-21297D01*
X17843Y-24352D01*
X17069Y-25126D01*
X17003Y-25126D01*
X16902Y-25145D01*
X16806Y-25183D01*
X16720Y-25239D01*
X16647Y-25311D01*
X16589Y-25396D01*
X16548Y-25490D01*
X16527Y-25591D01*
X16525Y-25694D01*
X16544Y-25795D01*
X16582Y-25890D01*
X16637Y-25977D01*
X16708Y-26051D01*
X16793Y-26109D01*
X16887Y-26151D01*
X16987Y-26173D01*
X17090Y-26175D01*
X17191Y-26157D01*
X17287Y-26120D01*
X17374Y-26065D01*
X17448Y-25994D01*
X17508Y-25910D01*
X17549Y-25817D01*
X17572Y-25716D01*
X17573Y-25630D01*
X18449Y-24755D01*
X18450Y-24755D01*
X18450Y-24754D01*
X18452Y-24753D01*
X18459Y-24744D01*
X18495Y-24702D01*
X18496Y-24699D01*
X18528Y-24641D01*
X18529Y-24637D01*
X18549Y-24574D01*
X18549Y-24572D01*
X18550Y-24570D01*
X18553Y-24533D01*
X18557Y-24505D01*
X18557Y-27076D01*
X18405Y-27076D01*
X18367Y-27084D01*
X18331Y-27099D01*
X18298Y-27120D01*
X18271Y-27148D01*
X18249Y-27180D01*
X18234Y-27216D01*
X18226Y-27255D01*
X18226Y-27294D01*
X18226Y-27845D01*
X18234Y-27883D01*
X18249Y-27919D01*
X18270Y-27952D01*
X18298Y-27979D01*
X18330Y-28001D01*
X18366Y-28016D01*
X18405Y-28024D01*
X18444Y-28024D01*
X18995Y-28024D01*
X19033Y-28016D01*
X19069Y-28001D01*
X19102Y-27980D01*
X19129Y-27952D01*
X19151Y-27920D01*
X19166Y-27884D01*
X19174Y-27845D01*
X19174Y-28901D01*
X18880Y-28901D01*
X18842Y-28909D01*
X18806Y-28924D01*
X18773Y-28945D01*
X18746Y-28973D01*
X18724Y-29005D01*
X18709Y-29041D01*
X18701Y-29080D01*
X18701Y-29119D01*
X18701Y-29720D01*
X18709Y-29758D01*
X18724Y-29794D01*
X18745Y-29827D01*
X18773Y-29854D01*
X18805Y-29876D01*
X18841Y-29891D01*
X18880Y-29899D01*
X18919Y-29899D01*
X19520Y-29899D01*
X19558Y-29891D01*
X19594Y-29876D01*
X19627Y-29855D01*
X19654Y-29827D01*
X19676Y-29795D01*
X19691Y-29759D01*
X19699Y-29720D01*
X19699Y-30345D01*
X19681Y-30255D01*
X19644Y-30164D01*
X19589Y-30082D01*
X19520Y-30013D01*
X19439Y-29958D01*
X19349Y-29920D01*
X19253Y-29900D01*
X19154Y-29900D01*
X19058Y-29918D01*
X18967Y-29955D01*
X18885Y-30008D01*
X18815Y-30077D01*
X18760Y-30158D01*
X18721Y-30248D01*
X18701Y-30344D01*
X18699Y-30442D01*
X18717Y-30538D01*
X18753Y-30630D01*
X18806Y-30712D01*
X18874Y-30783D01*
X18955Y-30839D01*
X19045Y-30878D01*
X19140Y-30899D01*
X19189Y-30900D01*
X19154Y-30900D01*
X19058Y-30918D01*
X18967Y-30955D01*
X18885Y-31008D01*
X18815Y-31077D01*
X18760Y-31158D01*
X18721Y-31248D01*
X18701Y-31344D01*
X18699Y-31442D01*
X18717Y-31538D01*
X18753Y-31630D01*
X18806Y-31712D01*
X18874Y-31783D01*
X18955Y-31839D01*
X19045Y-31878D01*
X19140Y-31899D01*
X19239Y-31901D01*
X19335Y-31884D01*
X19426Y-31848D01*
X19509Y-31796D01*
X19580Y-31728D01*
X19637Y-31648D01*
X19677Y-31559D01*
X19698Y-31463D01*
X19700Y-31351D01*
X19700Y-32525D01*
X14549Y-32525D01*
X14549Y-11157D01*
X14533Y-11051D01*
X14500Y-10958D01*
X14500Y-09167D01*
X14481Y-09071D01*
X14444Y-08980D01*
X14389Y-08898D01*
X14320Y-08829D01*
X14239Y-08774D01*
X14149Y-08736D01*
X14053Y-08716D01*
X13954Y-08716D01*
X13858Y-08734D01*
X13767Y-08771D01*
X13685Y-08824D01*
X13615Y-08893D01*
X13560Y-08974D01*
X13521Y-09064D01*
X13501Y-09160D01*
X13499Y-09258D01*
X13517Y-09354D01*
X13553Y-09446D01*
X13606Y-09528D01*
X13674Y-09599D01*
X13755Y-09655D01*
X13845Y-09694D01*
X13940Y-09715D01*
X14039Y-09717D01*
X14135Y-09700D01*
X14226Y-09664D01*
X14309Y-09612D01*
X14380Y-09544D01*
X14437Y-09464D01*
X14477Y-09375D01*
X14498Y-09279D01*
X14500Y-09167D01*
X14500Y-10958D01*
X14497Y-10950D01*
X14472Y-10903D01*
X14378Y-10876D01*
X14308Y-10946D01*
X14308Y-10806D01*
X14281Y-10712D01*
X14184Y-10666D01*
X14080Y-10640D01*
X13973Y-10635D01*
X13867Y-10651D01*
X13766Y-10687D01*
X13719Y-10712D01*
X13692Y-10806D01*
X14000Y-11113D01*
X14308Y-10806D01*
X14308Y-10946D01*
X14071Y-11184D01*
X14378Y-11492D01*
X14472Y-11465D01*
X14518Y-11368D01*
X14544Y-11264D01*
X14549Y-11157D01*
X14549Y-32525D01*
X14396Y-32525D01*
X14396Y-19756D01*
X14396Y-19717D01*
X14396Y-19244D01*
X14388Y-19206D01*
X14373Y-19170D01*
X14352Y-19137D01*
X14324Y-19110D01*
X14308Y-19099D01*
X14308Y-11562D01*
X14000Y-11255D01*
X13929Y-11325D01*
X13929Y-11184D01*
X13622Y-10876D01*
X13528Y-10903D01*
X13482Y-11000D01*
X13456Y-11104D01*
X13451Y-11211D01*
X13467Y-11317D01*
X13503Y-11418D01*
X13528Y-11465D01*
X13622Y-11492D01*
X13929Y-11184D01*
X13929Y-11325D01*
X13692Y-11562D01*
X13719Y-11656D01*
X13816Y-11702D01*
X13920Y-11728D01*
X14027Y-11733D01*
X14133Y-11717D01*
X14234Y-11681D01*
X14281Y-11656D01*
X14308Y-11562D01*
X14308Y-19099D01*
X14292Y-19088D01*
X14256Y-19073D01*
X14217Y-19065D01*
X14178Y-19065D01*
X13150Y-19065D01*
X13150Y-16756D01*
X13150Y-15756D01*
X13133Y-15669D01*
X13099Y-15588D01*
X13050Y-15514D01*
X12988Y-15452D01*
X12915Y-15402D01*
X12834Y-15368D01*
X12747Y-15350D01*
X12659Y-15350D01*
X12572Y-15366D01*
X12491Y-15399D01*
X12417Y-15448D01*
X12354Y-15509D01*
X12304Y-15582D01*
X12269Y-15663D01*
X12251Y-15749D01*
X12249Y-15838D01*
X12265Y-15925D01*
X12298Y-16007D01*
X12346Y-16081D01*
X12407Y-16144D01*
X12479Y-16195D01*
X12560Y-16230D01*
X12646Y-16249D01*
X12735Y-16251D01*
X12821Y-16236D01*
X12904Y-16204D01*
X12978Y-16156D01*
X13042Y-16096D01*
X13093Y-16023D01*
X13129Y-15943D01*
X13149Y-15857D01*
X13150Y-15756D01*
X13150Y-16756D01*
X13133Y-16669D01*
X13099Y-16588D01*
X13050Y-16514D01*
X12988Y-16452D01*
X12915Y-16402D01*
X12834Y-16368D01*
X12747Y-16350D01*
X12659Y-16350D01*
X12572Y-16366D01*
X12491Y-16399D01*
X12417Y-16448D01*
X12354Y-16509D01*
X12304Y-16582D01*
X12269Y-16663D01*
X12251Y-16749D01*
X12249Y-16838D01*
X12265Y-16925D01*
X12298Y-17007D01*
X12346Y-17081D01*
X12407Y-17144D01*
X12479Y-17195D01*
X12560Y-17230D01*
X12646Y-17249D01*
X12735Y-17251D01*
X12821Y-17236D01*
X12904Y-17204D01*
X12978Y-17156D01*
X13042Y-17096D01*
X13093Y-17023D01*
X13129Y-16943D01*
X13149Y-16857D01*
X13150Y-16756D01*
X13150Y-19065D01*
X12925Y-19065D01*
X12870Y-19010D01*
X12768Y-18941D01*
X12653Y-18892D01*
X12532Y-18867D01*
X12407Y-18867D01*
X12285Y-18890D01*
X12170Y-18936D01*
X12067Y-19004D01*
X11978Y-19091D01*
X11908Y-19194D01*
X11859Y-19308D01*
X11833Y-19429D01*
X11831Y-19553D01*
X11854Y-19675D01*
X11899Y-19791D01*
X11967Y-19895D01*
X12053Y-19984D01*
X12155Y-20055D01*
X12268Y-20105D01*
X12390Y-20132D01*
X12514Y-20134D01*
X12636Y-20113D01*
X12752Y-20068D01*
X12857Y-20001D01*
X12926Y-19935D01*
X14217Y-19935D01*
X14255Y-19927D01*
X14291Y-19912D01*
X14324Y-19891D01*
X14351Y-19863D01*
X14373Y-19831D01*
X14388Y-19795D01*
X14396Y-19756D01*
X14396Y-32525D01*
X14244Y-32525D01*
X14244Y-31665D01*
X14244Y-31626D01*
X14244Y-29735D01*
X14236Y-29697D01*
X14221Y-29661D01*
X14200Y-29628D01*
X14172Y-29601D01*
X14140Y-29579D01*
X14104Y-29564D01*
X14065Y-29556D01*
X14026Y-29556D01*
X13950Y-29556D01*
X13950Y-24851D01*
X13931Y-24755D01*
X13894Y-24664D01*
X13839Y-24582D01*
X13770Y-24513D01*
X13689Y-24458D01*
X13599Y-24420D01*
X13503Y-24400D01*
X13494Y-24400D01*
X13585Y-24384D01*
X13676Y-24348D01*
X13759Y-24296D01*
X13830Y-24228D01*
X13887Y-24148D01*
X13927Y-24059D01*
X13948Y-23963D01*
X13950Y-23851D01*
X13931Y-23755D01*
X13894Y-23664D01*
X13839Y-23582D01*
X13770Y-23513D01*
X13689Y-23458D01*
X13599Y-23420D01*
X13503Y-23400D01*
X13404Y-23400D01*
X13308Y-23418D01*
X13217Y-23455D01*
X13135Y-23508D01*
X13065Y-23577D01*
X13052Y-23595D01*
X13041Y-23592D01*
X12971Y-23662D01*
X12971Y-23522D01*
X12944Y-23428D01*
X12847Y-23382D01*
X12743Y-23356D01*
X12636Y-23351D01*
X12530Y-23367D01*
X12429Y-23403D01*
X12382Y-23428D01*
X12355Y-23522D01*
X12663Y-23829D01*
X12971Y-23522D01*
X12971Y-23662D01*
X12734Y-23900D01*
X13041Y-24208D01*
X13051Y-24204D01*
X13056Y-24212D01*
X13124Y-24283D01*
X13205Y-24339D01*
X13295Y-24378D01*
X13390Y-24399D01*
X13439Y-24400D01*
X13404Y-24400D01*
X13308Y-24418D01*
X13217Y-24455D01*
X13135Y-24508D01*
X13065Y-24577D01*
X13056Y-24589D01*
X13052Y-24582D01*
X12983Y-24513D01*
X12902Y-24458D01*
X12821Y-24423D01*
X12897Y-24397D01*
X12944Y-24372D01*
X12971Y-24278D01*
X12663Y-23971D01*
X12592Y-24041D01*
X12592Y-23900D01*
X12330Y-23637D01*
X12330Y-21966D01*
X12302Y-21826D01*
X12247Y-21693D01*
X12168Y-21574D01*
X12067Y-21473D01*
X11949Y-21393D01*
X11817Y-21337D01*
X11676Y-21308D01*
X11533Y-21308D01*
X11392Y-21334D01*
X11260Y-21388D01*
X11168Y-21448D01*
X11168Y-19438D01*
X11144Y-19316D01*
X11097Y-19201D01*
X11028Y-19098D01*
X10940Y-19010D01*
X10838Y-18941D01*
X10723Y-18892D01*
X10700Y-18887D01*
X10700Y-13901D01*
X10681Y-13805D01*
X10644Y-13714D01*
X10589Y-13632D01*
X10520Y-13563D01*
X10439Y-13508D01*
X10349Y-13470D01*
X10253Y-13450D01*
X10244Y-13450D01*
X10335Y-13434D01*
X10426Y-13398D01*
X10509Y-13346D01*
X10580Y-13278D01*
X10637Y-13198D01*
X10677Y-13109D01*
X10698Y-13013D01*
X10700Y-12901D01*
X10681Y-12805D01*
X10644Y-12714D01*
X10589Y-12632D01*
X10520Y-12563D01*
X10439Y-12508D01*
X10349Y-12470D01*
X10253Y-12450D01*
X10244Y-12450D01*
X10335Y-12434D01*
X10426Y-12398D01*
X10509Y-12346D01*
X10580Y-12278D01*
X10637Y-12198D01*
X10677Y-12109D01*
X10698Y-12013D01*
X10700Y-11901D01*
X10699Y-11895D01*
X10699Y-11270D01*
X10699Y-11231D01*
X10699Y-10630D01*
X10691Y-10592D01*
X10676Y-10556D01*
X10655Y-10523D01*
X10627Y-10496D01*
X10595Y-10474D01*
X10559Y-10459D01*
X10520Y-10451D01*
X10481Y-10451D01*
X09880Y-10451D01*
X09842Y-10459D01*
X09806Y-10474D01*
X09773Y-10495D01*
X09746Y-10523D01*
X09724Y-10555D01*
X09709Y-10591D01*
X09701Y-10630D01*
X09701Y-10669D01*
X09701Y-10727D01*
X09697Y-10716D01*
X09672Y-10669D01*
X09578Y-10642D01*
X09508Y-10712D01*
X09508Y-10572D01*
X09481Y-10478D01*
X09384Y-10432D01*
X09280Y-10406D01*
X09173Y-10401D01*
X09067Y-10417D01*
X08966Y-10453D01*
X08919Y-10478D01*
X08892Y-10572D01*
X09200Y-10879D01*
X09508Y-10572D01*
X09508Y-10712D01*
X09271Y-10950D01*
X09578Y-11258D01*
X09672Y-11231D01*
X09701Y-11169D01*
X09701Y-11270D01*
X09709Y-11308D01*
X09724Y-11344D01*
X09745Y-11377D01*
X09773Y-11404D01*
X09805Y-11426D01*
X09841Y-11441D01*
X09880Y-11449D01*
X09919Y-11449D01*
X10520Y-11449D01*
X10558Y-11441D01*
X10594Y-11426D01*
X10627Y-11405D01*
X10654Y-11377D01*
X10676Y-11345D01*
X10691Y-11309D01*
X10699Y-11270D01*
X10699Y-11895D01*
X10681Y-11805D01*
X10644Y-11714D01*
X10589Y-11632D01*
X10520Y-11563D01*
X10439Y-11508D01*
X10349Y-11470D01*
X10253Y-11450D01*
X10154Y-11450D01*
X10058Y-11468D01*
X09967Y-11505D01*
X09885Y-11558D01*
X09815Y-11627D01*
X09760Y-11708D01*
X09721Y-11798D01*
X09701Y-11894D01*
X09700Y-11901D01*
X09681Y-11805D01*
X09644Y-11714D01*
X09589Y-11632D01*
X09520Y-11563D01*
X09439Y-11508D01*
X09358Y-11473D01*
X09434Y-11447D01*
X09481Y-11422D01*
X09508Y-11328D01*
X09200Y-11021D01*
X09129Y-11091D01*
X09129Y-10950D01*
X08822Y-10642D01*
X08728Y-10669D01*
X08682Y-10766D01*
X08656Y-10870D01*
X08651Y-10977D01*
X08667Y-11083D01*
X08703Y-11184D01*
X08728Y-11231D01*
X08822Y-11258D01*
X09129Y-10950D01*
X09129Y-11091D01*
X08892Y-11328D01*
X08919Y-11422D01*
X09016Y-11468D01*
X09042Y-11474D01*
X08967Y-11505D01*
X08885Y-11558D01*
X08815Y-11627D01*
X08760Y-11708D01*
X08721Y-11798D01*
X08701Y-11894D01*
X08699Y-11992D01*
X08717Y-12088D01*
X08753Y-12180D01*
X08806Y-12262D01*
X08874Y-12333D01*
X08955Y-12389D01*
X09045Y-12428D01*
X09140Y-12449D01*
X09189Y-12450D01*
X09154Y-12450D01*
X09058Y-12468D01*
X08967Y-12505D01*
X08885Y-12558D01*
X08815Y-12627D01*
X08760Y-12708D01*
X08721Y-12798D01*
X08701Y-12894D01*
X08699Y-12992D01*
X08717Y-13088D01*
X08753Y-13180D01*
X08806Y-13262D01*
X08874Y-13333D01*
X08955Y-13389D01*
X09041Y-13426D01*
X08966Y-13453D01*
X08919Y-13478D01*
X08892Y-13572D01*
X09200Y-13879D01*
X09508Y-13572D01*
X09481Y-13478D01*
X09384Y-13432D01*
X09357Y-13425D01*
X09426Y-13398D01*
X09509Y-13346D01*
X09580Y-13278D01*
X09637Y-13198D01*
X09677Y-13109D01*
X09698Y-13013D01*
X09700Y-12901D01*
X09699Y-12992D01*
X09717Y-13088D01*
X09753Y-13180D01*
X09806Y-13262D01*
X09874Y-13333D01*
X09955Y-13389D01*
X10045Y-13428D01*
X10140Y-13449D01*
X10189Y-13450D01*
X10154Y-13450D01*
X10058Y-13468D01*
X09967Y-13505D01*
X09885Y-13558D01*
X09815Y-13627D01*
X09760Y-13708D01*
X09723Y-13791D01*
X09697Y-13716D01*
X09672Y-13669D01*
X09578Y-13642D01*
X09271Y-13950D01*
X09578Y-14258D01*
X09672Y-14231D01*
X09718Y-14134D01*
X09724Y-14107D01*
X09753Y-14180D01*
X09806Y-14262D01*
X09874Y-14333D01*
X09955Y-14389D01*
X10045Y-14428D01*
X10140Y-14449D01*
X10239Y-14451D01*
X10335Y-14434D01*
X10426Y-14398D01*
X10509Y-14346D01*
X10580Y-14278D01*
X10637Y-14198D01*
X10677Y-14109D01*
X10698Y-14013D01*
X10700Y-13901D01*
X10700Y-18887D01*
X10602Y-18867D01*
X10477Y-18867D01*
X10355Y-18890D01*
X10240Y-18936D01*
X10137Y-19004D01*
X10074Y-19065D01*
X09508Y-19065D01*
X09508Y-14328D01*
X09200Y-14021D01*
X09129Y-14091D01*
X09129Y-13950D01*
X08822Y-13642D01*
X08728Y-13669D01*
X08682Y-13766D01*
X08656Y-13870D01*
X08651Y-13977D01*
X08667Y-14083D01*
X08703Y-14184D01*
X08728Y-14231D01*
X08822Y-14258D01*
X09129Y-13950D01*
X09129Y-14091D01*
X08892Y-14328D01*
X08919Y-14422D01*
X09016Y-14468D01*
X09120Y-14494D01*
X09227Y-14499D01*
X09333Y-14483D01*
X09434Y-14447D01*
X09481Y-14422D01*
X09508Y-14328D01*
X09508Y-19065D01*
X08783Y-19065D01*
X08745Y-19073D01*
X08709Y-19088D01*
X08676Y-19109D01*
X08649Y-19137D01*
X08627Y-19169D01*
X08612Y-19205D01*
X08604Y-19244D01*
X08604Y-19283D01*
X08604Y-19756D01*
X08612Y-19794D01*
X08627Y-19830D01*
X08648Y-19863D01*
X08676Y-19890D01*
X08708Y-19912D01*
X08744Y-19927D01*
X08783Y-19935D01*
X08822Y-19935D01*
X10075Y-19935D01*
X10123Y-19984D01*
X10225Y-20055D01*
X10338Y-20105D01*
X10460Y-20132D01*
X10584Y-20134D01*
X10706Y-20113D01*
X10822Y-20068D01*
X10927Y-20001D01*
X11016Y-19916D01*
X11088Y-19814D01*
X11138Y-19701D01*
X11166Y-19580D01*
X11168Y-19438D01*
X11168Y-21448D01*
X11140Y-21467D01*
X11038Y-21567D01*
X10957Y-21685D01*
X10901Y-21817D01*
X10871Y-21957D01*
X10869Y-22100D01*
X10895Y-22241D01*
X10948Y-22374D01*
X11025Y-22494D01*
X11125Y-22597D01*
X11243Y-22679D01*
X11374Y-22736D01*
X11514Y-22766D01*
X11657Y-22769D01*
X11798Y-22744D01*
X11931Y-22693D01*
X12052Y-22616D01*
X12156Y-22517D01*
X12238Y-22400D01*
X12296Y-22269D01*
X12328Y-22130D01*
X12330Y-21966D01*
X12330Y-23637D01*
X12285Y-23592D01*
X12191Y-23619D01*
X12145Y-23716D01*
X12119Y-23820D01*
X12114Y-23927D01*
X12130Y-24033D01*
X12166Y-24134D01*
X12191Y-24181D01*
X12285Y-24208D01*
X12592Y-23900D01*
X12592Y-24041D01*
X12355Y-24278D01*
X12382Y-24372D01*
X12479Y-24418D01*
X12505Y-24424D01*
X12430Y-24455D01*
X12348Y-24508D01*
X12278Y-24577D01*
X12223Y-24658D01*
X12184Y-24748D01*
X12164Y-24844D01*
X12162Y-24942D01*
X12180Y-25038D01*
X12216Y-25130D01*
X12269Y-25212D01*
X12337Y-25283D01*
X12418Y-25339D01*
X12508Y-25378D01*
X12603Y-25399D01*
X12702Y-25401D01*
X12798Y-25384D01*
X12889Y-25348D01*
X12972Y-25296D01*
X13043Y-25228D01*
X13055Y-25210D01*
X13056Y-25212D01*
X13124Y-25283D01*
X13205Y-25339D01*
X13295Y-25378D01*
X13390Y-25399D01*
X13489Y-25401D01*
X13585Y-25384D01*
X13676Y-25348D01*
X13759Y-25296D01*
X13830Y-25228D01*
X13887Y-25148D01*
X13927Y-25059D01*
X13948Y-24963D01*
X13950Y-24851D01*
X13950Y-29556D01*
X12794Y-29556D01*
X12794Y-28700D01*
X12771Y-28468D01*
X12704Y-28245D01*
X12594Y-28040D01*
X12435Y-27936D01*
X12364Y-28007D01*
X12364Y-27865D01*
X12330Y-27813D01*
X12330Y-26690D01*
X12302Y-26550D01*
X12247Y-26417D01*
X12168Y-26298D01*
X12067Y-26197D01*
X11949Y-26117D01*
X11817Y-26061D01*
X11676Y-26032D01*
X11533Y-26032D01*
X11392Y-26058D01*
X11260Y-26112D01*
X11140Y-26191D01*
X11038Y-26291D01*
X10957Y-26409D01*
X10901Y-26541D01*
X10871Y-26681D01*
X10869Y-26824D01*
X10895Y-26965D01*
X10948Y-27098D01*
X11025Y-27218D01*
X11125Y-27321D01*
X11243Y-27403D01*
X11374Y-27460D01*
X11514Y-27490D01*
X11657Y-27493D01*
X11798Y-27468D01*
X11931Y-27417D01*
X12052Y-27340D01*
X12156Y-27241D01*
X12238Y-27124D01*
X12296Y-26993D01*
X12328Y-26854D01*
X12330Y-26690D01*
X12330Y-27813D01*
X12260Y-27706D01*
X12055Y-27596D01*
X11832Y-27529D01*
X11600Y-27506D01*
X11368Y-27529D01*
X11145Y-27596D01*
X10940Y-27706D01*
X10836Y-27865D01*
X11600Y-28629D01*
X12364Y-27865D01*
X12364Y-28007D01*
X11671Y-28700D01*
X12435Y-29464D01*
X12594Y-29360D01*
X12704Y-29155D01*
X12771Y-28932D01*
X12794Y-28700D01*
X12794Y-29556D01*
X12350Y-29556D01*
X12364Y-29535D01*
X11635Y-28806D01*
X11600Y-28771D01*
X11529Y-28700D01*
X11494Y-28665D01*
X10765Y-27936D01*
X10606Y-28040D01*
X10496Y-28245D01*
X10429Y-28468D01*
X10406Y-28700D01*
X10429Y-28932D01*
X10496Y-29155D01*
X10606Y-29360D01*
X10722Y-29436D01*
X10681Y-29478D01*
X10709Y-29506D01*
X10700Y-29506D01*
X10468Y-29529D01*
X10347Y-29565D01*
X10347Y-22982D01*
X10332Y-22877D01*
X10297Y-22777D01*
X10271Y-22730D01*
X10178Y-22705D01*
X10107Y-22776D01*
X10107Y-22634D01*
X10082Y-22541D01*
X09985Y-22496D01*
X09882Y-22470D01*
X09776Y-22465D01*
X09671Y-22480D01*
X09571Y-22515D01*
X09542Y-22531D01*
X09542Y-21732D01*
X09512Y-21580D01*
X09453Y-21437D01*
X09368Y-21308D01*
X09259Y-21198D01*
X09130Y-21112D01*
X08988Y-21052D01*
X08836Y-21021D01*
X08682Y-21019D01*
X08530Y-21048D01*
X08386Y-21106D01*
X08257Y-21191D01*
X08146Y-21299D01*
X08058Y-21427D01*
X07997Y-21569D01*
X07965Y-21720D01*
X07963Y-21875D01*
X07991Y-22027D01*
X08048Y-22171D01*
X08132Y-22301D01*
X08239Y-22412D01*
X08366Y-22501D01*
X08508Y-22563D01*
X08659Y-22596D01*
X08813Y-22599D01*
X08966Y-22573D01*
X09110Y-22517D01*
X09241Y-22434D01*
X09353Y-22327D01*
X09442Y-22201D01*
X09505Y-22060D01*
X09539Y-21909D01*
X09542Y-21732D01*
X09542Y-22531D01*
X09524Y-22541D01*
X09499Y-22634D01*
X09803Y-22938D01*
X10107Y-22634D01*
X10107Y-22776D01*
X09874Y-23009D01*
X10178Y-23313D01*
X10271Y-23288D01*
X10316Y-23191D01*
X10342Y-23088D01*
X10347Y-22982D01*
X10347Y-29565D01*
X10298Y-29580D01*
X10298Y-25761D01*
X10298Y-24761D01*
X10279Y-24666D01*
X10242Y-24576D01*
X10189Y-24495D01*
X10120Y-24426D01*
X10095Y-24409D01*
X10109Y-24401D01*
X10179Y-24334D01*
X10235Y-24255D01*
X10275Y-24166D01*
X10296Y-24072D01*
X10298Y-23961D01*
X10279Y-23866D01*
X10242Y-23776D01*
X10189Y-23695D01*
X10120Y-23626D01*
X10040Y-23572D01*
X09951Y-23534D01*
X09948Y-23533D01*
X10035Y-23503D01*
X10082Y-23477D01*
X10107Y-23384D01*
X09803Y-23080D01*
X09732Y-23151D01*
X09732Y-23009D01*
X09428Y-22705D01*
X09335Y-22730D01*
X09290Y-22827D01*
X09264Y-22930D01*
X09259Y-23036D01*
X09274Y-23141D01*
X09309Y-23241D01*
X09335Y-23288D01*
X09428Y-23313D01*
X09732Y-23009D01*
X09732Y-23151D01*
X09499Y-23384D01*
X09524Y-23477D01*
X09621Y-23522D01*
X09662Y-23532D01*
X09573Y-23568D01*
X09492Y-23621D01*
X09422Y-23689D01*
X09367Y-23769D01*
X09329Y-23858D01*
X09309Y-23953D01*
X09307Y-24050D01*
X09325Y-24146D01*
X09360Y-24236D01*
X09413Y-24317D01*
X09480Y-24387D01*
X09510Y-24408D01*
X09492Y-24421D01*
X09422Y-24489D01*
X09367Y-24569D01*
X09329Y-24658D01*
X09309Y-24753D01*
X09307Y-24850D01*
X09325Y-24946D01*
X09360Y-25036D01*
X09413Y-25117D01*
X09480Y-25187D01*
X09560Y-25243D01*
X09649Y-25282D01*
X09744Y-25303D01*
X09841Y-25305D01*
X09936Y-25288D01*
X10027Y-25253D01*
X10109Y-25201D01*
X10179Y-25134D01*
X10235Y-25055D01*
X10275Y-24966D01*
X10296Y-24872D01*
X10298Y-24761D01*
X10298Y-25761D01*
X10279Y-25666D01*
X10242Y-25576D01*
X10189Y-25495D01*
X10120Y-25426D01*
X10040Y-25372D01*
X09951Y-25334D01*
X09856Y-25314D01*
X09758Y-25314D01*
X09663Y-25332D01*
X09573Y-25368D01*
X09492Y-25421D01*
X09422Y-25489D01*
X09367Y-25569D01*
X09329Y-25658D01*
X09309Y-25753D01*
X09307Y-25850D01*
X09325Y-25946D01*
X09360Y-26036D01*
X09413Y-26117D01*
X09480Y-26187D01*
X09560Y-26243D01*
X09649Y-26282D01*
X09744Y-26303D01*
X09841Y-26305D01*
X09936Y-26288D01*
X10027Y-26253D01*
X10109Y-26201D01*
X10179Y-26134D01*
X10235Y-26055D01*
X10275Y-25966D01*
X10296Y-25872D01*
X10298Y-25761D01*
X10298Y-29580D01*
X10245Y-29596D01*
X10040Y-29706D01*
X09936Y-29865D01*
X10665Y-30594D01*
X10700Y-30629D01*
X10771Y-30700D01*
X10806Y-30735D01*
X11535Y-31464D01*
X11694Y-31360D01*
X11804Y-31155D01*
X11871Y-30932D01*
X11894Y-30700D01*
X11871Y-30468D01*
X11804Y-30245D01*
X11694Y-30040D01*
X11577Y-29963D01*
X11619Y-29922D01*
X11590Y-29893D01*
X11600Y-29894D01*
X11832Y-29871D01*
X11956Y-29833D01*
X11956Y-31665D01*
X11964Y-31703D01*
X11979Y-31739D01*
X12000Y-31772D01*
X12028Y-31799D01*
X12060Y-31821D01*
X12096Y-31836D01*
X12135Y-31844D01*
X12174Y-31844D01*
X14065Y-31844D01*
X14103Y-31836D01*
X14139Y-31821D01*
X14172Y-31800D01*
X14199Y-31772D01*
X14221Y-31740D01*
X14236Y-31704D01*
X14244Y-31665D01*
X14244Y-32525D01*
X11894Y-32525D01*
X11464Y-32525D01*
X11464Y-31535D01*
X10700Y-30771D01*
X10629Y-30842D01*
X10629Y-30700D01*
X09865Y-29936D01*
X09706Y-30040D01*
X09596Y-30245D01*
X09542Y-30424D01*
X09542Y-27132D01*
X09512Y-26980D01*
X09453Y-26837D01*
X09368Y-26708D01*
X09259Y-26598D01*
X09130Y-26512D01*
X08988Y-26452D01*
X08836Y-26421D01*
X08682Y-26419D01*
X08530Y-26448D01*
X08386Y-26506D01*
X08257Y-26591D01*
X08146Y-26699D01*
X08058Y-26827D01*
X07997Y-26969D01*
X07965Y-27120D01*
X07963Y-27275D01*
X07991Y-27427D01*
X08048Y-27571D01*
X08132Y-27701D01*
X08239Y-27812D01*
X08366Y-27901D01*
X08508Y-27963D01*
X08659Y-27996D01*
X08813Y-27999D01*
X08966Y-27973D01*
X09110Y-27917D01*
X09241Y-27834D01*
X09353Y-27727D01*
X09442Y-27601D01*
X09505Y-27460D01*
X09539Y-27309D01*
X09542Y-27132D01*
X09542Y-30424D01*
X09529Y-30468D01*
X09506Y-30700D01*
X09529Y-30932D01*
X09596Y-31155D01*
X09706Y-31360D01*
X09865Y-31464D01*
X10629Y-30700D01*
X10629Y-30842D01*
X09936Y-31535D01*
X10040Y-31694D01*
X10245Y-31804D01*
X10468Y-31871D01*
X10700Y-31894D01*
X10932Y-31871D01*
X11155Y-31804D01*
X11360Y-31694D01*
X11464Y-31535D01*
X11464Y-32525D01*
X07775Y-32525D01*
X07775Y-07304D01*
X07775Y-07300D01*
X07775Y-05275D01*
X09996Y-05275D01*
X10000Y-05275D01*
X26250Y-05275D01*
X26250Y-32525D01*
X26250Y-32525D01*
G37*
G54D25*
X26250Y-32525D02*
X23050Y-32525D01*
X23050Y-19527D01*
X23050Y-19478D01*
X23050Y-19312D01*
X23050Y-19088D01*
X23050Y-18922D01*
X23050Y-18873D01*
X23040Y-18825D01*
X23021Y-18780D01*
X22993Y-18740D01*
X22958Y-18705D01*
X22917Y-18678D01*
X22872Y-18659D01*
X22824Y-18650D01*
X22612Y-18650D01*
X22550Y-18712D01*
X22550Y-19150D01*
X22988Y-19150D01*
X23050Y-19088D01*
X23050Y-19312D01*
X22988Y-19250D01*
X22550Y-19250D01*
X22550Y-19688D01*
X22612Y-19750D01*
X22824Y-19750D01*
X22872Y-19741D01*
X22917Y-19722D01*
X22958Y-19695D01*
X22993Y-19660D01*
X23021Y-19620D01*
X23040Y-19575D01*
X23050Y-19527D01*
X23050Y-32525D01*
X22450Y-32525D01*
X22450Y-19688D01*
X22450Y-19300D01*
X22450Y-19250D01*
X22450Y-19150D01*
X22450Y-19100D01*
X22450Y-18712D01*
X22388Y-18650D01*
X22176Y-18650D01*
X22128Y-18659D01*
X22083Y-18678D01*
X22042Y-18705D01*
X22007Y-18740D01*
X21979Y-18780D01*
X21960Y-18825D01*
X21950Y-18873D01*
X21950Y-18922D01*
X21950Y-18978D01*
X21944Y-18964D01*
X21889Y-18882D01*
X21820Y-18813D01*
X21739Y-18758D01*
X21649Y-18720D01*
X21553Y-18700D01*
X21454Y-18700D01*
X21358Y-18718D01*
X21267Y-18755D01*
X21185Y-18808D01*
X21115Y-18877D01*
X21060Y-18958D01*
X21021Y-19048D01*
X21001Y-19144D01*
X20999Y-19242D01*
X21017Y-19338D01*
X21053Y-19430D01*
X21106Y-19512D01*
X21174Y-19583D01*
X21255Y-19639D01*
X21345Y-19678D01*
X21440Y-19699D01*
X21539Y-19701D01*
X21635Y-19684D01*
X21726Y-19648D01*
X21809Y-19596D01*
X21880Y-19528D01*
X21937Y-19448D01*
X21950Y-19419D01*
X21950Y-19478D01*
X21950Y-19527D01*
X21960Y-19575D01*
X21979Y-19620D01*
X22007Y-19660D01*
X22042Y-19695D01*
X22083Y-19722D01*
X22128Y-19741D01*
X22176Y-19750D01*
X22388Y-19750D01*
X22450Y-19688D01*
X22450Y-32525D01*
X21925Y-32525D01*
X21925Y-30003D01*
X21924Y-29997D01*
X21924Y-29345D01*
X21924Y-29306D01*
X21924Y-28755D01*
X21916Y-28717D01*
X21901Y-28681D01*
X21880Y-28648D01*
X21852Y-28621D01*
X21820Y-28599D01*
X21784Y-28584D01*
X21745Y-28576D01*
X21706Y-28576D01*
X21155Y-28576D01*
X21117Y-28584D01*
X21081Y-28599D01*
X21048Y-28620D01*
X21021Y-28648D01*
X20999Y-28680D01*
X20984Y-28716D01*
X20976Y-28755D01*
X20976Y-28794D01*
X20976Y-29345D01*
X20984Y-29383D01*
X20999Y-29419D01*
X21020Y-29452D01*
X21048Y-29479D01*
X21080Y-29501D01*
X21116Y-29516D01*
X21155Y-29524D01*
X21194Y-29524D01*
X21745Y-29524D01*
X21783Y-29516D01*
X21819Y-29501D01*
X21852Y-29480D01*
X21879Y-29452D01*
X21901Y-29420D01*
X21916Y-29384D01*
X21924Y-29345D01*
X21924Y-29997D01*
X21907Y-29912D01*
X21871Y-29826D01*
X21820Y-29748D01*
X21754Y-29682D01*
X21677Y-29630D01*
X21591Y-29594D01*
X21499Y-29575D01*
X21406Y-29575D01*
X21315Y-29592D01*
X21228Y-29627D01*
X21151Y-29678D01*
X21084Y-29744D01*
X21032Y-29820D01*
X20995Y-29906D01*
X20976Y-29997D01*
X20974Y-30090D01*
X20991Y-30182D01*
X21026Y-30269D01*
X21076Y-30347D01*
X21141Y-30414D01*
X21218Y-30467D01*
X21303Y-30504D01*
X21394Y-30524D01*
X21487Y-30526D01*
X21579Y-30510D01*
X21666Y-30476D01*
X21744Y-30426D01*
X21812Y-30362D01*
X21865Y-30285D01*
X21903Y-30200D01*
X21924Y-30109D01*
X21925Y-30003D01*
X21925Y-32525D01*
X20225Y-32525D01*
X20225Y-27522D01*
X20209Y-27420D01*
X20174Y-27324D01*
X20152Y-27283D01*
X20061Y-27260D01*
X19990Y-27331D01*
X19990Y-27189D01*
X19967Y-27098D01*
X19874Y-27055D01*
X19774Y-27030D01*
X19672Y-27025D01*
X19570Y-27041D01*
X19474Y-27076D01*
X19433Y-27098D01*
X19410Y-27189D01*
X19700Y-27479D01*
X19990Y-27189D01*
X19990Y-27331D01*
X19771Y-27550D01*
X20061Y-27840D01*
X20152Y-27817D01*
X20195Y-27724D01*
X20220Y-27624D01*
X20225Y-27522D01*
X20225Y-32525D01*
X19990Y-32525D01*
X19990Y-27911D01*
X19700Y-27621D01*
X19629Y-27692D01*
X19629Y-27550D01*
X19339Y-27260D01*
X19248Y-27283D01*
X19205Y-27376D01*
X19180Y-27476D01*
X19175Y-27578D01*
X19191Y-27680D01*
X19226Y-27776D01*
X19248Y-27817D01*
X19339Y-27840D01*
X19629Y-27550D01*
X19629Y-27692D01*
X19410Y-27911D01*
X19433Y-28002D01*
X19526Y-28045D01*
X19626Y-28070D01*
X19728Y-28075D01*
X19830Y-28059D01*
X19926Y-28024D01*
X19967Y-28002D01*
X19990Y-27911D01*
X19990Y-32525D01*
X19700Y-32525D01*
X19700Y-31351D01*
X19681Y-31255D01*
X19644Y-31164D01*
X19589Y-31082D01*
X19520Y-31013D01*
X19439Y-30958D01*
X19349Y-30920D01*
X19253Y-30900D01*
X19244Y-30900D01*
X19335Y-30884D01*
X19426Y-30848D01*
X19509Y-30796D01*
X19580Y-30728D01*
X19637Y-30648D01*
X19677Y-30559D01*
X19698Y-30463D01*
X19700Y-30351D01*
X19699Y-30345D01*
X19699Y-29720D01*
X19699Y-29681D01*
X19699Y-29080D01*
X19691Y-29042D01*
X19676Y-29006D01*
X19655Y-28973D01*
X19627Y-28946D01*
X19595Y-28924D01*
X19559Y-28909D01*
X19520Y-28901D01*
X19481Y-28901D01*
X19174Y-28901D01*
X19174Y-27845D01*
X19174Y-27806D01*
X19174Y-27255D01*
X19166Y-27217D01*
X19151Y-27181D01*
X19130Y-27148D01*
X19102Y-27121D01*
X19070Y-27099D01*
X19034Y-27084D01*
X18995Y-27076D01*
X18956Y-27076D01*
X18557Y-27076D01*
X18557Y-24505D01*
X18557Y-24501D01*
X18557Y-24500D01*
X18557Y-21153D01*
X18557Y-21150D01*
X18555Y-21132D01*
X18551Y-21084D01*
X18550Y-21081D01*
X18532Y-21018D01*
X18530Y-21014D01*
X18524Y-21002D01*
X18499Y-20955D01*
X18497Y-20953D01*
X18497Y-20952D01*
X18479Y-20931D01*
X18456Y-20901D01*
X18454Y-20899D01*
X18453Y-20898D01*
X18447Y-20893D01*
X15972Y-18418D01*
X15974Y-18349D01*
X15954Y-18248D01*
X15915Y-18153D01*
X15858Y-18068D01*
X15786Y-17995D01*
X15701Y-17937D01*
X15606Y-17897D01*
X15505Y-17876D01*
X15403Y-17876D01*
X15302Y-17895D01*
X15206Y-17933D01*
X15120Y-17989D01*
X15047Y-18061D01*
X14989Y-18146D01*
X14948Y-18240D01*
X14927Y-18341D01*
X14925Y-18444D01*
X14944Y-18545D01*
X14982Y-18640D01*
X15037Y-18727D01*
X15108Y-18801D01*
X15193Y-18859D01*
X15287Y-18901D01*
X15387Y-18923D01*
X15470Y-18924D01*
X17843Y-21297D01*
X17843Y-24352D01*
X17069Y-25126D01*
X17003Y-25126D01*
X16902Y-25145D01*
X16806Y-25183D01*
X16720Y-25239D01*
X16647Y-25311D01*
X16589Y-25396D01*
X16548Y-25490D01*
X16527Y-25591D01*
X16525Y-25694D01*
X16544Y-25795D01*
X16582Y-25890D01*
X16637Y-25977D01*
X16708Y-26051D01*
X16793Y-26109D01*
X16887Y-26151D01*
X16987Y-26173D01*
X17090Y-26175D01*
X17191Y-26157D01*
X17287Y-26120D01*
X17374Y-26065D01*
X17448Y-25994D01*
X17508Y-25910D01*
X17549Y-25817D01*
X17572Y-25716D01*
X17573Y-25630D01*
X18449Y-24755D01*
X18450Y-24755D01*
X18450Y-24754D01*
X18452Y-24753D01*
X18459Y-24744D01*
X18495Y-24702D01*
X18496Y-24699D01*
X18528Y-24641D01*
X18529Y-24637D01*
X18549Y-24574D01*
X18549Y-24572D01*
X18550Y-24570D01*
X18553Y-24533D01*
X18557Y-24505D01*
X18557Y-27076D01*
X18405Y-27076D01*
X18367Y-27084D01*
X18331Y-27099D01*
X18298Y-27120D01*
X18271Y-27148D01*
X18249Y-27180D01*
X18234Y-27216D01*
X18226Y-27255D01*
X18226Y-27294D01*
X18226Y-27845D01*
X18234Y-27883D01*
X18249Y-27919D01*
X18270Y-27952D01*
X18298Y-27979D01*
X18330Y-28001D01*
X18366Y-28016D01*
X18405Y-28024D01*
X18444Y-28024D01*
X18995Y-28024D01*
X19033Y-28016D01*
X19069Y-28001D01*
X19102Y-27980D01*
X19129Y-27952D01*
X19151Y-27920D01*
X19166Y-27884D01*
X19174Y-27845D01*
X19174Y-28901D01*
X18880Y-28901D01*
X18842Y-28909D01*
X18806Y-28924D01*
X18773Y-28945D01*
X18746Y-28973D01*
X18724Y-29005D01*
X18709Y-29041D01*
X18701Y-29080D01*
X18701Y-29119D01*
X18701Y-29720D01*
X18709Y-29758D01*
X18724Y-29794D01*
X18745Y-29827D01*
X18773Y-29854D01*
X18805Y-29876D01*
X18841Y-29891D01*
X18880Y-29899D01*
X18919Y-29899D01*
X19520Y-29899D01*
X19558Y-29891D01*
X19594Y-29876D01*
X19627Y-29855D01*
X19654Y-29827D01*
X19676Y-29795D01*
X19691Y-29759D01*
X19699Y-29720D01*
X19699Y-30345D01*
X19681Y-30255D01*
X19644Y-30164D01*
X19589Y-30082D01*
X19520Y-30013D01*
X19439Y-29958D01*
X19349Y-29920D01*
X19253Y-29900D01*
X19154Y-29900D01*
X19058Y-29918D01*
X18967Y-29955D01*
X18885Y-30008D01*
X18815Y-30077D01*
X18760Y-30158D01*
X18721Y-30248D01*
X18701Y-30344D01*
X18699Y-30442D01*
X18717Y-30538D01*
X18753Y-30630D01*
X18806Y-30712D01*
X18874Y-30783D01*
X18955Y-30839D01*
X19045Y-30878D01*
X19140Y-30899D01*
X19189Y-30900D01*
X19154Y-30900D01*
X19058Y-30918D01*
X18967Y-30955D01*
X18885Y-31008D01*
X18815Y-31077D01*
X18760Y-31158D01*
X18721Y-31248D01*
X18701Y-31344D01*
X18699Y-31442D01*
X18717Y-31538D01*
X18753Y-31630D01*
X18806Y-31712D01*
X18874Y-31783D01*
X18955Y-31839D01*
X19045Y-31878D01*
X19140Y-31899D01*
X19239Y-31901D01*
X19335Y-31884D01*
X19426Y-31848D01*
X19509Y-31796D01*
X19580Y-31728D01*
X19637Y-31648D01*
X19677Y-31559D01*
X19698Y-31463D01*
X19700Y-31351D01*
X19700Y-32525D01*
X14549Y-32525D01*
X14549Y-11157D01*
X14533Y-11051D01*
X14500Y-10958D01*
X14500Y-09167D01*
X14481Y-09071D01*
X14444Y-08980D01*
X14389Y-08898D01*
X14320Y-08829D01*
X14239Y-08774D01*
X14149Y-08736D01*
X14053Y-08716D01*
X13954Y-08716D01*
X13858Y-08734D01*
X13767Y-08771D01*
X13685Y-08824D01*
X13615Y-08893D01*
X13560Y-08974D01*
X13521Y-09064D01*
X13501Y-09160D01*
X13499Y-09258D01*
X13517Y-09354D01*
X13553Y-09446D01*
X13606Y-09528D01*
X13674Y-09599D01*
X13755Y-09655D01*
X13845Y-09694D01*
X13940Y-09715D01*
X14039Y-09717D01*
X14135Y-09700D01*
X14226Y-09664D01*
X14309Y-09612D01*
X14380Y-09544D01*
X14437Y-09464D01*
X14477Y-09375D01*
X14498Y-09279D01*
X14500Y-09167D01*
X14500Y-10958D01*
X14497Y-10950D01*
X14472Y-10903D01*
X14378Y-10876D01*
X14308Y-10946D01*
X14308Y-10806D01*
X14281Y-10712D01*
X14184Y-10666D01*
X14080Y-10640D01*
X13973Y-10635D01*
X13867Y-10651D01*
X13766Y-10687D01*
X13719Y-10712D01*
X13692Y-10806D01*
X14000Y-11113D01*
X14308Y-10806D01*
X14308Y-10946D01*
X14071Y-11184D01*
X14378Y-11492D01*
X14472Y-11465D01*
X14518Y-11368D01*
X14544Y-11264D01*
X14549Y-11157D01*
X14549Y-32525D01*
X14396Y-32525D01*
X14396Y-19756D01*
X14396Y-19717D01*
X14396Y-19244D01*
X14388Y-19206D01*
X14373Y-19170D01*
X14352Y-19137D01*
X14324Y-19110D01*
X14308Y-19099D01*
X14308Y-11562D01*
X14000Y-11255D01*
X13929Y-11325D01*
X13929Y-11184D01*
X13622Y-10876D01*
X13528Y-10903D01*
X13482Y-11000D01*
X13456Y-11104D01*
X13451Y-11211D01*
X13467Y-11317D01*
X13503Y-11418D01*
X13528Y-11465D01*
X13622Y-11492D01*
X13929Y-11184D01*
X13929Y-11325D01*
X13692Y-11562D01*
X13719Y-11656D01*
X13816Y-11702D01*
X13920Y-11728D01*
X14027Y-11733D01*
X14133Y-11717D01*
X14234Y-11681D01*
X14281Y-11656D01*
X14308Y-11562D01*
X14308Y-19099D01*
X14292Y-19088D01*
X14256Y-19073D01*
X14217Y-19065D01*
X14178Y-19065D01*
X13150Y-19065D01*
X13150Y-16756D01*
X13150Y-15756D01*
X13133Y-15669D01*
X13099Y-15588D01*
X13050Y-15514D01*
X12988Y-15452D01*
X12915Y-15402D01*
X12834Y-15368D01*
X12747Y-15350D01*
X12659Y-15350D01*
X12572Y-15366D01*
X12491Y-15399D01*
X12417Y-15448D01*
X12354Y-15509D01*
X12304Y-15582D01*
X12269Y-15663D01*
X12251Y-15749D01*
X12249Y-15838D01*
X12265Y-15925D01*
X12298Y-16007D01*
X12346Y-16081D01*
X12407Y-16144D01*
X12479Y-16195D01*
X12560Y-16230D01*
X12646Y-16249D01*
X12735Y-16251D01*
X12821Y-16236D01*
X12904Y-16204D01*
X12978Y-16156D01*
X13042Y-16096D01*
X13093Y-16023D01*
X13129Y-15943D01*
X13149Y-15857D01*
X13150Y-15756D01*
X13150Y-16756D01*
X13133Y-16669D01*
X13099Y-16588D01*
X13050Y-16514D01*
X12988Y-16452D01*
X12915Y-16402D01*
X12834Y-16368D01*
X12747Y-16350D01*
X12659Y-16350D01*
X12572Y-16366D01*
X12491Y-16399D01*
X12417Y-16448D01*
X12354Y-16509D01*
X12304Y-16582D01*
X12269Y-16663D01*
X12251Y-16749D01*
X12249Y-16838D01*
X12265Y-16925D01*
X12298Y-17007D01*
X12346Y-17081D01*
X12407Y-17144D01*
X12479Y-17195D01*
X12560Y-17230D01*
X12646Y-17249D01*
X12735Y-17251D01*
X12821Y-17236D01*
X12904Y-17204D01*
X12978Y-17156D01*
X13042Y-17096D01*
X13093Y-17023D01*
X13129Y-16943D01*
X13149Y-16857D01*
X13150Y-16756D01*
X13150Y-19065D01*
X12925Y-19065D01*
X12870Y-19010D01*
X12768Y-18941D01*
X12653Y-18892D01*
X12532Y-18867D01*
X12407Y-18867D01*
X12285Y-18890D01*
X12170Y-18936D01*
X12067Y-19004D01*
X11978Y-19091D01*
X11908Y-19194D01*
X11859Y-19308D01*
X11833Y-19429D01*
X11831Y-19553D01*
X11854Y-19675D01*
X11899Y-19791D01*
X11967Y-19895D01*
X12053Y-19984D01*
X12155Y-20055D01*
X12268Y-20105D01*
X12390Y-20132D01*
X12514Y-20134D01*
X12636Y-20113D01*
X12752Y-20068D01*
X12857Y-20001D01*
X12926Y-19935D01*
X14217Y-19935D01*
X14255Y-19927D01*
X14291Y-19912D01*
X14324Y-19891D01*
X14351Y-19863D01*
X14373Y-19831D01*
X14388Y-19795D01*
X14396Y-19756D01*
X14396Y-32525D01*
X14244Y-32525D01*
X14244Y-31665D01*
X14244Y-31626D01*
X14244Y-29735D01*
X14236Y-29697D01*
X14221Y-29661D01*
X14200Y-29628D01*
X14172Y-29601D01*
X14140Y-29579D01*
X14104Y-29564D01*
X14065Y-29556D01*
X14026Y-29556D01*
X13950Y-29556D01*
X13950Y-24851D01*
X13931Y-24755D01*
X13894Y-24664D01*
X13839Y-24582D01*
X13770Y-24513D01*
X13689Y-24458D01*
X13599Y-24420D01*
X13503Y-24400D01*
X13494Y-24400D01*
X13585Y-24384D01*
X13676Y-24348D01*
X13759Y-24296D01*
X13830Y-24228D01*
X13887Y-24148D01*
X13927Y-24059D01*
X13948Y-23963D01*
X13950Y-23851D01*
X13931Y-23755D01*
X13894Y-23664D01*
X13839Y-23582D01*
X13770Y-23513D01*
X13689Y-23458D01*
X13599Y-23420D01*
X13503Y-23400D01*
X13404Y-23400D01*
X13308Y-23418D01*
X13217Y-23455D01*
X13135Y-23508D01*
X13065Y-23577D01*
X13052Y-23595D01*
X13041Y-23592D01*
X12971Y-23662D01*
X12971Y-23522D01*
X12944Y-23428D01*
X12847Y-23382D01*
X12743Y-23356D01*
X12636Y-23351D01*
X12530Y-23367D01*
X12429Y-23403D01*
X12382Y-23428D01*
X12355Y-23522D01*
X12663Y-23829D01*
X12971Y-23522D01*
X12971Y-23662D01*
X12734Y-23900D01*
X13041Y-24208D01*
X13051Y-24204D01*
X13056Y-24212D01*
X13124Y-24283D01*
X13205Y-24339D01*
X13295Y-24378D01*
X13390Y-24399D01*
X13439Y-24400D01*
X13404Y-24400D01*
X13308Y-24418D01*
X13217Y-24455D01*
X13135Y-24508D01*
X13065Y-24577D01*
X13056Y-24589D01*
X13052Y-24582D01*
X12983Y-24513D01*
X12902Y-24458D01*
X12821Y-24423D01*
X12897Y-24397D01*
X12944Y-24372D01*
X12971Y-24278D01*
X12663Y-23971D01*
X12592Y-24041D01*
X12592Y-23900D01*
X12330Y-23637D01*
X12330Y-21966D01*
X12302Y-21826D01*
X12247Y-21693D01*
X12168Y-21574D01*
X12067Y-21473D01*
X11949Y-21393D01*
X11817Y-21337D01*
X11676Y-21308D01*
X11533Y-21308D01*
X11392Y-21334D01*
X11260Y-21388D01*
X11168Y-21448D01*
X11168Y-19438D01*
X11144Y-19316D01*
X11097Y-19201D01*
X11028Y-19098D01*
X10940Y-19010D01*
X10838Y-18941D01*
X10723Y-18892D01*
X10700Y-18887D01*
X10700Y-13901D01*
X10681Y-13805D01*
X10644Y-13714D01*
X10589Y-13632D01*
X10520Y-13563D01*
X10439Y-13508D01*
X10349Y-13470D01*
X10253Y-13450D01*
X10244Y-13450D01*
X10335Y-13434D01*
X10426Y-13398D01*
X10509Y-13346D01*
X10580Y-13278D01*
X10637Y-13198D01*
X10677Y-13109D01*
X10698Y-13013D01*
X10700Y-12901D01*
X10681Y-12805D01*
X10644Y-12714D01*
X10589Y-12632D01*
X10520Y-12563D01*
X10439Y-12508D01*
X10349Y-12470D01*
X10253Y-12450D01*
X10244Y-12450D01*
X10335Y-12434D01*
X10426Y-12398D01*
X10509Y-12346D01*
X10580Y-12278D01*
X10637Y-12198D01*
X10677Y-12109D01*
X10698Y-12013D01*
X10700Y-11901D01*
X10699Y-11895D01*
X10699Y-11270D01*
X10699Y-11231D01*
X10699Y-10630D01*
X10691Y-10592D01*
X10676Y-10556D01*
X10655Y-10523D01*
X10627Y-10496D01*
X10595Y-10474D01*
X10559Y-10459D01*
X10520Y-10451D01*
X10481Y-10451D01*
X09880Y-10451D01*
X09842Y-10459D01*
X09806Y-10474D01*
X09773Y-10495D01*
X09746Y-10523D01*
X09724Y-10555D01*
X09709Y-10591D01*
X09701Y-10630D01*
X09701Y-10669D01*
X09701Y-10727D01*
X09697Y-10716D01*
X09672Y-10669D01*
X09578Y-10642D01*
X09508Y-10712D01*
X09508Y-10572D01*
X09481Y-10478D01*
X09384Y-10432D01*
X09280Y-10406D01*
X09173Y-10401D01*
X09067Y-10417D01*
X08966Y-10453D01*
X08919Y-10478D01*
X08892Y-10572D01*
X09200Y-10879D01*
X09508Y-10572D01*
X09508Y-10712D01*
X09271Y-10950D01*
X09578Y-11258D01*
X09672Y-11231D01*
X09701Y-11169D01*
X09701Y-11270D01*
X09709Y-11308D01*
X09724Y-11344D01*
X09745Y-11377D01*
X09773Y-11404D01*
X09805Y-11426D01*
X09841Y-11441D01*
X09880Y-11449D01*
X09919Y-11449D01*
X10520Y-11449D01*
X10558Y-11441D01*
X10594Y-11426D01*
X10627Y-11405D01*
X10654Y-11377D01*
X10676Y-11345D01*
X10691Y-11309D01*
X10699Y-11270D01*
X10699Y-11895D01*
X10681Y-11805D01*
X10644Y-11714D01*
X10589Y-11632D01*
X10520Y-11563D01*
X10439Y-11508D01*
X10349Y-11470D01*
X10253Y-11450D01*
X10154Y-11450D01*
X10058Y-11468D01*
X09967Y-11505D01*
X09885Y-11558D01*
X09815Y-11627D01*
X09760Y-11708D01*
X09721Y-11798D01*
X09701Y-11894D01*
X09700Y-11901D01*
X09681Y-11805D01*
X09644Y-11714D01*
X09589Y-11632D01*
X09520Y-11563D01*
X09439Y-11508D01*
X09358Y-11473D01*
X09434Y-11447D01*
X09481Y-11422D01*
X09508Y-11328D01*
X09200Y-11021D01*
X09129Y-11091D01*
X09129Y-10950D01*
X08822Y-10642D01*
X08728Y-10669D01*
X08682Y-10766D01*
X08656Y-10870D01*
X08651Y-10977D01*
X08667Y-11083D01*
X08703Y-11184D01*
X08728Y-11231D01*
X08822Y-11258D01*
X09129Y-10950D01*
X09129Y-11091D01*
X08892Y-11328D01*
X08919Y-11422D01*
X09016Y-11468D01*
X09042Y-11474D01*
X08967Y-11505D01*
X08885Y-11558D01*
X08815Y-11627D01*
X08760Y-11708D01*
X08721Y-11798D01*
X08701Y-11894D01*
X08699Y-11992D01*
X08717Y-12088D01*
X08753Y-12180D01*
X08806Y-12262D01*
X08874Y-12333D01*
X08955Y-12389D01*
X09045Y-12428D01*
X09140Y-12449D01*
X09189Y-12450D01*
X09154Y-12450D01*
X09058Y-12468D01*
X08967Y-12505D01*
X08885Y-12558D01*
X08815Y-12627D01*
X08760Y-12708D01*
X08721Y-12798D01*
X08701Y-12894D01*
X08699Y-12992D01*
X08717Y-13088D01*
X08753Y-13180D01*
X08806Y-13262D01*
X08874Y-13333D01*
X08955Y-13389D01*
X09041Y-13426D01*
X08966Y-13453D01*
X08919Y-13478D01*
X08892Y-13572D01*
X09200Y-13879D01*
X09508Y-13572D01*
X09481Y-13478D01*
X09384Y-13432D01*
X09357Y-13425D01*
X09426Y-13398D01*
X09509Y-13346D01*
X09580Y-13278D01*
X09637Y-13198D01*
X09677Y-13109D01*
X09698Y-13013D01*
X09700Y-12901D01*
X09699Y-12992D01*
X09717Y-13088D01*
X09753Y-13180D01*
X09806Y-13262D01*
X09874Y-13333D01*
X09955Y-13389D01*
X10045Y-13428D01*
X10140Y-13449D01*
X10189Y-13450D01*
X10154Y-13450D01*
X10058Y-13468D01*
X09967Y-13505D01*
X09885Y-13558D01*
X09815Y-13627D01*
X09760Y-13708D01*
X09723Y-13791D01*
X09697Y-13716D01*
X09672Y-13669D01*
X09578Y-13642D01*
X09271Y-13950D01*
X09578Y-14258D01*
X09672Y-14231D01*
X09718Y-14134D01*
X09724Y-14107D01*
X09753Y-14180D01*
X09806Y-14262D01*
X09874Y-14333D01*
X09955Y-14389D01*
X10045Y-14428D01*
X10140Y-14449D01*
X10239Y-14451D01*
X10335Y-14434D01*
X10426Y-14398D01*
X10509Y-14346D01*
X10580Y-14278D01*
X10637Y-14198D01*
X10677Y-14109D01*
X10698Y-14013D01*
X10700Y-13901D01*
X10700Y-18887D01*
X10602Y-18867D01*
X10477Y-18867D01*
X10355Y-18890D01*
X10240Y-18936D01*
X10137Y-19004D01*
X10074Y-19065D01*
X09508Y-19065D01*
X09508Y-14328D01*
X09200Y-14021D01*
X09129Y-14091D01*
X09129Y-13950D01*
X08822Y-13642D01*
X08728Y-13669D01*
X08682Y-13766D01*
X08656Y-13870D01*
X08651Y-13977D01*
X08667Y-14083D01*
X08703Y-14184D01*
X08728Y-14231D01*
X08822Y-14258D01*
X09129Y-13950D01*
X09129Y-14091D01*
X08892Y-14328D01*
X08919Y-14422D01*
X09016Y-14468D01*
X09120Y-14494D01*
X09227Y-14499D01*
X09333Y-14483D01*
X09434Y-14447D01*
X09481Y-14422D01*
X09508Y-14328D01*
X09508Y-19065D01*
X08783Y-19065D01*
X08745Y-19073D01*
X08709Y-19088D01*
X08676Y-19109D01*
X08649Y-19137D01*
X08627Y-19169D01*
X08612Y-19205D01*
X08604Y-19244D01*
X08604Y-19283D01*
X08604Y-19756D01*
X08612Y-19794D01*
X08627Y-19830D01*
X08648Y-19863D01*
X08676Y-19890D01*
X08708Y-19912D01*
X08744Y-19927D01*
X08783Y-19935D01*
X08822Y-19935D01*
X10075Y-19935D01*
X10123Y-19984D01*
X10225Y-20055D01*
X10338Y-20105D01*
X10460Y-20132D01*
X10584Y-20134D01*
X10706Y-20113D01*
X10822Y-20068D01*
X10927Y-20001D01*
X11016Y-19916D01*
X11088Y-19814D01*
X11138Y-19701D01*
X11166Y-19580D01*
X11168Y-19438D01*
X11168Y-21448D01*
X11140Y-21467D01*
X11038Y-21567D01*
X10957Y-21685D01*
X10901Y-21817D01*
X10871Y-21957D01*
X10869Y-22100D01*
X10895Y-22241D01*
X10948Y-22374D01*
X11025Y-22494D01*
X11125Y-22597D01*
X11243Y-22679D01*
X11374Y-22736D01*
X11514Y-22766D01*
X11657Y-22769D01*
X11798Y-22744D01*
X11931Y-22693D01*
X12052Y-22616D01*
X12156Y-22517D01*
X12238Y-22400D01*
X12296Y-22269D01*
X12328Y-22130D01*
X12330Y-21966D01*
X12330Y-23637D01*
X12285Y-23592D01*
X12191Y-23619D01*
X12145Y-23716D01*
X12119Y-23820D01*
X12114Y-23927D01*
X12130Y-24033D01*
X12166Y-24134D01*
X12191Y-24181D01*
X12285Y-24208D01*
X12592Y-23900D01*
X12592Y-24041D01*
X12355Y-24278D01*
X12382Y-24372D01*
X12479Y-24418D01*
X12505Y-24424D01*
X12430Y-24455D01*
X12348Y-24508D01*
X12278Y-24577D01*
X12223Y-24658D01*
X12184Y-24748D01*
X12164Y-24844D01*
X12162Y-24942D01*
X12180Y-25038D01*
X12216Y-25130D01*
X12269Y-25212D01*
X12337Y-25283D01*
X12418Y-25339D01*
X12508Y-25378D01*
X12603Y-25399D01*
X12702Y-25401D01*
X12798Y-25384D01*
X12889Y-25348D01*
X12972Y-25296D01*
X13043Y-25228D01*
X13055Y-25210D01*
X13056Y-25212D01*
X13124Y-25283D01*
X13205Y-25339D01*
X13295Y-25378D01*
X13390Y-25399D01*
X13489Y-25401D01*
X13585Y-25384D01*
X13676Y-25348D01*
X13759Y-25296D01*
X13830Y-25228D01*
X13887Y-25148D01*
X13927Y-25059D01*
X13948Y-24963D01*
X13950Y-24851D01*
X13950Y-29556D01*
X12794Y-29556D01*
X12794Y-28700D01*
X12771Y-28468D01*
X12704Y-28245D01*
X12594Y-28040D01*
X12435Y-27936D01*
X12364Y-28007D01*
X12364Y-27865D01*
X12330Y-27813D01*
X12330Y-26690D01*
X12302Y-26550D01*
X12247Y-26417D01*
X12168Y-26298D01*
X12067Y-26197D01*
X11949Y-26117D01*
X11817Y-26061D01*
X11676Y-26032D01*
X11533Y-26032D01*
X11392Y-26058D01*
X11260Y-26112D01*
X11140Y-26191D01*
X11038Y-26291D01*
X10957Y-26409D01*
X10901Y-26541D01*
X10871Y-26681D01*
X10869Y-26824D01*
X10895Y-26965D01*
X10948Y-27098D01*
X11025Y-27218D01*
X11125Y-27321D01*
X11243Y-27403D01*
X11374Y-27460D01*
X11514Y-27490D01*
X11657Y-27493D01*
X11798Y-27468D01*
X11931Y-27417D01*
X12052Y-27340D01*
X12156Y-27241D01*
X12238Y-27124D01*
X12296Y-26993D01*
X12328Y-26854D01*
X12330Y-26690D01*
X12330Y-27813D01*
X12260Y-27706D01*
X12055Y-27596D01*
X11832Y-27529D01*
X11600Y-27506D01*
X11368Y-27529D01*
X11145Y-27596D01*
X10940Y-27706D01*
X10836Y-27865D01*
X11600Y-28629D01*
X12364Y-27865D01*
X12364Y-28007D01*
X11671Y-28700D01*
X12435Y-29464D01*
X12594Y-29360D01*
X12704Y-29155D01*
X12771Y-28932D01*
X12794Y-28700D01*
X12794Y-29556D01*
X12350Y-29556D01*
X12364Y-29535D01*
X11635Y-28806D01*
X11600Y-28771D01*
X11529Y-28700D01*
X11494Y-28665D01*
X10765Y-27936D01*
X10606Y-28040D01*
X10496Y-28245D01*
X10429Y-28468D01*
X10406Y-28700D01*
X10429Y-28932D01*
X10496Y-29155D01*
X10606Y-29360D01*
X10722Y-29436D01*
X10681Y-29478D01*
X10709Y-29506D01*
X10700Y-29506D01*
X10468Y-29529D01*
X10347Y-29565D01*
X10347Y-22982D01*
X10332Y-22877D01*
X10297Y-22777D01*
X10271Y-22730D01*
X10178Y-22705D01*
X10107Y-22776D01*
X10107Y-22634D01*
X10082Y-22541D01*
X09985Y-22496D01*
X09882Y-22470D01*
X09776Y-22465D01*
X09671Y-22480D01*
X09571Y-22515D01*
X09542Y-22531D01*
X09542Y-21732D01*
X09512Y-21580D01*
X09453Y-21437D01*
X09368Y-21308D01*
X09259Y-21198D01*
X09130Y-21112D01*
X08988Y-21052D01*
X08836Y-21021D01*
X08682Y-21019D01*
X08530Y-21048D01*
X08386Y-21106D01*
X08257Y-21191D01*
X08146Y-21299D01*
X08058Y-21427D01*
X07997Y-21569D01*
X07965Y-21720D01*
X07963Y-21875D01*
X07991Y-22027D01*
X08048Y-22171D01*
X08132Y-22301D01*
X08239Y-22412D01*
X08366Y-22501D01*
X08508Y-22563D01*
X08659Y-22596D01*
X08813Y-22599D01*
X08966Y-22573D01*
X09110Y-22517D01*
X09241Y-22434D01*
X09353Y-22327D01*
X09442Y-22201D01*
X09505Y-22060D01*
X09539Y-21909D01*
X09542Y-21732D01*
X09542Y-22531D01*
X09524Y-22541D01*
X09499Y-22634D01*
X09803Y-22938D01*
X10107Y-22634D01*
X10107Y-22776D01*
X09874Y-23009D01*
X10178Y-23313D01*
X10271Y-23288D01*
X10316Y-23191D01*
X10342Y-23088D01*
X10347Y-22982D01*
X10347Y-29565D01*
X10298Y-29580D01*
X10298Y-25761D01*
X10298Y-24761D01*
X10279Y-24666D01*
X10242Y-24576D01*
X10189Y-24495D01*
X10120Y-24426D01*
X10095Y-24409D01*
X10109Y-24401D01*
X10179Y-24334D01*
X10235Y-24255D01*
X10275Y-24166D01*
X10296Y-24072D01*
X10298Y-23961D01*
X10279Y-23866D01*
X10242Y-23776D01*
X10189Y-23695D01*
X10120Y-23626D01*
X10040Y-23572D01*
X09951Y-23534D01*
X09948Y-23533D01*
X10035Y-23503D01*
X10082Y-23477D01*
X10107Y-23384D01*
X09803Y-23080D01*
X09732Y-23151D01*
X09732Y-23009D01*
X09428Y-22705D01*
X09335Y-22730D01*
X09290Y-22827D01*
X09264Y-22930D01*
X09259Y-23036D01*
X09274Y-23141D01*
X09309Y-23241D01*
X09335Y-23288D01*
X09428Y-23313D01*
X09732Y-23009D01*
X09732Y-23151D01*
X09499Y-23384D01*
X09524Y-23477D01*
X09621Y-23522D01*
X09662Y-23532D01*
X09573Y-23568D01*
X09492Y-23621D01*
X09422Y-23689D01*
X09367Y-23769D01*
X09329Y-23858D01*
X09309Y-23953D01*
X09307Y-24050D01*
X09325Y-24146D01*
X09360Y-24236D01*
X09413Y-24317D01*
X09480Y-24387D01*
X09510Y-24408D01*
X09492Y-24421D01*
X09422Y-24489D01*
X09367Y-24569D01*
X09329Y-24658D01*
X09309Y-24753D01*
X09307Y-24850D01*
X09325Y-24946D01*
X09360Y-25036D01*
X09413Y-25117D01*
X09480Y-25187D01*
X09560Y-25243D01*
X09649Y-25282D01*
X09744Y-25303D01*
X09841Y-25305D01*
X09936Y-25288D01*
X10027Y-25253D01*
X10109Y-25201D01*
X10179Y-25134D01*
X10235Y-25055D01*
X10275Y-24966D01*
X10296Y-24872D01*
X10298Y-24761D01*
X10298Y-25761D01*
X10279Y-25666D01*
X10242Y-25576D01*
X10189Y-25495D01*
X10120Y-25426D01*
X10040Y-25372D01*
X09951Y-25334D01*
X09856Y-25314D01*
X09758Y-25314D01*
X09663Y-25332D01*
X09573Y-25368D01*
X09492Y-25421D01*
X09422Y-25489D01*
X09367Y-25569D01*
X09329Y-25658D01*
X09309Y-25753D01*
X09307Y-25850D01*
X09325Y-25946D01*
X09360Y-26036D01*
X09413Y-26117D01*
X09480Y-26187D01*
X09560Y-26243D01*
X09649Y-26282D01*
X09744Y-26303D01*
X09841Y-26305D01*
X09936Y-26288D01*
X10027Y-26253D01*
X10109Y-26201D01*
X10179Y-26134D01*
X10235Y-26055D01*
X10275Y-25966D01*
X10296Y-25872D01*
X10298Y-25761D01*
X10298Y-29580D01*
X10245Y-29596D01*
X10040Y-29706D01*
X09936Y-29865D01*
X10665Y-30594D01*
X10700Y-30629D01*
X10771Y-30700D01*
X10806Y-30735D01*
X11535Y-31464D01*
X11694Y-31360D01*
X11804Y-31155D01*
X11871Y-30932D01*
X11894Y-30700D01*
X11871Y-30468D01*
X11804Y-30245D01*
X11694Y-30040D01*
X11577Y-29963D01*
X11619Y-29922D01*
X11590Y-29893D01*
X11600Y-29894D01*
X11832Y-29871D01*
X11956Y-29833D01*
X11956Y-31665D01*
X11964Y-31703D01*
X11979Y-31739D01*
X12000Y-31772D01*
X12028Y-31799D01*
X12060Y-31821D01*
X12096Y-31836D01*
X12135Y-31844D01*
X12174Y-31844D01*
X14065Y-31844D01*
X14103Y-31836D01*
X14139Y-31821D01*
X14172Y-31800D01*
X14199Y-31772D01*
X14221Y-31740D01*
X14236Y-31704D01*
X14244Y-31665D01*
X14244Y-32525D01*
X11894Y-32525D01*
X11464Y-32525D01*
X11464Y-31535D01*
X10700Y-30771D01*
X10629Y-30842D01*
X10629Y-30700D01*
X09865Y-29936D01*
X09706Y-30040D01*
X09596Y-30245D01*
X09542Y-30424D01*
X09542Y-27132D01*
X09512Y-26980D01*
X09453Y-26837D01*
X09368Y-26708D01*
X09259Y-26598D01*
X09130Y-26512D01*
X08988Y-26452D01*
X08836Y-26421D01*
X08682Y-26419D01*
X08530Y-26448D01*
X08386Y-26506D01*
X08257Y-26591D01*
X08146Y-26699D01*
X08058Y-26827D01*
X07997Y-26969D01*
X07965Y-27120D01*
X07963Y-27275D01*
X07991Y-27427D01*
X08048Y-27571D01*
X08132Y-27701D01*
X08239Y-27812D01*
X08366Y-27901D01*
X08508Y-27963D01*
X08659Y-27996D01*
X08813Y-27999D01*
X08966Y-27973D01*
X09110Y-27917D01*
X09241Y-27834D01*
X09353Y-27727D01*
X09442Y-27601D01*
X09505Y-27460D01*
X09539Y-27309D01*
X09542Y-27132D01*
X09542Y-30424D01*
X09529Y-30468D01*
X09506Y-30700D01*
X09529Y-30932D01*
X09596Y-31155D01*
X09706Y-31360D01*
X09865Y-31464D01*
X10629Y-30700D01*
X10629Y-30842D01*
X09936Y-31535D01*
X10040Y-31694D01*
X10245Y-31804D01*
X10468Y-31871D01*
X10700Y-31894D01*
X10932Y-31871D01*
X11155Y-31804D01*
X11360Y-31694D01*
X11464Y-31535D01*
X11464Y-32525D01*
X07775Y-32525D01*
X07775Y-07304D01*
X07775Y-07300D01*
X07775Y-05275D01*
X09996Y-05275D01*
X10000Y-05275D01*
X26250Y-05275D01*
X26250Y-32525D01*
M02*
