G04 (created by PCBNEW-RS274X (2011-03-30 BZR 2932)-stable) date 30/04/2011 07:18:35 p.m.*
G01*
G70*
G90*
%MOIN*%
G04 Gerber Fmt 3.4, Leading zero omitted, Abs format*
%FSLAX34Y34*%
G04 APERTURE LIST*
%ADD10C,0.006000*%
%ADD11R,0.075000X0.030000*%
%ADD12R,0.030000X0.075000*%
%ADD13R,0.075000X0.029200*%
%ADD14R,0.075000X0.075000*%
%ADD15C,0.075000*%
%ADD16R,0.080000X0.080000*%
%ADD17C,0.080000*%
%ADD18C,0.085000*%
%ADD19C,0.070000*%
%ADD20R,0.055000X0.075000*%
%ADD21R,0.075000X0.055000*%
%ADD22R,0.075000X0.054000*%
%ADD23R,0.170000X0.100000*%
%ADD24R,0.075000X0.100000*%
%ADD25C,0.076000*%
%ADD26C,0.079100*%
%ADD27C,0.138100*%
%ADD28C,0.126300*%
%ADD29C,0.209000*%
%ADD30R,0.209000X0.209000*%
G04 APERTURE END LIST*
G54D10*
G54D11*
X18591Y-20328D03*
G54D12*
X19278Y-24759D03*
G54D11*
X23709Y-24072D03*
G54D12*
X23022Y-19641D03*
G54D11*
X18591Y-20525D03*
G54D12*
X19475Y-24759D03*
G54D11*
X23709Y-23875D03*
G54D12*
X22825Y-19641D03*
G54D13*
X18591Y-20722D03*
G54D12*
X19672Y-24759D03*
G54D11*
X23709Y-23678D03*
G54D12*
X22628Y-19641D03*
G54D11*
X18591Y-20919D03*
G54D12*
X19869Y-24759D03*
G54D11*
X23709Y-23481D03*
G54D12*
X22431Y-19641D03*
G54D11*
X18591Y-21116D03*
G54D12*
X20066Y-24759D03*
G54D11*
X23709Y-23284D03*
G54D12*
X22234Y-19641D03*
G54D11*
X18591Y-21313D03*
G54D12*
X20263Y-24759D03*
G54D11*
X23709Y-23087D03*
G54D12*
X22037Y-19641D03*
G54D11*
X18591Y-21510D03*
G54D12*
X20460Y-24759D03*
G54D11*
X23709Y-22890D03*
G54D12*
X21840Y-19641D03*
G54D11*
X18591Y-21707D03*
G54D12*
X20657Y-24759D03*
G54D11*
X23709Y-22693D03*
G54D12*
X21643Y-19641D03*
G54D11*
X18591Y-21904D03*
G54D12*
X20854Y-24759D03*
G54D11*
X23709Y-22496D03*
G54D12*
X21446Y-19641D03*
G54D11*
X18591Y-22101D03*
G54D12*
X21051Y-24759D03*
G54D11*
X23709Y-22299D03*
G54D12*
X21249Y-19641D03*
G54D11*
X18591Y-22298D03*
G54D12*
X21248Y-24759D03*
G54D11*
X23709Y-22102D03*
G54D12*
X21052Y-19641D03*
G54D11*
X18591Y-22495D03*
G54D12*
X21445Y-24759D03*
G54D11*
X23709Y-21905D03*
G54D12*
X20855Y-19641D03*
G54D11*
X18591Y-22692D03*
G54D12*
X21642Y-24759D03*
G54D10*
G36*
X23334Y-21558D02*
X24084Y-21558D01*
X24084Y-21858D01*
X23334Y-21858D01*
X23334Y-21558D01*
X23334Y-21558D01*
G37*
G54D12*
X20658Y-19641D03*
G54D11*
X18591Y-22889D03*
G54D12*
X21839Y-24759D03*
G54D10*
G36*
X23334Y-21361D02*
X24084Y-21361D01*
X24084Y-21661D01*
X23334Y-21661D01*
X23334Y-21361D01*
X23334Y-21361D01*
G37*
G54D12*
X20461Y-19641D03*
G54D11*
X18591Y-23086D03*
G54D12*
X22036Y-24759D03*
G54D11*
X23709Y-21314D03*
G54D12*
X20264Y-19641D03*
G54D11*
X18591Y-23283D03*
G54D12*
X22233Y-24759D03*
G54D11*
X23709Y-21117D03*
G54D12*
X20067Y-19641D03*
G54D11*
X18591Y-23480D03*
G54D12*
X22430Y-24759D03*
G54D11*
X23709Y-20920D03*
G54D12*
X19870Y-19641D03*
G54D11*
X18591Y-23677D03*
G54D12*
X22627Y-24759D03*
G54D11*
X23709Y-20723D03*
G54D12*
X19673Y-19641D03*
G54D11*
X18591Y-23874D03*
G54D12*
X22824Y-24759D03*
G54D11*
X23709Y-20526D03*
G54D12*
X19476Y-19641D03*
G54D11*
X18591Y-24071D03*
G54D12*
X23021Y-24759D03*
G54D11*
X23709Y-20329D03*
G54D12*
X19279Y-19641D03*
G54D14*
X22850Y-10950D03*
G54D15*
X22850Y-09950D03*
G54D14*
X20500Y-29650D03*
G54D15*
X20500Y-28650D03*
G54D16*
X16200Y-18350D03*
G54D17*
X15200Y-18350D03*
X16200Y-19350D03*
X15200Y-19350D03*
X16200Y-20350D03*
X15200Y-20350D03*
X16200Y-21350D03*
X15200Y-21350D03*
G54D18*
X33500Y-21750D03*
X34500Y-21750D03*
X33500Y-20750D03*
X34500Y-20750D03*
X33500Y-19750D03*
X34500Y-19750D03*
X34500Y-16750D03*
X33500Y-16750D03*
X34500Y-17750D03*
X33500Y-17750D03*
X34500Y-18750D03*
X33500Y-18750D03*
X33500Y-12750D03*
X34500Y-12750D03*
X33500Y-11750D03*
X34500Y-11750D03*
X34500Y-13750D03*
X33500Y-13750D03*
X34500Y-14750D03*
X33500Y-14750D03*
X34500Y-15750D03*
X33500Y-15750D03*
X33500Y-27750D03*
X34500Y-27750D03*
X33500Y-26750D03*
X34500Y-26750D03*
X33500Y-25750D03*
X34500Y-25750D03*
X34500Y-22750D03*
X33500Y-22750D03*
X34500Y-23750D03*
X33500Y-23750D03*
X34500Y-24750D03*
X33500Y-24750D03*
X33500Y-30750D03*
X34500Y-30750D03*
X33500Y-29750D03*
X34500Y-29750D03*
X33500Y-28750D03*
X34500Y-28750D03*
X34500Y-09750D03*
X33500Y-09750D03*
X34500Y-10750D03*
X33500Y-10750D03*
X34500Y-31750D03*
X33500Y-31750D03*
X34500Y-32750D03*
X33500Y-32750D03*
X34500Y-33750D03*
X33500Y-33750D03*
G54D19*
X15900Y-22550D03*
X15900Y-23550D03*
G54D20*
X15025Y-31550D03*
X15775Y-31550D03*
X15025Y-29550D03*
X15775Y-29550D03*
G54D21*
X22000Y-11675D03*
X22000Y-10925D03*
G54D20*
X15025Y-32450D03*
X15775Y-32450D03*
X19675Y-30600D03*
X20425Y-30600D03*
X25225Y-24950D03*
X24475Y-24950D03*
X14525Y-22550D03*
X15275Y-22550D03*
X14525Y-23550D03*
X15275Y-23550D03*
X15025Y-30650D03*
X15775Y-30650D03*
G54D21*
X13800Y-22675D03*
X13800Y-23425D03*
X21150Y-11675D03*
X21150Y-10925D03*
X12300Y-22675D03*
X12300Y-23425D03*
X17450Y-26925D03*
X17450Y-26175D03*
G54D20*
X15025Y-28700D03*
X15775Y-28700D03*
G54D21*
X16650Y-11475D03*
X16650Y-10725D03*
X20300Y-11675D03*
X20300Y-10925D03*
G54D20*
X17825Y-23550D03*
X17075Y-23550D03*
G54D21*
X19000Y-26175D03*
X19000Y-25425D03*
X22100Y-26925D03*
X22100Y-26175D03*
G54D20*
X25225Y-24150D03*
X24475Y-24150D03*
X25775Y-20850D03*
X25025Y-20850D03*
G54D21*
X22100Y-17475D03*
X22100Y-18225D03*
X19600Y-17925D03*
G54D22*
X19600Y-18675D03*
G54D20*
X17175Y-22000D03*
X17925Y-22000D03*
G54D21*
X16400Y-26925D03*
X16400Y-26175D03*
G54D23*
X18450Y-13600D03*
G54D24*
X18450Y-11000D03*
X17550Y-11000D03*
X19350Y-11000D03*
G54D17*
X13050Y-22016D03*
X13050Y-23984D03*
G54D25*
X17850Y-25550D03*
X15850Y-25550D03*
G54D16*
X16350Y-12500D03*
G54D17*
X16350Y-13500D03*
G54D16*
X15350Y-12500D03*
G54D17*
X15350Y-13500D03*
G54D26*
X11950Y-33850D03*
X12950Y-33850D03*
X13750Y-33850D03*
X14750Y-33850D03*
G54D27*
X10750Y-34900D03*
X16150Y-34900D03*
G54D17*
X13850Y-29550D03*
X13850Y-30550D03*
X13063Y-30550D03*
X13063Y-29550D03*
G54D28*
X12000Y-27688D03*
X12000Y-32412D03*
G54D16*
X25900Y-24200D03*
G54D17*
X25900Y-25200D03*
G54D29*
X10800Y-12750D03*
G54D30*
X13200Y-12750D03*
G54D29*
X11700Y-10750D03*
M02*
