G04 (created by PCBNEW-RS274X (2011-03-30 BZR 2932)-stable) date 30/04/2011 07:18:35 p.m.*
G01*
G70*
G90*
%MOIN*%
G04 Gerber Fmt 3.4, Leading zero omitted, Abs format*
%FSLAX34Y34*%
G04 APERTURE LIST*
%ADD10C,0.006000*%
%ADD11R,0.055000X0.055000*%
%ADD12C,0.055000*%
%ADD13R,0.060000X0.060000*%
%ADD14C,0.060000*%
%ADD15C,0.065000*%
%ADD16C,0.050000*%
%ADD17C,0.056000*%
%ADD18C,0.059100*%
%ADD19C,0.118100*%
%ADD20C,0.106300*%
%ADD21C,0.189000*%
%ADD22R,0.189000X0.189000*%
%ADD23C,0.030000*%
%ADD24C,0.010000*%
G04 APERTURE END LIST*
G54D10*
G54D11*
X22850Y-10950D03*
G54D12*
X22850Y-09950D03*
G54D11*
X20500Y-29650D03*
G54D12*
X20500Y-28650D03*
G54D13*
X16200Y-18350D03*
G54D14*
X15200Y-18350D03*
X16200Y-19350D03*
X15200Y-19350D03*
X16200Y-20350D03*
X15200Y-20350D03*
X16200Y-21350D03*
X15200Y-21350D03*
G54D15*
X33500Y-21750D03*
X34500Y-21750D03*
X33500Y-20750D03*
X34500Y-20750D03*
X33500Y-19750D03*
X34500Y-19750D03*
X34500Y-16750D03*
X33500Y-16750D03*
X34500Y-17750D03*
X33500Y-17750D03*
X34500Y-18750D03*
X33500Y-18750D03*
X33500Y-12750D03*
X34500Y-12750D03*
X33500Y-11750D03*
X34500Y-11750D03*
X34500Y-13750D03*
X33500Y-13750D03*
X34500Y-14750D03*
X33500Y-14750D03*
X34500Y-15750D03*
X33500Y-15750D03*
X33500Y-27750D03*
X34500Y-27750D03*
X33500Y-26750D03*
X34500Y-26750D03*
X33500Y-25750D03*
X34500Y-25750D03*
X34500Y-22750D03*
X33500Y-22750D03*
X34500Y-23750D03*
X33500Y-23750D03*
X34500Y-24750D03*
X33500Y-24750D03*
X33500Y-30750D03*
X34500Y-30750D03*
X33500Y-29750D03*
X34500Y-29750D03*
X33500Y-28750D03*
X34500Y-28750D03*
X34500Y-09750D03*
X33500Y-09750D03*
X34500Y-10750D03*
X33500Y-10750D03*
X34500Y-31750D03*
X33500Y-31750D03*
X34500Y-32750D03*
X33500Y-32750D03*
X34500Y-33750D03*
X33500Y-33750D03*
G54D16*
X15900Y-22550D03*
X15900Y-23550D03*
G54D14*
X13050Y-22016D03*
X13050Y-23984D03*
G54D17*
X17850Y-25550D03*
X15850Y-25550D03*
G54D13*
X16350Y-12500D03*
G54D14*
X16350Y-13500D03*
G54D13*
X15350Y-12500D03*
G54D14*
X15350Y-13500D03*
G54D18*
X11950Y-33850D03*
X12950Y-33850D03*
X13750Y-33850D03*
X14750Y-33850D03*
G54D19*
X10750Y-34900D03*
X16150Y-34900D03*
G54D14*
X13850Y-29550D03*
X13850Y-30550D03*
X13063Y-30550D03*
X13063Y-29550D03*
G54D20*
X12000Y-27688D03*
X12000Y-32412D03*
G54D13*
X25900Y-24200D03*
G54D14*
X25900Y-25200D03*
G54D21*
X10800Y-12750D03*
G54D22*
X13200Y-12750D03*
G54D21*
X11700Y-10750D03*
G54D15*
X18850Y-30600D03*
X13850Y-25200D03*
X13050Y-21050D03*
X32150Y-10250D03*
X19550Y-17150D03*
X22900Y-17150D03*
X26950Y-25050D03*
X17650Y-17200D03*
X22950Y-27100D03*
G54D23*
X13850Y-25600D02*
X13850Y-25200D01*
X13850Y-25600D02*
X18850Y-30600D01*
G54D24*
X17100Y-14850D02*
X20500Y-14850D01*
X13050Y-18900D02*
X17100Y-14850D01*
X13050Y-21050D02*
X13050Y-18900D01*
X20500Y-14850D02*
X25100Y-10250D01*
X25100Y-10250D02*
X32150Y-10250D01*
X26950Y-25050D02*
X26950Y-21200D01*
X26950Y-21200D02*
X22900Y-17150D01*
X19550Y-17150D02*
X22900Y-17150D01*
X24900Y-27100D02*
X22950Y-27100D01*
X26950Y-25050D02*
X24900Y-27100D01*
X17650Y-17200D02*
X17700Y-17150D01*
X17700Y-17150D02*
X19550Y-17150D01*
G54D10*
G36*
X35475Y-35675D02*
X35075Y-35675D01*
X35075Y-33865D01*
X35075Y-33636D01*
X34988Y-33425D01*
X34826Y-33263D01*
X34795Y-33250D01*
X34825Y-33238D01*
X34987Y-33076D01*
X35075Y-32865D01*
X35075Y-32636D01*
X34988Y-32425D01*
X34826Y-32263D01*
X34795Y-32250D01*
X34825Y-32238D01*
X34987Y-32076D01*
X35075Y-31865D01*
X35075Y-31636D01*
X34988Y-31425D01*
X34826Y-31263D01*
X34795Y-31250D01*
X34825Y-31238D01*
X34987Y-31076D01*
X35075Y-30865D01*
X35075Y-30636D01*
X34988Y-30425D01*
X34826Y-30263D01*
X34795Y-30250D01*
X34825Y-30238D01*
X34987Y-30076D01*
X35075Y-29865D01*
X35075Y-29636D01*
X34988Y-29425D01*
X34826Y-29263D01*
X34795Y-29250D01*
X34825Y-29238D01*
X34987Y-29076D01*
X35075Y-28865D01*
X35075Y-28636D01*
X34988Y-28425D01*
X34826Y-28263D01*
X34795Y-28250D01*
X34825Y-28238D01*
X34987Y-28076D01*
X35075Y-27865D01*
X35075Y-27636D01*
X34988Y-27425D01*
X34826Y-27263D01*
X34795Y-27250D01*
X34825Y-27238D01*
X34987Y-27076D01*
X35075Y-26865D01*
X35075Y-26636D01*
X34988Y-26425D01*
X34826Y-26263D01*
X34795Y-26250D01*
X34825Y-26238D01*
X34987Y-26076D01*
X35075Y-25865D01*
X35075Y-25636D01*
X34988Y-25425D01*
X34826Y-25263D01*
X34795Y-25250D01*
X34825Y-25238D01*
X34987Y-25076D01*
X35075Y-24865D01*
X35075Y-24636D01*
X34988Y-24425D01*
X34826Y-24263D01*
X34795Y-24250D01*
X34825Y-24238D01*
X34987Y-24076D01*
X35075Y-23865D01*
X35075Y-23636D01*
X34988Y-23425D01*
X34826Y-23263D01*
X34795Y-23250D01*
X34825Y-23238D01*
X34987Y-23076D01*
X35075Y-22865D01*
X35075Y-22636D01*
X34988Y-22425D01*
X34826Y-22263D01*
X34795Y-22250D01*
X34825Y-22238D01*
X34987Y-22076D01*
X35075Y-21865D01*
X35075Y-21636D01*
X34988Y-21425D01*
X34826Y-21263D01*
X34795Y-21250D01*
X34825Y-21238D01*
X34987Y-21076D01*
X35075Y-20865D01*
X35075Y-20636D01*
X34988Y-20425D01*
X34826Y-20263D01*
X34795Y-20250D01*
X34825Y-20238D01*
X34987Y-20076D01*
X35075Y-19865D01*
X35075Y-19636D01*
X34988Y-19425D01*
X34826Y-19263D01*
X34795Y-19250D01*
X34825Y-19238D01*
X34987Y-19076D01*
X35075Y-18865D01*
X35075Y-18636D01*
X34988Y-18425D01*
X34826Y-18263D01*
X34795Y-18250D01*
X34825Y-18238D01*
X34987Y-18076D01*
X35075Y-17865D01*
X35075Y-17636D01*
X34988Y-17425D01*
X34826Y-17263D01*
X34795Y-17250D01*
X34825Y-17238D01*
X34987Y-17076D01*
X35075Y-16865D01*
X35075Y-16636D01*
X34988Y-16425D01*
X34826Y-16263D01*
X34795Y-16250D01*
X34825Y-16238D01*
X34987Y-16076D01*
X35075Y-15865D01*
X35075Y-15636D01*
X34988Y-15425D01*
X34826Y-15263D01*
X34795Y-15250D01*
X34825Y-15238D01*
X34987Y-15076D01*
X35075Y-14865D01*
X35075Y-14636D01*
X34988Y-14425D01*
X34826Y-14263D01*
X34795Y-14250D01*
X34825Y-14238D01*
X34987Y-14076D01*
X35075Y-13865D01*
X35075Y-13636D01*
X34988Y-13425D01*
X34826Y-13263D01*
X34795Y-13250D01*
X34825Y-13238D01*
X34987Y-13076D01*
X35075Y-12865D01*
X35075Y-12636D01*
X34988Y-12425D01*
X34826Y-12263D01*
X34795Y-12250D01*
X34825Y-12238D01*
X34987Y-12076D01*
X35075Y-11865D01*
X35075Y-11636D01*
X34988Y-11425D01*
X34826Y-11263D01*
X34795Y-11250D01*
X34825Y-11238D01*
X34987Y-11076D01*
X35075Y-10865D01*
X35075Y-10636D01*
X35068Y-10619D01*
X35068Y-09834D01*
X35056Y-09611D01*
X34992Y-09454D01*
X34896Y-09425D01*
X34825Y-09496D01*
X34825Y-09354D01*
X34796Y-09258D01*
X34584Y-09182D01*
X34361Y-09194D01*
X34204Y-09258D01*
X34175Y-09354D01*
X34500Y-09679D01*
X34825Y-09354D01*
X34825Y-09496D01*
X34571Y-09750D01*
X34896Y-10075D01*
X34992Y-10046D01*
X35068Y-09834D01*
X35068Y-10619D01*
X34988Y-10425D01*
X34826Y-10263D01*
X34785Y-10246D01*
X34796Y-10242D01*
X34825Y-10146D01*
X34500Y-09821D01*
X34175Y-10146D01*
X34204Y-10242D01*
X34214Y-10245D01*
X34175Y-10262D01*
X34013Y-10424D01*
X34000Y-10454D01*
X33988Y-10425D01*
X33826Y-10263D01*
X33795Y-10250D01*
X33825Y-10238D01*
X33987Y-10076D01*
X34003Y-10035D01*
X34008Y-10046D01*
X34104Y-10075D01*
X34429Y-09750D01*
X34104Y-09425D01*
X34008Y-09454D01*
X34004Y-09464D01*
X33988Y-09425D01*
X33826Y-09263D01*
X33615Y-09175D01*
X33386Y-09175D01*
X33175Y-09262D01*
X33013Y-09424D01*
X32925Y-09635D01*
X32925Y-09864D01*
X33012Y-10075D01*
X33174Y-10237D01*
X33204Y-10249D01*
X33175Y-10262D01*
X33013Y-10424D01*
X32925Y-10635D01*
X32925Y-10864D01*
X33012Y-11075D01*
X33174Y-11237D01*
X33204Y-11249D01*
X33175Y-11262D01*
X33013Y-11424D01*
X32925Y-11635D01*
X32925Y-11864D01*
X33012Y-12075D01*
X33174Y-12237D01*
X33204Y-12249D01*
X33175Y-12262D01*
X33013Y-12424D01*
X32925Y-12635D01*
X32925Y-12864D01*
X33012Y-13075D01*
X33174Y-13237D01*
X33204Y-13249D01*
X33175Y-13262D01*
X33013Y-13424D01*
X32925Y-13635D01*
X32925Y-13864D01*
X33012Y-14075D01*
X33174Y-14237D01*
X33204Y-14249D01*
X33175Y-14262D01*
X33013Y-14424D01*
X32925Y-14635D01*
X32925Y-14864D01*
X33012Y-15075D01*
X33174Y-15237D01*
X33204Y-15249D01*
X33175Y-15262D01*
X33013Y-15424D01*
X32925Y-15635D01*
X32925Y-15864D01*
X33012Y-16075D01*
X33174Y-16237D01*
X33204Y-16249D01*
X33175Y-16262D01*
X33013Y-16424D01*
X32925Y-16635D01*
X32925Y-16864D01*
X33012Y-17075D01*
X33174Y-17237D01*
X33204Y-17249D01*
X33175Y-17262D01*
X33013Y-17424D01*
X32925Y-17635D01*
X32925Y-17864D01*
X33012Y-18075D01*
X33174Y-18237D01*
X33204Y-18249D01*
X33175Y-18262D01*
X33013Y-18424D01*
X32925Y-18635D01*
X32925Y-18864D01*
X33012Y-19075D01*
X33174Y-19237D01*
X33204Y-19249D01*
X33175Y-19262D01*
X33013Y-19424D01*
X32925Y-19635D01*
X32925Y-19864D01*
X33012Y-20075D01*
X33174Y-20237D01*
X33204Y-20249D01*
X33175Y-20262D01*
X33013Y-20424D01*
X32925Y-20635D01*
X32925Y-20864D01*
X33012Y-21075D01*
X33174Y-21237D01*
X33204Y-21249D01*
X33175Y-21262D01*
X33013Y-21424D01*
X32925Y-21635D01*
X32925Y-21864D01*
X33012Y-22075D01*
X33174Y-22237D01*
X33204Y-22249D01*
X33175Y-22262D01*
X33013Y-22424D01*
X32925Y-22635D01*
X32925Y-22864D01*
X33012Y-23075D01*
X33174Y-23237D01*
X33204Y-23249D01*
X33175Y-23262D01*
X33013Y-23424D01*
X32925Y-23635D01*
X32925Y-23864D01*
X33012Y-24075D01*
X33174Y-24237D01*
X33204Y-24249D01*
X33175Y-24262D01*
X33013Y-24424D01*
X32925Y-24635D01*
X32925Y-24864D01*
X33012Y-25075D01*
X33174Y-25237D01*
X33204Y-25249D01*
X33175Y-25262D01*
X33013Y-25424D01*
X32925Y-25635D01*
X32925Y-25864D01*
X33012Y-26075D01*
X33174Y-26237D01*
X33204Y-26249D01*
X33175Y-26262D01*
X33013Y-26424D01*
X32925Y-26635D01*
X32925Y-26864D01*
X33012Y-27075D01*
X33174Y-27237D01*
X33204Y-27249D01*
X33175Y-27262D01*
X33013Y-27424D01*
X32925Y-27635D01*
X32925Y-27864D01*
X33012Y-28075D01*
X33174Y-28237D01*
X33204Y-28249D01*
X33175Y-28262D01*
X33013Y-28424D01*
X32925Y-28635D01*
X32925Y-28864D01*
X33012Y-29075D01*
X33174Y-29237D01*
X33204Y-29249D01*
X33175Y-29262D01*
X33013Y-29424D01*
X32925Y-29635D01*
X32925Y-29864D01*
X33012Y-30075D01*
X33174Y-30237D01*
X33204Y-30249D01*
X33175Y-30262D01*
X33013Y-30424D01*
X32925Y-30635D01*
X32925Y-30864D01*
X33012Y-31075D01*
X33174Y-31237D01*
X33204Y-31249D01*
X33175Y-31262D01*
X33013Y-31424D01*
X32925Y-31635D01*
X32925Y-31864D01*
X33012Y-32075D01*
X33174Y-32237D01*
X33204Y-32249D01*
X33175Y-32262D01*
X33013Y-32424D01*
X32925Y-32635D01*
X32925Y-32864D01*
X33012Y-33075D01*
X33174Y-33237D01*
X33214Y-33253D01*
X33204Y-33258D01*
X33175Y-33354D01*
X33500Y-33679D01*
X33825Y-33354D01*
X33796Y-33258D01*
X33785Y-33254D01*
X33825Y-33238D01*
X33987Y-33076D01*
X33999Y-33045D01*
X34012Y-33075D01*
X34174Y-33237D01*
X34204Y-33249D01*
X34175Y-33262D01*
X34013Y-33424D01*
X33996Y-33464D01*
X33992Y-33454D01*
X33896Y-33425D01*
X33571Y-33750D01*
X33896Y-34075D01*
X33992Y-34046D01*
X33995Y-34035D01*
X34012Y-34075D01*
X34174Y-34237D01*
X34385Y-34325D01*
X34614Y-34325D01*
X34825Y-34238D01*
X34987Y-34076D01*
X35075Y-33865D01*
X35075Y-35675D01*
X33825Y-35675D01*
X33825Y-34146D01*
X33500Y-33821D01*
X33429Y-33892D01*
X33429Y-33750D01*
X33104Y-33425D01*
X33008Y-33454D01*
X32932Y-33666D01*
X32944Y-33889D01*
X33008Y-34046D01*
X33104Y-34075D01*
X33429Y-33750D01*
X33429Y-33892D01*
X33175Y-34146D01*
X33204Y-34242D01*
X33416Y-34318D01*
X33639Y-34306D01*
X33796Y-34242D01*
X33825Y-34146D01*
X33825Y-35675D01*
X32725Y-35675D01*
X32725Y-10365D01*
X32725Y-10136D01*
X32638Y-09925D01*
X32476Y-09763D01*
X32265Y-09675D01*
X32036Y-09675D01*
X31825Y-09762D01*
X31663Y-09924D01*
X31652Y-09950D01*
X25100Y-09950D01*
X24985Y-09973D01*
X24888Y-10038D01*
X23374Y-11552D01*
X23374Y-11275D01*
X23374Y-11176D01*
X23374Y-10626D01*
X23369Y-10613D01*
X23369Y-10024D01*
X23358Y-09820D01*
X23302Y-09683D01*
X23211Y-09660D01*
X23140Y-09731D01*
X23140Y-09589D01*
X23117Y-09498D01*
X22924Y-09431D01*
X22720Y-09442D01*
X22583Y-09498D01*
X22560Y-09589D01*
X22850Y-09879D01*
X23140Y-09589D01*
X23140Y-09731D01*
X22921Y-09950D01*
X23211Y-10240D01*
X23302Y-10217D01*
X23369Y-10024D01*
X23369Y-10613D01*
X23336Y-10534D01*
X23266Y-10464D01*
X23175Y-10426D01*
X23076Y-10426D01*
X23058Y-10426D01*
X23117Y-10402D01*
X23140Y-10311D01*
X22850Y-10021D01*
X22779Y-10092D01*
X22779Y-09950D01*
X22489Y-09660D01*
X22398Y-09683D01*
X22331Y-09876D01*
X22342Y-10080D01*
X22398Y-10217D01*
X22489Y-10240D01*
X22779Y-09950D01*
X22779Y-10092D01*
X22560Y-10311D01*
X22583Y-10402D01*
X22652Y-10426D01*
X22526Y-10426D01*
X22434Y-10464D01*
X22364Y-10534D01*
X22326Y-10625D01*
X22326Y-10724D01*
X22326Y-11274D01*
X22364Y-11366D01*
X22434Y-11436D01*
X22525Y-11474D01*
X22624Y-11474D01*
X23174Y-11474D01*
X23266Y-11436D01*
X23336Y-11366D01*
X23374Y-11275D01*
X23374Y-11552D01*
X20376Y-14550D01*
X17100Y-14550D01*
X16985Y-14573D01*
X16899Y-14630D01*
X16899Y-13609D01*
X16899Y-13391D01*
X16815Y-13189D01*
X16675Y-13049D01*
X16699Y-13049D01*
X16791Y-13011D01*
X16861Y-12941D01*
X16899Y-12850D01*
X16899Y-12751D01*
X16899Y-12151D01*
X16861Y-12059D01*
X16791Y-11989D01*
X16700Y-11951D01*
X16601Y-11951D01*
X16001Y-11951D01*
X15909Y-11989D01*
X15850Y-12048D01*
X15791Y-11989D01*
X15700Y-11951D01*
X15601Y-11951D01*
X15001Y-11951D01*
X14909Y-11989D01*
X14839Y-12059D01*
X14801Y-12150D01*
X14801Y-12249D01*
X14801Y-12849D01*
X14839Y-12941D01*
X14909Y-13011D01*
X15000Y-13049D01*
X15025Y-13049D01*
X14885Y-13189D01*
X14801Y-13391D01*
X14801Y-13609D01*
X14885Y-13811D01*
X15039Y-13965D01*
X15241Y-14049D01*
X15459Y-14049D01*
X15661Y-13965D01*
X15815Y-13811D01*
X15850Y-13726D01*
X15885Y-13811D01*
X16039Y-13965D01*
X16241Y-14049D01*
X16459Y-14049D01*
X16661Y-13965D01*
X16815Y-13811D01*
X16899Y-13609D01*
X16899Y-14630D01*
X16887Y-14638D01*
X14394Y-17131D01*
X14394Y-13745D01*
X14394Y-13646D01*
X14394Y-11756D01*
X14356Y-11664D01*
X14286Y-11594D01*
X14195Y-11556D01*
X14096Y-11556D01*
X12872Y-11556D01*
X12615Y-11556D01*
X12631Y-11540D01*
X12577Y-11486D01*
X12694Y-11410D01*
X12872Y-10980D01*
X12871Y-10514D01*
X12694Y-10090D01*
X12535Y-09986D01*
X12464Y-10057D01*
X12464Y-09915D01*
X12360Y-09756D01*
X11930Y-09578D01*
X11464Y-09579D01*
X11040Y-09756D01*
X10936Y-09915D01*
X11700Y-10679D01*
X12464Y-09915D01*
X12464Y-10057D01*
X11806Y-10715D01*
X11771Y-10750D01*
X11700Y-10821D01*
X11629Y-10750D01*
X11594Y-10715D01*
X10865Y-09986D01*
X10706Y-10090D01*
X10528Y-10520D01*
X10529Y-10986D01*
X10706Y-11410D01*
X10822Y-11486D01*
X10769Y-11540D01*
X10807Y-11578D01*
X10564Y-11579D01*
X10140Y-11756D01*
X10036Y-11915D01*
X10765Y-12644D01*
X10800Y-12679D01*
X10871Y-12750D01*
X10906Y-12785D01*
X11635Y-13514D01*
X11794Y-13410D01*
X11972Y-12980D01*
X11971Y-12514D01*
X11794Y-12090D01*
X11677Y-12013D01*
X11731Y-11960D01*
X11692Y-11921D01*
X11936Y-11921D01*
X12006Y-11891D01*
X12006Y-13744D01*
X12044Y-13836D01*
X12114Y-13906D01*
X12205Y-13944D01*
X12304Y-13944D01*
X14194Y-13944D01*
X14286Y-13906D01*
X14356Y-13836D01*
X14394Y-13745D01*
X14394Y-17131D01*
X12838Y-18688D01*
X12773Y-18785D01*
X12750Y-18900D01*
X12750Y-20551D01*
X12725Y-20562D01*
X12563Y-20724D01*
X12475Y-20935D01*
X12475Y-21164D01*
X12562Y-21375D01*
X12724Y-21537D01*
X12748Y-21547D01*
X12739Y-21551D01*
X12585Y-21705D01*
X12501Y-21907D01*
X12501Y-22125D01*
X12585Y-22327D01*
X12739Y-22481D01*
X12941Y-22565D01*
X13159Y-22565D01*
X13361Y-22481D01*
X13515Y-22327D01*
X13599Y-22125D01*
X13599Y-21907D01*
X13515Y-21705D01*
X13361Y-21551D01*
X13352Y-21547D01*
X13375Y-21538D01*
X13537Y-21376D01*
X13625Y-21165D01*
X13625Y-20936D01*
X13538Y-20725D01*
X13376Y-20563D01*
X13350Y-20552D01*
X13350Y-19024D01*
X17224Y-15150D01*
X20500Y-15150D01*
X20615Y-15127D01*
X20712Y-15062D01*
X25224Y-10550D01*
X31651Y-10550D01*
X31662Y-10575D01*
X31824Y-10737D01*
X32035Y-10825D01*
X32264Y-10825D01*
X32475Y-10738D01*
X32637Y-10576D01*
X32725Y-10365D01*
X32725Y-35675D01*
X26450Y-35675D01*
X26450Y-24312D01*
X26450Y-24088D01*
X26449Y-23851D01*
X26411Y-23759D01*
X26341Y-23689D01*
X26250Y-23651D01*
X26151Y-23651D01*
X26012Y-23650D01*
X25950Y-23712D01*
X25950Y-24150D01*
X26388Y-24150D01*
X26450Y-24088D01*
X26450Y-24312D01*
X26388Y-24250D01*
X26000Y-24250D01*
X25950Y-24250D01*
X25850Y-24250D01*
X25850Y-24150D01*
X25850Y-23712D01*
X25788Y-23650D01*
X25649Y-23651D01*
X25550Y-23651D01*
X25459Y-23689D01*
X25389Y-23759D01*
X25351Y-23851D01*
X25350Y-24088D01*
X25412Y-24150D01*
X25850Y-24150D01*
X25850Y-24250D01*
X25800Y-24250D01*
X25412Y-24250D01*
X25350Y-24312D01*
X25351Y-24549D01*
X25389Y-24641D01*
X25459Y-24711D01*
X25550Y-24749D01*
X25575Y-24749D01*
X25435Y-24889D01*
X25351Y-25091D01*
X25351Y-25309D01*
X25435Y-25511D01*
X25589Y-25665D01*
X25791Y-25749D01*
X26009Y-25749D01*
X26211Y-25665D01*
X26365Y-25511D01*
X26449Y-25309D01*
X26449Y-25091D01*
X26365Y-24889D01*
X26225Y-24749D01*
X26250Y-24749D01*
X26341Y-24711D01*
X26411Y-24641D01*
X26449Y-24549D01*
X26450Y-24312D01*
X26450Y-35675D01*
X21025Y-35675D01*
X21025Y-28755D01*
X21025Y-28546D01*
X20945Y-28353D01*
X20798Y-28205D01*
X20605Y-28125D01*
X20396Y-28125D01*
X20203Y-28205D01*
X20055Y-28352D01*
X19975Y-28545D01*
X19975Y-28754D01*
X20055Y-28947D01*
X20202Y-29095D01*
X20276Y-29126D01*
X20176Y-29126D01*
X20084Y-29164D01*
X20014Y-29234D01*
X19976Y-29325D01*
X19976Y-29424D01*
X19976Y-29974D01*
X20014Y-30066D01*
X20084Y-30136D01*
X20175Y-30174D01*
X20274Y-30174D01*
X20824Y-30174D01*
X20916Y-30136D01*
X20986Y-30066D01*
X21024Y-29975D01*
X21024Y-29876D01*
X21024Y-29326D01*
X20986Y-29234D01*
X20916Y-29164D01*
X20825Y-29126D01*
X20726Y-29126D01*
X20722Y-29126D01*
X20797Y-29095D01*
X20945Y-28948D01*
X21025Y-28755D01*
X21025Y-35675D01*
X19425Y-35675D01*
X19425Y-30715D01*
X19425Y-30486D01*
X19338Y-30275D01*
X19176Y-30113D01*
X18965Y-30025D01*
X18841Y-30025D01*
X18380Y-29564D01*
X18380Y-25656D01*
X18380Y-25445D01*
X18299Y-25250D01*
X18151Y-25101D01*
X17956Y-25020D01*
X17745Y-25020D01*
X17550Y-25101D01*
X17401Y-25249D01*
X17320Y-25444D01*
X17320Y-25655D01*
X17401Y-25850D01*
X17549Y-25999D01*
X17744Y-26080D01*
X17955Y-26080D01*
X18150Y-25999D01*
X18299Y-25851D01*
X18380Y-25656D01*
X18380Y-29564D01*
X16749Y-27933D01*
X16749Y-21459D01*
X16749Y-21241D01*
X16665Y-21039D01*
X16511Y-20885D01*
X16426Y-20850D01*
X16511Y-20815D01*
X16665Y-20661D01*
X16749Y-20459D01*
X16749Y-20241D01*
X16665Y-20039D01*
X16511Y-19885D01*
X16426Y-19850D01*
X16511Y-19815D01*
X16665Y-19661D01*
X16749Y-19459D01*
X16749Y-19241D01*
X16665Y-19039D01*
X16525Y-18899D01*
X16549Y-18899D01*
X16641Y-18861D01*
X16711Y-18791D01*
X16749Y-18700D01*
X16749Y-18601D01*
X16749Y-18001D01*
X16711Y-17909D01*
X16641Y-17839D01*
X16550Y-17801D01*
X16451Y-17801D01*
X15851Y-17801D01*
X15759Y-17839D01*
X15689Y-17909D01*
X15651Y-18000D01*
X15651Y-18062D01*
X15578Y-18042D01*
X15508Y-18112D01*
X15508Y-17972D01*
X15481Y-17878D01*
X15279Y-17807D01*
X15066Y-17818D01*
X14919Y-17878D01*
X14892Y-17972D01*
X15200Y-18279D01*
X15508Y-17972D01*
X15508Y-18112D01*
X15271Y-18350D01*
X15578Y-18658D01*
X15651Y-18637D01*
X15651Y-18699D01*
X15689Y-18791D01*
X15759Y-18861D01*
X15850Y-18899D01*
X15875Y-18899D01*
X15735Y-19039D01*
X15700Y-19123D01*
X15665Y-19039D01*
X15511Y-18885D01*
X15419Y-18847D01*
X15481Y-18822D01*
X15508Y-18728D01*
X15200Y-18421D01*
X15129Y-18491D01*
X15129Y-18350D01*
X14822Y-18042D01*
X14728Y-18069D01*
X14657Y-18271D01*
X14668Y-18484D01*
X14728Y-18631D01*
X14822Y-18658D01*
X15129Y-18350D01*
X15129Y-18491D01*
X14892Y-18728D01*
X14919Y-18822D01*
X14984Y-18845D01*
X14889Y-18885D01*
X14735Y-19039D01*
X14651Y-19241D01*
X14651Y-19459D01*
X14735Y-19661D01*
X14889Y-19815D01*
X14973Y-19850D01*
X14889Y-19885D01*
X14735Y-20039D01*
X14651Y-20241D01*
X14651Y-20459D01*
X14735Y-20661D01*
X14889Y-20815D01*
X14980Y-20852D01*
X14919Y-20878D01*
X14892Y-20972D01*
X15200Y-21279D01*
X15508Y-20972D01*
X15481Y-20878D01*
X15415Y-20854D01*
X15511Y-20815D01*
X15665Y-20661D01*
X15700Y-20576D01*
X15735Y-20661D01*
X15889Y-20815D01*
X15973Y-20850D01*
X15889Y-20885D01*
X15735Y-21039D01*
X15697Y-21130D01*
X15672Y-21069D01*
X15578Y-21042D01*
X15271Y-21350D01*
X15578Y-21658D01*
X15672Y-21631D01*
X15695Y-21565D01*
X15735Y-21661D01*
X15889Y-21815D01*
X16091Y-21899D01*
X16309Y-21899D01*
X16511Y-21815D01*
X16665Y-21661D01*
X16749Y-21459D01*
X16749Y-27933D01*
X16399Y-27583D01*
X16399Y-23649D01*
X16399Y-23451D01*
X16399Y-22649D01*
X16399Y-22451D01*
X16323Y-22268D01*
X16183Y-22127D01*
X15999Y-22051D01*
X15801Y-22051D01*
X15618Y-22127D01*
X15508Y-22236D01*
X15508Y-21728D01*
X15200Y-21421D01*
X15129Y-21491D01*
X15129Y-21350D01*
X14822Y-21042D01*
X14728Y-21069D01*
X14657Y-21271D01*
X14668Y-21484D01*
X14728Y-21631D01*
X14822Y-21658D01*
X15129Y-21350D01*
X15129Y-21491D01*
X14892Y-21728D01*
X14919Y-21822D01*
X15121Y-21893D01*
X15334Y-21882D01*
X15481Y-21822D01*
X15508Y-21728D01*
X15508Y-22236D01*
X15477Y-22267D01*
X15401Y-22451D01*
X15401Y-22649D01*
X15477Y-22832D01*
X15617Y-22973D01*
X15801Y-23049D01*
X15999Y-23049D01*
X16182Y-22973D01*
X16323Y-22833D01*
X16399Y-22649D01*
X16399Y-23451D01*
X16323Y-23268D01*
X16183Y-23127D01*
X15999Y-23051D01*
X15801Y-23051D01*
X15618Y-23127D01*
X15477Y-23267D01*
X15401Y-23451D01*
X15401Y-23649D01*
X15477Y-23832D01*
X15617Y-23973D01*
X15801Y-24049D01*
X15999Y-24049D01*
X16182Y-23973D01*
X16323Y-23833D01*
X16399Y-23649D01*
X16399Y-27583D01*
X16380Y-27564D01*
X16380Y-25656D01*
X16380Y-25445D01*
X16299Y-25250D01*
X16151Y-25101D01*
X15956Y-25020D01*
X15745Y-25020D01*
X15550Y-25101D01*
X15401Y-25249D01*
X15320Y-25444D01*
X15320Y-25655D01*
X15401Y-25850D01*
X15549Y-25999D01*
X15744Y-26080D01*
X15955Y-26080D01*
X16150Y-25999D01*
X16299Y-25851D01*
X16380Y-25656D01*
X16380Y-27564D01*
X14338Y-25522D01*
X14425Y-25315D01*
X14425Y-25086D01*
X14338Y-24875D01*
X14176Y-24713D01*
X13965Y-24625D01*
X13736Y-24625D01*
X13593Y-24683D01*
X13593Y-24063D01*
X13582Y-23850D01*
X13522Y-23703D01*
X13428Y-23676D01*
X13358Y-23746D01*
X13358Y-23606D01*
X13331Y-23512D01*
X13129Y-23441D01*
X12916Y-23452D01*
X12769Y-23512D01*
X12742Y-23606D01*
X13050Y-23913D01*
X13358Y-23606D01*
X13358Y-23746D01*
X13121Y-23984D01*
X13428Y-24292D01*
X13522Y-24265D01*
X13593Y-24063D01*
X13593Y-24683D01*
X13525Y-24712D01*
X13363Y-24874D01*
X13358Y-24885D01*
X13358Y-24362D01*
X13050Y-24055D01*
X12979Y-24125D01*
X12979Y-23984D01*
X12672Y-23676D01*
X12578Y-23703D01*
X12507Y-23905D01*
X12518Y-24118D01*
X12578Y-24265D01*
X12672Y-24292D01*
X12979Y-23984D01*
X12979Y-24125D01*
X12742Y-24362D01*
X12769Y-24456D01*
X12971Y-24527D01*
X13184Y-24516D01*
X13331Y-24456D01*
X13358Y-24362D01*
X13358Y-24885D01*
X13275Y-25085D01*
X13275Y-25314D01*
X13362Y-25525D01*
X13453Y-25616D01*
X13480Y-25753D01*
X13567Y-25883D01*
X18275Y-30591D01*
X18275Y-30714D01*
X18362Y-30925D01*
X18524Y-31087D01*
X18735Y-31175D01*
X18964Y-31175D01*
X19175Y-31088D01*
X19337Y-30926D01*
X19425Y-30715D01*
X19425Y-35675D01*
X16474Y-35675D01*
X16625Y-35613D01*
X16861Y-35377D01*
X16990Y-35068D01*
X16990Y-34734D01*
X16863Y-34425D01*
X16627Y-34189D01*
X16318Y-34060D01*
X15984Y-34060D01*
X15675Y-34187D01*
X15439Y-34423D01*
X15310Y-34732D01*
X15310Y-35066D01*
X15437Y-35375D01*
X15673Y-35611D01*
X15826Y-35675D01*
X15294Y-35675D01*
X15294Y-33958D01*
X15294Y-33742D01*
X15211Y-33542D01*
X15058Y-33389D01*
X14858Y-33306D01*
X14642Y-33306D01*
X14442Y-33389D01*
X14399Y-33432D01*
X14399Y-30659D01*
X14399Y-30441D01*
X14315Y-30239D01*
X14161Y-30085D01*
X14076Y-30050D01*
X14161Y-30015D01*
X14315Y-29861D01*
X14399Y-29659D01*
X14399Y-29441D01*
X14315Y-29239D01*
X14161Y-29085D01*
X13959Y-29001D01*
X13741Y-29001D01*
X13539Y-29085D01*
X13385Y-29239D01*
X13371Y-29271D01*
X13371Y-29172D01*
X13344Y-29078D01*
X13142Y-29007D01*
X12929Y-29018D01*
X12782Y-29078D01*
X12781Y-29081D01*
X12781Y-27844D01*
X12781Y-27533D01*
X12662Y-27246D01*
X12443Y-27026D01*
X12156Y-26907D01*
X11972Y-26907D01*
X11845Y-26907D01*
X11564Y-27023D01*
X11564Y-13585D01*
X10800Y-12821D01*
X10729Y-12892D01*
X10729Y-12750D01*
X09965Y-11986D01*
X09806Y-12090D01*
X09628Y-12520D01*
X09629Y-12986D01*
X09806Y-13410D01*
X09965Y-13514D01*
X10729Y-12750D01*
X10729Y-12892D01*
X10036Y-13585D01*
X10140Y-13744D01*
X10570Y-13922D01*
X11036Y-13921D01*
X11460Y-13744D01*
X11564Y-13585D01*
X11564Y-27023D01*
X11558Y-27026D01*
X11338Y-27245D01*
X11219Y-27532D01*
X11219Y-27843D01*
X11338Y-28130D01*
X11557Y-28350D01*
X11844Y-28469D01*
X12155Y-28469D01*
X12442Y-28350D01*
X12662Y-28131D01*
X12781Y-27844D01*
X12781Y-29081D01*
X12755Y-29172D01*
X13063Y-29479D01*
X13371Y-29172D01*
X13371Y-29271D01*
X13342Y-29340D01*
X13134Y-29550D01*
X13342Y-29759D01*
X13385Y-29861D01*
X13539Y-30015D01*
X13623Y-30050D01*
X13539Y-30085D01*
X13456Y-30167D01*
X13374Y-30085D01*
X13282Y-30047D01*
X13344Y-30022D01*
X13371Y-29928D01*
X13063Y-29621D01*
X12992Y-29691D01*
X12992Y-29550D01*
X12685Y-29242D01*
X12591Y-29269D01*
X12520Y-29471D01*
X12531Y-29684D01*
X12591Y-29831D01*
X12685Y-29858D01*
X12992Y-29550D01*
X12992Y-29691D01*
X12755Y-29928D01*
X12782Y-30022D01*
X12847Y-30045D01*
X12752Y-30085D01*
X12598Y-30239D01*
X12514Y-30441D01*
X12514Y-30659D01*
X12598Y-30861D01*
X12752Y-31015D01*
X12954Y-31099D01*
X13172Y-31099D01*
X13374Y-31015D01*
X13456Y-30932D01*
X13539Y-31015D01*
X13741Y-31099D01*
X13959Y-31099D01*
X14161Y-31015D01*
X14315Y-30861D01*
X14399Y-30659D01*
X14399Y-33432D01*
X14289Y-33542D01*
X14250Y-33635D01*
X14211Y-33542D01*
X14058Y-33389D01*
X13858Y-33306D01*
X13642Y-33306D01*
X13442Y-33389D01*
X13350Y-33481D01*
X13258Y-33389D01*
X13058Y-33306D01*
X12842Y-33306D01*
X12781Y-33331D01*
X12781Y-32568D01*
X12781Y-32257D01*
X12662Y-31970D01*
X12443Y-31750D01*
X12156Y-31631D01*
X11845Y-31631D01*
X11558Y-31750D01*
X11338Y-31969D01*
X11219Y-32256D01*
X11219Y-32567D01*
X11338Y-32854D01*
X11557Y-33074D01*
X11844Y-33193D01*
X12155Y-33193D01*
X12442Y-33074D01*
X12662Y-32855D01*
X12781Y-32568D01*
X12781Y-33331D01*
X12642Y-33389D01*
X12489Y-33542D01*
X12447Y-33642D01*
X12418Y-33571D01*
X12325Y-33546D01*
X12254Y-33617D01*
X12254Y-33475D01*
X12229Y-33382D01*
X12028Y-33310D01*
X11816Y-33322D01*
X11671Y-33382D01*
X11646Y-33475D01*
X11950Y-33779D01*
X12254Y-33475D01*
X12254Y-33617D01*
X12021Y-33850D01*
X12325Y-34154D01*
X12418Y-34129D01*
X12445Y-34052D01*
X12489Y-34158D01*
X12642Y-34311D01*
X12842Y-34394D01*
X13058Y-34394D01*
X13258Y-34311D01*
X13350Y-34219D01*
X13442Y-34311D01*
X13642Y-34394D01*
X13858Y-34394D01*
X14058Y-34311D01*
X14211Y-34158D01*
X14250Y-34064D01*
X14289Y-34158D01*
X14442Y-34311D01*
X14642Y-34394D01*
X14858Y-34394D01*
X15058Y-34311D01*
X15211Y-34158D01*
X15294Y-33958D01*
X15294Y-35675D01*
X12254Y-35675D01*
X12254Y-34225D01*
X11950Y-33921D01*
X11879Y-33992D01*
X11879Y-33850D01*
X11575Y-33546D01*
X11482Y-33571D01*
X11410Y-33772D01*
X11422Y-33984D01*
X11482Y-34129D01*
X11575Y-34154D01*
X11879Y-33850D01*
X11879Y-33992D01*
X11646Y-34225D01*
X11671Y-34318D01*
X11872Y-34390D01*
X12084Y-34378D01*
X12229Y-34318D01*
X12254Y-34225D01*
X12254Y-35675D01*
X11074Y-35675D01*
X11225Y-35613D01*
X11461Y-35377D01*
X11590Y-35068D01*
X11590Y-34734D01*
X11463Y-34425D01*
X11227Y-34189D01*
X10918Y-34060D01*
X10584Y-34060D01*
X10275Y-34187D01*
X10039Y-34423D01*
X09910Y-34732D01*
X09910Y-35066D01*
X10037Y-35375D01*
X10273Y-35611D01*
X10426Y-35675D01*
X09525Y-35675D01*
X09525Y-09350D01*
X09525Y-09300D01*
X09525Y-09075D01*
X35475Y-09075D01*
X35475Y-35675D01*
X35475Y-35675D01*
G37*
G54D24*
X35475Y-35675D02*
X35075Y-35675D01*
X35075Y-33865D01*
X35075Y-33636D01*
X34988Y-33425D01*
X34826Y-33263D01*
X34795Y-33250D01*
X34825Y-33238D01*
X34987Y-33076D01*
X35075Y-32865D01*
X35075Y-32636D01*
X34988Y-32425D01*
X34826Y-32263D01*
X34795Y-32250D01*
X34825Y-32238D01*
X34987Y-32076D01*
X35075Y-31865D01*
X35075Y-31636D01*
X34988Y-31425D01*
X34826Y-31263D01*
X34795Y-31250D01*
X34825Y-31238D01*
X34987Y-31076D01*
X35075Y-30865D01*
X35075Y-30636D01*
X34988Y-30425D01*
X34826Y-30263D01*
X34795Y-30250D01*
X34825Y-30238D01*
X34987Y-30076D01*
X35075Y-29865D01*
X35075Y-29636D01*
X34988Y-29425D01*
X34826Y-29263D01*
X34795Y-29250D01*
X34825Y-29238D01*
X34987Y-29076D01*
X35075Y-28865D01*
X35075Y-28636D01*
X34988Y-28425D01*
X34826Y-28263D01*
X34795Y-28250D01*
X34825Y-28238D01*
X34987Y-28076D01*
X35075Y-27865D01*
X35075Y-27636D01*
X34988Y-27425D01*
X34826Y-27263D01*
X34795Y-27250D01*
X34825Y-27238D01*
X34987Y-27076D01*
X35075Y-26865D01*
X35075Y-26636D01*
X34988Y-26425D01*
X34826Y-26263D01*
X34795Y-26250D01*
X34825Y-26238D01*
X34987Y-26076D01*
X35075Y-25865D01*
X35075Y-25636D01*
X34988Y-25425D01*
X34826Y-25263D01*
X34795Y-25250D01*
X34825Y-25238D01*
X34987Y-25076D01*
X35075Y-24865D01*
X35075Y-24636D01*
X34988Y-24425D01*
X34826Y-24263D01*
X34795Y-24250D01*
X34825Y-24238D01*
X34987Y-24076D01*
X35075Y-23865D01*
X35075Y-23636D01*
X34988Y-23425D01*
X34826Y-23263D01*
X34795Y-23250D01*
X34825Y-23238D01*
X34987Y-23076D01*
X35075Y-22865D01*
X35075Y-22636D01*
X34988Y-22425D01*
X34826Y-22263D01*
X34795Y-22250D01*
X34825Y-22238D01*
X34987Y-22076D01*
X35075Y-21865D01*
X35075Y-21636D01*
X34988Y-21425D01*
X34826Y-21263D01*
X34795Y-21250D01*
X34825Y-21238D01*
X34987Y-21076D01*
X35075Y-20865D01*
X35075Y-20636D01*
X34988Y-20425D01*
X34826Y-20263D01*
X34795Y-20250D01*
X34825Y-20238D01*
X34987Y-20076D01*
X35075Y-19865D01*
X35075Y-19636D01*
X34988Y-19425D01*
X34826Y-19263D01*
X34795Y-19250D01*
X34825Y-19238D01*
X34987Y-19076D01*
X35075Y-18865D01*
X35075Y-18636D01*
X34988Y-18425D01*
X34826Y-18263D01*
X34795Y-18250D01*
X34825Y-18238D01*
X34987Y-18076D01*
X35075Y-17865D01*
X35075Y-17636D01*
X34988Y-17425D01*
X34826Y-17263D01*
X34795Y-17250D01*
X34825Y-17238D01*
X34987Y-17076D01*
X35075Y-16865D01*
X35075Y-16636D01*
X34988Y-16425D01*
X34826Y-16263D01*
X34795Y-16250D01*
X34825Y-16238D01*
X34987Y-16076D01*
X35075Y-15865D01*
X35075Y-15636D01*
X34988Y-15425D01*
X34826Y-15263D01*
X34795Y-15250D01*
X34825Y-15238D01*
X34987Y-15076D01*
X35075Y-14865D01*
X35075Y-14636D01*
X34988Y-14425D01*
X34826Y-14263D01*
X34795Y-14250D01*
X34825Y-14238D01*
X34987Y-14076D01*
X35075Y-13865D01*
X35075Y-13636D01*
X34988Y-13425D01*
X34826Y-13263D01*
X34795Y-13250D01*
X34825Y-13238D01*
X34987Y-13076D01*
X35075Y-12865D01*
X35075Y-12636D01*
X34988Y-12425D01*
X34826Y-12263D01*
X34795Y-12250D01*
X34825Y-12238D01*
X34987Y-12076D01*
X35075Y-11865D01*
X35075Y-11636D01*
X34988Y-11425D01*
X34826Y-11263D01*
X34795Y-11250D01*
X34825Y-11238D01*
X34987Y-11076D01*
X35075Y-10865D01*
X35075Y-10636D01*
X35068Y-10619D01*
X35068Y-09834D01*
X35056Y-09611D01*
X34992Y-09454D01*
X34896Y-09425D01*
X34825Y-09496D01*
X34825Y-09354D01*
X34796Y-09258D01*
X34584Y-09182D01*
X34361Y-09194D01*
X34204Y-09258D01*
X34175Y-09354D01*
X34500Y-09679D01*
X34825Y-09354D01*
X34825Y-09496D01*
X34571Y-09750D01*
X34896Y-10075D01*
X34992Y-10046D01*
X35068Y-09834D01*
X35068Y-10619D01*
X34988Y-10425D01*
X34826Y-10263D01*
X34785Y-10246D01*
X34796Y-10242D01*
X34825Y-10146D01*
X34500Y-09821D01*
X34175Y-10146D01*
X34204Y-10242D01*
X34214Y-10245D01*
X34175Y-10262D01*
X34013Y-10424D01*
X34000Y-10454D01*
X33988Y-10425D01*
X33826Y-10263D01*
X33795Y-10250D01*
X33825Y-10238D01*
X33987Y-10076D01*
X34003Y-10035D01*
X34008Y-10046D01*
X34104Y-10075D01*
X34429Y-09750D01*
X34104Y-09425D01*
X34008Y-09454D01*
X34004Y-09464D01*
X33988Y-09425D01*
X33826Y-09263D01*
X33615Y-09175D01*
X33386Y-09175D01*
X33175Y-09262D01*
X33013Y-09424D01*
X32925Y-09635D01*
X32925Y-09864D01*
X33012Y-10075D01*
X33174Y-10237D01*
X33204Y-10249D01*
X33175Y-10262D01*
X33013Y-10424D01*
X32925Y-10635D01*
X32925Y-10864D01*
X33012Y-11075D01*
X33174Y-11237D01*
X33204Y-11249D01*
X33175Y-11262D01*
X33013Y-11424D01*
X32925Y-11635D01*
X32925Y-11864D01*
X33012Y-12075D01*
X33174Y-12237D01*
X33204Y-12249D01*
X33175Y-12262D01*
X33013Y-12424D01*
X32925Y-12635D01*
X32925Y-12864D01*
X33012Y-13075D01*
X33174Y-13237D01*
X33204Y-13249D01*
X33175Y-13262D01*
X33013Y-13424D01*
X32925Y-13635D01*
X32925Y-13864D01*
X33012Y-14075D01*
X33174Y-14237D01*
X33204Y-14249D01*
X33175Y-14262D01*
X33013Y-14424D01*
X32925Y-14635D01*
X32925Y-14864D01*
X33012Y-15075D01*
X33174Y-15237D01*
X33204Y-15249D01*
X33175Y-15262D01*
X33013Y-15424D01*
X32925Y-15635D01*
X32925Y-15864D01*
X33012Y-16075D01*
X33174Y-16237D01*
X33204Y-16249D01*
X33175Y-16262D01*
X33013Y-16424D01*
X32925Y-16635D01*
X32925Y-16864D01*
X33012Y-17075D01*
X33174Y-17237D01*
X33204Y-17249D01*
X33175Y-17262D01*
X33013Y-17424D01*
X32925Y-17635D01*
X32925Y-17864D01*
X33012Y-18075D01*
X33174Y-18237D01*
X33204Y-18249D01*
X33175Y-18262D01*
X33013Y-18424D01*
X32925Y-18635D01*
X32925Y-18864D01*
X33012Y-19075D01*
X33174Y-19237D01*
X33204Y-19249D01*
X33175Y-19262D01*
X33013Y-19424D01*
X32925Y-19635D01*
X32925Y-19864D01*
X33012Y-20075D01*
X33174Y-20237D01*
X33204Y-20249D01*
X33175Y-20262D01*
X33013Y-20424D01*
X32925Y-20635D01*
X32925Y-20864D01*
X33012Y-21075D01*
X33174Y-21237D01*
X33204Y-21249D01*
X33175Y-21262D01*
X33013Y-21424D01*
X32925Y-21635D01*
X32925Y-21864D01*
X33012Y-22075D01*
X33174Y-22237D01*
X33204Y-22249D01*
X33175Y-22262D01*
X33013Y-22424D01*
X32925Y-22635D01*
X32925Y-22864D01*
X33012Y-23075D01*
X33174Y-23237D01*
X33204Y-23249D01*
X33175Y-23262D01*
X33013Y-23424D01*
X32925Y-23635D01*
X32925Y-23864D01*
X33012Y-24075D01*
X33174Y-24237D01*
X33204Y-24249D01*
X33175Y-24262D01*
X33013Y-24424D01*
X32925Y-24635D01*
X32925Y-24864D01*
X33012Y-25075D01*
X33174Y-25237D01*
X33204Y-25249D01*
X33175Y-25262D01*
X33013Y-25424D01*
X32925Y-25635D01*
X32925Y-25864D01*
X33012Y-26075D01*
X33174Y-26237D01*
X33204Y-26249D01*
X33175Y-26262D01*
X33013Y-26424D01*
X32925Y-26635D01*
X32925Y-26864D01*
X33012Y-27075D01*
X33174Y-27237D01*
X33204Y-27249D01*
X33175Y-27262D01*
X33013Y-27424D01*
X32925Y-27635D01*
X32925Y-27864D01*
X33012Y-28075D01*
X33174Y-28237D01*
X33204Y-28249D01*
X33175Y-28262D01*
X33013Y-28424D01*
X32925Y-28635D01*
X32925Y-28864D01*
X33012Y-29075D01*
X33174Y-29237D01*
X33204Y-29249D01*
X33175Y-29262D01*
X33013Y-29424D01*
X32925Y-29635D01*
X32925Y-29864D01*
X33012Y-30075D01*
X33174Y-30237D01*
X33204Y-30249D01*
X33175Y-30262D01*
X33013Y-30424D01*
X32925Y-30635D01*
X32925Y-30864D01*
X33012Y-31075D01*
X33174Y-31237D01*
X33204Y-31249D01*
X33175Y-31262D01*
X33013Y-31424D01*
X32925Y-31635D01*
X32925Y-31864D01*
X33012Y-32075D01*
X33174Y-32237D01*
X33204Y-32249D01*
X33175Y-32262D01*
X33013Y-32424D01*
X32925Y-32635D01*
X32925Y-32864D01*
X33012Y-33075D01*
X33174Y-33237D01*
X33214Y-33253D01*
X33204Y-33258D01*
X33175Y-33354D01*
X33500Y-33679D01*
X33825Y-33354D01*
X33796Y-33258D01*
X33785Y-33254D01*
X33825Y-33238D01*
X33987Y-33076D01*
X33999Y-33045D01*
X34012Y-33075D01*
X34174Y-33237D01*
X34204Y-33249D01*
X34175Y-33262D01*
X34013Y-33424D01*
X33996Y-33464D01*
X33992Y-33454D01*
X33896Y-33425D01*
X33571Y-33750D01*
X33896Y-34075D01*
X33992Y-34046D01*
X33995Y-34035D01*
X34012Y-34075D01*
X34174Y-34237D01*
X34385Y-34325D01*
X34614Y-34325D01*
X34825Y-34238D01*
X34987Y-34076D01*
X35075Y-33865D01*
X35075Y-35675D01*
X33825Y-35675D01*
X33825Y-34146D01*
X33500Y-33821D01*
X33429Y-33892D01*
X33429Y-33750D01*
X33104Y-33425D01*
X33008Y-33454D01*
X32932Y-33666D01*
X32944Y-33889D01*
X33008Y-34046D01*
X33104Y-34075D01*
X33429Y-33750D01*
X33429Y-33892D01*
X33175Y-34146D01*
X33204Y-34242D01*
X33416Y-34318D01*
X33639Y-34306D01*
X33796Y-34242D01*
X33825Y-34146D01*
X33825Y-35675D01*
X32725Y-35675D01*
X32725Y-10365D01*
X32725Y-10136D01*
X32638Y-09925D01*
X32476Y-09763D01*
X32265Y-09675D01*
X32036Y-09675D01*
X31825Y-09762D01*
X31663Y-09924D01*
X31652Y-09950D01*
X25100Y-09950D01*
X24985Y-09973D01*
X24888Y-10038D01*
X23374Y-11552D01*
X23374Y-11275D01*
X23374Y-11176D01*
X23374Y-10626D01*
X23369Y-10613D01*
X23369Y-10024D01*
X23358Y-09820D01*
X23302Y-09683D01*
X23211Y-09660D01*
X23140Y-09731D01*
X23140Y-09589D01*
X23117Y-09498D01*
X22924Y-09431D01*
X22720Y-09442D01*
X22583Y-09498D01*
X22560Y-09589D01*
X22850Y-09879D01*
X23140Y-09589D01*
X23140Y-09731D01*
X22921Y-09950D01*
X23211Y-10240D01*
X23302Y-10217D01*
X23369Y-10024D01*
X23369Y-10613D01*
X23336Y-10534D01*
X23266Y-10464D01*
X23175Y-10426D01*
X23076Y-10426D01*
X23058Y-10426D01*
X23117Y-10402D01*
X23140Y-10311D01*
X22850Y-10021D01*
X22779Y-10092D01*
X22779Y-09950D01*
X22489Y-09660D01*
X22398Y-09683D01*
X22331Y-09876D01*
X22342Y-10080D01*
X22398Y-10217D01*
X22489Y-10240D01*
X22779Y-09950D01*
X22779Y-10092D01*
X22560Y-10311D01*
X22583Y-10402D01*
X22652Y-10426D01*
X22526Y-10426D01*
X22434Y-10464D01*
X22364Y-10534D01*
X22326Y-10625D01*
X22326Y-10724D01*
X22326Y-11274D01*
X22364Y-11366D01*
X22434Y-11436D01*
X22525Y-11474D01*
X22624Y-11474D01*
X23174Y-11474D01*
X23266Y-11436D01*
X23336Y-11366D01*
X23374Y-11275D01*
X23374Y-11552D01*
X20376Y-14550D01*
X17100Y-14550D01*
X16985Y-14573D01*
X16899Y-14630D01*
X16899Y-13609D01*
X16899Y-13391D01*
X16815Y-13189D01*
X16675Y-13049D01*
X16699Y-13049D01*
X16791Y-13011D01*
X16861Y-12941D01*
X16899Y-12850D01*
X16899Y-12751D01*
X16899Y-12151D01*
X16861Y-12059D01*
X16791Y-11989D01*
X16700Y-11951D01*
X16601Y-11951D01*
X16001Y-11951D01*
X15909Y-11989D01*
X15850Y-12048D01*
X15791Y-11989D01*
X15700Y-11951D01*
X15601Y-11951D01*
X15001Y-11951D01*
X14909Y-11989D01*
X14839Y-12059D01*
X14801Y-12150D01*
X14801Y-12249D01*
X14801Y-12849D01*
X14839Y-12941D01*
X14909Y-13011D01*
X15000Y-13049D01*
X15025Y-13049D01*
X14885Y-13189D01*
X14801Y-13391D01*
X14801Y-13609D01*
X14885Y-13811D01*
X15039Y-13965D01*
X15241Y-14049D01*
X15459Y-14049D01*
X15661Y-13965D01*
X15815Y-13811D01*
X15850Y-13726D01*
X15885Y-13811D01*
X16039Y-13965D01*
X16241Y-14049D01*
X16459Y-14049D01*
X16661Y-13965D01*
X16815Y-13811D01*
X16899Y-13609D01*
X16899Y-14630D01*
X16887Y-14638D01*
X14394Y-17131D01*
X14394Y-13745D01*
X14394Y-13646D01*
X14394Y-11756D01*
X14356Y-11664D01*
X14286Y-11594D01*
X14195Y-11556D01*
X14096Y-11556D01*
X12872Y-11556D01*
X12615Y-11556D01*
X12631Y-11540D01*
X12577Y-11486D01*
X12694Y-11410D01*
X12872Y-10980D01*
X12871Y-10514D01*
X12694Y-10090D01*
X12535Y-09986D01*
X12464Y-10057D01*
X12464Y-09915D01*
X12360Y-09756D01*
X11930Y-09578D01*
X11464Y-09579D01*
X11040Y-09756D01*
X10936Y-09915D01*
X11700Y-10679D01*
X12464Y-09915D01*
X12464Y-10057D01*
X11806Y-10715D01*
X11771Y-10750D01*
X11700Y-10821D01*
X11629Y-10750D01*
X11594Y-10715D01*
X10865Y-09986D01*
X10706Y-10090D01*
X10528Y-10520D01*
X10529Y-10986D01*
X10706Y-11410D01*
X10822Y-11486D01*
X10769Y-11540D01*
X10807Y-11578D01*
X10564Y-11579D01*
X10140Y-11756D01*
X10036Y-11915D01*
X10765Y-12644D01*
X10800Y-12679D01*
X10871Y-12750D01*
X10906Y-12785D01*
X11635Y-13514D01*
X11794Y-13410D01*
X11972Y-12980D01*
X11971Y-12514D01*
X11794Y-12090D01*
X11677Y-12013D01*
X11731Y-11960D01*
X11692Y-11921D01*
X11936Y-11921D01*
X12006Y-11891D01*
X12006Y-13744D01*
X12044Y-13836D01*
X12114Y-13906D01*
X12205Y-13944D01*
X12304Y-13944D01*
X14194Y-13944D01*
X14286Y-13906D01*
X14356Y-13836D01*
X14394Y-13745D01*
X14394Y-17131D01*
X12838Y-18688D01*
X12773Y-18785D01*
X12750Y-18900D01*
X12750Y-20551D01*
X12725Y-20562D01*
X12563Y-20724D01*
X12475Y-20935D01*
X12475Y-21164D01*
X12562Y-21375D01*
X12724Y-21537D01*
X12748Y-21547D01*
X12739Y-21551D01*
X12585Y-21705D01*
X12501Y-21907D01*
X12501Y-22125D01*
X12585Y-22327D01*
X12739Y-22481D01*
X12941Y-22565D01*
X13159Y-22565D01*
X13361Y-22481D01*
X13515Y-22327D01*
X13599Y-22125D01*
X13599Y-21907D01*
X13515Y-21705D01*
X13361Y-21551D01*
X13352Y-21547D01*
X13375Y-21538D01*
X13537Y-21376D01*
X13625Y-21165D01*
X13625Y-20936D01*
X13538Y-20725D01*
X13376Y-20563D01*
X13350Y-20552D01*
X13350Y-19024D01*
X17224Y-15150D01*
X20500Y-15150D01*
X20615Y-15127D01*
X20712Y-15062D01*
X25224Y-10550D01*
X31651Y-10550D01*
X31662Y-10575D01*
X31824Y-10737D01*
X32035Y-10825D01*
X32264Y-10825D01*
X32475Y-10738D01*
X32637Y-10576D01*
X32725Y-10365D01*
X32725Y-35675D01*
X26450Y-35675D01*
X26450Y-24312D01*
X26450Y-24088D01*
X26449Y-23851D01*
X26411Y-23759D01*
X26341Y-23689D01*
X26250Y-23651D01*
X26151Y-23651D01*
X26012Y-23650D01*
X25950Y-23712D01*
X25950Y-24150D01*
X26388Y-24150D01*
X26450Y-24088D01*
X26450Y-24312D01*
X26388Y-24250D01*
X26000Y-24250D01*
X25950Y-24250D01*
X25850Y-24250D01*
X25850Y-24150D01*
X25850Y-23712D01*
X25788Y-23650D01*
X25649Y-23651D01*
X25550Y-23651D01*
X25459Y-23689D01*
X25389Y-23759D01*
X25351Y-23851D01*
X25350Y-24088D01*
X25412Y-24150D01*
X25850Y-24150D01*
X25850Y-24250D01*
X25800Y-24250D01*
X25412Y-24250D01*
X25350Y-24312D01*
X25351Y-24549D01*
X25389Y-24641D01*
X25459Y-24711D01*
X25550Y-24749D01*
X25575Y-24749D01*
X25435Y-24889D01*
X25351Y-25091D01*
X25351Y-25309D01*
X25435Y-25511D01*
X25589Y-25665D01*
X25791Y-25749D01*
X26009Y-25749D01*
X26211Y-25665D01*
X26365Y-25511D01*
X26449Y-25309D01*
X26449Y-25091D01*
X26365Y-24889D01*
X26225Y-24749D01*
X26250Y-24749D01*
X26341Y-24711D01*
X26411Y-24641D01*
X26449Y-24549D01*
X26450Y-24312D01*
X26450Y-35675D01*
X21025Y-35675D01*
X21025Y-28755D01*
X21025Y-28546D01*
X20945Y-28353D01*
X20798Y-28205D01*
X20605Y-28125D01*
X20396Y-28125D01*
X20203Y-28205D01*
X20055Y-28352D01*
X19975Y-28545D01*
X19975Y-28754D01*
X20055Y-28947D01*
X20202Y-29095D01*
X20276Y-29126D01*
X20176Y-29126D01*
X20084Y-29164D01*
X20014Y-29234D01*
X19976Y-29325D01*
X19976Y-29424D01*
X19976Y-29974D01*
X20014Y-30066D01*
X20084Y-30136D01*
X20175Y-30174D01*
X20274Y-30174D01*
X20824Y-30174D01*
X20916Y-30136D01*
X20986Y-30066D01*
X21024Y-29975D01*
X21024Y-29876D01*
X21024Y-29326D01*
X20986Y-29234D01*
X20916Y-29164D01*
X20825Y-29126D01*
X20726Y-29126D01*
X20722Y-29126D01*
X20797Y-29095D01*
X20945Y-28948D01*
X21025Y-28755D01*
X21025Y-35675D01*
X19425Y-35675D01*
X19425Y-30715D01*
X19425Y-30486D01*
X19338Y-30275D01*
X19176Y-30113D01*
X18965Y-30025D01*
X18841Y-30025D01*
X18380Y-29564D01*
X18380Y-25656D01*
X18380Y-25445D01*
X18299Y-25250D01*
X18151Y-25101D01*
X17956Y-25020D01*
X17745Y-25020D01*
X17550Y-25101D01*
X17401Y-25249D01*
X17320Y-25444D01*
X17320Y-25655D01*
X17401Y-25850D01*
X17549Y-25999D01*
X17744Y-26080D01*
X17955Y-26080D01*
X18150Y-25999D01*
X18299Y-25851D01*
X18380Y-25656D01*
X18380Y-29564D01*
X16749Y-27933D01*
X16749Y-21459D01*
X16749Y-21241D01*
X16665Y-21039D01*
X16511Y-20885D01*
X16426Y-20850D01*
X16511Y-20815D01*
X16665Y-20661D01*
X16749Y-20459D01*
X16749Y-20241D01*
X16665Y-20039D01*
X16511Y-19885D01*
X16426Y-19850D01*
X16511Y-19815D01*
X16665Y-19661D01*
X16749Y-19459D01*
X16749Y-19241D01*
X16665Y-19039D01*
X16525Y-18899D01*
X16549Y-18899D01*
X16641Y-18861D01*
X16711Y-18791D01*
X16749Y-18700D01*
X16749Y-18601D01*
X16749Y-18001D01*
X16711Y-17909D01*
X16641Y-17839D01*
X16550Y-17801D01*
X16451Y-17801D01*
X15851Y-17801D01*
X15759Y-17839D01*
X15689Y-17909D01*
X15651Y-18000D01*
X15651Y-18062D01*
X15578Y-18042D01*
X15508Y-18112D01*
X15508Y-17972D01*
X15481Y-17878D01*
X15279Y-17807D01*
X15066Y-17818D01*
X14919Y-17878D01*
X14892Y-17972D01*
X15200Y-18279D01*
X15508Y-17972D01*
X15508Y-18112D01*
X15271Y-18350D01*
X15578Y-18658D01*
X15651Y-18637D01*
X15651Y-18699D01*
X15689Y-18791D01*
X15759Y-18861D01*
X15850Y-18899D01*
X15875Y-18899D01*
X15735Y-19039D01*
X15700Y-19123D01*
X15665Y-19039D01*
X15511Y-18885D01*
X15419Y-18847D01*
X15481Y-18822D01*
X15508Y-18728D01*
X15200Y-18421D01*
X15129Y-18491D01*
X15129Y-18350D01*
X14822Y-18042D01*
X14728Y-18069D01*
X14657Y-18271D01*
X14668Y-18484D01*
X14728Y-18631D01*
X14822Y-18658D01*
X15129Y-18350D01*
X15129Y-18491D01*
X14892Y-18728D01*
X14919Y-18822D01*
X14984Y-18845D01*
X14889Y-18885D01*
X14735Y-19039D01*
X14651Y-19241D01*
X14651Y-19459D01*
X14735Y-19661D01*
X14889Y-19815D01*
X14973Y-19850D01*
X14889Y-19885D01*
X14735Y-20039D01*
X14651Y-20241D01*
X14651Y-20459D01*
X14735Y-20661D01*
X14889Y-20815D01*
X14980Y-20852D01*
X14919Y-20878D01*
X14892Y-20972D01*
X15200Y-21279D01*
X15508Y-20972D01*
X15481Y-20878D01*
X15415Y-20854D01*
X15511Y-20815D01*
X15665Y-20661D01*
X15700Y-20576D01*
X15735Y-20661D01*
X15889Y-20815D01*
X15973Y-20850D01*
X15889Y-20885D01*
X15735Y-21039D01*
X15697Y-21130D01*
X15672Y-21069D01*
X15578Y-21042D01*
X15271Y-21350D01*
X15578Y-21658D01*
X15672Y-21631D01*
X15695Y-21565D01*
X15735Y-21661D01*
X15889Y-21815D01*
X16091Y-21899D01*
X16309Y-21899D01*
X16511Y-21815D01*
X16665Y-21661D01*
X16749Y-21459D01*
X16749Y-27933D01*
X16399Y-27583D01*
X16399Y-23649D01*
X16399Y-23451D01*
X16399Y-22649D01*
X16399Y-22451D01*
X16323Y-22268D01*
X16183Y-22127D01*
X15999Y-22051D01*
X15801Y-22051D01*
X15618Y-22127D01*
X15508Y-22236D01*
X15508Y-21728D01*
X15200Y-21421D01*
X15129Y-21491D01*
X15129Y-21350D01*
X14822Y-21042D01*
X14728Y-21069D01*
X14657Y-21271D01*
X14668Y-21484D01*
X14728Y-21631D01*
X14822Y-21658D01*
X15129Y-21350D01*
X15129Y-21491D01*
X14892Y-21728D01*
X14919Y-21822D01*
X15121Y-21893D01*
X15334Y-21882D01*
X15481Y-21822D01*
X15508Y-21728D01*
X15508Y-22236D01*
X15477Y-22267D01*
X15401Y-22451D01*
X15401Y-22649D01*
X15477Y-22832D01*
X15617Y-22973D01*
X15801Y-23049D01*
X15999Y-23049D01*
X16182Y-22973D01*
X16323Y-22833D01*
X16399Y-22649D01*
X16399Y-23451D01*
X16323Y-23268D01*
X16183Y-23127D01*
X15999Y-23051D01*
X15801Y-23051D01*
X15618Y-23127D01*
X15477Y-23267D01*
X15401Y-23451D01*
X15401Y-23649D01*
X15477Y-23832D01*
X15617Y-23973D01*
X15801Y-24049D01*
X15999Y-24049D01*
X16182Y-23973D01*
X16323Y-23833D01*
X16399Y-23649D01*
X16399Y-27583D01*
X16380Y-27564D01*
X16380Y-25656D01*
X16380Y-25445D01*
X16299Y-25250D01*
X16151Y-25101D01*
X15956Y-25020D01*
X15745Y-25020D01*
X15550Y-25101D01*
X15401Y-25249D01*
X15320Y-25444D01*
X15320Y-25655D01*
X15401Y-25850D01*
X15549Y-25999D01*
X15744Y-26080D01*
X15955Y-26080D01*
X16150Y-25999D01*
X16299Y-25851D01*
X16380Y-25656D01*
X16380Y-27564D01*
X14338Y-25522D01*
X14425Y-25315D01*
X14425Y-25086D01*
X14338Y-24875D01*
X14176Y-24713D01*
X13965Y-24625D01*
X13736Y-24625D01*
X13593Y-24683D01*
X13593Y-24063D01*
X13582Y-23850D01*
X13522Y-23703D01*
X13428Y-23676D01*
X13358Y-23746D01*
X13358Y-23606D01*
X13331Y-23512D01*
X13129Y-23441D01*
X12916Y-23452D01*
X12769Y-23512D01*
X12742Y-23606D01*
X13050Y-23913D01*
X13358Y-23606D01*
X13358Y-23746D01*
X13121Y-23984D01*
X13428Y-24292D01*
X13522Y-24265D01*
X13593Y-24063D01*
X13593Y-24683D01*
X13525Y-24712D01*
X13363Y-24874D01*
X13358Y-24885D01*
X13358Y-24362D01*
X13050Y-24055D01*
X12979Y-24125D01*
X12979Y-23984D01*
X12672Y-23676D01*
X12578Y-23703D01*
X12507Y-23905D01*
X12518Y-24118D01*
X12578Y-24265D01*
X12672Y-24292D01*
X12979Y-23984D01*
X12979Y-24125D01*
X12742Y-24362D01*
X12769Y-24456D01*
X12971Y-24527D01*
X13184Y-24516D01*
X13331Y-24456D01*
X13358Y-24362D01*
X13358Y-24885D01*
X13275Y-25085D01*
X13275Y-25314D01*
X13362Y-25525D01*
X13453Y-25616D01*
X13480Y-25753D01*
X13567Y-25883D01*
X18275Y-30591D01*
X18275Y-30714D01*
X18362Y-30925D01*
X18524Y-31087D01*
X18735Y-31175D01*
X18964Y-31175D01*
X19175Y-31088D01*
X19337Y-30926D01*
X19425Y-30715D01*
X19425Y-35675D01*
X16474Y-35675D01*
X16625Y-35613D01*
X16861Y-35377D01*
X16990Y-35068D01*
X16990Y-34734D01*
X16863Y-34425D01*
X16627Y-34189D01*
X16318Y-34060D01*
X15984Y-34060D01*
X15675Y-34187D01*
X15439Y-34423D01*
X15310Y-34732D01*
X15310Y-35066D01*
X15437Y-35375D01*
X15673Y-35611D01*
X15826Y-35675D01*
X15294Y-35675D01*
X15294Y-33958D01*
X15294Y-33742D01*
X15211Y-33542D01*
X15058Y-33389D01*
X14858Y-33306D01*
X14642Y-33306D01*
X14442Y-33389D01*
X14399Y-33432D01*
X14399Y-30659D01*
X14399Y-30441D01*
X14315Y-30239D01*
X14161Y-30085D01*
X14076Y-30050D01*
X14161Y-30015D01*
X14315Y-29861D01*
X14399Y-29659D01*
X14399Y-29441D01*
X14315Y-29239D01*
X14161Y-29085D01*
X13959Y-29001D01*
X13741Y-29001D01*
X13539Y-29085D01*
X13385Y-29239D01*
X13371Y-29271D01*
X13371Y-29172D01*
X13344Y-29078D01*
X13142Y-29007D01*
X12929Y-29018D01*
X12782Y-29078D01*
X12781Y-29081D01*
X12781Y-27844D01*
X12781Y-27533D01*
X12662Y-27246D01*
X12443Y-27026D01*
X12156Y-26907D01*
X11972Y-26907D01*
X11845Y-26907D01*
X11564Y-27023D01*
X11564Y-13585D01*
X10800Y-12821D01*
X10729Y-12892D01*
X10729Y-12750D01*
X09965Y-11986D01*
X09806Y-12090D01*
X09628Y-12520D01*
X09629Y-12986D01*
X09806Y-13410D01*
X09965Y-13514D01*
X10729Y-12750D01*
X10729Y-12892D01*
X10036Y-13585D01*
X10140Y-13744D01*
X10570Y-13922D01*
X11036Y-13921D01*
X11460Y-13744D01*
X11564Y-13585D01*
X11564Y-27023D01*
X11558Y-27026D01*
X11338Y-27245D01*
X11219Y-27532D01*
X11219Y-27843D01*
X11338Y-28130D01*
X11557Y-28350D01*
X11844Y-28469D01*
X12155Y-28469D01*
X12442Y-28350D01*
X12662Y-28131D01*
X12781Y-27844D01*
X12781Y-29081D01*
X12755Y-29172D01*
X13063Y-29479D01*
X13371Y-29172D01*
X13371Y-29271D01*
X13342Y-29340D01*
X13134Y-29550D01*
X13342Y-29759D01*
X13385Y-29861D01*
X13539Y-30015D01*
X13623Y-30050D01*
X13539Y-30085D01*
X13456Y-30167D01*
X13374Y-30085D01*
X13282Y-30047D01*
X13344Y-30022D01*
X13371Y-29928D01*
X13063Y-29621D01*
X12992Y-29691D01*
X12992Y-29550D01*
X12685Y-29242D01*
X12591Y-29269D01*
X12520Y-29471D01*
X12531Y-29684D01*
X12591Y-29831D01*
X12685Y-29858D01*
X12992Y-29550D01*
X12992Y-29691D01*
X12755Y-29928D01*
X12782Y-30022D01*
X12847Y-30045D01*
X12752Y-30085D01*
X12598Y-30239D01*
X12514Y-30441D01*
X12514Y-30659D01*
X12598Y-30861D01*
X12752Y-31015D01*
X12954Y-31099D01*
X13172Y-31099D01*
X13374Y-31015D01*
X13456Y-30932D01*
X13539Y-31015D01*
X13741Y-31099D01*
X13959Y-31099D01*
X14161Y-31015D01*
X14315Y-30861D01*
X14399Y-30659D01*
X14399Y-33432D01*
X14289Y-33542D01*
X14250Y-33635D01*
X14211Y-33542D01*
X14058Y-33389D01*
X13858Y-33306D01*
X13642Y-33306D01*
X13442Y-33389D01*
X13350Y-33481D01*
X13258Y-33389D01*
X13058Y-33306D01*
X12842Y-33306D01*
X12781Y-33331D01*
X12781Y-32568D01*
X12781Y-32257D01*
X12662Y-31970D01*
X12443Y-31750D01*
X12156Y-31631D01*
X11845Y-31631D01*
X11558Y-31750D01*
X11338Y-31969D01*
X11219Y-32256D01*
X11219Y-32567D01*
X11338Y-32854D01*
X11557Y-33074D01*
X11844Y-33193D01*
X12155Y-33193D01*
X12442Y-33074D01*
X12662Y-32855D01*
X12781Y-32568D01*
X12781Y-33331D01*
X12642Y-33389D01*
X12489Y-33542D01*
X12447Y-33642D01*
X12418Y-33571D01*
X12325Y-33546D01*
X12254Y-33617D01*
X12254Y-33475D01*
X12229Y-33382D01*
X12028Y-33310D01*
X11816Y-33322D01*
X11671Y-33382D01*
X11646Y-33475D01*
X11950Y-33779D01*
X12254Y-33475D01*
X12254Y-33617D01*
X12021Y-33850D01*
X12325Y-34154D01*
X12418Y-34129D01*
X12445Y-34052D01*
X12489Y-34158D01*
X12642Y-34311D01*
X12842Y-34394D01*
X13058Y-34394D01*
X13258Y-34311D01*
X13350Y-34219D01*
X13442Y-34311D01*
X13642Y-34394D01*
X13858Y-34394D01*
X14058Y-34311D01*
X14211Y-34158D01*
X14250Y-34064D01*
X14289Y-34158D01*
X14442Y-34311D01*
X14642Y-34394D01*
X14858Y-34394D01*
X15058Y-34311D01*
X15211Y-34158D01*
X15294Y-33958D01*
X15294Y-35675D01*
X12254Y-35675D01*
X12254Y-34225D01*
X11950Y-33921D01*
X11879Y-33992D01*
X11879Y-33850D01*
X11575Y-33546D01*
X11482Y-33571D01*
X11410Y-33772D01*
X11422Y-33984D01*
X11482Y-34129D01*
X11575Y-34154D01*
X11879Y-33850D01*
X11879Y-33992D01*
X11646Y-34225D01*
X11671Y-34318D01*
X11872Y-34390D01*
X12084Y-34378D01*
X12229Y-34318D01*
X12254Y-34225D01*
X12254Y-35675D01*
X11074Y-35675D01*
X11225Y-35613D01*
X11461Y-35377D01*
X11590Y-35068D01*
X11590Y-34734D01*
X11463Y-34425D01*
X11227Y-34189D01*
X10918Y-34060D01*
X10584Y-34060D01*
X10275Y-34187D01*
X10039Y-34423D01*
X09910Y-34732D01*
X09910Y-35066D01*
X10037Y-35375D01*
X10273Y-35611D01*
X10426Y-35675D01*
X09525Y-35675D01*
X09525Y-09350D01*
X09525Y-09300D01*
X09525Y-09075D01*
X35475Y-09075D01*
X35475Y-35675D01*
M02*
