G04 (created by PCBNEW-RS274X (2011-03-30)-stable) date dom 10 abr 2011 01:24:47 ART*
G01*
G70*
G90*
%MOIN*%
G04 Gerber Fmt 3.4, Leading zero omitted, Abs format*
%FSLAX34Y34*%
G04 APERTURE LIST*
%ADD10C,0.006000*%
%ADD11C,0.050000*%
%ADD12C,0.060000*%
%ADD13R,0.060000X0.060000*%
%ADD14C,0.106300*%
%ADD15C,0.065000*%
%ADD16C,0.189000*%
%ADD17R,0.189000X0.189000*%
%ADD18C,0.086600*%
%ADD19R,0.177200X0.047200*%
%ADD20C,0.035000*%
%ADD21C,0.045000*%
%ADD22C,0.031500*%
%ADD23C,0.010000*%
G04 APERTURE END LIST*
G54D10*
G54D11*
X12700Y-16800D03*
X12700Y-15800D03*
G54D12*
X14000Y-09216D03*
X14000Y-11184D03*
G54D13*
X09400Y-13600D03*
G54D12*
X10400Y-13600D03*
X09400Y-12600D03*
X10400Y-12600D03*
X09400Y-11600D03*
X10400Y-11600D03*
X09400Y-10600D03*
X10400Y-10600D03*
X09400Y-09600D03*
X10400Y-09600D03*
X13450Y-23900D03*
X13450Y-24900D03*
X12663Y-24900D03*
X12663Y-23900D03*
G54D14*
X11600Y-22038D03*
X11600Y-26762D03*
G54D15*
X27900Y-18800D03*
X26900Y-18800D03*
X27900Y-17800D03*
X26900Y-17800D03*
X27900Y-16800D03*
X26900Y-16800D03*
X26900Y-13800D03*
X27900Y-13800D03*
X26900Y-14800D03*
X27900Y-14800D03*
X26900Y-15800D03*
X27900Y-15800D03*
X27900Y-09800D03*
X26900Y-09800D03*
X27900Y-08800D03*
X26900Y-08800D03*
X26900Y-10800D03*
X27900Y-10800D03*
X26900Y-11800D03*
X27900Y-11800D03*
X26900Y-12800D03*
X27900Y-12800D03*
X27900Y-24800D03*
X26900Y-24800D03*
X27900Y-23800D03*
X26900Y-23800D03*
X27900Y-22800D03*
X26900Y-22800D03*
X26900Y-19800D03*
X27900Y-19800D03*
X26900Y-20800D03*
X27900Y-20800D03*
X26900Y-21800D03*
X27900Y-21800D03*
X27900Y-27800D03*
X26900Y-27800D03*
X27900Y-26800D03*
X26900Y-26800D03*
X27900Y-25800D03*
X26900Y-25800D03*
X26900Y-06800D03*
X27900Y-06800D03*
X26900Y-07800D03*
X27900Y-07800D03*
X26900Y-28800D03*
X27900Y-28800D03*
X26900Y-29800D03*
X27900Y-29800D03*
X26900Y-30800D03*
X27900Y-30800D03*
G54D16*
X10700Y-30700D03*
G54D17*
X13100Y-30700D03*
G54D16*
X11600Y-28700D03*
G54D13*
X22500Y-19200D03*
G54D12*
X21500Y-19200D03*
G54D13*
X19200Y-29400D03*
G54D12*
X19200Y-30400D03*
X19200Y-31400D03*
G54D18*
X10535Y-19500D03*
G54D19*
X13311Y-19500D03*
X09689Y-19500D03*
G54D18*
X12465Y-19500D03*
G54D20*
X17100Y-25700D03*
X15200Y-18400D03*
X16600Y-10500D03*
X23100Y-14300D03*
X10200Y-15000D03*
X10200Y-17600D03*
X17000Y-21700D03*
X22800Y-20300D03*
X19600Y-20300D03*
G54D21*
X15125Y-20350D03*
G54D22*
X17600Y-25200D02*
X17100Y-25700D01*
X17600Y-20800D02*
X17600Y-25200D01*
X15200Y-18400D02*
X17600Y-20800D01*
G54D23*
X14500Y-18300D02*
X15000Y-17800D01*
X19000Y-20300D02*
X19600Y-20300D01*
X16500Y-17800D02*
X19000Y-20300D01*
X15000Y-17800D02*
X16500Y-17800D01*
X23100Y-11600D02*
X23100Y-14300D01*
X22000Y-10500D02*
X23100Y-11600D01*
X16600Y-10500D02*
X22000Y-10500D01*
X23300Y-19800D02*
X22800Y-20300D01*
X23100Y-14300D02*
X23300Y-14500D01*
X23300Y-14500D02*
X23300Y-19800D01*
X10200Y-17600D02*
X13800Y-17600D01*
X15125Y-18925D02*
X15125Y-20350D01*
X13800Y-17600D02*
X14500Y-18300D01*
X14500Y-18300D02*
X15125Y-18925D01*
X10200Y-15000D02*
X10200Y-17600D01*
X15125Y-20350D02*
X15650Y-20350D01*
X15650Y-20350D02*
X17000Y-21700D01*
X22800Y-20300D02*
X19600Y-20300D01*
X13311Y-19500D02*
X12465Y-19500D01*
X09689Y-19500D02*
X10535Y-19500D01*
G54D10*
G36*
X29125Y-32525D02*
X28473Y-32525D01*
X28473Y-30774D01*
X28457Y-30663D01*
X28424Y-30568D01*
X28424Y-29749D01*
X28404Y-29648D01*
X28365Y-29553D01*
X28308Y-29468D01*
X28236Y-29395D01*
X28151Y-29337D01*
X28061Y-29299D01*
X28137Y-29270D01*
X28224Y-29215D01*
X28298Y-29144D01*
X28358Y-29060D01*
X28399Y-28967D01*
X28422Y-28866D01*
X28424Y-28749D01*
X28404Y-28648D01*
X28365Y-28553D01*
X28308Y-28468D01*
X28236Y-28395D01*
X28151Y-28337D01*
X28061Y-28299D01*
X28137Y-28270D01*
X28224Y-28215D01*
X28298Y-28144D01*
X28358Y-28060D01*
X28399Y-27967D01*
X28422Y-27866D01*
X28424Y-27749D01*
X28404Y-27648D01*
X28365Y-27553D01*
X28308Y-27468D01*
X28236Y-27395D01*
X28151Y-27337D01*
X28061Y-27299D01*
X28137Y-27270D01*
X28224Y-27215D01*
X28298Y-27144D01*
X28358Y-27060D01*
X28399Y-26967D01*
X28422Y-26866D01*
X28424Y-26749D01*
X28404Y-26648D01*
X28365Y-26553D01*
X28308Y-26468D01*
X28236Y-26395D01*
X28151Y-26337D01*
X28061Y-26299D01*
X28137Y-26270D01*
X28224Y-26215D01*
X28298Y-26144D01*
X28358Y-26060D01*
X28399Y-25967D01*
X28422Y-25866D01*
X28424Y-25749D01*
X28404Y-25648D01*
X28365Y-25553D01*
X28308Y-25468D01*
X28236Y-25395D01*
X28151Y-25337D01*
X28061Y-25299D01*
X28137Y-25270D01*
X28224Y-25215D01*
X28298Y-25144D01*
X28358Y-25060D01*
X28399Y-24967D01*
X28422Y-24866D01*
X28424Y-24749D01*
X28404Y-24648D01*
X28365Y-24553D01*
X28308Y-24468D01*
X28236Y-24395D01*
X28151Y-24337D01*
X28061Y-24299D01*
X28137Y-24270D01*
X28224Y-24215D01*
X28298Y-24144D01*
X28358Y-24060D01*
X28399Y-23967D01*
X28422Y-23866D01*
X28424Y-23749D01*
X28404Y-23648D01*
X28365Y-23553D01*
X28308Y-23468D01*
X28236Y-23395D01*
X28151Y-23337D01*
X28061Y-23299D01*
X28137Y-23270D01*
X28224Y-23215D01*
X28298Y-23144D01*
X28358Y-23060D01*
X28399Y-22967D01*
X28422Y-22866D01*
X28424Y-22749D01*
X28404Y-22648D01*
X28365Y-22553D01*
X28308Y-22468D01*
X28236Y-22395D01*
X28151Y-22337D01*
X28061Y-22299D01*
X28137Y-22270D01*
X28224Y-22215D01*
X28298Y-22144D01*
X28358Y-22060D01*
X28399Y-21967D01*
X28422Y-21866D01*
X28424Y-21749D01*
X28404Y-21648D01*
X28365Y-21553D01*
X28308Y-21468D01*
X28236Y-21395D01*
X28151Y-21337D01*
X28061Y-21299D01*
X28137Y-21270D01*
X28224Y-21215D01*
X28298Y-21144D01*
X28358Y-21060D01*
X28399Y-20967D01*
X28422Y-20866D01*
X28424Y-20749D01*
X28404Y-20648D01*
X28365Y-20553D01*
X28308Y-20468D01*
X28236Y-20395D01*
X28151Y-20337D01*
X28061Y-20299D01*
X28137Y-20270D01*
X28224Y-20215D01*
X28298Y-20144D01*
X28358Y-20060D01*
X28399Y-19967D01*
X28422Y-19866D01*
X28424Y-19749D01*
X28404Y-19648D01*
X28365Y-19553D01*
X28308Y-19468D01*
X28236Y-19395D01*
X28151Y-19337D01*
X28061Y-19299D01*
X28137Y-19270D01*
X28224Y-19215D01*
X28298Y-19144D01*
X28358Y-19060D01*
X28399Y-18967D01*
X28422Y-18866D01*
X28424Y-18749D01*
X28404Y-18648D01*
X28365Y-18553D01*
X28308Y-18468D01*
X28236Y-18395D01*
X28151Y-18337D01*
X28061Y-18299D01*
X28137Y-18270D01*
X28224Y-18215D01*
X28298Y-18144D01*
X28358Y-18060D01*
X28399Y-17967D01*
X28422Y-17866D01*
X28424Y-17749D01*
X28404Y-17648D01*
X28365Y-17553D01*
X28308Y-17468D01*
X28236Y-17395D01*
X28151Y-17337D01*
X28061Y-17299D01*
X28137Y-17270D01*
X28224Y-17215D01*
X28298Y-17144D01*
X28358Y-17060D01*
X28399Y-16967D01*
X28422Y-16866D01*
X28424Y-16749D01*
X28404Y-16648D01*
X28365Y-16553D01*
X28308Y-16468D01*
X28236Y-16395D01*
X28151Y-16337D01*
X28061Y-16299D01*
X28137Y-16270D01*
X28224Y-16215D01*
X28298Y-16144D01*
X28358Y-16060D01*
X28399Y-15967D01*
X28422Y-15866D01*
X28424Y-15749D01*
X28404Y-15648D01*
X28365Y-15553D01*
X28308Y-15468D01*
X28236Y-15395D01*
X28151Y-15337D01*
X28061Y-15299D01*
X28137Y-15270D01*
X28224Y-15215D01*
X28298Y-15144D01*
X28358Y-15060D01*
X28399Y-14967D01*
X28422Y-14866D01*
X28424Y-14749D01*
X28404Y-14648D01*
X28365Y-14553D01*
X28308Y-14468D01*
X28236Y-14395D01*
X28151Y-14337D01*
X28061Y-14299D01*
X28137Y-14270D01*
X28224Y-14215D01*
X28298Y-14144D01*
X28358Y-14060D01*
X28399Y-13967D01*
X28422Y-13866D01*
X28424Y-13749D01*
X28404Y-13648D01*
X28365Y-13553D01*
X28308Y-13468D01*
X28236Y-13395D01*
X28151Y-13337D01*
X28061Y-13299D01*
X28137Y-13270D01*
X28224Y-13215D01*
X28298Y-13144D01*
X28358Y-13060D01*
X28399Y-12967D01*
X28422Y-12866D01*
X28424Y-12749D01*
X28404Y-12648D01*
X28365Y-12553D01*
X28308Y-12468D01*
X28236Y-12395D01*
X28151Y-12337D01*
X28061Y-12299D01*
X28137Y-12270D01*
X28224Y-12215D01*
X28298Y-12144D01*
X28358Y-12060D01*
X28399Y-11967D01*
X28422Y-11866D01*
X28424Y-11749D01*
X28404Y-11648D01*
X28365Y-11553D01*
X28308Y-11468D01*
X28236Y-11395D01*
X28151Y-11337D01*
X28061Y-11299D01*
X28137Y-11270D01*
X28224Y-11215D01*
X28298Y-11144D01*
X28358Y-11060D01*
X28399Y-10967D01*
X28422Y-10866D01*
X28424Y-10749D01*
X28404Y-10648D01*
X28365Y-10553D01*
X28308Y-10468D01*
X28236Y-10395D01*
X28151Y-10337D01*
X28061Y-10299D01*
X28137Y-10270D01*
X28224Y-10215D01*
X28298Y-10144D01*
X28358Y-10060D01*
X28399Y-09967D01*
X28422Y-09866D01*
X28424Y-09749D01*
X28404Y-09648D01*
X28365Y-09553D01*
X28308Y-09468D01*
X28236Y-09395D01*
X28151Y-09337D01*
X28061Y-09299D01*
X28137Y-09270D01*
X28224Y-09215D01*
X28298Y-09144D01*
X28358Y-09060D01*
X28399Y-08967D01*
X28422Y-08866D01*
X28424Y-08749D01*
X28404Y-08648D01*
X28365Y-08553D01*
X28308Y-08468D01*
X28236Y-08395D01*
X28151Y-08337D01*
X28061Y-08299D01*
X28137Y-08270D01*
X28224Y-08215D01*
X28298Y-08144D01*
X28358Y-08060D01*
X28399Y-07967D01*
X28422Y-07866D01*
X28424Y-07749D01*
X28404Y-07648D01*
X28365Y-07553D01*
X28308Y-07468D01*
X28236Y-07395D01*
X28151Y-07337D01*
X28061Y-07299D01*
X28137Y-07270D01*
X28224Y-07215D01*
X28298Y-07144D01*
X28358Y-07060D01*
X28399Y-06967D01*
X28422Y-06866D01*
X28424Y-06749D01*
X28404Y-06648D01*
X28365Y-06553D01*
X28308Y-06468D01*
X28236Y-06395D01*
X28151Y-06337D01*
X28056Y-06297D01*
X27955Y-06276D01*
X27853Y-06276D01*
X27752Y-06295D01*
X27656Y-06333D01*
X27570Y-06389D01*
X27497Y-06461D01*
X27439Y-06546D01*
X27399Y-06636D01*
X27365Y-06553D01*
X27308Y-06468D01*
X27236Y-06395D01*
X27151Y-06337D01*
X27056Y-06297D01*
X26955Y-06276D01*
X26853Y-06276D01*
X26752Y-06295D01*
X26656Y-06333D01*
X26570Y-06389D01*
X26497Y-06461D01*
X26439Y-06546D01*
X26398Y-06640D01*
X26377Y-06741D01*
X26375Y-06844D01*
X26394Y-06945D01*
X26432Y-07040D01*
X26487Y-07127D01*
X26558Y-07201D01*
X26643Y-07259D01*
X26736Y-07300D01*
X26656Y-07333D01*
X26570Y-07389D01*
X26497Y-07461D01*
X26439Y-07546D01*
X26398Y-07640D01*
X26377Y-07741D01*
X26375Y-07844D01*
X26394Y-07945D01*
X26432Y-08040D01*
X26487Y-08127D01*
X26558Y-08201D01*
X26643Y-08259D01*
X26736Y-08300D01*
X26656Y-08333D01*
X26570Y-08389D01*
X26497Y-08461D01*
X26439Y-08546D01*
X26398Y-08640D01*
X26377Y-08741D01*
X26375Y-08844D01*
X26394Y-08945D01*
X26432Y-09040D01*
X26487Y-09127D01*
X26558Y-09201D01*
X26643Y-09259D01*
X26736Y-09300D01*
X26656Y-09333D01*
X26570Y-09389D01*
X26497Y-09461D01*
X26439Y-09546D01*
X26398Y-09640D01*
X26377Y-09741D01*
X26375Y-09844D01*
X26394Y-09945D01*
X26432Y-10040D01*
X26487Y-10127D01*
X26558Y-10201D01*
X26643Y-10259D01*
X26736Y-10300D01*
X26656Y-10333D01*
X26570Y-10389D01*
X26497Y-10461D01*
X26439Y-10546D01*
X26398Y-10640D01*
X26377Y-10741D01*
X26375Y-10844D01*
X26394Y-10945D01*
X26432Y-11040D01*
X26487Y-11127D01*
X26558Y-11201D01*
X26643Y-11259D01*
X26736Y-11300D01*
X26656Y-11333D01*
X26570Y-11389D01*
X26497Y-11461D01*
X26439Y-11546D01*
X26398Y-11640D01*
X26377Y-11741D01*
X26375Y-11844D01*
X26394Y-11945D01*
X26432Y-12040D01*
X26487Y-12127D01*
X26558Y-12201D01*
X26643Y-12259D01*
X26736Y-12300D01*
X26656Y-12333D01*
X26570Y-12389D01*
X26497Y-12461D01*
X26439Y-12546D01*
X26398Y-12640D01*
X26377Y-12741D01*
X26375Y-12844D01*
X26394Y-12945D01*
X26432Y-13040D01*
X26487Y-13127D01*
X26558Y-13201D01*
X26643Y-13259D01*
X26736Y-13300D01*
X26656Y-13333D01*
X26570Y-13389D01*
X26497Y-13461D01*
X26439Y-13546D01*
X26398Y-13640D01*
X26377Y-13741D01*
X26375Y-13844D01*
X26394Y-13945D01*
X26432Y-14040D01*
X26487Y-14127D01*
X26558Y-14201D01*
X26643Y-14259D01*
X26736Y-14300D01*
X26656Y-14333D01*
X26570Y-14389D01*
X26497Y-14461D01*
X26439Y-14546D01*
X26398Y-14640D01*
X26377Y-14741D01*
X26375Y-14844D01*
X26394Y-14945D01*
X26432Y-15040D01*
X26487Y-15127D01*
X26558Y-15201D01*
X26643Y-15259D01*
X26736Y-15300D01*
X26656Y-15333D01*
X26570Y-15389D01*
X26497Y-15461D01*
X26439Y-15546D01*
X26398Y-15640D01*
X26377Y-15741D01*
X26375Y-15844D01*
X26394Y-15945D01*
X26432Y-16040D01*
X26487Y-16127D01*
X26558Y-16201D01*
X26643Y-16259D01*
X26736Y-16300D01*
X26656Y-16333D01*
X26570Y-16389D01*
X26497Y-16461D01*
X26439Y-16546D01*
X26398Y-16640D01*
X26377Y-16741D01*
X26375Y-16844D01*
X26394Y-16945D01*
X26432Y-17040D01*
X26487Y-17127D01*
X26558Y-17201D01*
X26643Y-17259D01*
X26736Y-17300D01*
X26656Y-17333D01*
X26570Y-17389D01*
X26497Y-17461D01*
X26439Y-17546D01*
X26398Y-17640D01*
X26377Y-17741D01*
X26375Y-17844D01*
X26394Y-17945D01*
X26432Y-18040D01*
X26487Y-18127D01*
X26558Y-18201D01*
X26643Y-18259D01*
X26736Y-18300D01*
X26656Y-18333D01*
X26570Y-18389D01*
X26497Y-18461D01*
X26439Y-18546D01*
X26398Y-18640D01*
X26377Y-18741D01*
X26375Y-18844D01*
X26394Y-18945D01*
X26432Y-19040D01*
X26487Y-19127D01*
X26558Y-19201D01*
X26643Y-19259D01*
X26736Y-19300D01*
X26656Y-19333D01*
X26570Y-19389D01*
X26497Y-19461D01*
X26439Y-19546D01*
X26398Y-19640D01*
X26377Y-19741D01*
X26375Y-19844D01*
X26394Y-19945D01*
X26432Y-20040D01*
X26487Y-20127D01*
X26558Y-20201D01*
X26643Y-20259D01*
X26736Y-20300D01*
X26656Y-20333D01*
X26570Y-20389D01*
X26497Y-20461D01*
X26439Y-20546D01*
X26398Y-20640D01*
X26377Y-20741D01*
X26375Y-20844D01*
X26394Y-20945D01*
X26432Y-21040D01*
X26487Y-21127D01*
X26558Y-21201D01*
X26643Y-21259D01*
X26736Y-21300D01*
X26656Y-21333D01*
X26570Y-21389D01*
X26497Y-21461D01*
X26439Y-21546D01*
X26398Y-21640D01*
X26377Y-21741D01*
X26375Y-21844D01*
X26394Y-21945D01*
X26432Y-22040D01*
X26487Y-22127D01*
X26558Y-22201D01*
X26643Y-22259D01*
X26736Y-22300D01*
X26656Y-22333D01*
X26570Y-22389D01*
X26497Y-22461D01*
X26439Y-22546D01*
X26398Y-22640D01*
X26377Y-22741D01*
X26375Y-22844D01*
X26394Y-22945D01*
X26432Y-23040D01*
X26487Y-23127D01*
X26558Y-23201D01*
X26643Y-23259D01*
X26736Y-23300D01*
X26656Y-23333D01*
X26570Y-23389D01*
X26497Y-23461D01*
X26439Y-23546D01*
X26398Y-23640D01*
X26377Y-23741D01*
X26375Y-23844D01*
X26394Y-23945D01*
X26432Y-24040D01*
X26487Y-24127D01*
X26558Y-24201D01*
X26643Y-24259D01*
X26736Y-24300D01*
X26656Y-24333D01*
X26570Y-24389D01*
X26497Y-24461D01*
X26439Y-24546D01*
X26398Y-24640D01*
X26377Y-24741D01*
X26375Y-24844D01*
X26394Y-24945D01*
X26432Y-25040D01*
X26487Y-25127D01*
X26558Y-25201D01*
X26643Y-25259D01*
X26736Y-25300D01*
X26656Y-25333D01*
X26570Y-25389D01*
X26497Y-25461D01*
X26439Y-25546D01*
X26398Y-25640D01*
X26377Y-25741D01*
X26375Y-25844D01*
X26394Y-25945D01*
X26432Y-26040D01*
X26487Y-26127D01*
X26558Y-26201D01*
X26643Y-26259D01*
X26736Y-26300D01*
X26656Y-26333D01*
X26570Y-26389D01*
X26497Y-26461D01*
X26439Y-26546D01*
X26398Y-26640D01*
X26377Y-26741D01*
X26375Y-26844D01*
X26394Y-26945D01*
X26432Y-27040D01*
X26487Y-27127D01*
X26558Y-27201D01*
X26643Y-27259D01*
X26736Y-27300D01*
X26656Y-27333D01*
X26570Y-27389D01*
X26497Y-27461D01*
X26439Y-27546D01*
X26398Y-27640D01*
X26377Y-27741D01*
X26375Y-27844D01*
X26394Y-27945D01*
X26432Y-28040D01*
X26487Y-28127D01*
X26558Y-28201D01*
X26643Y-28259D01*
X26736Y-28300D01*
X26656Y-28333D01*
X26570Y-28389D01*
X26497Y-28461D01*
X26439Y-28546D01*
X26398Y-28640D01*
X26377Y-28741D01*
X26375Y-28844D01*
X26394Y-28945D01*
X26432Y-29040D01*
X26487Y-29127D01*
X26558Y-29201D01*
X26643Y-29259D01*
X26736Y-29300D01*
X26656Y-29333D01*
X26570Y-29389D01*
X26497Y-29461D01*
X26439Y-29546D01*
X26398Y-29640D01*
X26377Y-29741D01*
X26375Y-29844D01*
X26394Y-29945D01*
X26432Y-30040D01*
X26487Y-30127D01*
X26558Y-30201D01*
X26643Y-30259D01*
X26675Y-30273D01*
X26657Y-30280D01*
X26604Y-30308D01*
X26575Y-30404D01*
X26900Y-30729D01*
X27225Y-30404D01*
X27196Y-30308D01*
X27125Y-30274D01*
X27137Y-30270D01*
X27224Y-30215D01*
X27298Y-30144D01*
X27358Y-30060D01*
X27399Y-29967D01*
X27400Y-29960D01*
X27432Y-30040D01*
X27487Y-30127D01*
X27558Y-30201D01*
X27643Y-30259D01*
X27675Y-30273D01*
X27657Y-30280D01*
X27604Y-30308D01*
X27575Y-30404D01*
X27900Y-30729D01*
X28225Y-30404D01*
X28196Y-30308D01*
X28125Y-30274D01*
X28137Y-30270D01*
X28224Y-30215D01*
X28298Y-30144D01*
X28358Y-30060D01*
X28399Y-29967D01*
X28422Y-29866D01*
X28424Y-29749D01*
X28424Y-30568D01*
X28420Y-30557D01*
X28392Y-30504D01*
X28296Y-30475D01*
X27971Y-30800D01*
X28296Y-31125D01*
X28392Y-31096D01*
X28440Y-30994D01*
X28468Y-30886D01*
X28473Y-30774D01*
X28473Y-32525D01*
X28225Y-32525D01*
X28225Y-31196D01*
X27900Y-30871D01*
X27829Y-30942D01*
X27829Y-30800D01*
X27504Y-30475D01*
X27408Y-30504D01*
X27400Y-30520D01*
X27392Y-30504D01*
X27296Y-30475D01*
X26971Y-30800D01*
X27296Y-31125D01*
X27392Y-31096D01*
X27399Y-31079D01*
X27408Y-31096D01*
X27504Y-31125D01*
X27829Y-30800D01*
X27829Y-30942D01*
X27575Y-31196D01*
X27604Y-31292D01*
X27706Y-31340D01*
X27814Y-31368D01*
X27926Y-31373D01*
X28037Y-31357D01*
X28143Y-31320D01*
X28196Y-31292D01*
X28225Y-31196D01*
X28225Y-32525D01*
X27225Y-32525D01*
X27225Y-31196D01*
X26900Y-30871D01*
X26829Y-30942D01*
X26829Y-30800D01*
X26504Y-30475D01*
X26408Y-30504D01*
X26360Y-30606D01*
X26332Y-30714D01*
X26327Y-30826D01*
X26343Y-30937D01*
X26380Y-31043D01*
X26408Y-31096D01*
X26504Y-31125D01*
X26829Y-30800D01*
X26829Y-30942D01*
X26575Y-31196D01*
X26604Y-31292D01*
X26706Y-31340D01*
X26814Y-31368D01*
X26926Y-31373D01*
X27037Y-31357D01*
X27143Y-31320D01*
X27196Y-31292D01*
X27225Y-31196D01*
X27225Y-32525D01*
X23050Y-32525D01*
X23050Y-19527D01*
X23050Y-19478D01*
X23050Y-19312D01*
X23050Y-19088D01*
X23050Y-18922D01*
X23050Y-18873D01*
X23040Y-18825D01*
X23021Y-18780D01*
X22993Y-18740D01*
X22958Y-18705D01*
X22917Y-18678D01*
X22872Y-18659D01*
X22824Y-18650D01*
X22612Y-18650D01*
X22550Y-18712D01*
X22550Y-19150D01*
X22988Y-19150D01*
X23050Y-19088D01*
X23050Y-19312D01*
X22988Y-19250D01*
X22550Y-19250D01*
X22550Y-19688D01*
X22612Y-19750D01*
X22824Y-19750D01*
X22872Y-19741D01*
X22917Y-19722D01*
X22958Y-19695D01*
X22993Y-19660D01*
X23021Y-19620D01*
X23040Y-19575D01*
X23050Y-19527D01*
X23050Y-32525D01*
X22450Y-32525D01*
X22450Y-19688D01*
X22450Y-19300D01*
X22450Y-19250D01*
X22450Y-19150D01*
X22450Y-19100D01*
X22450Y-18712D01*
X22388Y-18650D01*
X22176Y-18650D01*
X22128Y-18659D01*
X22083Y-18678D01*
X22042Y-18705D01*
X22007Y-18740D01*
X21979Y-18780D01*
X21960Y-18825D01*
X21950Y-18873D01*
X21950Y-18922D01*
X21950Y-18978D01*
X21944Y-18964D01*
X21889Y-18882D01*
X21820Y-18813D01*
X21739Y-18758D01*
X21649Y-18720D01*
X21553Y-18700D01*
X21454Y-18700D01*
X21358Y-18718D01*
X21267Y-18755D01*
X21185Y-18808D01*
X21115Y-18877D01*
X21060Y-18958D01*
X21021Y-19048D01*
X21001Y-19144D01*
X20999Y-19242D01*
X21017Y-19338D01*
X21053Y-19430D01*
X21106Y-19512D01*
X21174Y-19583D01*
X21255Y-19639D01*
X21345Y-19678D01*
X21440Y-19699D01*
X21539Y-19701D01*
X21635Y-19684D01*
X21726Y-19648D01*
X21809Y-19596D01*
X21880Y-19528D01*
X21937Y-19448D01*
X21950Y-19419D01*
X21950Y-19478D01*
X21950Y-19527D01*
X21960Y-19575D01*
X21979Y-19620D01*
X22007Y-19660D01*
X22042Y-19695D01*
X22083Y-19722D01*
X22128Y-19741D01*
X22176Y-19750D01*
X22388Y-19750D01*
X22450Y-19688D01*
X22450Y-32525D01*
X19700Y-32525D01*
X19700Y-31351D01*
X19681Y-31255D01*
X19644Y-31164D01*
X19589Y-31082D01*
X19520Y-31013D01*
X19439Y-30958D01*
X19349Y-30920D01*
X19253Y-30900D01*
X19244Y-30900D01*
X19335Y-30884D01*
X19426Y-30848D01*
X19509Y-30796D01*
X19580Y-30728D01*
X19637Y-30648D01*
X19677Y-30559D01*
X19698Y-30463D01*
X19700Y-30351D01*
X19699Y-30345D01*
X19699Y-29720D01*
X19699Y-29681D01*
X19699Y-29080D01*
X19691Y-29042D01*
X19676Y-29006D01*
X19655Y-28973D01*
X19627Y-28946D01*
X19595Y-28924D01*
X19559Y-28909D01*
X19520Y-28901D01*
X19481Y-28901D01*
X18880Y-28901D01*
X18842Y-28909D01*
X18806Y-28924D01*
X18773Y-28945D01*
X18746Y-28973D01*
X18724Y-29005D01*
X18709Y-29041D01*
X18701Y-29080D01*
X18701Y-29119D01*
X18701Y-29720D01*
X18709Y-29758D01*
X18724Y-29794D01*
X18745Y-29827D01*
X18773Y-29854D01*
X18805Y-29876D01*
X18841Y-29891D01*
X18880Y-29899D01*
X18919Y-29899D01*
X19520Y-29899D01*
X19558Y-29891D01*
X19594Y-29876D01*
X19627Y-29855D01*
X19654Y-29827D01*
X19676Y-29795D01*
X19691Y-29759D01*
X19699Y-29720D01*
X19699Y-30345D01*
X19681Y-30255D01*
X19644Y-30164D01*
X19589Y-30082D01*
X19520Y-30013D01*
X19439Y-29958D01*
X19349Y-29920D01*
X19253Y-29900D01*
X19154Y-29900D01*
X19058Y-29918D01*
X18967Y-29955D01*
X18885Y-30008D01*
X18815Y-30077D01*
X18760Y-30158D01*
X18721Y-30248D01*
X18701Y-30344D01*
X18699Y-30442D01*
X18717Y-30538D01*
X18753Y-30630D01*
X18806Y-30712D01*
X18874Y-30783D01*
X18955Y-30839D01*
X19045Y-30878D01*
X19140Y-30899D01*
X19189Y-30900D01*
X19154Y-30900D01*
X19058Y-30918D01*
X18967Y-30955D01*
X18885Y-31008D01*
X18815Y-31077D01*
X18760Y-31158D01*
X18721Y-31248D01*
X18701Y-31344D01*
X18699Y-31442D01*
X18717Y-31538D01*
X18753Y-31630D01*
X18806Y-31712D01*
X18874Y-31783D01*
X18955Y-31839D01*
X19045Y-31878D01*
X19140Y-31899D01*
X19239Y-31901D01*
X19335Y-31884D01*
X19426Y-31848D01*
X19509Y-31796D01*
X19580Y-31728D01*
X19637Y-31648D01*
X19677Y-31559D01*
X19698Y-31463D01*
X19700Y-31351D01*
X19700Y-32525D01*
X17957Y-32525D01*
X17957Y-25205D01*
X17957Y-25201D01*
X17957Y-25200D01*
X17957Y-20803D01*
X17957Y-20800D01*
X17955Y-20782D01*
X17951Y-20734D01*
X17950Y-20731D01*
X17932Y-20668D01*
X17930Y-20664D01*
X17924Y-20652D01*
X17899Y-20605D01*
X17897Y-20603D01*
X17897Y-20602D01*
X17879Y-20581D01*
X17856Y-20551D01*
X17853Y-20548D01*
X17852Y-20547D01*
X15535Y-18231D01*
X15532Y-18223D01*
X15491Y-18162D01*
X15439Y-18110D01*
X15378Y-18069D01*
X15311Y-18041D01*
X15239Y-18026D01*
X15166Y-18026D01*
X15094Y-18040D01*
X15026Y-18067D01*
X14964Y-18107D01*
X14912Y-18159D01*
X14871Y-18219D01*
X14842Y-18287D01*
X14826Y-18358D01*
X14826Y-18432D01*
X14839Y-18504D01*
X14866Y-18572D01*
X14906Y-18634D01*
X14957Y-18686D01*
X15017Y-18728D01*
X15029Y-18733D01*
X17243Y-20947D01*
X17243Y-25052D01*
X16930Y-25365D01*
X16926Y-25367D01*
X16864Y-25407D01*
X16812Y-25459D01*
X16771Y-25519D01*
X16742Y-25587D01*
X16726Y-25658D01*
X16726Y-25732D01*
X16739Y-25804D01*
X16766Y-25872D01*
X16806Y-25934D01*
X16857Y-25986D01*
X16917Y-26028D01*
X16984Y-26058D01*
X17056Y-26073D01*
X17129Y-26075D01*
X17201Y-26062D01*
X17270Y-26035D01*
X17332Y-25996D01*
X17385Y-25945D01*
X17427Y-25885D01*
X17433Y-25870D01*
X17849Y-25455D01*
X17850Y-25455D01*
X17850Y-25454D01*
X17852Y-25453D01*
X17859Y-25444D01*
X17895Y-25402D01*
X17896Y-25399D01*
X17928Y-25341D01*
X17929Y-25337D01*
X17949Y-25274D01*
X17949Y-25272D01*
X17950Y-25270D01*
X17953Y-25233D01*
X17957Y-25205D01*
X17957Y-32525D01*
X14549Y-32525D01*
X14549Y-11157D01*
X14533Y-11051D01*
X14500Y-10958D01*
X14500Y-09167D01*
X14481Y-09071D01*
X14444Y-08980D01*
X14389Y-08898D01*
X14320Y-08829D01*
X14239Y-08774D01*
X14149Y-08736D01*
X14053Y-08716D01*
X13954Y-08716D01*
X13858Y-08734D01*
X13767Y-08771D01*
X13685Y-08824D01*
X13615Y-08893D01*
X13560Y-08974D01*
X13521Y-09064D01*
X13501Y-09160D01*
X13499Y-09258D01*
X13517Y-09354D01*
X13553Y-09446D01*
X13606Y-09528D01*
X13674Y-09599D01*
X13755Y-09655D01*
X13845Y-09694D01*
X13940Y-09715D01*
X14039Y-09717D01*
X14135Y-09700D01*
X14226Y-09664D01*
X14309Y-09612D01*
X14380Y-09544D01*
X14437Y-09464D01*
X14477Y-09375D01*
X14498Y-09279D01*
X14500Y-09167D01*
X14500Y-10958D01*
X14497Y-10950D01*
X14472Y-10903D01*
X14378Y-10876D01*
X14308Y-10946D01*
X14308Y-10806D01*
X14281Y-10712D01*
X14184Y-10666D01*
X14080Y-10640D01*
X13973Y-10635D01*
X13867Y-10651D01*
X13766Y-10687D01*
X13719Y-10712D01*
X13692Y-10806D01*
X14000Y-11113D01*
X14308Y-10806D01*
X14308Y-10946D01*
X14071Y-11184D01*
X14378Y-11492D01*
X14472Y-11465D01*
X14518Y-11368D01*
X14544Y-11264D01*
X14549Y-11157D01*
X14549Y-32525D01*
X14396Y-32525D01*
X14396Y-19756D01*
X14396Y-19717D01*
X14396Y-19244D01*
X14388Y-19206D01*
X14373Y-19170D01*
X14352Y-19137D01*
X14324Y-19110D01*
X14308Y-19099D01*
X14308Y-11562D01*
X14000Y-11255D01*
X13929Y-11325D01*
X13929Y-11184D01*
X13622Y-10876D01*
X13528Y-10903D01*
X13482Y-11000D01*
X13456Y-11104D01*
X13451Y-11211D01*
X13467Y-11317D01*
X13503Y-11418D01*
X13528Y-11465D01*
X13622Y-11492D01*
X13929Y-11184D01*
X13929Y-11325D01*
X13692Y-11562D01*
X13719Y-11656D01*
X13816Y-11702D01*
X13920Y-11728D01*
X14027Y-11733D01*
X14133Y-11717D01*
X14234Y-11681D01*
X14281Y-11656D01*
X14308Y-11562D01*
X14308Y-19099D01*
X14292Y-19088D01*
X14256Y-19073D01*
X14217Y-19065D01*
X14178Y-19065D01*
X13150Y-19065D01*
X13150Y-16756D01*
X13150Y-15756D01*
X13133Y-15669D01*
X13099Y-15588D01*
X13050Y-15514D01*
X12988Y-15452D01*
X12915Y-15402D01*
X12834Y-15368D01*
X12747Y-15350D01*
X12659Y-15350D01*
X12572Y-15366D01*
X12491Y-15399D01*
X12417Y-15448D01*
X12354Y-15509D01*
X12304Y-15582D01*
X12269Y-15663D01*
X12251Y-15749D01*
X12249Y-15838D01*
X12265Y-15925D01*
X12298Y-16007D01*
X12346Y-16081D01*
X12407Y-16144D01*
X12479Y-16195D01*
X12560Y-16230D01*
X12646Y-16249D01*
X12735Y-16251D01*
X12821Y-16236D01*
X12904Y-16204D01*
X12978Y-16156D01*
X13042Y-16096D01*
X13093Y-16023D01*
X13129Y-15943D01*
X13149Y-15857D01*
X13150Y-15756D01*
X13150Y-16756D01*
X13133Y-16669D01*
X13099Y-16588D01*
X13050Y-16514D01*
X12988Y-16452D01*
X12915Y-16402D01*
X12834Y-16368D01*
X12747Y-16350D01*
X12659Y-16350D01*
X12572Y-16366D01*
X12491Y-16399D01*
X12417Y-16448D01*
X12354Y-16509D01*
X12304Y-16582D01*
X12269Y-16663D01*
X12251Y-16749D01*
X12249Y-16838D01*
X12265Y-16925D01*
X12298Y-17007D01*
X12346Y-17081D01*
X12407Y-17144D01*
X12479Y-17195D01*
X12560Y-17230D01*
X12646Y-17249D01*
X12735Y-17251D01*
X12821Y-17236D01*
X12904Y-17204D01*
X12978Y-17156D01*
X13042Y-17096D01*
X13093Y-17023D01*
X13129Y-16943D01*
X13149Y-16857D01*
X13150Y-16756D01*
X13150Y-19065D01*
X12925Y-19065D01*
X12870Y-19010D01*
X12768Y-18941D01*
X12653Y-18892D01*
X12532Y-18867D01*
X12407Y-18867D01*
X12285Y-18890D01*
X12170Y-18936D01*
X12067Y-19004D01*
X11978Y-19091D01*
X11908Y-19194D01*
X11859Y-19308D01*
X11833Y-19429D01*
X11831Y-19553D01*
X11854Y-19675D01*
X11899Y-19791D01*
X11967Y-19895D01*
X12053Y-19984D01*
X12155Y-20055D01*
X12268Y-20105D01*
X12390Y-20132D01*
X12514Y-20134D01*
X12636Y-20113D01*
X12752Y-20068D01*
X12857Y-20001D01*
X12926Y-19935D01*
X14217Y-19935D01*
X14255Y-19927D01*
X14291Y-19912D01*
X14324Y-19891D01*
X14351Y-19863D01*
X14373Y-19831D01*
X14388Y-19795D01*
X14396Y-19756D01*
X14396Y-32525D01*
X14295Y-32525D01*
X14295Y-31672D01*
X14295Y-31623D01*
X14295Y-30812D01*
X14295Y-30588D01*
X14295Y-29777D01*
X14295Y-29728D01*
X14285Y-29680D01*
X14266Y-29635D01*
X14238Y-29595D01*
X14203Y-29560D01*
X14162Y-29533D01*
X14117Y-29514D01*
X14069Y-29505D01*
X13950Y-29505D01*
X13950Y-24851D01*
X13931Y-24755D01*
X13894Y-24664D01*
X13839Y-24582D01*
X13770Y-24513D01*
X13689Y-24458D01*
X13599Y-24420D01*
X13503Y-24400D01*
X13494Y-24400D01*
X13585Y-24384D01*
X13676Y-24348D01*
X13759Y-24296D01*
X13830Y-24228D01*
X13887Y-24148D01*
X13927Y-24059D01*
X13948Y-23963D01*
X13950Y-23851D01*
X13931Y-23755D01*
X13894Y-23664D01*
X13839Y-23582D01*
X13770Y-23513D01*
X13689Y-23458D01*
X13599Y-23420D01*
X13503Y-23400D01*
X13404Y-23400D01*
X13308Y-23418D01*
X13217Y-23455D01*
X13135Y-23508D01*
X13065Y-23577D01*
X13052Y-23595D01*
X13041Y-23592D01*
X12971Y-23662D01*
X12971Y-23522D01*
X12944Y-23428D01*
X12847Y-23382D01*
X12743Y-23356D01*
X12636Y-23351D01*
X12530Y-23367D01*
X12429Y-23403D01*
X12382Y-23428D01*
X12355Y-23522D01*
X12663Y-23829D01*
X12971Y-23522D01*
X12971Y-23662D01*
X12734Y-23900D01*
X13041Y-24208D01*
X13051Y-24204D01*
X13056Y-24212D01*
X13124Y-24283D01*
X13205Y-24339D01*
X13295Y-24378D01*
X13390Y-24399D01*
X13439Y-24400D01*
X13404Y-24400D01*
X13308Y-24418D01*
X13217Y-24455D01*
X13135Y-24508D01*
X13065Y-24577D01*
X13056Y-24589D01*
X13052Y-24582D01*
X12983Y-24513D01*
X12902Y-24458D01*
X12821Y-24423D01*
X12897Y-24397D01*
X12944Y-24372D01*
X12971Y-24278D01*
X12663Y-23971D01*
X12592Y-24041D01*
X12592Y-23900D01*
X12330Y-23637D01*
X12330Y-21966D01*
X12302Y-21826D01*
X12247Y-21693D01*
X12168Y-21574D01*
X12067Y-21473D01*
X11949Y-21393D01*
X11817Y-21337D01*
X11676Y-21308D01*
X11533Y-21308D01*
X11392Y-21334D01*
X11260Y-21388D01*
X11168Y-21448D01*
X11168Y-19438D01*
X11144Y-19316D01*
X11097Y-19201D01*
X11028Y-19098D01*
X10940Y-19010D01*
X10900Y-18982D01*
X10900Y-13551D01*
X10881Y-13455D01*
X10844Y-13364D01*
X10789Y-13282D01*
X10720Y-13213D01*
X10639Y-13158D01*
X10549Y-13120D01*
X10453Y-13100D01*
X10444Y-13100D01*
X10535Y-13084D01*
X10626Y-13048D01*
X10709Y-12996D01*
X10780Y-12928D01*
X10837Y-12848D01*
X10877Y-12759D01*
X10898Y-12663D01*
X10900Y-12551D01*
X10881Y-12455D01*
X10844Y-12364D01*
X10789Y-12282D01*
X10720Y-12213D01*
X10639Y-12158D01*
X10549Y-12120D01*
X10453Y-12100D01*
X10444Y-12100D01*
X10535Y-12084D01*
X10626Y-12048D01*
X10709Y-11996D01*
X10780Y-11928D01*
X10837Y-11848D01*
X10877Y-11759D01*
X10898Y-11663D01*
X10900Y-11551D01*
X10881Y-11455D01*
X10844Y-11364D01*
X10789Y-11282D01*
X10720Y-11213D01*
X10639Y-11158D01*
X10549Y-11120D01*
X10453Y-11100D01*
X10444Y-11100D01*
X10535Y-11084D01*
X10626Y-11048D01*
X10709Y-10996D01*
X10780Y-10928D01*
X10837Y-10848D01*
X10877Y-10759D01*
X10898Y-10663D01*
X10900Y-10551D01*
X10881Y-10455D01*
X10844Y-10364D01*
X10789Y-10282D01*
X10720Y-10213D01*
X10639Y-10158D01*
X10549Y-10120D01*
X10453Y-10100D01*
X10444Y-10100D01*
X10535Y-10084D01*
X10626Y-10048D01*
X10709Y-09996D01*
X10780Y-09928D01*
X10837Y-09848D01*
X10877Y-09759D01*
X10898Y-09663D01*
X10900Y-09551D01*
X10881Y-09455D01*
X10844Y-09364D01*
X10789Y-09282D01*
X10720Y-09213D01*
X10639Y-09158D01*
X10549Y-09120D01*
X10453Y-09100D01*
X10354Y-09100D01*
X10258Y-09118D01*
X10167Y-09155D01*
X10085Y-09208D01*
X10015Y-09277D01*
X09960Y-09358D01*
X09923Y-09441D01*
X09897Y-09366D01*
X09872Y-09319D01*
X09778Y-09292D01*
X09708Y-09362D01*
X09708Y-09222D01*
X09681Y-09128D01*
X09584Y-09082D01*
X09480Y-09056D01*
X09373Y-09051D01*
X09267Y-09067D01*
X09166Y-09103D01*
X09119Y-09128D01*
X09092Y-09222D01*
X09400Y-09529D01*
X09708Y-09222D01*
X09708Y-09362D01*
X09471Y-09600D01*
X09778Y-09908D01*
X09872Y-09881D01*
X09918Y-09784D01*
X09924Y-09757D01*
X09953Y-09830D01*
X10006Y-09912D01*
X10074Y-09983D01*
X10155Y-10039D01*
X10245Y-10078D01*
X10340Y-10099D01*
X10389Y-10100D01*
X10354Y-10100D01*
X10258Y-10118D01*
X10167Y-10155D01*
X10085Y-10208D01*
X10015Y-10277D01*
X09960Y-10358D01*
X09921Y-10448D01*
X09901Y-10544D01*
X09900Y-10551D01*
X09881Y-10455D01*
X09844Y-10364D01*
X09789Y-10282D01*
X09720Y-10213D01*
X09639Y-10158D01*
X09558Y-10123D01*
X09634Y-10097D01*
X09681Y-10072D01*
X09708Y-09978D01*
X09400Y-09671D01*
X09329Y-09741D01*
X09329Y-09600D01*
X09022Y-09292D01*
X08928Y-09319D01*
X08882Y-09416D01*
X08856Y-09520D01*
X08851Y-09627D01*
X08867Y-09733D01*
X08903Y-09834D01*
X08928Y-09881D01*
X09022Y-09908D01*
X09329Y-09600D01*
X09329Y-09741D01*
X09092Y-09978D01*
X09119Y-10072D01*
X09216Y-10118D01*
X09242Y-10124D01*
X09167Y-10155D01*
X09085Y-10208D01*
X09015Y-10277D01*
X08960Y-10358D01*
X08921Y-10448D01*
X08901Y-10544D01*
X08899Y-10642D01*
X08917Y-10738D01*
X08953Y-10830D01*
X09006Y-10912D01*
X09074Y-10983D01*
X09155Y-11039D01*
X09241Y-11076D01*
X09166Y-11103D01*
X09119Y-11128D01*
X09092Y-11222D01*
X09400Y-11529D01*
X09708Y-11222D01*
X09681Y-11128D01*
X09584Y-11082D01*
X09557Y-11075D01*
X09626Y-11048D01*
X09709Y-10996D01*
X09780Y-10928D01*
X09837Y-10848D01*
X09877Y-10759D01*
X09898Y-10663D01*
X09900Y-10551D01*
X09899Y-10642D01*
X09917Y-10738D01*
X09953Y-10830D01*
X10006Y-10912D01*
X10074Y-10983D01*
X10155Y-11039D01*
X10245Y-11078D01*
X10340Y-11099D01*
X10389Y-11100D01*
X10354Y-11100D01*
X10258Y-11118D01*
X10167Y-11155D01*
X10085Y-11208D01*
X10015Y-11277D01*
X09960Y-11358D01*
X09923Y-11441D01*
X09897Y-11366D01*
X09872Y-11319D01*
X09778Y-11292D01*
X09471Y-11600D01*
X09778Y-11908D01*
X09872Y-11881D01*
X09918Y-11784D01*
X09924Y-11757D01*
X09953Y-11830D01*
X10006Y-11912D01*
X10074Y-11983D01*
X10155Y-12039D01*
X10245Y-12078D01*
X10340Y-12099D01*
X10389Y-12100D01*
X10354Y-12100D01*
X10258Y-12118D01*
X10167Y-12155D01*
X10085Y-12208D01*
X10015Y-12277D01*
X09960Y-12358D01*
X09923Y-12441D01*
X09897Y-12366D01*
X09872Y-12319D01*
X09778Y-12292D01*
X09708Y-12362D01*
X09708Y-12222D01*
X09681Y-12128D01*
X09623Y-12100D01*
X09634Y-12097D01*
X09681Y-12072D01*
X09708Y-11978D01*
X09400Y-11671D01*
X09329Y-11741D01*
X09329Y-11600D01*
X09022Y-11292D01*
X08928Y-11319D01*
X08882Y-11416D01*
X08856Y-11520D01*
X08851Y-11627D01*
X08867Y-11733D01*
X08903Y-11834D01*
X08928Y-11881D01*
X09022Y-11908D01*
X09329Y-11600D01*
X09329Y-11741D01*
X09092Y-11978D01*
X09119Y-12072D01*
X09176Y-12099D01*
X09166Y-12103D01*
X09119Y-12128D01*
X09092Y-12222D01*
X09400Y-12529D01*
X09708Y-12222D01*
X09708Y-12362D01*
X09471Y-12600D01*
X09778Y-12908D01*
X09872Y-12881D01*
X09918Y-12784D01*
X09924Y-12757D01*
X09953Y-12830D01*
X10006Y-12912D01*
X10074Y-12983D01*
X10155Y-13039D01*
X10245Y-13078D01*
X10340Y-13099D01*
X10389Y-13100D01*
X10354Y-13100D01*
X10258Y-13118D01*
X10167Y-13155D01*
X10085Y-13208D01*
X10015Y-13277D01*
X09960Y-13358D01*
X09921Y-13448D01*
X09901Y-13544D01*
X09899Y-13642D01*
X09899Y-13280D01*
X09891Y-13242D01*
X09876Y-13206D01*
X09855Y-13173D01*
X09827Y-13146D01*
X09795Y-13124D01*
X09759Y-13109D01*
X09720Y-13101D01*
X09681Y-13101D01*
X09622Y-13101D01*
X09634Y-13097D01*
X09681Y-13072D01*
X09708Y-12978D01*
X09400Y-12671D01*
X09329Y-12741D01*
X09329Y-12600D01*
X09022Y-12292D01*
X08928Y-12319D01*
X08882Y-12416D01*
X08856Y-12520D01*
X08851Y-12627D01*
X08867Y-12733D01*
X08903Y-12834D01*
X08928Y-12881D01*
X09022Y-12908D01*
X09329Y-12600D01*
X09329Y-12741D01*
X09092Y-12978D01*
X09119Y-13072D01*
X09180Y-13101D01*
X09080Y-13101D01*
X09042Y-13109D01*
X09006Y-13124D01*
X08973Y-13145D01*
X08946Y-13173D01*
X08924Y-13205D01*
X08909Y-13241D01*
X08901Y-13280D01*
X08901Y-13319D01*
X08901Y-13920D01*
X08909Y-13958D01*
X08924Y-13994D01*
X08945Y-14027D01*
X08973Y-14054D01*
X09005Y-14076D01*
X09041Y-14091D01*
X09080Y-14099D01*
X09119Y-14099D01*
X09720Y-14099D01*
X09758Y-14091D01*
X09794Y-14076D01*
X09827Y-14055D01*
X09854Y-14027D01*
X09876Y-13995D01*
X09891Y-13959D01*
X09899Y-13920D01*
X09899Y-13881D01*
X09899Y-13642D01*
X09917Y-13738D01*
X09953Y-13830D01*
X10006Y-13912D01*
X10074Y-13983D01*
X10155Y-14039D01*
X10245Y-14078D01*
X10340Y-14099D01*
X10439Y-14101D01*
X10535Y-14084D01*
X10626Y-14048D01*
X10709Y-13996D01*
X10780Y-13928D01*
X10837Y-13848D01*
X10877Y-13759D01*
X10898Y-13663D01*
X10900Y-13551D01*
X10900Y-18982D01*
X10838Y-18941D01*
X10723Y-18892D01*
X10602Y-18867D01*
X10477Y-18867D01*
X10355Y-18890D01*
X10240Y-18936D01*
X10137Y-19004D01*
X10074Y-19065D01*
X08783Y-19065D01*
X08745Y-19073D01*
X08709Y-19088D01*
X08676Y-19109D01*
X08649Y-19137D01*
X08627Y-19169D01*
X08612Y-19205D01*
X08604Y-19244D01*
X08604Y-19283D01*
X08604Y-19756D01*
X08612Y-19794D01*
X08627Y-19830D01*
X08648Y-19863D01*
X08676Y-19890D01*
X08708Y-19912D01*
X08744Y-19927D01*
X08783Y-19935D01*
X08822Y-19935D01*
X10075Y-19935D01*
X10123Y-19984D01*
X10225Y-20055D01*
X10338Y-20105D01*
X10460Y-20132D01*
X10584Y-20134D01*
X10706Y-20113D01*
X10822Y-20068D01*
X10927Y-20001D01*
X11016Y-19916D01*
X11088Y-19814D01*
X11138Y-19701D01*
X11166Y-19580D01*
X11168Y-19438D01*
X11168Y-21448D01*
X11140Y-21467D01*
X11038Y-21567D01*
X10957Y-21685D01*
X10901Y-21817D01*
X10871Y-21957D01*
X10869Y-22100D01*
X10895Y-22241D01*
X10948Y-22374D01*
X11025Y-22494D01*
X11125Y-22597D01*
X11243Y-22679D01*
X11374Y-22736D01*
X11514Y-22766D01*
X11657Y-22769D01*
X11798Y-22744D01*
X11931Y-22693D01*
X12052Y-22616D01*
X12156Y-22517D01*
X12238Y-22400D01*
X12296Y-22269D01*
X12328Y-22130D01*
X12330Y-21966D01*
X12330Y-23637D01*
X12285Y-23592D01*
X12191Y-23619D01*
X12145Y-23716D01*
X12119Y-23820D01*
X12114Y-23927D01*
X12130Y-24033D01*
X12166Y-24134D01*
X12191Y-24181D01*
X12285Y-24208D01*
X12592Y-23900D01*
X12592Y-24041D01*
X12355Y-24278D01*
X12382Y-24372D01*
X12479Y-24418D01*
X12505Y-24424D01*
X12430Y-24455D01*
X12348Y-24508D01*
X12278Y-24577D01*
X12223Y-24658D01*
X12184Y-24748D01*
X12164Y-24844D01*
X12162Y-24942D01*
X12180Y-25038D01*
X12216Y-25130D01*
X12269Y-25212D01*
X12337Y-25283D01*
X12418Y-25339D01*
X12508Y-25378D01*
X12603Y-25399D01*
X12702Y-25401D01*
X12798Y-25384D01*
X12889Y-25348D01*
X12972Y-25296D01*
X13043Y-25228D01*
X13055Y-25210D01*
X13056Y-25212D01*
X13124Y-25283D01*
X13205Y-25339D01*
X13295Y-25378D01*
X13390Y-25399D01*
X13489Y-25401D01*
X13585Y-25384D01*
X13676Y-25348D01*
X13759Y-25296D01*
X13830Y-25228D01*
X13887Y-25148D01*
X13927Y-25059D01*
X13948Y-24963D01*
X13950Y-24851D01*
X13950Y-29505D01*
X13212Y-29505D01*
X13150Y-29567D01*
X13150Y-30650D01*
X14233Y-30650D01*
X14295Y-30588D01*
X14295Y-30812D01*
X14233Y-30750D01*
X13150Y-30750D01*
X13150Y-31833D01*
X13212Y-31895D01*
X14069Y-31895D01*
X14117Y-31886D01*
X14162Y-31867D01*
X14203Y-31840D01*
X14238Y-31805D01*
X14266Y-31765D01*
X14285Y-31720D01*
X14295Y-31672D01*
X14295Y-32525D01*
X13050Y-32525D01*
X13050Y-31833D01*
X13050Y-30750D01*
X13050Y-30650D01*
X13050Y-29567D01*
X12988Y-29505D01*
X12415Y-29505D01*
X12471Y-29452D01*
X12600Y-29268D01*
X12692Y-29063D01*
X12741Y-28844D01*
X12745Y-28588D01*
X12701Y-28368D01*
X12616Y-28160D01*
X12492Y-27973D01*
X12334Y-27814D01*
X12330Y-27811D01*
X12330Y-26690D01*
X12302Y-26550D01*
X12247Y-26417D01*
X12168Y-26298D01*
X12067Y-26197D01*
X11949Y-26117D01*
X11817Y-26061D01*
X11676Y-26032D01*
X11533Y-26032D01*
X11392Y-26058D01*
X11260Y-26112D01*
X11140Y-26191D01*
X11038Y-26291D01*
X10957Y-26409D01*
X10901Y-26541D01*
X10871Y-26681D01*
X10869Y-26824D01*
X10895Y-26965D01*
X10948Y-27098D01*
X11025Y-27218D01*
X11125Y-27321D01*
X11243Y-27403D01*
X11374Y-27460D01*
X11514Y-27490D01*
X11657Y-27493D01*
X11798Y-27468D01*
X11931Y-27417D01*
X12052Y-27340D01*
X12156Y-27241D01*
X12238Y-27124D01*
X12296Y-26993D01*
X12328Y-26854D01*
X12330Y-26690D01*
X12330Y-27811D01*
X12147Y-27688D01*
X11940Y-27601D01*
X11721Y-27556D01*
X11496Y-27554D01*
X11275Y-27596D01*
X11067Y-27680D01*
X10879Y-27803D01*
X10719Y-27960D01*
X10592Y-28146D01*
X10503Y-28352D01*
X10457Y-28571D01*
X10454Y-28796D01*
X10494Y-29017D01*
X10577Y-29226D01*
X10698Y-29414D01*
X10795Y-29515D01*
X10700Y-29506D01*
X10468Y-29529D01*
X10245Y-29596D01*
X10040Y-29706D01*
X09936Y-29865D01*
X10700Y-30629D01*
X11464Y-29865D01*
X11446Y-29838D01*
X11464Y-29842D01*
X11688Y-29847D01*
X11905Y-29808D01*
X11905Y-30588D01*
X11967Y-30650D01*
X13050Y-30650D01*
X13050Y-30750D01*
X11967Y-30750D01*
X11905Y-30812D01*
X11905Y-31623D01*
X11905Y-31672D01*
X11915Y-31720D01*
X11934Y-31765D01*
X11962Y-31805D01*
X11997Y-31840D01*
X12038Y-31867D01*
X12083Y-31886D01*
X12131Y-31895D01*
X12988Y-31895D01*
X13050Y-31833D01*
X13050Y-32525D01*
X11894Y-32525D01*
X11894Y-30700D01*
X11871Y-30468D01*
X11804Y-30245D01*
X11694Y-30040D01*
X11535Y-29936D01*
X10771Y-30700D01*
X11535Y-31464D01*
X11694Y-31360D01*
X11804Y-31155D01*
X11871Y-30932D01*
X11894Y-30700D01*
X11894Y-32525D01*
X11464Y-32525D01*
X11464Y-31535D01*
X10700Y-30771D01*
X10629Y-30842D01*
X10629Y-30700D01*
X09865Y-29936D01*
X09706Y-30040D01*
X09596Y-30245D01*
X09529Y-30468D01*
X09506Y-30700D01*
X09529Y-30932D01*
X09596Y-31155D01*
X09706Y-31360D01*
X09865Y-31464D01*
X10629Y-30700D01*
X10629Y-30842D01*
X09936Y-31535D01*
X10040Y-31694D01*
X10245Y-31804D01*
X10468Y-31871D01*
X10700Y-31894D01*
X10932Y-31871D01*
X11155Y-31804D01*
X11360Y-31694D01*
X11464Y-31535D01*
X11464Y-32525D01*
X07775Y-32525D01*
X07775Y-07304D01*
X07775Y-07300D01*
X07775Y-05275D01*
X09996Y-05275D01*
X10000Y-05275D01*
X29125Y-05275D01*
X29125Y-32525D01*
X29125Y-32525D01*
G37*
G54D23*
X29125Y-32525D02*
X28473Y-32525D01*
X28473Y-30774D01*
X28457Y-30663D01*
X28424Y-30568D01*
X28424Y-29749D01*
X28404Y-29648D01*
X28365Y-29553D01*
X28308Y-29468D01*
X28236Y-29395D01*
X28151Y-29337D01*
X28061Y-29299D01*
X28137Y-29270D01*
X28224Y-29215D01*
X28298Y-29144D01*
X28358Y-29060D01*
X28399Y-28967D01*
X28422Y-28866D01*
X28424Y-28749D01*
X28404Y-28648D01*
X28365Y-28553D01*
X28308Y-28468D01*
X28236Y-28395D01*
X28151Y-28337D01*
X28061Y-28299D01*
X28137Y-28270D01*
X28224Y-28215D01*
X28298Y-28144D01*
X28358Y-28060D01*
X28399Y-27967D01*
X28422Y-27866D01*
X28424Y-27749D01*
X28404Y-27648D01*
X28365Y-27553D01*
X28308Y-27468D01*
X28236Y-27395D01*
X28151Y-27337D01*
X28061Y-27299D01*
X28137Y-27270D01*
X28224Y-27215D01*
X28298Y-27144D01*
X28358Y-27060D01*
X28399Y-26967D01*
X28422Y-26866D01*
X28424Y-26749D01*
X28404Y-26648D01*
X28365Y-26553D01*
X28308Y-26468D01*
X28236Y-26395D01*
X28151Y-26337D01*
X28061Y-26299D01*
X28137Y-26270D01*
X28224Y-26215D01*
X28298Y-26144D01*
X28358Y-26060D01*
X28399Y-25967D01*
X28422Y-25866D01*
X28424Y-25749D01*
X28404Y-25648D01*
X28365Y-25553D01*
X28308Y-25468D01*
X28236Y-25395D01*
X28151Y-25337D01*
X28061Y-25299D01*
X28137Y-25270D01*
X28224Y-25215D01*
X28298Y-25144D01*
X28358Y-25060D01*
X28399Y-24967D01*
X28422Y-24866D01*
X28424Y-24749D01*
X28404Y-24648D01*
X28365Y-24553D01*
X28308Y-24468D01*
X28236Y-24395D01*
X28151Y-24337D01*
X28061Y-24299D01*
X28137Y-24270D01*
X28224Y-24215D01*
X28298Y-24144D01*
X28358Y-24060D01*
X28399Y-23967D01*
X28422Y-23866D01*
X28424Y-23749D01*
X28404Y-23648D01*
X28365Y-23553D01*
X28308Y-23468D01*
X28236Y-23395D01*
X28151Y-23337D01*
X28061Y-23299D01*
X28137Y-23270D01*
X28224Y-23215D01*
X28298Y-23144D01*
X28358Y-23060D01*
X28399Y-22967D01*
X28422Y-22866D01*
X28424Y-22749D01*
X28404Y-22648D01*
X28365Y-22553D01*
X28308Y-22468D01*
X28236Y-22395D01*
X28151Y-22337D01*
X28061Y-22299D01*
X28137Y-22270D01*
X28224Y-22215D01*
X28298Y-22144D01*
X28358Y-22060D01*
X28399Y-21967D01*
X28422Y-21866D01*
X28424Y-21749D01*
X28404Y-21648D01*
X28365Y-21553D01*
X28308Y-21468D01*
X28236Y-21395D01*
X28151Y-21337D01*
X28061Y-21299D01*
X28137Y-21270D01*
X28224Y-21215D01*
X28298Y-21144D01*
X28358Y-21060D01*
X28399Y-20967D01*
X28422Y-20866D01*
X28424Y-20749D01*
X28404Y-20648D01*
X28365Y-20553D01*
X28308Y-20468D01*
X28236Y-20395D01*
X28151Y-20337D01*
X28061Y-20299D01*
X28137Y-20270D01*
X28224Y-20215D01*
X28298Y-20144D01*
X28358Y-20060D01*
X28399Y-19967D01*
X28422Y-19866D01*
X28424Y-19749D01*
X28404Y-19648D01*
X28365Y-19553D01*
X28308Y-19468D01*
X28236Y-19395D01*
X28151Y-19337D01*
X28061Y-19299D01*
X28137Y-19270D01*
X28224Y-19215D01*
X28298Y-19144D01*
X28358Y-19060D01*
X28399Y-18967D01*
X28422Y-18866D01*
X28424Y-18749D01*
X28404Y-18648D01*
X28365Y-18553D01*
X28308Y-18468D01*
X28236Y-18395D01*
X28151Y-18337D01*
X28061Y-18299D01*
X28137Y-18270D01*
X28224Y-18215D01*
X28298Y-18144D01*
X28358Y-18060D01*
X28399Y-17967D01*
X28422Y-17866D01*
X28424Y-17749D01*
X28404Y-17648D01*
X28365Y-17553D01*
X28308Y-17468D01*
X28236Y-17395D01*
X28151Y-17337D01*
X28061Y-17299D01*
X28137Y-17270D01*
X28224Y-17215D01*
X28298Y-17144D01*
X28358Y-17060D01*
X28399Y-16967D01*
X28422Y-16866D01*
X28424Y-16749D01*
X28404Y-16648D01*
X28365Y-16553D01*
X28308Y-16468D01*
X28236Y-16395D01*
X28151Y-16337D01*
X28061Y-16299D01*
X28137Y-16270D01*
X28224Y-16215D01*
X28298Y-16144D01*
X28358Y-16060D01*
X28399Y-15967D01*
X28422Y-15866D01*
X28424Y-15749D01*
X28404Y-15648D01*
X28365Y-15553D01*
X28308Y-15468D01*
X28236Y-15395D01*
X28151Y-15337D01*
X28061Y-15299D01*
X28137Y-15270D01*
X28224Y-15215D01*
X28298Y-15144D01*
X28358Y-15060D01*
X28399Y-14967D01*
X28422Y-14866D01*
X28424Y-14749D01*
X28404Y-14648D01*
X28365Y-14553D01*
X28308Y-14468D01*
X28236Y-14395D01*
X28151Y-14337D01*
X28061Y-14299D01*
X28137Y-14270D01*
X28224Y-14215D01*
X28298Y-14144D01*
X28358Y-14060D01*
X28399Y-13967D01*
X28422Y-13866D01*
X28424Y-13749D01*
X28404Y-13648D01*
X28365Y-13553D01*
X28308Y-13468D01*
X28236Y-13395D01*
X28151Y-13337D01*
X28061Y-13299D01*
X28137Y-13270D01*
X28224Y-13215D01*
X28298Y-13144D01*
X28358Y-13060D01*
X28399Y-12967D01*
X28422Y-12866D01*
X28424Y-12749D01*
X28404Y-12648D01*
X28365Y-12553D01*
X28308Y-12468D01*
X28236Y-12395D01*
X28151Y-12337D01*
X28061Y-12299D01*
X28137Y-12270D01*
X28224Y-12215D01*
X28298Y-12144D01*
X28358Y-12060D01*
X28399Y-11967D01*
X28422Y-11866D01*
X28424Y-11749D01*
X28404Y-11648D01*
X28365Y-11553D01*
X28308Y-11468D01*
X28236Y-11395D01*
X28151Y-11337D01*
X28061Y-11299D01*
X28137Y-11270D01*
X28224Y-11215D01*
X28298Y-11144D01*
X28358Y-11060D01*
X28399Y-10967D01*
X28422Y-10866D01*
X28424Y-10749D01*
X28404Y-10648D01*
X28365Y-10553D01*
X28308Y-10468D01*
X28236Y-10395D01*
X28151Y-10337D01*
X28061Y-10299D01*
X28137Y-10270D01*
X28224Y-10215D01*
X28298Y-10144D01*
X28358Y-10060D01*
X28399Y-09967D01*
X28422Y-09866D01*
X28424Y-09749D01*
X28404Y-09648D01*
X28365Y-09553D01*
X28308Y-09468D01*
X28236Y-09395D01*
X28151Y-09337D01*
X28061Y-09299D01*
X28137Y-09270D01*
X28224Y-09215D01*
X28298Y-09144D01*
X28358Y-09060D01*
X28399Y-08967D01*
X28422Y-08866D01*
X28424Y-08749D01*
X28404Y-08648D01*
X28365Y-08553D01*
X28308Y-08468D01*
X28236Y-08395D01*
X28151Y-08337D01*
X28061Y-08299D01*
X28137Y-08270D01*
X28224Y-08215D01*
X28298Y-08144D01*
X28358Y-08060D01*
X28399Y-07967D01*
X28422Y-07866D01*
X28424Y-07749D01*
X28404Y-07648D01*
X28365Y-07553D01*
X28308Y-07468D01*
X28236Y-07395D01*
X28151Y-07337D01*
X28061Y-07299D01*
X28137Y-07270D01*
X28224Y-07215D01*
X28298Y-07144D01*
X28358Y-07060D01*
X28399Y-06967D01*
X28422Y-06866D01*
X28424Y-06749D01*
X28404Y-06648D01*
X28365Y-06553D01*
X28308Y-06468D01*
X28236Y-06395D01*
X28151Y-06337D01*
X28056Y-06297D01*
X27955Y-06276D01*
X27853Y-06276D01*
X27752Y-06295D01*
X27656Y-06333D01*
X27570Y-06389D01*
X27497Y-06461D01*
X27439Y-06546D01*
X27399Y-06636D01*
X27365Y-06553D01*
X27308Y-06468D01*
X27236Y-06395D01*
X27151Y-06337D01*
X27056Y-06297D01*
X26955Y-06276D01*
X26853Y-06276D01*
X26752Y-06295D01*
X26656Y-06333D01*
X26570Y-06389D01*
X26497Y-06461D01*
X26439Y-06546D01*
X26398Y-06640D01*
X26377Y-06741D01*
X26375Y-06844D01*
X26394Y-06945D01*
X26432Y-07040D01*
X26487Y-07127D01*
X26558Y-07201D01*
X26643Y-07259D01*
X26736Y-07300D01*
X26656Y-07333D01*
X26570Y-07389D01*
X26497Y-07461D01*
X26439Y-07546D01*
X26398Y-07640D01*
X26377Y-07741D01*
X26375Y-07844D01*
X26394Y-07945D01*
X26432Y-08040D01*
X26487Y-08127D01*
X26558Y-08201D01*
X26643Y-08259D01*
X26736Y-08300D01*
X26656Y-08333D01*
X26570Y-08389D01*
X26497Y-08461D01*
X26439Y-08546D01*
X26398Y-08640D01*
X26377Y-08741D01*
X26375Y-08844D01*
X26394Y-08945D01*
X26432Y-09040D01*
X26487Y-09127D01*
X26558Y-09201D01*
X26643Y-09259D01*
X26736Y-09300D01*
X26656Y-09333D01*
X26570Y-09389D01*
X26497Y-09461D01*
X26439Y-09546D01*
X26398Y-09640D01*
X26377Y-09741D01*
X26375Y-09844D01*
X26394Y-09945D01*
X26432Y-10040D01*
X26487Y-10127D01*
X26558Y-10201D01*
X26643Y-10259D01*
X26736Y-10300D01*
X26656Y-10333D01*
X26570Y-10389D01*
X26497Y-10461D01*
X26439Y-10546D01*
X26398Y-10640D01*
X26377Y-10741D01*
X26375Y-10844D01*
X26394Y-10945D01*
X26432Y-11040D01*
X26487Y-11127D01*
X26558Y-11201D01*
X26643Y-11259D01*
X26736Y-11300D01*
X26656Y-11333D01*
X26570Y-11389D01*
X26497Y-11461D01*
X26439Y-11546D01*
X26398Y-11640D01*
X26377Y-11741D01*
X26375Y-11844D01*
X26394Y-11945D01*
X26432Y-12040D01*
X26487Y-12127D01*
X26558Y-12201D01*
X26643Y-12259D01*
X26736Y-12300D01*
X26656Y-12333D01*
X26570Y-12389D01*
X26497Y-12461D01*
X26439Y-12546D01*
X26398Y-12640D01*
X26377Y-12741D01*
X26375Y-12844D01*
X26394Y-12945D01*
X26432Y-13040D01*
X26487Y-13127D01*
X26558Y-13201D01*
X26643Y-13259D01*
X26736Y-13300D01*
X26656Y-13333D01*
X26570Y-13389D01*
X26497Y-13461D01*
X26439Y-13546D01*
X26398Y-13640D01*
X26377Y-13741D01*
X26375Y-13844D01*
X26394Y-13945D01*
X26432Y-14040D01*
X26487Y-14127D01*
X26558Y-14201D01*
X26643Y-14259D01*
X26736Y-14300D01*
X26656Y-14333D01*
X26570Y-14389D01*
X26497Y-14461D01*
X26439Y-14546D01*
X26398Y-14640D01*
X26377Y-14741D01*
X26375Y-14844D01*
X26394Y-14945D01*
X26432Y-15040D01*
X26487Y-15127D01*
X26558Y-15201D01*
X26643Y-15259D01*
X26736Y-15300D01*
X26656Y-15333D01*
X26570Y-15389D01*
X26497Y-15461D01*
X26439Y-15546D01*
X26398Y-15640D01*
X26377Y-15741D01*
X26375Y-15844D01*
X26394Y-15945D01*
X26432Y-16040D01*
X26487Y-16127D01*
X26558Y-16201D01*
X26643Y-16259D01*
X26736Y-16300D01*
X26656Y-16333D01*
X26570Y-16389D01*
X26497Y-16461D01*
X26439Y-16546D01*
X26398Y-16640D01*
X26377Y-16741D01*
X26375Y-16844D01*
X26394Y-16945D01*
X26432Y-17040D01*
X26487Y-17127D01*
X26558Y-17201D01*
X26643Y-17259D01*
X26736Y-17300D01*
X26656Y-17333D01*
X26570Y-17389D01*
X26497Y-17461D01*
X26439Y-17546D01*
X26398Y-17640D01*
X26377Y-17741D01*
X26375Y-17844D01*
X26394Y-17945D01*
X26432Y-18040D01*
X26487Y-18127D01*
X26558Y-18201D01*
X26643Y-18259D01*
X26736Y-18300D01*
X26656Y-18333D01*
X26570Y-18389D01*
X26497Y-18461D01*
X26439Y-18546D01*
X26398Y-18640D01*
X26377Y-18741D01*
X26375Y-18844D01*
X26394Y-18945D01*
X26432Y-19040D01*
X26487Y-19127D01*
X26558Y-19201D01*
X26643Y-19259D01*
X26736Y-19300D01*
X26656Y-19333D01*
X26570Y-19389D01*
X26497Y-19461D01*
X26439Y-19546D01*
X26398Y-19640D01*
X26377Y-19741D01*
X26375Y-19844D01*
X26394Y-19945D01*
X26432Y-20040D01*
X26487Y-20127D01*
X26558Y-20201D01*
X26643Y-20259D01*
X26736Y-20300D01*
X26656Y-20333D01*
X26570Y-20389D01*
X26497Y-20461D01*
X26439Y-20546D01*
X26398Y-20640D01*
X26377Y-20741D01*
X26375Y-20844D01*
X26394Y-20945D01*
X26432Y-21040D01*
X26487Y-21127D01*
X26558Y-21201D01*
X26643Y-21259D01*
X26736Y-21300D01*
X26656Y-21333D01*
X26570Y-21389D01*
X26497Y-21461D01*
X26439Y-21546D01*
X26398Y-21640D01*
X26377Y-21741D01*
X26375Y-21844D01*
X26394Y-21945D01*
X26432Y-22040D01*
X26487Y-22127D01*
X26558Y-22201D01*
X26643Y-22259D01*
X26736Y-22300D01*
X26656Y-22333D01*
X26570Y-22389D01*
X26497Y-22461D01*
X26439Y-22546D01*
X26398Y-22640D01*
X26377Y-22741D01*
X26375Y-22844D01*
X26394Y-22945D01*
X26432Y-23040D01*
X26487Y-23127D01*
X26558Y-23201D01*
X26643Y-23259D01*
X26736Y-23300D01*
X26656Y-23333D01*
X26570Y-23389D01*
X26497Y-23461D01*
X26439Y-23546D01*
X26398Y-23640D01*
X26377Y-23741D01*
X26375Y-23844D01*
X26394Y-23945D01*
X26432Y-24040D01*
X26487Y-24127D01*
X26558Y-24201D01*
X26643Y-24259D01*
X26736Y-24300D01*
X26656Y-24333D01*
X26570Y-24389D01*
X26497Y-24461D01*
X26439Y-24546D01*
X26398Y-24640D01*
X26377Y-24741D01*
X26375Y-24844D01*
X26394Y-24945D01*
X26432Y-25040D01*
X26487Y-25127D01*
X26558Y-25201D01*
X26643Y-25259D01*
X26736Y-25300D01*
X26656Y-25333D01*
X26570Y-25389D01*
X26497Y-25461D01*
X26439Y-25546D01*
X26398Y-25640D01*
X26377Y-25741D01*
X26375Y-25844D01*
X26394Y-25945D01*
X26432Y-26040D01*
X26487Y-26127D01*
X26558Y-26201D01*
X26643Y-26259D01*
X26736Y-26300D01*
X26656Y-26333D01*
X26570Y-26389D01*
X26497Y-26461D01*
X26439Y-26546D01*
X26398Y-26640D01*
X26377Y-26741D01*
X26375Y-26844D01*
X26394Y-26945D01*
X26432Y-27040D01*
X26487Y-27127D01*
X26558Y-27201D01*
X26643Y-27259D01*
X26736Y-27300D01*
X26656Y-27333D01*
X26570Y-27389D01*
X26497Y-27461D01*
X26439Y-27546D01*
X26398Y-27640D01*
X26377Y-27741D01*
X26375Y-27844D01*
X26394Y-27945D01*
X26432Y-28040D01*
X26487Y-28127D01*
X26558Y-28201D01*
X26643Y-28259D01*
X26736Y-28300D01*
X26656Y-28333D01*
X26570Y-28389D01*
X26497Y-28461D01*
X26439Y-28546D01*
X26398Y-28640D01*
X26377Y-28741D01*
X26375Y-28844D01*
X26394Y-28945D01*
X26432Y-29040D01*
X26487Y-29127D01*
X26558Y-29201D01*
X26643Y-29259D01*
X26736Y-29300D01*
X26656Y-29333D01*
X26570Y-29389D01*
X26497Y-29461D01*
X26439Y-29546D01*
X26398Y-29640D01*
X26377Y-29741D01*
X26375Y-29844D01*
X26394Y-29945D01*
X26432Y-30040D01*
X26487Y-30127D01*
X26558Y-30201D01*
X26643Y-30259D01*
X26675Y-30273D01*
X26657Y-30280D01*
X26604Y-30308D01*
X26575Y-30404D01*
X26900Y-30729D01*
X27225Y-30404D01*
X27196Y-30308D01*
X27125Y-30274D01*
X27137Y-30270D01*
X27224Y-30215D01*
X27298Y-30144D01*
X27358Y-30060D01*
X27399Y-29967D01*
X27400Y-29960D01*
X27432Y-30040D01*
X27487Y-30127D01*
X27558Y-30201D01*
X27643Y-30259D01*
X27675Y-30273D01*
X27657Y-30280D01*
X27604Y-30308D01*
X27575Y-30404D01*
X27900Y-30729D01*
X28225Y-30404D01*
X28196Y-30308D01*
X28125Y-30274D01*
X28137Y-30270D01*
X28224Y-30215D01*
X28298Y-30144D01*
X28358Y-30060D01*
X28399Y-29967D01*
X28422Y-29866D01*
X28424Y-29749D01*
X28424Y-30568D01*
X28420Y-30557D01*
X28392Y-30504D01*
X28296Y-30475D01*
X27971Y-30800D01*
X28296Y-31125D01*
X28392Y-31096D01*
X28440Y-30994D01*
X28468Y-30886D01*
X28473Y-30774D01*
X28473Y-32525D01*
X28225Y-32525D01*
X28225Y-31196D01*
X27900Y-30871D01*
X27829Y-30942D01*
X27829Y-30800D01*
X27504Y-30475D01*
X27408Y-30504D01*
X27400Y-30520D01*
X27392Y-30504D01*
X27296Y-30475D01*
X26971Y-30800D01*
X27296Y-31125D01*
X27392Y-31096D01*
X27399Y-31079D01*
X27408Y-31096D01*
X27504Y-31125D01*
X27829Y-30800D01*
X27829Y-30942D01*
X27575Y-31196D01*
X27604Y-31292D01*
X27706Y-31340D01*
X27814Y-31368D01*
X27926Y-31373D01*
X28037Y-31357D01*
X28143Y-31320D01*
X28196Y-31292D01*
X28225Y-31196D01*
X28225Y-32525D01*
X27225Y-32525D01*
X27225Y-31196D01*
X26900Y-30871D01*
X26829Y-30942D01*
X26829Y-30800D01*
X26504Y-30475D01*
X26408Y-30504D01*
X26360Y-30606D01*
X26332Y-30714D01*
X26327Y-30826D01*
X26343Y-30937D01*
X26380Y-31043D01*
X26408Y-31096D01*
X26504Y-31125D01*
X26829Y-30800D01*
X26829Y-30942D01*
X26575Y-31196D01*
X26604Y-31292D01*
X26706Y-31340D01*
X26814Y-31368D01*
X26926Y-31373D01*
X27037Y-31357D01*
X27143Y-31320D01*
X27196Y-31292D01*
X27225Y-31196D01*
X27225Y-32525D01*
X23050Y-32525D01*
X23050Y-19527D01*
X23050Y-19478D01*
X23050Y-19312D01*
X23050Y-19088D01*
X23050Y-18922D01*
X23050Y-18873D01*
X23040Y-18825D01*
X23021Y-18780D01*
X22993Y-18740D01*
X22958Y-18705D01*
X22917Y-18678D01*
X22872Y-18659D01*
X22824Y-18650D01*
X22612Y-18650D01*
X22550Y-18712D01*
X22550Y-19150D01*
X22988Y-19150D01*
X23050Y-19088D01*
X23050Y-19312D01*
X22988Y-19250D01*
X22550Y-19250D01*
X22550Y-19688D01*
X22612Y-19750D01*
X22824Y-19750D01*
X22872Y-19741D01*
X22917Y-19722D01*
X22958Y-19695D01*
X22993Y-19660D01*
X23021Y-19620D01*
X23040Y-19575D01*
X23050Y-19527D01*
X23050Y-32525D01*
X22450Y-32525D01*
X22450Y-19688D01*
X22450Y-19300D01*
X22450Y-19250D01*
X22450Y-19150D01*
X22450Y-19100D01*
X22450Y-18712D01*
X22388Y-18650D01*
X22176Y-18650D01*
X22128Y-18659D01*
X22083Y-18678D01*
X22042Y-18705D01*
X22007Y-18740D01*
X21979Y-18780D01*
X21960Y-18825D01*
X21950Y-18873D01*
X21950Y-18922D01*
X21950Y-18978D01*
X21944Y-18964D01*
X21889Y-18882D01*
X21820Y-18813D01*
X21739Y-18758D01*
X21649Y-18720D01*
X21553Y-18700D01*
X21454Y-18700D01*
X21358Y-18718D01*
X21267Y-18755D01*
X21185Y-18808D01*
X21115Y-18877D01*
X21060Y-18958D01*
X21021Y-19048D01*
X21001Y-19144D01*
X20999Y-19242D01*
X21017Y-19338D01*
X21053Y-19430D01*
X21106Y-19512D01*
X21174Y-19583D01*
X21255Y-19639D01*
X21345Y-19678D01*
X21440Y-19699D01*
X21539Y-19701D01*
X21635Y-19684D01*
X21726Y-19648D01*
X21809Y-19596D01*
X21880Y-19528D01*
X21937Y-19448D01*
X21950Y-19419D01*
X21950Y-19478D01*
X21950Y-19527D01*
X21960Y-19575D01*
X21979Y-19620D01*
X22007Y-19660D01*
X22042Y-19695D01*
X22083Y-19722D01*
X22128Y-19741D01*
X22176Y-19750D01*
X22388Y-19750D01*
X22450Y-19688D01*
X22450Y-32525D01*
X19700Y-32525D01*
X19700Y-31351D01*
X19681Y-31255D01*
X19644Y-31164D01*
X19589Y-31082D01*
X19520Y-31013D01*
X19439Y-30958D01*
X19349Y-30920D01*
X19253Y-30900D01*
X19244Y-30900D01*
X19335Y-30884D01*
X19426Y-30848D01*
X19509Y-30796D01*
X19580Y-30728D01*
X19637Y-30648D01*
X19677Y-30559D01*
X19698Y-30463D01*
X19700Y-30351D01*
X19699Y-30345D01*
X19699Y-29720D01*
X19699Y-29681D01*
X19699Y-29080D01*
X19691Y-29042D01*
X19676Y-29006D01*
X19655Y-28973D01*
X19627Y-28946D01*
X19595Y-28924D01*
X19559Y-28909D01*
X19520Y-28901D01*
X19481Y-28901D01*
X18880Y-28901D01*
X18842Y-28909D01*
X18806Y-28924D01*
X18773Y-28945D01*
X18746Y-28973D01*
X18724Y-29005D01*
X18709Y-29041D01*
X18701Y-29080D01*
X18701Y-29119D01*
X18701Y-29720D01*
X18709Y-29758D01*
X18724Y-29794D01*
X18745Y-29827D01*
X18773Y-29854D01*
X18805Y-29876D01*
X18841Y-29891D01*
X18880Y-29899D01*
X18919Y-29899D01*
X19520Y-29899D01*
X19558Y-29891D01*
X19594Y-29876D01*
X19627Y-29855D01*
X19654Y-29827D01*
X19676Y-29795D01*
X19691Y-29759D01*
X19699Y-29720D01*
X19699Y-30345D01*
X19681Y-30255D01*
X19644Y-30164D01*
X19589Y-30082D01*
X19520Y-30013D01*
X19439Y-29958D01*
X19349Y-29920D01*
X19253Y-29900D01*
X19154Y-29900D01*
X19058Y-29918D01*
X18967Y-29955D01*
X18885Y-30008D01*
X18815Y-30077D01*
X18760Y-30158D01*
X18721Y-30248D01*
X18701Y-30344D01*
X18699Y-30442D01*
X18717Y-30538D01*
X18753Y-30630D01*
X18806Y-30712D01*
X18874Y-30783D01*
X18955Y-30839D01*
X19045Y-30878D01*
X19140Y-30899D01*
X19189Y-30900D01*
X19154Y-30900D01*
X19058Y-30918D01*
X18967Y-30955D01*
X18885Y-31008D01*
X18815Y-31077D01*
X18760Y-31158D01*
X18721Y-31248D01*
X18701Y-31344D01*
X18699Y-31442D01*
X18717Y-31538D01*
X18753Y-31630D01*
X18806Y-31712D01*
X18874Y-31783D01*
X18955Y-31839D01*
X19045Y-31878D01*
X19140Y-31899D01*
X19239Y-31901D01*
X19335Y-31884D01*
X19426Y-31848D01*
X19509Y-31796D01*
X19580Y-31728D01*
X19637Y-31648D01*
X19677Y-31559D01*
X19698Y-31463D01*
X19700Y-31351D01*
X19700Y-32525D01*
X17957Y-32525D01*
X17957Y-25205D01*
X17957Y-25201D01*
X17957Y-25200D01*
X17957Y-20803D01*
X17957Y-20800D01*
X17955Y-20782D01*
X17951Y-20734D01*
X17950Y-20731D01*
X17932Y-20668D01*
X17930Y-20664D01*
X17924Y-20652D01*
X17899Y-20605D01*
X17897Y-20603D01*
X17897Y-20602D01*
X17879Y-20581D01*
X17856Y-20551D01*
X17853Y-20548D01*
X17852Y-20547D01*
X15535Y-18231D01*
X15532Y-18223D01*
X15491Y-18162D01*
X15439Y-18110D01*
X15378Y-18069D01*
X15311Y-18041D01*
X15239Y-18026D01*
X15166Y-18026D01*
X15094Y-18040D01*
X15026Y-18067D01*
X14964Y-18107D01*
X14912Y-18159D01*
X14871Y-18219D01*
X14842Y-18287D01*
X14826Y-18358D01*
X14826Y-18432D01*
X14839Y-18504D01*
X14866Y-18572D01*
X14906Y-18634D01*
X14957Y-18686D01*
X15017Y-18728D01*
X15029Y-18733D01*
X17243Y-20947D01*
X17243Y-25052D01*
X16930Y-25365D01*
X16926Y-25367D01*
X16864Y-25407D01*
X16812Y-25459D01*
X16771Y-25519D01*
X16742Y-25587D01*
X16726Y-25658D01*
X16726Y-25732D01*
X16739Y-25804D01*
X16766Y-25872D01*
X16806Y-25934D01*
X16857Y-25986D01*
X16917Y-26028D01*
X16984Y-26058D01*
X17056Y-26073D01*
X17129Y-26075D01*
X17201Y-26062D01*
X17270Y-26035D01*
X17332Y-25996D01*
X17385Y-25945D01*
X17427Y-25885D01*
X17433Y-25870D01*
X17849Y-25455D01*
X17850Y-25455D01*
X17850Y-25454D01*
X17852Y-25453D01*
X17859Y-25444D01*
X17895Y-25402D01*
X17896Y-25399D01*
X17928Y-25341D01*
X17929Y-25337D01*
X17949Y-25274D01*
X17949Y-25272D01*
X17950Y-25270D01*
X17953Y-25233D01*
X17957Y-25205D01*
X17957Y-32525D01*
X14549Y-32525D01*
X14549Y-11157D01*
X14533Y-11051D01*
X14500Y-10958D01*
X14500Y-09167D01*
X14481Y-09071D01*
X14444Y-08980D01*
X14389Y-08898D01*
X14320Y-08829D01*
X14239Y-08774D01*
X14149Y-08736D01*
X14053Y-08716D01*
X13954Y-08716D01*
X13858Y-08734D01*
X13767Y-08771D01*
X13685Y-08824D01*
X13615Y-08893D01*
X13560Y-08974D01*
X13521Y-09064D01*
X13501Y-09160D01*
X13499Y-09258D01*
X13517Y-09354D01*
X13553Y-09446D01*
X13606Y-09528D01*
X13674Y-09599D01*
X13755Y-09655D01*
X13845Y-09694D01*
X13940Y-09715D01*
X14039Y-09717D01*
X14135Y-09700D01*
X14226Y-09664D01*
X14309Y-09612D01*
X14380Y-09544D01*
X14437Y-09464D01*
X14477Y-09375D01*
X14498Y-09279D01*
X14500Y-09167D01*
X14500Y-10958D01*
X14497Y-10950D01*
X14472Y-10903D01*
X14378Y-10876D01*
X14308Y-10946D01*
X14308Y-10806D01*
X14281Y-10712D01*
X14184Y-10666D01*
X14080Y-10640D01*
X13973Y-10635D01*
X13867Y-10651D01*
X13766Y-10687D01*
X13719Y-10712D01*
X13692Y-10806D01*
X14000Y-11113D01*
X14308Y-10806D01*
X14308Y-10946D01*
X14071Y-11184D01*
X14378Y-11492D01*
X14472Y-11465D01*
X14518Y-11368D01*
X14544Y-11264D01*
X14549Y-11157D01*
X14549Y-32525D01*
X14396Y-32525D01*
X14396Y-19756D01*
X14396Y-19717D01*
X14396Y-19244D01*
X14388Y-19206D01*
X14373Y-19170D01*
X14352Y-19137D01*
X14324Y-19110D01*
X14308Y-19099D01*
X14308Y-11562D01*
X14000Y-11255D01*
X13929Y-11325D01*
X13929Y-11184D01*
X13622Y-10876D01*
X13528Y-10903D01*
X13482Y-11000D01*
X13456Y-11104D01*
X13451Y-11211D01*
X13467Y-11317D01*
X13503Y-11418D01*
X13528Y-11465D01*
X13622Y-11492D01*
X13929Y-11184D01*
X13929Y-11325D01*
X13692Y-11562D01*
X13719Y-11656D01*
X13816Y-11702D01*
X13920Y-11728D01*
X14027Y-11733D01*
X14133Y-11717D01*
X14234Y-11681D01*
X14281Y-11656D01*
X14308Y-11562D01*
X14308Y-19099D01*
X14292Y-19088D01*
X14256Y-19073D01*
X14217Y-19065D01*
X14178Y-19065D01*
X13150Y-19065D01*
X13150Y-16756D01*
X13150Y-15756D01*
X13133Y-15669D01*
X13099Y-15588D01*
X13050Y-15514D01*
X12988Y-15452D01*
X12915Y-15402D01*
X12834Y-15368D01*
X12747Y-15350D01*
X12659Y-15350D01*
X12572Y-15366D01*
X12491Y-15399D01*
X12417Y-15448D01*
X12354Y-15509D01*
X12304Y-15582D01*
X12269Y-15663D01*
X12251Y-15749D01*
X12249Y-15838D01*
X12265Y-15925D01*
X12298Y-16007D01*
X12346Y-16081D01*
X12407Y-16144D01*
X12479Y-16195D01*
X12560Y-16230D01*
X12646Y-16249D01*
X12735Y-16251D01*
X12821Y-16236D01*
X12904Y-16204D01*
X12978Y-16156D01*
X13042Y-16096D01*
X13093Y-16023D01*
X13129Y-15943D01*
X13149Y-15857D01*
X13150Y-15756D01*
X13150Y-16756D01*
X13133Y-16669D01*
X13099Y-16588D01*
X13050Y-16514D01*
X12988Y-16452D01*
X12915Y-16402D01*
X12834Y-16368D01*
X12747Y-16350D01*
X12659Y-16350D01*
X12572Y-16366D01*
X12491Y-16399D01*
X12417Y-16448D01*
X12354Y-16509D01*
X12304Y-16582D01*
X12269Y-16663D01*
X12251Y-16749D01*
X12249Y-16838D01*
X12265Y-16925D01*
X12298Y-17007D01*
X12346Y-17081D01*
X12407Y-17144D01*
X12479Y-17195D01*
X12560Y-17230D01*
X12646Y-17249D01*
X12735Y-17251D01*
X12821Y-17236D01*
X12904Y-17204D01*
X12978Y-17156D01*
X13042Y-17096D01*
X13093Y-17023D01*
X13129Y-16943D01*
X13149Y-16857D01*
X13150Y-16756D01*
X13150Y-19065D01*
X12925Y-19065D01*
X12870Y-19010D01*
X12768Y-18941D01*
X12653Y-18892D01*
X12532Y-18867D01*
X12407Y-18867D01*
X12285Y-18890D01*
X12170Y-18936D01*
X12067Y-19004D01*
X11978Y-19091D01*
X11908Y-19194D01*
X11859Y-19308D01*
X11833Y-19429D01*
X11831Y-19553D01*
X11854Y-19675D01*
X11899Y-19791D01*
X11967Y-19895D01*
X12053Y-19984D01*
X12155Y-20055D01*
X12268Y-20105D01*
X12390Y-20132D01*
X12514Y-20134D01*
X12636Y-20113D01*
X12752Y-20068D01*
X12857Y-20001D01*
X12926Y-19935D01*
X14217Y-19935D01*
X14255Y-19927D01*
X14291Y-19912D01*
X14324Y-19891D01*
X14351Y-19863D01*
X14373Y-19831D01*
X14388Y-19795D01*
X14396Y-19756D01*
X14396Y-32525D01*
X14295Y-32525D01*
X14295Y-31672D01*
X14295Y-31623D01*
X14295Y-30812D01*
X14295Y-30588D01*
X14295Y-29777D01*
X14295Y-29728D01*
X14285Y-29680D01*
X14266Y-29635D01*
X14238Y-29595D01*
X14203Y-29560D01*
X14162Y-29533D01*
X14117Y-29514D01*
X14069Y-29505D01*
X13950Y-29505D01*
X13950Y-24851D01*
X13931Y-24755D01*
X13894Y-24664D01*
X13839Y-24582D01*
X13770Y-24513D01*
X13689Y-24458D01*
X13599Y-24420D01*
X13503Y-24400D01*
X13494Y-24400D01*
X13585Y-24384D01*
X13676Y-24348D01*
X13759Y-24296D01*
X13830Y-24228D01*
X13887Y-24148D01*
X13927Y-24059D01*
X13948Y-23963D01*
X13950Y-23851D01*
X13931Y-23755D01*
X13894Y-23664D01*
X13839Y-23582D01*
X13770Y-23513D01*
X13689Y-23458D01*
X13599Y-23420D01*
X13503Y-23400D01*
X13404Y-23400D01*
X13308Y-23418D01*
X13217Y-23455D01*
X13135Y-23508D01*
X13065Y-23577D01*
X13052Y-23595D01*
X13041Y-23592D01*
X12971Y-23662D01*
X12971Y-23522D01*
X12944Y-23428D01*
X12847Y-23382D01*
X12743Y-23356D01*
X12636Y-23351D01*
X12530Y-23367D01*
X12429Y-23403D01*
X12382Y-23428D01*
X12355Y-23522D01*
X12663Y-23829D01*
X12971Y-23522D01*
X12971Y-23662D01*
X12734Y-23900D01*
X13041Y-24208D01*
X13051Y-24204D01*
X13056Y-24212D01*
X13124Y-24283D01*
X13205Y-24339D01*
X13295Y-24378D01*
X13390Y-24399D01*
X13439Y-24400D01*
X13404Y-24400D01*
X13308Y-24418D01*
X13217Y-24455D01*
X13135Y-24508D01*
X13065Y-24577D01*
X13056Y-24589D01*
X13052Y-24582D01*
X12983Y-24513D01*
X12902Y-24458D01*
X12821Y-24423D01*
X12897Y-24397D01*
X12944Y-24372D01*
X12971Y-24278D01*
X12663Y-23971D01*
X12592Y-24041D01*
X12592Y-23900D01*
X12330Y-23637D01*
X12330Y-21966D01*
X12302Y-21826D01*
X12247Y-21693D01*
X12168Y-21574D01*
X12067Y-21473D01*
X11949Y-21393D01*
X11817Y-21337D01*
X11676Y-21308D01*
X11533Y-21308D01*
X11392Y-21334D01*
X11260Y-21388D01*
X11168Y-21448D01*
X11168Y-19438D01*
X11144Y-19316D01*
X11097Y-19201D01*
X11028Y-19098D01*
X10940Y-19010D01*
X10900Y-18982D01*
X10900Y-13551D01*
X10881Y-13455D01*
X10844Y-13364D01*
X10789Y-13282D01*
X10720Y-13213D01*
X10639Y-13158D01*
X10549Y-13120D01*
X10453Y-13100D01*
X10444Y-13100D01*
X10535Y-13084D01*
X10626Y-13048D01*
X10709Y-12996D01*
X10780Y-12928D01*
X10837Y-12848D01*
X10877Y-12759D01*
X10898Y-12663D01*
X10900Y-12551D01*
X10881Y-12455D01*
X10844Y-12364D01*
X10789Y-12282D01*
X10720Y-12213D01*
X10639Y-12158D01*
X10549Y-12120D01*
X10453Y-12100D01*
X10444Y-12100D01*
X10535Y-12084D01*
X10626Y-12048D01*
X10709Y-11996D01*
X10780Y-11928D01*
X10837Y-11848D01*
X10877Y-11759D01*
X10898Y-11663D01*
X10900Y-11551D01*
X10881Y-11455D01*
X10844Y-11364D01*
X10789Y-11282D01*
X10720Y-11213D01*
X10639Y-11158D01*
X10549Y-11120D01*
X10453Y-11100D01*
X10444Y-11100D01*
X10535Y-11084D01*
X10626Y-11048D01*
X10709Y-10996D01*
X10780Y-10928D01*
X10837Y-10848D01*
X10877Y-10759D01*
X10898Y-10663D01*
X10900Y-10551D01*
X10881Y-10455D01*
X10844Y-10364D01*
X10789Y-10282D01*
X10720Y-10213D01*
X10639Y-10158D01*
X10549Y-10120D01*
X10453Y-10100D01*
X10444Y-10100D01*
X10535Y-10084D01*
X10626Y-10048D01*
X10709Y-09996D01*
X10780Y-09928D01*
X10837Y-09848D01*
X10877Y-09759D01*
X10898Y-09663D01*
X10900Y-09551D01*
X10881Y-09455D01*
X10844Y-09364D01*
X10789Y-09282D01*
X10720Y-09213D01*
X10639Y-09158D01*
X10549Y-09120D01*
X10453Y-09100D01*
X10354Y-09100D01*
X10258Y-09118D01*
X10167Y-09155D01*
X10085Y-09208D01*
X10015Y-09277D01*
X09960Y-09358D01*
X09923Y-09441D01*
X09897Y-09366D01*
X09872Y-09319D01*
X09778Y-09292D01*
X09708Y-09362D01*
X09708Y-09222D01*
X09681Y-09128D01*
X09584Y-09082D01*
X09480Y-09056D01*
X09373Y-09051D01*
X09267Y-09067D01*
X09166Y-09103D01*
X09119Y-09128D01*
X09092Y-09222D01*
X09400Y-09529D01*
X09708Y-09222D01*
X09708Y-09362D01*
X09471Y-09600D01*
X09778Y-09908D01*
X09872Y-09881D01*
X09918Y-09784D01*
X09924Y-09757D01*
X09953Y-09830D01*
X10006Y-09912D01*
X10074Y-09983D01*
X10155Y-10039D01*
X10245Y-10078D01*
X10340Y-10099D01*
X10389Y-10100D01*
X10354Y-10100D01*
X10258Y-10118D01*
X10167Y-10155D01*
X10085Y-10208D01*
X10015Y-10277D01*
X09960Y-10358D01*
X09921Y-10448D01*
X09901Y-10544D01*
X09900Y-10551D01*
X09881Y-10455D01*
X09844Y-10364D01*
X09789Y-10282D01*
X09720Y-10213D01*
X09639Y-10158D01*
X09558Y-10123D01*
X09634Y-10097D01*
X09681Y-10072D01*
X09708Y-09978D01*
X09400Y-09671D01*
X09329Y-09741D01*
X09329Y-09600D01*
X09022Y-09292D01*
X08928Y-09319D01*
X08882Y-09416D01*
X08856Y-09520D01*
X08851Y-09627D01*
X08867Y-09733D01*
X08903Y-09834D01*
X08928Y-09881D01*
X09022Y-09908D01*
X09329Y-09600D01*
X09329Y-09741D01*
X09092Y-09978D01*
X09119Y-10072D01*
X09216Y-10118D01*
X09242Y-10124D01*
X09167Y-10155D01*
X09085Y-10208D01*
X09015Y-10277D01*
X08960Y-10358D01*
X08921Y-10448D01*
X08901Y-10544D01*
X08899Y-10642D01*
X08917Y-10738D01*
X08953Y-10830D01*
X09006Y-10912D01*
X09074Y-10983D01*
X09155Y-11039D01*
X09241Y-11076D01*
X09166Y-11103D01*
X09119Y-11128D01*
X09092Y-11222D01*
X09400Y-11529D01*
X09708Y-11222D01*
X09681Y-11128D01*
X09584Y-11082D01*
X09557Y-11075D01*
X09626Y-11048D01*
X09709Y-10996D01*
X09780Y-10928D01*
X09837Y-10848D01*
X09877Y-10759D01*
X09898Y-10663D01*
X09900Y-10551D01*
X09899Y-10642D01*
X09917Y-10738D01*
X09953Y-10830D01*
X10006Y-10912D01*
X10074Y-10983D01*
X10155Y-11039D01*
X10245Y-11078D01*
X10340Y-11099D01*
X10389Y-11100D01*
X10354Y-11100D01*
X10258Y-11118D01*
X10167Y-11155D01*
X10085Y-11208D01*
X10015Y-11277D01*
X09960Y-11358D01*
X09923Y-11441D01*
X09897Y-11366D01*
X09872Y-11319D01*
X09778Y-11292D01*
X09471Y-11600D01*
X09778Y-11908D01*
X09872Y-11881D01*
X09918Y-11784D01*
X09924Y-11757D01*
X09953Y-11830D01*
X10006Y-11912D01*
X10074Y-11983D01*
X10155Y-12039D01*
X10245Y-12078D01*
X10340Y-12099D01*
X10389Y-12100D01*
X10354Y-12100D01*
X10258Y-12118D01*
X10167Y-12155D01*
X10085Y-12208D01*
X10015Y-12277D01*
X09960Y-12358D01*
X09923Y-12441D01*
X09897Y-12366D01*
X09872Y-12319D01*
X09778Y-12292D01*
X09708Y-12362D01*
X09708Y-12222D01*
X09681Y-12128D01*
X09623Y-12100D01*
X09634Y-12097D01*
X09681Y-12072D01*
X09708Y-11978D01*
X09400Y-11671D01*
X09329Y-11741D01*
X09329Y-11600D01*
X09022Y-11292D01*
X08928Y-11319D01*
X08882Y-11416D01*
X08856Y-11520D01*
X08851Y-11627D01*
X08867Y-11733D01*
X08903Y-11834D01*
X08928Y-11881D01*
X09022Y-11908D01*
X09329Y-11600D01*
X09329Y-11741D01*
X09092Y-11978D01*
X09119Y-12072D01*
X09176Y-12099D01*
X09166Y-12103D01*
X09119Y-12128D01*
X09092Y-12222D01*
X09400Y-12529D01*
X09708Y-12222D01*
X09708Y-12362D01*
X09471Y-12600D01*
X09778Y-12908D01*
X09872Y-12881D01*
X09918Y-12784D01*
X09924Y-12757D01*
X09953Y-12830D01*
X10006Y-12912D01*
X10074Y-12983D01*
X10155Y-13039D01*
X10245Y-13078D01*
X10340Y-13099D01*
X10389Y-13100D01*
X10354Y-13100D01*
X10258Y-13118D01*
X10167Y-13155D01*
X10085Y-13208D01*
X10015Y-13277D01*
X09960Y-13358D01*
X09921Y-13448D01*
X09901Y-13544D01*
X09899Y-13642D01*
X09899Y-13280D01*
X09891Y-13242D01*
X09876Y-13206D01*
X09855Y-13173D01*
X09827Y-13146D01*
X09795Y-13124D01*
X09759Y-13109D01*
X09720Y-13101D01*
X09681Y-13101D01*
X09622Y-13101D01*
X09634Y-13097D01*
X09681Y-13072D01*
X09708Y-12978D01*
X09400Y-12671D01*
X09329Y-12741D01*
X09329Y-12600D01*
X09022Y-12292D01*
X08928Y-12319D01*
X08882Y-12416D01*
X08856Y-12520D01*
X08851Y-12627D01*
X08867Y-12733D01*
X08903Y-12834D01*
X08928Y-12881D01*
X09022Y-12908D01*
X09329Y-12600D01*
X09329Y-12741D01*
X09092Y-12978D01*
X09119Y-13072D01*
X09180Y-13101D01*
X09080Y-13101D01*
X09042Y-13109D01*
X09006Y-13124D01*
X08973Y-13145D01*
X08946Y-13173D01*
X08924Y-13205D01*
X08909Y-13241D01*
X08901Y-13280D01*
X08901Y-13319D01*
X08901Y-13920D01*
X08909Y-13958D01*
X08924Y-13994D01*
X08945Y-14027D01*
X08973Y-14054D01*
X09005Y-14076D01*
X09041Y-14091D01*
X09080Y-14099D01*
X09119Y-14099D01*
X09720Y-14099D01*
X09758Y-14091D01*
X09794Y-14076D01*
X09827Y-14055D01*
X09854Y-14027D01*
X09876Y-13995D01*
X09891Y-13959D01*
X09899Y-13920D01*
X09899Y-13881D01*
X09899Y-13642D01*
X09917Y-13738D01*
X09953Y-13830D01*
X10006Y-13912D01*
X10074Y-13983D01*
X10155Y-14039D01*
X10245Y-14078D01*
X10340Y-14099D01*
X10439Y-14101D01*
X10535Y-14084D01*
X10626Y-14048D01*
X10709Y-13996D01*
X10780Y-13928D01*
X10837Y-13848D01*
X10877Y-13759D01*
X10898Y-13663D01*
X10900Y-13551D01*
X10900Y-18982D01*
X10838Y-18941D01*
X10723Y-18892D01*
X10602Y-18867D01*
X10477Y-18867D01*
X10355Y-18890D01*
X10240Y-18936D01*
X10137Y-19004D01*
X10074Y-19065D01*
X08783Y-19065D01*
X08745Y-19073D01*
X08709Y-19088D01*
X08676Y-19109D01*
X08649Y-19137D01*
X08627Y-19169D01*
X08612Y-19205D01*
X08604Y-19244D01*
X08604Y-19283D01*
X08604Y-19756D01*
X08612Y-19794D01*
X08627Y-19830D01*
X08648Y-19863D01*
X08676Y-19890D01*
X08708Y-19912D01*
X08744Y-19927D01*
X08783Y-19935D01*
X08822Y-19935D01*
X10075Y-19935D01*
X10123Y-19984D01*
X10225Y-20055D01*
X10338Y-20105D01*
X10460Y-20132D01*
X10584Y-20134D01*
X10706Y-20113D01*
X10822Y-20068D01*
X10927Y-20001D01*
X11016Y-19916D01*
X11088Y-19814D01*
X11138Y-19701D01*
X11166Y-19580D01*
X11168Y-19438D01*
X11168Y-21448D01*
X11140Y-21467D01*
X11038Y-21567D01*
X10957Y-21685D01*
X10901Y-21817D01*
X10871Y-21957D01*
X10869Y-22100D01*
X10895Y-22241D01*
X10948Y-22374D01*
X11025Y-22494D01*
X11125Y-22597D01*
X11243Y-22679D01*
X11374Y-22736D01*
X11514Y-22766D01*
X11657Y-22769D01*
X11798Y-22744D01*
X11931Y-22693D01*
X12052Y-22616D01*
X12156Y-22517D01*
X12238Y-22400D01*
X12296Y-22269D01*
X12328Y-22130D01*
X12330Y-21966D01*
X12330Y-23637D01*
X12285Y-23592D01*
X12191Y-23619D01*
X12145Y-23716D01*
X12119Y-23820D01*
X12114Y-23927D01*
X12130Y-24033D01*
X12166Y-24134D01*
X12191Y-24181D01*
X12285Y-24208D01*
X12592Y-23900D01*
X12592Y-24041D01*
X12355Y-24278D01*
X12382Y-24372D01*
X12479Y-24418D01*
X12505Y-24424D01*
X12430Y-24455D01*
X12348Y-24508D01*
X12278Y-24577D01*
X12223Y-24658D01*
X12184Y-24748D01*
X12164Y-24844D01*
X12162Y-24942D01*
X12180Y-25038D01*
X12216Y-25130D01*
X12269Y-25212D01*
X12337Y-25283D01*
X12418Y-25339D01*
X12508Y-25378D01*
X12603Y-25399D01*
X12702Y-25401D01*
X12798Y-25384D01*
X12889Y-25348D01*
X12972Y-25296D01*
X13043Y-25228D01*
X13055Y-25210D01*
X13056Y-25212D01*
X13124Y-25283D01*
X13205Y-25339D01*
X13295Y-25378D01*
X13390Y-25399D01*
X13489Y-25401D01*
X13585Y-25384D01*
X13676Y-25348D01*
X13759Y-25296D01*
X13830Y-25228D01*
X13887Y-25148D01*
X13927Y-25059D01*
X13948Y-24963D01*
X13950Y-24851D01*
X13950Y-29505D01*
X13212Y-29505D01*
X13150Y-29567D01*
X13150Y-30650D01*
X14233Y-30650D01*
X14295Y-30588D01*
X14295Y-30812D01*
X14233Y-30750D01*
X13150Y-30750D01*
X13150Y-31833D01*
X13212Y-31895D01*
X14069Y-31895D01*
X14117Y-31886D01*
X14162Y-31867D01*
X14203Y-31840D01*
X14238Y-31805D01*
X14266Y-31765D01*
X14285Y-31720D01*
X14295Y-31672D01*
X14295Y-32525D01*
X13050Y-32525D01*
X13050Y-31833D01*
X13050Y-30750D01*
X13050Y-30650D01*
X13050Y-29567D01*
X12988Y-29505D01*
X12415Y-29505D01*
X12471Y-29452D01*
X12600Y-29268D01*
X12692Y-29063D01*
X12741Y-28844D01*
X12745Y-28588D01*
X12701Y-28368D01*
X12616Y-28160D01*
X12492Y-27973D01*
X12334Y-27814D01*
X12330Y-27811D01*
X12330Y-26690D01*
X12302Y-26550D01*
X12247Y-26417D01*
X12168Y-26298D01*
X12067Y-26197D01*
X11949Y-26117D01*
X11817Y-26061D01*
X11676Y-26032D01*
X11533Y-26032D01*
X11392Y-26058D01*
X11260Y-26112D01*
X11140Y-26191D01*
X11038Y-26291D01*
X10957Y-26409D01*
X10901Y-26541D01*
X10871Y-26681D01*
X10869Y-26824D01*
X10895Y-26965D01*
X10948Y-27098D01*
X11025Y-27218D01*
X11125Y-27321D01*
X11243Y-27403D01*
X11374Y-27460D01*
X11514Y-27490D01*
X11657Y-27493D01*
X11798Y-27468D01*
X11931Y-27417D01*
X12052Y-27340D01*
X12156Y-27241D01*
X12238Y-27124D01*
X12296Y-26993D01*
X12328Y-26854D01*
X12330Y-26690D01*
X12330Y-27811D01*
X12147Y-27688D01*
X11940Y-27601D01*
X11721Y-27556D01*
X11496Y-27554D01*
X11275Y-27596D01*
X11067Y-27680D01*
X10879Y-27803D01*
X10719Y-27960D01*
X10592Y-28146D01*
X10503Y-28352D01*
X10457Y-28571D01*
X10454Y-28796D01*
X10494Y-29017D01*
X10577Y-29226D01*
X10698Y-29414D01*
X10795Y-29515D01*
X10700Y-29506D01*
X10468Y-29529D01*
X10245Y-29596D01*
X10040Y-29706D01*
X09936Y-29865D01*
X10700Y-30629D01*
X11464Y-29865D01*
X11446Y-29838D01*
X11464Y-29842D01*
X11688Y-29847D01*
X11905Y-29808D01*
X11905Y-30588D01*
X11967Y-30650D01*
X13050Y-30650D01*
X13050Y-30750D01*
X11967Y-30750D01*
X11905Y-30812D01*
X11905Y-31623D01*
X11905Y-31672D01*
X11915Y-31720D01*
X11934Y-31765D01*
X11962Y-31805D01*
X11997Y-31840D01*
X12038Y-31867D01*
X12083Y-31886D01*
X12131Y-31895D01*
X12988Y-31895D01*
X13050Y-31833D01*
X13050Y-32525D01*
X11894Y-32525D01*
X11894Y-30700D01*
X11871Y-30468D01*
X11804Y-30245D01*
X11694Y-30040D01*
X11535Y-29936D01*
X10771Y-30700D01*
X11535Y-31464D01*
X11694Y-31360D01*
X11804Y-31155D01*
X11871Y-30932D01*
X11894Y-30700D01*
X11894Y-32525D01*
X11464Y-32525D01*
X11464Y-31535D01*
X10700Y-30771D01*
X10629Y-30842D01*
X10629Y-30700D01*
X09865Y-29936D01*
X09706Y-30040D01*
X09596Y-30245D01*
X09529Y-30468D01*
X09506Y-30700D01*
X09529Y-30932D01*
X09596Y-31155D01*
X09706Y-31360D01*
X09865Y-31464D01*
X10629Y-30700D01*
X10629Y-30842D01*
X09936Y-31535D01*
X10040Y-31694D01*
X10245Y-31804D01*
X10468Y-31871D01*
X10700Y-31894D01*
X10932Y-31871D01*
X11155Y-31804D01*
X11360Y-31694D01*
X11464Y-31535D01*
X11464Y-32525D01*
X07775Y-32525D01*
X07775Y-07304D01*
X07775Y-07300D01*
X07775Y-05275D01*
X09996Y-05275D01*
X10000Y-05275D01*
X29125Y-05275D01*
X29125Y-32525D01*
M02*
