G04 (created by PCBNEW-RS274X (2011-03-30 BZR 2932)-stable) date 30/04/2011 07:18:35 p.m.*
G01*
G70*
G90*
%MOIN*%
G04 Gerber Fmt 3.4, Leading zero omitted, Abs format*
%FSLAX34Y34*%
G04 APERTURE LIST*
%ADD10C,0.006000*%
%ADD11C,0.012000*%
%ADD12C,0.008000*%
%ADD13C,0.007000*%
%ADD14C,0.012500*%
%ADD15C,0.005000*%
%ADD16C,0.015000*%
%ADD17C,0.005500*%
%ADD18C,0.010000*%
G04 APERTURE END LIST*
G54D10*
G54D11*
X23850Y-10450D02*
X23830Y-10644D01*
X23774Y-10831D01*
X23682Y-11003D01*
X23559Y-11154D01*
X23409Y-11279D01*
X23237Y-11371D01*
X23051Y-11429D01*
X22856Y-11449D01*
X22663Y-11432D01*
X22476Y-11377D01*
X22303Y-11286D01*
X22151Y-11164D01*
X22025Y-11014D01*
X21931Y-10843D01*
X21872Y-10657D01*
X21851Y-10463D01*
X21867Y-10270D01*
X21921Y-10082D01*
X22010Y-09909D01*
X22131Y-09756D01*
X22280Y-09629D01*
X22450Y-09534D01*
X22636Y-09474D01*
X22830Y-09451D01*
X23023Y-09466D01*
X23211Y-09518D01*
X23385Y-09606D01*
X23539Y-09726D01*
X23667Y-09874D01*
X23763Y-10044D01*
X23825Y-10229D01*
X23849Y-10423D01*
X23850Y-10450D01*
X23100Y-09450D02*
X23100Y-09700D01*
X23100Y-09700D02*
X22600Y-09700D01*
X22600Y-09700D02*
X22600Y-09450D01*
X21500Y-29150D02*
X21480Y-29344D01*
X21424Y-29531D01*
X21332Y-29703D01*
X21209Y-29854D01*
X21059Y-29979D01*
X20887Y-30071D01*
X20701Y-30129D01*
X20506Y-30149D01*
X20313Y-30132D01*
X20126Y-30077D01*
X19953Y-29986D01*
X19801Y-29864D01*
X19675Y-29714D01*
X19581Y-29543D01*
X19522Y-29357D01*
X19501Y-29163D01*
X19517Y-28970D01*
X19571Y-28782D01*
X19660Y-28609D01*
X19781Y-28456D01*
X19930Y-28329D01*
X20100Y-28234D01*
X20286Y-28174D01*
X20480Y-28151D01*
X20673Y-28166D01*
X20861Y-28218D01*
X21035Y-28306D01*
X21189Y-28426D01*
X21317Y-28574D01*
X21413Y-28744D01*
X21475Y-28929D01*
X21499Y-29123D01*
X21500Y-29150D01*
X20750Y-28150D02*
X20750Y-28400D01*
X20750Y-28400D02*
X20250Y-28400D01*
X20250Y-28400D02*
X20250Y-28150D01*
X14700Y-17850D02*
X14700Y-21850D01*
X14700Y-21850D02*
X16700Y-21850D01*
X16700Y-21850D02*
X16700Y-17850D01*
X16700Y-17850D02*
X14700Y-17850D01*
G54D12*
X35000Y-34250D02*
X35000Y-09250D01*
X35000Y-09250D02*
X33000Y-09250D01*
X33000Y-09250D02*
X33000Y-34250D01*
X33000Y-34250D02*
X35000Y-34250D01*
G54D13*
X32150Y-22000D02*
X32150Y-21500D01*
X32100Y-21500D02*
X32100Y-22000D01*
X32100Y-22000D02*
X32200Y-22000D01*
X32200Y-22000D02*
X32200Y-21500D01*
X32200Y-21500D02*
X32100Y-21500D01*
X32200Y-35750D02*
X32200Y-35550D01*
X32200Y-35750D02*
X32400Y-35750D01*
X35800Y-35750D02*
X35600Y-35750D01*
X35800Y-35750D02*
X35800Y-35550D01*
X32200Y-07750D02*
X32200Y-07950D01*
X32200Y-07750D02*
X32400Y-07750D01*
X35800Y-07750D02*
X35600Y-07750D01*
X35800Y-07750D02*
X35800Y-07950D01*
G54D12*
X16650Y-22300D02*
X16650Y-23800D01*
X16650Y-23800D02*
X19900Y-23800D01*
X19900Y-23800D02*
X19900Y-22300D01*
X19900Y-22300D02*
X16650Y-22300D01*
X15900Y-22550D02*
X16650Y-22550D01*
X15900Y-23550D02*
X16650Y-23550D01*
G54D13*
X11830Y-21780D02*
X11830Y-24220D01*
X11830Y-24220D02*
X12774Y-24220D01*
X11830Y-21780D02*
X12774Y-21780D01*
X14270Y-24220D02*
X14270Y-21780D01*
X14270Y-21780D02*
X13326Y-21780D01*
X14270Y-24220D02*
X13326Y-24220D01*
G54D12*
X13506Y-23000D02*
X13497Y-23088D01*
X13471Y-23173D01*
X13429Y-23252D01*
X13373Y-23321D01*
X13304Y-23378D01*
X13226Y-23420D01*
X13141Y-23446D01*
X13053Y-23455D01*
X12965Y-23447D01*
X12880Y-23422D01*
X12801Y-23381D01*
X12731Y-23325D01*
X12674Y-23257D01*
X12631Y-23179D01*
X12604Y-23094D01*
X12595Y-23006D01*
X12602Y-22918D01*
X12627Y-22833D01*
X12667Y-22753D01*
X12722Y-22684D01*
X12790Y-22626D01*
X12868Y-22583D01*
X12953Y-22555D01*
X13041Y-22545D01*
X13129Y-22551D01*
X13214Y-22575D01*
X13294Y-22615D01*
X13364Y-22670D01*
X13422Y-22738D01*
X13466Y-22815D01*
X13494Y-22899D01*
X13505Y-22988D01*
X13506Y-23000D01*
G54D14*
X18100Y-26550D02*
X15600Y-26550D01*
X18100Y-24550D02*
X15600Y-24550D01*
X15600Y-24550D02*
X15513Y-24554D01*
X15427Y-24566D01*
X15342Y-24585D01*
X15258Y-24611D01*
X15178Y-24644D01*
X15101Y-24684D01*
X15027Y-24731D01*
X14958Y-24784D01*
X14893Y-24843D01*
X14834Y-24908D01*
X14781Y-24977D01*
X14734Y-25051D01*
X14694Y-25128D01*
X14661Y-25208D01*
X14635Y-25292D01*
X14616Y-25377D01*
X14604Y-25463D01*
X14600Y-25550D01*
X14600Y-25550D02*
X14604Y-25637D01*
X14616Y-25723D01*
X14635Y-25808D01*
X14661Y-25892D01*
X14694Y-25972D01*
X14734Y-26049D01*
X14781Y-26123D01*
X14834Y-26192D01*
X14893Y-26257D01*
X14958Y-26316D01*
X15027Y-26369D01*
X15100Y-26416D01*
X15178Y-26456D01*
X15258Y-26489D01*
X15342Y-26515D01*
X15427Y-26534D01*
X15513Y-26546D01*
X15600Y-26550D01*
X19100Y-25550D02*
X19096Y-25463D01*
X19084Y-25377D01*
X19065Y-25292D01*
X19039Y-25208D01*
X19006Y-25128D01*
X18966Y-25051D01*
X18919Y-24977D01*
X18866Y-24908D01*
X18807Y-24843D01*
X18742Y-24784D01*
X18673Y-24731D01*
X18600Y-24684D01*
X18522Y-24644D01*
X18442Y-24611D01*
X18358Y-24585D01*
X18273Y-24566D01*
X18187Y-24554D01*
X18100Y-24550D01*
X18100Y-26550D02*
X18187Y-26546D01*
X18273Y-26534D01*
X18358Y-26515D01*
X18442Y-26489D01*
X18522Y-26456D01*
X18600Y-26416D01*
X18673Y-26369D01*
X18742Y-26316D01*
X18807Y-26257D01*
X18866Y-26192D01*
X18919Y-26123D01*
X18966Y-26049D01*
X19006Y-25972D01*
X19039Y-25892D01*
X19065Y-25808D01*
X19084Y-25723D01*
X19096Y-25637D01*
X19100Y-25550D01*
G54D10*
X16850Y-12000D02*
X15850Y-12000D01*
X15850Y-12000D02*
X15850Y-14000D01*
X15850Y-14000D02*
X16850Y-14000D01*
X16850Y-14000D02*
X16850Y-12000D01*
X15850Y-12000D02*
X14850Y-12000D01*
X14850Y-12000D02*
X14850Y-14000D01*
X14850Y-14000D02*
X15850Y-14000D01*
X15850Y-14000D02*
X15850Y-12000D01*
G54D15*
X10400Y-33400D02*
X10400Y-38950D01*
X16300Y-38950D02*
X16300Y-33400D01*
X10400Y-33400D02*
X16300Y-33400D01*
X10400Y-38950D02*
X16300Y-38950D01*
X07950Y-32450D02*
X07950Y-27650D01*
X07950Y-27650D02*
X14650Y-27650D01*
X14650Y-27650D02*
X14650Y-32450D01*
X14650Y-32450D02*
X07950Y-32450D01*
G54D10*
X26400Y-23700D02*
X25400Y-23700D01*
X25400Y-23700D02*
X25400Y-25700D01*
X25400Y-25700D02*
X26400Y-25700D01*
X26400Y-25700D02*
X26400Y-23700D01*
G54D16*
X08000Y-14450D02*
X07700Y-14450D01*
X07700Y-14450D02*
X07700Y-11050D01*
X07700Y-11050D02*
X08000Y-11050D01*
X09200Y-14450D02*
X09200Y-11050D01*
X13000Y-14450D02*
X13000Y-11050D01*
X08000Y-11050D02*
X13000Y-11050D01*
X08000Y-14450D02*
X13000Y-14450D01*
G54D11*
X25443Y-09779D02*
X25443Y-09493D01*
X24843Y-09493D01*
X25129Y-09979D02*
X25129Y-10179D01*
X25443Y-10265D02*
X25443Y-09979D01*
X24843Y-09979D01*
X24843Y-10265D01*
X25443Y-10522D02*
X24843Y-10522D01*
X24843Y-10665D01*
X24871Y-10750D01*
X24929Y-10808D01*
X24986Y-10836D01*
X25100Y-10865D01*
X25186Y-10865D01*
X25300Y-10836D01*
X25357Y-10808D01*
X25414Y-10750D01*
X25443Y-10665D01*
X25443Y-10522D01*
X24900Y-11093D02*
X24871Y-11122D01*
X24843Y-11179D01*
X24843Y-11322D01*
X24871Y-11379D01*
X24900Y-11408D01*
X24957Y-11436D01*
X25014Y-11436D01*
X25100Y-11408D01*
X25443Y-11065D01*
X25443Y-11436D01*
X23043Y-28479D02*
X23043Y-28193D01*
X22443Y-28193D01*
X22729Y-28679D02*
X22729Y-28879D01*
X23043Y-28965D02*
X23043Y-28679D01*
X22443Y-28679D01*
X22443Y-28965D01*
X23043Y-29222D02*
X22443Y-29222D01*
X22443Y-29365D01*
X22471Y-29450D01*
X22529Y-29508D01*
X22586Y-29536D01*
X22700Y-29565D01*
X22786Y-29565D01*
X22900Y-29536D01*
X22957Y-29508D01*
X23014Y-29450D01*
X23043Y-29365D01*
X23043Y-29222D01*
X23043Y-30136D02*
X23043Y-29793D01*
X23043Y-29965D02*
X22443Y-29965D01*
X22529Y-29908D01*
X22586Y-29850D01*
X22614Y-29793D01*
G54D12*
X14362Y-19555D02*
X13962Y-19555D01*
X13962Y-19708D01*
X13981Y-19746D01*
X14000Y-19765D01*
X14038Y-19784D01*
X14095Y-19784D01*
X14133Y-19765D01*
X14152Y-19746D01*
X14171Y-19708D01*
X14171Y-19555D01*
X14362Y-20165D02*
X14362Y-19936D01*
X14362Y-20050D02*
X13962Y-20050D01*
X14019Y-20012D01*
X14057Y-19974D01*
X14076Y-19936D01*
X35135Y-34861D02*
X35150Y-34879D01*
X35196Y-34896D01*
X35226Y-34896D01*
X35272Y-34879D01*
X35303Y-34844D01*
X35318Y-34810D01*
X35333Y-34741D01*
X35333Y-34690D01*
X35318Y-34621D01*
X35303Y-34587D01*
X35272Y-34553D01*
X35226Y-34536D01*
X35196Y-34536D01*
X35150Y-34553D01*
X35135Y-34570D01*
X34937Y-34536D02*
X34876Y-34536D01*
X34845Y-34553D01*
X34815Y-34587D01*
X34800Y-34656D01*
X34800Y-34776D01*
X34815Y-34844D01*
X34845Y-34879D01*
X34876Y-34896D01*
X34937Y-34896D01*
X34967Y-34879D01*
X34998Y-34844D01*
X35013Y-34776D01*
X35013Y-34656D01*
X34998Y-34587D01*
X34967Y-34553D01*
X34937Y-34536D01*
X34663Y-34896D02*
X34663Y-34536D01*
X34480Y-34896D01*
X34480Y-34536D01*
X34328Y-34896D02*
X34328Y-34536D01*
X34145Y-34896D01*
X34145Y-34536D01*
X34069Y-34930D02*
X33825Y-34930D01*
X33764Y-34570D02*
X33749Y-34553D01*
X33718Y-34536D01*
X33642Y-34536D01*
X33612Y-34553D01*
X33596Y-34570D01*
X33581Y-34604D01*
X33581Y-34639D01*
X33596Y-34690D01*
X33779Y-34896D01*
X33581Y-34896D01*
X33291Y-34536D02*
X33444Y-34536D01*
X33459Y-34707D01*
X33444Y-34690D01*
X33413Y-34673D01*
X33337Y-34673D01*
X33307Y-34690D01*
X33291Y-34707D01*
X33276Y-34741D01*
X33276Y-34827D01*
X33291Y-34861D01*
X33307Y-34879D01*
X33337Y-34896D01*
X33413Y-34896D01*
X33444Y-34879D01*
X33459Y-34861D01*
X33169Y-34536D02*
X32956Y-34896D01*
X32956Y-34536D02*
X33169Y-34896D01*
X32849Y-34570D02*
X32834Y-34553D01*
X32803Y-34536D01*
X32727Y-34536D01*
X32697Y-34553D01*
X32681Y-34570D01*
X32666Y-34604D01*
X32666Y-34639D01*
X32681Y-34690D01*
X32864Y-34896D01*
X32666Y-34896D01*
X35320Y-20506D02*
X35303Y-20521D01*
X35286Y-20552D01*
X35286Y-20628D01*
X35303Y-20658D01*
X35320Y-20674D01*
X35354Y-20689D01*
X35389Y-20689D01*
X35440Y-20674D01*
X35646Y-20491D01*
X35646Y-20689D01*
X35440Y-20872D02*
X35423Y-20841D01*
X35406Y-20826D01*
X35371Y-20811D01*
X35354Y-20811D01*
X35320Y-20826D01*
X35303Y-20841D01*
X35286Y-20872D01*
X35286Y-20933D01*
X35303Y-20963D01*
X35320Y-20979D01*
X35354Y-20994D01*
X35371Y-20994D01*
X35406Y-20979D01*
X35423Y-20963D01*
X35440Y-20933D01*
X35440Y-20872D01*
X35457Y-20841D01*
X35474Y-20826D01*
X35509Y-20811D01*
X35577Y-20811D01*
X35611Y-20826D01*
X35629Y-20841D01*
X35646Y-20872D01*
X35646Y-20933D01*
X35629Y-20963D01*
X35611Y-20979D01*
X35577Y-20994D01*
X35509Y-20994D01*
X35474Y-20979D01*
X35457Y-20963D01*
X35440Y-20933D01*
X35320Y-22506D02*
X35303Y-22521D01*
X35286Y-22552D01*
X35286Y-22628D01*
X35303Y-22658D01*
X35320Y-22674D01*
X35354Y-22689D01*
X35389Y-22689D01*
X35440Y-22674D01*
X35646Y-22491D01*
X35646Y-22689D01*
X35406Y-22963D02*
X35646Y-22963D01*
X35269Y-22887D02*
X35526Y-22811D01*
X35526Y-23009D01*
X35320Y-21506D02*
X35303Y-21521D01*
X35286Y-21552D01*
X35286Y-21628D01*
X35303Y-21658D01*
X35320Y-21674D01*
X35354Y-21689D01*
X35389Y-21689D01*
X35440Y-21674D01*
X35646Y-21491D01*
X35646Y-21689D01*
X35286Y-21963D02*
X35286Y-21902D01*
X35303Y-21872D01*
X35320Y-21857D01*
X35371Y-21826D01*
X35440Y-21811D01*
X35577Y-21811D01*
X35611Y-21826D01*
X35629Y-21841D01*
X35646Y-21872D01*
X35646Y-21933D01*
X35629Y-21963D01*
X35611Y-21979D01*
X35577Y-21994D01*
X35491Y-21994D01*
X35457Y-21979D01*
X35440Y-21963D01*
X35423Y-21933D01*
X35423Y-21872D01*
X35440Y-21841D01*
X35457Y-21826D01*
X35491Y-21811D01*
X35320Y-33659D02*
X35303Y-33674D01*
X35286Y-33705D01*
X35286Y-33781D01*
X35303Y-33811D01*
X35320Y-33827D01*
X35354Y-33842D01*
X35389Y-33842D01*
X35440Y-33827D01*
X35646Y-33644D01*
X35646Y-33842D01*
X35406Y-32811D02*
X35646Y-32811D01*
X35269Y-32735D02*
X35526Y-32659D01*
X35526Y-32857D01*
X35440Y-30720D02*
X35423Y-30689D01*
X35406Y-30674D01*
X35371Y-30659D01*
X35354Y-30659D01*
X35320Y-30674D01*
X35303Y-30689D01*
X35286Y-30720D01*
X35286Y-30781D01*
X35303Y-30811D01*
X35320Y-30827D01*
X35354Y-30842D01*
X35371Y-30842D01*
X35406Y-30827D01*
X35423Y-30811D01*
X35440Y-30781D01*
X35440Y-30720D01*
X35457Y-30689D01*
X35474Y-30674D01*
X35509Y-30659D01*
X35577Y-30659D01*
X35611Y-30674D01*
X35629Y-30689D01*
X35646Y-30720D01*
X35646Y-30781D01*
X35629Y-30811D01*
X35611Y-30827D01*
X35577Y-30842D01*
X35509Y-30842D01*
X35474Y-30827D01*
X35457Y-30811D01*
X35440Y-30781D01*
X35286Y-31811D02*
X35286Y-31750D01*
X35303Y-31720D01*
X35320Y-31705D01*
X35371Y-31674D01*
X35440Y-31659D01*
X35577Y-31659D01*
X35611Y-31674D01*
X35629Y-31689D01*
X35646Y-31720D01*
X35646Y-31781D01*
X35629Y-31811D01*
X35611Y-31827D01*
X35577Y-31842D01*
X35491Y-31842D01*
X35457Y-31827D01*
X35440Y-31811D01*
X35423Y-31781D01*
X35423Y-31720D01*
X35440Y-31689D01*
X35457Y-31674D01*
X35491Y-31659D01*
X35646Y-27689D02*
X35646Y-27506D01*
X35646Y-27597D02*
X35286Y-27597D01*
X35337Y-27567D01*
X35371Y-27536D01*
X35389Y-27506D01*
X35406Y-27963D02*
X35646Y-27963D01*
X35269Y-27887D02*
X35526Y-27811D01*
X35526Y-28009D01*
X35646Y-26689D02*
X35646Y-26506D01*
X35646Y-26597D02*
X35286Y-26597D01*
X35337Y-26567D01*
X35371Y-26536D01*
X35389Y-26506D01*
X35286Y-26963D02*
X35286Y-26902D01*
X35303Y-26872D01*
X35320Y-26857D01*
X35371Y-26826D01*
X35440Y-26811D01*
X35577Y-26811D01*
X35611Y-26826D01*
X35629Y-26841D01*
X35646Y-26872D01*
X35646Y-26933D01*
X35629Y-26963D01*
X35611Y-26979D01*
X35577Y-26994D01*
X35491Y-26994D01*
X35457Y-26979D01*
X35440Y-26963D01*
X35423Y-26933D01*
X35423Y-26872D01*
X35440Y-26841D01*
X35457Y-26826D01*
X35491Y-26811D01*
X35646Y-28689D02*
X35646Y-28506D01*
X35646Y-28597D02*
X35286Y-28597D01*
X35337Y-28567D01*
X35371Y-28536D01*
X35389Y-28506D01*
X35320Y-28811D02*
X35303Y-28826D01*
X35286Y-28857D01*
X35286Y-28933D01*
X35303Y-28963D01*
X35320Y-28979D01*
X35354Y-28994D01*
X35389Y-28994D01*
X35440Y-28979D01*
X35646Y-28796D01*
X35646Y-28994D01*
X35646Y-29689D02*
X35646Y-29506D01*
X35646Y-29597D02*
X35286Y-29597D01*
X35337Y-29567D01*
X35371Y-29536D01*
X35389Y-29506D01*
X35286Y-29887D02*
X35286Y-29918D01*
X35303Y-29948D01*
X35320Y-29963D01*
X35354Y-29979D01*
X35423Y-29994D01*
X35509Y-29994D01*
X35577Y-29979D01*
X35611Y-29963D01*
X35629Y-29948D01*
X35646Y-29918D01*
X35646Y-29887D01*
X35629Y-29857D01*
X35611Y-29841D01*
X35577Y-29826D01*
X35509Y-29811D01*
X35423Y-29811D01*
X35354Y-29826D01*
X35320Y-29841D01*
X35303Y-29857D01*
X35286Y-29887D01*
X35286Y-18491D02*
X35286Y-18689D01*
X35423Y-18582D01*
X35423Y-18628D01*
X35440Y-18658D01*
X35457Y-18674D01*
X35491Y-18689D01*
X35577Y-18689D01*
X35611Y-18674D01*
X35629Y-18658D01*
X35646Y-18628D01*
X35646Y-18536D01*
X35629Y-18506D01*
X35611Y-18491D01*
X35320Y-18811D02*
X35303Y-18826D01*
X35286Y-18857D01*
X35286Y-18933D01*
X35303Y-18963D01*
X35320Y-18979D01*
X35354Y-18994D01*
X35389Y-18994D01*
X35440Y-18979D01*
X35646Y-18796D01*
X35646Y-18994D01*
X35286Y-19491D02*
X35286Y-19689D01*
X35423Y-19582D01*
X35423Y-19628D01*
X35440Y-19658D01*
X35457Y-19674D01*
X35491Y-19689D01*
X35577Y-19689D01*
X35611Y-19674D01*
X35629Y-19658D01*
X35646Y-19628D01*
X35646Y-19536D01*
X35629Y-19506D01*
X35611Y-19491D01*
X35286Y-19887D02*
X35286Y-19918D01*
X35303Y-19948D01*
X35320Y-19963D01*
X35354Y-19979D01*
X35423Y-19994D01*
X35509Y-19994D01*
X35577Y-19979D01*
X35611Y-19963D01*
X35629Y-19948D01*
X35646Y-19918D01*
X35646Y-19887D01*
X35629Y-19857D01*
X35611Y-19841D01*
X35577Y-19826D01*
X35509Y-19811D01*
X35423Y-19811D01*
X35354Y-19826D01*
X35320Y-19841D01*
X35303Y-19857D01*
X35286Y-19887D01*
X35320Y-23506D02*
X35303Y-23521D01*
X35286Y-23552D01*
X35286Y-23628D01*
X35303Y-23658D01*
X35320Y-23674D01*
X35354Y-23689D01*
X35389Y-23689D01*
X35440Y-23674D01*
X35646Y-23491D01*
X35646Y-23689D01*
X35320Y-23811D02*
X35303Y-23826D01*
X35286Y-23857D01*
X35286Y-23933D01*
X35303Y-23963D01*
X35320Y-23979D01*
X35354Y-23994D01*
X35389Y-23994D01*
X35440Y-23979D01*
X35646Y-23796D01*
X35646Y-23994D01*
X35320Y-24506D02*
X35303Y-24521D01*
X35286Y-24552D01*
X35286Y-24628D01*
X35303Y-24658D01*
X35320Y-24674D01*
X35354Y-24689D01*
X35389Y-24689D01*
X35440Y-24674D01*
X35646Y-24491D01*
X35646Y-24689D01*
X35286Y-24887D02*
X35286Y-24918D01*
X35303Y-24948D01*
X35320Y-24963D01*
X35354Y-24979D01*
X35423Y-24994D01*
X35509Y-24994D01*
X35577Y-24979D01*
X35611Y-24963D01*
X35629Y-24948D01*
X35646Y-24918D01*
X35646Y-24887D01*
X35629Y-24857D01*
X35611Y-24841D01*
X35577Y-24826D01*
X35509Y-24811D01*
X35423Y-24811D01*
X35354Y-24826D01*
X35320Y-24841D01*
X35303Y-24857D01*
X35286Y-24887D01*
X35646Y-25689D02*
X35646Y-25506D01*
X35646Y-25597D02*
X35286Y-25597D01*
X35337Y-25567D01*
X35371Y-25536D01*
X35389Y-25506D01*
X35440Y-25872D02*
X35423Y-25841D01*
X35406Y-25826D01*
X35371Y-25811D01*
X35354Y-25811D01*
X35320Y-25826D01*
X35303Y-25841D01*
X35286Y-25872D01*
X35286Y-25933D01*
X35303Y-25963D01*
X35320Y-25979D01*
X35354Y-25994D01*
X35371Y-25994D01*
X35406Y-25979D01*
X35423Y-25963D01*
X35440Y-25933D01*
X35440Y-25872D01*
X35457Y-25841D01*
X35474Y-25826D01*
X35509Y-25811D01*
X35577Y-25811D01*
X35611Y-25826D01*
X35629Y-25841D01*
X35646Y-25872D01*
X35646Y-25933D01*
X35629Y-25963D01*
X35611Y-25979D01*
X35577Y-25994D01*
X35509Y-25994D01*
X35474Y-25979D01*
X35457Y-25963D01*
X35440Y-25933D01*
X35286Y-09674D02*
X35286Y-09521D01*
X35457Y-09506D01*
X35440Y-09521D01*
X35423Y-09552D01*
X35423Y-09628D01*
X35440Y-09658D01*
X35457Y-09674D01*
X35491Y-09689D01*
X35577Y-09689D01*
X35611Y-09674D01*
X35629Y-09658D01*
X35646Y-09628D01*
X35646Y-09552D01*
X35629Y-09521D01*
X35611Y-09506D01*
X35286Y-09887D02*
X35286Y-09918D01*
X35303Y-09948D01*
X35320Y-09963D01*
X35354Y-09979D01*
X35423Y-09994D01*
X35509Y-09994D01*
X35577Y-09979D01*
X35611Y-09963D01*
X35629Y-09948D01*
X35646Y-09918D01*
X35646Y-09887D01*
X35629Y-09857D01*
X35611Y-09841D01*
X35577Y-09826D01*
X35509Y-09811D01*
X35423Y-09811D01*
X35354Y-09826D01*
X35320Y-09841D01*
X35303Y-09857D01*
X35286Y-09887D01*
X35406Y-13658D02*
X35646Y-13658D01*
X35269Y-13582D02*
X35526Y-13506D01*
X35526Y-13704D01*
X35320Y-13811D02*
X35303Y-13826D01*
X35286Y-13857D01*
X35286Y-13933D01*
X35303Y-13963D01*
X35320Y-13979D01*
X35354Y-13994D01*
X35389Y-13994D01*
X35440Y-13979D01*
X35646Y-13796D01*
X35646Y-13994D01*
X35406Y-12658D02*
X35646Y-12658D01*
X35269Y-12582D02*
X35526Y-12506D01*
X35526Y-12704D01*
X35406Y-12963D02*
X35646Y-12963D01*
X35269Y-12887D02*
X35526Y-12811D01*
X35526Y-13009D01*
X35406Y-10658D02*
X35646Y-10658D01*
X35269Y-10582D02*
X35526Y-10506D01*
X35526Y-10704D01*
X35440Y-10872D02*
X35423Y-10841D01*
X35406Y-10826D01*
X35371Y-10811D01*
X35354Y-10811D01*
X35320Y-10826D01*
X35303Y-10841D01*
X35286Y-10872D01*
X35286Y-10933D01*
X35303Y-10963D01*
X35320Y-10979D01*
X35354Y-10994D01*
X35371Y-10994D01*
X35406Y-10979D01*
X35423Y-10963D01*
X35440Y-10933D01*
X35440Y-10872D01*
X35457Y-10841D01*
X35474Y-10826D01*
X35509Y-10811D01*
X35577Y-10811D01*
X35611Y-10826D01*
X35629Y-10841D01*
X35646Y-10872D01*
X35646Y-10933D01*
X35629Y-10963D01*
X35611Y-10979D01*
X35577Y-10994D01*
X35509Y-10994D01*
X35474Y-10979D01*
X35457Y-10963D01*
X35440Y-10933D01*
X35406Y-11658D02*
X35646Y-11658D01*
X35269Y-11582D02*
X35526Y-11506D01*
X35526Y-11704D01*
X35286Y-11963D02*
X35286Y-11902D01*
X35303Y-11872D01*
X35320Y-11857D01*
X35371Y-11826D01*
X35440Y-11811D01*
X35577Y-11811D01*
X35611Y-11826D01*
X35629Y-11841D01*
X35646Y-11872D01*
X35646Y-11933D01*
X35629Y-11963D01*
X35611Y-11979D01*
X35577Y-11994D01*
X35491Y-11994D01*
X35457Y-11979D01*
X35440Y-11963D01*
X35423Y-11933D01*
X35423Y-11872D01*
X35440Y-11841D01*
X35457Y-11826D01*
X35491Y-11811D01*
X35286Y-15491D02*
X35286Y-15689D01*
X35423Y-15582D01*
X35423Y-15628D01*
X35440Y-15658D01*
X35457Y-15674D01*
X35491Y-15689D01*
X35577Y-15689D01*
X35611Y-15674D01*
X35629Y-15658D01*
X35646Y-15628D01*
X35646Y-15536D01*
X35629Y-15506D01*
X35611Y-15491D01*
X35440Y-15872D02*
X35423Y-15841D01*
X35406Y-15826D01*
X35371Y-15811D01*
X35354Y-15811D01*
X35320Y-15826D01*
X35303Y-15841D01*
X35286Y-15872D01*
X35286Y-15933D01*
X35303Y-15963D01*
X35320Y-15979D01*
X35354Y-15994D01*
X35371Y-15994D01*
X35406Y-15979D01*
X35423Y-15963D01*
X35440Y-15933D01*
X35440Y-15872D01*
X35457Y-15841D01*
X35474Y-15826D01*
X35509Y-15811D01*
X35577Y-15811D01*
X35611Y-15826D01*
X35629Y-15841D01*
X35646Y-15872D01*
X35646Y-15933D01*
X35629Y-15963D01*
X35611Y-15979D01*
X35577Y-15994D01*
X35509Y-15994D01*
X35474Y-15979D01*
X35457Y-15963D01*
X35440Y-15933D01*
X35406Y-14658D02*
X35646Y-14658D01*
X35269Y-14582D02*
X35526Y-14506D01*
X35526Y-14704D01*
X35286Y-14887D02*
X35286Y-14918D01*
X35303Y-14948D01*
X35320Y-14963D01*
X35354Y-14979D01*
X35423Y-14994D01*
X35509Y-14994D01*
X35577Y-14979D01*
X35611Y-14963D01*
X35629Y-14948D01*
X35646Y-14918D01*
X35646Y-14887D01*
X35629Y-14857D01*
X35611Y-14841D01*
X35577Y-14826D01*
X35509Y-14811D01*
X35423Y-14811D01*
X35354Y-14826D01*
X35320Y-14841D01*
X35303Y-14857D01*
X35286Y-14887D01*
X35286Y-16491D02*
X35286Y-16689D01*
X35423Y-16582D01*
X35423Y-16628D01*
X35440Y-16658D01*
X35457Y-16674D01*
X35491Y-16689D01*
X35577Y-16689D01*
X35611Y-16674D01*
X35629Y-16658D01*
X35646Y-16628D01*
X35646Y-16536D01*
X35629Y-16506D01*
X35611Y-16491D01*
X35286Y-16963D02*
X35286Y-16902D01*
X35303Y-16872D01*
X35320Y-16857D01*
X35371Y-16826D01*
X35440Y-16811D01*
X35577Y-16811D01*
X35611Y-16826D01*
X35629Y-16841D01*
X35646Y-16872D01*
X35646Y-16933D01*
X35629Y-16963D01*
X35611Y-16979D01*
X35577Y-16994D01*
X35491Y-16994D01*
X35457Y-16979D01*
X35440Y-16963D01*
X35423Y-16933D01*
X35423Y-16872D01*
X35440Y-16841D01*
X35457Y-16826D01*
X35491Y-16811D01*
X35286Y-17491D02*
X35286Y-17689D01*
X35423Y-17582D01*
X35423Y-17628D01*
X35440Y-17658D01*
X35457Y-17674D01*
X35491Y-17689D01*
X35577Y-17689D01*
X35611Y-17674D01*
X35629Y-17658D01*
X35646Y-17628D01*
X35646Y-17536D01*
X35629Y-17506D01*
X35611Y-17491D01*
X35406Y-17963D02*
X35646Y-17963D01*
X35269Y-17887D02*
X35526Y-17811D01*
X35526Y-18009D01*
X32286Y-17491D02*
X32286Y-17689D01*
X32423Y-17582D01*
X32423Y-17628D01*
X32440Y-17658D01*
X32457Y-17674D01*
X32491Y-17689D01*
X32577Y-17689D01*
X32611Y-17674D01*
X32629Y-17658D01*
X32646Y-17628D01*
X32646Y-17536D01*
X32629Y-17506D01*
X32611Y-17491D01*
X32286Y-17796D02*
X32286Y-17994D01*
X32423Y-17887D01*
X32423Y-17933D01*
X32440Y-17963D01*
X32457Y-17979D01*
X32491Y-17994D01*
X32577Y-17994D01*
X32611Y-17979D01*
X32629Y-17963D01*
X32646Y-17933D01*
X32646Y-17841D01*
X32629Y-17811D01*
X32611Y-17796D01*
X32286Y-16491D02*
X32286Y-16689D01*
X32423Y-16582D01*
X32423Y-16628D01*
X32440Y-16658D01*
X32457Y-16674D01*
X32491Y-16689D01*
X32577Y-16689D01*
X32611Y-16674D01*
X32629Y-16658D01*
X32646Y-16628D01*
X32646Y-16536D01*
X32629Y-16506D01*
X32611Y-16491D01*
X32286Y-16979D02*
X32286Y-16826D01*
X32457Y-16811D01*
X32440Y-16826D01*
X32423Y-16857D01*
X32423Y-16933D01*
X32440Y-16963D01*
X32457Y-16979D01*
X32491Y-16994D01*
X32577Y-16994D01*
X32611Y-16979D01*
X32629Y-16963D01*
X32646Y-16933D01*
X32646Y-16857D01*
X32629Y-16826D01*
X32611Y-16811D01*
X32286Y-14491D02*
X32286Y-14689D01*
X32423Y-14582D01*
X32423Y-14628D01*
X32440Y-14658D01*
X32457Y-14674D01*
X32491Y-14689D01*
X32577Y-14689D01*
X32611Y-14674D01*
X32629Y-14658D01*
X32646Y-14628D01*
X32646Y-14536D01*
X32629Y-14506D01*
X32611Y-14491D01*
X32646Y-14841D02*
X32646Y-14902D01*
X32629Y-14933D01*
X32611Y-14948D01*
X32560Y-14979D01*
X32491Y-14994D01*
X32354Y-14994D01*
X32320Y-14979D01*
X32303Y-14963D01*
X32286Y-14933D01*
X32286Y-14872D01*
X32303Y-14841D01*
X32320Y-14826D01*
X32354Y-14811D01*
X32440Y-14811D01*
X32474Y-14826D01*
X32491Y-14841D01*
X32509Y-14872D01*
X32509Y-14933D01*
X32491Y-14963D01*
X32474Y-14979D01*
X32440Y-14994D01*
X32286Y-15491D02*
X32286Y-15689D01*
X32423Y-15582D01*
X32423Y-15628D01*
X32440Y-15658D01*
X32457Y-15674D01*
X32491Y-15689D01*
X32577Y-15689D01*
X32611Y-15674D01*
X32629Y-15658D01*
X32646Y-15628D01*
X32646Y-15536D01*
X32629Y-15506D01*
X32611Y-15491D01*
X32286Y-15796D02*
X32286Y-16009D01*
X32646Y-15872D01*
X32406Y-11658D02*
X32646Y-11658D01*
X32269Y-11582D02*
X32526Y-11506D01*
X32526Y-11704D01*
X32286Y-11979D02*
X32286Y-11826D01*
X32457Y-11811D01*
X32440Y-11826D01*
X32423Y-11857D01*
X32423Y-11933D01*
X32440Y-11963D01*
X32457Y-11979D01*
X32491Y-11994D01*
X32577Y-11994D01*
X32611Y-11979D01*
X32629Y-11963D01*
X32646Y-11933D01*
X32646Y-11857D01*
X32629Y-11826D01*
X32611Y-11811D01*
X32406Y-10658D02*
X32646Y-10658D01*
X32269Y-10582D02*
X32526Y-10506D01*
X32526Y-10704D01*
X32286Y-10796D02*
X32286Y-11009D01*
X32646Y-10872D01*
X32406Y-12658D02*
X32646Y-12658D01*
X32269Y-12582D02*
X32526Y-12506D01*
X32526Y-12704D01*
X32286Y-12796D02*
X32286Y-12994D01*
X32423Y-12887D01*
X32423Y-12933D01*
X32440Y-12963D01*
X32457Y-12979D01*
X32491Y-12994D01*
X32577Y-12994D01*
X32611Y-12979D01*
X32629Y-12963D01*
X32646Y-12933D01*
X32646Y-12841D01*
X32629Y-12811D01*
X32611Y-12796D01*
X32406Y-13658D02*
X32646Y-13658D01*
X32269Y-13582D02*
X32526Y-13506D01*
X32526Y-13704D01*
X32646Y-13994D02*
X32646Y-13811D01*
X32646Y-13902D02*
X32286Y-13902D01*
X32337Y-13872D01*
X32371Y-13841D01*
X32389Y-13811D01*
X32406Y-09658D02*
X32646Y-09658D01*
X32269Y-09582D02*
X32526Y-09506D01*
X32526Y-09704D01*
X32646Y-09841D02*
X32646Y-09902D01*
X32629Y-09933D01*
X32611Y-09948D01*
X32560Y-09979D01*
X32491Y-09994D01*
X32354Y-09994D01*
X32320Y-09979D01*
X32303Y-09963D01*
X32286Y-09933D01*
X32286Y-09872D01*
X32303Y-09841D01*
X32320Y-09826D01*
X32354Y-09811D01*
X32440Y-09811D01*
X32474Y-09826D01*
X32491Y-09841D01*
X32509Y-09872D01*
X32509Y-09933D01*
X32491Y-09963D01*
X32474Y-09979D01*
X32440Y-09994D01*
X32646Y-25689D02*
X32646Y-25506D01*
X32646Y-25597D02*
X32286Y-25597D01*
X32337Y-25567D01*
X32371Y-25536D01*
X32389Y-25506D01*
X32286Y-25796D02*
X32286Y-26009D01*
X32646Y-25872D01*
X32646Y-24689D02*
X32646Y-24506D01*
X32646Y-24597D02*
X32286Y-24597D01*
X32337Y-24567D01*
X32371Y-24536D01*
X32389Y-24506D01*
X32646Y-24841D02*
X32646Y-24902D01*
X32629Y-24933D01*
X32611Y-24948D01*
X32560Y-24979D01*
X32491Y-24994D01*
X32354Y-24994D01*
X32320Y-24979D01*
X32303Y-24963D01*
X32286Y-24933D01*
X32286Y-24872D01*
X32303Y-24841D01*
X32320Y-24826D01*
X32354Y-24811D01*
X32440Y-24811D01*
X32474Y-24826D01*
X32491Y-24841D01*
X32509Y-24872D01*
X32509Y-24933D01*
X32491Y-24963D01*
X32474Y-24979D01*
X32440Y-24994D01*
X32320Y-22506D02*
X32303Y-22521D01*
X32286Y-22552D01*
X32286Y-22628D01*
X32303Y-22658D01*
X32320Y-22674D01*
X32354Y-22689D01*
X32389Y-22689D01*
X32440Y-22674D01*
X32646Y-22491D01*
X32646Y-22689D01*
X32286Y-22796D02*
X32286Y-22994D01*
X32423Y-22887D01*
X32423Y-22933D01*
X32440Y-22963D01*
X32457Y-22979D01*
X32491Y-22994D01*
X32577Y-22994D01*
X32611Y-22979D01*
X32629Y-22963D01*
X32646Y-22933D01*
X32646Y-22841D01*
X32629Y-22811D01*
X32611Y-22796D01*
X32320Y-23506D02*
X32303Y-23521D01*
X32286Y-23552D01*
X32286Y-23628D01*
X32303Y-23658D01*
X32320Y-23674D01*
X32354Y-23689D01*
X32389Y-23689D01*
X32440Y-23674D01*
X32646Y-23491D01*
X32646Y-23689D01*
X32646Y-23994D02*
X32646Y-23811D01*
X32646Y-23902D02*
X32286Y-23902D01*
X32337Y-23872D01*
X32371Y-23841D01*
X32389Y-23811D01*
X32320Y-19506D02*
X32303Y-19521D01*
X32286Y-19552D01*
X32286Y-19628D01*
X32303Y-19658D01*
X32320Y-19674D01*
X32354Y-19689D01*
X32389Y-19689D01*
X32440Y-19674D01*
X32646Y-19491D01*
X32646Y-19689D01*
X32646Y-19841D02*
X32646Y-19902D01*
X32629Y-19933D01*
X32611Y-19948D01*
X32560Y-19979D01*
X32491Y-19994D01*
X32354Y-19994D01*
X32320Y-19979D01*
X32303Y-19963D01*
X32286Y-19933D01*
X32286Y-19872D01*
X32303Y-19841D01*
X32320Y-19826D01*
X32354Y-19811D01*
X32440Y-19811D01*
X32474Y-19826D01*
X32491Y-19841D01*
X32509Y-19872D01*
X32509Y-19933D01*
X32491Y-19963D01*
X32474Y-19979D01*
X32440Y-19994D01*
X32286Y-18491D02*
X32286Y-18689D01*
X32423Y-18582D01*
X32423Y-18628D01*
X32440Y-18658D01*
X32457Y-18674D01*
X32491Y-18689D01*
X32577Y-18689D01*
X32611Y-18674D01*
X32629Y-18658D01*
X32646Y-18628D01*
X32646Y-18536D01*
X32629Y-18506D01*
X32611Y-18491D01*
X32646Y-18994D02*
X32646Y-18811D01*
X32646Y-18902D02*
X32286Y-18902D01*
X32337Y-18872D01*
X32371Y-18841D01*
X32389Y-18811D01*
X32320Y-20506D02*
X32303Y-20521D01*
X32286Y-20552D01*
X32286Y-20628D01*
X32303Y-20658D01*
X32320Y-20674D01*
X32354Y-20689D01*
X32389Y-20689D01*
X32440Y-20674D01*
X32646Y-20491D01*
X32646Y-20689D01*
X32286Y-20796D02*
X32286Y-21009D01*
X32646Y-20872D01*
X32320Y-21506D02*
X32303Y-21521D01*
X32286Y-21552D01*
X32286Y-21628D01*
X32303Y-21658D01*
X32320Y-21674D01*
X32354Y-21689D01*
X32389Y-21689D01*
X32440Y-21674D01*
X32646Y-21491D01*
X32646Y-21689D01*
X32286Y-21979D02*
X32286Y-21826D01*
X32457Y-21811D01*
X32440Y-21826D01*
X32423Y-21857D01*
X32423Y-21933D01*
X32440Y-21963D01*
X32457Y-21979D01*
X32491Y-21994D01*
X32577Y-21994D01*
X32611Y-21979D01*
X32629Y-21963D01*
X32646Y-21933D01*
X32646Y-21857D01*
X32629Y-21826D01*
X32611Y-21811D01*
X32646Y-29689D02*
X32646Y-29750D01*
X32629Y-29781D01*
X32611Y-29796D01*
X32560Y-29827D01*
X32491Y-29842D01*
X32354Y-29842D01*
X32320Y-29827D01*
X32303Y-29811D01*
X32286Y-29781D01*
X32286Y-29720D01*
X32303Y-29689D01*
X32320Y-29674D01*
X32354Y-29659D01*
X32440Y-29659D01*
X32474Y-29674D01*
X32491Y-29689D01*
X32509Y-29720D01*
X32509Y-29781D01*
X32491Y-29811D01*
X32474Y-29827D01*
X32440Y-29842D01*
X32646Y-28689D02*
X32646Y-28506D01*
X32646Y-28597D02*
X32286Y-28597D01*
X32337Y-28567D01*
X32371Y-28536D01*
X32389Y-28506D01*
X32646Y-28994D02*
X32646Y-28811D01*
X32646Y-28902D02*
X32286Y-28902D01*
X32337Y-28872D01*
X32371Y-28841D01*
X32389Y-28811D01*
X32646Y-26689D02*
X32646Y-26506D01*
X32646Y-26597D02*
X32286Y-26597D01*
X32337Y-26567D01*
X32371Y-26536D01*
X32389Y-26506D01*
X32286Y-26979D02*
X32286Y-26826D01*
X32457Y-26811D01*
X32440Y-26826D01*
X32423Y-26857D01*
X32423Y-26933D01*
X32440Y-26963D01*
X32457Y-26979D01*
X32491Y-26994D01*
X32577Y-26994D01*
X32611Y-26979D01*
X32629Y-26963D01*
X32646Y-26933D01*
X32646Y-26857D01*
X32629Y-26826D01*
X32611Y-26811D01*
X32646Y-27689D02*
X32646Y-27506D01*
X32646Y-27597D02*
X32286Y-27597D01*
X32337Y-27567D01*
X32371Y-27536D01*
X32389Y-27506D01*
X32286Y-27796D02*
X32286Y-27994D01*
X32423Y-27887D01*
X32423Y-27933D01*
X32440Y-27963D01*
X32457Y-27979D01*
X32491Y-27994D01*
X32577Y-27994D01*
X32611Y-27979D01*
X32629Y-27963D01*
X32646Y-27933D01*
X32646Y-27841D01*
X32629Y-27811D01*
X32611Y-27796D01*
X32286Y-31827D02*
X32286Y-31674D01*
X32457Y-31659D01*
X32440Y-31674D01*
X32423Y-31705D01*
X32423Y-31781D01*
X32440Y-31811D01*
X32457Y-31827D01*
X32491Y-31842D01*
X32577Y-31842D01*
X32611Y-31827D01*
X32629Y-31811D01*
X32646Y-31781D01*
X32646Y-31705D01*
X32629Y-31674D01*
X32611Y-31659D01*
X32286Y-30644D02*
X32286Y-30857D01*
X32646Y-30720D01*
X32286Y-32644D02*
X32286Y-32842D01*
X32423Y-32735D01*
X32423Y-32781D01*
X32440Y-32811D01*
X32457Y-32827D01*
X32491Y-32842D01*
X32577Y-32842D01*
X32611Y-32827D01*
X32629Y-32811D01*
X32646Y-32781D01*
X32646Y-32689D01*
X32629Y-32659D01*
X32611Y-32644D01*
X32646Y-33842D02*
X32646Y-33659D01*
X32646Y-33750D02*
X32286Y-33750D01*
X32337Y-33720D01*
X32371Y-33689D01*
X32389Y-33659D01*
G54D10*
X20674Y-22752D02*
X20407Y-23252D01*
X20407Y-22752D02*
X20674Y-23252D01*
X20045Y-23252D02*
X20274Y-23252D01*
X20160Y-23252D02*
X20160Y-22752D01*
X20198Y-22824D01*
X20236Y-22871D01*
X20274Y-22895D01*
G54D17*
X11593Y-21348D02*
X11605Y-21379D01*
X11605Y-21432D01*
X11593Y-21453D01*
X11580Y-21463D01*
X11556Y-21474D01*
X11531Y-21474D01*
X11506Y-21463D01*
X11494Y-21453D01*
X11481Y-21432D01*
X11469Y-21390D01*
X11457Y-21369D01*
X11444Y-21358D01*
X11420Y-21348D01*
X11395Y-21348D01*
X11370Y-21358D01*
X11358Y-21369D01*
X11345Y-21390D01*
X11345Y-21442D01*
X11358Y-21474D01*
X11345Y-21547D02*
X11605Y-21600D01*
X11420Y-21642D01*
X11605Y-21684D01*
X11345Y-21736D01*
X11605Y-21819D02*
X11345Y-21819D01*
X11345Y-21893D02*
X11345Y-22019D01*
X11605Y-21956D02*
X11345Y-21956D01*
X11580Y-22218D02*
X11593Y-22208D01*
X11605Y-22176D01*
X11605Y-22155D01*
X11593Y-22124D01*
X11568Y-22103D01*
X11543Y-22092D01*
X11494Y-22082D01*
X11457Y-22082D01*
X11407Y-22092D01*
X11382Y-22103D01*
X11358Y-22124D01*
X11345Y-22155D01*
X11345Y-22176D01*
X11358Y-22208D01*
X11370Y-22218D01*
X11605Y-22312D02*
X11345Y-22312D01*
X11469Y-22312D02*
X11469Y-22438D01*
X11605Y-22438D02*
X11345Y-22438D01*
X11630Y-22490D02*
X11630Y-22658D01*
X11605Y-22710D02*
X11345Y-22710D01*
X11345Y-22794D01*
X11358Y-22815D01*
X11370Y-22826D01*
X11395Y-22836D01*
X11432Y-22836D01*
X11457Y-22826D01*
X11469Y-22815D01*
X11481Y-22794D01*
X11481Y-22710D01*
X11345Y-22930D02*
X11556Y-22930D01*
X11580Y-22941D01*
X11593Y-22951D01*
X11605Y-22972D01*
X11605Y-23014D01*
X11593Y-23035D01*
X11580Y-23046D01*
X11556Y-23056D01*
X11345Y-23056D01*
X11593Y-23150D02*
X11605Y-23181D01*
X11605Y-23234D01*
X11593Y-23255D01*
X11580Y-23265D01*
X11556Y-23276D01*
X11531Y-23276D01*
X11506Y-23265D01*
X11494Y-23255D01*
X11481Y-23234D01*
X11469Y-23192D01*
X11457Y-23171D01*
X11444Y-23160D01*
X11420Y-23150D01*
X11395Y-23150D01*
X11370Y-23160D01*
X11358Y-23171D01*
X11345Y-23192D01*
X11345Y-23244D01*
X11358Y-23276D01*
X11605Y-23370D02*
X11345Y-23370D01*
X11469Y-23370D02*
X11469Y-23496D01*
X11605Y-23496D02*
X11345Y-23496D01*
X11469Y-23674D02*
X11481Y-23705D01*
X11494Y-23716D01*
X11519Y-23726D01*
X11556Y-23726D01*
X11580Y-23716D01*
X11593Y-23705D01*
X11605Y-23684D01*
X11605Y-23600D01*
X11345Y-23600D01*
X11345Y-23674D01*
X11358Y-23695D01*
X11370Y-23705D01*
X11395Y-23716D01*
X11420Y-23716D01*
X11444Y-23705D01*
X11457Y-23695D01*
X11469Y-23674D01*
X11469Y-23600D01*
X11345Y-23820D02*
X11556Y-23820D01*
X11580Y-23831D01*
X11593Y-23841D01*
X11605Y-23862D01*
X11605Y-23904D01*
X11593Y-23925D01*
X11580Y-23936D01*
X11556Y-23946D01*
X11345Y-23946D01*
X11345Y-24019D02*
X11345Y-24145D01*
X11605Y-24082D02*
X11345Y-24082D01*
X11345Y-24187D02*
X11345Y-24313D01*
X11605Y-24250D02*
X11345Y-24250D01*
X11345Y-24428D02*
X11345Y-24470D01*
X11358Y-24491D01*
X11382Y-24512D01*
X11432Y-24523D01*
X11519Y-24523D01*
X11568Y-24512D01*
X11593Y-24491D01*
X11605Y-24470D01*
X11605Y-24428D01*
X11593Y-24407D01*
X11568Y-24386D01*
X11519Y-24376D01*
X11432Y-24376D01*
X11382Y-24386D01*
X11358Y-24407D01*
X11345Y-24428D01*
X11605Y-24616D02*
X11345Y-24616D01*
X11605Y-24742D01*
X11345Y-24742D01*
G54D11*
X17335Y-27543D02*
X16935Y-28143D01*
X16935Y-27543D02*
X17335Y-28143D01*
X16736Y-27600D02*
X16707Y-27571D01*
X16650Y-27543D01*
X16507Y-27543D01*
X16450Y-27571D01*
X16421Y-27600D01*
X16393Y-27657D01*
X16393Y-27714D01*
X16421Y-27800D01*
X16764Y-28143D01*
X16393Y-28143D01*
X18164Y-26750D02*
X18135Y-26721D01*
X18078Y-26693D01*
X17935Y-26693D01*
X17878Y-26721D01*
X17849Y-26750D01*
X17821Y-26807D01*
X17821Y-26864D01*
X17849Y-26950D01*
X18192Y-27293D01*
X17821Y-27293D01*
X17278Y-26693D02*
X17564Y-26693D01*
X17593Y-26979D01*
X17564Y-26950D01*
X17507Y-26921D01*
X17364Y-26921D01*
X17307Y-26950D01*
X17278Y-26979D01*
X17250Y-27036D01*
X17250Y-27179D01*
X17278Y-27236D01*
X17307Y-27264D01*
X17364Y-27293D01*
X17507Y-27293D01*
X17564Y-27264D01*
X17593Y-27236D01*
X16993Y-27293D02*
X16993Y-26693D01*
X16793Y-27121D01*
X16593Y-26693D01*
X16593Y-27293D01*
X16307Y-27293D02*
X16307Y-26693D01*
X16050Y-27293D02*
X16050Y-26979D01*
X16079Y-26921D01*
X16136Y-26893D01*
X16221Y-26893D01*
X16279Y-26921D01*
X16307Y-26950D01*
X15821Y-26893D02*
X15507Y-26893D01*
X15821Y-27293D01*
X15507Y-27293D01*
G54D10*
X15921Y-14200D02*
X16136Y-14200D01*
X16179Y-14186D01*
X16207Y-14157D01*
X16221Y-14114D01*
X16221Y-14086D01*
X15921Y-14315D02*
X15921Y-14501D01*
X16036Y-14401D01*
X16036Y-14443D01*
X16050Y-14472D01*
X16064Y-14486D01*
X16093Y-14501D01*
X16164Y-14501D01*
X16193Y-14486D01*
X16207Y-14472D01*
X16221Y-14443D01*
X16221Y-14358D01*
X16207Y-14329D01*
X16193Y-14315D01*
X15021Y-14200D02*
X15236Y-14200D01*
X15279Y-14186D01*
X15307Y-14157D01*
X15321Y-14114D01*
X15321Y-14086D01*
X15050Y-14329D02*
X15036Y-14343D01*
X15021Y-14372D01*
X15021Y-14443D01*
X15036Y-14472D01*
X15050Y-14486D01*
X15079Y-14501D01*
X15107Y-14501D01*
X15150Y-14486D01*
X15321Y-14315D01*
X15321Y-14501D01*
G54D11*
X19050Y-34693D02*
X19050Y-35121D01*
X19078Y-35207D01*
X19135Y-35264D01*
X19221Y-35293D01*
X19278Y-35293D01*
X18507Y-34893D02*
X18507Y-35293D01*
X18650Y-34664D02*
X18793Y-35093D01*
X18421Y-35093D01*
X21178Y-33543D02*
X21178Y-34029D01*
X21150Y-34086D01*
X21121Y-34114D01*
X21064Y-34143D01*
X20950Y-34143D01*
X20892Y-34114D01*
X20864Y-34086D01*
X20835Y-34029D01*
X20835Y-33543D01*
X20578Y-34114D02*
X20492Y-34143D01*
X20349Y-34143D01*
X20292Y-34114D01*
X20263Y-34086D01*
X20235Y-34029D01*
X20235Y-33971D01*
X20263Y-33914D01*
X20292Y-33886D01*
X20349Y-33857D01*
X20463Y-33829D01*
X20521Y-33800D01*
X20549Y-33771D01*
X20578Y-33714D01*
X20578Y-33657D01*
X20549Y-33600D01*
X20521Y-33571D01*
X20463Y-33543D01*
X20321Y-33543D01*
X20235Y-33571D01*
X19778Y-33829D02*
X19692Y-33857D01*
X19664Y-33886D01*
X19635Y-33943D01*
X19635Y-34029D01*
X19664Y-34086D01*
X19692Y-34114D01*
X19750Y-34143D01*
X19978Y-34143D01*
X19978Y-33543D01*
X19778Y-33543D01*
X19721Y-33571D01*
X19692Y-33600D01*
X19664Y-33657D01*
X19664Y-33714D01*
X19692Y-33771D01*
X19721Y-33800D01*
X19778Y-33829D01*
X19978Y-33829D01*
X19521Y-34200D02*
X19064Y-34200D01*
X18921Y-34143D02*
X18921Y-33543D01*
X18921Y-33829D02*
X18578Y-33829D01*
X18578Y-34143D02*
X18578Y-33543D01*
X18178Y-33543D02*
X18064Y-33543D01*
X18006Y-33571D01*
X17949Y-33629D01*
X17921Y-33743D01*
X17921Y-33943D01*
X17949Y-34057D01*
X18006Y-34114D01*
X18064Y-34143D01*
X18178Y-34143D01*
X18235Y-34114D01*
X18292Y-34057D01*
X18321Y-33943D01*
X18321Y-33743D01*
X18292Y-33629D01*
X18235Y-33571D01*
X18178Y-33543D01*
X17692Y-34114D02*
X17606Y-34143D01*
X17463Y-34143D01*
X17406Y-34114D01*
X17377Y-34086D01*
X17349Y-34029D01*
X17349Y-33971D01*
X17377Y-33914D01*
X17406Y-33886D01*
X17463Y-33857D01*
X17577Y-33829D01*
X17635Y-33800D01*
X17663Y-33771D01*
X17692Y-33714D01*
X17692Y-33657D01*
X17663Y-33600D01*
X17635Y-33571D01*
X17577Y-33543D01*
X17435Y-33543D01*
X17349Y-33571D01*
X17178Y-33543D02*
X16835Y-33543D01*
X17006Y-34143D02*
X17006Y-33543D01*
X16043Y-29850D02*
X16471Y-29850D01*
X16557Y-29822D01*
X16614Y-29765D01*
X16643Y-29679D01*
X16643Y-29622D01*
X16043Y-30422D02*
X16043Y-30136D01*
X16329Y-30107D01*
X16300Y-30136D01*
X16271Y-30193D01*
X16271Y-30336D01*
X16300Y-30393D01*
X16329Y-30422D01*
X16386Y-30450D01*
X16529Y-30450D01*
X16586Y-30422D01*
X16614Y-30393D01*
X16643Y-30336D01*
X16643Y-30193D01*
X16614Y-30136D01*
X16586Y-30107D01*
X14893Y-28286D02*
X15379Y-28286D01*
X15436Y-28314D01*
X15464Y-28343D01*
X15493Y-28400D01*
X15493Y-28514D01*
X15464Y-28572D01*
X15436Y-28600D01*
X15379Y-28629D01*
X14893Y-28629D01*
X15464Y-28886D02*
X15493Y-28972D01*
X15493Y-29115D01*
X15464Y-29172D01*
X15436Y-29201D01*
X15379Y-29229D01*
X15321Y-29229D01*
X15264Y-29201D01*
X15236Y-29172D01*
X15207Y-29115D01*
X15179Y-29001D01*
X15150Y-28943D01*
X15121Y-28915D01*
X15064Y-28886D01*
X15007Y-28886D01*
X14950Y-28915D01*
X14921Y-28943D01*
X14893Y-29001D01*
X14893Y-29143D01*
X14921Y-29229D01*
X15179Y-29686D02*
X15207Y-29772D01*
X15236Y-29800D01*
X15293Y-29829D01*
X15379Y-29829D01*
X15436Y-29800D01*
X15464Y-29772D01*
X15493Y-29714D01*
X15493Y-29486D01*
X14893Y-29486D01*
X14893Y-29686D01*
X14921Y-29743D01*
X14950Y-29772D01*
X15007Y-29800D01*
X15064Y-29800D01*
X15121Y-29772D01*
X15150Y-29743D01*
X15179Y-29686D01*
X15179Y-29486D01*
X15550Y-29943D02*
X15550Y-30400D01*
X15493Y-30543D02*
X14893Y-30543D01*
X14893Y-30686D01*
X14921Y-30771D01*
X14979Y-30829D01*
X15036Y-30857D01*
X15150Y-30886D01*
X15236Y-30886D01*
X15350Y-30857D01*
X15407Y-30829D01*
X15464Y-30771D01*
X15493Y-30686D01*
X15493Y-30543D01*
X15179Y-31143D02*
X15179Y-31343D01*
X15493Y-31429D02*
X15493Y-31143D01*
X14893Y-31143D01*
X14893Y-31429D01*
X14893Y-31600D02*
X15493Y-31800D01*
X14893Y-32000D01*
G54D10*
X26071Y-23250D02*
X26286Y-23250D01*
X26329Y-23236D01*
X26357Y-23207D01*
X26371Y-23164D01*
X26371Y-23136D01*
X26371Y-23551D02*
X26371Y-23379D01*
X26371Y-23465D02*
X26071Y-23465D01*
X26114Y-23436D01*
X26143Y-23408D01*
X26157Y-23379D01*
G54D18*
X11814Y-14712D02*
X11814Y-14998D01*
X11834Y-15055D01*
X11872Y-15093D01*
X11929Y-15112D01*
X11967Y-15112D01*
X11719Y-15150D02*
X11414Y-15150D01*
X11319Y-15112D02*
X11319Y-14712D01*
X11166Y-14712D01*
X11128Y-14731D01*
X11109Y-14750D01*
X11090Y-14788D01*
X11090Y-14845D01*
X11109Y-14883D01*
X11128Y-14902D01*
X11166Y-14921D01*
X11319Y-14921D01*
X10957Y-14712D02*
X10862Y-15112D01*
X10785Y-14826D01*
X10709Y-15112D01*
X10614Y-14712D01*
X10233Y-15112D02*
X10367Y-14921D01*
X10462Y-15112D02*
X10462Y-14712D01*
X10309Y-14712D01*
X10271Y-14731D01*
X10252Y-14750D01*
X10233Y-14788D01*
X10233Y-14845D01*
X10252Y-14883D01*
X10271Y-14902D01*
X10309Y-14921D01*
X10462Y-14921D01*
X09852Y-15112D02*
X10081Y-15112D01*
X09967Y-15112D02*
X09967Y-14712D01*
X10005Y-14769D01*
X10043Y-14807D01*
X10081Y-14826D01*
X11153Y-10712D02*
X11153Y-10312D01*
X11058Y-10312D01*
X11000Y-10331D01*
X10962Y-10369D01*
X10943Y-10407D01*
X10924Y-10483D01*
X10924Y-10540D01*
X10943Y-10617D01*
X10962Y-10655D01*
X11000Y-10693D01*
X11058Y-10712D01*
X11153Y-10712D01*
X10524Y-10674D02*
X10543Y-10693D01*
X10600Y-10712D01*
X10638Y-10712D01*
X10696Y-10693D01*
X10734Y-10655D01*
X10753Y-10617D01*
X10772Y-10540D01*
X10772Y-10483D01*
X10753Y-10407D01*
X10734Y-10369D01*
X10696Y-10331D01*
X10638Y-10312D01*
X10600Y-10312D01*
X10543Y-10331D01*
X10524Y-10350D01*
X10448Y-10750D02*
X10143Y-10750D01*
X10048Y-10712D02*
X10048Y-10312D01*
X09895Y-10312D01*
X09857Y-10331D01*
X09838Y-10350D01*
X09819Y-10388D01*
X09819Y-10445D01*
X09838Y-10483D01*
X09857Y-10502D01*
X09895Y-10521D01*
X10048Y-10521D01*
X09572Y-10312D02*
X09495Y-10312D01*
X09457Y-10331D01*
X09419Y-10369D01*
X09400Y-10445D01*
X09400Y-10579D01*
X09419Y-10655D01*
X09457Y-10693D01*
X09495Y-10712D01*
X09572Y-10712D01*
X09610Y-10693D01*
X09648Y-10655D01*
X09667Y-10579D01*
X09667Y-10445D01*
X09648Y-10369D01*
X09610Y-10331D01*
X09572Y-10312D01*
X09267Y-10312D02*
X09172Y-10712D01*
X09095Y-10426D01*
X09019Y-10712D01*
X08924Y-10312D01*
X08772Y-10502D02*
X08638Y-10502D01*
X08581Y-10712D02*
X08772Y-10712D01*
X08772Y-10312D01*
X08581Y-10312D01*
X08181Y-10712D02*
X08315Y-10521D01*
X08410Y-10712D02*
X08410Y-10312D01*
X08257Y-10312D01*
X08219Y-10331D01*
X08200Y-10350D01*
X08181Y-10388D01*
X08181Y-10445D01*
X08200Y-10483D01*
X08219Y-10502D01*
X08257Y-10521D01*
X08410Y-10521D01*
X08105Y-10750D02*
X07800Y-10750D01*
X07590Y-10312D02*
X07590Y-10598D01*
X07610Y-10655D01*
X07648Y-10693D01*
X07705Y-10712D01*
X07743Y-10712D01*
X07419Y-10598D02*
X07228Y-10598D01*
X07457Y-10712D02*
X07324Y-10312D01*
X07190Y-10712D01*
X06828Y-10674D02*
X06847Y-10693D01*
X06904Y-10712D01*
X06942Y-10712D01*
X07000Y-10693D01*
X07038Y-10655D01*
X07057Y-10617D01*
X07076Y-10540D01*
X07076Y-10483D01*
X07057Y-10407D01*
X07038Y-10369D01*
X07000Y-10331D01*
X06942Y-10312D01*
X06904Y-10312D01*
X06847Y-10331D01*
X06828Y-10350D01*
X06657Y-10712D02*
X06657Y-10312D01*
X06428Y-10712D02*
X06600Y-10483D01*
X06428Y-10312D02*
X06657Y-10540D01*
M02*
