G04 (created by PCBNEW-RS274X (2011-03-30 BZR 2932)-stable) date 28/04/2011 12:56:03 p.m.*
G01*
G70*
G90*
%MOIN*%
G04 Gerber Fmt 3.4, Leading zero omitted, Abs format*
%FSLAX34Y34*%
G04 APERTURE LIST*
%ADD10C,0.006000*%
%ADD11C,0.070000*%
%ADD12C,0.080000*%
%ADD13C,0.126300*%
%ADD14C,0.085000*%
%ADD15C,0.209000*%
%ADD16R,0.209000X0.209000*%
%ADD17R,0.080000X0.080000*%
%ADD18C,0.106600*%
%ADD19R,0.197200X0.067200*%
%ADD20C,0.079100*%
%ADD21C,0.138100*%
%ADD22R,0.075000X0.075000*%
%ADD23C,0.075000*%
G04 APERTURE END LIST*
G54D10*
G54D11*
X12700Y-16800D03*
X12700Y-15800D03*
G54D12*
X14000Y-09216D03*
X14000Y-11184D03*
X13450Y-23900D03*
X13450Y-24900D03*
X12663Y-24900D03*
X12663Y-23900D03*
G54D13*
X11600Y-22038D03*
X11600Y-26762D03*
G54D14*
X27900Y-18800D03*
X26900Y-18800D03*
X27900Y-17800D03*
X26900Y-17800D03*
X27900Y-16800D03*
X26900Y-16800D03*
X26900Y-13800D03*
X27900Y-13800D03*
X26900Y-14800D03*
X27900Y-14800D03*
X26900Y-15800D03*
X27900Y-15800D03*
X27900Y-09800D03*
X26900Y-09800D03*
X27900Y-08800D03*
X26900Y-08800D03*
X26900Y-10800D03*
X27900Y-10800D03*
X26900Y-11800D03*
X27900Y-11800D03*
X26900Y-12800D03*
X27900Y-12800D03*
X27900Y-24800D03*
X26900Y-24800D03*
X27900Y-23800D03*
X26900Y-23800D03*
X27900Y-22800D03*
X26900Y-22800D03*
X26900Y-19800D03*
X27900Y-19800D03*
X26900Y-20800D03*
X27900Y-20800D03*
X26900Y-21800D03*
X27900Y-21800D03*
X27900Y-27800D03*
X26900Y-27800D03*
X27900Y-26800D03*
X26900Y-26800D03*
X27900Y-25800D03*
X26900Y-25800D03*
X26900Y-06800D03*
X27900Y-06800D03*
X26900Y-07800D03*
X27900Y-07800D03*
X26900Y-28800D03*
X27900Y-28800D03*
X26900Y-29800D03*
X27900Y-29800D03*
X26900Y-30800D03*
X27900Y-30800D03*
G54D15*
X10700Y-30700D03*
G54D16*
X13100Y-30700D03*
G54D15*
X11600Y-28700D03*
G54D17*
X22500Y-19200D03*
G54D12*
X21500Y-19200D03*
G54D17*
X19200Y-29400D03*
G54D12*
X19200Y-30400D03*
X19200Y-31400D03*
G54D18*
X10535Y-19500D03*
G54D19*
X13311Y-19500D03*
X09689Y-19500D03*
G54D18*
X12465Y-19500D03*
G54D17*
X10200Y-10950D03*
G54D12*
X09200Y-10950D03*
X10200Y-11950D03*
X09200Y-11950D03*
X10200Y-12950D03*
X09200Y-12950D03*
X10200Y-13950D03*
X09200Y-13950D03*
G54D20*
X09803Y-23009D03*
X09803Y-24009D03*
X09803Y-24809D03*
X09803Y-25809D03*
G54D21*
X08753Y-21809D03*
X08753Y-27209D03*
G54D22*
X18700Y-27550D03*
G54D23*
X19700Y-27550D03*
G54D22*
X21450Y-29050D03*
G54D23*
X21450Y-30050D03*
M02*
