M48
;DRILL file {PCBnew (2011-03-30 BZR 2932)-stable} date 30/04/2011 07:18:57 p.m.
;FORMAT={-:-/ absolute / inch / decimal}
FMAT,2
INCH,TZ
T1C0.030
T2C0.032
T3C0.039
T4C0.040
T5C0.091
%
G90
G05
M72
T1
X1.585Y2.555
X1.785Y2.555
T2
X1.306Y2.955
X1.306Y3.055
X1.385Y2.955
X1.385Y3.055
X1.590Y2.255
X1.590Y2.355
X2.050Y2.865
X2.050Y2.965
X2.285Y0.995
X2.285Y1.095
T3
X1.195Y3.385
X1.295Y3.385
X1.375Y3.385
X1.475Y3.385
T4
X1.305Y2.105
X1.305Y2.202
X1.305Y2.398
X1.385Y2.520
X1.520Y1.835
X1.520Y1.935
X1.520Y2.035
X1.520Y2.135
X1.535Y1.250
X1.535Y1.350
X1.620Y1.835
X1.620Y1.935
X1.620Y2.035
X1.620Y2.135
X1.635Y1.250
X1.635Y1.350
X1.765Y1.720
X1.885Y3.060
X1.955Y1.715
X2.290Y1.715
X2.295Y2.710
X2.590Y2.420
X2.590Y2.520
X2.695Y2.505
X3.215Y1.025
X3.350Y0.975
X3.350Y1.075
X3.350Y1.175
X3.350Y1.275
X3.350Y1.375
X3.350Y1.475
X3.350Y1.575
X3.350Y1.675
X3.350Y1.775
X3.350Y1.875
X3.350Y1.975
X3.350Y2.075
X3.350Y2.175
X3.350Y2.275
X3.350Y2.375
X3.350Y2.475
X3.350Y2.575
X3.350Y2.675
X3.350Y2.775
X3.350Y2.875
X3.350Y2.975
X3.350Y3.075
X3.350Y3.175
X3.350Y3.275
X3.350Y3.375
X3.450Y0.975
X3.450Y1.075
X3.450Y1.175
X3.450Y1.275
X3.450Y1.375
X3.450Y1.475
X3.450Y1.575
X3.450Y1.675
X3.450Y1.775
X3.450Y1.875
X3.450Y1.975
X3.450Y2.075
X3.450Y2.175
X3.450Y2.275
X3.450Y2.375
X3.450Y2.475
X3.450Y2.575
X3.450Y2.675
X3.450Y2.775
X3.450Y2.875
X3.450Y2.975
X3.450Y3.075
X3.450Y3.175
X3.450Y3.275
X3.450Y3.375
T5
X1.075Y3.490
X1.200Y2.769
X1.200Y3.241
X1.615Y3.490
T4
X1.080Y1.245G85X1.080Y1.305
G05
X1.140Y1.075G85X1.200Y1.075
G05
X1.320Y1.245G85X1.320Y1.305
G05
T0
M30
