G04 (created by PCBNEW-RS274X (2011-03-30 BZR 2932)-stable) date 30/04/2011 07:18:35 p.m.*
G01*
G70*
G90*
%MOIN*%
G04 Gerber Fmt 3.4, Leading zero omitted, Abs format*
%FSLAX34Y34*%
G04 APERTURE LIST*
%ADD10C,0.006000*%
%ADD11R,0.075000X0.075000*%
%ADD12C,0.075000*%
%ADD13R,0.080000X0.080000*%
%ADD14C,0.080000*%
%ADD15C,0.085000*%
%ADD16C,0.070000*%
%ADD17C,0.076000*%
%ADD18C,0.079100*%
%ADD19C,0.138100*%
%ADD20C,0.126300*%
%ADD21C,0.209000*%
%ADD22R,0.209000X0.209000*%
G04 APERTURE END LIST*
G54D10*
G54D11*
X22850Y-10950D03*
G54D12*
X22850Y-09950D03*
G54D11*
X20500Y-29650D03*
G54D12*
X20500Y-28650D03*
G54D13*
X16200Y-18350D03*
G54D14*
X15200Y-18350D03*
X16200Y-19350D03*
X15200Y-19350D03*
X16200Y-20350D03*
X15200Y-20350D03*
X16200Y-21350D03*
X15200Y-21350D03*
G54D15*
X33500Y-21750D03*
X34500Y-21750D03*
X33500Y-20750D03*
X34500Y-20750D03*
X33500Y-19750D03*
X34500Y-19750D03*
X34500Y-16750D03*
X33500Y-16750D03*
X34500Y-17750D03*
X33500Y-17750D03*
X34500Y-18750D03*
X33500Y-18750D03*
X33500Y-12750D03*
X34500Y-12750D03*
X33500Y-11750D03*
X34500Y-11750D03*
X34500Y-13750D03*
X33500Y-13750D03*
X34500Y-14750D03*
X33500Y-14750D03*
X34500Y-15750D03*
X33500Y-15750D03*
X33500Y-27750D03*
X34500Y-27750D03*
X33500Y-26750D03*
X34500Y-26750D03*
X33500Y-25750D03*
X34500Y-25750D03*
X34500Y-22750D03*
X33500Y-22750D03*
X34500Y-23750D03*
X33500Y-23750D03*
X34500Y-24750D03*
X33500Y-24750D03*
X33500Y-30750D03*
X34500Y-30750D03*
X33500Y-29750D03*
X34500Y-29750D03*
X33500Y-28750D03*
X34500Y-28750D03*
X34500Y-09750D03*
X33500Y-09750D03*
X34500Y-10750D03*
X33500Y-10750D03*
X34500Y-31750D03*
X33500Y-31750D03*
X34500Y-32750D03*
X33500Y-32750D03*
X34500Y-33750D03*
X33500Y-33750D03*
G54D16*
X15900Y-22550D03*
X15900Y-23550D03*
G54D14*
X13050Y-22016D03*
X13050Y-23984D03*
G54D17*
X17850Y-25550D03*
X15850Y-25550D03*
G54D13*
X16350Y-12500D03*
G54D14*
X16350Y-13500D03*
G54D13*
X15350Y-12500D03*
G54D14*
X15350Y-13500D03*
G54D18*
X11950Y-33850D03*
X12950Y-33850D03*
X13750Y-33850D03*
X14750Y-33850D03*
G54D19*
X10750Y-34900D03*
X16150Y-34900D03*
G54D14*
X13850Y-29550D03*
X13850Y-30550D03*
X13063Y-30550D03*
X13063Y-29550D03*
G54D20*
X12000Y-27688D03*
X12000Y-32412D03*
G54D13*
X25900Y-24200D03*
G54D14*
X25900Y-25200D03*
G54D21*
X10800Y-12750D03*
G54D22*
X13200Y-12750D03*
G54D21*
X11700Y-10750D03*
M02*
