G04 (created by PCBNEW-RS274X (2011-03-30 BZR 2932)-stable) date 30/04/2011 07:18:35 p.m.*
G01*
G70*
G90*
%MOIN*%
G04 Gerber Fmt 3.4, Leading zero omitted, Abs format*
%FSLAX34Y34*%
G04 APERTURE LIST*
%ADD10C,0.006000*%
%ADD11R,0.055000X0.010000*%
%ADD12R,0.010000X0.055000*%
%ADD13R,0.055000X0.009200*%
%ADD14R,0.055000X0.055000*%
%ADD15C,0.055000*%
%ADD16R,0.060000X0.060000*%
%ADD17C,0.060000*%
%ADD18C,0.065000*%
%ADD19C,0.050000*%
%ADD20R,0.035000X0.055000*%
%ADD21R,0.055000X0.035000*%
%ADD22R,0.055000X0.034000*%
%ADD23R,0.150000X0.080000*%
%ADD24R,0.055000X0.080000*%
%ADD25C,0.056000*%
%ADD26C,0.059100*%
%ADD27C,0.118100*%
%ADD28C,0.106300*%
%ADD29C,0.189000*%
%ADD30R,0.189000X0.189000*%
%ADD31C,0.010000*%
%ADD32C,0.020000*%
%ADD33C,0.030000*%
G04 APERTURE END LIST*
G54D10*
G54D11*
X18591Y-20328D03*
G54D12*
X19278Y-24759D03*
G54D11*
X23709Y-24072D03*
G54D12*
X23022Y-19641D03*
G54D11*
X18591Y-20525D03*
G54D12*
X19475Y-24759D03*
G54D11*
X23709Y-23875D03*
G54D12*
X22825Y-19641D03*
G54D13*
X18591Y-20722D03*
G54D12*
X19672Y-24759D03*
G54D11*
X23709Y-23678D03*
G54D12*
X22628Y-19641D03*
G54D11*
X18591Y-20919D03*
G54D12*
X19869Y-24759D03*
G54D11*
X23709Y-23481D03*
G54D12*
X22431Y-19641D03*
G54D11*
X18591Y-21116D03*
G54D12*
X20066Y-24759D03*
G54D11*
X23709Y-23284D03*
G54D12*
X22234Y-19641D03*
G54D11*
X18591Y-21313D03*
G54D12*
X20263Y-24759D03*
G54D11*
X23709Y-23087D03*
G54D12*
X22037Y-19641D03*
G54D11*
X18591Y-21510D03*
G54D12*
X20460Y-24759D03*
G54D11*
X23709Y-22890D03*
G54D12*
X21840Y-19641D03*
G54D11*
X18591Y-21707D03*
G54D12*
X20657Y-24759D03*
G54D11*
X23709Y-22693D03*
G54D12*
X21643Y-19641D03*
G54D11*
X18591Y-21904D03*
G54D12*
X20854Y-24759D03*
G54D11*
X23709Y-22496D03*
G54D12*
X21446Y-19641D03*
G54D11*
X18591Y-22101D03*
G54D12*
X21051Y-24759D03*
G54D11*
X23709Y-22299D03*
G54D12*
X21249Y-19641D03*
G54D11*
X18591Y-22298D03*
G54D12*
X21248Y-24759D03*
G54D11*
X23709Y-22102D03*
G54D12*
X21052Y-19641D03*
G54D11*
X18591Y-22495D03*
G54D12*
X21445Y-24759D03*
G54D11*
X23709Y-21905D03*
G54D12*
X20855Y-19641D03*
G54D11*
X18591Y-22692D03*
G54D12*
X21642Y-24759D03*
G54D10*
G36*
X23434Y-21658D02*
X23984Y-21658D01*
X23984Y-21758D01*
X23434Y-21758D01*
X23434Y-21658D01*
X23434Y-21658D01*
G37*
G54D12*
X20658Y-19641D03*
G54D11*
X18591Y-22889D03*
G54D12*
X21839Y-24759D03*
G54D10*
G36*
X23434Y-21461D02*
X23984Y-21461D01*
X23984Y-21561D01*
X23434Y-21561D01*
X23434Y-21461D01*
X23434Y-21461D01*
G37*
G54D12*
X20461Y-19641D03*
G54D11*
X18591Y-23086D03*
G54D12*
X22036Y-24759D03*
G54D11*
X23709Y-21314D03*
G54D12*
X20264Y-19641D03*
G54D11*
X18591Y-23283D03*
G54D12*
X22233Y-24759D03*
G54D11*
X23709Y-21117D03*
G54D12*
X20067Y-19641D03*
G54D11*
X18591Y-23480D03*
G54D12*
X22430Y-24759D03*
G54D11*
X23709Y-20920D03*
G54D12*
X19870Y-19641D03*
G54D11*
X18591Y-23677D03*
G54D12*
X22627Y-24759D03*
G54D11*
X23709Y-20723D03*
G54D12*
X19673Y-19641D03*
G54D11*
X18591Y-23874D03*
G54D12*
X22824Y-24759D03*
G54D11*
X23709Y-20526D03*
G54D12*
X19476Y-19641D03*
G54D11*
X18591Y-24071D03*
G54D12*
X23021Y-24759D03*
G54D11*
X23709Y-20329D03*
G54D12*
X19279Y-19641D03*
G54D14*
X22850Y-10950D03*
G54D15*
X22850Y-09950D03*
G54D14*
X20500Y-29650D03*
G54D15*
X20500Y-28650D03*
G54D16*
X16200Y-18350D03*
G54D17*
X15200Y-18350D03*
X16200Y-19350D03*
X15200Y-19350D03*
X16200Y-20350D03*
X15200Y-20350D03*
X16200Y-21350D03*
X15200Y-21350D03*
G54D18*
X33500Y-21750D03*
X34500Y-21750D03*
X33500Y-20750D03*
X34500Y-20750D03*
X33500Y-19750D03*
X34500Y-19750D03*
X34500Y-16750D03*
X33500Y-16750D03*
X34500Y-17750D03*
X33500Y-17750D03*
X34500Y-18750D03*
X33500Y-18750D03*
X33500Y-12750D03*
X34500Y-12750D03*
X33500Y-11750D03*
X34500Y-11750D03*
X34500Y-13750D03*
X33500Y-13750D03*
X34500Y-14750D03*
X33500Y-14750D03*
X34500Y-15750D03*
X33500Y-15750D03*
X33500Y-27750D03*
X34500Y-27750D03*
X33500Y-26750D03*
X34500Y-26750D03*
X33500Y-25750D03*
X34500Y-25750D03*
X34500Y-22750D03*
X33500Y-22750D03*
X34500Y-23750D03*
X33500Y-23750D03*
X34500Y-24750D03*
X33500Y-24750D03*
X33500Y-30750D03*
X34500Y-30750D03*
X33500Y-29750D03*
X34500Y-29750D03*
X33500Y-28750D03*
X34500Y-28750D03*
X34500Y-09750D03*
X33500Y-09750D03*
X34500Y-10750D03*
X33500Y-10750D03*
X34500Y-31750D03*
X33500Y-31750D03*
X34500Y-32750D03*
X33500Y-32750D03*
X34500Y-33750D03*
X33500Y-33750D03*
G54D19*
X15900Y-22550D03*
X15900Y-23550D03*
G54D20*
X15025Y-31550D03*
X15775Y-31550D03*
X15025Y-29550D03*
X15775Y-29550D03*
G54D21*
X22000Y-11675D03*
X22000Y-10925D03*
G54D20*
X15025Y-32450D03*
X15775Y-32450D03*
X19675Y-30600D03*
X20425Y-30600D03*
X25225Y-24950D03*
X24475Y-24950D03*
X14525Y-22550D03*
X15275Y-22550D03*
X14525Y-23550D03*
X15275Y-23550D03*
X15025Y-30650D03*
X15775Y-30650D03*
G54D21*
X13800Y-22675D03*
X13800Y-23425D03*
X21150Y-11675D03*
X21150Y-10925D03*
X12300Y-22675D03*
X12300Y-23425D03*
X17450Y-26925D03*
X17450Y-26175D03*
G54D20*
X15025Y-28700D03*
X15775Y-28700D03*
G54D21*
X16650Y-11475D03*
X16650Y-10725D03*
X20300Y-11675D03*
X20300Y-10925D03*
G54D20*
X17825Y-23550D03*
X17075Y-23550D03*
G54D21*
X19000Y-26175D03*
X19000Y-25425D03*
X22100Y-26925D03*
X22100Y-26175D03*
G54D20*
X25225Y-24150D03*
X24475Y-24150D03*
X25775Y-20850D03*
X25025Y-20850D03*
G54D21*
X22100Y-17475D03*
X22100Y-18225D03*
X19600Y-17925D03*
G54D22*
X19600Y-18675D03*
G54D20*
X17175Y-22000D03*
X17925Y-22000D03*
G54D21*
X16400Y-26925D03*
X16400Y-26175D03*
G54D23*
X18450Y-13600D03*
G54D24*
X18450Y-11000D03*
X17550Y-11000D03*
X19350Y-11000D03*
G54D17*
X13050Y-22016D03*
X13050Y-23984D03*
G54D25*
X17850Y-25550D03*
X15850Y-25550D03*
G54D16*
X16350Y-12500D03*
G54D17*
X16350Y-13500D03*
G54D16*
X15350Y-12500D03*
G54D17*
X15350Y-13500D03*
G54D26*
X11950Y-33850D03*
X12950Y-33850D03*
X13750Y-33850D03*
X14750Y-33850D03*
G54D27*
X10750Y-34900D03*
X16150Y-34900D03*
G54D17*
X13850Y-29550D03*
X13850Y-30550D03*
X13063Y-30550D03*
X13063Y-29550D03*
G54D28*
X12000Y-27688D03*
X12000Y-32412D03*
G54D16*
X25900Y-24200D03*
G54D17*
X25900Y-25200D03*
G54D29*
X10800Y-12750D03*
G54D30*
X13200Y-12750D03*
G54D29*
X11700Y-10750D03*
G54D18*
X18850Y-30600D03*
X13850Y-25200D03*
X13050Y-21050D03*
X32150Y-10250D03*
X19550Y-17150D03*
X22900Y-17150D03*
X26950Y-25050D03*
X17650Y-17200D03*
X22950Y-27100D03*
G54D31*
X19650Y-18875D02*
X19650Y-18725D01*
X19870Y-19095D02*
X19650Y-18875D01*
X19870Y-19641D02*
X19870Y-19095D01*
X19650Y-18725D02*
X19600Y-18675D01*
G54D32*
X33500Y-09750D02*
X32650Y-09750D01*
X23325Y-11675D02*
X22000Y-11675D01*
X25350Y-09650D02*
X23325Y-11675D01*
X32550Y-09650D02*
X25350Y-09650D01*
X32650Y-09750D02*
X32550Y-09650D01*
G54D33*
X13850Y-24650D02*
X13850Y-25200D01*
G54D32*
X34500Y-33750D02*
X34500Y-34200D01*
G54D33*
X19675Y-31575D02*
X19675Y-30600D01*
X22550Y-34450D02*
X19675Y-31575D01*
G54D32*
X34250Y-34450D02*
X22550Y-34450D01*
X34500Y-34200D02*
X34250Y-34450D01*
G54D31*
X20300Y-11675D02*
X18450Y-11675D01*
X18450Y-11675D02*
X18450Y-11650D01*
X20300Y-11675D02*
X21150Y-11675D01*
X21150Y-11675D02*
X22000Y-11675D01*
G54D33*
X18450Y-11000D02*
X18450Y-11650D01*
X18450Y-11650D02*
X18450Y-13600D01*
G54D31*
X18450Y-13600D02*
X18450Y-17100D01*
X18450Y-17100D02*
X17200Y-18350D01*
X21125Y-22225D02*
X21125Y-22175D01*
X17300Y-18350D02*
X17200Y-18350D01*
G54D33*
X17200Y-18350D02*
X16200Y-18350D01*
X21125Y-22175D02*
X17300Y-18350D01*
G54D31*
X17825Y-23550D02*
X17825Y-23625D01*
G54D33*
X12300Y-24200D02*
X12300Y-23425D01*
X12750Y-24650D02*
X12300Y-24200D01*
X16800Y-24650D02*
X13850Y-24650D01*
X13850Y-24650D02*
X12750Y-24650D01*
X17825Y-23625D02*
X16800Y-24650D01*
G54D31*
X21840Y-19641D02*
X21840Y-18485D01*
X21840Y-18485D02*
X22100Y-18225D01*
X23709Y-21117D02*
X24758Y-21117D01*
X24758Y-21117D02*
X25025Y-20850D01*
X23709Y-23875D02*
X24200Y-23875D01*
X24200Y-23875D02*
X24475Y-24150D01*
X24475Y-24150D02*
X24475Y-24950D01*
G54D33*
X15775Y-32450D02*
X16550Y-32450D01*
G54D32*
X16550Y-32450D02*
X18400Y-30600D01*
X18400Y-30600D02*
X18850Y-30600D01*
G54D33*
X18850Y-30600D02*
X19675Y-30600D01*
G54D31*
X21839Y-24759D02*
X21839Y-25914D01*
X21839Y-25914D02*
X22100Y-26175D01*
X18591Y-23283D02*
X20067Y-23283D01*
X20067Y-23283D02*
X21125Y-22225D01*
X21125Y-22225D02*
X21150Y-22200D01*
X18591Y-23283D02*
X18092Y-23283D01*
X18092Y-23283D02*
X17825Y-23550D01*
X19278Y-24759D02*
X19278Y-25147D01*
X19278Y-25147D02*
X19000Y-25425D01*
X23709Y-21117D02*
X22233Y-21117D01*
X22233Y-21117D02*
X21150Y-22200D01*
X23709Y-23875D02*
X22825Y-23875D01*
X22825Y-23875D02*
X21150Y-22200D01*
X21839Y-24759D02*
X21839Y-22889D01*
X21839Y-22889D02*
X21150Y-22200D01*
X21840Y-19641D02*
X21840Y-21510D01*
X21840Y-21510D02*
X21150Y-22200D01*
X19870Y-19641D02*
X19870Y-20920D01*
X19870Y-20920D02*
X21150Y-22200D01*
X18591Y-21707D02*
X20657Y-21707D01*
X20657Y-21707D02*
X21150Y-22200D01*
X19278Y-24072D02*
X21150Y-22200D01*
X19278Y-24072D02*
X19278Y-24759D01*
X18591Y-22101D02*
X18026Y-22101D01*
X18026Y-22101D02*
X17925Y-22000D01*
X18591Y-21707D02*
X18218Y-21707D01*
X18218Y-21707D02*
X17925Y-22000D01*
X22430Y-25286D02*
X24894Y-27750D01*
X24894Y-27750D02*
X33500Y-27750D01*
X22430Y-24759D02*
X22430Y-25286D01*
X22627Y-25205D02*
X24672Y-27250D01*
X22627Y-24759D02*
X22627Y-25205D01*
X34000Y-27250D02*
X34500Y-27750D01*
X24672Y-27250D02*
X34000Y-27250D01*
X22824Y-25124D02*
X24147Y-26447D01*
X24147Y-26447D02*
X24300Y-26600D01*
X22824Y-24759D02*
X22824Y-25124D01*
X24450Y-26750D02*
X33500Y-26750D01*
X24300Y-26600D02*
X24450Y-26750D01*
X24300Y-26250D02*
X34000Y-26250D01*
X23021Y-24971D02*
X24300Y-26250D01*
X23021Y-24759D02*
X23021Y-24971D01*
X34000Y-26250D02*
X34500Y-26750D01*
X34000Y-24250D02*
X34500Y-24750D01*
X23709Y-22890D02*
X26374Y-22890D01*
X26374Y-22890D02*
X27734Y-24250D01*
X27734Y-24250D02*
X34000Y-24250D01*
X23709Y-22693D02*
X26455Y-22693D01*
X27512Y-23750D02*
X33500Y-23750D01*
X26455Y-22693D02*
X27512Y-23750D01*
X23709Y-23087D02*
X26293Y-23087D01*
X26293Y-23087D02*
X27956Y-24750D01*
X27956Y-24750D02*
X33500Y-24750D01*
X23709Y-23284D02*
X26212Y-23284D01*
X34000Y-25250D02*
X34500Y-25750D01*
X26212Y-23284D02*
X28178Y-25250D01*
X28178Y-25250D02*
X34000Y-25250D01*
X19476Y-19641D02*
X19476Y-19276D01*
X34000Y-11250D02*
X34500Y-11750D01*
X24750Y-11250D02*
X34000Y-11250D01*
X18900Y-17100D02*
X24750Y-11250D01*
X18900Y-18950D02*
X18900Y-17100D01*
X19150Y-19200D02*
X18900Y-18950D01*
X19400Y-19200D02*
X19150Y-19200D01*
X19476Y-19276D02*
X19400Y-19200D01*
X26131Y-23481D02*
X28400Y-25750D01*
X23709Y-23481D02*
X26131Y-23481D01*
X28400Y-25750D02*
X33500Y-25750D01*
X19279Y-19641D02*
X19279Y-19607D01*
X24972Y-10750D02*
X33500Y-10750D01*
X18703Y-17019D02*
X24972Y-10750D01*
X18703Y-19031D02*
X18703Y-17019D01*
X19279Y-19607D02*
X18703Y-19031D01*
X22431Y-19641D02*
X22431Y-19135D01*
X24816Y-16750D02*
X33500Y-16750D01*
X22431Y-19135D02*
X24816Y-16750D01*
X22628Y-19216D02*
X24594Y-17250D01*
X34000Y-17250D02*
X34500Y-17750D01*
X22628Y-19641D02*
X22628Y-19216D01*
X24594Y-17250D02*
X34000Y-17250D01*
X24372Y-17750D02*
X33500Y-17750D01*
X22825Y-19297D02*
X24372Y-17750D01*
X22825Y-19641D02*
X22825Y-19297D01*
X34000Y-18250D02*
X34500Y-18750D01*
X23022Y-19641D02*
X23022Y-19378D01*
X23022Y-19378D02*
X24150Y-18250D01*
X24150Y-18250D02*
X34000Y-18250D01*
X24872Y-11750D02*
X33500Y-11750D01*
X20067Y-19641D02*
X20067Y-16555D01*
X20067Y-16555D02*
X24872Y-11750D01*
X34000Y-12250D02*
X34500Y-12750D01*
X20264Y-16636D02*
X24650Y-12250D01*
X20264Y-19641D02*
X20264Y-16636D01*
X24650Y-12250D02*
X34000Y-12250D01*
X34000Y-14250D02*
X34500Y-14750D01*
X21052Y-16998D02*
X23800Y-14250D01*
X23800Y-14250D02*
X34000Y-14250D01*
X21052Y-19641D02*
X21052Y-16998D01*
X23594Y-14750D02*
X33500Y-14750D01*
X21249Y-19641D02*
X21249Y-17095D01*
X21249Y-17095D02*
X23594Y-14750D01*
X23372Y-15250D02*
X34000Y-15250D01*
X34000Y-15250D02*
X34500Y-15750D01*
X21446Y-19641D02*
X21446Y-17176D01*
X21446Y-17176D02*
X23372Y-15250D01*
X20500Y-28650D02*
X20794Y-28356D01*
X25188Y-32750D02*
X33500Y-32750D01*
X20066Y-27628D02*
X20794Y-28356D01*
X20794Y-28356D02*
X25188Y-32750D01*
X20066Y-24759D02*
X20066Y-27628D01*
X24966Y-32250D02*
X34000Y-32250D01*
X20263Y-27547D02*
X24966Y-32250D01*
X34000Y-32250D02*
X34500Y-32750D01*
X20263Y-24759D02*
X20263Y-27547D01*
X20460Y-27466D02*
X24744Y-31750D01*
X24744Y-31750D02*
X33500Y-31750D01*
X20460Y-24759D02*
X20460Y-27466D01*
X24522Y-31250D02*
X34000Y-31250D01*
X34000Y-31250D02*
X34500Y-31750D01*
X20657Y-27385D02*
X24522Y-31250D01*
X20657Y-24759D02*
X20657Y-27385D01*
X20854Y-24759D02*
X20854Y-27304D01*
X20854Y-27304D02*
X24300Y-30750D01*
X24300Y-30750D02*
X33500Y-30750D01*
X24094Y-30250D02*
X34000Y-30250D01*
X21051Y-24759D02*
X21051Y-27207D01*
X34000Y-30250D02*
X34500Y-30750D01*
X21051Y-27207D02*
X24094Y-30250D01*
X21248Y-27126D02*
X23872Y-29750D01*
X23872Y-29750D02*
X33500Y-29750D01*
X21248Y-24759D02*
X21248Y-27126D01*
X21445Y-24759D02*
X21445Y-27045D01*
X21445Y-27045D02*
X23650Y-29250D01*
X34000Y-29250D02*
X34500Y-29750D01*
X23650Y-29250D02*
X34000Y-29250D01*
X22036Y-25448D02*
X25338Y-28750D01*
X22036Y-24759D02*
X22036Y-25448D01*
X25338Y-28750D02*
X33500Y-28750D01*
X22233Y-25367D02*
X25116Y-28250D01*
X22233Y-24759D02*
X22233Y-25367D01*
X34000Y-28250D02*
X34500Y-28750D01*
X25116Y-28250D02*
X34000Y-28250D01*
X24450Y-12750D02*
X33500Y-12750D01*
X20461Y-19641D02*
X20461Y-16739D01*
X20461Y-16739D02*
X24450Y-12750D01*
X34000Y-13250D02*
X34500Y-13750D01*
X20658Y-19641D02*
X20658Y-16836D01*
X20658Y-16836D02*
X24244Y-13250D01*
X24244Y-13250D02*
X34000Y-13250D01*
X20855Y-19641D02*
X20855Y-16917D01*
X20855Y-16917D02*
X24022Y-13750D01*
X24022Y-13750D02*
X33500Y-13750D01*
X25594Y-18750D02*
X33500Y-18750D01*
X24015Y-20329D02*
X25594Y-18750D01*
X23709Y-20329D02*
X24015Y-20329D01*
X24096Y-20526D02*
X25372Y-19250D01*
X34000Y-19250D02*
X34500Y-19750D01*
X25372Y-19250D02*
X34000Y-19250D01*
X23709Y-20526D02*
X24096Y-20526D01*
X24177Y-20723D02*
X24697Y-20203D01*
X25150Y-19750D02*
X33500Y-19750D01*
X24697Y-20203D02*
X25150Y-19750D01*
X23709Y-20723D02*
X24177Y-20723D01*
X27200Y-20500D02*
X27450Y-20250D01*
X26386Y-21314D02*
X26800Y-20900D01*
X26800Y-20900D02*
X27200Y-20500D01*
X34000Y-20250D02*
X34500Y-20750D01*
X27450Y-20250D02*
X34000Y-20250D01*
X23709Y-21314D02*
X26386Y-21314D01*
X23709Y-21511D02*
X26489Y-21511D01*
X26489Y-21511D02*
X26950Y-21050D01*
X27100Y-20900D02*
X27250Y-20750D01*
X27250Y-20750D02*
X33500Y-20750D01*
X26950Y-21050D02*
X27100Y-20900D01*
X26900Y-21400D02*
X27000Y-21300D01*
X27050Y-21250D02*
X34000Y-21250D01*
X27000Y-21300D02*
X27050Y-21250D01*
X26592Y-21708D02*
X26750Y-21550D01*
X23709Y-21708D02*
X26592Y-21708D01*
X26750Y-21550D02*
X26900Y-21400D01*
X34000Y-21250D02*
X34500Y-21750D01*
X26695Y-21905D02*
X23709Y-21905D01*
X26695Y-21905D02*
X26850Y-21750D01*
X33500Y-21750D02*
X26850Y-21750D01*
X26698Y-22102D02*
X26846Y-22250D01*
X34000Y-22250D02*
X34500Y-22750D01*
X26846Y-22250D02*
X34000Y-22250D01*
X23709Y-22102D02*
X26698Y-22102D01*
X26617Y-22299D02*
X27068Y-22750D01*
X27068Y-22750D02*
X33500Y-22750D01*
X23709Y-22299D02*
X26617Y-22299D01*
X27290Y-23250D02*
X34000Y-23250D01*
X34000Y-23250D02*
X34500Y-23750D01*
X26536Y-22496D02*
X27290Y-23250D01*
X23709Y-22496D02*
X26536Y-22496D01*
X22234Y-19054D02*
X25038Y-16250D01*
X22234Y-19641D02*
X22234Y-19054D01*
X34000Y-16250D02*
X34500Y-16750D01*
X25038Y-16250D02*
X34000Y-16250D01*
X21643Y-19641D02*
X21643Y-17257D01*
X23150Y-15750D02*
X33500Y-15750D01*
X21800Y-17100D02*
X23150Y-15750D01*
X21643Y-17257D02*
X21800Y-17100D01*
G54D33*
X16650Y-11475D02*
X16825Y-11475D01*
X17300Y-11000D02*
X17550Y-11000D01*
X16825Y-11475D02*
X17300Y-11000D01*
X16350Y-12500D02*
X16650Y-12200D01*
X15350Y-12500D02*
X16350Y-12500D01*
X16650Y-12200D02*
X16650Y-11475D01*
X13950Y-13500D02*
X13200Y-12750D01*
X15350Y-13500D02*
X13950Y-13500D01*
G54D31*
X12391Y-22675D02*
X13050Y-22016D01*
X16361Y-22889D02*
X16200Y-23050D01*
X13709Y-22675D02*
X13050Y-22016D01*
X12300Y-22675D02*
X12391Y-22675D01*
X16200Y-23050D02*
X14175Y-23050D01*
X13800Y-22675D02*
X13709Y-22675D01*
X18591Y-22889D02*
X16361Y-22889D01*
X32150Y-10250D02*
X33950Y-10250D01*
X33950Y-10250D02*
X34450Y-10750D01*
X34450Y-10750D02*
X34500Y-10750D01*
X13050Y-22016D02*
X13050Y-21050D01*
X14175Y-23050D02*
X13800Y-22675D01*
X15700Y-21600D02*
X15700Y-21150D01*
X15700Y-21150D02*
X15400Y-20850D01*
X15400Y-20850D02*
X14950Y-20850D01*
X15400Y-18850D02*
X15900Y-19350D01*
X14700Y-20600D02*
X14700Y-19100D01*
X14700Y-19100D02*
X14950Y-18850D01*
X16550Y-21800D02*
X15900Y-21800D01*
X17234Y-21116D02*
X16550Y-21800D01*
X14950Y-18850D02*
X15400Y-18850D01*
X14950Y-20850D02*
X14700Y-20600D01*
X15900Y-19350D02*
X16200Y-19350D01*
X18591Y-21116D02*
X17234Y-21116D01*
X15900Y-21800D02*
X15700Y-21600D01*
X18591Y-20525D02*
X16375Y-20525D01*
X16375Y-20525D02*
X16200Y-20350D01*
X15700Y-19850D02*
X15200Y-19350D01*
X17078Y-20328D02*
X16600Y-19850D01*
X16600Y-19850D02*
X15700Y-19850D01*
X18591Y-20328D02*
X17078Y-20328D01*
X15700Y-20850D02*
X15200Y-20350D01*
X18591Y-20722D02*
X16678Y-20722D01*
X16550Y-20850D02*
X15700Y-20850D01*
X16678Y-20722D02*
X16550Y-20850D01*
X16600Y-21350D02*
X16200Y-21350D01*
X18591Y-20919D02*
X17031Y-20919D01*
X17031Y-20919D02*
X16600Y-21350D01*
X26950Y-25050D02*
X26950Y-25500D01*
X23650Y-25250D02*
X23650Y-24800D01*
X24250Y-25850D02*
X23650Y-25250D01*
X26600Y-25850D02*
X24250Y-25850D01*
X26950Y-25500D02*
X26600Y-25850D01*
X34800Y-09750D02*
X35300Y-10250D01*
X35300Y-10250D02*
X35300Y-33150D01*
X35300Y-33150D02*
X35200Y-33250D01*
X35200Y-33250D02*
X34000Y-33250D01*
X34000Y-33250D02*
X33500Y-33750D01*
X11900Y-23050D02*
X11800Y-22950D01*
X12500Y-20550D02*
X14400Y-20550D01*
X11800Y-21250D02*
X12500Y-20550D01*
X11800Y-22950D02*
X11800Y-21250D01*
X34500Y-09750D02*
X34000Y-09250D01*
X23550Y-09250D02*
X22850Y-09950D01*
X34000Y-09250D02*
X23550Y-09250D01*
X21800Y-09950D02*
X22850Y-09950D01*
X21150Y-10600D02*
X21800Y-09950D01*
X21150Y-10925D02*
X21150Y-10600D01*
X33500Y-33750D02*
X25600Y-33750D01*
X19869Y-28719D02*
X19869Y-24759D01*
X21000Y-29150D02*
X20300Y-29150D01*
X25600Y-33750D02*
X21000Y-29150D01*
X20300Y-29150D02*
X19869Y-28719D01*
X23709Y-20920D02*
X24258Y-20920D01*
X11950Y-33850D02*
X11950Y-33750D01*
X13063Y-29813D02*
X13300Y-30050D01*
X13300Y-30050D02*
X14525Y-30050D01*
X25325Y-20400D02*
X25775Y-20850D01*
X13063Y-29550D02*
X13063Y-29813D01*
X12250Y-29550D02*
X13063Y-29550D01*
X11850Y-29950D02*
X12250Y-29550D01*
X11850Y-31050D02*
X11850Y-29950D01*
X12700Y-31900D02*
X11850Y-31050D01*
X14525Y-30050D02*
X15025Y-29550D01*
X11950Y-33750D02*
X12700Y-33000D01*
X24753Y-23678D02*
X25275Y-24200D01*
X22575Y-20625D02*
X22725Y-20625D01*
X19650Y-17250D02*
X19550Y-17150D01*
X19650Y-17925D02*
X19650Y-17250D01*
X22575Y-17475D02*
X22100Y-17475D01*
X25900Y-24200D02*
X26100Y-24200D01*
X22775Y-26925D02*
X22100Y-26925D01*
X22950Y-27100D02*
X22775Y-26925D01*
X12700Y-33000D02*
X12700Y-31900D01*
X15400Y-27925D02*
X15400Y-29175D01*
X15413Y-27912D02*
X14912Y-27912D01*
X11800Y-23150D02*
X11900Y-23050D01*
X11800Y-24800D02*
X11800Y-23150D01*
X14912Y-27912D02*
X11800Y-24800D01*
X22900Y-17150D02*
X22575Y-17475D01*
X13050Y-23984D02*
X13050Y-23350D01*
X13050Y-23350D02*
X12750Y-23050D01*
X12750Y-23050D02*
X11900Y-23050D01*
X10800Y-12750D02*
X10800Y-11650D01*
X16650Y-10725D02*
X16650Y-10650D01*
X12150Y-10300D02*
X11700Y-10750D01*
X16300Y-10300D02*
X12150Y-10300D01*
X16650Y-10650D02*
X16300Y-10300D01*
X16650Y-10725D02*
X16675Y-10725D01*
X19050Y-10250D02*
X19350Y-10550D01*
X17150Y-10250D02*
X19050Y-10250D01*
X16675Y-10725D02*
X17150Y-10250D01*
X34500Y-09750D02*
X34800Y-09750D01*
X20300Y-10925D02*
X19425Y-10925D01*
X19425Y-10925D02*
X19350Y-11000D01*
X20300Y-10925D02*
X21150Y-10925D01*
X14525Y-22000D02*
X14525Y-21675D01*
X14525Y-21675D02*
X14850Y-21350D01*
X15200Y-21350D02*
X14850Y-21350D01*
X14900Y-18350D02*
X15200Y-18350D01*
X14400Y-20550D02*
X14400Y-18850D01*
X14400Y-18850D02*
X14900Y-18350D01*
X14400Y-20900D02*
X14400Y-20550D01*
X14850Y-21350D02*
X14400Y-20900D01*
X13050Y-23984D02*
X13241Y-23984D01*
X13241Y-23984D02*
X13800Y-23425D01*
X14525Y-23550D02*
X13925Y-23550D01*
X13925Y-23550D02*
X13800Y-23425D01*
X19673Y-19641D02*
X19673Y-19195D01*
X19225Y-17925D02*
X19650Y-17925D01*
X19100Y-18050D02*
X19225Y-17925D01*
X19100Y-18850D02*
X19100Y-18050D01*
X19253Y-19003D02*
X19100Y-18850D01*
X19481Y-19003D02*
X19253Y-19003D01*
X19673Y-19195D02*
X19481Y-19003D01*
X22037Y-19641D02*
X22037Y-18963D01*
X22037Y-18963D02*
X22550Y-18450D01*
X22550Y-18450D02*
X22550Y-17925D01*
X22550Y-17925D02*
X22100Y-17475D01*
X19050Y-22000D02*
X19050Y-22400D01*
X22725Y-20625D02*
X24700Y-18650D01*
X23709Y-20920D02*
X22870Y-20920D01*
X22037Y-20087D02*
X22450Y-20500D01*
X22037Y-20087D02*
X22037Y-19641D01*
X22870Y-20920D02*
X22575Y-20625D01*
X22575Y-20625D02*
X22450Y-20500D01*
X25225Y-24150D02*
X25850Y-24150D01*
X25850Y-24150D02*
X25900Y-24200D01*
X18955Y-22495D02*
X18591Y-22495D01*
X24778Y-20400D02*
X25325Y-20400D01*
X24258Y-20920D02*
X24778Y-20400D01*
X23709Y-23678D02*
X24753Y-23678D01*
X25275Y-24200D02*
X25900Y-24200D01*
X18954Y-21904D02*
X19050Y-22000D01*
X21642Y-24759D02*
X21642Y-26467D01*
X21642Y-26467D02*
X22100Y-26925D01*
X17450Y-26925D02*
X16400Y-26925D01*
X16400Y-26925D02*
X15413Y-27912D01*
X15413Y-27912D02*
X15400Y-27925D01*
X19050Y-22400D02*
X18955Y-22495D01*
X15400Y-29175D02*
X15025Y-29550D01*
X19000Y-26175D02*
X19000Y-27450D01*
X15625Y-30150D02*
X15025Y-29550D01*
X16300Y-30150D02*
X15625Y-30150D01*
X19000Y-27450D02*
X16300Y-30150D01*
X17175Y-22000D02*
X14525Y-22000D01*
X14525Y-22000D02*
X14525Y-21975D01*
X14525Y-21975D02*
X14525Y-22550D01*
X17075Y-23550D02*
X16700Y-23550D01*
X15075Y-24100D02*
X14525Y-23550D01*
X16150Y-24100D02*
X15075Y-24100D01*
X16700Y-23550D02*
X16150Y-24100D01*
X21642Y-24759D02*
X21642Y-24342D01*
X19869Y-24381D02*
X19869Y-24759D01*
X19950Y-24300D02*
X19869Y-24381D01*
X21600Y-24300D02*
X19950Y-24300D01*
X21642Y-24342D02*
X21600Y-24300D01*
X18591Y-22495D02*
X17670Y-22495D01*
X17670Y-22495D02*
X17175Y-22000D01*
X18591Y-21904D02*
X18954Y-21904D01*
X15200Y-18350D02*
X15200Y-17750D01*
X15200Y-17750D02*
X15750Y-17200D01*
X26100Y-24200D02*
X26950Y-25050D01*
X15750Y-17200D02*
X17650Y-17200D01*
X19350Y-10550D02*
X19350Y-11000D01*
X10800Y-11650D02*
X11700Y-10750D01*
X16042Y-22692D02*
X15900Y-22550D01*
X18591Y-22692D02*
X16042Y-22692D01*
X15900Y-22550D02*
X15275Y-22550D01*
X17450Y-26175D02*
X17450Y-25950D01*
X17450Y-25950D02*
X17850Y-25550D01*
X17850Y-24550D02*
X17850Y-25550D01*
X18591Y-24071D02*
X18329Y-24071D01*
X18329Y-24071D02*
X17850Y-24550D01*
X16400Y-25550D02*
X15850Y-25550D01*
X18591Y-23874D02*
X18248Y-23874D01*
X16400Y-26175D02*
X16400Y-25550D01*
X18248Y-23874D02*
X16572Y-25550D01*
X16572Y-25550D02*
X16400Y-25550D01*
X19672Y-28328D02*
X16450Y-31550D01*
X16450Y-31550D02*
X15775Y-31550D01*
X19672Y-24759D02*
X19672Y-28328D01*
X16550Y-30650D02*
X15775Y-30650D01*
X19475Y-24759D02*
X19475Y-27725D01*
X19475Y-27725D02*
X16550Y-30650D01*
X18591Y-23677D02*
X18977Y-23677D01*
X18977Y-23677D02*
X19080Y-23780D01*
X18550Y-27100D02*
X16950Y-28700D01*
X19080Y-23780D02*
X19080Y-24320D01*
X18550Y-24850D02*
X18550Y-27100D01*
X19080Y-24320D02*
X18550Y-24850D01*
X16950Y-28700D02*
X15775Y-28700D01*
X15775Y-28700D02*
X15775Y-29550D01*
X15900Y-23550D02*
X15275Y-23550D01*
X16100Y-23550D02*
X15900Y-23550D01*
X16564Y-23086D02*
X16100Y-23550D01*
X18591Y-23086D02*
X16564Y-23086D01*
X14950Y-30650D02*
X14450Y-31150D01*
X13150Y-34450D02*
X12950Y-34250D01*
X12950Y-34250D02*
X12950Y-33850D01*
X13950Y-34450D02*
X13150Y-34450D01*
X14450Y-31150D02*
X13663Y-31150D01*
X12950Y-33850D02*
X12950Y-30663D01*
X12950Y-30663D02*
X13063Y-30550D01*
X15025Y-32450D02*
X15025Y-32525D01*
X13663Y-31150D02*
X13063Y-30550D01*
X15025Y-32525D02*
X14250Y-33300D01*
X14250Y-33300D02*
X14250Y-34150D01*
X14250Y-34150D02*
X13950Y-34450D01*
X15025Y-30650D02*
X14950Y-30650D01*
X22825Y-10925D02*
X22850Y-10950D01*
X22000Y-10925D02*
X22825Y-10925D01*
X24050Y-25300D02*
X24050Y-24150D01*
X24900Y-25450D02*
X24200Y-25450D01*
X25900Y-25200D02*
X25475Y-25200D01*
X25150Y-25200D02*
X24900Y-25450D01*
X25475Y-25200D02*
X25225Y-24950D01*
X24200Y-25450D02*
X24050Y-25300D01*
X24050Y-24150D02*
X23972Y-24072D01*
X25900Y-25200D02*
X25150Y-25200D01*
X23972Y-24072D02*
X23709Y-24072D01*
X20500Y-30525D02*
X20425Y-30600D01*
X20500Y-29650D02*
X20500Y-30525D01*
X13750Y-32300D02*
X13750Y-33850D01*
X14800Y-30100D02*
X14350Y-30550D01*
X15250Y-30100D02*
X14800Y-30100D01*
X15025Y-31550D02*
X14500Y-31550D01*
X14500Y-31550D02*
X13750Y-32300D01*
X15050Y-31550D02*
X15400Y-31200D01*
X15400Y-30250D02*
X15250Y-30100D01*
X15400Y-31200D02*
X15400Y-30250D01*
X15025Y-31550D02*
X15050Y-31550D01*
X14350Y-30550D02*
X13850Y-30550D01*
G54D33*
X14750Y-33850D02*
X14750Y-34150D01*
X14750Y-34150D02*
X14100Y-34800D01*
X14100Y-34800D02*
X12000Y-34800D01*
X12000Y-34800D02*
X11000Y-33800D01*
X11000Y-33800D02*
X11000Y-29900D01*
X11000Y-29900D02*
X11150Y-29750D01*
G54D31*
X11150Y-29750D02*
X11150Y-29700D01*
G54D33*
X16350Y-14300D02*
X16350Y-13500D01*
X11000Y-19650D02*
X16350Y-14300D01*
X11000Y-29550D02*
X11000Y-19650D01*
X11150Y-29700D02*
X11000Y-29550D01*
X13850Y-29150D02*
X13850Y-29550D01*
X13550Y-28850D02*
X13850Y-29150D01*
X12050Y-28850D02*
X13550Y-28850D01*
X11150Y-29750D02*
X12050Y-28850D01*
X13850Y-29550D02*
X14175Y-29550D01*
X14175Y-29550D02*
X15025Y-28700D01*
G54D10*
G36*
X32973Y-09550D02*
X32932Y-09666D01*
X32944Y-09889D01*
X32968Y-09950D01*
X32648Y-09950D01*
X32638Y-09925D01*
X32476Y-09763D01*
X32265Y-09675D01*
X32036Y-09675D01*
X31825Y-09762D01*
X31663Y-09924D01*
X31632Y-09996D01*
X31600Y-10029D01*
X31600Y-10075D01*
X31575Y-10135D01*
X31575Y-10364D01*
X31586Y-10392D01*
X31529Y-10450D01*
X24972Y-10450D01*
X24857Y-10473D01*
X24759Y-10538D01*
X22525Y-12772D01*
X22525Y-11787D01*
X22463Y-11725D01*
X22050Y-11725D01*
X22050Y-12038D01*
X22112Y-12100D01*
X22226Y-12099D01*
X22325Y-12099D01*
X22416Y-12061D01*
X22486Y-11991D01*
X22524Y-11899D01*
X22525Y-11787D01*
X22525Y-12772D01*
X21950Y-13347D01*
X21950Y-12038D01*
X21950Y-11725D01*
X21613Y-11725D01*
X21537Y-11725D01*
X21200Y-11725D01*
X21200Y-12038D01*
X21262Y-12100D01*
X21376Y-12099D01*
X21475Y-12099D01*
X21566Y-12061D01*
X21575Y-12052D01*
X21584Y-12061D01*
X21675Y-12099D01*
X21774Y-12099D01*
X21888Y-12100D01*
X21950Y-12038D01*
X21950Y-13347D01*
X21100Y-14197D01*
X21100Y-12038D01*
X21100Y-11725D01*
X20763Y-11725D01*
X20687Y-11725D01*
X20350Y-11725D01*
X20350Y-12038D01*
X20412Y-12100D01*
X20526Y-12099D01*
X20625Y-12099D01*
X20716Y-12061D01*
X20725Y-12052D01*
X20734Y-12061D01*
X20825Y-12099D01*
X20924Y-12099D01*
X21038Y-12100D01*
X21100Y-12038D01*
X21100Y-14197D01*
X20250Y-15047D01*
X20250Y-12038D01*
X20250Y-11725D01*
X19837Y-11725D01*
X19775Y-11787D01*
X19776Y-11899D01*
X19814Y-11991D01*
X19884Y-12061D01*
X19975Y-12099D01*
X20074Y-12099D01*
X20188Y-12100D01*
X20250Y-12038D01*
X20250Y-15047D01*
X19450Y-15847D01*
X19450Y-13712D01*
X19450Y-13488D01*
X19449Y-13249D01*
X19449Y-13150D01*
X19411Y-13059D01*
X19341Y-12989D01*
X19249Y-12951D01*
X18562Y-12950D01*
X18500Y-13012D01*
X18500Y-13550D01*
X19388Y-13550D01*
X19450Y-13488D01*
X19450Y-13712D01*
X19388Y-13650D01*
X18500Y-13650D01*
X18500Y-14188D01*
X18562Y-14250D01*
X19249Y-14249D01*
X19341Y-14211D01*
X19411Y-14141D01*
X19449Y-14050D01*
X19449Y-13951D01*
X19450Y-13712D01*
X19450Y-15847D01*
X18491Y-16807D01*
X18426Y-16904D01*
X18403Y-17019D01*
X18403Y-19031D01*
X18426Y-19146D01*
X18491Y-19243D01*
X18600Y-19352D01*
X18600Y-19521D01*
X18980Y-19901D01*
X18980Y-19965D01*
X19018Y-20057D01*
X19088Y-20127D01*
X19179Y-20165D01*
X19278Y-20165D01*
X19376Y-20165D01*
X19378Y-20165D01*
X19475Y-20165D01*
X19573Y-20165D01*
X19575Y-20165D01*
X19672Y-20165D01*
X19771Y-20165D01*
X19772Y-20165D01*
X19783Y-20166D01*
X19792Y-20156D01*
X19808Y-20150D01*
X19931Y-20150D01*
X19948Y-20157D01*
X19957Y-20166D01*
X19967Y-20165D01*
X19969Y-20165D01*
X20066Y-20165D01*
X20164Y-20165D01*
X20166Y-20165D01*
X20263Y-20165D01*
X20361Y-20165D01*
X20363Y-20165D01*
X20460Y-20165D01*
X20558Y-20165D01*
X20560Y-20165D01*
X20657Y-20165D01*
X20755Y-20165D01*
X20757Y-20165D01*
X20854Y-20165D01*
X20952Y-20165D01*
X20954Y-20165D01*
X21051Y-20165D01*
X21149Y-20165D01*
X21151Y-20165D01*
X21248Y-20165D01*
X21346Y-20165D01*
X21348Y-20165D01*
X21445Y-20165D01*
X21543Y-20165D01*
X21545Y-20165D01*
X21642Y-20165D01*
X21740Y-20165D01*
X21740Y-20166D01*
X21752Y-20166D01*
X21760Y-20202D01*
X21825Y-20299D01*
X21850Y-20324D01*
X21850Y-20571D01*
X22379Y-21100D01*
X22626Y-21100D01*
X22658Y-21132D01*
X22755Y-21197D01*
X22870Y-21220D01*
X23150Y-21220D01*
X23150Y-24129D01*
X23129Y-24150D01*
X21867Y-24150D01*
X21854Y-24130D01*
X21812Y-24088D01*
X21715Y-24023D01*
X21600Y-24000D01*
X19950Y-24000D01*
X19835Y-24023D01*
X19737Y-24088D01*
X19675Y-24150D01*
X19380Y-24150D01*
X19380Y-23780D01*
X19357Y-23665D01*
X19292Y-23568D01*
X19292Y-23567D01*
X19250Y-23525D01*
X19250Y-22624D01*
X19262Y-22612D01*
X19327Y-22515D01*
X19350Y-22400D01*
X19350Y-22000D01*
X19349Y-21999D01*
X19327Y-21885D01*
X19262Y-21788D01*
X19262Y-21787D01*
X19250Y-21775D01*
X19250Y-20379D01*
X19115Y-20244D01*
X19115Y-20229D01*
X19077Y-20137D01*
X19007Y-20067D01*
X18916Y-20029D01*
X18817Y-20029D01*
X18596Y-20029D01*
X18591Y-20028D01*
X18400Y-20028D01*
X18400Y-14188D01*
X18400Y-13650D01*
X18400Y-13550D01*
X18400Y-13012D01*
X18338Y-12950D01*
X17651Y-12951D01*
X17559Y-12989D01*
X17489Y-13059D01*
X17451Y-13150D01*
X17451Y-13249D01*
X17450Y-13488D01*
X17512Y-13550D01*
X18400Y-13550D01*
X18400Y-13650D01*
X17512Y-13650D01*
X17450Y-13712D01*
X17451Y-13951D01*
X17451Y-14050D01*
X17489Y-14141D01*
X17559Y-14211D01*
X17651Y-14249D01*
X18338Y-14250D01*
X18400Y-14188D01*
X18400Y-20028D01*
X17999Y-20028D01*
X16725Y-18754D01*
X16749Y-18699D01*
X16750Y-18462D01*
X16688Y-18400D01*
X16600Y-18400D01*
X16600Y-18300D01*
X16688Y-18300D01*
X16750Y-18238D01*
X16749Y-18001D01*
X16748Y-18000D01*
X17522Y-18000D01*
X17728Y-17775D01*
X17764Y-17775D01*
X17975Y-17688D01*
X18137Y-17526D01*
X18225Y-17315D01*
X18225Y-17086D01*
X18138Y-16875D01*
X17976Y-16713D01*
X17765Y-16625D01*
X17746Y-16625D01*
X17150Y-16029D01*
X17150Y-11757D01*
X17174Y-11700D01*
X17174Y-11697D01*
X17221Y-11650D01*
X17921Y-11650D01*
X17955Y-11615D01*
X17966Y-11611D01*
X18000Y-11577D01*
X18034Y-11611D01*
X18126Y-11649D01*
X18338Y-11650D01*
X18400Y-11588D01*
X18400Y-11100D01*
X18400Y-11050D01*
X18400Y-10950D01*
X18500Y-10950D01*
X18500Y-11050D01*
X18500Y-11100D01*
X18500Y-11588D01*
X18562Y-11650D01*
X18774Y-11649D01*
X18866Y-11611D01*
X18900Y-11577D01*
X18934Y-11611D01*
X19025Y-11649D01*
X19124Y-11649D01*
X19674Y-11649D01*
X19766Y-11611D01*
X19794Y-11582D01*
X19837Y-11625D01*
X20200Y-11625D01*
X20250Y-11625D01*
X20350Y-11625D01*
X20400Y-11625D01*
X20687Y-11625D01*
X20763Y-11625D01*
X21050Y-11625D01*
X21100Y-11625D01*
X21200Y-11625D01*
X21250Y-11625D01*
X21537Y-11625D01*
X21613Y-11625D01*
X21900Y-11625D01*
X21950Y-11625D01*
X22050Y-11625D01*
X22100Y-11625D01*
X22463Y-11625D01*
X22525Y-11563D01*
X22524Y-11473D01*
X22525Y-11474D01*
X22624Y-11474D01*
X23174Y-11474D01*
X23232Y-11450D01*
X23271Y-11450D01*
X23350Y-11371D01*
X23350Y-11332D01*
X23374Y-11275D01*
X23374Y-11176D01*
X23374Y-10897D01*
X24721Y-09550D01*
X32973Y-09550D01*
X32973Y-09550D01*
G37*
G54D31*
X32973Y-09550D02*
X32932Y-09666D01*
X32944Y-09889D01*
X32968Y-09950D01*
X32648Y-09950D01*
X32638Y-09925D01*
X32476Y-09763D01*
X32265Y-09675D01*
X32036Y-09675D01*
X31825Y-09762D01*
X31663Y-09924D01*
X31632Y-09996D01*
X31600Y-10029D01*
X31600Y-10075D01*
X31575Y-10135D01*
X31575Y-10364D01*
X31586Y-10392D01*
X31529Y-10450D01*
X24972Y-10450D01*
X24857Y-10473D01*
X24759Y-10538D01*
X22525Y-12772D01*
X22525Y-11787D01*
X22463Y-11725D01*
X22050Y-11725D01*
X22050Y-12038D01*
X22112Y-12100D01*
X22226Y-12099D01*
X22325Y-12099D01*
X22416Y-12061D01*
X22486Y-11991D01*
X22524Y-11899D01*
X22525Y-11787D01*
X22525Y-12772D01*
X21950Y-13347D01*
X21950Y-12038D01*
X21950Y-11725D01*
X21613Y-11725D01*
X21537Y-11725D01*
X21200Y-11725D01*
X21200Y-12038D01*
X21262Y-12100D01*
X21376Y-12099D01*
X21475Y-12099D01*
X21566Y-12061D01*
X21575Y-12052D01*
X21584Y-12061D01*
X21675Y-12099D01*
X21774Y-12099D01*
X21888Y-12100D01*
X21950Y-12038D01*
X21950Y-13347D01*
X21100Y-14197D01*
X21100Y-12038D01*
X21100Y-11725D01*
X20763Y-11725D01*
X20687Y-11725D01*
X20350Y-11725D01*
X20350Y-12038D01*
X20412Y-12100D01*
X20526Y-12099D01*
X20625Y-12099D01*
X20716Y-12061D01*
X20725Y-12052D01*
X20734Y-12061D01*
X20825Y-12099D01*
X20924Y-12099D01*
X21038Y-12100D01*
X21100Y-12038D01*
X21100Y-14197D01*
X20250Y-15047D01*
X20250Y-12038D01*
X20250Y-11725D01*
X19837Y-11725D01*
X19775Y-11787D01*
X19776Y-11899D01*
X19814Y-11991D01*
X19884Y-12061D01*
X19975Y-12099D01*
X20074Y-12099D01*
X20188Y-12100D01*
X20250Y-12038D01*
X20250Y-15047D01*
X19450Y-15847D01*
X19450Y-13712D01*
X19450Y-13488D01*
X19449Y-13249D01*
X19449Y-13150D01*
X19411Y-13059D01*
X19341Y-12989D01*
X19249Y-12951D01*
X18562Y-12950D01*
X18500Y-13012D01*
X18500Y-13550D01*
X19388Y-13550D01*
X19450Y-13488D01*
X19450Y-13712D01*
X19388Y-13650D01*
X18500Y-13650D01*
X18500Y-14188D01*
X18562Y-14250D01*
X19249Y-14249D01*
X19341Y-14211D01*
X19411Y-14141D01*
X19449Y-14050D01*
X19449Y-13951D01*
X19450Y-13712D01*
X19450Y-15847D01*
X18491Y-16807D01*
X18426Y-16904D01*
X18403Y-17019D01*
X18403Y-19031D01*
X18426Y-19146D01*
X18491Y-19243D01*
X18600Y-19352D01*
X18600Y-19521D01*
X18980Y-19901D01*
X18980Y-19965D01*
X19018Y-20057D01*
X19088Y-20127D01*
X19179Y-20165D01*
X19278Y-20165D01*
X19376Y-20165D01*
X19378Y-20165D01*
X19475Y-20165D01*
X19573Y-20165D01*
X19575Y-20165D01*
X19672Y-20165D01*
X19771Y-20165D01*
X19772Y-20165D01*
X19783Y-20166D01*
X19792Y-20156D01*
X19808Y-20150D01*
X19931Y-20150D01*
X19948Y-20157D01*
X19957Y-20166D01*
X19967Y-20165D01*
X19969Y-20165D01*
X20066Y-20165D01*
X20164Y-20165D01*
X20166Y-20165D01*
X20263Y-20165D01*
X20361Y-20165D01*
X20363Y-20165D01*
X20460Y-20165D01*
X20558Y-20165D01*
X20560Y-20165D01*
X20657Y-20165D01*
X20755Y-20165D01*
X20757Y-20165D01*
X20854Y-20165D01*
X20952Y-20165D01*
X20954Y-20165D01*
X21051Y-20165D01*
X21149Y-20165D01*
X21151Y-20165D01*
X21248Y-20165D01*
X21346Y-20165D01*
X21348Y-20165D01*
X21445Y-20165D01*
X21543Y-20165D01*
X21545Y-20165D01*
X21642Y-20165D01*
X21740Y-20165D01*
X21740Y-20166D01*
X21752Y-20166D01*
X21760Y-20202D01*
X21825Y-20299D01*
X21850Y-20324D01*
X21850Y-20571D01*
X22379Y-21100D01*
X22626Y-21100D01*
X22658Y-21132D01*
X22755Y-21197D01*
X22870Y-21220D01*
X23150Y-21220D01*
X23150Y-24129D01*
X23129Y-24150D01*
X21867Y-24150D01*
X21854Y-24130D01*
X21812Y-24088D01*
X21715Y-24023D01*
X21600Y-24000D01*
X19950Y-24000D01*
X19835Y-24023D01*
X19737Y-24088D01*
X19675Y-24150D01*
X19380Y-24150D01*
X19380Y-23780D01*
X19357Y-23665D01*
X19292Y-23568D01*
X19292Y-23567D01*
X19250Y-23525D01*
X19250Y-22624D01*
X19262Y-22612D01*
X19327Y-22515D01*
X19350Y-22400D01*
X19350Y-22000D01*
X19349Y-21999D01*
X19327Y-21885D01*
X19262Y-21788D01*
X19262Y-21787D01*
X19250Y-21775D01*
X19250Y-20379D01*
X19115Y-20244D01*
X19115Y-20229D01*
X19077Y-20137D01*
X19007Y-20067D01*
X18916Y-20029D01*
X18817Y-20029D01*
X18596Y-20029D01*
X18591Y-20028D01*
X18400Y-20028D01*
X18400Y-14188D01*
X18400Y-13650D01*
X18400Y-13550D01*
X18400Y-13012D01*
X18338Y-12950D01*
X17651Y-12951D01*
X17559Y-12989D01*
X17489Y-13059D01*
X17451Y-13150D01*
X17451Y-13249D01*
X17450Y-13488D01*
X17512Y-13550D01*
X18400Y-13550D01*
X18400Y-13650D01*
X17512Y-13650D01*
X17450Y-13712D01*
X17451Y-13951D01*
X17451Y-14050D01*
X17489Y-14141D01*
X17559Y-14211D01*
X17651Y-14249D01*
X18338Y-14250D01*
X18400Y-14188D01*
X18400Y-20028D01*
X17999Y-20028D01*
X16725Y-18754D01*
X16749Y-18699D01*
X16750Y-18462D01*
X16688Y-18400D01*
X16600Y-18400D01*
X16600Y-18300D01*
X16688Y-18300D01*
X16750Y-18238D01*
X16749Y-18001D01*
X16748Y-18000D01*
X17522Y-18000D01*
X17728Y-17775D01*
X17764Y-17775D01*
X17975Y-17688D01*
X18137Y-17526D01*
X18225Y-17315D01*
X18225Y-17086D01*
X18138Y-16875D01*
X17976Y-16713D01*
X17765Y-16625D01*
X17746Y-16625D01*
X17150Y-16029D01*
X17150Y-11757D01*
X17174Y-11700D01*
X17174Y-11697D01*
X17221Y-11650D01*
X17921Y-11650D01*
X17955Y-11615D01*
X17966Y-11611D01*
X18000Y-11577D01*
X18034Y-11611D01*
X18126Y-11649D01*
X18338Y-11650D01*
X18400Y-11588D01*
X18400Y-11100D01*
X18400Y-11050D01*
X18400Y-10950D01*
X18500Y-10950D01*
X18500Y-11050D01*
X18500Y-11100D01*
X18500Y-11588D01*
X18562Y-11650D01*
X18774Y-11649D01*
X18866Y-11611D01*
X18900Y-11577D01*
X18934Y-11611D01*
X19025Y-11649D01*
X19124Y-11649D01*
X19674Y-11649D01*
X19766Y-11611D01*
X19794Y-11582D01*
X19837Y-11625D01*
X20200Y-11625D01*
X20250Y-11625D01*
X20350Y-11625D01*
X20400Y-11625D01*
X20687Y-11625D01*
X20763Y-11625D01*
X21050Y-11625D01*
X21100Y-11625D01*
X21200Y-11625D01*
X21250Y-11625D01*
X21537Y-11625D01*
X21613Y-11625D01*
X21900Y-11625D01*
X21950Y-11625D01*
X22050Y-11625D01*
X22100Y-11625D01*
X22463Y-11625D01*
X22525Y-11563D01*
X22524Y-11473D01*
X22525Y-11474D01*
X22624Y-11474D01*
X23174Y-11474D01*
X23232Y-11450D01*
X23271Y-11450D01*
X23350Y-11371D01*
X23350Y-11332D01*
X23374Y-11275D01*
X23374Y-11176D01*
X23374Y-10897D01*
X24721Y-09550D01*
X32973Y-09550D01*
G54D10*
G36*
X33571Y-09750D02*
X33500Y-09821D01*
X33429Y-09750D01*
X33500Y-09679D01*
X33571Y-09750D01*
X33571Y-09750D01*
G37*
G54D31*
X33571Y-09750D02*
X33500Y-09821D01*
X33429Y-09750D01*
X33500Y-09679D01*
X33571Y-09750D01*
G54D10*
G36*
X12696Y-34400D02*
X12166Y-34400D01*
X12126Y-34360D01*
X12229Y-34318D01*
X12254Y-34225D01*
X11985Y-33956D01*
X11950Y-33921D01*
X11879Y-33850D01*
X11844Y-33815D01*
X11575Y-33546D01*
X11482Y-33571D01*
X11443Y-33677D01*
X11400Y-33634D01*
X11400Y-32916D01*
X11557Y-33074D01*
X11844Y-33193D01*
X12155Y-33193D01*
X12442Y-33074D01*
X12650Y-32866D01*
X12650Y-33385D01*
X12642Y-33389D01*
X12489Y-33542D01*
X12447Y-33642D01*
X12418Y-33571D01*
X12325Y-33546D01*
X12254Y-33617D01*
X12254Y-33475D01*
X12229Y-33382D01*
X12028Y-33310D01*
X11816Y-33322D01*
X11671Y-33382D01*
X11646Y-33475D01*
X11950Y-33779D01*
X12254Y-33475D01*
X12254Y-33617D01*
X12021Y-33850D01*
X12325Y-34154D01*
X12418Y-34129D01*
X12445Y-34052D01*
X12489Y-34158D01*
X12642Y-34311D01*
X12664Y-34320D01*
X12673Y-34365D01*
X12696Y-34400D01*
X12696Y-34400D01*
G37*
G54D31*
X12696Y-34400D02*
X12166Y-34400D01*
X12126Y-34360D01*
X12229Y-34318D01*
X12254Y-34225D01*
X11985Y-33956D01*
X11950Y-33921D01*
X11879Y-33850D01*
X11844Y-33815D01*
X11575Y-33546D01*
X11482Y-33571D01*
X11443Y-33677D01*
X11400Y-33634D01*
X11400Y-32916D01*
X11557Y-33074D01*
X11844Y-33193D01*
X12155Y-33193D01*
X12442Y-33074D01*
X12650Y-32866D01*
X12650Y-33385D01*
X12642Y-33389D01*
X12489Y-33542D01*
X12447Y-33642D01*
X12418Y-33571D01*
X12325Y-33546D01*
X12254Y-33617D01*
X12254Y-33475D01*
X12229Y-33382D01*
X12028Y-33310D01*
X11816Y-33322D01*
X11671Y-33382D01*
X11646Y-33475D01*
X11950Y-33779D01*
X12254Y-33475D01*
X12254Y-33617D01*
X12021Y-33850D01*
X12325Y-34154D01*
X12418Y-34129D01*
X12445Y-34052D01*
X12489Y-34158D01*
X12642Y-34311D01*
X12664Y-34320D01*
X12673Y-34365D01*
X12696Y-34400D01*
G54D10*
G36*
X13121Y-23984D02*
X13050Y-24055D01*
X12979Y-23984D01*
X13050Y-23913D01*
X13121Y-23984D01*
X13121Y-23984D01*
G37*
G54D31*
X13121Y-23984D02*
X13050Y-24055D01*
X12979Y-23984D01*
X13050Y-23913D01*
X13121Y-23984D01*
G54D10*
G36*
X13623Y-30050D02*
X13539Y-30085D01*
X13456Y-30167D01*
X13374Y-30085D01*
X13282Y-30047D01*
X13344Y-30022D01*
X13371Y-29928D01*
X13063Y-29621D01*
X12755Y-29928D01*
X12782Y-30022D01*
X12847Y-30045D01*
X12752Y-30085D01*
X12598Y-30239D01*
X12514Y-30441D01*
X12514Y-30659D01*
X12598Y-30861D01*
X12650Y-30913D01*
X12650Y-31957D01*
X12443Y-31750D01*
X12156Y-31631D01*
X11845Y-31631D01*
X11558Y-31750D01*
X11400Y-31907D01*
X11400Y-30066D01*
X11433Y-30033D01*
X12215Y-29250D01*
X12622Y-29250D01*
X12629Y-29257D01*
X12591Y-29269D01*
X12520Y-29471D01*
X12531Y-29684D01*
X12591Y-29831D01*
X12685Y-29858D01*
X12957Y-29585D01*
X12992Y-29550D01*
X13063Y-29479D01*
X13134Y-29550D01*
X13169Y-29585D01*
X13342Y-29759D01*
X13385Y-29861D01*
X13539Y-30015D01*
X13623Y-30050D01*
X13623Y-30050D01*
G37*
G54D31*
X13623Y-30050D02*
X13539Y-30085D01*
X13456Y-30167D01*
X13374Y-30085D01*
X13282Y-30047D01*
X13344Y-30022D01*
X13371Y-29928D01*
X13063Y-29621D01*
X12755Y-29928D01*
X12782Y-30022D01*
X12847Y-30045D01*
X12752Y-30085D01*
X12598Y-30239D01*
X12514Y-30441D01*
X12514Y-30659D01*
X12598Y-30861D01*
X12650Y-30913D01*
X12650Y-31957D01*
X12443Y-31750D01*
X12156Y-31631D01*
X11845Y-31631D01*
X11558Y-31750D01*
X11400Y-31907D01*
X11400Y-30066D01*
X11433Y-30033D01*
X12215Y-29250D01*
X12622Y-29250D01*
X12629Y-29257D01*
X12591Y-29269D01*
X12520Y-29471D01*
X12531Y-29684D01*
X12591Y-29831D01*
X12685Y-29858D01*
X12957Y-29585D01*
X12992Y-29550D01*
X13063Y-29479D01*
X13134Y-29550D01*
X13169Y-29585D01*
X13342Y-29759D01*
X13385Y-29861D01*
X13539Y-30015D01*
X13623Y-30050D01*
G54D10*
G36*
X15075Y-29600D02*
X14975Y-29600D01*
X14975Y-29500D01*
X15075Y-29500D01*
X15075Y-29600D01*
X15075Y-29600D01*
G37*
G54D31*
X15075Y-29600D02*
X14975Y-29600D01*
X14975Y-29500D01*
X15075Y-29500D01*
X15075Y-29600D01*
G54D10*
G36*
X17125Y-23600D02*
X17025Y-23600D01*
X16975Y-23600D01*
X16712Y-23600D01*
X16650Y-23662D01*
X16651Y-23776D01*
X16651Y-23875D01*
X16689Y-23966D01*
X16759Y-24036D01*
X16822Y-24062D01*
X16634Y-24250D01*
X13850Y-24250D01*
X13527Y-24250D01*
X13593Y-24063D01*
X13582Y-23850D01*
X13581Y-23849D01*
X13688Y-23850D01*
X13750Y-23788D01*
X13750Y-23475D01*
X13337Y-23475D01*
X13308Y-23503D01*
X13129Y-23441D01*
X12916Y-23452D01*
X12824Y-23489D01*
X12824Y-23201D01*
X12786Y-23109D01*
X12727Y-23050D01*
X12786Y-22991D01*
X12824Y-22900D01*
X12824Y-22801D01*
X12824Y-22666D01*
X12929Y-22560D01*
X12941Y-22565D01*
X13159Y-22565D01*
X13170Y-22560D01*
X13276Y-22666D01*
X13276Y-22899D01*
X13314Y-22991D01*
X13373Y-23050D01*
X13314Y-23109D01*
X13276Y-23201D01*
X13275Y-23313D01*
X13337Y-23375D01*
X13700Y-23375D01*
X13750Y-23375D01*
X13850Y-23375D01*
X13850Y-23475D01*
X13850Y-23525D01*
X13850Y-23788D01*
X13912Y-23850D01*
X14026Y-23849D01*
X14101Y-23849D01*
X14101Y-23875D01*
X14139Y-23966D01*
X14209Y-24036D01*
X14301Y-24074D01*
X14413Y-24075D01*
X14475Y-24013D01*
X14475Y-23650D01*
X14475Y-23600D01*
X14475Y-23500D01*
X14575Y-23500D01*
X14575Y-23600D01*
X14575Y-23650D01*
X14575Y-24013D01*
X14637Y-24075D01*
X14749Y-24074D01*
X14841Y-24036D01*
X14900Y-23977D01*
X14959Y-24036D01*
X15050Y-24074D01*
X15149Y-24074D01*
X15499Y-24074D01*
X15591Y-24036D01*
X15643Y-23983D01*
X15801Y-24049D01*
X15999Y-24049D01*
X16182Y-23973D01*
X16323Y-23833D01*
X16380Y-23693D01*
X16650Y-23423D01*
X16650Y-23438D01*
X16712Y-23500D01*
X16975Y-23500D01*
X17025Y-23500D01*
X17125Y-23500D01*
X17125Y-23600D01*
X17125Y-23600D01*
G37*
G54D31*
X17125Y-23600D02*
X17025Y-23600D01*
X16975Y-23600D01*
X16712Y-23600D01*
X16650Y-23662D01*
X16651Y-23776D01*
X16651Y-23875D01*
X16689Y-23966D01*
X16759Y-24036D01*
X16822Y-24062D01*
X16634Y-24250D01*
X13850Y-24250D01*
X13527Y-24250D01*
X13593Y-24063D01*
X13582Y-23850D01*
X13581Y-23849D01*
X13688Y-23850D01*
X13750Y-23788D01*
X13750Y-23475D01*
X13337Y-23475D01*
X13308Y-23503D01*
X13129Y-23441D01*
X12916Y-23452D01*
X12824Y-23489D01*
X12824Y-23201D01*
X12786Y-23109D01*
X12727Y-23050D01*
X12786Y-22991D01*
X12824Y-22900D01*
X12824Y-22801D01*
X12824Y-22666D01*
X12929Y-22560D01*
X12941Y-22565D01*
X13159Y-22565D01*
X13170Y-22560D01*
X13276Y-22666D01*
X13276Y-22899D01*
X13314Y-22991D01*
X13373Y-23050D01*
X13314Y-23109D01*
X13276Y-23201D01*
X13275Y-23313D01*
X13337Y-23375D01*
X13700Y-23375D01*
X13750Y-23375D01*
X13850Y-23375D01*
X13850Y-23475D01*
X13850Y-23525D01*
X13850Y-23788D01*
X13912Y-23850D01*
X14026Y-23849D01*
X14101Y-23849D01*
X14101Y-23875D01*
X14139Y-23966D01*
X14209Y-24036D01*
X14301Y-24074D01*
X14413Y-24075D01*
X14475Y-24013D01*
X14475Y-23650D01*
X14475Y-23600D01*
X14475Y-23500D01*
X14575Y-23500D01*
X14575Y-23600D01*
X14575Y-23650D01*
X14575Y-24013D01*
X14637Y-24075D01*
X14749Y-24074D01*
X14841Y-24036D01*
X14900Y-23977D01*
X14959Y-24036D01*
X15050Y-24074D01*
X15149Y-24074D01*
X15499Y-24074D01*
X15591Y-24036D01*
X15643Y-23983D01*
X15801Y-24049D01*
X15999Y-24049D01*
X16182Y-23973D01*
X16323Y-23833D01*
X16380Y-23693D01*
X16650Y-23423D01*
X16650Y-23438D01*
X16712Y-23500D01*
X16975Y-23500D01*
X17025Y-23500D01*
X17125Y-23500D01*
X17125Y-23600D01*
G54D10*
G36*
X17225Y-22050D02*
X17125Y-22050D01*
X17125Y-21950D01*
X17225Y-21950D01*
X17225Y-22050D01*
X17225Y-22050D01*
G37*
G54D31*
X17225Y-22050D02*
X17125Y-22050D01*
X17125Y-21950D01*
X17225Y-21950D01*
X17225Y-22050D01*
G54D10*
G36*
X18250Y-26975D02*
X17975Y-27250D01*
X17975Y-27037D01*
X17913Y-26975D01*
X17500Y-26975D01*
X17500Y-27288D01*
X17562Y-27350D01*
X17676Y-27349D01*
X17775Y-27349D01*
X17866Y-27311D01*
X17936Y-27241D01*
X17974Y-27149D01*
X17975Y-27037D01*
X17975Y-27250D01*
X17400Y-27825D01*
X17400Y-27288D01*
X17400Y-26975D01*
X16987Y-26975D01*
X16925Y-27037D01*
X16863Y-26975D01*
X16450Y-26975D01*
X16450Y-27288D01*
X16512Y-27350D01*
X16626Y-27349D01*
X16725Y-27349D01*
X16816Y-27311D01*
X16886Y-27241D01*
X16924Y-27149D01*
X16925Y-27037D01*
X16926Y-27149D01*
X16964Y-27241D01*
X17034Y-27311D01*
X17125Y-27349D01*
X17224Y-27349D01*
X17338Y-27350D01*
X17400Y-27288D01*
X17400Y-27825D01*
X16825Y-28400D01*
X16350Y-28400D01*
X16350Y-27288D01*
X16350Y-26975D01*
X15937Y-26975D01*
X15875Y-27037D01*
X15876Y-27149D01*
X15914Y-27241D01*
X15984Y-27311D01*
X16075Y-27349D01*
X16174Y-27349D01*
X16288Y-27350D01*
X16350Y-27288D01*
X16350Y-28400D01*
X16199Y-28400D01*
X16199Y-28376D01*
X16161Y-28284D01*
X16091Y-28214D01*
X16000Y-28176D01*
X15901Y-28176D01*
X15551Y-28176D01*
X15459Y-28214D01*
X15400Y-28273D01*
X15341Y-28214D01*
X15250Y-28176D01*
X15151Y-28176D01*
X14801Y-28176D01*
X14709Y-28214D01*
X14639Y-28284D01*
X14601Y-28375D01*
X14601Y-28474D01*
X14601Y-28558D01*
X14197Y-28961D01*
X14133Y-28867D01*
X13833Y-28567D01*
X13703Y-28480D01*
X13550Y-28450D01*
X12200Y-28450D01*
X12442Y-28350D01*
X12662Y-28131D01*
X12781Y-27844D01*
X12781Y-27533D01*
X12662Y-27246D01*
X12443Y-27026D01*
X12156Y-26907D01*
X11845Y-26907D01*
X11558Y-27026D01*
X11400Y-27183D01*
X11400Y-19816D01*
X16633Y-14583D01*
X16720Y-14453D01*
X16750Y-14300D01*
X16750Y-13876D01*
X16800Y-13826D01*
X16800Y-16271D01*
X17581Y-17052D01*
X17178Y-17500D01*
X16129Y-17500D01*
X15811Y-17817D01*
X15759Y-17839D01*
X15689Y-17909D01*
X15651Y-18000D01*
X15651Y-18062D01*
X15578Y-18042D01*
X15508Y-18112D01*
X15508Y-17972D01*
X15481Y-17878D01*
X15279Y-17807D01*
X15066Y-17818D01*
X14919Y-17878D01*
X14892Y-17972D01*
X15200Y-18279D01*
X15508Y-17972D01*
X15508Y-18112D01*
X15271Y-18350D01*
X15200Y-18421D01*
X15129Y-18350D01*
X15094Y-18315D01*
X14822Y-18042D01*
X14728Y-18069D01*
X14657Y-18271D01*
X14668Y-18484D01*
X14728Y-18631D01*
X14741Y-18634D01*
X14737Y-18638D01*
X14488Y-18888D01*
X14423Y-18985D01*
X14400Y-19100D01*
X14400Y-20600D01*
X14423Y-20715D01*
X14488Y-20812D01*
X14737Y-21062D01*
X14738Y-21062D01*
X14741Y-21065D01*
X14728Y-21069D01*
X14657Y-21271D01*
X14668Y-21484D01*
X14728Y-21631D01*
X14822Y-21658D01*
X15094Y-21385D01*
X15129Y-21350D01*
X15200Y-21279D01*
X15271Y-21350D01*
X15200Y-21421D01*
X14892Y-21728D01*
X14919Y-21822D01*
X15121Y-21893D01*
X15334Y-21882D01*
X15481Y-21822D01*
X15485Y-21807D01*
X15488Y-21812D01*
X15687Y-22012D01*
X15688Y-22012D01*
X15767Y-22065D01*
X15643Y-22116D01*
X15591Y-22064D01*
X15500Y-22026D01*
X15401Y-22026D01*
X15051Y-22026D01*
X14959Y-22064D01*
X14900Y-22123D01*
X14841Y-22064D01*
X14749Y-22026D01*
X14637Y-22025D01*
X14575Y-22087D01*
X14575Y-22450D01*
X14575Y-22500D01*
X14575Y-22600D01*
X14475Y-22600D01*
X14475Y-22500D01*
X14475Y-22450D01*
X14475Y-22087D01*
X14413Y-22025D01*
X14301Y-22026D01*
X14209Y-22064D01*
X14139Y-22134D01*
X14101Y-22225D01*
X14101Y-22251D01*
X14026Y-22251D01*
X13709Y-22251D01*
X13594Y-22136D01*
X13599Y-22125D01*
X13599Y-21907D01*
X13515Y-21705D01*
X13361Y-21551D01*
X13352Y-21547D01*
X13375Y-21538D01*
X13537Y-21376D01*
X13625Y-21165D01*
X13625Y-20936D01*
X13538Y-20725D01*
X13376Y-20563D01*
X13165Y-20475D01*
X12936Y-20475D01*
X12725Y-20562D01*
X12563Y-20724D01*
X12475Y-20935D01*
X12475Y-21164D01*
X12562Y-21375D01*
X12724Y-21537D01*
X12748Y-21547D01*
X12739Y-21551D01*
X12585Y-21705D01*
X12501Y-21907D01*
X12501Y-22125D01*
X12505Y-22136D01*
X12391Y-22251D01*
X11976Y-22251D01*
X11884Y-22289D01*
X11814Y-22359D01*
X11776Y-22450D01*
X11776Y-22549D01*
X11776Y-22899D01*
X11814Y-22991D01*
X11873Y-23050D01*
X11814Y-23109D01*
X11776Y-23200D01*
X11776Y-23299D01*
X11776Y-23649D01*
X11814Y-23741D01*
X11884Y-23811D01*
X11900Y-23817D01*
X11900Y-24200D01*
X11930Y-24353D01*
X12017Y-24483D01*
X12467Y-24933D01*
X12596Y-25020D01*
X12597Y-25020D01*
X12750Y-25050D01*
X13289Y-25050D01*
X13275Y-25085D01*
X13275Y-25314D01*
X13362Y-25525D01*
X13524Y-25687D01*
X13735Y-25775D01*
X13964Y-25775D01*
X14175Y-25688D01*
X14337Y-25526D01*
X14425Y-25315D01*
X14425Y-25086D01*
X14410Y-25050D01*
X15672Y-25050D01*
X15550Y-25101D01*
X15401Y-25249D01*
X15320Y-25444D01*
X15320Y-25655D01*
X15401Y-25850D01*
X15549Y-25999D01*
X15744Y-26080D01*
X15876Y-26080D01*
X15876Y-26399D01*
X15914Y-26491D01*
X15973Y-26550D01*
X15914Y-26609D01*
X15876Y-26701D01*
X15875Y-26813D01*
X15937Y-26875D01*
X16300Y-26875D01*
X16350Y-26875D01*
X16450Y-26875D01*
X16500Y-26875D01*
X16863Y-26875D01*
X16925Y-26813D01*
X16987Y-26875D01*
X17350Y-26875D01*
X17400Y-26875D01*
X17500Y-26875D01*
X17550Y-26875D01*
X17913Y-26875D01*
X17975Y-26813D01*
X17974Y-26701D01*
X17936Y-26609D01*
X17877Y-26550D01*
X17936Y-26491D01*
X17974Y-26400D01*
X17974Y-26301D01*
X17974Y-26072D01*
X18150Y-25999D01*
X18250Y-25899D01*
X18250Y-26975D01*
X18250Y-26975D01*
G37*
G54D31*
X18250Y-26975D02*
X17975Y-27250D01*
X17975Y-27037D01*
X17913Y-26975D01*
X17500Y-26975D01*
X17500Y-27288D01*
X17562Y-27350D01*
X17676Y-27349D01*
X17775Y-27349D01*
X17866Y-27311D01*
X17936Y-27241D01*
X17974Y-27149D01*
X17975Y-27037D01*
X17975Y-27250D01*
X17400Y-27825D01*
X17400Y-27288D01*
X17400Y-26975D01*
X16987Y-26975D01*
X16925Y-27037D01*
X16863Y-26975D01*
X16450Y-26975D01*
X16450Y-27288D01*
X16512Y-27350D01*
X16626Y-27349D01*
X16725Y-27349D01*
X16816Y-27311D01*
X16886Y-27241D01*
X16924Y-27149D01*
X16925Y-27037D01*
X16926Y-27149D01*
X16964Y-27241D01*
X17034Y-27311D01*
X17125Y-27349D01*
X17224Y-27349D01*
X17338Y-27350D01*
X17400Y-27288D01*
X17400Y-27825D01*
X16825Y-28400D01*
X16350Y-28400D01*
X16350Y-27288D01*
X16350Y-26975D01*
X15937Y-26975D01*
X15875Y-27037D01*
X15876Y-27149D01*
X15914Y-27241D01*
X15984Y-27311D01*
X16075Y-27349D01*
X16174Y-27349D01*
X16288Y-27350D01*
X16350Y-27288D01*
X16350Y-28400D01*
X16199Y-28400D01*
X16199Y-28376D01*
X16161Y-28284D01*
X16091Y-28214D01*
X16000Y-28176D01*
X15901Y-28176D01*
X15551Y-28176D01*
X15459Y-28214D01*
X15400Y-28273D01*
X15341Y-28214D01*
X15250Y-28176D01*
X15151Y-28176D01*
X14801Y-28176D01*
X14709Y-28214D01*
X14639Y-28284D01*
X14601Y-28375D01*
X14601Y-28474D01*
X14601Y-28558D01*
X14197Y-28961D01*
X14133Y-28867D01*
X13833Y-28567D01*
X13703Y-28480D01*
X13550Y-28450D01*
X12200Y-28450D01*
X12442Y-28350D01*
X12662Y-28131D01*
X12781Y-27844D01*
X12781Y-27533D01*
X12662Y-27246D01*
X12443Y-27026D01*
X12156Y-26907D01*
X11845Y-26907D01*
X11558Y-27026D01*
X11400Y-27183D01*
X11400Y-19816D01*
X16633Y-14583D01*
X16720Y-14453D01*
X16750Y-14300D01*
X16750Y-13876D01*
X16800Y-13826D01*
X16800Y-16271D01*
X17581Y-17052D01*
X17178Y-17500D01*
X16129Y-17500D01*
X15811Y-17817D01*
X15759Y-17839D01*
X15689Y-17909D01*
X15651Y-18000D01*
X15651Y-18062D01*
X15578Y-18042D01*
X15508Y-18112D01*
X15508Y-17972D01*
X15481Y-17878D01*
X15279Y-17807D01*
X15066Y-17818D01*
X14919Y-17878D01*
X14892Y-17972D01*
X15200Y-18279D01*
X15508Y-17972D01*
X15508Y-18112D01*
X15271Y-18350D01*
X15200Y-18421D01*
X15129Y-18350D01*
X15094Y-18315D01*
X14822Y-18042D01*
X14728Y-18069D01*
X14657Y-18271D01*
X14668Y-18484D01*
X14728Y-18631D01*
X14741Y-18634D01*
X14737Y-18638D01*
X14488Y-18888D01*
X14423Y-18985D01*
X14400Y-19100D01*
X14400Y-20600D01*
X14423Y-20715D01*
X14488Y-20812D01*
X14737Y-21062D01*
X14738Y-21062D01*
X14741Y-21065D01*
X14728Y-21069D01*
X14657Y-21271D01*
X14668Y-21484D01*
X14728Y-21631D01*
X14822Y-21658D01*
X15094Y-21385D01*
X15129Y-21350D01*
X15200Y-21279D01*
X15271Y-21350D01*
X15200Y-21421D01*
X14892Y-21728D01*
X14919Y-21822D01*
X15121Y-21893D01*
X15334Y-21882D01*
X15481Y-21822D01*
X15485Y-21807D01*
X15488Y-21812D01*
X15687Y-22012D01*
X15688Y-22012D01*
X15767Y-22065D01*
X15643Y-22116D01*
X15591Y-22064D01*
X15500Y-22026D01*
X15401Y-22026D01*
X15051Y-22026D01*
X14959Y-22064D01*
X14900Y-22123D01*
X14841Y-22064D01*
X14749Y-22026D01*
X14637Y-22025D01*
X14575Y-22087D01*
X14575Y-22450D01*
X14575Y-22500D01*
X14575Y-22600D01*
X14475Y-22600D01*
X14475Y-22500D01*
X14475Y-22450D01*
X14475Y-22087D01*
X14413Y-22025D01*
X14301Y-22026D01*
X14209Y-22064D01*
X14139Y-22134D01*
X14101Y-22225D01*
X14101Y-22251D01*
X14026Y-22251D01*
X13709Y-22251D01*
X13594Y-22136D01*
X13599Y-22125D01*
X13599Y-21907D01*
X13515Y-21705D01*
X13361Y-21551D01*
X13352Y-21547D01*
X13375Y-21538D01*
X13537Y-21376D01*
X13625Y-21165D01*
X13625Y-20936D01*
X13538Y-20725D01*
X13376Y-20563D01*
X13165Y-20475D01*
X12936Y-20475D01*
X12725Y-20562D01*
X12563Y-20724D01*
X12475Y-20935D01*
X12475Y-21164D01*
X12562Y-21375D01*
X12724Y-21537D01*
X12748Y-21547D01*
X12739Y-21551D01*
X12585Y-21705D01*
X12501Y-21907D01*
X12501Y-22125D01*
X12505Y-22136D01*
X12391Y-22251D01*
X11976Y-22251D01*
X11884Y-22289D01*
X11814Y-22359D01*
X11776Y-22450D01*
X11776Y-22549D01*
X11776Y-22899D01*
X11814Y-22991D01*
X11873Y-23050D01*
X11814Y-23109D01*
X11776Y-23200D01*
X11776Y-23299D01*
X11776Y-23649D01*
X11814Y-23741D01*
X11884Y-23811D01*
X11900Y-23817D01*
X11900Y-24200D01*
X11930Y-24353D01*
X12017Y-24483D01*
X12467Y-24933D01*
X12596Y-25020D01*
X12597Y-25020D01*
X12750Y-25050D01*
X13289Y-25050D01*
X13275Y-25085D01*
X13275Y-25314D01*
X13362Y-25525D01*
X13524Y-25687D01*
X13735Y-25775D01*
X13964Y-25775D01*
X14175Y-25688D01*
X14337Y-25526D01*
X14425Y-25315D01*
X14425Y-25086D01*
X14410Y-25050D01*
X15672Y-25050D01*
X15550Y-25101D01*
X15401Y-25249D01*
X15320Y-25444D01*
X15320Y-25655D01*
X15401Y-25850D01*
X15549Y-25999D01*
X15744Y-26080D01*
X15876Y-26080D01*
X15876Y-26399D01*
X15914Y-26491D01*
X15973Y-26550D01*
X15914Y-26609D01*
X15876Y-26701D01*
X15875Y-26813D01*
X15937Y-26875D01*
X16300Y-26875D01*
X16350Y-26875D01*
X16450Y-26875D01*
X16500Y-26875D01*
X16863Y-26875D01*
X16925Y-26813D01*
X16987Y-26875D01*
X17350Y-26875D01*
X17400Y-26875D01*
X17500Y-26875D01*
X17550Y-26875D01*
X17913Y-26875D01*
X17975Y-26813D01*
X17974Y-26701D01*
X17936Y-26609D01*
X17877Y-26550D01*
X17936Y-26491D01*
X17974Y-26400D01*
X17974Y-26301D01*
X17974Y-26072D01*
X18150Y-25999D01*
X18250Y-25899D01*
X18250Y-26975D01*
G54D10*
G36*
X19175Y-27600D02*
X16425Y-30350D01*
X16199Y-30350D01*
X16199Y-30326D01*
X16161Y-30234D01*
X16091Y-30164D01*
X16000Y-30126D01*
X15901Y-30126D01*
X15670Y-30126D01*
X15636Y-30074D01*
X15649Y-30074D01*
X15999Y-30074D01*
X16091Y-30036D01*
X16161Y-29966D01*
X16199Y-29875D01*
X16199Y-29776D01*
X16199Y-29226D01*
X16161Y-29134D01*
X16152Y-29125D01*
X16161Y-29116D01*
X16199Y-29025D01*
X16199Y-29000D01*
X16950Y-29000D01*
X17065Y-28977D01*
X17162Y-28912D01*
X18762Y-27313D01*
X18762Y-27312D01*
X18827Y-27215D01*
X18849Y-27101D01*
X18850Y-27100D01*
X18850Y-26599D01*
X18888Y-26600D01*
X18950Y-26538D01*
X18950Y-26275D01*
X18950Y-26225D01*
X18950Y-26125D01*
X19050Y-26125D01*
X19050Y-26225D01*
X19050Y-26275D01*
X19050Y-26538D01*
X19112Y-26600D01*
X19175Y-26599D01*
X19175Y-27600D01*
X19175Y-27600D01*
G37*
G54D31*
X19175Y-27600D02*
X16425Y-30350D01*
X16199Y-30350D01*
X16199Y-30326D01*
X16161Y-30234D01*
X16091Y-30164D01*
X16000Y-30126D01*
X15901Y-30126D01*
X15670Y-30126D01*
X15636Y-30074D01*
X15649Y-30074D01*
X15999Y-30074D01*
X16091Y-30036D01*
X16161Y-29966D01*
X16199Y-29875D01*
X16199Y-29776D01*
X16199Y-29226D01*
X16161Y-29134D01*
X16152Y-29125D01*
X16161Y-29116D01*
X16199Y-29025D01*
X16199Y-29000D01*
X16950Y-29000D01*
X17065Y-28977D01*
X17162Y-28912D01*
X18762Y-27313D01*
X18762Y-27312D01*
X18827Y-27215D01*
X18849Y-27101D01*
X18850Y-27100D01*
X18850Y-26599D01*
X18888Y-26600D01*
X18950Y-26538D01*
X18950Y-26275D01*
X18950Y-26225D01*
X18950Y-26125D01*
X19050Y-26125D01*
X19050Y-26225D01*
X19050Y-26275D01*
X19050Y-26538D01*
X19112Y-26600D01*
X19175Y-26599D01*
X19175Y-27600D01*
G54D10*
G36*
X19767Y-17500D02*
X19712Y-17500D01*
X19650Y-17562D01*
X19650Y-17825D01*
X19650Y-17875D01*
X19650Y-17975D01*
X19550Y-17975D01*
X19550Y-17875D01*
X19550Y-17825D01*
X19550Y-17562D01*
X19488Y-17500D01*
X19374Y-17501D01*
X19275Y-17501D01*
X19200Y-17532D01*
X19200Y-17224D01*
X19767Y-16657D01*
X19767Y-17500D01*
X19767Y-17500D01*
G37*
G54D31*
X19767Y-17500D02*
X19712Y-17500D01*
X19650Y-17562D01*
X19650Y-17825D01*
X19650Y-17875D01*
X19650Y-17975D01*
X19550Y-17975D01*
X19550Y-17875D01*
X19550Y-17825D01*
X19550Y-17562D01*
X19488Y-17500D01*
X19374Y-17501D01*
X19275Y-17501D01*
X19200Y-17532D01*
X19200Y-17224D01*
X19767Y-16657D01*
X19767Y-17500D01*
G54D10*
G36*
X20276Y-29126D02*
X20176Y-29126D01*
X20084Y-29164D01*
X20014Y-29234D01*
X19976Y-29325D01*
X19976Y-29424D01*
X19976Y-29974D01*
X20014Y-30066D01*
X20084Y-30136D01*
X20086Y-30136D01*
X20050Y-30173D01*
X19991Y-30114D01*
X19900Y-30076D01*
X19801Y-30076D01*
X19451Y-30076D01*
X19359Y-30114D01*
X19289Y-30184D01*
X19282Y-30200D01*
X19263Y-30200D01*
X19176Y-30113D01*
X18965Y-30025D01*
X18736Y-30025D01*
X18525Y-30112D01*
X18383Y-30253D01*
X18266Y-30277D01*
X18152Y-30353D01*
X16455Y-32050D01*
X16167Y-32050D01*
X16161Y-32034D01*
X16127Y-32000D01*
X16161Y-31966D01*
X16199Y-31875D01*
X16199Y-31850D01*
X16450Y-31850D01*
X16565Y-31827D01*
X16662Y-31762D01*
X19884Y-28541D01*
X19884Y-28540D01*
X19949Y-28443D01*
X19971Y-28328D01*
X19972Y-28328D01*
X19972Y-27958D01*
X20213Y-28200D01*
X20203Y-28205D01*
X20055Y-28352D01*
X19975Y-28545D01*
X19975Y-28754D01*
X20055Y-28947D01*
X20202Y-29095D01*
X20276Y-29126D01*
X20276Y-29126D01*
G37*
G54D31*
X20276Y-29126D02*
X20176Y-29126D01*
X20084Y-29164D01*
X20014Y-29234D01*
X19976Y-29325D01*
X19976Y-29424D01*
X19976Y-29974D01*
X20014Y-30066D01*
X20084Y-30136D01*
X20086Y-30136D01*
X20050Y-30173D01*
X19991Y-30114D01*
X19900Y-30076D01*
X19801Y-30076D01*
X19451Y-30076D01*
X19359Y-30114D01*
X19289Y-30184D01*
X19282Y-30200D01*
X19263Y-30200D01*
X19176Y-30113D01*
X18965Y-30025D01*
X18736Y-30025D01*
X18525Y-30112D01*
X18383Y-30253D01*
X18266Y-30277D01*
X18152Y-30353D01*
X16455Y-32050D01*
X16167Y-32050D01*
X16161Y-32034D01*
X16127Y-32000D01*
X16161Y-31966D01*
X16199Y-31875D01*
X16199Y-31850D01*
X16450Y-31850D01*
X16565Y-31827D01*
X16662Y-31762D01*
X19884Y-28541D01*
X19884Y-28540D01*
X19949Y-28443D01*
X19971Y-28328D01*
X19972Y-28328D01*
X19972Y-27958D01*
X20213Y-28200D01*
X20203Y-28205D01*
X20055Y-28352D01*
X19975Y-28545D01*
X19975Y-28754D01*
X20055Y-28947D01*
X20202Y-29095D01*
X20276Y-29126D01*
G54D10*
G36*
X23750Y-25275D02*
X23321Y-24846D01*
X23321Y-24759D01*
X23320Y-24754D01*
X23320Y-24451D01*
X23400Y-24371D01*
X23483Y-24371D01*
X23704Y-24371D01*
X23709Y-24372D01*
X23750Y-24372D01*
X23750Y-25275D01*
X23750Y-25275D01*
G37*
G54D31*
X23750Y-25275D02*
X23321Y-24846D01*
X23321Y-24759D01*
X23320Y-24754D01*
X23320Y-24451D01*
X23400Y-24371D01*
X23483Y-24371D01*
X23704Y-24371D01*
X23709Y-24372D01*
X23750Y-24372D01*
X23750Y-25275D01*
G54D10*
G36*
X24814Y-16050D02*
X22624Y-18240D01*
X22624Y-18001D01*
X22586Y-17909D01*
X22527Y-17850D01*
X22586Y-17791D01*
X22624Y-17699D01*
X22625Y-17587D01*
X22563Y-17525D01*
X22200Y-17525D01*
X22150Y-17525D01*
X22050Y-17525D01*
X22050Y-17425D01*
X22150Y-17425D01*
X22200Y-17425D01*
X22563Y-17425D01*
X22625Y-17363D01*
X22624Y-17251D01*
X22586Y-17159D01*
X22516Y-17089D01*
X22425Y-17051D01*
X22326Y-17051D01*
X22273Y-17050D01*
X23274Y-16050D01*
X24814Y-16050D01*
X24814Y-16050D01*
G37*
G54D31*
X24814Y-16050D02*
X22624Y-18240D01*
X22624Y-18001D01*
X22586Y-17909D01*
X22527Y-17850D01*
X22586Y-17791D01*
X22624Y-17699D01*
X22625Y-17587D01*
X22563Y-17525D01*
X22200Y-17525D01*
X22150Y-17525D01*
X22050Y-17525D01*
X22050Y-17425D01*
X22150Y-17425D01*
X22200Y-17425D01*
X22563Y-17425D01*
X22625Y-17363D01*
X22624Y-17251D01*
X22586Y-17159D01*
X22516Y-17089D01*
X22425Y-17051D01*
X22326Y-17051D01*
X22273Y-17050D01*
X23274Y-16050D01*
X24814Y-16050D01*
G54D10*
G36*
X25113Y-28950D02*
X23774Y-28950D01*
X22625Y-27801D01*
X22174Y-27350D01*
X22200Y-27350D01*
X22200Y-27338D01*
X22212Y-27350D01*
X22326Y-27349D01*
X22425Y-27349D01*
X22516Y-27311D01*
X22586Y-27241D01*
X22624Y-27149D01*
X22625Y-27037D01*
X22563Y-26975D01*
X22200Y-26975D01*
X22150Y-26975D01*
X22050Y-26975D01*
X22050Y-26875D01*
X22150Y-26875D01*
X22200Y-26875D01*
X22563Y-26875D01*
X22625Y-26813D01*
X22624Y-26701D01*
X22586Y-26609D01*
X22527Y-26550D01*
X22586Y-26491D01*
X22606Y-26442D01*
X25113Y-28950D01*
X25113Y-28950D01*
G37*
G54D31*
X25113Y-28950D02*
X23774Y-28950D01*
X22625Y-27801D01*
X22174Y-27350D01*
X22200Y-27350D01*
X22200Y-27338D01*
X22212Y-27350D01*
X22326Y-27349D01*
X22425Y-27349D01*
X22516Y-27311D01*
X22586Y-27241D01*
X22624Y-27149D01*
X22625Y-27037D01*
X22563Y-26975D01*
X22200Y-26975D01*
X22150Y-26975D01*
X22050Y-26975D01*
X22050Y-26875D01*
X22150Y-26875D01*
X22200Y-26875D01*
X22563Y-26875D01*
X22625Y-26813D01*
X22624Y-26701D01*
X22586Y-26609D01*
X22527Y-26550D01*
X22586Y-26491D01*
X22606Y-26442D01*
X25113Y-28950D01*
G54D10*
G36*
X25350Y-24200D02*
X25325Y-24200D01*
X25275Y-24200D01*
X25175Y-24200D01*
X25175Y-24100D01*
X25275Y-24100D01*
X25325Y-24100D01*
X25350Y-24100D01*
X25350Y-24200D01*
X25350Y-24200D01*
G37*
G54D31*
X25350Y-24200D02*
X25325Y-24200D01*
X25275Y-24200D01*
X25175Y-24200D01*
X25175Y-24100D01*
X25275Y-24100D01*
X25325Y-24100D01*
X25350Y-24100D01*
X25350Y-24200D01*
G54D10*
G36*
X25370Y-18550D02*
X23891Y-20029D01*
X23709Y-20029D01*
X23704Y-20030D01*
X23385Y-20030D01*
X23293Y-20068D01*
X23223Y-20138D01*
X23185Y-20229D01*
X23185Y-20328D01*
X23185Y-20426D01*
X23185Y-20428D01*
X23185Y-20525D01*
X23185Y-20623D01*
X23185Y-20625D01*
X23185Y-20722D01*
X23185Y-20800D01*
X22871Y-20800D01*
X22236Y-20165D01*
X22331Y-20165D01*
X22333Y-20165D01*
X22430Y-20165D01*
X22528Y-20165D01*
X22530Y-20165D01*
X22627Y-20165D01*
X22725Y-20165D01*
X22727Y-20165D01*
X22824Y-20165D01*
X22922Y-20165D01*
X22924Y-20165D01*
X23021Y-20165D01*
X23121Y-20165D01*
X23213Y-20127D01*
X23283Y-20057D01*
X23321Y-19966D01*
X23321Y-19867D01*
X23321Y-19646D01*
X23322Y-19641D01*
X23322Y-19502D01*
X24274Y-18550D01*
X25370Y-18550D01*
X25370Y-18550D01*
G37*
G54D31*
X25370Y-18550D02*
X23891Y-20029D01*
X23709Y-20029D01*
X23704Y-20030D01*
X23385Y-20030D01*
X23293Y-20068D01*
X23223Y-20138D01*
X23185Y-20229D01*
X23185Y-20328D01*
X23185Y-20426D01*
X23185Y-20428D01*
X23185Y-20525D01*
X23185Y-20623D01*
X23185Y-20625D01*
X23185Y-20722D01*
X23185Y-20800D01*
X22871Y-20800D01*
X22236Y-20165D01*
X22331Y-20165D01*
X22333Y-20165D01*
X22430Y-20165D01*
X22528Y-20165D01*
X22530Y-20165D01*
X22627Y-20165D01*
X22725Y-20165D01*
X22727Y-20165D01*
X22824Y-20165D01*
X22922Y-20165D01*
X22924Y-20165D01*
X23021Y-20165D01*
X23121Y-20165D01*
X23213Y-20127D01*
X23283Y-20057D01*
X23321Y-19966D01*
X23321Y-19867D01*
X23321Y-19646D01*
X23322Y-19641D01*
X23322Y-19502D01*
X24274Y-18550D01*
X25370Y-18550D01*
G54D10*
G36*
X25950Y-24250D02*
X25850Y-24250D01*
X25850Y-24150D01*
X25950Y-24150D01*
X25950Y-24250D01*
X25950Y-24250D01*
G37*
G54D31*
X25950Y-24250D02*
X25850Y-24250D01*
X25850Y-24150D01*
X25950Y-24150D01*
X25950Y-24250D01*
G54D10*
G36*
X27225Y-20050D02*
X26989Y-20286D01*
X26987Y-20288D01*
X26588Y-20688D01*
X26262Y-21014D01*
X26199Y-21014D01*
X26200Y-20962D01*
X26200Y-20738D01*
X26199Y-20624D01*
X26199Y-20525D01*
X26161Y-20434D01*
X26091Y-20364D01*
X25999Y-20326D01*
X25887Y-20325D01*
X25825Y-20387D01*
X25825Y-20800D01*
X26138Y-20800D01*
X26200Y-20738D01*
X26200Y-20962D01*
X26138Y-20900D01*
X25875Y-20900D01*
X25825Y-20900D01*
X25725Y-20900D01*
X25725Y-20800D01*
X25725Y-20750D01*
X25725Y-20387D01*
X25663Y-20325D01*
X25551Y-20326D01*
X25459Y-20364D01*
X25400Y-20423D01*
X25341Y-20364D01*
X25250Y-20326D01*
X25151Y-20326D01*
X24998Y-20326D01*
X25274Y-20050D01*
X27225Y-20050D01*
X27225Y-20050D01*
G37*
G54D31*
X27225Y-20050D02*
X26989Y-20286D01*
X26987Y-20288D01*
X26588Y-20688D01*
X26262Y-21014D01*
X26199Y-21014D01*
X26200Y-20962D01*
X26200Y-20738D01*
X26199Y-20624D01*
X26199Y-20525D01*
X26161Y-20434D01*
X26091Y-20364D01*
X25999Y-20326D01*
X25887Y-20325D01*
X25825Y-20387D01*
X25825Y-20800D01*
X26138Y-20800D01*
X26200Y-20738D01*
X26200Y-20962D01*
X26138Y-20900D01*
X25875Y-20900D01*
X25825Y-20900D01*
X25725Y-20900D01*
X25725Y-20800D01*
X25725Y-20750D01*
X25725Y-20387D01*
X25663Y-20325D01*
X25551Y-20326D01*
X25459Y-20364D01*
X25400Y-20423D01*
X25341Y-20364D01*
X25250Y-20326D01*
X25151Y-20326D01*
X24998Y-20326D01*
X25274Y-20050D01*
X27225Y-20050D01*
G54D10*
G36*
X28175Y-25950D02*
X24424Y-25950D01*
X24224Y-25750D01*
X24900Y-25750D01*
X25015Y-25727D01*
X25112Y-25662D01*
X25274Y-25500D01*
X25430Y-25500D01*
X25435Y-25511D01*
X25589Y-25665D01*
X25791Y-25749D01*
X26009Y-25749D01*
X26211Y-25665D01*
X26365Y-25511D01*
X26449Y-25309D01*
X26449Y-25091D01*
X26365Y-24889D01*
X26225Y-24749D01*
X26250Y-24749D01*
X26341Y-24711D01*
X26411Y-24641D01*
X26449Y-24549D01*
X26450Y-24312D01*
X26438Y-24300D01*
X26450Y-24300D01*
X26450Y-24225D01*
X28175Y-25950D01*
X28175Y-25950D01*
G37*
G54D31*
X28175Y-25950D02*
X24424Y-25950D01*
X24224Y-25750D01*
X24900Y-25750D01*
X25015Y-25727D01*
X25112Y-25662D01*
X25274Y-25500D01*
X25430Y-25500D01*
X25435Y-25511D01*
X25589Y-25665D01*
X25791Y-25749D01*
X26009Y-25749D01*
X26211Y-25665D01*
X26365Y-25511D01*
X26449Y-25309D01*
X26449Y-25091D01*
X26365Y-24889D01*
X26225Y-24749D01*
X26250Y-24749D01*
X26341Y-24711D01*
X26411Y-24641D01*
X26449Y-24549D01*
X26450Y-24312D01*
X26438Y-24300D01*
X26450Y-24300D01*
X26450Y-24225D01*
X28175Y-25950D01*
G54D10*
G36*
X34204Y-33249D02*
X34175Y-33262D01*
X34013Y-33424D01*
X33996Y-33464D01*
X33992Y-33454D01*
X33950Y-33441D01*
X33896Y-33425D01*
X33606Y-33715D01*
X33571Y-33750D01*
X33500Y-33821D01*
X33429Y-33750D01*
X33394Y-33715D01*
X33104Y-33425D01*
X33008Y-33454D01*
X32932Y-33666D01*
X32944Y-33889D01*
X33008Y-34046D01*
X33050Y-34058D01*
X33016Y-34093D01*
X33023Y-34100D01*
X22765Y-34100D01*
X20075Y-31409D01*
X20075Y-31052D01*
X20109Y-31086D01*
X20200Y-31124D01*
X20299Y-31124D01*
X20649Y-31124D01*
X20741Y-31086D01*
X20811Y-31016D01*
X20849Y-30925D01*
X20849Y-30826D01*
X20849Y-30276D01*
X20811Y-30184D01*
X20801Y-30174D01*
X20824Y-30174D01*
X20916Y-30136D01*
X20986Y-30066D01*
X21024Y-29975D01*
X21024Y-29876D01*
X21024Y-29326D01*
X20986Y-29234D01*
X20916Y-29164D01*
X20825Y-29126D01*
X20726Y-29126D01*
X20722Y-29126D01*
X20797Y-29095D01*
X20945Y-28948D01*
X20949Y-28935D01*
X24976Y-32962D01*
X25073Y-33027D01*
X25188Y-33050D01*
X33001Y-33050D01*
X33012Y-33075D01*
X33174Y-33237D01*
X33214Y-33253D01*
X33204Y-33258D01*
X33175Y-33354D01*
X33500Y-33679D01*
X33825Y-33354D01*
X33796Y-33258D01*
X33785Y-33254D01*
X33825Y-33238D01*
X33950Y-33113D01*
X33987Y-33076D01*
X33999Y-33045D01*
X34012Y-33075D01*
X34174Y-33237D01*
X34204Y-33249D01*
X34204Y-33249D01*
G37*
G54D31*
X34204Y-33249D02*
X34175Y-33262D01*
X34013Y-33424D01*
X33996Y-33464D01*
X33992Y-33454D01*
X33950Y-33441D01*
X33896Y-33425D01*
X33606Y-33715D01*
X33571Y-33750D01*
X33500Y-33821D01*
X33429Y-33750D01*
X33394Y-33715D01*
X33104Y-33425D01*
X33008Y-33454D01*
X32932Y-33666D01*
X32944Y-33889D01*
X33008Y-34046D01*
X33050Y-34058D01*
X33016Y-34093D01*
X33023Y-34100D01*
X22765Y-34100D01*
X20075Y-31409D01*
X20075Y-31052D01*
X20109Y-31086D01*
X20200Y-31124D01*
X20299Y-31124D01*
X20649Y-31124D01*
X20741Y-31086D01*
X20811Y-31016D01*
X20849Y-30925D01*
X20849Y-30826D01*
X20849Y-30276D01*
X20811Y-30184D01*
X20801Y-30174D01*
X20824Y-30174D01*
X20916Y-30136D01*
X20986Y-30066D01*
X21024Y-29975D01*
X21024Y-29876D01*
X21024Y-29326D01*
X20986Y-29234D01*
X20916Y-29164D01*
X20825Y-29126D01*
X20726Y-29126D01*
X20722Y-29126D01*
X20797Y-29095D01*
X20945Y-28948D01*
X20949Y-28935D01*
X24976Y-32962D01*
X25073Y-33027D01*
X25188Y-33050D01*
X33001Y-33050D01*
X33012Y-33075D01*
X33174Y-33237D01*
X33214Y-33253D01*
X33204Y-33258D01*
X33175Y-33354D01*
X33500Y-33679D01*
X33825Y-33354D01*
X33796Y-33258D01*
X33785Y-33254D01*
X33825Y-33238D01*
X33950Y-33113D01*
X33987Y-33076D01*
X33999Y-33045D01*
X34012Y-33075D01*
X34174Y-33237D01*
X34204Y-33249D01*
G54D10*
G36*
X35475Y-35675D02*
X33950Y-35675D01*
X16474Y-35675D01*
X16625Y-35613D01*
X16861Y-35377D01*
X16990Y-35068D01*
X16990Y-34734D01*
X16863Y-34425D01*
X16627Y-34189D01*
X16318Y-34060D01*
X15984Y-34060D01*
X15675Y-34187D01*
X15439Y-34423D01*
X15310Y-34732D01*
X15310Y-35066D01*
X15437Y-35375D01*
X15673Y-35611D01*
X15826Y-35675D01*
X11074Y-35675D01*
X11225Y-35613D01*
X11461Y-35377D01*
X11590Y-35068D01*
X11590Y-34956D01*
X11717Y-35083D01*
X11846Y-35170D01*
X11847Y-35170D01*
X12000Y-35200D01*
X14100Y-35200D01*
X14253Y-35170D01*
X14383Y-35083D01*
X15033Y-34433D01*
X15120Y-34304D01*
X15120Y-34303D01*
X15133Y-34235D01*
X15211Y-34158D01*
X15294Y-33958D01*
X15294Y-33742D01*
X15211Y-33542D01*
X15058Y-33389D01*
X14858Y-33306D01*
X14668Y-33306D01*
X15000Y-32974D01*
X15249Y-32974D01*
X15341Y-32936D01*
X15400Y-32877D01*
X15459Y-32936D01*
X15550Y-32974D01*
X15649Y-32974D01*
X15999Y-32974D01*
X16091Y-32936D01*
X16161Y-32866D01*
X16167Y-32850D01*
X16550Y-32850D01*
X16703Y-32820D01*
X16833Y-32733D01*
X16920Y-32603D01*
X16927Y-32567D01*
X18465Y-31028D01*
X18524Y-31087D01*
X18735Y-31175D01*
X18964Y-31175D01*
X19175Y-31088D01*
X19263Y-31000D01*
X19275Y-31000D01*
X19275Y-31575D01*
X19305Y-31728D01*
X19392Y-31858D01*
X22267Y-34732D01*
X22396Y-34819D01*
X22549Y-34850D01*
X22703Y-34819D01*
X22731Y-34800D01*
X33950Y-34800D01*
X34250Y-34800D01*
X34250Y-34799D01*
X34384Y-34773D01*
X34497Y-34697D01*
X34747Y-34448D01*
X34747Y-34447D01*
X34823Y-34334D01*
X34846Y-34216D01*
X34987Y-34076D01*
X35075Y-33865D01*
X35075Y-33636D01*
X34988Y-33425D01*
X34826Y-33263D01*
X34795Y-33250D01*
X34825Y-33238D01*
X34987Y-33076D01*
X35075Y-32865D01*
X35075Y-32636D01*
X34988Y-32425D01*
X34826Y-32263D01*
X34795Y-32250D01*
X34825Y-32238D01*
X34987Y-32076D01*
X35075Y-31865D01*
X35075Y-31636D01*
X34988Y-31425D01*
X34826Y-31263D01*
X34795Y-31250D01*
X34825Y-31238D01*
X34987Y-31076D01*
X35075Y-30865D01*
X35075Y-30636D01*
X34988Y-30425D01*
X34826Y-30263D01*
X34795Y-30250D01*
X34825Y-30238D01*
X34987Y-30076D01*
X35075Y-29865D01*
X35075Y-29636D01*
X34988Y-29425D01*
X34826Y-29263D01*
X34795Y-29250D01*
X34825Y-29238D01*
X34987Y-29076D01*
X35075Y-28865D01*
X35075Y-28636D01*
X34988Y-28425D01*
X34826Y-28263D01*
X34795Y-28250D01*
X34825Y-28238D01*
X34987Y-28076D01*
X35075Y-27865D01*
X35075Y-27636D01*
X34988Y-27425D01*
X34826Y-27263D01*
X34795Y-27250D01*
X34825Y-27238D01*
X34987Y-27076D01*
X35075Y-26865D01*
X35075Y-26636D01*
X34988Y-26425D01*
X34826Y-26263D01*
X34795Y-26250D01*
X34825Y-26238D01*
X34987Y-26076D01*
X35075Y-25865D01*
X35075Y-25636D01*
X34988Y-25425D01*
X34826Y-25263D01*
X34795Y-25250D01*
X34825Y-25238D01*
X34987Y-25076D01*
X35075Y-24865D01*
X35075Y-24636D01*
X34988Y-24425D01*
X34826Y-24263D01*
X34795Y-24250D01*
X34825Y-24238D01*
X34987Y-24076D01*
X35075Y-23865D01*
X35075Y-23636D01*
X34988Y-23425D01*
X34826Y-23263D01*
X34795Y-23250D01*
X34825Y-23238D01*
X34987Y-23076D01*
X35075Y-22865D01*
X35075Y-22636D01*
X34988Y-22425D01*
X34826Y-22263D01*
X34795Y-22250D01*
X34825Y-22238D01*
X34987Y-22076D01*
X35075Y-21865D01*
X35075Y-21636D01*
X34988Y-21425D01*
X34826Y-21263D01*
X34795Y-21250D01*
X34825Y-21238D01*
X34987Y-21076D01*
X35075Y-20865D01*
X35075Y-20636D01*
X34988Y-20425D01*
X34826Y-20263D01*
X34795Y-20250D01*
X34825Y-20238D01*
X34987Y-20076D01*
X35075Y-19865D01*
X35075Y-19636D01*
X34988Y-19425D01*
X34826Y-19263D01*
X34795Y-19250D01*
X34825Y-19238D01*
X34987Y-19076D01*
X35075Y-18865D01*
X35075Y-18636D01*
X34988Y-18425D01*
X34826Y-18263D01*
X34795Y-18250D01*
X34825Y-18238D01*
X34987Y-18076D01*
X35075Y-17865D01*
X35075Y-17636D01*
X34988Y-17425D01*
X34826Y-17263D01*
X34795Y-17250D01*
X34825Y-17238D01*
X34987Y-17076D01*
X35075Y-16865D01*
X35075Y-16636D01*
X34988Y-16425D01*
X34826Y-16263D01*
X34795Y-16250D01*
X34825Y-16238D01*
X34987Y-16076D01*
X35075Y-15865D01*
X35075Y-15636D01*
X34988Y-15425D01*
X34826Y-15263D01*
X34795Y-15250D01*
X34825Y-15238D01*
X34987Y-15076D01*
X35075Y-14865D01*
X35075Y-14636D01*
X34988Y-14425D01*
X34826Y-14263D01*
X34795Y-14250D01*
X34825Y-14238D01*
X34987Y-14076D01*
X35075Y-13865D01*
X35075Y-13636D01*
X34988Y-13425D01*
X34826Y-13263D01*
X34795Y-13250D01*
X34825Y-13238D01*
X34987Y-13076D01*
X35075Y-12865D01*
X35075Y-12636D01*
X34988Y-12425D01*
X34826Y-12263D01*
X34795Y-12250D01*
X34825Y-12238D01*
X34987Y-12076D01*
X35075Y-11865D01*
X35075Y-11636D01*
X34988Y-11425D01*
X34826Y-11263D01*
X34795Y-11250D01*
X34825Y-11238D01*
X34987Y-11076D01*
X35075Y-10865D01*
X35075Y-10636D01*
X35068Y-10619D01*
X35068Y-09834D01*
X35056Y-09611D01*
X34992Y-09454D01*
X34896Y-09425D01*
X34825Y-09496D01*
X34825Y-09354D01*
X34796Y-09258D01*
X34584Y-09182D01*
X34361Y-09194D01*
X34204Y-09258D01*
X34175Y-09354D01*
X34500Y-09679D01*
X34825Y-09354D01*
X34825Y-09496D01*
X34571Y-09750D01*
X34896Y-10075D01*
X34992Y-10046D01*
X35068Y-09834D01*
X35068Y-10619D01*
X34988Y-10425D01*
X34826Y-10263D01*
X34785Y-10246D01*
X34796Y-10242D01*
X34825Y-10146D01*
X34535Y-09856D01*
X34500Y-09821D01*
X34429Y-09750D01*
X34394Y-09715D01*
X34104Y-09425D01*
X34008Y-09454D01*
X34004Y-09464D01*
X33988Y-09425D01*
X33950Y-09387D01*
X33950Y-09150D01*
X24529Y-09150D01*
X23369Y-10309D01*
X23369Y-10024D01*
X23358Y-09820D01*
X23302Y-09683D01*
X23211Y-09660D01*
X23140Y-09731D01*
X23140Y-09589D01*
X23117Y-09498D01*
X22924Y-09431D01*
X22720Y-09442D01*
X22583Y-09498D01*
X22560Y-09589D01*
X22850Y-09879D01*
X23140Y-09589D01*
X23140Y-09731D01*
X22921Y-09950D01*
X23211Y-10240D01*
X23302Y-10217D01*
X23369Y-10024D01*
X23369Y-10309D01*
X23230Y-10448D01*
X23175Y-10426D01*
X23076Y-10426D01*
X23058Y-10426D01*
X23117Y-10402D01*
X23140Y-10311D01*
X22850Y-10021D01*
X22779Y-10092D01*
X22779Y-09950D01*
X22489Y-09660D01*
X22398Y-09683D01*
X22331Y-09876D01*
X22342Y-10080D01*
X22398Y-10217D01*
X22489Y-10240D01*
X22779Y-09950D01*
X22779Y-10092D01*
X22560Y-10311D01*
X22583Y-10402D01*
X22652Y-10426D01*
X22526Y-10426D01*
X22434Y-10464D01*
X22375Y-10522D01*
X22325Y-10501D01*
X22226Y-10501D01*
X21676Y-10501D01*
X21584Y-10539D01*
X21575Y-10548D01*
X21566Y-10539D01*
X21475Y-10501D01*
X21376Y-10501D01*
X21262Y-10500D01*
X21200Y-10562D01*
X21200Y-10825D01*
X21200Y-10875D01*
X21200Y-10975D01*
X21100Y-10975D01*
X21100Y-10875D01*
X21100Y-10562D01*
X21038Y-10500D01*
X20924Y-10501D01*
X20825Y-10501D01*
X20734Y-10539D01*
X20725Y-10548D01*
X20716Y-10539D01*
X20625Y-10501D01*
X20526Y-10501D01*
X20412Y-10500D01*
X20350Y-10562D01*
X20350Y-10875D01*
X20687Y-10875D01*
X20763Y-10875D01*
X21100Y-10875D01*
X21100Y-10975D01*
X21050Y-10975D01*
X20763Y-10975D01*
X20687Y-10975D01*
X20400Y-10975D01*
X20350Y-10975D01*
X20250Y-10975D01*
X20250Y-10875D01*
X20250Y-10825D01*
X20250Y-10562D01*
X20188Y-10500D01*
X20074Y-10501D01*
X19975Y-10501D01*
X19884Y-10539D01*
X19873Y-10549D01*
X19836Y-10459D01*
X19766Y-10389D01*
X19674Y-10351D01*
X19462Y-10350D01*
X19400Y-10412D01*
X19400Y-10900D01*
X19400Y-10950D01*
X19400Y-11050D01*
X19300Y-11050D01*
X19300Y-10950D01*
X19300Y-10900D01*
X19300Y-10412D01*
X19238Y-10350D01*
X19221Y-10350D01*
X19021Y-10150D01*
X17929Y-10150D01*
X17728Y-10351D01*
X17226Y-10351D01*
X17134Y-10389D01*
X17125Y-10398D01*
X17066Y-10339D01*
X16975Y-10301D01*
X16876Y-10301D01*
X16762Y-10300D01*
X16700Y-10362D01*
X16700Y-10625D01*
X16700Y-10675D01*
X16700Y-10775D01*
X16600Y-10775D01*
X16600Y-10675D01*
X16600Y-10362D01*
X16538Y-10300D01*
X16424Y-10301D01*
X16325Y-10301D01*
X16234Y-10339D01*
X16164Y-10409D01*
X16126Y-10501D01*
X16125Y-10613D01*
X16187Y-10675D01*
X16600Y-10675D01*
X16600Y-10775D01*
X16550Y-10775D01*
X16187Y-10775D01*
X16125Y-10837D01*
X16126Y-10949D01*
X16164Y-11041D01*
X16223Y-11100D01*
X16164Y-11159D01*
X16126Y-11250D01*
X16126Y-11349D01*
X16126Y-11699D01*
X16164Y-11791D01*
X16234Y-11861D01*
X16250Y-11867D01*
X16250Y-11951D01*
X16001Y-11951D01*
X15909Y-11989D01*
X15850Y-12048D01*
X15791Y-11989D01*
X15700Y-11951D01*
X15601Y-11951D01*
X15001Y-11951D01*
X14909Y-11989D01*
X14839Y-12059D01*
X14801Y-12150D01*
X14801Y-12249D01*
X14801Y-12849D01*
X14839Y-12941D01*
X14909Y-13011D01*
X15000Y-13049D01*
X15025Y-13049D01*
X14974Y-13100D01*
X14394Y-13100D01*
X14394Y-11756D01*
X14356Y-11664D01*
X14286Y-11594D01*
X14195Y-11556D01*
X14096Y-11556D01*
X12872Y-11556D01*
X12615Y-11556D01*
X12631Y-11540D01*
X12577Y-11486D01*
X12694Y-11410D01*
X12872Y-10980D01*
X12871Y-10514D01*
X12694Y-10090D01*
X12535Y-09986D01*
X12464Y-10057D01*
X12464Y-09915D01*
X12360Y-09756D01*
X11930Y-09578D01*
X11464Y-09579D01*
X11040Y-09756D01*
X10936Y-09915D01*
X11700Y-10679D01*
X12464Y-09915D01*
X12464Y-10057D01*
X11806Y-10715D01*
X11771Y-10750D01*
X11700Y-10821D01*
X11629Y-10750D01*
X11594Y-10715D01*
X10865Y-09986D01*
X10706Y-10090D01*
X10528Y-10520D01*
X10529Y-10986D01*
X10706Y-11410D01*
X10822Y-11486D01*
X10769Y-11540D01*
X10807Y-11578D01*
X10564Y-11579D01*
X10140Y-11756D01*
X10036Y-11915D01*
X10765Y-12644D01*
X10800Y-12679D01*
X10871Y-12750D01*
X10906Y-12785D01*
X11635Y-13514D01*
X11794Y-13410D01*
X11972Y-12980D01*
X11971Y-12514D01*
X11794Y-12090D01*
X11677Y-12013D01*
X11731Y-11960D01*
X11692Y-11921D01*
X11936Y-11921D01*
X12006Y-11891D01*
X12006Y-13744D01*
X12044Y-13836D01*
X12114Y-13906D01*
X12205Y-13944D01*
X12304Y-13944D01*
X14194Y-13944D01*
X14286Y-13906D01*
X14292Y-13900D01*
X14974Y-13900D01*
X15039Y-13965D01*
X15241Y-14049D01*
X15459Y-14049D01*
X15661Y-13965D01*
X15815Y-13811D01*
X15850Y-13726D01*
X15885Y-13811D01*
X15950Y-13876D01*
X15950Y-14134D01*
X11972Y-18112D01*
X11564Y-18520D01*
X11564Y-13585D01*
X10800Y-12821D01*
X10729Y-12892D01*
X10729Y-12750D01*
X09965Y-11986D01*
X09806Y-12090D01*
X09628Y-12520D01*
X09629Y-12986D01*
X09806Y-13410D01*
X09965Y-13514D01*
X10729Y-12750D01*
X10729Y-12892D01*
X10036Y-13585D01*
X10140Y-13744D01*
X10570Y-13922D01*
X11036Y-13921D01*
X11460Y-13744D01*
X11564Y-13585D01*
X11564Y-18520D01*
X10717Y-19367D01*
X10630Y-19497D01*
X10600Y-19650D01*
X10600Y-29550D01*
X10630Y-29703D01*
X10644Y-29725D01*
X10630Y-29747D01*
X10600Y-29900D01*
X10600Y-33800D01*
X10630Y-33953D01*
X10701Y-34060D01*
X10584Y-34060D01*
X10275Y-34187D01*
X10039Y-34423D01*
X09910Y-34732D01*
X09910Y-35066D01*
X10037Y-35375D01*
X10273Y-35611D01*
X10426Y-35675D01*
X09525Y-35675D01*
X09525Y-09350D01*
X09525Y-09300D01*
X09525Y-09075D01*
X35475Y-09075D01*
X35475Y-35675D01*
X35475Y-35675D01*
G37*
G54D31*
X35475Y-35675D02*
X33950Y-35675D01*
X16474Y-35675D01*
X16625Y-35613D01*
X16861Y-35377D01*
X16990Y-35068D01*
X16990Y-34734D01*
X16863Y-34425D01*
X16627Y-34189D01*
X16318Y-34060D01*
X15984Y-34060D01*
X15675Y-34187D01*
X15439Y-34423D01*
X15310Y-34732D01*
X15310Y-35066D01*
X15437Y-35375D01*
X15673Y-35611D01*
X15826Y-35675D01*
X11074Y-35675D01*
X11225Y-35613D01*
X11461Y-35377D01*
X11590Y-35068D01*
X11590Y-34956D01*
X11717Y-35083D01*
X11846Y-35170D01*
X11847Y-35170D01*
X12000Y-35200D01*
X14100Y-35200D01*
X14253Y-35170D01*
X14383Y-35083D01*
X15033Y-34433D01*
X15120Y-34304D01*
X15120Y-34303D01*
X15133Y-34235D01*
X15211Y-34158D01*
X15294Y-33958D01*
X15294Y-33742D01*
X15211Y-33542D01*
X15058Y-33389D01*
X14858Y-33306D01*
X14668Y-33306D01*
X15000Y-32974D01*
X15249Y-32974D01*
X15341Y-32936D01*
X15400Y-32877D01*
X15459Y-32936D01*
X15550Y-32974D01*
X15649Y-32974D01*
X15999Y-32974D01*
X16091Y-32936D01*
X16161Y-32866D01*
X16167Y-32850D01*
X16550Y-32850D01*
X16703Y-32820D01*
X16833Y-32733D01*
X16920Y-32603D01*
X16927Y-32567D01*
X18465Y-31028D01*
X18524Y-31087D01*
X18735Y-31175D01*
X18964Y-31175D01*
X19175Y-31088D01*
X19263Y-31000D01*
X19275Y-31000D01*
X19275Y-31575D01*
X19305Y-31728D01*
X19392Y-31858D01*
X22267Y-34732D01*
X22396Y-34819D01*
X22549Y-34850D01*
X22703Y-34819D01*
X22731Y-34800D01*
X33950Y-34800D01*
X34250Y-34800D01*
X34250Y-34799D01*
X34384Y-34773D01*
X34497Y-34697D01*
X34747Y-34448D01*
X34747Y-34447D01*
X34823Y-34334D01*
X34846Y-34216D01*
X34987Y-34076D01*
X35075Y-33865D01*
X35075Y-33636D01*
X34988Y-33425D01*
X34826Y-33263D01*
X34795Y-33250D01*
X34825Y-33238D01*
X34987Y-33076D01*
X35075Y-32865D01*
X35075Y-32636D01*
X34988Y-32425D01*
X34826Y-32263D01*
X34795Y-32250D01*
X34825Y-32238D01*
X34987Y-32076D01*
X35075Y-31865D01*
X35075Y-31636D01*
X34988Y-31425D01*
X34826Y-31263D01*
X34795Y-31250D01*
X34825Y-31238D01*
X34987Y-31076D01*
X35075Y-30865D01*
X35075Y-30636D01*
X34988Y-30425D01*
X34826Y-30263D01*
X34795Y-30250D01*
X34825Y-30238D01*
X34987Y-30076D01*
X35075Y-29865D01*
X35075Y-29636D01*
X34988Y-29425D01*
X34826Y-29263D01*
X34795Y-29250D01*
X34825Y-29238D01*
X34987Y-29076D01*
X35075Y-28865D01*
X35075Y-28636D01*
X34988Y-28425D01*
X34826Y-28263D01*
X34795Y-28250D01*
X34825Y-28238D01*
X34987Y-28076D01*
X35075Y-27865D01*
X35075Y-27636D01*
X34988Y-27425D01*
X34826Y-27263D01*
X34795Y-27250D01*
X34825Y-27238D01*
X34987Y-27076D01*
X35075Y-26865D01*
X35075Y-26636D01*
X34988Y-26425D01*
X34826Y-26263D01*
X34795Y-26250D01*
X34825Y-26238D01*
X34987Y-26076D01*
X35075Y-25865D01*
X35075Y-25636D01*
X34988Y-25425D01*
X34826Y-25263D01*
X34795Y-25250D01*
X34825Y-25238D01*
X34987Y-25076D01*
X35075Y-24865D01*
X35075Y-24636D01*
X34988Y-24425D01*
X34826Y-24263D01*
X34795Y-24250D01*
X34825Y-24238D01*
X34987Y-24076D01*
X35075Y-23865D01*
X35075Y-23636D01*
X34988Y-23425D01*
X34826Y-23263D01*
X34795Y-23250D01*
X34825Y-23238D01*
X34987Y-23076D01*
X35075Y-22865D01*
X35075Y-22636D01*
X34988Y-22425D01*
X34826Y-22263D01*
X34795Y-22250D01*
X34825Y-22238D01*
X34987Y-22076D01*
X35075Y-21865D01*
X35075Y-21636D01*
X34988Y-21425D01*
X34826Y-21263D01*
X34795Y-21250D01*
X34825Y-21238D01*
X34987Y-21076D01*
X35075Y-20865D01*
X35075Y-20636D01*
X34988Y-20425D01*
X34826Y-20263D01*
X34795Y-20250D01*
X34825Y-20238D01*
X34987Y-20076D01*
X35075Y-19865D01*
X35075Y-19636D01*
X34988Y-19425D01*
X34826Y-19263D01*
X34795Y-19250D01*
X34825Y-19238D01*
X34987Y-19076D01*
X35075Y-18865D01*
X35075Y-18636D01*
X34988Y-18425D01*
X34826Y-18263D01*
X34795Y-18250D01*
X34825Y-18238D01*
X34987Y-18076D01*
X35075Y-17865D01*
X35075Y-17636D01*
X34988Y-17425D01*
X34826Y-17263D01*
X34795Y-17250D01*
X34825Y-17238D01*
X34987Y-17076D01*
X35075Y-16865D01*
X35075Y-16636D01*
X34988Y-16425D01*
X34826Y-16263D01*
X34795Y-16250D01*
X34825Y-16238D01*
X34987Y-16076D01*
X35075Y-15865D01*
X35075Y-15636D01*
X34988Y-15425D01*
X34826Y-15263D01*
X34795Y-15250D01*
X34825Y-15238D01*
X34987Y-15076D01*
X35075Y-14865D01*
X35075Y-14636D01*
X34988Y-14425D01*
X34826Y-14263D01*
X34795Y-14250D01*
X34825Y-14238D01*
X34987Y-14076D01*
X35075Y-13865D01*
X35075Y-13636D01*
X34988Y-13425D01*
X34826Y-13263D01*
X34795Y-13250D01*
X34825Y-13238D01*
X34987Y-13076D01*
X35075Y-12865D01*
X35075Y-12636D01*
X34988Y-12425D01*
X34826Y-12263D01*
X34795Y-12250D01*
X34825Y-12238D01*
X34987Y-12076D01*
X35075Y-11865D01*
X35075Y-11636D01*
X34988Y-11425D01*
X34826Y-11263D01*
X34795Y-11250D01*
X34825Y-11238D01*
X34987Y-11076D01*
X35075Y-10865D01*
X35075Y-10636D01*
X35068Y-10619D01*
X35068Y-09834D01*
X35056Y-09611D01*
X34992Y-09454D01*
X34896Y-09425D01*
X34825Y-09496D01*
X34825Y-09354D01*
X34796Y-09258D01*
X34584Y-09182D01*
X34361Y-09194D01*
X34204Y-09258D01*
X34175Y-09354D01*
X34500Y-09679D01*
X34825Y-09354D01*
X34825Y-09496D01*
X34571Y-09750D01*
X34896Y-10075D01*
X34992Y-10046D01*
X35068Y-09834D01*
X35068Y-10619D01*
X34988Y-10425D01*
X34826Y-10263D01*
X34785Y-10246D01*
X34796Y-10242D01*
X34825Y-10146D01*
X34535Y-09856D01*
X34500Y-09821D01*
X34429Y-09750D01*
X34394Y-09715D01*
X34104Y-09425D01*
X34008Y-09454D01*
X34004Y-09464D01*
X33988Y-09425D01*
X33950Y-09387D01*
X33950Y-09150D01*
X24529Y-09150D01*
X23369Y-10309D01*
X23369Y-10024D01*
X23358Y-09820D01*
X23302Y-09683D01*
X23211Y-09660D01*
X23140Y-09731D01*
X23140Y-09589D01*
X23117Y-09498D01*
X22924Y-09431D01*
X22720Y-09442D01*
X22583Y-09498D01*
X22560Y-09589D01*
X22850Y-09879D01*
X23140Y-09589D01*
X23140Y-09731D01*
X22921Y-09950D01*
X23211Y-10240D01*
X23302Y-10217D01*
X23369Y-10024D01*
X23369Y-10309D01*
X23230Y-10448D01*
X23175Y-10426D01*
X23076Y-10426D01*
X23058Y-10426D01*
X23117Y-10402D01*
X23140Y-10311D01*
X22850Y-10021D01*
X22779Y-10092D01*
X22779Y-09950D01*
X22489Y-09660D01*
X22398Y-09683D01*
X22331Y-09876D01*
X22342Y-10080D01*
X22398Y-10217D01*
X22489Y-10240D01*
X22779Y-09950D01*
X22779Y-10092D01*
X22560Y-10311D01*
X22583Y-10402D01*
X22652Y-10426D01*
X22526Y-10426D01*
X22434Y-10464D01*
X22375Y-10522D01*
X22325Y-10501D01*
X22226Y-10501D01*
X21676Y-10501D01*
X21584Y-10539D01*
X21575Y-10548D01*
X21566Y-10539D01*
X21475Y-10501D01*
X21376Y-10501D01*
X21262Y-10500D01*
X21200Y-10562D01*
X21200Y-10825D01*
X21200Y-10875D01*
X21200Y-10975D01*
X21100Y-10975D01*
X21100Y-10875D01*
X21100Y-10562D01*
X21038Y-10500D01*
X20924Y-10501D01*
X20825Y-10501D01*
X20734Y-10539D01*
X20725Y-10548D01*
X20716Y-10539D01*
X20625Y-10501D01*
X20526Y-10501D01*
X20412Y-10500D01*
X20350Y-10562D01*
X20350Y-10875D01*
X20687Y-10875D01*
X20763Y-10875D01*
X21100Y-10875D01*
X21100Y-10975D01*
X21050Y-10975D01*
X20763Y-10975D01*
X20687Y-10975D01*
X20400Y-10975D01*
X20350Y-10975D01*
X20250Y-10975D01*
X20250Y-10875D01*
X20250Y-10825D01*
X20250Y-10562D01*
X20188Y-10500D01*
X20074Y-10501D01*
X19975Y-10501D01*
X19884Y-10539D01*
X19873Y-10549D01*
X19836Y-10459D01*
X19766Y-10389D01*
X19674Y-10351D01*
X19462Y-10350D01*
X19400Y-10412D01*
X19400Y-10900D01*
X19400Y-10950D01*
X19400Y-11050D01*
X19300Y-11050D01*
X19300Y-10950D01*
X19300Y-10900D01*
X19300Y-10412D01*
X19238Y-10350D01*
X19221Y-10350D01*
X19021Y-10150D01*
X17929Y-10150D01*
X17728Y-10351D01*
X17226Y-10351D01*
X17134Y-10389D01*
X17125Y-10398D01*
X17066Y-10339D01*
X16975Y-10301D01*
X16876Y-10301D01*
X16762Y-10300D01*
X16700Y-10362D01*
X16700Y-10625D01*
X16700Y-10675D01*
X16700Y-10775D01*
X16600Y-10775D01*
X16600Y-10675D01*
X16600Y-10362D01*
X16538Y-10300D01*
X16424Y-10301D01*
X16325Y-10301D01*
X16234Y-10339D01*
X16164Y-10409D01*
X16126Y-10501D01*
X16125Y-10613D01*
X16187Y-10675D01*
X16600Y-10675D01*
X16600Y-10775D01*
X16550Y-10775D01*
X16187Y-10775D01*
X16125Y-10837D01*
X16126Y-10949D01*
X16164Y-11041D01*
X16223Y-11100D01*
X16164Y-11159D01*
X16126Y-11250D01*
X16126Y-11349D01*
X16126Y-11699D01*
X16164Y-11791D01*
X16234Y-11861D01*
X16250Y-11867D01*
X16250Y-11951D01*
X16001Y-11951D01*
X15909Y-11989D01*
X15850Y-12048D01*
X15791Y-11989D01*
X15700Y-11951D01*
X15601Y-11951D01*
X15001Y-11951D01*
X14909Y-11989D01*
X14839Y-12059D01*
X14801Y-12150D01*
X14801Y-12249D01*
X14801Y-12849D01*
X14839Y-12941D01*
X14909Y-13011D01*
X15000Y-13049D01*
X15025Y-13049D01*
X14974Y-13100D01*
X14394Y-13100D01*
X14394Y-11756D01*
X14356Y-11664D01*
X14286Y-11594D01*
X14195Y-11556D01*
X14096Y-11556D01*
X12872Y-11556D01*
X12615Y-11556D01*
X12631Y-11540D01*
X12577Y-11486D01*
X12694Y-11410D01*
X12872Y-10980D01*
X12871Y-10514D01*
X12694Y-10090D01*
X12535Y-09986D01*
X12464Y-10057D01*
X12464Y-09915D01*
X12360Y-09756D01*
X11930Y-09578D01*
X11464Y-09579D01*
X11040Y-09756D01*
X10936Y-09915D01*
X11700Y-10679D01*
X12464Y-09915D01*
X12464Y-10057D01*
X11806Y-10715D01*
X11771Y-10750D01*
X11700Y-10821D01*
X11629Y-10750D01*
X11594Y-10715D01*
X10865Y-09986D01*
X10706Y-10090D01*
X10528Y-10520D01*
X10529Y-10986D01*
X10706Y-11410D01*
X10822Y-11486D01*
X10769Y-11540D01*
X10807Y-11578D01*
X10564Y-11579D01*
X10140Y-11756D01*
X10036Y-11915D01*
X10765Y-12644D01*
X10800Y-12679D01*
X10871Y-12750D01*
X10906Y-12785D01*
X11635Y-13514D01*
X11794Y-13410D01*
X11972Y-12980D01*
X11971Y-12514D01*
X11794Y-12090D01*
X11677Y-12013D01*
X11731Y-11960D01*
X11692Y-11921D01*
X11936Y-11921D01*
X12006Y-11891D01*
X12006Y-13744D01*
X12044Y-13836D01*
X12114Y-13906D01*
X12205Y-13944D01*
X12304Y-13944D01*
X14194Y-13944D01*
X14286Y-13906D01*
X14292Y-13900D01*
X14974Y-13900D01*
X15039Y-13965D01*
X15241Y-14049D01*
X15459Y-14049D01*
X15661Y-13965D01*
X15815Y-13811D01*
X15850Y-13726D01*
X15885Y-13811D01*
X15950Y-13876D01*
X15950Y-14134D01*
X11972Y-18112D01*
X11564Y-18520D01*
X11564Y-13585D01*
X10800Y-12821D01*
X10729Y-12892D01*
X10729Y-12750D01*
X09965Y-11986D01*
X09806Y-12090D01*
X09628Y-12520D01*
X09629Y-12986D01*
X09806Y-13410D01*
X09965Y-13514D01*
X10729Y-12750D01*
X10729Y-12892D01*
X10036Y-13585D01*
X10140Y-13744D01*
X10570Y-13922D01*
X11036Y-13921D01*
X11460Y-13744D01*
X11564Y-13585D01*
X11564Y-18520D01*
X10717Y-19367D01*
X10630Y-19497D01*
X10600Y-19650D01*
X10600Y-29550D01*
X10630Y-29703D01*
X10644Y-29725D01*
X10630Y-29747D01*
X10600Y-29900D01*
X10600Y-33800D01*
X10630Y-33953D01*
X10701Y-34060D01*
X10584Y-34060D01*
X10275Y-34187D01*
X10039Y-34423D01*
X09910Y-34732D01*
X09910Y-35066D01*
X10037Y-35375D01*
X10273Y-35611D01*
X10426Y-35675D01*
X09525Y-35675D01*
X09525Y-09350D01*
X09525Y-09300D01*
X09525Y-09075D01*
X35475Y-09075D01*
X35475Y-35675D01*
M02*
