G04 (created by PCBNEW-RS274X (2011-03-30 BZR 2932)-stable) date 28/04/2011 12:56:03 p.m.*
G01*
G70*
G90*
%MOIN*%
G04 Gerber Fmt 3.4, Leading zero omitted, Abs format*
%FSLAX34Y34*%
G04 APERTURE LIST*
%ADD10C,0.006000*%
%ADD11R,0.055000X0.010500*%
%ADD12R,0.010500X0.055000*%
%ADD13R,0.035000X0.055000*%
%ADD14R,0.055000X0.035000*%
%ADD15R,0.150000X0.080000*%
%ADD16R,0.055000X0.080000*%
G04 APERTURE END LIST*
G54D10*
G54D11*
X15541Y-13728D03*
G54D12*
X16228Y-18159D03*
G54D10*
G36*
X20384Y-17420D02*
X20934Y-17420D01*
X20934Y-17524D01*
X20384Y-17524D01*
X20384Y-17420D01*
X20384Y-17420D01*
G37*
G54D12*
X19972Y-13041D03*
G54D11*
X15541Y-13925D03*
G54D12*
X16425Y-18159D03*
G54D10*
G36*
X20384Y-17223D02*
X20934Y-17223D01*
X20934Y-17327D01*
X20384Y-17327D01*
X20384Y-17223D01*
X20384Y-17223D01*
G37*
G54D12*
X19775Y-13041D03*
G54D11*
X15541Y-14122D03*
G54D12*
X16622Y-18159D03*
G54D10*
G36*
X20384Y-17026D02*
X20934Y-17026D01*
X20934Y-17130D01*
X20384Y-17130D01*
X20384Y-17026D01*
X20384Y-17026D01*
G37*
G54D12*
X19578Y-13041D03*
G54D11*
X15541Y-14319D03*
G54D12*
X16819Y-18159D03*
G54D10*
G36*
X20384Y-16829D02*
X20934Y-16829D01*
X20934Y-16933D01*
X20384Y-16933D01*
X20384Y-16829D01*
X20384Y-16829D01*
G37*
G54D12*
X19381Y-13041D03*
G54D11*
X15541Y-14516D03*
G54D12*
X17016Y-18159D03*
G54D10*
G36*
X20384Y-16632D02*
X20934Y-16632D01*
X20934Y-16736D01*
X20384Y-16736D01*
X20384Y-16632D01*
X20384Y-16632D01*
G37*
G54D12*
X19184Y-13041D03*
G54D11*
X15541Y-14713D03*
G54D12*
X17213Y-18159D03*
G54D10*
G36*
X20384Y-16435D02*
X20934Y-16435D01*
X20934Y-16539D01*
X20384Y-16539D01*
X20384Y-16435D01*
X20384Y-16435D01*
G37*
G54D12*
X18987Y-13041D03*
G54D11*
X15541Y-14910D03*
G54D12*
X17410Y-18159D03*
G54D10*
G36*
X20384Y-16238D02*
X20934Y-16238D01*
X20934Y-16342D01*
X20384Y-16342D01*
X20384Y-16238D01*
X20384Y-16238D01*
G37*
G54D12*
X18790Y-13041D03*
G54D11*
X15541Y-15107D03*
G54D12*
X17607Y-18159D03*
G54D10*
G36*
X20384Y-16041D02*
X20934Y-16041D01*
X20934Y-16145D01*
X20384Y-16145D01*
X20384Y-16041D01*
X20384Y-16041D01*
G37*
G54D12*
X18593Y-13041D03*
G54D11*
X15541Y-15304D03*
G54D12*
X17804Y-18159D03*
G54D10*
G36*
X20384Y-15844D02*
X20934Y-15844D01*
X20934Y-15948D01*
X20384Y-15948D01*
X20384Y-15844D01*
X20384Y-15844D01*
G37*
G54D12*
X18396Y-13041D03*
G54D11*
X15541Y-15501D03*
G54D12*
X18001Y-18159D03*
G54D10*
G36*
X20384Y-15647D02*
X20934Y-15647D01*
X20934Y-15751D01*
X20384Y-15751D01*
X20384Y-15647D01*
X20384Y-15647D01*
G37*
G54D12*
X18199Y-13041D03*
G54D11*
X15541Y-15698D03*
G54D12*
X18198Y-18159D03*
G54D10*
G36*
X20384Y-15450D02*
X20934Y-15450D01*
X20934Y-15554D01*
X20384Y-15554D01*
X20384Y-15450D01*
X20384Y-15450D01*
G37*
G54D12*
X18002Y-13041D03*
G54D11*
X15541Y-15895D03*
G54D12*
X18395Y-18159D03*
G54D10*
G36*
X20384Y-15253D02*
X20934Y-15253D01*
X20934Y-15357D01*
X20384Y-15357D01*
X20384Y-15253D01*
X20384Y-15253D01*
G37*
G54D12*
X17805Y-13041D03*
G54D11*
X15541Y-16092D03*
G54D12*
X18592Y-18159D03*
G54D10*
G36*
X20384Y-15056D02*
X20934Y-15056D01*
X20934Y-15160D01*
X20384Y-15160D01*
X20384Y-15056D01*
X20384Y-15056D01*
G37*
G54D12*
X17608Y-13041D03*
G54D11*
X15541Y-16289D03*
G54D12*
X18789Y-18159D03*
G54D10*
G36*
X20384Y-14859D02*
X20934Y-14859D01*
X20934Y-14963D01*
X20384Y-14963D01*
X20384Y-14859D01*
X20384Y-14859D01*
G37*
G54D12*
X17411Y-13041D03*
G54D11*
X15541Y-16486D03*
G54D12*
X18986Y-18159D03*
G54D10*
G36*
X20384Y-14662D02*
X20934Y-14662D01*
X20934Y-14766D01*
X20384Y-14766D01*
X20384Y-14662D01*
X20384Y-14662D01*
G37*
G54D12*
X17214Y-13041D03*
G54D11*
X15541Y-16683D03*
G54D12*
X19183Y-18159D03*
G54D10*
G36*
X20384Y-14465D02*
X20934Y-14465D01*
X20934Y-14569D01*
X20384Y-14569D01*
X20384Y-14465D01*
X20384Y-14465D01*
G37*
G54D12*
X17017Y-13041D03*
G54D11*
X15541Y-16880D03*
G54D12*
X19380Y-18159D03*
G54D10*
G36*
X20384Y-14268D02*
X20934Y-14268D01*
X20934Y-14372D01*
X20384Y-14372D01*
X20384Y-14268D01*
X20384Y-14268D01*
G37*
G54D12*
X16820Y-13041D03*
G54D11*
X15541Y-17077D03*
G54D12*
X19577Y-18159D03*
G54D10*
G36*
X20384Y-14071D02*
X20934Y-14071D01*
X20934Y-14175D01*
X20384Y-14175D01*
X20384Y-14071D01*
X20384Y-14071D01*
G37*
G54D12*
X16623Y-13041D03*
G54D11*
X15541Y-17274D03*
G54D12*
X19774Y-18159D03*
G54D10*
G36*
X20384Y-13874D02*
X20934Y-13874D01*
X20934Y-13978D01*
X20384Y-13978D01*
X20384Y-13874D01*
X20384Y-13874D01*
G37*
G54D12*
X16426Y-13041D03*
G54D11*
X15541Y-17471D03*
G54D12*
X19971Y-18159D03*
G54D10*
G36*
X20384Y-13677D02*
X20934Y-13677D01*
X20934Y-13781D01*
X20384Y-13781D01*
X20384Y-13677D01*
X20384Y-13677D01*
G37*
G54D12*
X16229Y-13041D03*
G54D13*
X14325Y-08300D03*
X15075Y-08300D03*
X13625Y-15100D03*
X14375Y-15100D03*
X22575Y-17500D03*
X21825Y-17500D03*
X22575Y-14200D03*
X21825Y-14200D03*
G54D14*
X19000Y-11025D03*
X19000Y-11775D03*
X16600Y-11125D03*
X16600Y-11875D03*
X18900Y-20375D03*
X18900Y-19625D03*
X15700Y-19775D03*
X15700Y-19025D03*
G54D13*
X10575Y-20900D03*
X09825Y-20900D03*
X12625Y-20900D03*
X13375Y-20900D03*
X11225Y-15000D03*
X11975Y-15000D03*
X11225Y-17600D03*
X11975Y-17600D03*
X13675Y-08300D03*
X12925Y-08300D03*
X14925Y-21500D03*
X15675Y-21500D03*
X14925Y-22600D03*
X15675Y-22600D03*
X14925Y-24400D03*
X15675Y-24400D03*
X14925Y-25300D03*
X15675Y-25300D03*
X14925Y-23500D03*
X15675Y-23500D03*
G54D14*
X16800Y-30425D03*
X16800Y-31175D03*
G54D13*
X15875Y-31200D03*
X15125Y-31200D03*
X15875Y-30300D03*
X15125Y-30300D03*
G54D15*
X15900Y-26600D03*
G54D16*
X15900Y-29200D03*
X16800Y-29200D03*
X15000Y-29200D03*
G54D14*
X14050Y-27575D03*
X14050Y-28325D03*
G54D13*
X21025Y-18300D03*
X21775Y-18300D03*
G54D14*
X17850Y-28125D03*
X17850Y-28875D03*
X17850Y-26625D03*
X17850Y-27375D03*
M02*
