G04 (created by PCBNEW-RS274X (2011-03-30)-stable) date dom 10 abr 2011 01:24:47 ART*
G01*
G70*
G90*
%MOIN*%
G04 Gerber Fmt 3.4, Leading zero omitted, Abs format*
%FSLAX34Y34*%
G04 APERTURE LIST*
%ADD10C,0.006000*%
%ADD11R,0.055000X0.010500*%
%ADD12R,0.010500X0.055000*%
%ADD13C,0.050000*%
%ADD14R,0.035000X0.055000*%
%ADD15R,0.055000X0.035000*%
%ADD16C,0.060000*%
%ADD17R,0.060000X0.060000*%
%ADD18C,0.106300*%
%ADD19R,0.150000X0.080000*%
%ADD20R,0.055000X0.080000*%
%ADD21C,0.065000*%
%ADD22C,0.189000*%
%ADD23R,0.189000X0.189000*%
%ADD24C,0.086600*%
%ADD25C,0.035000*%
%ADD26C,0.045000*%
%ADD27C,0.031500*%
%ADD28C,0.010000*%
G04 APERTURE END LIST*
G54D10*
G54D11*
X15541Y-13728D03*
G54D12*
X16228Y-18159D03*
G54D10*
G36*
X20384Y-17420D02*
X20934Y-17420D01*
X20934Y-17524D01*
X20384Y-17524D01*
X20384Y-17420D01*
X20384Y-17420D01*
G37*
G54D12*
X19972Y-13041D03*
G54D11*
X15541Y-13925D03*
G54D12*
X16425Y-18159D03*
G54D10*
G36*
X20384Y-17223D02*
X20934Y-17223D01*
X20934Y-17327D01*
X20384Y-17327D01*
X20384Y-17223D01*
X20384Y-17223D01*
G37*
G54D12*
X19775Y-13041D03*
G54D11*
X15541Y-14122D03*
G54D12*
X16622Y-18159D03*
G54D10*
G36*
X20384Y-17026D02*
X20934Y-17026D01*
X20934Y-17130D01*
X20384Y-17130D01*
X20384Y-17026D01*
X20384Y-17026D01*
G37*
G54D12*
X19578Y-13041D03*
G54D11*
X15541Y-14319D03*
G54D12*
X16819Y-18159D03*
G54D10*
G36*
X20384Y-16829D02*
X20934Y-16829D01*
X20934Y-16933D01*
X20384Y-16933D01*
X20384Y-16829D01*
X20384Y-16829D01*
G37*
G54D12*
X19381Y-13041D03*
G54D11*
X15541Y-14516D03*
G54D12*
X17016Y-18159D03*
G54D10*
G36*
X20384Y-16632D02*
X20934Y-16632D01*
X20934Y-16736D01*
X20384Y-16736D01*
X20384Y-16632D01*
X20384Y-16632D01*
G37*
G54D12*
X19184Y-13041D03*
G54D11*
X15541Y-14713D03*
G54D12*
X17213Y-18159D03*
G54D10*
G36*
X20384Y-16435D02*
X20934Y-16435D01*
X20934Y-16539D01*
X20384Y-16539D01*
X20384Y-16435D01*
X20384Y-16435D01*
G37*
G54D12*
X18987Y-13041D03*
G54D11*
X15541Y-14910D03*
G54D12*
X17410Y-18159D03*
G54D10*
G36*
X20384Y-16238D02*
X20934Y-16238D01*
X20934Y-16342D01*
X20384Y-16342D01*
X20384Y-16238D01*
X20384Y-16238D01*
G37*
G54D12*
X18790Y-13041D03*
G54D11*
X15541Y-15107D03*
G54D12*
X17607Y-18159D03*
G54D10*
G36*
X20384Y-16041D02*
X20934Y-16041D01*
X20934Y-16145D01*
X20384Y-16145D01*
X20384Y-16041D01*
X20384Y-16041D01*
G37*
G54D12*
X18593Y-13041D03*
G54D11*
X15541Y-15304D03*
G54D12*
X17804Y-18159D03*
G54D10*
G36*
X20384Y-15844D02*
X20934Y-15844D01*
X20934Y-15948D01*
X20384Y-15948D01*
X20384Y-15844D01*
X20384Y-15844D01*
G37*
G54D12*
X18396Y-13041D03*
G54D11*
X15541Y-15501D03*
G54D12*
X18001Y-18159D03*
G54D10*
G36*
X20384Y-15647D02*
X20934Y-15647D01*
X20934Y-15751D01*
X20384Y-15751D01*
X20384Y-15647D01*
X20384Y-15647D01*
G37*
G54D12*
X18199Y-13041D03*
G54D11*
X15541Y-15698D03*
G54D12*
X18198Y-18159D03*
G54D10*
G36*
X20384Y-15450D02*
X20934Y-15450D01*
X20934Y-15554D01*
X20384Y-15554D01*
X20384Y-15450D01*
X20384Y-15450D01*
G37*
G54D12*
X18002Y-13041D03*
G54D11*
X15541Y-15895D03*
G54D12*
X18395Y-18159D03*
G54D10*
G36*
X20384Y-15253D02*
X20934Y-15253D01*
X20934Y-15357D01*
X20384Y-15357D01*
X20384Y-15253D01*
X20384Y-15253D01*
G37*
G54D12*
X17805Y-13041D03*
G54D11*
X15541Y-16092D03*
G54D12*
X18592Y-18159D03*
G54D10*
G36*
X20384Y-15056D02*
X20934Y-15056D01*
X20934Y-15160D01*
X20384Y-15160D01*
X20384Y-15056D01*
X20384Y-15056D01*
G37*
G54D12*
X17608Y-13041D03*
G54D11*
X15541Y-16289D03*
G54D12*
X18789Y-18159D03*
G54D10*
G36*
X20384Y-14859D02*
X20934Y-14859D01*
X20934Y-14963D01*
X20384Y-14963D01*
X20384Y-14859D01*
X20384Y-14859D01*
G37*
G54D12*
X17411Y-13041D03*
G54D11*
X15541Y-16486D03*
G54D12*
X18986Y-18159D03*
G54D10*
G36*
X20384Y-14662D02*
X20934Y-14662D01*
X20934Y-14766D01*
X20384Y-14766D01*
X20384Y-14662D01*
X20384Y-14662D01*
G37*
G54D12*
X17214Y-13041D03*
G54D11*
X15541Y-16683D03*
G54D12*
X19183Y-18159D03*
G54D10*
G36*
X20384Y-14465D02*
X20934Y-14465D01*
X20934Y-14569D01*
X20384Y-14569D01*
X20384Y-14465D01*
X20384Y-14465D01*
G37*
G54D12*
X17017Y-13041D03*
G54D11*
X15541Y-16880D03*
G54D12*
X19380Y-18159D03*
G54D10*
G36*
X20384Y-14268D02*
X20934Y-14268D01*
X20934Y-14372D01*
X20384Y-14372D01*
X20384Y-14268D01*
X20384Y-14268D01*
G37*
G54D12*
X16820Y-13041D03*
G54D11*
X15541Y-17077D03*
G54D12*
X19577Y-18159D03*
G54D10*
G36*
X20384Y-14071D02*
X20934Y-14071D01*
X20934Y-14175D01*
X20384Y-14175D01*
X20384Y-14071D01*
X20384Y-14071D01*
G37*
G54D12*
X16623Y-13041D03*
G54D11*
X15541Y-17274D03*
G54D12*
X19774Y-18159D03*
G54D10*
G36*
X20384Y-13874D02*
X20934Y-13874D01*
X20934Y-13978D01*
X20384Y-13978D01*
X20384Y-13874D01*
X20384Y-13874D01*
G37*
G54D12*
X16426Y-13041D03*
G54D11*
X15541Y-17471D03*
G54D12*
X19971Y-18159D03*
G54D10*
G36*
X20384Y-13677D02*
X20934Y-13677D01*
X20934Y-13781D01*
X20384Y-13781D01*
X20384Y-13677D01*
X20384Y-13677D01*
G37*
G54D12*
X16229Y-13041D03*
G54D13*
X12700Y-16800D03*
X12700Y-15800D03*
G54D14*
X14325Y-08300D03*
X15075Y-08300D03*
X13625Y-15100D03*
X14375Y-15100D03*
X22575Y-17500D03*
X21825Y-17500D03*
X22575Y-14200D03*
X21825Y-14200D03*
G54D15*
X19000Y-11025D03*
X19000Y-11775D03*
X16600Y-11125D03*
X16600Y-11875D03*
X18900Y-20375D03*
X18900Y-19625D03*
X15700Y-19775D03*
X15700Y-19025D03*
G54D14*
X10575Y-20900D03*
X09825Y-20900D03*
X12625Y-20900D03*
X13375Y-20900D03*
X11225Y-15000D03*
X11975Y-15000D03*
X11225Y-17600D03*
X11975Y-17600D03*
X13675Y-08300D03*
X12925Y-08300D03*
G54D16*
X14000Y-09216D03*
X14000Y-11184D03*
G54D17*
X09400Y-13600D03*
G54D16*
X10400Y-13600D03*
X09400Y-12600D03*
X10400Y-12600D03*
X09400Y-11600D03*
X10400Y-11600D03*
X09400Y-10600D03*
X10400Y-10600D03*
X09400Y-09600D03*
X10400Y-09600D03*
G54D14*
X14925Y-21500D03*
X15675Y-21500D03*
X14925Y-22600D03*
X15675Y-22600D03*
G54D16*
X13450Y-23900D03*
X13450Y-24900D03*
X12663Y-24900D03*
X12663Y-23900D03*
G54D18*
X11600Y-22038D03*
X11600Y-26762D03*
G54D14*
X14925Y-24400D03*
X15675Y-24400D03*
X14925Y-25300D03*
X15675Y-25300D03*
X14925Y-23500D03*
X15675Y-23500D03*
G54D15*
X16800Y-30425D03*
X16800Y-31175D03*
G54D14*
X15875Y-31200D03*
X15125Y-31200D03*
X15875Y-30300D03*
X15125Y-30300D03*
G54D19*
X15900Y-26600D03*
G54D20*
X15900Y-29200D03*
X16800Y-29200D03*
X15000Y-29200D03*
G54D21*
X27900Y-18800D03*
X26900Y-18800D03*
X27900Y-17800D03*
X26900Y-17800D03*
X27900Y-16800D03*
X26900Y-16800D03*
X26900Y-13800D03*
X27900Y-13800D03*
X26900Y-14800D03*
X27900Y-14800D03*
X26900Y-15800D03*
X27900Y-15800D03*
X27900Y-09800D03*
X26900Y-09800D03*
X27900Y-08800D03*
X26900Y-08800D03*
X26900Y-10800D03*
X27900Y-10800D03*
X26900Y-11800D03*
X27900Y-11800D03*
X26900Y-12800D03*
X27900Y-12800D03*
X27900Y-24800D03*
X26900Y-24800D03*
X27900Y-23800D03*
X26900Y-23800D03*
X27900Y-22800D03*
X26900Y-22800D03*
X26900Y-19800D03*
X27900Y-19800D03*
X26900Y-20800D03*
X27900Y-20800D03*
X26900Y-21800D03*
X27900Y-21800D03*
X27900Y-27800D03*
X26900Y-27800D03*
X27900Y-26800D03*
X26900Y-26800D03*
X27900Y-25800D03*
X26900Y-25800D03*
X26900Y-06800D03*
X27900Y-06800D03*
X26900Y-07800D03*
X27900Y-07800D03*
X26900Y-28800D03*
X27900Y-28800D03*
X26900Y-29800D03*
X27900Y-29800D03*
X26900Y-30800D03*
X27900Y-30800D03*
G54D22*
X10700Y-30700D03*
G54D23*
X13100Y-30700D03*
G54D22*
X11600Y-28700D03*
G54D17*
X22500Y-19200D03*
G54D16*
X21500Y-19200D03*
G54D15*
X14050Y-27575D03*
X14050Y-28325D03*
G54D14*
X21025Y-18300D03*
X21775Y-18300D03*
G54D17*
X19200Y-29400D03*
G54D16*
X19200Y-30400D03*
X19200Y-31400D03*
G54D24*
X10535Y-19500D03*
X12465Y-19500D03*
G54D25*
X17100Y-25700D03*
X15200Y-18400D03*
X16600Y-10500D03*
X23100Y-14300D03*
X10200Y-15000D03*
X10200Y-17600D03*
X17000Y-21700D03*
X22800Y-20300D03*
X19600Y-20300D03*
G54D26*
X15125Y-20350D03*
G54D27*
X27900Y-06800D02*
X26900Y-06800D01*
X26900Y-06800D02*
X17700Y-06800D01*
X17700Y-06800D02*
X16100Y-06800D01*
X16100Y-06800D02*
X15075Y-07825D01*
X15075Y-07825D02*
X15075Y-08300D01*
G54D28*
X16820Y-13600D02*
X16256Y-13600D01*
G54D27*
X15075Y-12419D02*
X15075Y-08300D01*
G54D28*
X16256Y-13600D02*
X15075Y-12419D01*
G54D27*
X15700Y-19025D02*
X15700Y-18900D01*
X16200Y-26600D02*
X15900Y-26600D01*
X17100Y-25700D02*
X16200Y-26600D01*
X15700Y-18900D02*
X15200Y-18400D01*
G54D28*
X16228Y-19000D02*
X16228Y-22947D01*
X16228Y-22947D02*
X15675Y-23500D01*
X21825Y-17500D02*
X21825Y-18250D01*
X21825Y-18250D02*
X21775Y-18300D01*
G54D27*
X14050Y-27575D02*
X15900Y-27575D01*
X15900Y-27575D02*
X15875Y-27550D01*
X15875Y-27550D02*
X15850Y-27550D01*
X15850Y-27550D02*
X15900Y-27550D01*
G54D28*
X18790Y-13041D02*
X18790Y-11985D01*
X18790Y-11985D02*
X19000Y-11775D01*
X18789Y-18159D02*
X18789Y-19514D01*
X18789Y-19514D02*
X18900Y-19625D01*
X20659Y-17275D02*
X21600Y-17275D01*
X21600Y-17275D02*
X21825Y-17500D01*
X20659Y-14517D02*
X21508Y-14517D01*
X21508Y-14517D02*
X21825Y-14200D01*
X16820Y-13041D02*
X16820Y-12095D01*
X16820Y-12095D02*
X16600Y-11875D01*
X15541Y-15107D02*
X14382Y-15107D01*
X14382Y-15107D02*
X14375Y-15100D01*
X16228Y-18159D02*
X16228Y-17372D01*
X16228Y-17372D02*
X18100Y-15500D01*
X18099Y-15501D02*
X18100Y-15500D01*
X16820Y-13041D02*
X16820Y-13600D01*
X16820Y-13600D02*
X16820Y-14222D01*
X16820Y-14222D02*
X18099Y-15501D01*
X18790Y-13041D02*
X18790Y-14810D01*
X18790Y-14810D02*
X18099Y-15501D01*
X20659Y-14517D02*
X19083Y-14517D01*
X19083Y-14517D02*
X18099Y-15501D01*
X20659Y-17275D02*
X19873Y-17275D01*
X19873Y-17275D02*
X18099Y-15501D01*
X18789Y-18159D02*
X18789Y-16191D01*
X18789Y-16191D02*
X18099Y-15501D01*
X15541Y-15107D02*
X16100Y-15107D01*
X16100Y-15107D02*
X17707Y-15107D01*
X17707Y-15107D02*
X18100Y-15500D01*
X18099Y-15501D02*
X18100Y-15500D01*
X15541Y-15501D02*
X15999Y-15501D01*
X16100Y-15400D02*
X16100Y-15107D01*
X15999Y-15501D02*
X16100Y-15400D01*
X16228Y-18159D02*
X16228Y-19000D01*
X15700Y-19025D02*
X16228Y-19025D01*
X16200Y-19000D02*
X16228Y-19000D01*
X16203Y-19000D02*
X16200Y-19000D01*
X16228Y-19025D02*
X16203Y-19000D01*
X14375Y-15100D02*
X14375Y-14875D01*
X09400Y-14200D02*
X09400Y-13600D01*
X09700Y-14500D02*
X09400Y-14200D01*
X10900Y-14500D02*
X09700Y-14500D01*
X11300Y-14100D02*
X10900Y-14500D01*
X12500Y-14100D02*
X11300Y-14100D01*
X13000Y-14600D02*
X12500Y-14100D01*
X14100Y-14600D02*
X13000Y-14600D01*
X14375Y-14875D02*
X14100Y-14600D01*
X15875Y-31200D02*
X15875Y-30300D01*
G54D27*
X15875Y-30300D02*
X15900Y-30275D01*
X15900Y-30275D02*
X15900Y-27550D01*
X15900Y-27550D02*
X15900Y-26600D01*
G54D28*
X15875Y-30300D02*
X15875Y-29225D01*
X15875Y-29225D02*
X15900Y-29200D01*
X19380Y-18159D02*
X19380Y-18780D01*
X27400Y-25300D02*
X27900Y-24800D01*
X25900Y-25300D02*
X27400Y-25300D01*
X19380Y-18780D02*
X25900Y-25300D01*
X19577Y-18159D02*
X19577Y-18677D01*
X25700Y-24800D02*
X26900Y-24800D01*
X19577Y-18677D02*
X25700Y-24800D01*
X19774Y-18159D02*
X19774Y-18574D01*
X27400Y-24300D02*
X27900Y-23800D01*
X25500Y-24300D02*
X27400Y-24300D01*
X19774Y-18574D02*
X25500Y-24300D01*
X19971Y-18159D02*
X19971Y-18471D01*
X25300Y-23800D02*
X26900Y-23800D01*
X19971Y-18471D02*
X25300Y-23800D01*
X20659Y-16290D02*
X22958Y-16290D01*
X26300Y-21800D02*
X26900Y-21800D01*
X23543Y-19043D02*
X26300Y-21800D01*
X23543Y-16875D02*
X23543Y-19043D01*
X22958Y-16290D02*
X23543Y-16875D01*
X20659Y-16093D02*
X23017Y-16093D01*
X27400Y-21300D02*
X27900Y-20800D01*
X26200Y-21300D02*
X27400Y-21300D01*
X23724Y-18824D02*
X26200Y-21300D01*
X23724Y-16800D02*
X23724Y-18824D01*
X23017Y-16093D02*
X23724Y-16800D01*
X20659Y-16487D02*
X22899Y-16487D01*
X27400Y-22300D02*
X27900Y-21800D01*
X26400Y-22300D02*
X27400Y-22300D01*
X23362Y-19262D02*
X26400Y-22300D01*
X23362Y-16950D02*
X23362Y-19262D01*
X22899Y-16487D02*
X23362Y-16950D01*
X20659Y-16684D02*
X22840Y-16684D01*
X26500Y-22800D02*
X26900Y-22800D01*
X23181Y-19481D02*
X26500Y-22800D01*
X23181Y-17025D02*
X23181Y-19481D01*
X22840Y-16684D02*
X23181Y-17025D01*
X16426Y-13041D02*
X16426Y-12682D01*
X17800Y-08800D02*
X26900Y-08800D01*
X15919Y-10681D02*
X17800Y-08800D01*
X15919Y-12175D02*
X15919Y-10681D01*
X16426Y-12682D02*
X15919Y-12175D01*
X20659Y-16881D02*
X22781Y-16881D01*
X27400Y-23300D02*
X27900Y-22800D01*
X26600Y-23300D02*
X27400Y-23300D01*
X23000Y-19700D02*
X26600Y-23300D01*
X23000Y-17100D02*
X23000Y-19700D01*
X22781Y-16881D02*
X23000Y-17100D01*
X16229Y-13041D02*
X16229Y-12741D01*
X27400Y-08300D02*
X27900Y-07800D01*
X26400Y-08300D02*
X27400Y-08300D01*
X26081Y-08619D02*
X26400Y-08300D01*
X17681Y-08619D02*
X26081Y-08619D01*
X15700Y-10600D02*
X17681Y-08619D01*
X15700Y-12212D02*
X15700Y-10600D01*
X16229Y-12741D02*
X15700Y-12212D01*
X19381Y-13041D02*
X19381Y-12607D01*
X27400Y-14300D02*
X27900Y-13800D01*
X26436Y-14300D02*
X27400Y-14300D01*
X24393Y-12257D02*
X26436Y-14300D01*
X19731Y-12257D02*
X24393Y-12257D01*
X19381Y-12607D02*
X19731Y-12257D01*
X19578Y-13041D02*
X19578Y-12666D01*
X26480Y-14800D02*
X26900Y-14800D01*
X24118Y-12438D02*
X26480Y-14800D01*
X19806Y-12438D02*
X24118Y-12438D01*
X19578Y-12666D02*
X19806Y-12438D01*
X19775Y-13041D02*
X19775Y-12725D01*
X27400Y-15300D02*
X27900Y-14800D01*
X26524Y-15300D02*
X27400Y-15300D01*
X23843Y-12619D02*
X26524Y-15300D01*
X19881Y-12619D02*
X23843Y-12619D01*
X19775Y-12725D02*
X19881Y-12619D01*
X19972Y-13041D02*
X19972Y-12928D01*
X26568Y-15800D02*
X26900Y-15800D01*
X23568Y-12800D02*
X26568Y-15800D01*
X20100Y-12800D02*
X23568Y-12800D01*
X19972Y-12928D02*
X20100Y-12800D01*
X17017Y-13041D02*
X17017Y-09883D01*
X27400Y-09300D02*
X27900Y-08800D01*
X26400Y-09300D02*
X27400Y-09300D01*
X26100Y-09000D02*
X26400Y-09300D01*
X17900Y-09000D02*
X26100Y-09000D01*
X17017Y-09883D02*
X17900Y-09000D01*
X17214Y-13041D02*
X17214Y-09986D01*
X26400Y-09800D02*
X26900Y-09800D01*
X25819Y-09219D02*
X26400Y-09800D01*
X17981Y-09219D02*
X25819Y-09219D01*
X17214Y-09986D02*
X17981Y-09219D01*
X18002Y-13041D02*
X18002Y-10398D01*
X26500Y-11800D02*
X26900Y-11800D01*
X24700Y-10000D02*
X26500Y-11800D01*
X18400Y-10000D02*
X24700Y-10000D01*
X18002Y-10398D02*
X18400Y-10000D01*
X18199Y-13041D02*
X18199Y-10501D01*
X27400Y-12300D02*
X27900Y-11800D01*
X26500Y-12300D02*
X27400Y-12300D01*
X24400Y-10200D02*
X26500Y-12300D01*
X18500Y-10200D02*
X24400Y-10200D01*
X18199Y-10501D02*
X18500Y-10200D01*
X18396Y-13041D02*
X18396Y-10604D01*
X26400Y-12800D02*
X26900Y-12800D01*
X24000Y-10400D02*
X26400Y-12800D01*
X18600Y-10400D02*
X24000Y-10400D01*
X18396Y-10604D02*
X18600Y-10400D01*
X17016Y-18159D02*
X17016Y-21216D01*
X27400Y-30300D02*
X27900Y-29800D01*
X26100Y-30300D02*
X27400Y-30300D01*
X17016Y-21216D02*
X26100Y-30300D01*
X17213Y-18159D02*
X17213Y-21137D01*
X25876Y-29800D02*
X26900Y-29800D01*
X17213Y-21137D02*
X25876Y-29800D01*
X17410Y-18159D02*
X17410Y-21078D01*
X27400Y-29300D02*
X27900Y-28800D01*
X25632Y-29300D02*
X27400Y-29300D01*
X17410Y-21078D02*
X25632Y-29300D01*
X17607Y-18159D02*
X17607Y-21019D01*
X25388Y-28800D02*
X26900Y-28800D01*
X17607Y-21019D02*
X25388Y-28800D01*
X17804Y-18159D02*
X17804Y-20960D01*
X27400Y-28300D02*
X27900Y-27800D01*
X25144Y-28300D02*
X27400Y-28300D01*
X17804Y-20960D02*
X25144Y-28300D01*
X18001Y-18159D02*
X18001Y-20901D01*
X24900Y-27800D02*
X26900Y-27800D01*
X18001Y-20901D02*
X24900Y-27800D01*
X18198Y-18159D02*
X18198Y-20798D01*
X27400Y-27300D02*
X27900Y-26800D01*
X24700Y-27300D02*
X27400Y-27300D01*
X18198Y-20798D02*
X24700Y-27300D01*
X18395Y-18159D02*
X18395Y-20695D01*
X24500Y-26800D02*
X26900Y-26800D01*
X18395Y-20695D02*
X24500Y-26800D01*
X18986Y-18159D02*
X18986Y-18986D01*
X27400Y-26300D02*
X27900Y-25800D01*
X26300Y-26300D02*
X27400Y-26300D01*
X18986Y-18986D02*
X26300Y-26300D01*
X19183Y-18159D02*
X19183Y-18883D01*
X26100Y-25800D02*
X26900Y-25800D01*
X19183Y-18883D02*
X26100Y-25800D01*
X17411Y-13041D02*
X17411Y-10089D01*
X27400Y-10300D02*
X27900Y-09800D01*
X26400Y-10300D02*
X27400Y-10300D01*
X25500Y-09400D02*
X26400Y-10300D01*
X18100Y-09400D02*
X25500Y-09400D01*
X17411Y-10089D02*
X18100Y-09400D01*
X17608Y-13041D02*
X17608Y-10192D01*
X26500Y-10800D02*
X26900Y-10800D01*
X25300Y-09600D02*
X26500Y-10800D01*
X18200Y-09600D02*
X25300Y-09600D01*
X17608Y-10192D02*
X18200Y-09600D01*
X17805Y-13041D02*
X17805Y-10295D01*
X27400Y-11300D02*
X27900Y-10800D01*
X26500Y-11300D02*
X27400Y-11300D01*
X25000Y-09800D02*
X26500Y-11300D01*
X18300Y-09800D02*
X25000Y-09800D01*
X17805Y-10295D02*
X18300Y-09800D01*
X20659Y-13729D02*
X20928Y-13729D01*
X27400Y-16300D02*
X27900Y-15800D01*
X26512Y-16300D02*
X27400Y-16300D01*
X23369Y-13157D02*
X26512Y-16300D01*
X21375Y-13157D02*
X23369Y-13157D01*
X20957Y-13575D02*
X21375Y-13157D01*
X20957Y-13700D02*
X20957Y-13575D01*
X20928Y-13729D02*
X20957Y-13700D01*
X20659Y-13926D02*
X21112Y-13926D01*
X26556Y-16800D02*
X26900Y-16800D01*
X23094Y-13338D02*
X26556Y-16800D01*
X21450Y-13338D02*
X23094Y-13338D01*
X21138Y-13650D02*
X21450Y-13338D01*
X21138Y-13900D02*
X21138Y-13650D01*
X21112Y-13926D02*
X21138Y-13900D01*
X20659Y-14123D02*
X21296Y-14123D01*
X27400Y-17300D02*
X27900Y-16800D01*
X26700Y-17300D02*
X27400Y-17300D01*
X22919Y-13519D02*
X26700Y-17300D01*
X21525Y-13519D02*
X22919Y-13519D01*
X21319Y-13725D02*
X21525Y-13519D01*
X21319Y-14100D02*
X21319Y-13725D01*
X21296Y-14123D02*
X21319Y-14100D01*
X20659Y-14714D02*
X23430Y-14714D01*
X26516Y-17800D02*
X26900Y-17800D01*
X23430Y-14714D02*
X26516Y-17800D01*
X20659Y-14911D02*
X23371Y-14911D01*
X27400Y-18300D02*
X27900Y-17800D01*
X25600Y-18300D02*
X27400Y-18300D01*
X24810Y-17510D02*
X25600Y-18300D01*
X24810Y-16350D02*
X24810Y-17510D01*
X23371Y-14911D02*
X24810Y-16350D01*
X20659Y-15108D02*
X23312Y-15108D01*
X25700Y-18800D02*
X26900Y-18800D01*
X24629Y-17729D02*
X25700Y-18800D01*
X24629Y-16425D02*
X24629Y-17729D01*
X23312Y-15108D02*
X24629Y-16425D01*
X20659Y-15305D02*
X23253Y-15305D01*
X27400Y-19300D02*
X27900Y-18800D01*
X25800Y-19300D02*
X27400Y-19300D01*
X24448Y-17948D02*
X25800Y-19300D01*
X24448Y-16500D02*
X24448Y-17948D01*
X23253Y-15305D02*
X24448Y-16500D01*
X20659Y-15502D02*
X23194Y-15502D01*
X25900Y-19800D02*
X26900Y-19800D01*
X24267Y-18167D02*
X25900Y-19800D01*
X24267Y-16575D02*
X24267Y-18167D01*
X23194Y-15502D02*
X24267Y-16575D01*
X20659Y-15699D02*
X23135Y-15699D01*
X27400Y-20300D02*
X27900Y-19800D01*
X26000Y-20300D02*
X27400Y-20300D01*
X24086Y-18386D02*
X26000Y-20300D01*
X24086Y-16650D02*
X24086Y-18386D01*
X23135Y-15699D02*
X24086Y-16650D01*
X20659Y-15896D02*
X23076Y-15896D01*
X26100Y-20800D02*
X26900Y-20800D01*
X23905Y-18605D02*
X26100Y-20800D01*
X23905Y-16725D02*
X23905Y-18605D01*
X23076Y-15896D02*
X23905Y-16725D01*
X19184Y-13041D02*
X19184Y-12548D01*
X26392Y-13800D02*
X26900Y-13800D01*
X24668Y-12076D02*
X26392Y-13800D01*
X19656Y-12076D02*
X24668Y-12076D01*
X19184Y-12548D02*
X19656Y-12076D01*
X18593Y-13041D02*
X18593Y-10707D01*
X27400Y-13300D02*
X27900Y-12800D01*
X26400Y-13300D02*
X27400Y-13300D01*
X23700Y-10600D02*
X26400Y-13300D01*
X18700Y-10600D02*
X23700Y-10600D01*
X18593Y-10707D02*
X18700Y-10600D01*
X26900Y-07800D02*
X27400Y-07300D01*
X14325Y-07975D02*
X14325Y-08300D01*
X16100Y-06200D02*
X14325Y-07975D01*
X28300Y-06200D02*
X16100Y-06200D01*
X28500Y-06400D02*
X28300Y-06200D01*
X28500Y-07100D02*
X28500Y-06400D01*
X28300Y-07300D02*
X28500Y-07100D01*
X28100Y-07300D02*
X28300Y-07300D01*
X27400Y-07300D02*
X28100Y-07300D01*
X14000Y-09216D02*
X14000Y-08625D01*
X14000Y-08625D02*
X14325Y-08300D01*
X14325Y-08300D02*
X13675Y-08300D01*
X15541Y-16289D02*
X10189Y-16289D01*
X13675Y-07975D02*
X13675Y-08300D01*
X13500Y-07800D02*
X13675Y-07975D01*
X09900Y-07800D02*
X13500Y-07800D01*
X08400Y-09300D02*
X09900Y-07800D01*
X08400Y-14500D02*
X08400Y-09300D01*
X10189Y-16289D02*
X08400Y-14500D01*
X18987Y-13041D02*
X18987Y-13687D01*
X19620Y-14320D02*
X19400Y-14100D01*
X19620Y-14320D02*
X20659Y-14320D01*
X18987Y-13687D02*
X19400Y-14100D01*
X27900Y-30800D02*
X26100Y-30800D01*
X26100Y-30800D02*
X17000Y-21700D01*
X27900Y-30800D02*
X26900Y-30800D01*
X16600Y-11125D02*
X16600Y-10500D01*
X22575Y-14200D02*
X23000Y-14200D01*
X23000Y-14200D02*
X23100Y-14300D01*
X12625Y-20900D02*
X12625Y-21225D01*
X12900Y-21500D02*
X14925Y-21500D01*
X12625Y-21225D02*
X12900Y-21500D01*
X14925Y-21500D02*
X14925Y-20550D01*
X14925Y-20550D02*
X15125Y-20350D01*
X16819Y-18159D02*
X16819Y-21519D01*
X16819Y-21519D02*
X17000Y-21700D01*
X16800Y-31175D02*
X16800Y-31500D01*
X15125Y-31625D02*
X15125Y-31200D01*
X15300Y-31800D02*
X15125Y-31625D01*
X16500Y-31800D02*
X15300Y-31800D01*
X16800Y-31500D02*
X16500Y-31800D01*
X10700Y-30700D02*
X13100Y-30700D01*
X13100Y-30700D02*
X13600Y-31200D01*
X13600Y-31200D02*
X15125Y-31200D01*
X22500Y-19200D02*
X22500Y-20000D01*
X22500Y-20000D02*
X22800Y-20300D01*
X22575Y-17500D02*
X22575Y-19125D01*
X22575Y-19125D02*
X22500Y-19200D01*
X15000Y-29200D02*
X14925Y-29200D01*
X14925Y-29200D02*
X14050Y-28325D01*
X19500Y-11400D02*
X19500Y-11100D01*
X19500Y-11100D02*
X19425Y-11025D01*
X19425Y-11025D02*
X19000Y-11025D01*
X18987Y-13041D02*
X18987Y-12489D01*
X19500Y-11976D02*
X19500Y-11400D01*
X18987Y-12489D02*
X19500Y-11976D01*
X18900Y-20375D02*
X19575Y-20375D01*
X19575Y-20375D02*
X19600Y-20350D01*
X19600Y-20350D02*
X19600Y-20300D01*
X20659Y-14320D02*
X21450Y-14320D01*
X21450Y-14320D02*
X21500Y-14270D01*
X21500Y-14270D02*
X21500Y-13800D01*
X21500Y-13800D02*
X21600Y-13700D01*
X21600Y-13700D02*
X22500Y-13700D01*
X22500Y-13700D02*
X22575Y-13775D01*
X22575Y-13775D02*
X22575Y-14200D01*
X20659Y-17078D02*
X22153Y-17078D01*
X22153Y-17078D02*
X22575Y-17500D01*
X16623Y-13041D02*
X16623Y-12323D01*
X16623Y-12323D02*
X16500Y-12200D01*
X16500Y-12200D02*
X16200Y-12200D01*
X16200Y-12200D02*
X16100Y-12100D01*
X16100Y-12100D02*
X16100Y-11500D01*
X16175Y-11125D02*
X16600Y-11125D01*
X16100Y-11500D02*
X16100Y-11200D01*
X16100Y-11200D02*
X16175Y-11125D01*
X10575Y-20900D02*
X11600Y-20900D01*
X11600Y-20900D02*
X12625Y-20900D01*
X15541Y-15304D02*
X14896Y-15304D01*
X13625Y-15425D02*
X13625Y-15100D01*
X13800Y-15600D02*
X13625Y-15425D01*
X14600Y-15600D02*
X13800Y-15600D01*
X14896Y-15304D02*
X14600Y-15600D01*
X12925Y-08300D02*
X12925Y-09100D01*
X12925Y-09100D02*
X12925Y-10109D01*
X15541Y-15895D02*
X14895Y-15895D01*
X14895Y-15895D02*
X14600Y-15600D01*
X13625Y-15100D02*
X13200Y-15100D01*
X11225Y-14575D02*
X11225Y-15000D01*
X11400Y-14400D02*
X11225Y-14575D01*
X12500Y-14400D02*
X11400Y-14400D01*
X13200Y-15100D02*
X12500Y-14400D01*
X16819Y-18159D02*
X16819Y-17781D01*
X18592Y-17792D02*
X18592Y-18159D01*
X18500Y-17700D02*
X18592Y-17792D01*
X16900Y-17700D02*
X17600Y-17700D01*
X17600Y-17700D02*
X18500Y-17700D01*
X16819Y-17781D02*
X16900Y-17700D01*
X09400Y-12600D02*
X09400Y-11600D01*
X09400Y-11600D02*
X08800Y-11000D01*
X08800Y-11000D02*
X08800Y-09900D01*
X08800Y-09900D02*
X09100Y-09600D01*
X09100Y-09600D02*
X09400Y-09600D01*
X09400Y-09600D02*
X09400Y-09300D01*
X12900Y-09100D02*
X12925Y-09100D01*
X09600Y-09100D02*
X12900Y-09100D01*
X09400Y-09300D02*
X09600Y-09100D01*
X12925Y-10109D02*
X14000Y-11184D01*
X11225Y-15000D02*
X10200Y-15000D01*
X10200Y-15000D02*
X09400Y-15000D01*
X09400Y-15000D02*
X08700Y-14300D01*
X08700Y-14300D02*
X08700Y-13000D01*
X08700Y-13000D02*
X09100Y-12600D01*
X09100Y-12600D02*
X09400Y-12600D01*
X12663Y-23900D02*
X12000Y-23900D01*
X12000Y-23900D02*
X11900Y-23900D01*
X07900Y-21300D02*
X07900Y-18300D01*
X07900Y-18300D02*
X08600Y-17600D01*
X08600Y-17600D02*
X10200Y-17600D01*
X10500Y-23900D02*
X07900Y-21300D01*
X11900Y-23900D02*
X10500Y-23900D01*
X10200Y-17600D02*
X11225Y-17600D01*
X15125Y-20350D02*
X15700Y-19775D01*
X15125Y-31200D02*
X15125Y-30300D01*
X15000Y-29200D02*
X15000Y-30175D01*
X15000Y-30175D02*
X15125Y-30300D01*
X14925Y-23500D02*
X14925Y-24400D01*
X14925Y-24400D02*
X13163Y-24400D01*
X13163Y-24400D02*
X12663Y-24900D01*
X13450Y-24900D02*
X14300Y-24900D01*
X14700Y-25300D02*
X14925Y-25300D01*
X14300Y-24900D02*
X14700Y-25300D01*
X16622Y-18159D02*
X16622Y-24353D01*
X16622Y-24353D02*
X15675Y-25300D01*
X16425Y-18159D02*
X16425Y-23650D01*
X16425Y-23650D02*
X15675Y-24400D01*
X15541Y-14516D02*
X14416Y-14516D01*
X09900Y-13100D02*
X10400Y-12600D01*
X09900Y-14000D02*
X09900Y-13100D01*
X10100Y-14200D02*
X09900Y-14000D01*
X10900Y-14200D02*
X10100Y-14200D01*
X11300Y-13800D02*
X10900Y-14200D01*
X12500Y-13800D02*
X11300Y-13800D01*
X13100Y-14400D02*
X12500Y-13800D01*
X14300Y-14400D02*
X13100Y-14400D01*
X14416Y-14516D02*
X14300Y-14400D01*
X15541Y-13925D02*
X14225Y-13925D01*
X10900Y-10600D02*
X10400Y-10600D01*
X14225Y-13925D02*
X10900Y-10600D01*
X15541Y-17471D02*
X14485Y-17471D01*
X12465Y-19491D02*
X12465Y-19500D01*
X14485Y-17471D02*
X12465Y-19491D01*
X13375Y-20900D02*
X13375Y-20410D01*
X13375Y-20410D02*
X12465Y-19500D01*
X10535Y-19500D02*
X10535Y-19465D01*
X14426Y-17274D02*
X15541Y-17274D01*
X12900Y-18800D02*
X14426Y-17274D01*
X11200Y-18800D02*
X12900Y-18800D01*
X10535Y-19465D02*
X11200Y-18800D01*
X09825Y-20900D02*
X09825Y-20210D01*
X09825Y-20210D02*
X10535Y-19500D01*
X15541Y-13728D02*
X14328Y-13728D01*
X09900Y-11100D02*
X10400Y-11600D01*
X09900Y-10300D02*
X09900Y-11100D01*
X10100Y-10100D02*
X09900Y-10300D01*
X10700Y-10100D02*
X10100Y-10100D01*
X14328Y-13728D02*
X10700Y-10100D01*
X15541Y-14122D02*
X13122Y-14122D01*
X12600Y-13600D02*
X10400Y-13600D01*
X13122Y-14122D02*
X12600Y-13600D01*
X15541Y-14319D02*
X15981Y-14319D01*
X10500Y-09600D02*
X10400Y-09600D01*
X14400Y-13500D02*
X10500Y-09600D01*
X15900Y-13500D02*
X14400Y-13500D01*
X16100Y-13700D02*
X15900Y-13500D01*
X16100Y-14200D02*
X16100Y-13700D01*
X15981Y-14319D02*
X16100Y-14200D01*
X15541Y-16486D02*
X13014Y-16486D01*
X11975Y-17600D02*
X11975Y-17525D01*
X13014Y-16486D02*
X12700Y-16800D01*
X11975Y-17525D02*
X12700Y-16800D01*
X12992Y-16092D02*
X12700Y-15800D01*
X11975Y-15075D02*
X12700Y-15800D01*
X15541Y-16092D02*
X12992Y-16092D01*
X11975Y-15000D02*
X11975Y-15075D01*
G54D27*
X16800Y-30425D02*
X19175Y-30425D01*
X19175Y-30425D02*
X19200Y-30400D01*
X16800Y-30425D02*
X16800Y-29200D01*
G54D28*
X15675Y-22000D02*
X13800Y-22000D01*
X13323Y-17077D02*
X15541Y-17077D01*
X12200Y-18200D02*
X13323Y-17077D01*
X08700Y-18200D02*
X12200Y-18200D01*
X08081Y-18819D02*
X08700Y-18200D01*
X08081Y-20781D02*
X08081Y-18819D01*
X10300Y-23000D02*
X08081Y-20781D01*
X12800Y-23000D02*
X10300Y-23000D01*
X13800Y-22000D02*
X12800Y-23000D01*
X15675Y-21500D02*
X15675Y-22000D01*
X15675Y-22000D02*
X15675Y-22600D01*
G54D27*
X11600Y-28700D02*
X09500Y-28700D01*
X08900Y-29300D02*
X08900Y-31700D01*
X08900Y-31700D02*
X09400Y-32200D01*
X09400Y-32200D02*
X18400Y-32200D01*
X18400Y-32200D02*
X19200Y-31400D01*
X09500Y-28700D02*
X08900Y-29300D01*
G54D28*
X21500Y-19200D02*
X21300Y-19200D01*
X21025Y-18925D02*
X21025Y-18300D01*
X21300Y-19200D02*
X21025Y-18925D01*
X21025Y-18300D02*
X21025Y-17525D01*
X20972Y-17472D02*
X20659Y-17472D01*
X21025Y-17525D02*
X20972Y-17472D01*
X19200Y-27000D02*
X19200Y-29400D01*
X17300Y-25100D02*
X19200Y-27000D01*
X16800Y-25100D02*
X17300Y-25100D01*
X16000Y-25900D02*
X16800Y-25100D01*
X12700Y-25900D02*
X16000Y-25900D01*
X12100Y-25300D02*
X12700Y-25900D01*
X12100Y-24700D02*
X12100Y-25300D01*
X12400Y-24400D02*
X12100Y-24700D01*
X12900Y-24400D02*
X12400Y-24400D01*
X13450Y-23900D02*
X13400Y-23900D01*
X13400Y-23900D02*
X12900Y-24400D01*
X13450Y-23900D02*
X13625Y-23900D01*
X13625Y-23900D02*
X14925Y-22600D01*
G54D10*
G36*
X20050Y-17479D02*
X19979Y-17550D01*
X18627Y-17550D01*
X18577Y-17515D01*
X18500Y-17500D01*
X17600Y-17500D01*
X16900Y-17500D01*
X16823Y-17515D01*
X16771Y-17550D01*
X16150Y-17550D01*
X16150Y-17734D01*
X16146Y-17735D01*
X16091Y-17758D01*
X16049Y-17800D01*
X16027Y-17855D01*
X16027Y-17914D01*
X16026Y-18121D01*
X16063Y-18158D01*
X16150Y-18158D01*
X16150Y-18160D01*
X16063Y-18160D01*
X16026Y-18197D01*
X16027Y-18404D01*
X16027Y-18463D01*
X16049Y-18518D01*
X16091Y-18560D01*
X16146Y-18583D01*
X16150Y-18583D01*
X16150Y-19150D01*
X16124Y-19150D01*
X16125Y-19063D01*
X16125Y-18987D01*
X16124Y-18820D01*
X16101Y-18765D01*
X16059Y-18723D01*
X16004Y-18701D01*
X15945Y-18701D01*
X15738Y-18700D01*
X15701Y-18737D01*
X15701Y-19024D01*
X16088Y-19024D01*
X16125Y-18987D01*
X16125Y-19063D01*
X16088Y-19026D01*
X15751Y-19026D01*
X15701Y-19026D01*
X15699Y-19026D01*
X15699Y-19024D01*
X15699Y-18737D01*
X15662Y-18700D01*
X15455Y-18701D01*
X15396Y-18701D01*
X15341Y-18723D01*
X15299Y-18765D01*
X15276Y-18820D01*
X15275Y-18987D01*
X15312Y-19024D01*
X15699Y-19024D01*
X15699Y-19026D01*
X15649Y-19026D01*
X15312Y-19026D01*
X15275Y-19063D01*
X15275Y-19150D01*
X15021Y-19150D01*
X14850Y-18979D01*
X14850Y-18121D01*
X15221Y-17750D01*
X15921Y-17750D01*
X16150Y-17521D01*
X16150Y-14432D01*
X16241Y-14342D01*
X16241Y-14341D01*
X16285Y-14277D01*
X16299Y-14200D01*
X16300Y-14200D01*
X16300Y-13700D01*
X16299Y-13699D01*
X16285Y-13623D01*
X16241Y-13559D01*
X16241Y-13558D01*
X16232Y-13550D01*
X18750Y-13550D01*
X18750Y-13721D01*
X18821Y-13792D01*
X18822Y-13793D01*
X18846Y-13828D01*
X19259Y-14241D01*
X19478Y-14461D01*
X19479Y-14461D01*
X19511Y-14483D01*
X19514Y-14485D01*
X19579Y-14550D01*
X20050Y-14550D01*
X20050Y-17479D01*
X20050Y-17479D01*
G37*
G54D28*
X20050Y-17479D02*
X19979Y-17550D01*
X18627Y-17550D01*
X18577Y-17515D01*
X18500Y-17500D01*
X17600Y-17500D01*
X16900Y-17500D01*
X16823Y-17515D01*
X16771Y-17550D01*
X16150Y-17550D01*
X16150Y-17734D01*
X16146Y-17735D01*
X16091Y-17758D01*
X16049Y-17800D01*
X16027Y-17855D01*
X16027Y-17914D01*
X16026Y-18121D01*
X16063Y-18158D01*
X16150Y-18158D01*
X16150Y-18160D01*
X16063Y-18160D01*
X16026Y-18197D01*
X16027Y-18404D01*
X16027Y-18463D01*
X16049Y-18518D01*
X16091Y-18560D01*
X16146Y-18583D01*
X16150Y-18583D01*
X16150Y-19150D01*
X16124Y-19150D01*
X16125Y-19063D01*
X16125Y-18987D01*
X16124Y-18820D01*
X16101Y-18765D01*
X16059Y-18723D01*
X16004Y-18701D01*
X15945Y-18701D01*
X15738Y-18700D01*
X15701Y-18737D01*
X15701Y-19024D01*
X16088Y-19024D01*
X16125Y-18987D01*
X16125Y-19063D01*
X16088Y-19026D01*
X15751Y-19026D01*
X15701Y-19026D01*
X15699Y-19026D01*
X15699Y-19024D01*
X15699Y-18737D01*
X15662Y-18700D01*
X15455Y-18701D01*
X15396Y-18701D01*
X15341Y-18723D01*
X15299Y-18765D01*
X15276Y-18820D01*
X15275Y-18987D01*
X15312Y-19024D01*
X15699Y-19024D01*
X15699Y-19026D01*
X15649Y-19026D01*
X15312Y-19026D01*
X15275Y-19063D01*
X15275Y-19150D01*
X15021Y-19150D01*
X14850Y-18979D01*
X14850Y-18121D01*
X15221Y-17750D01*
X15921Y-17750D01*
X16150Y-17521D01*
X16150Y-14432D01*
X16241Y-14342D01*
X16241Y-14341D01*
X16285Y-14277D01*
X16299Y-14200D01*
X16300Y-14200D01*
X16300Y-13700D01*
X16299Y-13699D01*
X16285Y-13623D01*
X16241Y-13559D01*
X16241Y-13558D01*
X16232Y-13550D01*
X18750Y-13550D01*
X18750Y-13721D01*
X18821Y-13792D01*
X18822Y-13793D01*
X18846Y-13828D01*
X19259Y-14241D01*
X19478Y-14461D01*
X19479Y-14461D01*
X19511Y-14483D01*
X19514Y-14485D01*
X19579Y-14550D01*
X20050Y-14550D01*
X20050Y-17479D01*
G54D10*
G36*
X15673Y-13300D02*
X14482Y-13300D01*
X14443Y-13260D01*
X14443Y-11113D01*
X14382Y-10949D01*
X14363Y-10921D01*
X14292Y-10893D01*
X14291Y-10894D01*
X14291Y-10892D01*
X14263Y-10821D01*
X14104Y-10748D01*
X13929Y-10741D01*
X13765Y-10802D01*
X13737Y-10821D01*
X13709Y-10892D01*
X14000Y-11183D01*
X14291Y-10892D01*
X14291Y-10894D01*
X14001Y-11184D01*
X14292Y-11475D01*
X14363Y-11447D01*
X14436Y-11288D01*
X14443Y-11113D01*
X14443Y-13260D01*
X14291Y-13108D01*
X14291Y-11476D01*
X14000Y-11185D01*
X13999Y-11186D01*
X13999Y-11184D01*
X13708Y-10893D01*
X13637Y-10921D01*
X13564Y-11080D01*
X13557Y-11255D01*
X13618Y-11419D01*
X13637Y-11447D01*
X13708Y-11475D01*
X13999Y-11184D01*
X13999Y-11186D01*
X13709Y-11476D01*
X13737Y-11547D01*
X13896Y-11620D01*
X14071Y-11627D01*
X14235Y-11566D01*
X14263Y-11547D01*
X14291Y-11476D01*
X14291Y-13108D01*
X13250Y-12067D01*
X13250Y-08338D01*
X13213Y-08301D01*
X12926Y-08301D01*
X12926Y-08688D01*
X12963Y-08725D01*
X13130Y-08724D01*
X13185Y-08701D01*
X13227Y-08659D01*
X13249Y-08604D01*
X13249Y-08545D01*
X13250Y-08338D01*
X13250Y-12067D01*
X12924Y-11741D01*
X12924Y-08688D01*
X12924Y-08301D01*
X12637Y-08301D01*
X12600Y-08338D01*
X12601Y-08545D01*
X12601Y-08604D01*
X12623Y-08659D01*
X12665Y-08701D01*
X12720Y-08724D01*
X12887Y-08725D01*
X12924Y-08688D01*
X12924Y-11741D01*
X10849Y-09666D01*
X10849Y-09511D01*
X10781Y-09346D01*
X10655Y-09220D01*
X10490Y-09151D01*
X10311Y-09151D01*
X10146Y-09219D01*
X10020Y-09345D01*
X09951Y-09510D01*
X09951Y-09689D01*
X10019Y-09854D01*
X10070Y-09905D01*
X10023Y-09915D01*
X09958Y-09959D01*
X09843Y-10074D01*
X09843Y-09529D01*
X09782Y-09365D01*
X09763Y-09337D01*
X09692Y-09309D01*
X09691Y-09310D01*
X09691Y-09308D01*
X09663Y-09237D01*
X09504Y-09164D01*
X09329Y-09157D01*
X09165Y-09218D01*
X09137Y-09237D01*
X09109Y-09308D01*
X09400Y-09599D01*
X09691Y-09308D01*
X09691Y-09310D01*
X09401Y-09600D01*
X09692Y-09891D01*
X09763Y-09863D01*
X09836Y-09704D01*
X09843Y-09529D01*
X09843Y-10074D01*
X09759Y-10159D01*
X09715Y-10223D01*
X09705Y-10270D01*
X09691Y-10256D01*
X09691Y-09892D01*
X09400Y-09601D01*
X09399Y-09602D01*
X09399Y-09600D01*
X09108Y-09309D01*
X09037Y-09337D01*
X08964Y-09496D01*
X08957Y-09671D01*
X09018Y-09835D01*
X09037Y-09863D01*
X09108Y-09891D01*
X09399Y-09600D01*
X09399Y-09602D01*
X09109Y-09892D01*
X09137Y-09963D01*
X09296Y-10036D01*
X09471Y-10043D01*
X09635Y-09982D01*
X09663Y-09963D01*
X09691Y-09892D01*
X09691Y-10256D01*
X09655Y-10220D01*
X09490Y-10151D01*
X09311Y-10151D01*
X09146Y-10219D01*
X09020Y-10345D01*
X08951Y-10510D01*
X08951Y-10689D01*
X09019Y-10854D01*
X09145Y-10980D01*
X09310Y-11049D01*
X09489Y-11049D01*
X09654Y-10981D01*
X09700Y-10935D01*
X09700Y-11100D01*
X09715Y-11177D01*
X09759Y-11241D01*
X09973Y-11455D01*
X09951Y-11510D01*
X09951Y-11689D01*
X10019Y-11854D01*
X10145Y-11980D01*
X10310Y-12049D01*
X10489Y-12049D01*
X10654Y-11981D01*
X10780Y-11855D01*
X10849Y-11690D01*
X10849Y-11511D01*
X10781Y-11346D01*
X10655Y-11220D01*
X10490Y-11151D01*
X10311Y-11151D01*
X10255Y-11173D01*
X10100Y-11018D01*
X10100Y-10935D01*
X10145Y-10980D01*
X10310Y-11049D01*
X10489Y-11049D01*
X10654Y-10981D01*
X10780Y-10855D01*
X10803Y-10800D01*
X10817Y-10800D01*
X13939Y-13922D01*
X13204Y-13922D01*
X12741Y-13459D01*
X12677Y-13415D01*
X12600Y-13400D01*
X10803Y-13400D01*
X10781Y-13346D01*
X10655Y-13220D01*
X10490Y-13151D01*
X10311Y-13151D01*
X10146Y-13219D01*
X10100Y-13265D01*
X10100Y-13182D01*
X10255Y-13026D01*
X10310Y-13049D01*
X10489Y-13049D01*
X10654Y-12981D01*
X10780Y-12855D01*
X10849Y-12690D01*
X10849Y-12511D01*
X10781Y-12346D01*
X10655Y-12220D01*
X10490Y-12151D01*
X10311Y-12151D01*
X10146Y-12219D01*
X10020Y-12345D01*
X09951Y-12510D01*
X09951Y-12689D01*
X09973Y-12744D01*
X09843Y-12874D01*
X09843Y-12529D01*
X09843Y-11529D01*
X09782Y-11365D01*
X09763Y-11337D01*
X09692Y-11309D01*
X09691Y-11310D01*
X09691Y-11308D01*
X09663Y-11237D01*
X09504Y-11164D01*
X09329Y-11157D01*
X09165Y-11218D01*
X09137Y-11237D01*
X09109Y-11308D01*
X09400Y-11599D01*
X09691Y-11308D01*
X09691Y-11310D01*
X09401Y-11600D01*
X09692Y-11891D01*
X09763Y-11863D01*
X09836Y-11704D01*
X09843Y-11529D01*
X09843Y-12529D01*
X09782Y-12365D01*
X09763Y-12337D01*
X09692Y-12309D01*
X09691Y-12310D01*
X09691Y-12308D01*
X09691Y-11892D01*
X09400Y-11601D01*
X09399Y-11602D01*
X09399Y-11600D01*
X09108Y-11309D01*
X09037Y-11337D01*
X08964Y-11496D01*
X08957Y-11671D01*
X09018Y-11835D01*
X09037Y-11863D01*
X09108Y-11891D01*
X09399Y-11600D01*
X09399Y-11602D01*
X09109Y-11892D01*
X09137Y-11963D01*
X09296Y-12036D01*
X09471Y-12043D01*
X09635Y-11982D01*
X09663Y-11963D01*
X09691Y-11892D01*
X09691Y-12308D01*
X09663Y-12237D01*
X09504Y-12164D01*
X09329Y-12157D01*
X09165Y-12218D01*
X09137Y-12237D01*
X09109Y-12308D01*
X09400Y-12599D01*
X09691Y-12308D01*
X09691Y-12310D01*
X09401Y-12600D01*
X09692Y-12891D01*
X09763Y-12863D01*
X09836Y-12704D01*
X09843Y-12529D01*
X09843Y-12874D01*
X09759Y-12959D01*
X09715Y-13023D01*
X09700Y-13100D01*
X09700Y-13151D01*
X09691Y-13151D01*
X09691Y-12892D01*
X09400Y-12601D01*
X09399Y-12602D01*
X09399Y-12600D01*
X09108Y-12309D01*
X09037Y-12337D01*
X08964Y-12496D01*
X08957Y-12671D01*
X09018Y-12835D01*
X09037Y-12863D01*
X09108Y-12891D01*
X09399Y-12600D01*
X09399Y-12602D01*
X09109Y-12892D01*
X09137Y-12963D01*
X09296Y-13036D01*
X09471Y-13043D01*
X09635Y-12982D01*
X09663Y-12963D01*
X09691Y-12892D01*
X09691Y-13151D01*
X09670Y-13151D01*
X09070Y-13151D01*
X09015Y-13174D01*
X08973Y-13216D01*
X08951Y-13271D01*
X08951Y-13330D01*
X08951Y-13930D01*
X08974Y-13985D01*
X09016Y-14027D01*
X09071Y-14049D01*
X09130Y-14049D01*
X09200Y-14049D01*
X09200Y-14200D01*
X09215Y-14277D01*
X09259Y-14341D01*
X09558Y-14641D01*
X09559Y-14641D01*
X09623Y-14685D01*
X09700Y-14700D01*
X10900Y-14700D01*
X10900Y-14699D01*
X10901Y-14699D01*
X10901Y-14755D01*
X10900Y-14962D01*
X10937Y-14999D01*
X11224Y-14999D01*
X11224Y-14612D01*
X11187Y-14575D01*
X11106Y-14575D01*
X11382Y-14300D01*
X12418Y-14300D01*
X12859Y-14741D01*
X12923Y-14785D01*
X12924Y-14785D01*
X13000Y-14800D01*
X13301Y-14800D01*
X13301Y-14855D01*
X13300Y-15062D01*
X13337Y-15099D01*
X13574Y-15099D01*
X13624Y-15099D01*
X13626Y-15099D01*
X13676Y-15099D01*
X13913Y-15099D01*
X13950Y-15062D01*
X13949Y-14855D01*
X13949Y-14800D01*
X14017Y-14800D01*
X14051Y-14833D01*
X14051Y-14855D01*
X14051Y-15405D01*
X14074Y-15460D01*
X14116Y-15502D01*
X14171Y-15524D01*
X14230Y-15524D01*
X14580Y-15524D01*
X14635Y-15501D01*
X14677Y-15459D01*
X14699Y-15404D01*
X14699Y-15345D01*
X14699Y-15307D01*
X15116Y-15307D01*
X15116Y-15342D01*
X15116Y-15355D01*
X15117Y-15386D01*
X15123Y-15402D01*
X15117Y-15420D01*
X15117Y-15479D01*
X15117Y-15583D01*
X15123Y-15599D01*
X15117Y-15617D01*
X15117Y-15676D01*
X15117Y-15780D01*
X15123Y-15796D01*
X15117Y-15813D01*
X15116Y-15844D01*
X15116Y-15857D01*
X15116Y-15892D01*
X13950Y-15892D01*
X13950Y-15138D01*
X13913Y-15101D01*
X13626Y-15101D01*
X13626Y-15488D01*
X13663Y-15525D01*
X13830Y-15524D01*
X13885Y-15501D01*
X13927Y-15459D01*
X13949Y-15404D01*
X13949Y-15345D01*
X13950Y-15138D01*
X13950Y-15892D01*
X13624Y-15892D01*
X13624Y-15488D01*
X13624Y-15101D01*
X13337Y-15101D01*
X13300Y-15138D01*
X13301Y-15345D01*
X13301Y-15404D01*
X13323Y-15459D01*
X13365Y-15501D01*
X13420Y-15524D01*
X13587Y-15525D01*
X13624Y-15488D01*
X13624Y-15892D01*
X13093Y-15892D01*
X13099Y-15880D01*
X13099Y-15721D01*
X13038Y-15574D01*
X12926Y-15462D01*
X12780Y-15401D01*
X12621Y-15401D01*
X12594Y-15411D01*
X12299Y-15116D01*
X12299Y-14695D01*
X12276Y-14640D01*
X12234Y-14598D01*
X12179Y-14576D01*
X12120Y-14576D01*
X11770Y-14576D01*
X11715Y-14599D01*
X11673Y-14641D01*
X11651Y-14696D01*
X11651Y-14755D01*
X11651Y-15305D01*
X11674Y-15360D01*
X11716Y-15402D01*
X11771Y-15424D01*
X11830Y-15424D01*
X12041Y-15424D01*
X12311Y-15694D01*
X12301Y-15720D01*
X12301Y-15879D01*
X12362Y-16026D01*
X12425Y-16089D01*
X11550Y-16089D01*
X11550Y-15038D01*
X11550Y-14962D01*
X11549Y-14755D01*
X11549Y-14696D01*
X11527Y-14641D01*
X11485Y-14599D01*
X11430Y-14576D01*
X11263Y-14575D01*
X11226Y-14612D01*
X11226Y-14999D01*
X11513Y-14999D01*
X11550Y-14962D01*
X11550Y-15038D01*
X11513Y-15001D01*
X11226Y-15001D01*
X11226Y-15388D01*
X11263Y-15425D01*
X11430Y-15424D01*
X11485Y-15401D01*
X11527Y-15359D01*
X11549Y-15304D01*
X11549Y-15245D01*
X11550Y-15038D01*
X11550Y-16089D01*
X11224Y-16089D01*
X11224Y-15388D01*
X11224Y-15001D01*
X10937Y-15001D01*
X10900Y-15038D01*
X10901Y-15245D01*
X10901Y-15304D01*
X10923Y-15359D01*
X10965Y-15401D01*
X11020Y-15424D01*
X11187Y-15425D01*
X11224Y-15388D01*
X11224Y-16089D01*
X10271Y-16089D01*
X08600Y-14418D01*
X08600Y-09382D01*
X09982Y-08000D01*
X12601Y-08000D01*
X12601Y-08055D01*
X12600Y-08262D01*
X12637Y-08299D01*
X12874Y-08299D01*
X12924Y-08299D01*
X12926Y-08299D01*
X12976Y-08299D01*
X13213Y-08299D01*
X13250Y-08262D01*
X13249Y-08055D01*
X13249Y-08000D01*
X13351Y-08000D01*
X13351Y-08055D01*
X13351Y-08605D01*
X13374Y-08660D01*
X13416Y-08702D01*
X13471Y-08724D01*
X13530Y-08724D01*
X13800Y-08724D01*
X13800Y-08812D01*
X13746Y-08835D01*
X13620Y-08961D01*
X13551Y-09126D01*
X13551Y-09305D01*
X13619Y-09470D01*
X13745Y-09596D01*
X13910Y-09665D01*
X14089Y-09665D01*
X14254Y-09597D01*
X14380Y-09471D01*
X14449Y-09306D01*
X14449Y-09127D01*
X14381Y-08962D01*
X14255Y-08836D01*
X14200Y-08813D01*
X14200Y-08724D01*
X14530Y-08724D01*
X14585Y-08701D01*
X14627Y-08659D01*
X14649Y-08604D01*
X14649Y-08545D01*
X14649Y-07995D01*
X14630Y-07951D01*
X14770Y-07811D01*
X14768Y-07825D01*
X14768Y-07953D01*
X14751Y-07996D01*
X14751Y-08055D01*
X14751Y-08605D01*
X14768Y-08645D01*
X14768Y-12419D01*
X14791Y-12536D01*
X14858Y-12636D01*
X14958Y-12703D01*
X15075Y-12726D01*
X15095Y-12721D01*
X15673Y-13300D01*
X15673Y-13300D01*
G37*
G54D28*
X15673Y-13300D02*
X14482Y-13300D01*
X14443Y-13260D01*
X14443Y-11113D01*
X14382Y-10949D01*
X14363Y-10921D01*
X14292Y-10893D01*
X14291Y-10894D01*
X14291Y-10892D01*
X14263Y-10821D01*
X14104Y-10748D01*
X13929Y-10741D01*
X13765Y-10802D01*
X13737Y-10821D01*
X13709Y-10892D01*
X14000Y-11183D01*
X14291Y-10892D01*
X14291Y-10894D01*
X14001Y-11184D01*
X14292Y-11475D01*
X14363Y-11447D01*
X14436Y-11288D01*
X14443Y-11113D01*
X14443Y-13260D01*
X14291Y-13108D01*
X14291Y-11476D01*
X14000Y-11185D01*
X13999Y-11186D01*
X13999Y-11184D01*
X13708Y-10893D01*
X13637Y-10921D01*
X13564Y-11080D01*
X13557Y-11255D01*
X13618Y-11419D01*
X13637Y-11447D01*
X13708Y-11475D01*
X13999Y-11184D01*
X13999Y-11186D01*
X13709Y-11476D01*
X13737Y-11547D01*
X13896Y-11620D01*
X14071Y-11627D01*
X14235Y-11566D01*
X14263Y-11547D01*
X14291Y-11476D01*
X14291Y-13108D01*
X13250Y-12067D01*
X13250Y-08338D01*
X13213Y-08301D01*
X12926Y-08301D01*
X12926Y-08688D01*
X12963Y-08725D01*
X13130Y-08724D01*
X13185Y-08701D01*
X13227Y-08659D01*
X13249Y-08604D01*
X13249Y-08545D01*
X13250Y-08338D01*
X13250Y-12067D01*
X12924Y-11741D01*
X12924Y-08688D01*
X12924Y-08301D01*
X12637Y-08301D01*
X12600Y-08338D01*
X12601Y-08545D01*
X12601Y-08604D01*
X12623Y-08659D01*
X12665Y-08701D01*
X12720Y-08724D01*
X12887Y-08725D01*
X12924Y-08688D01*
X12924Y-11741D01*
X10849Y-09666D01*
X10849Y-09511D01*
X10781Y-09346D01*
X10655Y-09220D01*
X10490Y-09151D01*
X10311Y-09151D01*
X10146Y-09219D01*
X10020Y-09345D01*
X09951Y-09510D01*
X09951Y-09689D01*
X10019Y-09854D01*
X10070Y-09905D01*
X10023Y-09915D01*
X09958Y-09959D01*
X09843Y-10074D01*
X09843Y-09529D01*
X09782Y-09365D01*
X09763Y-09337D01*
X09692Y-09309D01*
X09691Y-09310D01*
X09691Y-09308D01*
X09663Y-09237D01*
X09504Y-09164D01*
X09329Y-09157D01*
X09165Y-09218D01*
X09137Y-09237D01*
X09109Y-09308D01*
X09400Y-09599D01*
X09691Y-09308D01*
X09691Y-09310D01*
X09401Y-09600D01*
X09692Y-09891D01*
X09763Y-09863D01*
X09836Y-09704D01*
X09843Y-09529D01*
X09843Y-10074D01*
X09759Y-10159D01*
X09715Y-10223D01*
X09705Y-10270D01*
X09691Y-10256D01*
X09691Y-09892D01*
X09400Y-09601D01*
X09399Y-09602D01*
X09399Y-09600D01*
X09108Y-09309D01*
X09037Y-09337D01*
X08964Y-09496D01*
X08957Y-09671D01*
X09018Y-09835D01*
X09037Y-09863D01*
X09108Y-09891D01*
X09399Y-09600D01*
X09399Y-09602D01*
X09109Y-09892D01*
X09137Y-09963D01*
X09296Y-10036D01*
X09471Y-10043D01*
X09635Y-09982D01*
X09663Y-09963D01*
X09691Y-09892D01*
X09691Y-10256D01*
X09655Y-10220D01*
X09490Y-10151D01*
X09311Y-10151D01*
X09146Y-10219D01*
X09020Y-10345D01*
X08951Y-10510D01*
X08951Y-10689D01*
X09019Y-10854D01*
X09145Y-10980D01*
X09310Y-11049D01*
X09489Y-11049D01*
X09654Y-10981D01*
X09700Y-10935D01*
X09700Y-11100D01*
X09715Y-11177D01*
X09759Y-11241D01*
X09973Y-11455D01*
X09951Y-11510D01*
X09951Y-11689D01*
X10019Y-11854D01*
X10145Y-11980D01*
X10310Y-12049D01*
X10489Y-12049D01*
X10654Y-11981D01*
X10780Y-11855D01*
X10849Y-11690D01*
X10849Y-11511D01*
X10781Y-11346D01*
X10655Y-11220D01*
X10490Y-11151D01*
X10311Y-11151D01*
X10255Y-11173D01*
X10100Y-11018D01*
X10100Y-10935D01*
X10145Y-10980D01*
X10310Y-11049D01*
X10489Y-11049D01*
X10654Y-10981D01*
X10780Y-10855D01*
X10803Y-10800D01*
X10817Y-10800D01*
X13939Y-13922D01*
X13204Y-13922D01*
X12741Y-13459D01*
X12677Y-13415D01*
X12600Y-13400D01*
X10803Y-13400D01*
X10781Y-13346D01*
X10655Y-13220D01*
X10490Y-13151D01*
X10311Y-13151D01*
X10146Y-13219D01*
X10100Y-13265D01*
X10100Y-13182D01*
X10255Y-13026D01*
X10310Y-13049D01*
X10489Y-13049D01*
X10654Y-12981D01*
X10780Y-12855D01*
X10849Y-12690D01*
X10849Y-12511D01*
X10781Y-12346D01*
X10655Y-12220D01*
X10490Y-12151D01*
X10311Y-12151D01*
X10146Y-12219D01*
X10020Y-12345D01*
X09951Y-12510D01*
X09951Y-12689D01*
X09973Y-12744D01*
X09843Y-12874D01*
X09843Y-12529D01*
X09843Y-11529D01*
X09782Y-11365D01*
X09763Y-11337D01*
X09692Y-11309D01*
X09691Y-11310D01*
X09691Y-11308D01*
X09663Y-11237D01*
X09504Y-11164D01*
X09329Y-11157D01*
X09165Y-11218D01*
X09137Y-11237D01*
X09109Y-11308D01*
X09400Y-11599D01*
X09691Y-11308D01*
X09691Y-11310D01*
X09401Y-11600D01*
X09692Y-11891D01*
X09763Y-11863D01*
X09836Y-11704D01*
X09843Y-11529D01*
X09843Y-12529D01*
X09782Y-12365D01*
X09763Y-12337D01*
X09692Y-12309D01*
X09691Y-12310D01*
X09691Y-12308D01*
X09691Y-11892D01*
X09400Y-11601D01*
X09399Y-11602D01*
X09399Y-11600D01*
X09108Y-11309D01*
X09037Y-11337D01*
X08964Y-11496D01*
X08957Y-11671D01*
X09018Y-11835D01*
X09037Y-11863D01*
X09108Y-11891D01*
X09399Y-11600D01*
X09399Y-11602D01*
X09109Y-11892D01*
X09137Y-11963D01*
X09296Y-12036D01*
X09471Y-12043D01*
X09635Y-11982D01*
X09663Y-11963D01*
X09691Y-11892D01*
X09691Y-12308D01*
X09663Y-12237D01*
X09504Y-12164D01*
X09329Y-12157D01*
X09165Y-12218D01*
X09137Y-12237D01*
X09109Y-12308D01*
X09400Y-12599D01*
X09691Y-12308D01*
X09691Y-12310D01*
X09401Y-12600D01*
X09692Y-12891D01*
X09763Y-12863D01*
X09836Y-12704D01*
X09843Y-12529D01*
X09843Y-12874D01*
X09759Y-12959D01*
X09715Y-13023D01*
X09700Y-13100D01*
X09700Y-13151D01*
X09691Y-13151D01*
X09691Y-12892D01*
X09400Y-12601D01*
X09399Y-12602D01*
X09399Y-12600D01*
X09108Y-12309D01*
X09037Y-12337D01*
X08964Y-12496D01*
X08957Y-12671D01*
X09018Y-12835D01*
X09037Y-12863D01*
X09108Y-12891D01*
X09399Y-12600D01*
X09399Y-12602D01*
X09109Y-12892D01*
X09137Y-12963D01*
X09296Y-13036D01*
X09471Y-13043D01*
X09635Y-12982D01*
X09663Y-12963D01*
X09691Y-12892D01*
X09691Y-13151D01*
X09670Y-13151D01*
X09070Y-13151D01*
X09015Y-13174D01*
X08973Y-13216D01*
X08951Y-13271D01*
X08951Y-13330D01*
X08951Y-13930D01*
X08974Y-13985D01*
X09016Y-14027D01*
X09071Y-14049D01*
X09130Y-14049D01*
X09200Y-14049D01*
X09200Y-14200D01*
X09215Y-14277D01*
X09259Y-14341D01*
X09558Y-14641D01*
X09559Y-14641D01*
X09623Y-14685D01*
X09700Y-14700D01*
X10900Y-14700D01*
X10900Y-14699D01*
X10901Y-14699D01*
X10901Y-14755D01*
X10900Y-14962D01*
X10937Y-14999D01*
X11224Y-14999D01*
X11224Y-14612D01*
X11187Y-14575D01*
X11106Y-14575D01*
X11382Y-14300D01*
X12418Y-14300D01*
X12859Y-14741D01*
X12923Y-14785D01*
X12924Y-14785D01*
X13000Y-14800D01*
X13301Y-14800D01*
X13301Y-14855D01*
X13300Y-15062D01*
X13337Y-15099D01*
X13574Y-15099D01*
X13624Y-15099D01*
X13626Y-15099D01*
X13676Y-15099D01*
X13913Y-15099D01*
X13950Y-15062D01*
X13949Y-14855D01*
X13949Y-14800D01*
X14017Y-14800D01*
X14051Y-14833D01*
X14051Y-14855D01*
X14051Y-15405D01*
X14074Y-15460D01*
X14116Y-15502D01*
X14171Y-15524D01*
X14230Y-15524D01*
X14580Y-15524D01*
X14635Y-15501D01*
X14677Y-15459D01*
X14699Y-15404D01*
X14699Y-15345D01*
X14699Y-15307D01*
X15116Y-15307D01*
X15116Y-15342D01*
X15116Y-15355D01*
X15117Y-15386D01*
X15123Y-15402D01*
X15117Y-15420D01*
X15117Y-15479D01*
X15117Y-15583D01*
X15123Y-15599D01*
X15117Y-15617D01*
X15117Y-15676D01*
X15117Y-15780D01*
X15123Y-15796D01*
X15117Y-15813D01*
X15116Y-15844D01*
X15116Y-15857D01*
X15116Y-15892D01*
X13950Y-15892D01*
X13950Y-15138D01*
X13913Y-15101D01*
X13626Y-15101D01*
X13626Y-15488D01*
X13663Y-15525D01*
X13830Y-15524D01*
X13885Y-15501D01*
X13927Y-15459D01*
X13949Y-15404D01*
X13949Y-15345D01*
X13950Y-15138D01*
X13950Y-15892D01*
X13624Y-15892D01*
X13624Y-15488D01*
X13624Y-15101D01*
X13337Y-15101D01*
X13300Y-15138D01*
X13301Y-15345D01*
X13301Y-15404D01*
X13323Y-15459D01*
X13365Y-15501D01*
X13420Y-15524D01*
X13587Y-15525D01*
X13624Y-15488D01*
X13624Y-15892D01*
X13093Y-15892D01*
X13099Y-15880D01*
X13099Y-15721D01*
X13038Y-15574D01*
X12926Y-15462D01*
X12780Y-15401D01*
X12621Y-15401D01*
X12594Y-15411D01*
X12299Y-15116D01*
X12299Y-14695D01*
X12276Y-14640D01*
X12234Y-14598D01*
X12179Y-14576D01*
X12120Y-14576D01*
X11770Y-14576D01*
X11715Y-14599D01*
X11673Y-14641D01*
X11651Y-14696D01*
X11651Y-14755D01*
X11651Y-15305D01*
X11674Y-15360D01*
X11716Y-15402D01*
X11771Y-15424D01*
X11830Y-15424D01*
X12041Y-15424D01*
X12311Y-15694D01*
X12301Y-15720D01*
X12301Y-15879D01*
X12362Y-16026D01*
X12425Y-16089D01*
X11550Y-16089D01*
X11550Y-15038D01*
X11550Y-14962D01*
X11549Y-14755D01*
X11549Y-14696D01*
X11527Y-14641D01*
X11485Y-14599D01*
X11430Y-14576D01*
X11263Y-14575D01*
X11226Y-14612D01*
X11226Y-14999D01*
X11513Y-14999D01*
X11550Y-14962D01*
X11550Y-15038D01*
X11513Y-15001D01*
X11226Y-15001D01*
X11226Y-15388D01*
X11263Y-15425D01*
X11430Y-15424D01*
X11485Y-15401D01*
X11527Y-15359D01*
X11549Y-15304D01*
X11549Y-15245D01*
X11550Y-15038D01*
X11550Y-16089D01*
X11224Y-16089D01*
X11224Y-15388D01*
X11224Y-15001D01*
X10937Y-15001D01*
X10900Y-15038D01*
X10901Y-15245D01*
X10901Y-15304D01*
X10923Y-15359D01*
X10965Y-15401D01*
X11020Y-15424D01*
X11187Y-15425D01*
X11224Y-15388D01*
X11224Y-16089D01*
X10271Y-16089D01*
X08600Y-14418D01*
X08600Y-09382D01*
X09982Y-08000D01*
X12601Y-08000D01*
X12601Y-08055D01*
X12600Y-08262D01*
X12637Y-08299D01*
X12874Y-08299D01*
X12924Y-08299D01*
X12926Y-08299D01*
X12976Y-08299D01*
X13213Y-08299D01*
X13250Y-08262D01*
X13249Y-08055D01*
X13249Y-08000D01*
X13351Y-08000D01*
X13351Y-08055D01*
X13351Y-08605D01*
X13374Y-08660D01*
X13416Y-08702D01*
X13471Y-08724D01*
X13530Y-08724D01*
X13800Y-08724D01*
X13800Y-08812D01*
X13746Y-08835D01*
X13620Y-08961D01*
X13551Y-09126D01*
X13551Y-09305D01*
X13619Y-09470D01*
X13745Y-09596D01*
X13910Y-09665D01*
X14089Y-09665D01*
X14254Y-09597D01*
X14380Y-09471D01*
X14449Y-09306D01*
X14449Y-09127D01*
X14381Y-08962D01*
X14255Y-08836D01*
X14200Y-08813D01*
X14200Y-08724D01*
X14530Y-08724D01*
X14585Y-08701D01*
X14627Y-08659D01*
X14649Y-08604D01*
X14649Y-08545D01*
X14649Y-07995D01*
X14630Y-07951D01*
X14770Y-07811D01*
X14768Y-07825D01*
X14768Y-07953D01*
X14751Y-07996D01*
X14751Y-08055D01*
X14751Y-08605D01*
X14768Y-08645D01*
X14768Y-12419D01*
X14791Y-12536D01*
X14858Y-12636D01*
X14958Y-12703D01*
X15075Y-12726D01*
X15095Y-12721D01*
X15673Y-13300D01*
G54D10*
G36*
X16028Y-22865D02*
X15999Y-22894D01*
X15999Y-22845D01*
X15999Y-22295D01*
X15976Y-22240D01*
X15934Y-22198D01*
X15879Y-22176D01*
X15875Y-22176D01*
X15875Y-22000D01*
X15875Y-21924D01*
X15880Y-21924D01*
X15935Y-21901D01*
X15977Y-21859D01*
X15999Y-21804D01*
X15999Y-21745D01*
X15999Y-21195D01*
X15976Y-21140D01*
X15934Y-21098D01*
X15879Y-21076D01*
X15820Y-21076D01*
X15699Y-21076D01*
X15699Y-20063D01*
X15699Y-19776D01*
X15699Y-19774D01*
X15699Y-19487D01*
X15662Y-19450D01*
X15455Y-19451D01*
X15396Y-19451D01*
X15341Y-19473D01*
X15299Y-19515D01*
X15276Y-19570D01*
X15275Y-19737D01*
X15312Y-19774D01*
X15699Y-19774D01*
X15699Y-19776D01*
X15312Y-19776D01*
X15275Y-19813D01*
X15276Y-19980D01*
X15299Y-20035D01*
X15341Y-20077D01*
X15396Y-20099D01*
X15455Y-20099D01*
X15662Y-20100D01*
X15699Y-20063D01*
X15699Y-21076D01*
X15470Y-21076D01*
X15415Y-21099D01*
X15373Y-21141D01*
X15351Y-21196D01*
X15351Y-21255D01*
X15351Y-21800D01*
X15249Y-21800D01*
X15249Y-21745D01*
X15250Y-21538D01*
X15250Y-21462D01*
X15249Y-21255D01*
X15249Y-21196D01*
X15227Y-21141D01*
X15185Y-21099D01*
X15130Y-21076D01*
X14963Y-21075D01*
X14926Y-21112D01*
X14926Y-21499D01*
X15213Y-21499D01*
X15250Y-21462D01*
X15250Y-21538D01*
X15213Y-21501D01*
X14976Y-21501D01*
X14926Y-21501D01*
X14924Y-21501D01*
X14924Y-21499D01*
X14924Y-21112D01*
X14887Y-21075D01*
X14720Y-21076D01*
X14665Y-21099D01*
X14623Y-21141D01*
X14601Y-21196D01*
X14601Y-21255D01*
X14600Y-21462D01*
X14637Y-21499D01*
X14924Y-21499D01*
X14924Y-21501D01*
X14874Y-21501D01*
X14637Y-21501D01*
X14600Y-21538D01*
X14601Y-21745D01*
X14601Y-21800D01*
X13800Y-21800D01*
X13723Y-21815D01*
X13658Y-21859D01*
X12950Y-22567D01*
X12950Y-20938D01*
X12950Y-20862D01*
X12949Y-20655D01*
X12949Y-20596D01*
X12927Y-20541D01*
X12885Y-20499D01*
X12830Y-20476D01*
X12663Y-20475D01*
X12626Y-20512D01*
X12626Y-20899D01*
X12913Y-20899D01*
X12950Y-20862D01*
X12950Y-20938D01*
X12913Y-20901D01*
X12626Y-20901D01*
X12626Y-21288D01*
X12663Y-21325D01*
X12830Y-21324D01*
X12885Y-21301D01*
X12927Y-21259D01*
X12949Y-21204D01*
X12949Y-21145D01*
X12950Y-20938D01*
X12950Y-22567D01*
X12717Y-22800D01*
X12624Y-22800D01*
X12624Y-21288D01*
X12624Y-20901D01*
X12624Y-20899D01*
X12624Y-20512D01*
X12587Y-20475D01*
X12420Y-20476D01*
X12365Y-20499D01*
X12323Y-20541D01*
X12301Y-20596D01*
X12301Y-20655D01*
X12300Y-20862D01*
X12337Y-20899D01*
X12624Y-20899D01*
X12624Y-20901D01*
X12337Y-20901D01*
X12300Y-20938D01*
X12301Y-21145D01*
X12301Y-21204D01*
X12323Y-21259D01*
X12365Y-21301D01*
X12420Y-21324D01*
X12587Y-21325D01*
X12624Y-21288D01*
X12624Y-22800D01*
X12281Y-22800D01*
X12281Y-22174D01*
X12281Y-21903D01*
X12177Y-21653D01*
X11986Y-21461D01*
X11736Y-21357D01*
X11465Y-21357D01*
X11215Y-21461D01*
X11023Y-21652D01*
X10919Y-21902D01*
X10919Y-22173D01*
X11023Y-22423D01*
X11214Y-22615D01*
X11464Y-22719D01*
X11735Y-22719D01*
X11985Y-22615D01*
X12177Y-22424D01*
X12281Y-22174D01*
X12281Y-22800D01*
X10900Y-22800D01*
X10900Y-20938D01*
X10900Y-20862D01*
X10899Y-20655D01*
X10899Y-20596D01*
X10877Y-20541D01*
X10835Y-20499D01*
X10780Y-20476D01*
X10613Y-20475D01*
X10576Y-20512D01*
X10576Y-20899D01*
X10863Y-20899D01*
X10900Y-20862D01*
X10900Y-20938D01*
X10863Y-20901D01*
X10576Y-20901D01*
X10576Y-21288D01*
X10613Y-21325D01*
X10780Y-21324D01*
X10835Y-21301D01*
X10877Y-21259D01*
X10899Y-21204D01*
X10899Y-21145D01*
X10900Y-20938D01*
X10900Y-22800D01*
X10574Y-22800D01*
X10574Y-21288D01*
X10574Y-20901D01*
X10574Y-20899D01*
X10574Y-20512D01*
X10537Y-20475D01*
X10370Y-20476D01*
X10315Y-20499D01*
X10273Y-20541D01*
X10251Y-20596D01*
X10251Y-20655D01*
X10250Y-20862D01*
X10287Y-20899D01*
X10574Y-20899D01*
X10574Y-20901D01*
X10287Y-20901D01*
X10250Y-20938D01*
X10251Y-21145D01*
X10251Y-21204D01*
X10273Y-21259D01*
X10315Y-21301D01*
X10370Y-21324D01*
X10537Y-21325D01*
X10574Y-21288D01*
X10574Y-22800D01*
X10382Y-22800D01*
X08281Y-20698D01*
X08281Y-18901D01*
X08782Y-18400D01*
X12200Y-18400D01*
X12200Y-18399D01*
X12276Y-18385D01*
X12277Y-18385D01*
X12341Y-18341D01*
X13405Y-17277D01*
X14141Y-17277D01*
X12818Y-18600D01*
X11200Y-18600D01*
X11123Y-18615D01*
X11058Y-18659D01*
X10756Y-18960D01*
X10652Y-18917D01*
X10420Y-18917D01*
X10206Y-19005D01*
X10041Y-19169D01*
X09952Y-19383D01*
X09952Y-19615D01*
X10006Y-19746D01*
X09684Y-20069D01*
X09640Y-20133D01*
X09625Y-20210D01*
X09625Y-20476D01*
X09620Y-20476D01*
X09565Y-20499D01*
X09523Y-20541D01*
X09501Y-20596D01*
X09501Y-20655D01*
X09501Y-21205D01*
X09524Y-21260D01*
X09566Y-21302D01*
X09621Y-21324D01*
X09680Y-21324D01*
X10030Y-21324D01*
X10085Y-21301D01*
X10127Y-21259D01*
X10149Y-21204D01*
X10149Y-21145D01*
X10149Y-20595D01*
X10126Y-20540D01*
X10084Y-20498D01*
X10029Y-20476D01*
X10025Y-20476D01*
X10025Y-20292D01*
X10288Y-20028D01*
X10418Y-20083D01*
X10650Y-20083D01*
X10864Y-19995D01*
X11029Y-19831D01*
X11118Y-19617D01*
X11118Y-19385D01*
X11053Y-19228D01*
X11282Y-19000D01*
X12148Y-19000D01*
X12136Y-19005D01*
X11971Y-19169D01*
X11882Y-19383D01*
X11882Y-19615D01*
X11970Y-19829D01*
X12134Y-19994D01*
X12348Y-20083D01*
X12580Y-20083D01*
X12711Y-20028D01*
X13161Y-20479D01*
X13115Y-20499D01*
X13073Y-20541D01*
X13051Y-20596D01*
X13051Y-20655D01*
X13051Y-21205D01*
X13074Y-21260D01*
X13116Y-21302D01*
X13171Y-21324D01*
X13230Y-21324D01*
X13580Y-21324D01*
X13635Y-21301D01*
X13677Y-21259D01*
X13699Y-21204D01*
X13699Y-21145D01*
X13699Y-20595D01*
X13676Y-20540D01*
X13634Y-20498D01*
X13579Y-20476D01*
X13575Y-20476D01*
X13575Y-20410D01*
X13574Y-20409D01*
X13560Y-20333D01*
X13516Y-20269D01*
X13516Y-20268D01*
X12994Y-19746D01*
X13048Y-19617D01*
X13048Y-19385D01*
X12991Y-19246D01*
X14567Y-17671D01*
X14958Y-17671D01*
X14650Y-17979D01*
X14650Y-19121D01*
X14879Y-19350D01*
X16028Y-19350D01*
X16028Y-19460D01*
X16004Y-19451D01*
X15945Y-19451D01*
X15738Y-19450D01*
X15701Y-19487D01*
X15701Y-19724D01*
X15701Y-19774D01*
X15701Y-19776D01*
X15701Y-19826D01*
X15701Y-20063D01*
X15738Y-20100D01*
X15945Y-20099D01*
X16004Y-20099D01*
X16028Y-20089D01*
X16028Y-22865D01*
X16028Y-22865D01*
G37*
G54D28*
X16028Y-22865D02*
X15999Y-22894D01*
X15999Y-22845D01*
X15999Y-22295D01*
X15976Y-22240D01*
X15934Y-22198D01*
X15879Y-22176D01*
X15875Y-22176D01*
X15875Y-22000D01*
X15875Y-21924D01*
X15880Y-21924D01*
X15935Y-21901D01*
X15977Y-21859D01*
X15999Y-21804D01*
X15999Y-21745D01*
X15999Y-21195D01*
X15976Y-21140D01*
X15934Y-21098D01*
X15879Y-21076D01*
X15820Y-21076D01*
X15699Y-21076D01*
X15699Y-20063D01*
X15699Y-19776D01*
X15699Y-19774D01*
X15699Y-19487D01*
X15662Y-19450D01*
X15455Y-19451D01*
X15396Y-19451D01*
X15341Y-19473D01*
X15299Y-19515D01*
X15276Y-19570D01*
X15275Y-19737D01*
X15312Y-19774D01*
X15699Y-19774D01*
X15699Y-19776D01*
X15312Y-19776D01*
X15275Y-19813D01*
X15276Y-19980D01*
X15299Y-20035D01*
X15341Y-20077D01*
X15396Y-20099D01*
X15455Y-20099D01*
X15662Y-20100D01*
X15699Y-20063D01*
X15699Y-21076D01*
X15470Y-21076D01*
X15415Y-21099D01*
X15373Y-21141D01*
X15351Y-21196D01*
X15351Y-21255D01*
X15351Y-21800D01*
X15249Y-21800D01*
X15249Y-21745D01*
X15250Y-21538D01*
X15250Y-21462D01*
X15249Y-21255D01*
X15249Y-21196D01*
X15227Y-21141D01*
X15185Y-21099D01*
X15130Y-21076D01*
X14963Y-21075D01*
X14926Y-21112D01*
X14926Y-21499D01*
X15213Y-21499D01*
X15250Y-21462D01*
X15250Y-21538D01*
X15213Y-21501D01*
X14976Y-21501D01*
X14926Y-21501D01*
X14924Y-21501D01*
X14924Y-21499D01*
X14924Y-21112D01*
X14887Y-21075D01*
X14720Y-21076D01*
X14665Y-21099D01*
X14623Y-21141D01*
X14601Y-21196D01*
X14601Y-21255D01*
X14600Y-21462D01*
X14637Y-21499D01*
X14924Y-21499D01*
X14924Y-21501D01*
X14874Y-21501D01*
X14637Y-21501D01*
X14600Y-21538D01*
X14601Y-21745D01*
X14601Y-21800D01*
X13800Y-21800D01*
X13723Y-21815D01*
X13658Y-21859D01*
X12950Y-22567D01*
X12950Y-20938D01*
X12950Y-20862D01*
X12949Y-20655D01*
X12949Y-20596D01*
X12927Y-20541D01*
X12885Y-20499D01*
X12830Y-20476D01*
X12663Y-20475D01*
X12626Y-20512D01*
X12626Y-20899D01*
X12913Y-20899D01*
X12950Y-20862D01*
X12950Y-20938D01*
X12913Y-20901D01*
X12626Y-20901D01*
X12626Y-21288D01*
X12663Y-21325D01*
X12830Y-21324D01*
X12885Y-21301D01*
X12927Y-21259D01*
X12949Y-21204D01*
X12949Y-21145D01*
X12950Y-20938D01*
X12950Y-22567D01*
X12717Y-22800D01*
X12624Y-22800D01*
X12624Y-21288D01*
X12624Y-20901D01*
X12624Y-20899D01*
X12624Y-20512D01*
X12587Y-20475D01*
X12420Y-20476D01*
X12365Y-20499D01*
X12323Y-20541D01*
X12301Y-20596D01*
X12301Y-20655D01*
X12300Y-20862D01*
X12337Y-20899D01*
X12624Y-20899D01*
X12624Y-20901D01*
X12337Y-20901D01*
X12300Y-20938D01*
X12301Y-21145D01*
X12301Y-21204D01*
X12323Y-21259D01*
X12365Y-21301D01*
X12420Y-21324D01*
X12587Y-21325D01*
X12624Y-21288D01*
X12624Y-22800D01*
X12281Y-22800D01*
X12281Y-22174D01*
X12281Y-21903D01*
X12177Y-21653D01*
X11986Y-21461D01*
X11736Y-21357D01*
X11465Y-21357D01*
X11215Y-21461D01*
X11023Y-21652D01*
X10919Y-21902D01*
X10919Y-22173D01*
X11023Y-22423D01*
X11214Y-22615D01*
X11464Y-22719D01*
X11735Y-22719D01*
X11985Y-22615D01*
X12177Y-22424D01*
X12281Y-22174D01*
X12281Y-22800D01*
X10900Y-22800D01*
X10900Y-20938D01*
X10900Y-20862D01*
X10899Y-20655D01*
X10899Y-20596D01*
X10877Y-20541D01*
X10835Y-20499D01*
X10780Y-20476D01*
X10613Y-20475D01*
X10576Y-20512D01*
X10576Y-20899D01*
X10863Y-20899D01*
X10900Y-20862D01*
X10900Y-20938D01*
X10863Y-20901D01*
X10576Y-20901D01*
X10576Y-21288D01*
X10613Y-21325D01*
X10780Y-21324D01*
X10835Y-21301D01*
X10877Y-21259D01*
X10899Y-21204D01*
X10899Y-21145D01*
X10900Y-20938D01*
X10900Y-22800D01*
X10574Y-22800D01*
X10574Y-21288D01*
X10574Y-20901D01*
X10574Y-20899D01*
X10574Y-20512D01*
X10537Y-20475D01*
X10370Y-20476D01*
X10315Y-20499D01*
X10273Y-20541D01*
X10251Y-20596D01*
X10251Y-20655D01*
X10250Y-20862D01*
X10287Y-20899D01*
X10574Y-20899D01*
X10574Y-20901D01*
X10287Y-20901D01*
X10250Y-20938D01*
X10251Y-21145D01*
X10251Y-21204D01*
X10273Y-21259D01*
X10315Y-21301D01*
X10370Y-21324D01*
X10537Y-21325D01*
X10574Y-21288D01*
X10574Y-22800D01*
X10382Y-22800D01*
X08281Y-20698D01*
X08281Y-18901D01*
X08782Y-18400D01*
X12200Y-18400D01*
X12200Y-18399D01*
X12276Y-18385D01*
X12277Y-18385D01*
X12341Y-18341D01*
X13405Y-17277D01*
X14141Y-17277D01*
X12818Y-18600D01*
X11200Y-18600D01*
X11123Y-18615D01*
X11058Y-18659D01*
X10756Y-18960D01*
X10652Y-18917D01*
X10420Y-18917D01*
X10206Y-19005D01*
X10041Y-19169D01*
X09952Y-19383D01*
X09952Y-19615D01*
X10006Y-19746D01*
X09684Y-20069D01*
X09640Y-20133D01*
X09625Y-20210D01*
X09625Y-20476D01*
X09620Y-20476D01*
X09565Y-20499D01*
X09523Y-20541D01*
X09501Y-20596D01*
X09501Y-20655D01*
X09501Y-21205D01*
X09524Y-21260D01*
X09566Y-21302D01*
X09621Y-21324D01*
X09680Y-21324D01*
X10030Y-21324D01*
X10085Y-21301D01*
X10127Y-21259D01*
X10149Y-21204D01*
X10149Y-21145D01*
X10149Y-20595D01*
X10126Y-20540D01*
X10084Y-20498D01*
X10029Y-20476D01*
X10025Y-20476D01*
X10025Y-20292D01*
X10288Y-20028D01*
X10418Y-20083D01*
X10650Y-20083D01*
X10864Y-19995D01*
X11029Y-19831D01*
X11118Y-19617D01*
X11118Y-19385D01*
X11053Y-19228D01*
X11282Y-19000D01*
X12148Y-19000D01*
X12136Y-19005D01*
X11971Y-19169D01*
X11882Y-19383D01*
X11882Y-19615D01*
X11970Y-19829D01*
X12134Y-19994D01*
X12348Y-20083D01*
X12580Y-20083D01*
X12711Y-20028D01*
X13161Y-20479D01*
X13115Y-20499D01*
X13073Y-20541D01*
X13051Y-20596D01*
X13051Y-20655D01*
X13051Y-21205D01*
X13074Y-21260D01*
X13116Y-21302D01*
X13171Y-21324D01*
X13230Y-21324D01*
X13580Y-21324D01*
X13635Y-21301D01*
X13677Y-21259D01*
X13699Y-21204D01*
X13699Y-21145D01*
X13699Y-20595D01*
X13676Y-20540D01*
X13634Y-20498D01*
X13579Y-20476D01*
X13575Y-20476D01*
X13575Y-20410D01*
X13574Y-20409D01*
X13560Y-20333D01*
X13516Y-20269D01*
X13516Y-20268D01*
X12994Y-19746D01*
X13048Y-19617D01*
X13048Y-19385D01*
X12991Y-19246D01*
X14567Y-17671D01*
X14958Y-17671D01*
X14650Y-17979D01*
X14650Y-19121D01*
X14879Y-19350D01*
X16028Y-19350D01*
X16028Y-19460D01*
X16004Y-19451D01*
X15945Y-19451D01*
X15738Y-19450D01*
X15701Y-19487D01*
X15701Y-19724D01*
X15701Y-19774D01*
X15701Y-19776D01*
X15701Y-19826D01*
X15701Y-20063D01*
X15738Y-20100D01*
X15945Y-20099D01*
X16004Y-20099D01*
X16028Y-20089D01*
X16028Y-22865D01*
G54D10*
G36*
X16817Y-11551D02*
X16599Y-11551D01*
X16599Y-11413D01*
X16599Y-11126D01*
X16599Y-11124D01*
X16599Y-10837D01*
X16562Y-10800D01*
X16355Y-10801D01*
X16296Y-10801D01*
X16241Y-10823D01*
X16199Y-10865D01*
X16176Y-10920D01*
X16175Y-11087D01*
X16212Y-11124D01*
X16599Y-11124D01*
X16599Y-11126D01*
X16212Y-11126D01*
X16175Y-11163D01*
X16176Y-11330D01*
X16199Y-11385D01*
X16241Y-11427D01*
X16296Y-11449D01*
X16355Y-11449D01*
X16562Y-11450D01*
X16599Y-11413D01*
X16599Y-11551D01*
X16295Y-11551D01*
X16240Y-11574D01*
X16198Y-11616D01*
X16176Y-11671D01*
X16176Y-11730D01*
X16176Y-12080D01*
X16199Y-12135D01*
X16241Y-12177D01*
X16296Y-12199D01*
X16355Y-12199D01*
X16620Y-12199D01*
X16620Y-12616D01*
X16612Y-12616D01*
X16611Y-12606D01*
X16611Y-12605D01*
X16567Y-12541D01*
X16119Y-12093D01*
X16119Y-10763D01*
X16817Y-10065D01*
X16817Y-10800D01*
X16638Y-10800D01*
X16601Y-10837D01*
X16601Y-11074D01*
X16601Y-11124D01*
X16601Y-11126D01*
X16601Y-11176D01*
X16601Y-11413D01*
X16638Y-11450D01*
X16817Y-11449D01*
X16817Y-11551D01*
X16817Y-11551D01*
G37*
G54D28*
X16817Y-11551D02*
X16599Y-11551D01*
X16599Y-11413D01*
X16599Y-11126D01*
X16599Y-11124D01*
X16599Y-10837D01*
X16562Y-10800D01*
X16355Y-10801D01*
X16296Y-10801D01*
X16241Y-10823D01*
X16199Y-10865D01*
X16176Y-10920D01*
X16175Y-11087D01*
X16212Y-11124D01*
X16599Y-11124D01*
X16599Y-11126D01*
X16212Y-11126D01*
X16175Y-11163D01*
X16176Y-11330D01*
X16199Y-11385D01*
X16241Y-11427D01*
X16296Y-11449D01*
X16355Y-11449D01*
X16562Y-11450D01*
X16599Y-11413D01*
X16599Y-11551D01*
X16295Y-11551D01*
X16240Y-11574D01*
X16198Y-11616D01*
X16176Y-11671D01*
X16176Y-11730D01*
X16176Y-12080D01*
X16199Y-12135D01*
X16241Y-12177D01*
X16296Y-12199D01*
X16355Y-12199D01*
X16620Y-12199D01*
X16620Y-12616D01*
X16612Y-12616D01*
X16611Y-12606D01*
X16611Y-12605D01*
X16567Y-12541D01*
X16119Y-12093D01*
X16119Y-10763D01*
X16817Y-10065D01*
X16817Y-10800D01*
X16638Y-10800D01*
X16601Y-10837D01*
X16601Y-11074D01*
X16601Y-11124D01*
X16601Y-11126D01*
X16601Y-11176D01*
X16601Y-11413D01*
X16638Y-11450D01*
X16817Y-11449D01*
X16817Y-11551D01*
G54D10*
G36*
X24699Y-11882D02*
X24668Y-11876D01*
X19656Y-11876D01*
X19579Y-11891D01*
X19514Y-11935D01*
X19425Y-12024D01*
X19425Y-11063D01*
X19388Y-11026D01*
X19001Y-11026D01*
X19001Y-11313D01*
X19038Y-11350D01*
X19245Y-11349D01*
X19304Y-11349D01*
X19359Y-11327D01*
X19401Y-11285D01*
X19424Y-11230D01*
X19425Y-11063D01*
X19425Y-12024D01*
X19043Y-12407D01*
X18999Y-12471D01*
X18990Y-12517D01*
X18990Y-12099D01*
X19305Y-12099D01*
X19360Y-12076D01*
X19402Y-12034D01*
X19424Y-11979D01*
X19424Y-11920D01*
X19424Y-11570D01*
X19401Y-11515D01*
X19359Y-11473D01*
X19304Y-11451D01*
X19245Y-11451D01*
X18793Y-11451D01*
X18793Y-11349D01*
X18962Y-11350D01*
X18999Y-11313D01*
X18999Y-11076D01*
X18999Y-11026D01*
X18999Y-11024D01*
X19001Y-11024D01*
X19051Y-11024D01*
X19388Y-11024D01*
X19425Y-10987D01*
X19424Y-10820D01*
X19415Y-10800D01*
X23617Y-10800D01*
X24699Y-11882D01*
X24699Y-11882D01*
G37*
G54D28*
X24699Y-11882D02*
X24668Y-11876D01*
X19656Y-11876D01*
X19579Y-11891D01*
X19514Y-11935D01*
X19425Y-12024D01*
X19425Y-11063D01*
X19388Y-11026D01*
X19001Y-11026D01*
X19001Y-11313D01*
X19038Y-11350D01*
X19245Y-11349D01*
X19304Y-11349D01*
X19359Y-11327D01*
X19401Y-11285D01*
X19424Y-11230D01*
X19425Y-11063D01*
X19425Y-12024D01*
X19043Y-12407D01*
X18999Y-12471D01*
X18990Y-12517D01*
X18990Y-12099D01*
X19305Y-12099D01*
X19360Y-12076D01*
X19402Y-12034D01*
X19424Y-11979D01*
X19424Y-11920D01*
X19424Y-11570D01*
X19401Y-11515D01*
X19359Y-11473D01*
X19304Y-11451D01*
X19245Y-11451D01*
X18793Y-11451D01*
X18793Y-11349D01*
X18962Y-11350D01*
X18999Y-11313D01*
X18999Y-11076D01*
X18999Y-11026D01*
X18999Y-11024D01*
X19001Y-11024D01*
X19051Y-11024D01*
X19388Y-11024D01*
X19425Y-10987D01*
X19424Y-10820D01*
X19415Y-10800D01*
X23617Y-10800D01*
X24699Y-11882D01*
G54D10*
G36*
X26528Y-26500D02*
X26498Y-26531D01*
X26469Y-26600D01*
X24582Y-26600D01*
X20250Y-22267D01*
X19325Y-21342D01*
X19325Y-20413D01*
X19325Y-20337D01*
X19324Y-20170D01*
X19301Y-20115D01*
X19259Y-20073D01*
X19204Y-20051D01*
X19145Y-20051D01*
X18938Y-20050D01*
X18901Y-20087D01*
X18901Y-20374D01*
X19288Y-20374D01*
X19325Y-20337D01*
X19325Y-20413D01*
X19288Y-20376D01*
X18901Y-20376D01*
X18901Y-20663D01*
X18938Y-20700D01*
X19145Y-20699D01*
X19204Y-20699D01*
X19259Y-20677D01*
X19301Y-20635D01*
X19324Y-20580D01*
X19325Y-20413D01*
X19325Y-21342D01*
X18681Y-20699D01*
X18862Y-20700D01*
X18899Y-20663D01*
X18899Y-20426D01*
X18899Y-20376D01*
X18899Y-20374D01*
X18899Y-20324D01*
X18899Y-20087D01*
X18862Y-20050D01*
X18655Y-20051D01*
X18596Y-20051D01*
X18595Y-20051D01*
X18595Y-19948D01*
X18596Y-19949D01*
X18655Y-19949D01*
X19205Y-19949D01*
X19260Y-19926D01*
X19302Y-19884D01*
X19324Y-19829D01*
X19324Y-19770D01*
X19324Y-19606D01*
X20250Y-20532D01*
X26158Y-26441D01*
X26159Y-26441D01*
X26223Y-26485D01*
X26300Y-26500D01*
X26528Y-26500D01*
X26528Y-26500D01*
G37*
G54D28*
X26528Y-26500D02*
X26498Y-26531D01*
X26469Y-26600D01*
X24582Y-26600D01*
X20250Y-22267D01*
X19325Y-21342D01*
X19325Y-20413D01*
X19325Y-20337D01*
X19324Y-20170D01*
X19301Y-20115D01*
X19259Y-20073D01*
X19204Y-20051D01*
X19145Y-20051D01*
X18938Y-20050D01*
X18901Y-20087D01*
X18901Y-20374D01*
X19288Y-20374D01*
X19325Y-20337D01*
X19325Y-20413D01*
X19288Y-20376D01*
X18901Y-20376D01*
X18901Y-20663D01*
X18938Y-20700D01*
X19145Y-20699D01*
X19204Y-20699D01*
X19259Y-20677D01*
X19301Y-20635D01*
X19324Y-20580D01*
X19325Y-20413D01*
X19325Y-21342D01*
X18681Y-20699D01*
X18862Y-20700D01*
X18899Y-20663D01*
X18899Y-20426D01*
X18899Y-20376D01*
X18899Y-20374D01*
X18899Y-20324D01*
X18899Y-20087D01*
X18862Y-20050D01*
X18655Y-20051D01*
X18596Y-20051D01*
X18595Y-20051D01*
X18595Y-19948D01*
X18596Y-19949D01*
X18655Y-19949D01*
X19205Y-19949D01*
X19260Y-19926D01*
X19302Y-19884D01*
X19324Y-19829D01*
X19324Y-19770D01*
X19324Y-19606D01*
X20250Y-20532D01*
X26158Y-26441D01*
X26159Y-26441D01*
X26223Y-26485D01*
X26300Y-26500D01*
X26528Y-26500D01*
G54D10*
G36*
X26540Y-23488D02*
X26498Y-23531D01*
X26469Y-23600D01*
X25382Y-23600D01*
X22499Y-20717D01*
X22499Y-19613D01*
X22499Y-19201D01*
X22499Y-19199D01*
X22499Y-18787D01*
X22462Y-18750D01*
X22170Y-18751D01*
X22115Y-18774D01*
X22073Y-18816D01*
X22051Y-18871D01*
X22051Y-18930D01*
X22050Y-19162D01*
X22087Y-19199D01*
X22499Y-19199D01*
X22499Y-19201D01*
X22087Y-19201D01*
X22050Y-19238D01*
X22051Y-19470D01*
X22051Y-19529D01*
X22073Y-19584D01*
X22115Y-19626D01*
X22170Y-19649D01*
X22462Y-19650D01*
X22499Y-19613D01*
X22499Y-20717D01*
X21431Y-19649D01*
X21589Y-19649D01*
X21754Y-19581D01*
X21880Y-19455D01*
X21949Y-19290D01*
X21949Y-19111D01*
X21881Y-18946D01*
X21755Y-18820D01*
X21590Y-18751D01*
X21411Y-18751D01*
X21246Y-18819D01*
X21225Y-18840D01*
X21225Y-18724D01*
X21230Y-18724D01*
X21285Y-18701D01*
X21327Y-18659D01*
X21349Y-18604D01*
X21349Y-18545D01*
X21349Y-17995D01*
X21326Y-17940D01*
X21284Y-17898D01*
X21229Y-17876D01*
X21225Y-17876D01*
X21225Y-17525D01*
X21224Y-17524D01*
X21215Y-17475D01*
X21501Y-17475D01*
X21501Y-17805D01*
X21524Y-17860D01*
X21548Y-17884D01*
X21515Y-17899D01*
X21473Y-17941D01*
X21451Y-17996D01*
X21451Y-18055D01*
X21451Y-18605D01*
X21474Y-18660D01*
X21516Y-18702D01*
X21571Y-18724D01*
X21630Y-18724D01*
X21980Y-18724D01*
X22035Y-18701D01*
X22077Y-18659D01*
X22099Y-18604D01*
X22099Y-18545D01*
X22099Y-17995D01*
X22076Y-17940D01*
X22051Y-17915D01*
X22085Y-17901D01*
X22127Y-17859D01*
X22149Y-17804D01*
X22149Y-17745D01*
X22149Y-17195D01*
X22126Y-17140D01*
X22084Y-17098D01*
X22041Y-17081D01*
X22358Y-17081D01*
X22315Y-17099D01*
X22273Y-17141D01*
X22251Y-17196D01*
X22251Y-17255D01*
X22250Y-17462D01*
X22287Y-17499D01*
X22524Y-17499D01*
X22574Y-17499D01*
X22576Y-17499D01*
X22576Y-17501D01*
X22576Y-17551D01*
X22576Y-17888D01*
X22613Y-17925D01*
X22780Y-17924D01*
X22800Y-17915D01*
X22800Y-18750D01*
X22574Y-18750D01*
X22574Y-17888D01*
X22574Y-17501D01*
X22287Y-17501D01*
X22250Y-17538D01*
X22251Y-17745D01*
X22251Y-17804D01*
X22273Y-17859D01*
X22315Y-17901D01*
X22370Y-17924D01*
X22537Y-17925D01*
X22574Y-17888D01*
X22574Y-18750D01*
X22538Y-18750D01*
X22501Y-18787D01*
X22501Y-19149D01*
X22501Y-19199D01*
X22501Y-19201D01*
X22501Y-19251D01*
X22501Y-19613D01*
X22538Y-19650D01*
X22800Y-19649D01*
X22800Y-19700D01*
X22815Y-19777D01*
X22859Y-19841D01*
X26458Y-23441D01*
X26459Y-23441D01*
X26491Y-23463D01*
X26523Y-23485D01*
X26524Y-23485D01*
X26540Y-23488D01*
X26540Y-23488D01*
G37*
G54D28*
X26540Y-23488D02*
X26498Y-23531D01*
X26469Y-23600D01*
X25382Y-23600D01*
X22499Y-20717D01*
X22499Y-19613D01*
X22499Y-19201D01*
X22499Y-19199D01*
X22499Y-18787D01*
X22462Y-18750D01*
X22170Y-18751D01*
X22115Y-18774D01*
X22073Y-18816D01*
X22051Y-18871D01*
X22051Y-18930D01*
X22050Y-19162D01*
X22087Y-19199D01*
X22499Y-19199D01*
X22499Y-19201D01*
X22087Y-19201D01*
X22050Y-19238D01*
X22051Y-19470D01*
X22051Y-19529D01*
X22073Y-19584D01*
X22115Y-19626D01*
X22170Y-19649D01*
X22462Y-19650D01*
X22499Y-19613D01*
X22499Y-20717D01*
X21431Y-19649D01*
X21589Y-19649D01*
X21754Y-19581D01*
X21880Y-19455D01*
X21949Y-19290D01*
X21949Y-19111D01*
X21881Y-18946D01*
X21755Y-18820D01*
X21590Y-18751D01*
X21411Y-18751D01*
X21246Y-18819D01*
X21225Y-18840D01*
X21225Y-18724D01*
X21230Y-18724D01*
X21285Y-18701D01*
X21327Y-18659D01*
X21349Y-18604D01*
X21349Y-18545D01*
X21349Y-17995D01*
X21326Y-17940D01*
X21284Y-17898D01*
X21229Y-17876D01*
X21225Y-17876D01*
X21225Y-17525D01*
X21224Y-17524D01*
X21215Y-17475D01*
X21501Y-17475D01*
X21501Y-17805D01*
X21524Y-17860D01*
X21548Y-17884D01*
X21515Y-17899D01*
X21473Y-17941D01*
X21451Y-17996D01*
X21451Y-18055D01*
X21451Y-18605D01*
X21474Y-18660D01*
X21516Y-18702D01*
X21571Y-18724D01*
X21630Y-18724D01*
X21980Y-18724D01*
X22035Y-18701D01*
X22077Y-18659D01*
X22099Y-18604D01*
X22099Y-18545D01*
X22099Y-17995D01*
X22076Y-17940D01*
X22051Y-17915D01*
X22085Y-17901D01*
X22127Y-17859D01*
X22149Y-17804D01*
X22149Y-17745D01*
X22149Y-17195D01*
X22126Y-17140D01*
X22084Y-17098D01*
X22041Y-17081D01*
X22358Y-17081D01*
X22315Y-17099D01*
X22273Y-17141D01*
X22251Y-17196D01*
X22251Y-17255D01*
X22250Y-17462D01*
X22287Y-17499D01*
X22524Y-17499D01*
X22574Y-17499D01*
X22576Y-17499D01*
X22576Y-17501D01*
X22576Y-17551D01*
X22576Y-17888D01*
X22613Y-17925D01*
X22780Y-17924D01*
X22800Y-17915D01*
X22800Y-18750D01*
X22574Y-18750D01*
X22574Y-17888D01*
X22574Y-17501D01*
X22287Y-17501D01*
X22250Y-17538D01*
X22251Y-17745D01*
X22251Y-17804D01*
X22273Y-17859D01*
X22315Y-17901D01*
X22370Y-17924D01*
X22537Y-17925D01*
X22574Y-17888D01*
X22574Y-18750D01*
X22538Y-18750D01*
X22501Y-18787D01*
X22501Y-19149D01*
X22501Y-19199D01*
X22501Y-19201D01*
X22501Y-19251D01*
X22501Y-19613D01*
X22538Y-19650D01*
X22800Y-19649D01*
X22800Y-19700D01*
X22815Y-19777D01*
X22859Y-19841D01*
X26458Y-23441D01*
X26459Y-23441D01*
X26491Y-23463D01*
X26523Y-23485D01*
X26524Y-23485D01*
X26540Y-23488D01*
G54D10*
G36*
X26575Y-17452D02*
X26513Y-17514D01*
X23571Y-14573D01*
X23507Y-14529D01*
X23430Y-14514D01*
X22895Y-14514D01*
X22899Y-14504D01*
X22899Y-14445D01*
X22900Y-14238D01*
X22900Y-14162D01*
X22899Y-13955D01*
X22899Y-13896D01*
X22877Y-13841D01*
X22835Y-13799D01*
X22780Y-13776D01*
X22613Y-13775D01*
X22576Y-13812D01*
X22576Y-14199D01*
X22863Y-14199D01*
X22900Y-14162D01*
X22900Y-14238D01*
X22863Y-14201D01*
X22626Y-14201D01*
X22576Y-14201D01*
X22574Y-14201D01*
X22574Y-14199D01*
X22574Y-13812D01*
X22537Y-13775D01*
X22370Y-13776D01*
X22315Y-13799D01*
X22273Y-13841D01*
X22251Y-13896D01*
X22251Y-13955D01*
X22250Y-14162D01*
X22287Y-14199D01*
X22574Y-14199D01*
X22574Y-14201D01*
X22524Y-14201D01*
X22287Y-14201D01*
X22250Y-14238D01*
X22251Y-14445D01*
X22251Y-14504D01*
X22255Y-14514D01*
X22145Y-14514D01*
X22149Y-14504D01*
X22149Y-14445D01*
X22149Y-13895D01*
X22126Y-13840D01*
X22084Y-13798D01*
X22029Y-13776D01*
X21970Y-13776D01*
X21620Y-13776D01*
X21565Y-13799D01*
X21523Y-13841D01*
X21519Y-13851D01*
X21519Y-13807D01*
X21607Y-13719D01*
X22836Y-13719D01*
X26558Y-17441D01*
X26559Y-17441D01*
X26575Y-17452D01*
X26575Y-17452D01*
G37*
G54D28*
X26575Y-17452D02*
X26513Y-17514D01*
X23571Y-14573D01*
X23507Y-14529D01*
X23430Y-14514D01*
X22895Y-14514D01*
X22899Y-14504D01*
X22899Y-14445D01*
X22900Y-14238D01*
X22900Y-14162D01*
X22899Y-13955D01*
X22899Y-13896D01*
X22877Y-13841D01*
X22835Y-13799D01*
X22780Y-13776D01*
X22613Y-13775D01*
X22576Y-13812D01*
X22576Y-14199D01*
X22863Y-14199D01*
X22900Y-14162D01*
X22900Y-14238D01*
X22863Y-14201D01*
X22626Y-14201D01*
X22576Y-14201D01*
X22574Y-14201D01*
X22574Y-14199D01*
X22574Y-13812D01*
X22537Y-13775D01*
X22370Y-13776D01*
X22315Y-13799D01*
X22273Y-13841D01*
X22251Y-13896D01*
X22251Y-13955D01*
X22250Y-14162D01*
X22287Y-14199D01*
X22574Y-14199D01*
X22574Y-14201D01*
X22524Y-14201D01*
X22287Y-14201D01*
X22250Y-14238D01*
X22251Y-14445D01*
X22251Y-14504D01*
X22255Y-14514D01*
X22145Y-14514D01*
X22149Y-14504D01*
X22149Y-14445D01*
X22149Y-13895D01*
X22126Y-13840D01*
X22084Y-13798D01*
X22029Y-13776D01*
X21970Y-13776D01*
X21620Y-13776D01*
X21565Y-13799D01*
X21523Y-13841D01*
X21519Y-13851D01*
X21519Y-13807D01*
X21607Y-13719D01*
X22836Y-13719D01*
X26558Y-17441D01*
X26559Y-17441D01*
X26575Y-17452D01*
G54D10*
G36*
X29150Y-32550D02*
X28700Y-32550D01*
X28700Y-07100D01*
X28700Y-06400D01*
X28699Y-06399D01*
X28685Y-06323D01*
X28641Y-06259D01*
X28641Y-06258D01*
X28441Y-06059D01*
X28377Y-06015D01*
X28300Y-06000D01*
X16100Y-06000D01*
X16023Y-06015D01*
X15958Y-06059D01*
X14184Y-07834D01*
X14155Y-07876D01*
X14120Y-07876D01*
X14065Y-07899D01*
X14023Y-07941D01*
X14001Y-07996D01*
X14001Y-08055D01*
X14001Y-08100D01*
X13999Y-08100D01*
X13999Y-07995D01*
X13976Y-07940D01*
X13934Y-07898D01*
X13879Y-07876D01*
X13845Y-07876D01*
X13816Y-07834D01*
X13816Y-07833D01*
X13641Y-07659D01*
X13577Y-07615D01*
X13500Y-07600D01*
X09900Y-07600D01*
X09823Y-07615D01*
X09758Y-07659D01*
X08259Y-09159D01*
X08215Y-09223D01*
X08200Y-09300D01*
X08200Y-14500D01*
X08215Y-14577D01*
X08259Y-14641D01*
X10048Y-16430D01*
X10112Y-16474D01*
X10113Y-16474D01*
X10189Y-16489D01*
X12447Y-16489D01*
X12362Y-16574D01*
X12301Y-16720D01*
X12301Y-16879D01*
X12311Y-16905D01*
X12041Y-17176D01*
X11770Y-17176D01*
X11715Y-17199D01*
X11673Y-17241D01*
X11651Y-17296D01*
X11651Y-17355D01*
X11651Y-17905D01*
X11674Y-17960D01*
X11714Y-18000D01*
X11486Y-18000D01*
X11527Y-17959D01*
X11549Y-17904D01*
X11549Y-17845D01*
X11550Y-17638D01*
X11550Y-17562D01*
X11549Y-17355D01*
X11549Y-17296D01*
X11527Y-17241D01*
X11485Y-17199D01*
X11430Y-17176D01*
X11263Y-17175D01*
X11226Y-17212D01*
X11226Y-17599D01*
X11513Y-17599D01*
X11550Y-17562D01*
X11550Y-17638D01*
X11513Y-17601D01*
X11276Y-17601D01*
X11226Y-17601D01*
X11224Y-17601D01*
X11224Y-17599D01*
X11224Y-17212D01*
X11187Y-17175D01*
X11020Y-17176D01*
X10965Y-17199D01*
X10923Y-17241D01*
X10901Y-17296D01*
X10901Y-17355D01*
X10900Y-17562D01*
X10937Y-17599D01*
X11224Y-17599D01*
X11224Y-17601D01*
X11174Y-17601D01*
X10937Y-17601D01*
X10900Y-17638D01*
X10901Y-17845D01*
X10901Y-17904D01*
X10923Y-17959D01*
X10964Y-18000D01*
X08700Y-18000D01*
X08623Y-18015D01*
X08558Y-18059D01*
X07940Y-18678D01*
X07896Y-18742D01*
X07881Y-18819D01*
X07881Y-20781D01*
X07896Y-20858D01*
X07940Y-20922D01*
X10158Y-23141D01*
X10159Y-23141D01*
X10191Y-23163D01*
X10223Y-23185D01*
X10224Y-23185D01*
X10300Y-23200D01*
X12800Y-23200D01*
X12800Y-23199D01*
X12876Y-23185D01*
X12877Y-23185D01*
X12941Y-23141D01*
X13882Y-22200D01*
X14664Y-22200D01*
X14623Y-22241D01*
X14601Y-22296D01*
X14601Y-22355D01*
X14601Y-22641D01*
X13713Y-23528D01*
X13705Y-23520D01*
X13540Y-23451D01*
X13361Y-23451D01*
X13196Y-23519D01*
X13070Y-23645D01*
X13052Y-23686D01*
X13045Y-23665D01*
X13026Y-23637D01*
X12955Y-23609D01*
X12954Y-23610D01*
X12954Y-23608D01*
X12926Y-23537D01*
X12767Y-23464D01*
X12592Y-23457D01*
X12428Y-23518D01*
X12400Y-23537D01*
X12372Y-23608D01*
X12663Y-23899D01*
X12954Y-23608D01*
X12954Y-23610D01*
X12664Y-23900D01*
X12663Y-23901D01*
X12662Y-23901D01*
X12661Y-23900D01*
X12662Y-23900D01*
X12371Y-23609D01*
X12300Y-23637D01*
X12227Y-23796D01*
X12220Y-23971D01*
X12281Y-24135D01*
X12300Y-24163D01*
X12320Y-24170D01*
X12304Y-24187D01*
X12330Y-24213D01*
X12323Y-24215D01*
X12258Y-24259D01*
X11959Y-24559D01*
X11915Y-24623D01*
X11900Y-24700D01*
X11900Y-25300D01*
X11915Y-25377D01*
X11959Y-25441D01*
X12558Y-26041D01*
X12559Y-26041D01*
X12623Y-26085D01*
X12700Y-26100D01*
X15039Y-26100D01*
X15023Y-26116D01*
X15001Y-26171D01*
X15001Y-26230D01*
X15001Y-27030D01*
X15024Y-27085D01*
X15066Y-27127D01*
X15121Y-27149D01*
X15180Y-27149D01*
X15593Y-27149D01*
X15593Y-27268D01*
X14396Y-27268D01*
X14354Y-27251D01*
X14295Y-27251D01*
X13745Y-27251D01*
X13690Y-27274D01*
X13648Y-27316D01*
X13626Y-27371D01*
X13626Y-27430D01*
X13626Y-27780D01*
X13649Y-27835D01*
X13691Y-27877D01*
X13746Y-27899D01*
X13805Y-27899D01*
X14355Y-27899D01*
X14395Y-27882D01*
X15593Y-27882D01*
X15593Y-28651D01*
X15540Y-28674D01*
X15498Y-28716D01*
X15476Y-28771D01*
X15476Y-28830D01*
X15476Y-29630D01*
X15499Y-29685D01*
X15541Y-29727D01*
X15593Y-29747D01*
X15593Y-29921D01*
X15573Y-29941D01*
X15551Y-29996D01*
X15551Y-30055D01*
X15551Y-30605D01*
X15574Y-30660D01*
X15616Y-30702D01*
X15671Y-30724D01*
X15675Y-30724D01*
X15675Y-30776D01*
X15670Y-30776D01*
X15615Y-30799D01*
X15573Y-30841D01*
X15551Y-30896D01*
X15551Y-30955D01*
X15551Y-31505D01*
X15574Y-31560D01*
X15616Y-31602D01*
X15671Y-31624D01*
X15730Y-31624D01*
X16080Y-31624D01*
X16135Y-31601D01*
X16177Y-31559D01*
X16199Y-31504D01*
X16199Y-31445D01*
X16199Y-30895D01*
X16176Y-30840D01*
X16134Y-30798D01*
X16079Y-30776D01*
X16075Y-30776D01*
X16075Y-30724D01*
X16080Y-30724D01*
X16135Y-30701D01*
X16177Y-30659D01*
X16199Y-30604D01*
X16199Y-30545D01*
X16199Y-30315D01*
X16199Y-30314D01*
X16207Y-30275D01*
X16207Y-29748D01*
X16260Y-29726D01*
X16302Y-29684D01*
X16324Y-29629D01*
X16324Y-29570D01*
X16324Y-28770D01*
X16301Y-28715D01*
X16259Y-28673D01*
X16207Y-28652D01*
X16207Y-27575D01*
X16207Y-27550D01*
X16207Y-27149D01*
X16680Y-27149D01*
X16735Y-27126D01*
X16777Y-27084D01*
X16799Y-27029D01*
X16799Y-26970D01*
X16799Y-26435D01*
X17241Y-25993D01*
X17284Y-25976D01*
X17375Y-25885D01*
X17425Y-25765D01*
X17425Y-25636D01*
X17376Y-25516D01*
X17285Y-25425D01*
X17165Y-25375D01*
X17036Y-25375D01*
X16916Y-25424D01*
X16825Y-25515D01*
X16807Y-25558D01*
X16314Y-26051D01*
X16126Y-26051D01*
X16141Y-26041D01*
X16882Y-25300D01*
X17218Y-25300D01*
X19000Y-27082D01*
X19000Y-28951D01*
X18870Y-28951D01*
X18815Y-28974D01*
X18773Y-29016D01*
X18751Y-29071D01*
X18751Y-29130D01*
X18751Y-29730D01*
X18774Y-29785D01*
X18816Y-29827D01*
X18871Y-29849D01*
X18930Y-29849D01*
X19530Y-29849D01*
X19585Y-29826D01*
X19627Y-29784D01*
X19649Y-29729D01*
X19649Y-29670D01*
X19649Y-29070D01*
X19626Y-29015D01*
X19584Y-28973D01*
X19529Y-28951D01*
X19470Y-28951D01*
X19400Y-28951D01*
X19400Y-27000D01*
X19385Y-26924D01*
X19385Y-26923D01*
X19341Y-26859D01*
X17441Y-24959D01*
X17377Y-24915D01*
X17300Y-24900D01*
X16800Y-24900D01*
X16723Y-24915D01*
X16658Y-24959D01*
X15989Y-25628D01*
X15999Y-25604D01*
X15999Y-25545D01*
X15999Y-25258D01*
X16763Y-24495D01*
X16763Y-24494D01*
X16807Y-24430D01*
X16821Y-24353D01*
X16822Y-24353D01*
X16822Y-21246D01*
X16831Y-21293D01*
X16875Y-21357D01*
X20250Y-24732D01*
X25958Y-30441D01*
X25959Y-30441D01*
X26023Y-30485D01*
X26099Y-30499D01*
X26100Y-30500D01*
X26527Y-30500D01*
X26539Y-30512D01*
X26516Y-30522D01*
X26439Y-30690D01*
X26432Y-30875D01*
X26496Y-31048D01*
X26516Y-31078D01*
X26590Y-31108D01*
X26863Y-30835D01*
X26899Y-30800D01*
X26898Y-30799D01*
X26899Y-30798D01*
X26900Y-30799D01*
X26900Y-30798D01*
X26901Y-30799D01*
X26901Y-30800D01*
X26937Y-30835D01*
X27210Y-31108D01*
X27284Y-31078D01*
X27361Y-30910D01*
X27368Y-30725D01*
X27304Y-30552D01*
X27284Y-30522D01*
X27260Y-30512D01*
X27272Y-30500D01*
X27400Y-30500D01*
X27400Y-30499D01*
X27476Y-30485D01*
X27477Y-30485D01*
X27541Y-30441D01*
X27735Y-30246D01*
X27805Y-30275D01*
X27994Y-30275D01*
X28169Y-30203D01*
X28302Y-30069D01*
X28375Y-29895D01*
X28375Y-29706D01*
X28303Y-29531D01*
X28169Y-29398D01*
X27995Y-29325D01*
X27806Y-29325D01*
X27631Y-29397D01*
X27498Y-29531D01*
X27425Y-29705D01*
X27425Y-29894D01*
X27453Y-29964D01*
X27318Y-30100D01*
X27271Y-30100D01*
X27302Y-30069D01*
X27375Y-29895D01*
X27375Y-29706D01*
X27303Y-29531D01*
X27271Y-29500D01*
X27400Y-29500D01*
X27400Y-29499D01*
X27476Y-29485D01*
X27477Y-29485D01*
X27541Y-29441D01*
X27735Y-29246D01*
X27805Y-29275D01*
X27994Y-29275D01*
X28169Y-29203D01*
X28302Y-29069D01*
X28375Y-28895D01*
X28375Y-28706D01*
X28303Y-28531D01*
X28169Y-28398D01*
X27995Y-28325D01*
X27806Y-28325D01*
X27631Y-28397D01*
X27498Y-28531D01*
X27425Y-28705D01*
X27425Y-28894D01*
X27453Y-28964D01*
X27318Y-29100D01*
X27271Y-29100D01*
X27302Y-29069D01*
X27375Y-28895D01*
X27375Y-28706D01*
X27303Y-28531D01*
X27271Y-28500D01*
X27400Y-28500D01*
X27400Y-28499D01*
X27476Y-28485D01*
X27477Y-28485D01*
X27541Y-28441D01*
X27735Y-28246D01*
X27805Y-28275D01*
X27994Y-28275D01*
X28169Y-28203D01*
X28302Y-28069D01*
X28375Y-27895D01*
X28375Y-27706D01*
X28303Y-27531D01*
X28169Y-27398D01*
X27995Y-27325D01*
X27806Y-27325D01*
X27631Y-27397D01*
X27498Y-27531D01*
X27425Y-27705D01*
X27425Y-27894D01*
X27453Y-27964D01*
X27318Y-28100D01*
X27271Y-28100D01*
X27302Y-28069D01*
X27375Y-27895D01*
X27375Y-27706D01*
X27303Y-27531D01*
X27271Y-27500D01*
X27400Y-27500D01*
X27400Y-27499D01*
X27476Y-27485D01*
X27477Y-27485D01*
X27541Y-27441D01*
X27735Y-27246D01*
X27805Y-27275D01*
X27994Y-27275D01*
X28169Y-27203D01*
X28302Y-27069D01*
X28375Y-26895D01*
X28375Y-26706D01*
X28303Y-26531D01*
X28169Y-26398D01*
X27995Y-26325D01*
X27806Y-26325D01*
X27631Y-26397D01*
X27498Y-26531D01*
X27425Y-26705D01*
X27425Y-26894D01*
X27453Y-26964D01*
X27318Y-27100D01*
X27271Y-27100D01*
X27302Y-27069D01*
X27375Y-26895D01*
X27375Y-26706D01*
X27303Y-26531D01*
X27271Y-26500D01*
X27400Y-26500D01*
X27400Y-26499D01*
X27476Y-26485D01*
X27477Y-26485D01*
X27541Y-26441D01*
X27735Y-26246D01*
X27805Y-26275D01*
X27994Y-26275D01*
X28169Y-26203D01*
X28302Y-26069D01*
X28375Y-25895D01*
X28375Y-25706D01*
X28303Y-25531D01*
X28169Y-25398D01*
X27995Y-25325D01*
X27806Y-25325D01*
X27631Y-25397D01*
X27498Y-25531D01*
X27425Y-25705D01*
X27425Y-25894D01*
X27453Y-25964D01*
X27318Y-26100D01*
X27271Y-26100D01*
X27302Y-26069D01*
X27375Y-25895D01*
X27375Y-25706D01*
X27303Y-25531D01*
X27271Y-25500D01*
X27400Y-25500D01*
X27400Y-25499D01*
X27476Y-25485D01*
X27477Y-25485D01*
X27541Y-25441D01*
X27735Y-25246D01*
X27805Y-25275D01*
X27994Y-25275D01*
X28169Y-25203D01*
X28302Y-25069D01*
X28375Y-24895D01*
X28375Y-24706D01*
X28303Y-24531D01*
X28169Y-24398D01*
X27995Y-24325D01*
X27806Y-24325D01*
X27631Y-24397D01*
X27498Y-24531D01*
X27425Y-24705D01*
X27425Y-24894D01*
X27453Y-24964D01*
X27318Y-25100D01*
X27271Y-25100D01*
X27302Y-25069D01*
X27375Y-24895D01*
X27375Y-24706D01*
X27303Y-24531D01*
X27271Y-24500D01*
X27400Y-24500D01*
X27400Y-24499D01*
X27476Y-24485D01*
X27477Y-24485D01*
X27541Y-24441D01*
X27735Y-24246D01*
X27805Y-24275D01*
X27994Y-24275D01*
X28169Y-24203D01*
X28302Y-24069D01*
X28375Y-23895D01*
X28375Y-23706D01*
X28303Y-23531D01*
X28169Y-23398D01*
X27995Y-23325D01*
X27806Y-23325D01*
X27631Y-23397D01*
X27498Y-23531D01*
X27425Y-23705D01*
X27425Y-23894D01*
X27453Y-23964D01*
X27318Y-24100D01*
X27271Y-24100D01*
X27302Y-24069D01*
X27375Y-23895D01*
X27375Y-23706D01*
X27303Y-23531D01*
X27271Y-23500D01*
X27400Y-23500D01*
X27400Y-23499D01*
X27476Y-23485D01*
X27477Y-23485D01*
X27541Y-23441D01*
X27735Y-23246D01*
X27805Y-23275D01*
X27994Y-23275D01*
X28169Y-23203D01*
X28302Y-23069D01*
X28375Y-22895D01*
X28375Y-22706D01*
X28303Y-22531D01*
X28169Y-22398D01*
X27995Y-22325D01*
X27806Y-22325D01*
X27631Y-22397D01*
X27498Y-22531D01*
X27425Y-22705D01*
X27425Y-22894D01*
X27453Y-22964D01*
X27318Y-23100D01*
X27271Y-23100D01*
X27302Y-23069D01*
X27375Y-22895D01*
X27375Y-22706D01*
X27303Y-22531D01*
X27271Y-22500D01*
X27400Y-22500D01*
X27400Y-22499D01*
X27476Y-22485D01*
X27477Y-22485D01*
X27541Y-22441D01*
X27735Y-22246D01*
X27805Y-22275D01*
X27994Y-22275D01*
X28169Y-22203D01*
X28302Y-22069D01*
X28375Y-21895D01*
X28375Y-21706D01*
X28303Y-21531D01*
X28169Y-21398D01*
X27995Y-21325D01*
X27806Y-21325D01*
X27631Y-21397D01*
X27498Y-21531D01*
X27425Y-21705D01*
X27425Y-21894D01*
X27453Y-21964D01*
X27318Y-22100D01*
X27271Y-22100D01*
X27302Y-22069D01*
X27375Y-21895D01*
X27375Y-21706D01*
X27303Y-21531D01*
X27271Y-21500D01*
X27400Y-21500D01*
X27400Y-21499D01*
X27476Y-21485D01*
X27477Y-21485D01*
X27541Y-21441D01*
X27735Y-21246D01*
X27805Y-21275D01*
X27994Y-21275D01*
X28169Y-21203D01*
X28302Y-21069D01*
X28375Y-20895D01*
X28375Y-20706D01*
X28303Y-20531D01*
X28169Y-20398D01*
X27995Y-20325D01*
X27806Y-20325D01*
X27631Y-20397D01*
X27498Y-20531D01*
X27425Y-20705D01*
X27425Y-20894D01*
X27453Y-20964D01*
X27318Y-21100D01*
X27271Y-21100D01*
X27302Y-21069D01*
X27375Y-20895D01*
X27375Y-20706D01*
X27303Y-20531D01*
X27271Y-20500D01*
X27400Y-20500D01*
X27400Y-20499D01*
X27476Y-20485D01*
X27477Y-20485D01*
X27541Y-20441D01*
X27735Y-20246D01*
X27805Y-20275D01*
X27994Y-20275D01*
X28169Y-20203D01*
X28302Y-20069D01*
X28375Y-19895D01*
X28375Y-19706D01*
X28303Y-19531D01*
X28169Y-19398D01*
X27995Y-19325D01*
X27806Y-19325D01*
X27631Y-19397D01*
X27498Y-19531D01*
X27425Y-19705D01*
X27425Y-19894D01*
X27453Y-19964D01*
X27318Y-20100D01*
X27271Y-20100D01*
X27302Y-20069D01*
X27375Y-19895D01*
X27375Y-19706D01*
X27303Y-19531D01*
X27271Y-19500D01*
X27400Y-19500D01*
X27400Y-19499D01*
X27476Y-19485D01*
X27477Y-19485D01*
X27541Y-19441D01*
X27735Y-19246D01*
X27805Y-19275D01*
X27994Y-19275D01*
X28169Y-19203D01*
X28302Y-19069D01*
X28375Y-18895D01*
X28375Y-18706D01*
X28303Y-18531D01*
X28169Y-18398D01*
X27995Y-18325D01*
X27806Y-18325D01*
X27631Y-18397D01*
X27498Y-18531D01*
X27425Y-18705D01*
X27425Y-18894D01*
X27453Y-18964D01*
X27318Y-19100D01*
X27271Y-19100D01*
X27302Y-19069D01*
X27375Y-18895D01*
X27375Y-18706D01*
X27303Y-18531D01*
X27271Y-18500D01*
X27400Y-18500D01*
X27400Y-18499D01*
X27476Y-18485D01*
X27477Y-18485D01*
X27541Y-18441D01*
X27735Y-18246D01*
X27805Y-18275D01*
X27994Y-18275D01*
X28169Y-18203D01*
X28302Y-18069D01*
X28375Y-17895D01*
X28375Y-17706D01*
X28303Y-17531D01*
X28169Y-17398D01*
X27995Y-17325D01*
X27806Y-17325D01*
X27631Y-17397D01*
X27498Y-17531D01*
X27425Y-17705D01*
X27425Y-17894D01*
X27453Y-17964D01*
X27318Y-18100D01*
X27271Y-18100D01*
X27302Y-18069D01*
X27375Y-17895D01*
X27375Y-17706D01*
X27303Y-17531D01*
X27271Y-17500D01*
X27400Y-17500D01*
X27400Y-17499D01*
X27476Y-17485D01*
X27477Y-17485D01*
X27541Y-17441D01*
X27735Y-17246D01*
X27805Y-17275D01*
X27994Y-17275D01*
X28169Y-17203D01*
X28302Y-17069D01*
X28375Y-16895D01*
X28375Y-16706D01*
X28303Y-16531D01*
X28169Y-16398D01*
X27995Y-16325D01*
X27806Y-16325D01*
X27631Y-16397D01*
X27498Y-16531D01*
X27425Y-16705D01*
X27425Y-16894D01*
X27453Y-16964D01*
X27318Y-17100D01*
X27271Y-17100D01*
X27302Y-17069D01*
X27375Y-16895D01*
X27375Y-16706D01*
X27303Y-16531D01*
X27271Y-16500D01*
X27400Y-16500D01*
X27400Y-16499D01*
X27476Y-16485D01*
X27477Y-16485D01*
X27541Y-16441D01*
X27735Y-16246D01*
X27805Y-16275D01*
X27994Y-16275D01*
X28169Y-16203D01*
X28302Y-16069D01*
X28375Y-15895D01*
X28375Y-15706D01*
X28303Y-15531D01*
X28169Y-15398D01*
X27995Y-15325D01*
X27806Y-15325D01*
X27631Y-15397D01*
X27498Y-15531D01*
X27425Y-15705D01*
X27425Y-15894D01*
X27453Y-15964D01*
X27318Y-16100D01*
X27271Y-16100D01*
X27302Y-16069D01*
X27375Y-15895D01*
X27375Y-15706D01*
X27303Y-15531D01*
X27271Y-15500D01*
X27400Y-15500D01*
X27400Y-15499D01*
X27476Y-15485D01*
X27477Y-15485D01*
X27541Y-15441D01*
X27735Y-15246D01*
X27805Y-15275D01*
X27994Y-15275D01*
X28169Y-15203D01*
X28302Y-15069D01*
X28375Y-14895D01*
X28375Y-14706D01*
X28303Y-14531D01*
X28169Y-14398D01*
X27995Y-14325D01*
X27806Y-14325D01*
X27631Y-14397D01*
X27498Y-14531D01*
X27425Y-14705D01*
X27425Y-14894D01*
X27453Y-14964D01*
X27318Y-15100D01*
X27271Y-15100D01*
X27302Y-15069D01*
X27375Y-14895D01*
X27375Y-14706D01*
X27303Y-14531D01*
X27271Y-14500D01*
X27400Y-14500D01*
X27400Y-14499D01*
X27476Y-14485D01*
X27477Y-14485D01*
X27541Y-14441D01*
X27735Y-14246D01*
X27805Y-14275D01*
X27994Y-14275D01*
X28169Y-14203D01*
X28302Y-14069D01*
X28375Y-13895D01*
X28375Y-13706D01*
X28303Y-13531D01*
X28169Y-13398D01*
X27995Y-13325D01*
X27806Y-13325D01*
X27631Y-13397D01*
X27498Y-13531D01*
X27425Y-13705D01*
X27425Y-13894D01*
X27453Y-13964D01*
X27318Y-14100D01*
X27271Y-14100D01*
X27302Y-14069D01*
X27375Y-13895D01*
X27375Y-13706D01*
X27303Y-13531D01*
X27271Y-13500D01*
X27400Y-13500D01*
X27400Y-13499D01*
X27476Y-13485D01*
X27477Y-13485D01*
X27541Y-13441D01*
X27735Y-13246D01*
X27805Y-13275D01*
X27994Y-13275D01*
X28169Y-13203D01*
X28302Y-13069D01*
X28375Y-12895D01*
X28375Y-12706D01*
X28303Y-12531D01*
X28169Y-12398D01*
X27995Y-12325D01*
X27806Y-12325D01*
X27631Y-12397D01*
X27498Y-12531D01*
X27425Y-12705D01*
X27425Y-12894D01*
X27453Y-12964D01*
X27318Y-13100D01*
X27271Y-13100D01*
X27302Y-13069D01*
X27375Y-12895D01*
X27375Y-12706D01*
X27303Y-12531D01*
X27271Y-12500D01*
X27400Y-12500D01*
X27400Y-12499D01*
X27476Y-12485D01*
X27477Y-12485D01*
X27541Y-12441D01*
X27735Y-12246D01*
X27805Y-12275D01*
X27994Y-12275D01*
X28169Y-12203D01*
X28302Y-12069D01*
X28375Y-11895D01*
X28375Y-11706D01*
X28303Y-11531D01*
X28169Y-11398D01*
X27995Y-11325D01*
X27806Y-11325D01*
X27631Y-11397D01*
X27498Y-11531D01*
X27425Y-11705D01*
X27425Y-11894D01*
X27453Y-11964D01*
X27318Y-12100D01*
X27271Y-12100D01*
X27302Y-12069D01*
X27375Y-11895D01*
X27375Y-11706D01*
X27303Y-11531D01*
X27271Y-11500D01*
X27400Y-11500D01*
X27400Y-11499D01*
X27476Y-11485D01*
X27477Y-11485D01*
X27541Y-11441D01*
X27735Y-11246D01*
X27805Y-11275D01*
X27994Y-11275D01*
X28169Y-11203D01*
X28302Y-11069D01*
X28375Y-10895D01*
X28375Y-10706D01*
X28303Y-10531D01*
X28169Y-10398D01*
X27995Y-10325D01*
X27806Y-10325D01*
X27631Y-10397D01*
X27498Y-10531D01*
X27425Y-10705D01*
X27425Y-10894D01*
X27453Y-10964D01*
X27318Y-11100D01*
X27271Y-11100D01*
X27302Y-11069D01*
X27375Y-10895D01*
X27375Y-10706D01*
X27303Y-10531D01*
X27271Y-10500D01*
X27400Y-10500D01*
X27400Y-10499D01*
X27476Y-10485D01*
X27477Y-10485D01*
X27541Y-10441D01*
X27735Y-10246D01*
X27805Y-10275D01*
X27994Y-10275D01*
X28169Y-10203D01*
X28302Y-10069D01*
X28375Y-09895D01*
X28375Y-09706D01*
X28303Y-09531D01*
X28169Y-09398D01*
X27995Y-09325D01*
X27806Y-09325D01*
X27631Y-09397D01*
X27498Y-09531D01*
X27425Y-09705D01*
X27425Y-09894D01*
X27453Y-09964D01*
X27318Y-10100D01*
X27271Y-10100D01*
X27302Y-10069D01*
X27375Y-09895D01*
X27375Y-09706D01*
X27303Y-09531D01*
X27271Y-09500D01*
X27400Y-09500D01*
X27400Y-09499D01*
X27476Y-09485D01*
X27477Y-09485D01*
X27541Y-09441D01*
X27735Y-09246D01*
X27805Y-09275D01*
X27994Y-09275D01*
X28169Y-09203D01*
X28302Y-09069D01*
X28375Y-08895D01*
X28375Y-08706D01*
X28303Y-08531D01*
X28169Y-08398D01*
X27995Y-08325D01*
X27806Y-08325D01*
X27631Y-08397D01*
X27498Y-08531D01*
X27425Y-08705D01*
X27425Y-08894D01*
X27453Y-08964D01*
X27318Y-09100D01*
X27271Y-09100D01*
X27302Y-09069D01*
X27375Y-08895D01*
X27375Y-08706D01*
X27303Y-08531D01*
X27271Y-08500D01*
X27400Y-08500D01*
X27400Y-08499D01*
X27476Y-08485D01*
X27477Y-08485D01*
X27541Y-08441D01*
X27735Y-08246D01*
X27805Y-08275D01*
X27994Y-08275D01*
X28169Y-08203D01*
X28302Y-08069D01*
X28375Y-07895D01*
X28375Y-07706D01*
X28303Y-07531D01*
X28271Y-07500D01*
X28300Y-07500D01*
X28300Y-07499D01*
X28376Y-07485D01*
X28377Y-07485D01*
X28441Y-07441D01*
X28641Y-07242D01*
X28641Y-07241D01*
X28685Y-07177D01*
X28699Y-07101D01*
X28700Y-07100D01*
X28700Y-32550D01*
X28368Y-32550D01*
X28368Y-30725D01*
X28304Y-30552D01*
X28284Y-30522D01*
X28210Y-30492D01*
X28208Y-30493D01*
X28208Y-30490D01*
X28178Y-30416D01*
X28010Y-30339D01*
X27825Y-30332D01*
X27652Y-30396D01*
X27622Y-30416D01*
X27592Y-30490D01*
X27900Y-30799D01*
X28208Y-30490D01*
X28208Y-30493D01*
X27901Y-30800D01*
X28210Y-31108D01*
X28284Y-31078D01*
X28361Y-30910D01*
X28368Y-30725D01*
X28368Y-32550D01*
X28208Y-32550D01*
X28208Y-31110D01*
X27900Y-30801D01*
X27899Y-30802D01*
X27899Y-30800D01*
X27590Y-30492D01*
X27516Y-30522D01*
X27439Y-30690D01*
X27432Y-30875D01*
X27496Y-31048D01*
X27516Y-31078D01*
X27590Y-31108D01*
X27899Y-30800D01*
X27899Y-30802D01*
X27592Y-31110D01*
X27622Y-31184D01*
X27790Y-31261D01*
X27975Y-31268D01*
X28148Y-31204D01*
X28178Y-31184D01*
X28208Y-31110D01*
X28208Y-32550D01*
X27208Y-32550D01*
X27208Y-31110D01*
X26900Y-30801D01*
X26592Y-31110D01*
X26622Y-31184D01*
X26790Y-31261D01*
X26975Y-31268D01*
X27148Y-31204D01*
X27178Y-31184D01*
X27208Y-31110D01*
X27208Y-32550D01*
X20250Y-32550D01*
X19649Y-32550D01*
X19649Y-31490D01*
X19649Y-31311D01*
X19649Y-30490D01*
X19649Y-30311D01*
X19581Y-30146D01*
X19455Y-30020D01*
X19290Y-29951D01*
X19111Y-29951D01*
X18946Y-30019D01*
X18847Y-30118D01*
X17146Y-30118D01*
X17107Y-30102D01*
X17107Y-29748D01*
X17160Y-29726D01*
X17202Y-29684D01*
X17224Y-29629D01*
X17224Y-29570D01*
X17224Y-28770D01*
X17201Y-28715D01*
X17159Y-28673D01*
X17104Y-28651D01*
X17045Y-28651D01*
X16495Y-28651D01*
X16440Y-28674D01*
X16398Y-28716D01*
X16376Y-28771D01*
X16376Y-28830D01*
X16376Y-29630D01*
X16399Y-29685D01*
X16441Y-29727D01*
X16493Y-29747D01*
X16493Y-30101D01*
X16440Y-30124D01*
X16398Y-30166D01*
X16376Y-30221D01*
X16376Y-30280D01*
X16376Y-30630D01*
X16399Y-30685D01*
X16441Y-30727D01*
X16496Y-30749D01*
X16555Y-30749D01*
X17105Y-30749D01*
X17145Y-30732D01*
X18897Y-30732D01*
X18945Y-30780D01*
X19110Y-30849D01*
X19289Y-30849D01*
X19454Y-30781D01*
X19580Y-30655D01*
X19649Y-30490D01*
X19649Y-31311D01*
X19581Y-31146D01*
X19455Y-31020D01*
X19290Y-30951D01*
X19111Y-30951D01*
X18946Y-31019D01*
X18820Y-31145D01*
X18751Y-31310D01*
X18751Y-31415D01*
X18273Y-31893D01*
X17225Y-31893D01*
X17225Y-31213D01*
X17225Y-31137D01*
X17224Y-30970D01*
X17201Y-30915D01*
X17159Y-30873D01*
X17104Y-30851D01*
X17045Y-30851D01*
X16838Y-30850D01*
X16801Y-30887D01*
X16801Y-31174D01*
X17188Y-31174D01*
X17225Y-31137D01*
X17225Y-31213D01*
X17188Y-31176D01*
X16801Y-31176D01*
X16801Y-31463D01*
X16838Y-31500D01*
X17045Y-31499D01*
X17104Y-31499D01*
X17159Y-31477D01*
X17201Y-31435D01*
X17224Y-31380D01*
X17225Y-31213D01*
X17225Y-31893D01*
X16799Y-31893D01*
X16799Y-31463D01*
X16799Y-31176D01*
X16799Y-31174D01*
X16799Y-30887D01*
X16762Y-30850D01*
X16555Y-30851D01*
X16496Y-30851D01*
X16441Y-30873D01*
X16399Y-30915D01*
X16376Y-30970D01*
X16375Y-31137D01*
X16412Y-31174D01*
X16799Y-31174D01*
X16799Y-31176D01*
X16412Y-31176D01*
X16375Y-31213D01*
X16376Y-31380D01*
X16399Y-31435D01*
X16441Y-31477D01*
X16496Y-31499D01*
X16555Y-31499D01*
X16762Y-31500D01*
X16799Y-31463D01*
X16799Y-31893D01*
X15450Y-31893D01*
X15450Y-31238D01*
X15450Y-31162D01*
X15450Y-30338D01*
X15450Y-30262D01*
X15449Y-30055D01*
X15449Y-29996D01*
X15427Y-29941D01*
X15425Y-29939D01*
X15425Y-29238D01*
X15425Y-29162D01*
X15424Y-28830D01*
X15424Y-28771D01*
X15402Y-28716D01*
X15360Y-28674D01*
X15305Y-28651D01*
X15038Y-28650D01*
X15001Y-28687D01*
X15001Y-29199D01*
X15388Y-29199D01*
X15425Y-29162D01*
X15425Y-29238D01*
X15388Y-29201D01*
X15001Y-29201D01*
X15001Y-29713D01*
X15038Y-29750D01*
X15305Y-29749D01*
X15360Y-29726D01*
X15402Y-29684D01*
X15424Y-29629D01*
X15424Y-29570D01*
X15425Y-29238D01*
X15425Y-29939D01*
X15385Y-29899D01*
X15330Y-29876D01*
X15163Y-29875D01*
X15126Y-29912D01*
X15126Y-30299D01*
X15413Y-30299D01*
X15450Y-30262D01*
X15450Y-30338D01*
X15413Y-30301D01*
X15126Y-30301D01*
X15126Y-30688D01*
X15163Y-30725D01*
X15330Y-30724D01*
X15385Y-30701D01*
X15427Y-30659D01*
X15449Y-30604D01*
X15449Y-30545D01*
X15450Y-30338D01*
X15450Y-31162D01*
X15449Y-30955D01*
X15449Y-30896D01*
X15427Y-30841D01*
X15385Y-30799D01*
X15330Y-30776D01*
X15163Y-30775D01*
X15126Y-30812D01*
X15126Y-31199D01*
X15413Y-31199D01*
X15450Y-31162D01*
X15450Y-31238D01*
X15413Y-31201D01*
X15126Y-31201D01*
X15126Y-31588D01*
X15163Y-31625D01*
X15330Y-31624D01*
X15385Y-31601D01*
X15427Y-31559D01*
X15449Y-31504D01*
X15449Y-31445D01*
X15450Y-31238D01*
X15450Y-31893D01*
X15124Y-31893D01*
X15124Y-31588D01*
X15124Y-31201D01*
X15124Y-31199D01*
X15124Y-30812D01*
X15124Y-30688D01*
X15124Y-30301D01*
X15124Y-30299D01*
X15124Y-29912D01*
X15087Y-29875D01*
X14999Y-29875D01*
X14999Y-29713D01*
X14999Y-29201D01*
X14999Y-29199D01*
X14999Y-28687D01*
X14962Y-28650D01*
X14695Y-28651D01*
X14640Y-28674D01*
X14598Y-28716D01*
X14576Y-28771D01*
X14576Y-28830D01*
X14575Y-29162D01*
X14612Y-29199D01*
X14999Y-29199D01*
X14999Y-29201D01*
X14612Y-29201D01*
X14575Y-29238D01*
X14576Y-29570D01*
X14576Y-29629D01*
X14598Y-29684D01*
X14640Y-29726D01*
X14695Y-29749D01*
X14962Y-29750D01*
X14999Y-29713D01*
X14999Y-29875D01*
X14920Y-29876D01*
X14865Y-29899D01*
X14823Y-29941D01*
X14801Y-29996D01*
X14801Y-30055D01*
X14800Y-30262D01*
X14837Y-30299D01*
X15124Y-30299D01*
X15124Y-30301D01*
X14837Y-30301D01*
X14800Y-30338D01*
X14801Y-30545D01*
X14801Y-30604D01*
X14823Y-30659D01*
X14865Y-30701D01*
X14920Y-30724D01*
X15087Y-30725D01*
X15124Y-30688D01*
X15124Y-30812D01*
X15087Y-30775D01*
X14920Y-30776D01*
X14865Y-30799D01*
X14823Y-30841D01*
X14801Y-30896D01*
X14801Y-30955D01*
X14800Y-31162D01*
X14837Y-31199D01*
X15124Y-31199D01*
X15124Y-31201D01*
X14837Y-31201D01*
X14800Y-31238D01*
X14801Y-31445D01*
X14801Y-31504D01*
X14823Y-31559D01*
X14865Y-31601D01*
X14920Y-31624D01*
X15087Y-31625D01*
X15124Y-31588D01*
X15124Y-31893D01*
X14475Y-31893D01*
X14475Y-28363D01*
X14475Y-28287D01*
X14474Y-28120D01*
X14451Y-28065D01*
X14409Y-28023D01*
X14354Y-28001D01*
X14295Y-28001D01*
X14088Y-28000D01*
X14051Y-28037D01*
X14051Y-28324D01*
X14438Y-28324D01*
X14475Y-28287D01*
X14475Y-28363D01*
X14438Y-28326D01*
X14051Y-28326D01*
X14051Y-28613D01*
X14088Y-28650D01*
X14295Y-28649D01*
X14354Y-28649D01*
X14409Y-28627D01*
X14451Y-28585D01*
X14474Y-28530D01*
X14475Y-28363D01*
X14475Y-31893D01*
X14195Y-31893D01*
X14195Y-30738D01*
X14195Y-30662D01*
X14194Y-29785D01*
X14194Y-29726D01*
X14172Y-29671D01*
X14130Y-29629D01*
X14075Y-29606D01*
X14049Y-29605D01*
X14049Y-28613D01*
X14049Y-28326D01*
X14049Y-28324D01*
X14049Y-28037D01*
X14012Y-28000D01*
X13805Y-28001D01*
X13746Y-28001D01*
X13691Y-28023D01*
X13649Y-28065D01*
X13626Y-28120D01*
X13625Y-28287D01*
X13662Y-28324D01*
X14049Y-28324D01*
X14049Y-28326D01*
X13662Y-28326D01*
X13625Y-28363D01*
X13626Y-28530D01*
X13649Y-28585D01*
X13691Y-28627D01*
X13746Y-28649D01*
X13805Y-28649D01*
X14012Y-28650D01*
X14049Y-28613D01*
X14049Y-29605D01*
X13138Y-29605D01*
X13101Y-29642D01*
X13101Y-30699D01*
X14158Y-30699D01*
X14195Y-30662D01*
X14195Y-30738D01*
X14158Y-30701D01*
X13101Y-30701D01*
X13101Y-31758D01*
X13138Y-31795D01*
X14075Y-31794D01*
X14130Y-31771D01*
X14172Y-31729D01*
X14194Y-31674D01*
X14194Y-31615D01*
X14195Y-30738D01*
X14195Y-31893D01*
X13099Y-31893D01*
X13099Y-31758D01*
X13099Y-30701D01*
X12042Y-30701D01*
X12005Y-30738D01*
X12006Y-31615D01*
X12006Y-31674D01*
X12028Y-31729D01*
X12070Y-31771D01*
X12125Y-31794D01*
X13062Y-31795D01*
X13099Y-31758D01*
X13099Y-31893D01*
X11780Y-31893D01*
X11780Y-30528D01*
X11631Y-30128D01*
X11585Y-30058D01*
X11448Y-29953D01*
X11447Y-29954D01*
X11447Y-29952D01*
X11342Y-29815D01*
X10955Y-29637D01*
X10528Y-29620D01*
X10128Y-29769D01*
X10058Y-29815D01*
X09953Y-29952D01*
X10700Y-30699D01*
X11447Y-29952D01*
X11447Y-29954D01*
X10701Y-30700D01*
X11448Y-31447D01*
X11585Y-31342D01*
X11763Y-30955D01*
X11780Y-30528D01*
X11780Y-31893D01*
X11447Y-31893D01*
X11447Y-31448D01*
X10700Y-30701D01*
X10699Y-30702D01*
X10699Y-30700D01*
X09952Y-29953D01*
X09815Y-30058D01*
X09637Y-30445D01*
X09620Y-30872D01*
X09769Y-31272D01*
X09815Y-31342D01*
X09952Y-31447D01*
X10699Y-30700D01*
X10699Y-30702D01*
X09953Y-31448D01*
X10058Y-31585D01*
X10445Y-31763D01*
X10872Y-31780D01*
X11272Y-31631D01*
X11342Y-31585D01*
X11447Y-31448D01*
X11447Y-31893D01*
X09527Y-31893D01*
X09207Y-31573D01*
X09207Y-29427D01*
X09627Y-29007D01*
X10542Y-29007D01*
X10671Y-29320D01*
X10979Y-29628D01*
X11381Y-29795D01*
X11817Y-29795D01*
X12010Y-29715D01*
X12006Y-29726D01*
X12006Y-29785D01*
X12005Y-30662D01*
X12042Y-30699D01*
X13099Y-30699D01*
X13099Y-29642D01*
X13062Y-29605D01*
X12243Y-29605D01*
X12528Y-29321D01*
X12695Y-28919D01*
X12695Y-28483D01*
X12529Y-28080D01*
X12281Y-27832D01*
X12281Y-26898D01*
X12281Y-26627D01*
X12177Y-26377D01*
X11986Y-26185D01*
X11736Y-26081D01*
X11465Y-26081D01*
X11215Y-26185D01*
X11023Y-26376D01*
X10919Y-26626D01*
X10919Y-26897D01*
X11023Y-27147D01*
X11214Y-27339D01*
X11464Y-27443D01*
X11735Y-27443D01*
X11985Y-27339D01*
X12177Y-27148D01*
X12281Y-26898D01*
X12281Y-27832D01*
X12221Y-27772D01*
X11819Y-27605D01*
X11383Y-27605D01*
X10980Y-27771D01*
X10672Y-28079D01*
X10541Y-28393D01*
X09500Y-28393D01*
X09383Y-28416D01*
X09283Y-28483D01*
X08683Y-29083D01*
X08616Y-29182D01*
X08593Y-29300D01*
X08593Y-31700D01*
X08616Y-31818D01*
X08683Y-31917D01*
X09183Y-32417D01*
X09282Y-32483D01*
X09283Y-32484D01*
X09400Y-32507D01*
X18400Y-32507D01*
X18517Y-32484D01*
X18518Y-32484D01*
X18617Y-32417D01*
X19185Y-31849D01*
X19289Y-31849D01*
X19454Y-31781D01*
X19580Y-31655D01*
X19649Y-31490D01*
X19649Y-32550D01*
X07750Y-32550D01*
X07750Y-05250D01*
X29150Y-05250D01*
X29150Y-32550D01*
X29150Y-32550D01*
G37*
G54D28*
X29150Y-32550D02*
X28700Y-32550D01*
X28700Y-07100D01*
X28700Y-06400D01*
X28699Y-06399D01*
X28685Y-06323D01*
X28641Y-06259D01*
X28641Y-06258D01*
X28441Y-06059D01*
X28377Y-06015D01*
X28300Y-06000D01*
X16100Y-06000D01*
X16023Y-06015D01*
X15958Y-06059D01*
X14184Y-07834D01*
X14155Y-07876D01*
X14120Y-07876D01*
X14065Y-07899D01*
X14023Y-07941D01*
X14001Y-07996D01*
X14001Y-08055D01*
X14001Y-08100D01*
X13999Y-08100D01*
X13999Y-07995D01*
X13976Y-07940D01*
X13934Y-07898D01*
X13879Y-07876D01*
X13845Y-07876D01*
X13816Y-07834D01*
X13816Y-07833D01*
X13641Y-07659D01*
X13577Y-07615D01*
X13500Y-07600D01*
X09900Y-07600D01*
X09823Y-07615D01*
X09758Y-07659D01*
X08259Y-09159D01*
X08215Y-09223D01*
X08200Y-09300D01*
X08200Y-14500D01*
X08215Y-14577D01*
X08259Y-14641D01*
X10048Y-16430D01*
X10112Y-16474D01*
X10113Y-16474D01*
X10189Y-16489D01*
X12447Y-16489D01*
X12362Y-16574D01*
X12301Y-16720D01*
X12301Y-16879D01*
X12311Y-16905D01*
X12041Y-17176D01*
X11770Y-17176D01*
X11715Y-17199D01*
X11673Y-17241D01*
X11651Y-17296D01*
X11651Y-17355D01*
X11651Y-17905D01*
X11674Y-17960D01*
X11714Y-18000D01*
X11486Y-18000D01*
X11527Y-17959D01*
X11549Y-17904D01*
X11549Y-17845D01*
X11550Y-17638D01*
X11550Y-17562D01*
X11549Y-17355D01*
X11549Y-17296D01*
X11527Y-17241D01*
X11485Y-17199D01*
X11430Y-17176D01*
X11263Y-17175D01*
X11226Y-17212D01*
X11226Y-17599D01*
X11513Y-17599D01*
X11550Y-17562D01*
X11550Y-17638D01*
X11513Y-17601D01*
X11276Y-17601D01*
X11226Y-17601D01*
X11224Y-17601D01*
X11224Y-17599D01*
X11224Y-17212D01*
X11187Y-17175D01*
X11020Y-17176D01*
X10965Y-17199D01*
X10923Y-17241D01*
X10901Y-17296D01*
X10901Y-17355D01*
X10900Y-17562D01*
X10937Y-17599D01*
X11224Y-17599D01*
X11224Y-17601D01*
X11174Y-17601D01*
X10937Y-17601D01*
X10900Y-17638D01*
X10901Y-17845D01*
X10901Y-17904D01*
X10923Y-17959D01*
X10964Y-18000D01*
X08700Y-18000D01*
X08623Y-18015D01*
X08558Y-18059D01*
X07940Y-18678D01*
X07896Y-18742D01*
X07881Y-18819D01*
X07881Y-20781D01*
X07896Y-20858D01*
X07940Y-20922D01*
X10158Y-23141D01*
X10159Y-23141D01*
X10191Y-23163D01*
X10223Y-23185D01*
X10224Y-23185D01*
X10300Y-23200D01*
X12800Y-23200D01*
X12800Y-23199D01*
X12876Y-23185D01*
X12877Y-23185D01*
X12941Y-23141D01*
X13882Y-22200D01*
X14664Y-22200D01*
X14623Y-22241D01*
X14601Y-22296D01*
X14601Y-22355D01*
X14601Y-22641D01*
X13713Y-23528D01*
X13705Y-23520D01*
X13540Y-23451D01*
X13361Y-23451D01*
X13196Y-23519D01*
X13070Y-23645D01*
X13052Y-23686D01*
X13045Y-23665D01*
X13026Y-23637D01*
X12955Y-23609D01*
X12954Y-23610D01*
X12954Y-23608D01*
X12926Y-23537D01*
X12767Y-23464D01*
X12592Y-23457D01*
X12428Y-23518D01*
X12400Y-23537D01*
X12372Y-23608D01*
X12663Y-23899D01*
X12954Y-23608D01*
X12954Y-23610D01*
X12664Y-23900D01*
X12663Y-23901D01*
X12662Y-23901D01*
X12661Y-23900D01*
X12662Y-23900D01*
X12371Y-23609D01*
X12300Y-23637D01*
X12227Y-23796D01*
X12220Y-23971D01*
X12281Y-24135D01*
X12300Y-24163D01*
X12320Y-24170D01*
X12304Y-24187D01*
X12330Y-24213D01*
X12323Y-24215D01*
X12258Y-24259D01*
X11959Y-24559D01*
X11915Y-24623D01*
X11900Y-24700D01*
X11900Y-25300D01*
X11915Y-25377D01*
X11959Y-25441D01*
X12558Y-26041D01*
X12559Y-26041D01*
X12623Y-26085D01*
X12700Y-26100D01*
X15039Y-26100D01*
X15023Y-26116D01*
X15001Y-26171D01*
X15001Y-26230D01*
X15001Y-27030D01*
X15024Y-27085D01*
X15066Y-27127D01*
X15121Y-27149D01*
X15180Y-27149D01*
X15593Y-27149D01*
X15593Y-27268D01*
X14396Y-27268D01*
X14354Y-27251D01*
X14295Y-27251D01*
X13745Y-27251D01*
X13690Y-27274D01*
X13648Y-27316D01*
X13626Y-27371D01*
X13626Y-27430D01*
X13626Y-27780D01*
X13649Y-27835D01*
X13691Y-27877D01*
X13746Y-27899D01*
X13805Y-27899D01*
X14355Y-27899D01*
X14395Y-27882D01*
X15593Y-27882D01*
X15593Y-28651D01*
X15540Y-28674D01*
X15498Y-28716D01*
X15476Y-28771D01*
X15476Y-28830D01*
X15476Y-29630D01*
X15499Y-29685D01*
X15541Y-29727D01*
X15593Y-29747D01*
X15593Y-29921D01*
X15573Y-29941D01*
X15551Y-29996D01*
X15551Y-30055D01*
X15551Y-30605D01*
X15574Y-30660D01*
X15616Y-30702D01*
X15671Y-30724D01*
X15675Y-30724D01*
X15675Y-30776D01*
X15670Y-30776D01*
X15615Y-30799D01*
X15573Y-30841D01*
X15551Y-30896D01*
X15551Y-30955D01*
X15551Y-31505D01*
X15574Y-31560D01*
X15616Y-31602D01*
X15671Y-31624D01*
X15730Y-31624D01*
X16080Y-31624D01*
X16135Y-31601D01*
X16177Y-31559D01*
X16199Y-31504D01*
X16199Y-31445D01*
X16199Y-30895D01*
X16176Y-30840D01*
X16134Y-30798D01*
X16079Y-30776D01*
X16075Y-30776D01*
X16075Y-30724D01*
X16080Y-30724D01*
X16135Y-30701D01*
X16177Y-30659D01*
X16199Y-30604D01*
X16199Y-30545D01*
X16199Y-30315D01*
X16199Y-30314D01*
X16207Y-30275D01*
X16207Y-29748D01*
X16260Y-29726D01*
X16302Y-29684D01*
X16324Y-29629D01*
X16324Y-29570D01*
X16324Y-28770D01*
X16301Y-28715D01*
X16259Y-28673D01*
X16207Y-28652D01*
X16207Y-27575D01*
X16207Y-27550D01*
X16207Y-27149D01*
X16680Y-27149D01*
X16735Y-27126D01*
X16777Y-27084D01*
X16799Y-27029D01*
X16799Y-26970D01*
X16799Y-26435D01*
X17241Y-25993D01*
X17284Y-25976D01*
X17375Y-25885D01*
X17425Y-25765D01*
X17425Y-25636D01*
X17376Y-25516D01*
X17285Y-25425D01*
X17165Y-25375D01*
X17036Y-25375D01*
X16916Y-25424D01*
X16825Y-25515D01*
X16807Y-25558D01*
X16314Y-26051D01*
X16126Y-26051D01*
X16141Y-26041D01*
X16882Y-25300D01*
X17218Y-25300D01*
X19000Y-27082D01*
X19000Y-28951D01*
X18870Y-28951D01*
X18815Y-28974D01*
X18773Y-29016D01*
X18751Y-29071D01*
X18751Y-29130D01*
X18751Y-29730D01*
X18774Y-29785D01*
X18816Y-29827D01*
X18871Y-29849D01*
X18930Y-29849D01*
X19530Y-29849D01*
X19585Y-29826D01*
X19627Y-29784D01*
X19649Y-29729D01*
X19649Y-29670D01*
X19649Y-29070D01*
X19626Y-29015D01*
X19584Y-28973D01*
X19529Y-28951D01*
X19470Y-28951D01*
X19400Y-28951D01*
X19400Y-27000D01*
X19385Y-26924D01*
X19385Y-26923D01*
X19341Y-26859D01*
X17441Y-24959D01*
X17377Y-24915D01*
X17300Y-24900D01*
X16800Y-24900D01*
X16723Y-24915D01*
X16658Y-24959D01*
X15989Y-25628D01*
X15999Y-25604D01*
X15999Y-25545D01*
X15999Y-25258D01*
X16763Y-24495D01*
X16763Y-24494D01*
X16807Y-24430D01*
X16821Y-24353D01*
X16822Y-24353D01*
X16822Y-21246D01*
X16831Y-21293D01*
X16875Y-21357D01*
X20250Y-24732D01*
X25958Y-30441D01*
X25959Y-30441D01*
X26023Y-30485D01*
X26099Y-30499D01*
X26100Y-30500D01*
X26527Y-30500D01*
X26539Y-30512D01*
X26516Y-30522D01*
X26439Y-30690D01*
X26432Y-30875D01*
X26496Y-31048D01*
X26516Y-31078D01*
X26590Y-31108D01*
X26863Y-30835D01*
X26899Y-30800D01*
X26898Y-30799D01*
X26899Y-30798D01*
X26900Y-30799D01*
X26900Y-30798D01*
X26901Y-30799D01*
X26901Y-30800D01*
X26937Y-30835D01*
X27210Y-31108D01*
X27284Y-31078D01*
X27361Y-30910D01*
X27368Y-30725D01*
X27304Y-30552D01*
X27284Y-30522D01*
X27260Y-30512D01*
X27272Y-30500D01*
X27400Y-30500D01*
X27400Y-30499D01*
X27476Y-30485D01*
X27477Y-30485D01*
X27541Y-30441D01*
X27735Y-30246D01*
X27805Y-30275D01*
X27994Y-30275D01*
X28169Y-30203D01*
X28302Y-30069D01*
X28375Y-29895D01*
X28375Y-29706D01*
X28303Y-29531D01*
X28169Y-29398D01*
X27995Y-29325D01*
X27806Y-29325D01*
X27631Y-29397D01*
X27498Y-29531D01*
X27425Y-29705D01*
X27425Y-29894D01*
X27453Y-29964D01*
X27318Y-30100D01*
X27271Y-30100D01*
X27302Y-30069D01*
X27375Y-29895D01*
X27375Y-29706D01*
X27303Y-29531D01*
X27271Y-29500D01*
X27400Y-29500D01*
X27400Y-29499D01*
X27476Y-29485D01*
X27477Y-29485D01*
X27541Y-29441D01*
X27735Y-29246D01*
X27805Y-29275D01*
X27994Y-29275D01*
X28169Y-29203D01*
X28302Y-29069D01*
X28375Y-28895D01*
X28375Y-28706D01*
X28303Y-28531D01*
X28169Y-28398D01*
X27995Y-28325D01*
X27806Y-28325D01*
X27631Y-28397D01*
X27498Y-28531D01*
X27425Y-28705D01*
X27425Y-28894D01*
X27453Y-28964D01*
X27318Y-29100D01*
X27271Y-29100D01*
X27302Y-29069D01*
X27375Y-28895D01*
X27375Y-28706D01*
X27303Y-28531D01*
X27271Y-28500D01*
X27400Y-28500D01*
X27400Y-28499D01*
X27476Y-28485D01*
X27477Y-28485D01*
X27541Y-28441D01*
X27735Y-28246D01*
X27805Y-28275D01*
X27994Y-28275D01*
X28169Y-28203D01*
X28302Y-28069D01*
X28375Y-27895D01*
X28375Y-27706D01*
X28303Y-27531D01*
X28169Y-27398D01*
X27995Y-27325D01*
X27806Y-27325D01*
X27631Y-27397D01*
X27498Y-27531D01*
X27425Y-27705D01*
X27425Y-27894D01*
X27453Y-27964D01*
X27318Y-28100D01*
X27271Y-28100D01*
X27302Y-28069D01*
X27375Y-27895D01*
X27375Y-27706D01*
X27303Y-27531D01*
X27271Y-27500D01*
X27400Y-27500D01*
X27400Y-27499D01*
X27476Y-27485D01*
X27477Y-27485D01*
X27541Y-27441D01*
X27735Y-27246D01*
X27805Y-27275D01*
X27994Y-27275D01*
X28169Y-27203D01*
X28302Y-27069D01*
X28375Y-26895D01*
X28375Y-26706D01*
X28303Y-26531D01*
X28169Y-26398D01*
X27995Y-26325D01*
X27806Y-26325D01*
X27631Y-26397D01*
X27498Y-26531D01*
X27425Y-26705D01*
X27425Y-26894D01*
X27453Y-26964D01*
X27318Y-27100D01*
X27271Y-27100D01*
X27302Y-27069D01*
X27375Y-26895D01*
X27375Y-26706D01*
X27303Y-26531D01*
X27271Y-26500D01*
X27400Y-26500D01*
X27400Y-26499D01*
X27476Y-26485D01*
X27477Y-26485D01*
X27541Y-26441D01*
X27735Y-26246D01*
X27805Y-26275D01*
X27994Y-26275D01*
X28169Y-26203D01*
X28302Y-26069D01*
X28375Y-25895D01*
X28375Y-25706D01*
X28303Y-25531D01*
X28169Y-25398D01*
X27995Y-25325D01*
X27806Y-25325D01*
X27631Y-25397D01*
X27498Y-25531D01*
X27425Y-25705D01*
X27425Y-25894D01*
X27453Y-25964D01*
X27318Y-26100D01*
X27271Y-26100D01*
X27302Y-26069D01*
X27375Y-25895D01*
X27375Y-25706D01*
X27303Y-25531D01*
X27271Y-25500D01*
X27400Y-25500D01*
X27400Y-25499D01*
X27476Y-25485D01*
X27477Y-25485D01*
X27541Y-25441D01*
X27735Y-25246D01*
X27805Y-25275D01*
X27994Y-25275D01*
X28169Y-25203D01*
X28302Y-25069D01*
X28375Y-24895D01*
X28375Y-24706D01*
X28303Y-24531D01*
X28169Y-24398D01*
X27995Y-24325D01*
X27806Y-24325D01*
X27631Y-24397D01*
X27498Y-24531D01*
X27425Y-24705D01*
X27425Y-24894D01*
X27453Y-24964D01*
X27318Y-25100D01*
X27271Y-25100D01*
X27302Y-25069D01*
X27375Y-24895D01*
X27375Y-24706D01*
X27303Y-24531D01*
X27271Y-24500D01*
X27400Y-24500D01*
X27400Y-24499D01*
X27476Y-24485D01*
X27477Y-24485D01*
X27541Y-24441D01*
X27735Y-24246D01*
X27805Y-24275D01*
X27994Y-24275D01*
X28169Y-24203D01*
X28302Y-24069D01*
X28375Y-23895D01*
X28375Y-23706D01*
X28303Y-23531D01*
X28169Y-23398D01*
X27995Y-23325D01*
X27806Y-23325D01*
X27631Y-23397D01*
X27498Y-23531D01*
X27425Y-23705D01*
X27425Y-23894D01*
X27453Y-23964D01*
X27318Y-24100D01*
X27271Y-24100D01*
X27302Y-24069D01*
X27375Y-23895D01*
X27375Y-23706D01*
X27303Y-23531D01*
X27271Y-23500D01*
X27400Y-23500D01*
X27400Y-23499D01*
X27476Y-23485D01*
X27477Y-23485D01*
X27541Y-23441D01*
X27735Y-23246D01*
X27805Y-23275D01*
X27994Y-23275D01*
X28169Y-23203D01*
X28302Y-23069D01*
X28375Y-22895D01*
X28375Y-22706D01*
X28303Y-22531D01*
X28169Y-22398D01*
X27995Y-22325D01*
X27806Y-22325D01*
X27631Y-22397D01*
X27498Y-22531D01*
X27425Y-22705D01*
X27425Y-22894D01*
X27453Y-22964D01*
X27318Y-23100D01*
X27271Y-23100D01*
X27302Y-23069D01*
X27375Y-22895D01*
X27375Y-22706D01*
X27303Y-22531D01*
X27271Y-22500D01*
X27400Y-22500D01*
X27400Y-22499D01*
X27476Y-22485D01*
X27477Y-22485D01*
X27541Y-22441D01*
X27735Y-22246D01*
X27805Y-22275D01*
X27994Y-22275D01*
X28169Y-22203D01*
X28302Y-22069D01*
X28375Y-21895D01*
X28375Y-21706D01*
X28303Y-21531D01*
X28169Y-21398D01*
X27995Y-21325D01*
X27806Y-21325D01*
X27631Y-21397D01*
X27498Y-21531D01*
X27425Y-21705D01*
X27425Y-21894D01*
X27453Y-21964D01*
X27318Y-22100D01*
X27271Y-22100D01*
X27302Y-22069D01*
X27375Y-21895D01*
X27375Y-21706D01*
X27303Y-21531D01*
X27271Y-21500D01*
X27400Y-21500D01*
X27400Y-21499D01*
X27476Y-21485D01*
X27477Y-21485D01*
X27541Y-21441D01*
X27735Y-21246D01*
X27805Y-21275D01*
X27994Y-21275D01*
X28169Y-21203D01*
X28302Y-21069D01*
X28375Y-20895D01*
X28375Y-20706D01*
X28303Y-20531D01*
X28169Y-20398D01*
X27995Y-20325D01*
X27806Y-20325D01*
X27631Y-20397D01*
X27498Y-20531D01*
X27425Y-20705D01*
X27425Y-20894D01*
X27453Y-20964D01*
X27318Y-21100D01*
X27271Y-21100D01*
X27302Y-21069D01*
X27375Y-20895D01*
X27375Y-20706D01*
X27303Y-20531D01*
X27271Y-20500D01*
X27400Y-20500D01*
X27400Y-20499D01*
X27476Y-20485D01*
X27477Y-20485D01*
X27541Y-20441D01*
X27735Y-20246D01*
X27805Y-20275D01*
X27994Y-20275D01*
X28169Y-20203D01*
X28302Y-20069D01*
X28375Y-19895D01*
X28375Y-19706D01*
X28303Y-19531D01*
X28169Y-19398D01*
X27995Y-19325D01*
X27806Y-19325D01*
X27631Y-19397D01*
X27498Y-19531D01*
X27425Y-19705D01*
X27425Y-19894D01*
X27453Y-19964D01*
X27318Y-20100D01*
X27271Y-20100D01*
X27302Y-20069D01*
X27375Y-19895D01*
X27375Y-19706D01*
X27303Y-19531D01*
X27271Y-19500D01*
X27400Y-19500D01*
X27400Y-19499D01*
X27476Y-19485D01*
X27477Y-19485D01*
X27541Y-19441D01*
X27735Y-19246D01*
X27805Y-19275D01*
X27994Y-19275D01*
X28169Y-19203D01*
X28302Y-19069D01*
X28375Y-18895D01*
X28375Y-18706D01*
X28303Y-18531D01*
X28169Y-18398D01*
X27995Y-18325D01*
X27806Y-18325D01*
X27631Y-18397D01*
X27498Y-18531D01*
X27425Y-18705D01*
X27425Y-18894D01*
X27453Y-18964D01*
X27318Y-19100D01*
X27271Y-19100D01*
X27302Y-19069D01*
X27375Y-18895D01*
X27375Y-18706D01*
X27303Y-18531D01*
X27271Y-18500D01*
X27400Y-18500D01*
X27400Y-18499D01*
X27476Y-18485D01*
X27477Y-18485D01*
X27541Y-18441D01*
X27735Y-18246D01*
X27805Y-18275D01*
X27994Y-18275D01*
X28169Y-18203D01*
X28302Y-18069D01*
X28375Y-17895D01*
X28375Y-17706D01*
X28303Y-17531D01*
X28169Y-17398D01*
X27995Y-17325D01*
X27806Y-17325D01*
X27631Y-17397D01*
X27498Y-17531D01*
X27425Y-17705D01*
X27425Y-17894D01*
X27453Y-17964D01*
X27318Y-18100D01*
X27271Y-18100D01*
X27302Y-18069D01*
X27375Y-17895D01*
X27375Y-17706D01*
X27303Y-17531D01*
X27271Y-17500D01*
X27400Y-17500D01*
X27400Y-17499D01*
X27476Y-17485D01*
X27477Y-17485D01*
X27541Y-17441D01*
X27735Y-17246D01*
X27805Y-17275D01*
X27994Y-17275D01*
X28169Y-17203D01*
X28302Y-17069D01*
X28375Y-16895D01*
X28375Y-16706D01*
X28303Y-16531D01*
X28169Y-16398D01*
X27995Y-16325D01*
X27806Y-16325D01*
X27631Y-16397D01*
X27498Y-16531D01*
X27425Y-16705D01*
X27425Y-16894D01*
X27453Y-16964D01*
X27318Y-17100D01*
X27271Y-17100D01*
X27302Y-17069D01*
X27375Y-16895D01*
X27375Y-16706D01*
X27303Y-16531D01*
X27271Y-16500D01*
X27400Y-16500D01*
X27400Y-16499D01*
X27476Y-16485D01*
X27477Y-16485D01*
X27541Y-16441D01*
X27735Y-16246D01*
X27805Y-16275D01*
X27994Y-16275D01*
X28169Y-16203D01*
X28302Y-16069D01*
X28375Y-15895D01*
X28375Y-15706D01*
X28303Y-15531D01*
X28169Y-15398D01*
X27995Y-15325D01*
X27806Y-15325D01*
X27631Y-15397D01*
X27498Y-15531D01*
X27425Y-15705D01*
X27425Y-15894D01*
X27453Y-15964D01*
X27318Y-16100D01*
X27271Y-16100D01*
X27302Y-16069D01*
X27375Y-15895D01*
X27375Y-15706D01*
X27303Y-15531D01*
X27271Y-15500D01*
X27400Y-15500D01*
X27400Y-15499D01*
X27476Y-15485D01*
X27477Y-15485D01*
X27541Y-15441D01*
X27735Y-15246D01*
X27805Y-15275D01*
X27994Y-15275D01*
X28169Y-15203D01*
X28302Y-15069D01*
X28375Y-14895D01*
X28375Y-14706D01*
X28303Y-14531D01*
X28169Y-14398D01*
X27995Y-14325D01*
X27806Y-14325D01*
X27631Y-14397D01*
X27498Y-14531D01*
X27425Y-14705D01*
X27425Y-14894D01*
X27453Y-14964D01*
X27318Y-15100D01*
X27271Y-15100D01*
X27302Y-15069D01*
X27375Y-14895D01*
X27375Y-14706D01*
X27303Y-14531D01*
X27271Y-14500D01*
X27400Y-14500D01*
X27400Y-14499D01*
X27476Y-14485D01*
X27477Y-14485D01*
X27541Y-14441D01*
X27735Y-14246D01*
X27805Y-14275D01*
X27994Y-14275D01*
X28169Y-14203D01*
X28302Y-14069D01*
X28375Y-13895D01*
X28375Y-13706D01*
X28303Y-13531D01*
X28169Y-13398D01*
X27995Y-13325D01*
X27806Y-13325D01*
X27631Y-13397D01*
X27498Y-13531D01*
X27425Y-13705D01*
X27425Y-13894D01*
X27453Y-13964D01*
X27318Y-14100D01*
X27271Y-14100D01*
X27302Y-14069D01*
X27375Y-13895D01*
X27375Y-13706D01*
X27303Y-13531D01*
X27271Y-13500D01*
X27400Y-13500D01*
X27400Y-13499D01*
X27476Y-13485D01*
X27477Y-13485D01*
X27541Y-13441D01*
X27735Y-13246D01*
X27805Y-13275D01*
X27994Y-13275D01*
X28169Y-13203D01*
X28302Y-13069D01*
X28375Y-12895D01*
X28375Y-12706D01*
X28303Y-12531D01*
X28169Y-12398D01*
X27995Y-12325D01*
X27806Y-12325D01*
X27631Y-12397D01*
X27498Y-12531D01*
X27425Y-12705D01*
X27425Y-12894D01*
X27453Y-12964D01*
X27318Y-13100D01*
X27271Y-13100D01*
X27302Y-13069D01*
X27375Y-12895D01*
X27375Y-12706D01*
X27303Y-12531D01*
X27271Y-12500D01*
X27400Y-12500D01*
X27400Y-12499D01*
X27476Y-12485D01*
X27477Y-12485D01*
X27541Y-12441D01*
X27735Y-12246D01*
X27805Y-12275D01*
X27994Y-12275D01*
X28169Y-12203D01*
X28302Y-12069D01*
X28375Y-11895D01*
X28375Y-11706D01*
X28303Y-11531D01*
X28169Y-11398D01*
X27995Y-11325D01*
X27806Y-11325D01*
X27631Y-11397D01*
X27498Y-11531D01*
X27425Y-11705D01*
X27425Y-11894D01*
X27453Y-11964D01*
X27318Y-12100D01*
X27271Y-12100D01*
X27302Y-12069D01*
X27375Y-11895D01*
X27375Y-11706D01*
X27303Y-11531D01*
X27271Y-11500D01*
X27400Y-11500D01*
X27400Y-11499D01*
X27476Y-11485D01*
X27477Y-11485D01*
X27541Y-11441D01*
X27735Y-11246D01*
X27805Y-11275D01*
X27994Y-11275D01*
X28169Y-11203D01*
X28302Y-11069D01*
X28375Y-10895D01*
X28375Y-10706D01*
X28303Y-10531D01*
X28169Y-10398D01*
X27995Y-10325D01*
X27806Y-10325D01*
X27631Y-10397D01*
X27498Y-10531D01*
X27425Y-10705D01*
X27425Y-10894D01*
X27453Y-10964D01*
X27318Y-11100D01*
X27271Y-11100D01*
X27302Y-11069D01*
X27375Y-10895D01*
X27375Y-10706D01*
X27303Y-10531D01*
X27271Y-10500D01*
X27400Y-10500D01*
X27400Y-10499D01*
X27476Y-10485D01*
X27477Y-10485D01*
X27541Y-10441D01*
X27735Y-10246D01*
X27805Y-10275D01*
X27994Y-10275D01*
X28169Y-10203D01*
X28302Y-10069D01*
X28375Y-09895D01*
X28375Y-09706D01*
X28303Y-09531D01*
X28169Y-09398D01*
X27995Y-09325D01*
X27806Y-09325D01*
X27631Y-09397D01*
X27498Y-09531D01*
X27425Y-09705D01*
X27425Y-09894D01*
X27453Y-09964D01*
X27318Y-10100D01*
X27271Y-10100D01*
X27302Y-10069D01*
X27375Y-09895D01*
X27375Y-09706D01*
X27303Y-09531D01*
X27271Y-09500D01*
X27400Y-09500D01*
X27400Y-09499D01*
X27476Y-09485D01*
X27477Y-09485D01*
X27541Y-09441D01*
X27735Y-09246D01*
X27805Y-09275D01*
X27994Y-09275D01*
X28169Y-09203D01*
X28302Y-09069D01*
X28375Y-08895D01*
X28375Y-08706D01*
X28303Y-08531D01*
X28169Y-08398D01*
X27995Y-08325D01*
X27806Y-08325D01*
X27631Y-08397D01*
X27498Y-08531D01*
X27425Y-08705D01*
X27425Y-08894D01*
X27453Y-08964D01*
X27318Y-09100D01*
X27271Y-09100D01*
X27302Y-09069D01*
X27375Y-08895D01*
X27375Y-08706D01*
X27303Y-08531D01*
X27271Y-08500D01*
X27400Y-08500D01*
X27400Y-08499D01*
X27476Y-08485D01*
X27477Y-08485D01*
X27541Y-08441D01*
X27735Y-08246D01*
X27805Y-08275D01*
X27994Y-08275D01*
X28169Y-08203D01*
X28302Y-08069D01*
X28375Y-07895D01*
X28375Y-07706D01*
X28303Y-07531D01*
X28271Y-07500D01*
X28300Y-07500D01*
X28300Y-07499D01*
X28376Y-07485D01*
X28377Y-07485D01*
X28441Y-07441D01*
X28641Y-07242D01*
X28641Y-07241D01*
X28685Y-07177D01*
X28699Y-07101D01*
X28700Y-07100D01*
X28700Y-32550D01*
X28368Y-32550D01*
X28368Y-30725D01*
X28304Y-30552D01*
X28284Y-30522D01*
X28210Y-30492D01*
X28208Y-30493D01*
X28208Y-30490D01*
X28178Y-30416D01*
X28010Y-30339D01*
X27825Y-30332D01*
X27652Y-30396D01*
X27622Y-30416D01*
X27592Y-30490D01*
X27900Y-30799D01*
X28208Y-30490D01*
X28208Y-30493D01*
X27901Y-30800D01*
X28210Y-31108D01*
X28284Y-31078D01*
X28361Y-30910D01*
X28368Y-30725D01*
X28368Y-32550D01*
X28208Y-32550D01*
X28208Y-31110D01*
X27900Y-30801D01*
X27899Y-30802D01*
X27899Y-30800D01*
X27590Y-30492D01*
X27516Y-30522D01*
X27439Y-30690D01*
X27432Y-30875D01*
X27496Y-31048D01*
X27516Y-31078D01*
X27590Y-31108D01*
X27899Y-30800D01*
X27899Y-30802D01*
X27592Y-31110D01*
X27622Y-31184D01*
X27790Y-31261D01*
X27975Y-31268D01*
X28148Y-31204D01*
X28178Y-31184D01*
X28208Y-31110D01*
X28208Y-32550D01*
X27208Y-32550D01*
X27208Y-31110D01*
X26900Y-30801D01*
X26592Y-31110D01*
X26622Y-31184D01*
X26790Y-31261D01*
X26975Y-31268D01*
X27148Y-31204D01*
X27178Y-31184D01*
X27208Y-31110D01*
X27208Y-32550D01*
X20250Y-32550D01*
X19649Y-32550D01*
X19649Y-31490D01*
X19649Y-31311D01*
X19649Y-30490D01*
X19649Y-30311D01*
X19581Y-30146D01*
X19455Y-30020D01*
X19290Y-29951D01*
X19111Y-29951D01*
X18946Y-30019D01*
X18847Y-30118D01*
X17146Y-30118D01*
X17107Y-30102D01*
X17107Y-29748D01*
X17160Y-29726D01*
X17202Y-29684D01*
X17224Y-29629D01*
X17224Y-29570D01*
X17224Y-28770D01*
X17201Y-28715D01*
X17159Y-28673D01*
X17104Y-28651D01*
X17045Y-28651D01*
X16495Y-28651D01*
X16440Y-28674D01*
X16398Y-28716D01*
X16376Y-28771D01*
X16376Y-28830D01*
X16376Y-29630D01*
X16399Y-29685D01*
X16441Y-29727D01*
X16493Y-29747D01*
X16493Y-30101D01*
X16440Y-30124D01*
X16398Y-30166D01*
X16376Y-30221D01*
X16376Y-30280D01*
X16376Y-30630D01*
X16399Y-30685D01*
X16441Y-30727D01*
X16496Y-30749D01*
X16555Y-30749D01*
X17105Y-30749D01*
X17145Y-30732D01*
X18897Y-30732D01*
X18945Y-30780D01*
X19110Y-30849D01*
X19289Y-30849D01*
X19454Y-30781D01*
X19580Y-30655D01*
X19649Y-30490D01*
X19649Y-31311D01*
X19581Y-31146D01*
X19455Y-31020D01*
X19290Y-30951D01*
X19111Y-30951D01*
X18946Y-31019D01*
X18820Y-31145D01*
X18751Y-31310D01*
X18751Y-31415D01*
X18273Y-31893D01*
X17225Y-31893D01*
X17225Y-31213D01*
X17225Y-31137D01*
X17224Y-30970D01*
X17201Y-30915D01*
X17159Y-30873D01*
X17104Y-30851D01*
X17045Y-30851D01*
X16838Y-30850D01*
X16801Y-30887D01*
X16801Y-31174D01*
X17188Y-31174D01*
X17225Y-31137D01*
X17225Y-31213D01*
X17188Y-31176D01*
X16801Y-31176D01*
X16801Y-31463D01*
X16838Y-31500D01*
X17045Y-31499D01*
X17104Y-31499D01*
X17159Y-31477D01*
X17201Y-31435D01*
X17224Y-31380D01*
X17225Y-31213D01*
X17225Y-31893D01*
X16799Y-31893D01*
X16799Y-31463D01*
X16799Y-31176D01*
X16799Y-31174D01*
X16799Y-30887D01*
X16762Y-30850D01*
X16555Y-30851D01*
X16496Y-30851D01*
X16441Y-30873D01*
X16399Y-30915D01*
X16376Y-30970D01*
X16375Y-31137D01*
X16412Y-31174D01*
X16799Y-31174D01*
X16799Y-31176D01*
X16412Y-31176D01*
X16375Y-31213D01*
X16376Y-31380D01*
X16399Y-31435D01*
X16441Y-31477D01*
X16496Y-31499D01*
X16555Y-31499D01*
X16762Y-31500D01*
X16799Y-31463D01*
X16799Y-31893D01*
X15450Y-31893D01*
X15450Y-31238D01*
X15450Y-31162D01*
X15450Y-30338D01*
X15450Y-30262D01*
X15449Y-30055D01*
X15449Y-29996D01*
X15427Y-29941D01*
X15425Y-29939D01*
X15425Y-29238D01*
X15425Y-29162D01*
X15424Y-28830D01*
X15424Y-28771D01*
X15402Y-28716D01*
X15360Y-28674D01*
X15305Y-28651D01*
X15038Y-28650D01*
X15001Y-28687D01*
X15001Y-29199D01*
X15388Y-29199D01*
X15425Y-29162D01*
X15425Y-29238D01*
X15388Y-29201D01*
X15001Y-29201D01*
X15001Y-29713D01*
X15038Y-29750D01*
X15305Y-29749D01*
X15360Y-29726D01*
X15402Y-29684D01*
X15424Y-29629D01*
X15424Y-29570D01*
X15425Y-29238D01*
X15425Y-29939D01*
X15385Y-29899D01*
X15330Y-29876D01*
X15163Y-29875D01*
X15126Y-29912D01*
X15126Y-30299D01*
X15413Y-30299D01*
X15450Y-30262D01*
X15450Y-30338D01*
X15413Y-30301D01*
X15126Y-30301D01*
X15126Y-30688D01*
X15163Y-30725D01*
X15330Y-30724D01*
X15385Y-30701D01*
X15427Y-30659D01*
X15449Y-30604D01*
X15449Y-30545D01*
X15450Y-30338D01*
X15450Y-31162D01*
X15449Y-30955D01*
X15449Y-30896D01*
X15427Y-30841D01*
X15385Y-30799D01*
X15330Y-30776D01*
X15163Y-30775D01*
X15126Y-30812D01*
X15126Y-31199D01*
X15413Y-31199D01*
X15450Y-31162D01*
X15450Y-31238D01*
X15413Y-31201D01*
X15126Y-31201D01*
X15126Y-31588D01*
X15163Y-31625D01*
X15330Y-31624D01*
X15385Y-31601D01*
X15427Y-31559D01*
X15449Y-31504D01*
X15449Y-31445D01*
X15450Y-31238D01*
X15450Y-31893D01*
X15124Y-31893D01*
X15124Y-31588D01*
X15124Y-31201D01*
X15124Y-31199D01*
X15124Y-30812D01*
X15124Y-30688D01*
X15124Y-30301D01*
X15124Y-30299D01*
X15124Y-29912D01*
X15087Y-29875D01*
X14999Y-29875D01*
X14999Y-29713D01*
X14999Y-29201D01*
X14999Y-29199D01*
X14999Y-28687D01*
X14962Y-28650D01*
X14695Y-28651D01*
X14640Y-28674D01*
X14598Y-28716D01*
X14576Y-28771D01*
X14576Y-28830D01*
X14575Y-29162D01*
X14612Y-29199D01*
X14999Y-29199D01*
X14999Y-29201D01*
X14612Y-29201D01*
X14575Y-29238D01*
X14576Y-29570D01*
X14576Y-29629D01*
X14598Y-29684D01*
X14640Y-29726D01*
X14695Y-29749D01*
X14962Y-29750D01*
X14999Y-29713D01*
X14999Y-29875D01*
X14920Y-29876D01*
X14865Y-29899D01*
X14823Y-29941D01*
X14801Y-29996D01*
X14801Y-30055D01*
X14800Y-30262D01*
X14837Y-30299D01*
X15124Y-30299D01*
X15124Y-30301D01*
X14837Y-30301D01*
X14800Y-30338D01*
X14801Y-30545D01*
X14801Y-30604D01*
X14823Y-30659D01*
X14865Y-30701D01*
X14920Y-30724D01*
X15087Y-30725D01*
X15124Y-30688D01*
X15124Y-30812D01*
X15087Y-30775D01*
X14920Y-30776D01*
X14865Y-30799D01*
X14823Y-30841D01*
X14801Y-30896D01*
X14801Y-30955D01*
X14800Y-31162D01*
X14837Y-31199D01*
X15124Y-31199D01*
X15124Y-31201D01*
X14837Y-31201D01*
X14800Y-31238D01*
X14801Y-31445D01*
X14801Y-31504D01*
X14823Y-31559D01*
X14865Y-31601D01*
X14920Y-31624D01*
X15087Y-31625D01*
X15124Y-31588D01*
X15124Y-31893D01*
X14475Y-31893D01*
X14475Y-28363D01*
X14475Y-28287D01*
X14474Y-28120D01*
X14451Y-28065D01*
X14409Y-28023D01*
X14354Y-28001D01*
X14295Y-28001D01*
X14088Y-28000D01*
X14051Y-28037D01*
X14051Y-28324D01*
X14438Y-28324D01*
X14475Y-28287D01*
X14475Y-28363D01*
X14438Y-28326D01*
X14051Y-28326D01*
X14051Y-28613D01*
X14088Y-28650D01*
X14295Y-28649D01*
X14354Y-28649D01*
X14409Y-28627D01*
X14451Y-28585D01*
X14474Y-28530D01*
X14475Y-28363D01*
X14475Y-31893D01*
X14195Y-31893D01*
X14195Y-30738D01*
X14195Y-30662D01*
X14194Y-29785D01*
X14194Y-29726D01*
X14172Y-29671D01*
X14130Y-29629D01*
X14075Y-29606D01*
X14049Y-29605D01*
X14049Y-28613D01*
X14049Y-28326D01*
X14049Y-28324D01*
X14049Y-28037D01*
X14012Y-28000D01*
X13805Y-28001D01*
X13746Y-28001D01*
X13691Y-28023D01*
X13649Y-28065D01*
X13626Y-28120D01*
X13625Y-28287D01*
X13662Y-28324D01*
X14049Y-28324D01*
X14049Y-28326D01*
X13662Y-28326D01*
X13625Y-28363D01*
X13626Y-28530D01*
X13649Y-28585D01*
X13691Y-28627D01*
X13746Y-28649D01*
X13805Y-28649D01*
X14012Y-28650D01*
X14049Y-28613D01*
X14049Y-29605D01*
X13138Y-29605D01*
X13101Y-29642D01*
X13101Y-30699D01*
X14158Y-30699D01*
X14195Y-30662D01*
X14195Y-30738D01*
X14158Y-30701D01*
X13101Y-30701D01*
X13101Y-31758D01*
X13138Y-31795D01*
X14075Y-31794D01*
X14130Y-31771D01*
X14172Y-31729D01*
X14194Y-31674D01*
X14194Y-31615D01*
X14195Y-30738D01*
X14195Y-31893D01*
X13099Y-31893D01*
X13099Y-31758D01*
X13099Y-30701D01*
X12042Y-30701D01*
X12005Y-30738D01*
X12006Y-31615D01*
X12006Y-31674D01*
X12028Y-31729D01*
X12070Y-31771D01*
X12125Y-31794D01*
X13062Y-31795D01*
X13099Y-31758D01*
X13099Y-31893D01*
X11780Y-31893D01*
X11780Y-30528D01*
X11631Y-30128D01*
X11585Y-30058D01*
X11448Y-29953D01*
X11447Y-29954D01*
X11447Y-29952D01*
X11342Y-29815D01*
X10955Y-29637D01*
X10528Y-29620D01*
X10128Y-29769D01*
X10058Y-29815D01*
X09953Y-29952D01*
X10700Y-30699D01*
X11447Y-29952D01*
X11447Y-29954D01*
X10701Y-30700D01*
X11448Y-31447D01*
X11585Y-31342D01*
X11763Y-30955D01*
X11780Y-30528D01*
X11780Y-31893D01*
X11447Y-31893D01*
X11447Y-31448D01*
X10700Y-30701D01*
X10699Y-30702D01*
X10699Y-30700D01*
X09952Y-29953D01*
X09815Y-30058D01*
X09637Y-30445D01*
X09620Y-30872D01*
X09769Y-31272D01*
X09815Y-31342D01*
X09952Y-31447D01*
X10699Y-30700D01*
X10699Y-30702D01*
X09953Y-31448D01*
X10058Y-31585D01*
X10445Y-31763D01*
X10872Y-31780D01*
X11272Y-31631D01*
X11342Y-31585D01*
X11447Y-31448D01*
X11447Y-31893D01*
X09527Y-31893D01*
X09207Y-31573D01*
X09207Y-29427D01*
X09627Y-29007D01*
X10542Y-29007D01*
X10671Y-29320D01*
X10979Y-29628D01*
X11381Y-29795D01*
X11817Y-29795D01*
X12010Y-29715D01*
X12006Y-29726D01*
X12006Y-29785D01*
X12005Y-30662D01*
X12042Y-30699D01*
X13099Y-30699D01*
X13099Y-29642D01*
X13062Y-29605D01*
X12243Y-29605D01*
X12528Y-29321D01*
X12695Y-28919D01*
X12695Y-28483D01*
X12529Y-28080D01*
X12281Y-27832D01*
X12281Y-26898D01*
X12281Y-26627D01*
X12177Y-26377D01*
X11986Y-26185D01*
X11736Y-26081D01*
X11465Y-26081D01*
X11215Y-26185D01*
X11023Y-26376D01*
X10919Y-26626D01*
X10919Y-26897D01*
X11023Y-27147D01*
X11214Y-27339D01*
X11464Y-27443D01*
X11735Y-27443D01*
X11985Y-27339D01*
X12177Y-27148D01*
X12281Y-26898D01*
X12281Y-27832D01*
X12221Y-27772D01*
X11819Y-27605D01*
X11383Y-27605D01*
X10980Y-27771D01*
X10672Y-28079D01*
X10541Y-28393D01*
X09500Y-28393D01*
X09383Y-28416D01*
X09283Y-28483D01*
X08683Y-29083D01*
X08616Y-29182D01*
X08593Y-29300D01*
X08593Y-31700D01*
X08616Y-31818D01*
X08683Y-31917D01*
X09183Y-32417D01*
X09282Y-32483D01*
X09283Y-32484D01*
X09400Y-32507D01*
X18400Y-32507D01*
X18517Y-32484D01*
X18518Y-32484D01*
X18617Y-32417D01*
X19185Y-31849D01*
X19289Y-31849D01*
X19454Y-31781D01*
X19580Y-31655D01*
X19649Y-31490D01*
X19649Y-32550D01*
X07750Y-32550D01*
X07750Y-05250D01*
X29150Y-05250D01*
X29150Y-32550D01*
M02*
