G04 (created by PCBNEW-RS274X (2011-03-30 BZR 2932)-stable) date 28/04/2011 12:56:03 p.m.*
G01*
G70*
G90*
%MOIN*%
G04 Gerber Fmt 3.4, Leading zero omitted, Abs format*
%FSLAX34Y34*%
G04 APERTURE LIST*
%ADD10C,0.006000*%
%ADD11R,0.055000X0.010500*%
%ADD12R,0.010500X0.055000*%
%ADD13C,0.050000*%
%ADD14R,0.035000X0.055000*%
%ADD15R,0.055000X0.035000*%
%ADD16C,0.060000*%
%ADD17C,0.106300*%
%ADD18R,0.150000X0.080000*%
%ADD19R,0.055000X0.080000*%
%ADD20C,0.065000*%
%ADD21C,0.189000*%
%ADD22R,0.189000X0.189000*%
%ADD23R,0.060000X0.060000*%
%ADD24C,0.086600*%
%ADD25C,0.059100*%
%ADD26C,0.118100*%
%ADD27R,0.055000X0.055000*%
%ADD28C,0.055000*%
%ADD29C,0.031500*%
%ADD30C,0.010000*%
G04 APERTURE END LIST*
G54D10*
G54D11*
X15541Y-13728D03*
G54D12*
X16228Y-18159D03*
G54D10*
G36*
X20384Y-17420D02*
X20934Y-17420D01*
X20934Y-17524D01*
X20384Y-17524D01*
X20384Y-17420D01*
X20384Y-17420D01*
G37*
G54D12*
X19972Y-13041D03*
G54D11*
X15541Y-13925D03*
G54D12*
X16425Y-18159D03*
G54D10*
G36*
X20384Y-17223D02*
X20934Y-17223D01*
X20934Y-17327D01*
X20384Y-17327D01*
X20384Y-17223D01*
X20384Y-17223D01*
G37*
G54D12*
X19775Y-13041D03*
G54D11*
X15541Y-14122D03*
G54D12*
X16622Y-18159D03*
G54D10*
G36*
X20384Y-17026D02*
X20934Y-17026D01*
X20934Y-17130D01*
X20384Y-17130D01*
X20384Y-17026D01*
X20384Y-17026D01*
G37*
G54D12*
X19578Y-13041D03*
G54D11*
X15541Y-14319D03*
G54D12*
X16819Y-18159D03*
G54D10*
G36*
X20384Y-16829D02*
X20934Y-16829D01*
X20934Y-16933D01*
X20384Y-16933D01*
X20384Y-16829D01*
X20384Y-16829D01*
G37*
G54D12*
X19381Y-13041D03*
G54D11*
X15541Y-14516D03*
G54D12*
X17016Y-18159D03*
G54D10*
G36*
X20384Y-16632D02*
X20934Y-16632D01*
X20934Y-16736D01*
X20384Y-16736D01*
X20384Y-16632D01*
X20384Y-16632D01*
G37*
G54D12*
X19184Y-13041D03*
G54D11*
X15541Y-14713D03*
G54D12*
X17213Y-18159D03*
G54D10*
G36*
X20384Y-16435D02*
X20934Y-16435D01*
X20934Y-16539D01*
X20384Y-16539D01*
X20384Y-16435D01*
X20384Y-16435D01*
G37*
G54D12*
X18987Y-13041D03*
G54D11*
X15541Y-14910D03*
G54D12*
X17410Y-18159D03*
G54D10*
G36*
X20384Y-16238D02*
X20934Y-16238D01*
X20934Y-16342D01*
X20384Y-16342D01*
X20384Y-16238D01*
X20384Y-16238D01*
G37*
G54D12*
X18790Y-13041D03*
G54D11*
X15541Y-15107D03*
G54D12*
X17607Y-18159D03*
G54D10*
G36*
X20384Y-16041D02*
X20934Y-16041D01*
X20934Y-16145D01*
X20384Y-16145D01*
X20384Y-16041D01*
X20384Y-16041D01*
G37*
G54D12*
X18593Y-13041D03*
G54D11*
X15541Y-15304D03*
G54D12*
X17804Y-18159D03*
G54D10*
G36*
X20384Y-15844D02*
X20934Y-15844D01*
X20934Y-15948D01*
X20384Y-15948D01*
X20384Y-15844D01*
X20384Y-15844D01*
G37*
G54D12*
X18396Y-13041D03*
G54D11*
X15541Y-15501D03*
G54D12*
X18001Y-18159D03*
G54D10*
G36*
X20384Y-15647D02*
X20934Y-15647D01*
X20934Y-15751D01*
X20384Y-15751D01*
X20384Y-15647D01*
X20384Y-15647D01*
G37*
G54D12*
X18199Y-13041D03*
G54D11*
X15541Y-15698D03*
G54D12*
X18198Y-18159D03*
G54D10*
G36*
X20384Y-15450D02*
X20934Y-15450D01*
X20934Y-15554D01*
X20384Y-15554D01*
X20384Y-15450D01*
X20384Y-15450D01*
G37*
G54D12*
X18002Y-13041D03*
G54D11*
X15541Y-15895D03*
G54D12*
X18395Y-18159D03*
G54D10*
G36*
X20384Y-15253D02*
X20934Y-15253D01*
X20934Y-15357D01*
X20384Y-15357D01*
X20384Y-15253D01*
X20384Y-15253D01*
G37*
G54D12*
X17805Y-13041D03*
G54D11*
X15541Y-16092D03*
G54D12*
X18592Y-18159D03*
G54D10*
G36*
X20384Y-15056D02*
X20934Y-15056D01*
X20934Y-15160D01*
X20384Y-15160D01*
X20384Y-15056D01*
X20384Y-15056D01*
G37*
G54D12*
X17608Y-13041D03*
G54D11*
X15541Y-16289D03*
G54D12*
X18789Y-18159D03*
G54D10*
G36*
X20384Y-14859D02*
X20934Y-14859D01*
X20934Y-14963D01*
X20384Y-14963D01*
X20384Y-14859D01*
X20384Y-14859D01*
G37*
G54D12*
X17411Y-13041D03*
G54D11*
X15541Y-16486D03*
G54D12*
X18986Y-18159D03*
G54D10*
G36*
X20384Y-14662D02*
X20934Y-14662D01*
X20934Y-14766D01*
X20384Y-14766D01*
X20384Y-14662D01*
X20384Y-14662D01*
G37*
G54D12*
X17214Y-13041D03*
G54D11*
X15541Y-16683D03*
G54D12*
X19183Y-18159D03*
G54D10*
G36*
X20384Y-14465D02*
X20934Y-14465D01*
X20934Y-14569D01*
X20384Y-14569D01*
X20384Y-14465D01*
X20384Y-14465D01*
G37*
G54D12*
X17017Y-13041D03*
G54D11*
X15541Y-16880D03*
G54D12*
X19380Y-18159D03*
G54D10*
G36*
X20384Y-14268D02*
X20934Y-14268D01*
X20934Y-14372D01*
X20384Y-14372D01*
X20384Y-14268D01*
X20384Y-14268D01*
G37*
G54D12*
X16820Y-13041D03*
G54D11*
X15541Y-17077D03*
G54D12*
X19577Y-18159D03*
G54D10*
G36*
X20384Y-14071D02*
X20934Y-14071D01*
X20934Y-14175D01*
X20384Y-14175D01*
X20384Y-14071D01*
X20384Y-14071D01*
G37*
G54D12*
X16623Y-13041D03*
G54D11*
X15541Y-17274D03*
G54D12*
X19774Y-18159D03*
G54D10*
G36*
X20384Y-13874D02*
X20934Y-13874D01*
X20934Y-13978D01*
X20384Y-13978D01*
X20384Y-13874D01*
X20384Y-13874D01*
G37*
G54D12*
X16426Y-13041D03*
G54D11*
X15541Y-17471D03*
G54D12*
X19971Y-18159D03*
G54D10*
G36*
X20384Y-13677D02*
X20934Y-13677D01*
X20934Y-13781D01*
X20384Y-13781D01*
X20384Y-13677D01*
X20384Y-13677D01*
G37*
G54D12*
X16229Y-13041D03*
G54D13*
X12700Y-16800D03*
X12700Y-15800D03*
G54D14*
X14325Y-08300D03*
X15075Y-08300D03*
X13625Y-15100D03*
X14375Y-15100D03*
X22575Y-17500D03*
X21825Y-17500D03*
X22575Y-14200D03*
X21825Y-14200D03*
G54D15*
X19000Y-11025D03*
X19000Y-11775D03*
X16600Y-11125D03*
X16600Y-11875D03*
X18900Y-20375D03*
X18900Y-19625D03*
X15700Y-19775D03*
X15700Y-19025D03*
G54D14*
X10575Y-20900D03*
X09825Y-20900D03*
X12625Y-20900D03*
X13375Y-20900D03*
X11225Y-15000D03*
X11975Y-15000D03*
X11225Y-17600D03*
X11975Y-17600D03*
X13675Y-08300D03*
X12925Y-08300D03*
G54D16*
X14000Y-09216D03*
X14000Y-11184D03*
G54D14*
X14925Y-21500D03*
X15675Y-21500D03*
X14925Y-22600D03*
X15675Y-22600D03*
G54D16*
X13450Y-23900D03*
X13450Y-24900D03*
X12663Y-24900D03*
X12663Y-23900D03*
G54D17*
X11600Y-22038D03*
X11600Y-26762D03*
G54D14*
X14925Y-24400D03*
X15675Y-24400D03*
X14925Y-25300D03*
X15675Y-25300D03*
X14925Y-23500D03*
X15675Y-23500D03*
G54D15*
X16800Y-30425D03*
X16800Y-31175D03*
G54D14*
X15875Y-31200D03*
X15125Y-31200D03*
X15875Y-30300D03*
X15125Y-30300D03*
G54D18*
X15900Y-26600D03*
G54D19*
X15900Y-29200D03*
X16800Y-29200D03*
X15000Y-29200D03*
G54D20*
X27900Y-18800D03*
X26900Y-18800D03*
X27900Y-17800D03*
X26900Y-17800D03*
X27900Y-16800D03*
X26900Y-16800D03*
X26900Y-13800D03*
X27900Y-13800D03*
X26900Y-14800D03*
X27900Y-14800D03*
X26900Y-15800D03*
X27900Y-15800D03*
X27900Y-09800D03*
X26900Y-09800D03*
X27900Y-08800D03*
X26900Y-08800D03*
X26900Y-10800D03*
X27900Y-10800D03*
X26900Y-11800D03*
X27900Y-11800D03*
X26900Y-12800D03*
X27900Y-12800D03*
X27900Y-24800D03*
X26900Y-24800D03*
X27900Y-23800D03*
X26900Y-23800D03*
X27900Y-22800D03*
X26900Y-22800D03*
X26900Y-19800D03*
X27900Y-19800D03*
X26900Y-20800D03*
X27900Y-20800D03*
X26900Y-21800D03*
X27900Y-21800D03*
X27900Y-27800D03*
X26900Y-27800D03*
X27900Y-26800D03*
X26900Y-26800D03*
X27900Y-25800D03*
X26900Y-25800D03*
X26900Y-06800D03*
X27900Y-06800D03*
X26900Y-07800D03*
X27900Y-07800D03*
X26900Y-28800D03*
X27900Y-28800D03*
X26900Y-29800D03*
X27900Y-29800D03*
X26900Y-30800D03*
X27900Y-30800D03*
G54D21*
X10700Y-30700D03*
G54D22*
X13100Y-30700D03*
G54D21*
X11600Y-28700D03*
G54D23*
X22500Y-19200D03*
G54D16*
X21500Y-19200D03*
G54D15*
X14050Y-27575D03*
X14050Y-28325D03*
G54D14*
X21025Y-18300D03*
X21775Y-18300D03*
G54D23*
X19200Y-29400D03*
G54D16*
X19200Y-30400D03*
X19200Y-31400D03*
G54D24*
X10535Y-19500D03*
X12465Y-19500D03*
G54D23*
X10200Y-10950D03*
G54D16*
X09200Y-10950D03*
X10200Y-11950D03*
X09200Y-11950D03*
X10200Y-12950D03*
X09200Y-12950D03*
X10200Y-13950D03*
X09200Y-13950D03*
G54D25*
X09803Y-23009D03*
X09803Y-24009D03*
X09803Y-24809D03*
X09803Y-25809D03*
G54D26*
X08753Y-21809D03*
X08753Y-27209D03*
G54D27*
X18700Y-27550D03*
G54D28*
X19700Y-27550D03*
G54D27*
X21450Y-29050D03*
G54D28*
X21450Y-30050D03*
G54D15*
X17850Y-28125D03*
X17850Y-28875D03*
X17850Y-26625D03*
X17850Y-27375D03*
G54D20*
X15450Y-18400D03*
X17050Y-25650D03*
X19800Y-20700D03*
X16550Y-10450D03*
X23300Y-14200D03*
X23150Y-20400D03*
X17425Y-23225D03*
X10200Y-15000D03*
X10200Y-17600D03*
X15125Y-20350D03*
G54D29*
X17850Y-28125D02*
X17375Y-28125D01*
X17000Y-27750D02*
X17000Y-26600D01*
X17375Y-28125D02*
X17000Y-27750D01*
X15900Y-26600D02*
X17000Y-26600D01*
X17000Y-26600D02*
X17825Y-26600D01*
X17825Y-26600D02*
X17850Y-26625D01*
X15075Y-08300D02*
X15150Y-08300D01*
X15150Y-08300D02*
X16125Y-09275D01*
X15800Y-13150D02*
X15550Y-12900D01*
X25400Y-08300D02*
X26900Y-06800D01*
X17100Y-08300D02*
X25400Y-08300D01*
X15400Y-10000D02*
X16125Y-09275D01*
X16125Y-09275D02*
X17100Y-08300D01*
X15400Y-10050D02*
X15400Y-10000D01*
X15400Y-12750D02*
X15400Y-10050D01*
X15450Y-12800D02*
X15400Y-12750D01*
X15500Y-12850D02*
X15450Y-12800D01*
X15550Y-12900D02*
X15500Y-12850D01*
G54D30*
X16650Y-15107D02*
X16650Y-16400D01*
X16367Y-16683D02*
X15541Y-16683D01*
X16650Y-16400D02*
X16367Y-16683D01*
G54D29*
X15400Y-13350D02*
X15600Y-13350D01*
X10450Y-10950D02*
X10800Y-11300D01*
X10800Y-11300D02*
X10800Y-11850D01*
X10800Y-11850D02*
X11050Y-12100D01*
X11050Y-12100D02*
X12600Y-12100D01*
X12600Y-12100D02*
X13850Y-13350D01*
X13850Y-13350D02*
X15400Y-13350D01*
X10200Y-10950D02*
X10450Y-10950D01*
X15600Y-13350D02*
X15800Y-13150D01*
G54D30*
X16256Y-13600D02*
X15800Y-13150D01*
X16256Y-13600D02*
X16820Y-13600D01*
G54D29*
X15900Y-26600D02*
X16100Y-26600D01*
X15700Y-18650D02*
X15450Y-18400D01*
X15700Y-18650D02*
X15700Y-19025D01*
X16100Y-26600D02*
X17050Y-25650D01*
X27900Y-06800D02*
X26900Y-06800D01*
G54D30*
X16228Y-19000D02*
X16228Y-22947D01*
X16228Y-22947D02*
X15675Y-23500D01*
X21825Y-17500D02*
X21825Y-18250D01*
X21825Y-18250D02*
X21775Y-18300D01*
G54D29*
X14050Y-27575D02*
X15900Y-27575D01*
X15900Y-27575D02*
X15875Y-27550D01*
X15875Y-27550D02*
X15850Y-27550D01*
X15850Y-27550D02*
X15900Y-27550D01*
G54D30*
X18790Y-13041D02*
X18790Y-11985D01*
X18790Y-11985D02*
X19000Y-11775D01*
X18789Y-18159D02*
X18789Y-19514D01*
X18789Y-19514D02*
X18900Y-19625D01*
X20659Y-17275D02*
X21600Y-17275D01*
X21600Y-17275D02*
X21825Y-17500D01*
X20659Y-14517D02*
X21508Y-14517D01*
X21508Y-14517D02*
X21825Y-14200D01*
X16820Y-13041D02*
X16820Y-12095D01*
X16820Y-12095D02*
X16600Y-11875D01*
X15541Y-15107D02*
X14382Y-15107D01*
X14382Y-15107D02*
X14375Y-15100D01*
X16228Y-18159D02*
X16228Y-17372D01*
X16228Y-17372D02*
X18100Y-15500D01*
X18099Y-15501D02*
X18100Y-15500D01*
X16820Y-13041D02*
X16820Y-13600D01*
X16820Y-13600D02*
X16820Y-14222D01*
X16820Y-14222D02*
X18099Y-15501D01*
X18790Y-13041D02*
X18790Y-14810D01*
X18790Y-14810D02*
X18099Y-15501D01*
X20659Y-14517D02*
X19083Y-14517D01*
X19083Y-14517D02*
X18099Y-15501D01*
X20659Y-17275D02*
X19873Y-17275D01*
X19873Y-17275D02*
X18099Y-15501D01*
X18789Y-18159D02*
X18789Y-16191D01*
X18789Y-16191D02*
X18099Y-15501D01*
X15541Y-15107D02*
X16100Y-15107D01*
X16100Y-15107D02*
X16650Y-15107D01*
X16650Y-15107D02*
X17707Y-15107D01*
X17707Y-15107D02*
X18100Y-15500D01*
X18099Y-15501D02*
X18100Y-15500D01*
X15541Y-15501D02*
X15999Y-15501D01*
X16100Y-15400D02*
X16100Y-15107D01*
X15999Y-15501D02*
X16100Y-15400D01*
X16228Y-18159D02*
X16228Y-19000D01*
X15700Y-19025D02*
X16228Y-19025D01*
X16228Y-19025D02*
X16203Y-19000D01*
X16203Y-19000D02*
X16200Y-19000D01*
X16200Y-19000D02*
X16228Y-19000D01*
X15875Y-31200D02*
X15875Y-30300D01*
G54D29*
X15875Y-30300D02*
X15900Y-30275D01*
X15900Y-30275D02*
X15900Y-27550D01*
X15900Y-27550D02*
X15900Y-26600D01*
G54D30*
X15875Y-30300D02*
X15875Y-29225D01*
X15875Y-29225D02*
X15900Y-29200D01*
G54D29*
X11700Y-32100D02*
X13100Y-30700D01*
X09900Y-32100D02*
X11700Y-32100D01*
X09350Y-31550D02*
X09900Y-32100D01*
X09350Y-29650D02*
X09350Y-31550D01*
X09803Y-29197D02*
X09350Y-29650D01*
X09803Y-25809D02*
X09803Y-29197D01*
X18450Y-32150D02*
X19200Y-31400D01*
X13750Y-32150D02*
X18450Y-32150D01*
X13100Y-31500D02*
X13750Y-32150D01*
X13100Y-30700D02*
X13100Y-31500D01*
G54D30*
X27400Y-25300D02*
X27900Y-24800D01*
X25900Y-25300D02*
X27400Y-25300D01*
X19380Y-18780D02*
X25900Y-25300D01*
X19380Y-18159D02*
X19380Y-18780D01*
X19577Y-18159D02*
X19577Y-18677D01*
X25700Y-24800D02*
X26900Y-24800D01*
X19577Y-18677D02*
X25700Y-24800D01*
X19774Y-18159D02*
X19774Y-18574D01*
X27400Y-24300D02*
X27900Y-23800D01*
X25500Y-24300D02*
X27400Y-24300D01*
X19774Y-18574D02*
X25500Y-24300D01*
X19971Y-18159D02*
X19971Y-18471D01*
X25300Y-23800D02*
X26900Y-23800D01*
X19971Y-18471D02*
X25300Y-23800D01*
X20659Y-16290D02*
X22958Y-16290D01*
X26300Y-21800D02*
X26900Y-21800D01*
X24593Y-20093D02*
X26300Y-21800D01*
X24593Y-17925D02*
X24593Y-20093D01*
X22958Y-16290D02*
X24593Y-17925D01*
X24824Y-17900D02*
X24824Y-19524D01*
X23017Y-16093D02*
X24824Y-17900D01*
X20659Y-16093D02*
X23017Y-16093D01*
X27400Y-21300D02*
X27900Y-20800D01*
X26600Y-21300D02*
X27400Y-21300D01*
X24824Y-19524D02*
X26600Y-21300D01*
X20659Y-16487D02*
X22899Y-16487D01*
X27400Y-22300D02*
X27900Y-21800D01*
X26400Y-22300D02*
X27400Y-22300D01*
X24362Y-20262D02*
X26400Y-22300D01*
X24362Y-17950D02*
X24362Y-20262D01*
X22899Y-16487D02*
X24362Y-17950D01*
X24131Y-20431D02*
X26500Y-22800D01*
X24131Y-17975D02*
X24131Y-20431D01*
X22840Y-16684D02*
X24131Y-17975D01*
X20659Y-16684D02*
X22840Y-16684D01*
X26500Y-22800D02*
X26900Y-22800D01*
X16426Y-13041D02*
X16426Y-12682D01*
X17400Y-08800D02*
X26900Y-08800D01*
X15919Y-10281D02*
X17400Y-08800D01*
X15919Y-12175D02*
X15919Y-10281D01*
X16426Y-12682D02*
X15919Y-12175D01*
X23900Y-18000D02*
X23900Y-20600D01*
X22781Y-16881D02*
X23900Y-18000D01*
X20659Y-16881D02*
X22781Y-16881D01*
X27400Y-23300D02*
X27900Y-22800D01*
X26600Y-23300D02*
X27400Y-23300D01*
X23900Y-20600D02*
X26600Y-23300D01*
X16229Y-13041D02*
X16229Y-12741D01*
X27400Y-08300D02*
X27900Y-07800D01*
X26400Y-08300D02*
X27400Y-08300D01*
X26081Y-08619D02*
X26400Y-08300D01*
X17231Y-08619D02*
X26081Y-08619D01*
X15700Y-10150D02*
X17231Y-08619D01*
X15700Y-12212D02*
X15700Y-10150D01*
X16229Y-12741D02*
X15700Y-12212D01*
X27400Y-14300D02*
X27900Y-13800D01*
X26436Y-14300D02*
X27400Y-14300D01*
X24393Y-12257D02*
X26436Y-14300D01*
X19731Y-12257D02*
X24393Y-12257D01*
X19381Y-12607D02*
X19731Y-12257D01*
X19381Y-13041D02*
X19381Y-12607D01*
X26480Y-14800D02*
X26900Y-14800D01*
X24118Y-12438D02*
X26480Y-14800D01*
X19806Y-12438D02*
X24118Y-12438D01*
X19578Y-12666D02*
X19806Y-12438D01*
X19578Y-13041D02*
X19578Y-12666D01*
X19775Y-13041D02*
X19775Y-12725D01*
X19775Y-12725D02*
X19881Y-12619D01*
X19881Y-12619D02*
X23843Y-12619D01*
X23843Y-12619D02*
X26524Y-15300D01*
X26524Y-15300D02*
X27400Y-15300D01*
X27400Y-15300D02*
X27900Y-14800D01*
X19972Y-12878D02*
X20050Y-12800D01*
X19972Y-13041D02*
X19972Y-12878D01*
X26550Y-15800D02*
X26900Y-15800D01*
X23550Y-12800D02*
X26550Y-15800D01*
X20050Y-12800D02*
X23550Y-12800D01*
X17017Y-13041D02*
X17017Y-09883D01*
X27400Y-09300D02*
X27900Y-08800D01*
X26400Y-09300D02*
X27400Y-09300D01*
X26100Y-09000D02*
X26400Y-09300D01*
X17900Y-09000D02*
X26100Y-09000D01*
X17017Y-09883D02*
X17900Y-09000D01*
X17214Y-09986D02*
X17981Y-09219D01*
X17214Y-13041D02*
X17214Y-09986D01*
X26400Y-09800D02*
X26900Y-09800D01*
X25819Y-09219D02*
X26400Y-09800D01*
X17981Y-09219D02*
X25819Y-09219D01*
X18400Y-10000D02*
X24700Y-10000D01*
X18002Y-10398D02*
X18400Y-10000D01*
X18002Y-13041D02*
X18002Y-10398D01*
X26500Y-11800D02*
X26900Y-11800D01*
X24700Y-10000D02*
X26500Y-11800D01*
X18199Y-10501D02*
X18500Y-10200D01*
X18199Y-13041D02*
X18199Y-10501D01*
X27400Y-12300D02*
X27900Y-11800D01*
X26500Y-12300D02*
X27400Y-12300D01*
X24400Y-10200D02*
X26500Y-12300D01*
X18500Y-10200D02*
X24400Y-10200D01*
X18600Y-10400D02*
X24000Y-10400D01*
X18396Y-10604D02*
X18600Y-10400D01*
X18396Y-13041D02*
X18396Y-10604D01*
X26400Y-12800D02*
X26900Y-12800D01*
X24000Y-10400D02*
X26400Y-12800D01*
X27900Y-29800D02*
X28300Y-29800D01*
X22700Y-31300D02*
X21450Y-30050D01*
X28250Y-31300D02*
X22700Y-31300D01*
X28400Y-31150D02*
X28250Y-31300D01*
X28400Y-29900D02*
X28400Y-31150D01*
X28300Y-29800D02*
X28400Y-29900D01*
X26100Y-30300D02*
X27400Y-30300D01*
X17016Y-21216D02*
X26100Y-30300D01*
X17016Y-18159D02*
X17016Y-21216D01*
X27400Y-30300D02*
X27900Y-29800D01*
X17213Y-18159D02*
X17213Y-21137D01*
X25876Y-29800D02*
X26900Y-29800D01*
X17213Y-21137D02*
X25876Y-29800D01*
X17410Y-21078D02*
X25632Y-29300D01*
X17410Y-18159D02*
X17410Y-21078D01*
X27400Y-29300D02*
X27900Y-28800D01*
X25632Y-29300D02*
X27400Y-29300D01*
X17607Y-18159D02*
X17607Y-21019D01*
X25388Y-28800D02*
X26900Y-28800D01*
X17607Y-21019D02*
X25388Y-28800D01*
X25144Y-28300D02*
X27400Y-28300D01*
X17804Y-20960D02*
X25144Y-28300D01*
X17804Y-18159D02*
X17804Y-20960D01*
X27400Y-28300D02*
X27900Y-27800D01*
X18001Y-18159D02*
X18001Y-20901D01*
X24900Y-27800D02*
X26900Y-27800D01*
X18001Y-20901D02*
X24900Y-27800D01*
X24700Y-27300D02*
X27400Y-27300D01*
X18198Y-20798D02*
X24700Y-27300D01*
X18198Y-18159D02*
X18198Y-20798D01*
X27400Y-27300D02*
X27900Y-26800D01*
X24500Y-26800D02*
X26900Y-26800D01*
X18395Y-20695D02*
X24500Y-26800D01*
X18395Y-18159D02*
X18395Y-20695D01*
X27400Y-26300D02*
X27900Y-25800D01*
X26300Y-26300D02*
X27400Y-26300D01*
X18986Y-18986D02*
X26300Y-26300D01*
X18986Y-18159D02*
X18986Y-18986D01*
X19183Y-18883D02*
X26100Y-25800D01*
X19183Y-18159D02*
X19183Y-18883D01*
X26100Y-25800D02*
X26900Y-25800D01*
X26400Y-10300D02*
X27400Y-10300D01*
X25500Y-09400D02*
X26400Y-10300D01*
X18100Y-09400D02*
X25500Y-09400D01*
X17411Y-10089D02*
X18100Y-09400D01*
X17411Y-13041D02*
X17411Y-10089D01*
X27400Y-10300D02*
X27900Y-09800D01*
X25300Y-09600D02*
X26500Y-10800D01*
X18200Y-09600D02*
X25300Y-09600D01*
X17608Y-10192D02*
X18200Y-09600D01*
X17608Y-13041D02*
X17608Y-10192D01*
X26500Y-10800D02*
X26900Y-10800D01*
X27400Y-11300D02*
X27900Y-10800D01*
X26500Y-11300D02*
X27400Y-11300D01*
X25000Y-09800D02*
X26500Y-11300D01*
X18300Y-09800D02*
X25000Y-09800D01*
X17805Y-10295D02*
X18300Y-09800D01*
X17805Y-13041D02*
X17805Y-10295D01*
X20957Y-13543D02*
X20957Y-13700D01*
X21350Y-13150D02*
X20957Y-13543D01*
X23506Y-13150D02*
X21350Y-13150D01*
X26656Y-16300D02*
X23506Y-13150D01*
X27400Y-16300D02*
X26656Y-16300D01*
X27900Y-15800D02*
X27400Y-16300D01*
X20928Y-13729D02*
X20659Y-13729D01*
X20957Y-13700D02*
X20928Y-13729D01*
X20659Y-13926D02*
X21062Y-13926D01*
X23438Y-13338D02*
X26900Y-16800D01*
X21450Y-13338D02*
X23438Y-13338D01*
X21138Y-13650D02*
X21450Y-13338D01*
X21138Y-13850D02*
X21138Y-13650D01*
X21062Y-13926D02*
X21138Y-13850D01*
X20659Y-14123D02*
X21296Y-14123D01*
X27400Y-17300D02*
X27900Y-16800D01*
X26650Y-17300D02*
X27400Y-17300D01*
X26350Y-17000D02*
X26650Y-17300D01*
X26350Y-16550D02*
X26350Y-17000D01*
X23319Y-13519D02*
X26350Y-16550D01*
X21525Y-13519D02*
X23319Y-13519D01*
X21319Y-13725D02*
X21525Y-13519D01*
X21319Y-14100D02*
X21319Y-13725D01*
X21296Y-14123D02*
X21319Y-14100D01*
X23430Y-14714D02*
X26516Y-17800D01*
X20659Y-14714D02*
X23430Y-14714D01*
X26516Y-17800D02*
X26900Y-17800D01*
X20659Y-14911D02*
X23371Y-14911D01*
X27400Y-18300D02*
X27900Y-17800D01*
X26550Y-18300D02*
X27400Y-18300D01*
X26310Y-18060D02*
X26550Y-18300D01*
X26310Y-17850D02*
X26310Y-18060D01*
X23371Y-14911D02*
X26310Y-17850D01*
X20659Y-15108D02*
X23312Y-15108D01*
X26550Y-18800D02*
X26900Y-18800D01*
X26079Y-18329D02*
X26550Y-18800D01*
X26079Y-17875D02*
X26079Y-18329D01*
X23312Y-15108D02*
X26079Y-17875D01*
X20659Y-15305D02*
X23253Y-15305D01*
X27400Y-19300D02*
X27900Y-18800D01*
X26500Y-19300D02*
X27400Y-19300D01*
X25798Y-18598D02*
X26500Y-19300D01*
X25798Y-17850D02*
X25798Y-18598D01*
X23253Y-15305D02*
X25798Y-17850D01*
X20659Y-15502D02*
X23194Y-15502D01*
X26600Y-19800D02*
X26900Y-19800D01*
X25517Y-18717D02*
X26600Y-19800D01*
X25517Y-17825D02*
X25517Y-18717D01*
X23194Y-15502D02*
X25517Y-17825D01*
X23135Y-15699D02*
X25286Y-17850D01*
X20659Y-15699D02*
X23135Y-15699D01*
X27400Y-20300D02*
X27900Y-19800D01*
X26550Y-20300D02*
X27400Y-20300D01*
X25286Y-19036D02*
X26550Y-20300D01*
X25286Y-17850D02*
X25286Y-19036D01*
X25055Y-17875D02*
X25055Y-19305D01*
X23076Y-15896D02*
X25055Y-17875D01*
X20659Y-15896D02*
X23076Y-15896D01*
X26550Y-20800D02*
X26900Y-20800D01*
X25055Y-19305D02*
X26550Y-20800D01*
X19184Y-12548D02*
X19656Y-12076D01*
X19184Y-13041D02*
X19184Y-12548D01*
X26442Y-13800D02*
X26900Y-13800D01*
X24718Y-12076D02*
X26442Y-13800D01*
X19656Y-12076D02*
X24718Y-12076D01*
X18593Y-13041D02*
X18593Y-10707D01*
X27400Y-13300D02*
X27900Y-12800D01*
X26400Y-13300D02*
X27400Y-13300D01*
X23700Y-10600D02*
X26400Y-13300D01*
X18700Y-10600D02*
X23700Y-10600D01*
X18593Y-10707D02*
X18700Y-10600D01*
X26900Y-07800D02*
X27400Y-07300D01*
X14325Y-07975D02*
X14325Y-08300D01*
X16100Y-06200D02*
X14325Y-07975D01*
X28300Y-06200D02*
X16100Y-06200D01*
X28500Y-06400D02*
X28300Y-06200D01*
X28500Y-07100D02*
X28500Y-06400D01*
X28300Y-07300D02*
X28500Y-07100D01*
X28100Y-07300D02*
X28300Y-07300D01*
X27400Y-07300D02*
X28100Y-07300D01*
X14000Y-09216D02*
X14000Y-08625D01*
X14000Y-08625D02*
X14325Y-08300D01*
X14325Y-08300D02*
X13675Y-08300D01*
X15541Y-16289D02*
X10189Y-16289D01*
X13675Y-07975D02*
X13675Y-08300D01*
X13500Y-07800D02*
X13675Y-07975D01*
X09900Y-07800D02*
X13500Y-07800D01*
X08150Y-09550D02*
X09900Y-07800D01*
X08150Y-14250D02*
X08150Y-09550D01*
X10189Y-16289D02*
X08150Y-14250D01*
X15541Y-14516D02*
X13266Y-14516D01*
X09700Y-11450D02*
X10200Y-11950D01*
X08850Y-11450D02*
X09700Y-11450D01*
X08600Y-11700D02*
X08850Y-11450D01*
X08600Y-13200D02*
X08600Y-11700D01*
X08850Y-13450D02*
X08600Y-13200D01*
X09400Y-13450D02*
X08850Y-13450D01*
X09700Y-13750D02*
X09400Y-13450D01*
X09700Y-14350D02*
X09700Y-13750D01*
X09850Y-14500D02*
X09700Y-14350D01*
X10800Y-14500D02*
X09850Y-14500D01*
X11081Y-14219D02*
X10800Y-14500D01*
X12969Y-14219D02*
X11081Y-14219D01*
X13266Y-14516D02*
X12969Y-14219D01*
X15541Y-13925D02*
X13675Y-13925D01*
X12700Y-12950D02*
X10200Y-12950D01*
X13675Y-13925D02*
X12700Y-12950D01*
X15541Y-13728D02*
X13778Y-13728D01*
X09700Y-12450D02*
X09200Y-11950D01*
X12500Y-12450D02*
X09700Y-12450D01*
X13778Y-13728D02*
X12500Y-12450D01*
X15541Y-14122D02*
X13572Y-14122D01*
X09700Y-13450D02*
X09200Y-12950D01*
X12900Y-13450D02*
X09700Y-13450D01*
X13572Y-14122D02*
X12900Y-13450D01*
X13100Y-13950D02*
X10200Y-13950D01*
X13469Y-14319D02*
X13100Y-13950D01*
X15541Y-14319D02*
X13469Y-14319D01*
X16800Y-31175D02*
X18075Y-31175D01*
X22100Y-29600D02*
X22950Y-28750D01*
X20900Y-29600D02*
X22100Y-29600D01*
X19600Y-30900D02*
X20900Y-29600D01*
X18350Y-30900D02*
X19600Y-30900D01*
X18075Y-31175D02*
X18350Y-30900D01*
X20100Y-14320D02*
X20100Y-13650D01*
X20100Y-13650D02*
X20500Y-13250D01*
X10700Y-30700D02*
X10700Y-29600D01*
X10700Y-29600D02*
X11600Y-28700D01*
X14050Y-28325D02*
X11975Y-28325D01*
X11975Y-28325D02*
X11600Y-28700D01*
X09803Y-23009D02*
X08167Y-23009D01*
X07834Y-19966D02*
X10200Y-17600D01*
X07834Y-22676D02*
X07834Y-19966D01*
X08167Y-23009D02*
X07834Y-22676D01*
X09803Y-23009D02*
X10647Y-23009D01*
X11538Y-23900D02*
X12663Y-23900D01*
X10647Y-23009D02*
X11538Y-23900D01*
X18900Y-20375D02*
X19475Y-20375D01*
X19475Y-20375D02*
X19800Y-20700D01*
X09200Y-10950D02*
X08500Y-10950D01*
X08500Y-10950D02*
X08331Y-10781D01*
X09200Y-13950D02*
X08653Y-14497D01*
X12925Y-08300D02*
X09750Y-08300D01*
X09156Y-15000D02*
X10200Y-15000D01*
X08331Y-14175D02*
X08653Y-14497D01*
X08653Y-14497D02*
X09156Y-15000D01*
X08331Y-09719D02*
X08331Y-10781D01*
X08331Y-10781D02*
X08331Y-14175D01*
X09750Y-08300D02*
X08331Y-09719D01*
X16600Y-10500D02*
X16550Y-10450D01*
X16600Y-11125D02*
X16600Y-10500D01*
X23300Y-14200D02*
X22575Y-14200D01*
X22500Y-19750D02*
X23150Y-20400D01*
X22500Y-19200D02*
X22500Y-19750D01*
X16819Y-18159D02*
X16819Y-22619D01*
X16819Y-22619D02*
X16850Y-22650D01*
X17425Y-23225D02*
X16850Y-22650D01*
X25000Y-30800D02*
X22950Y-28750D01*
X25000Y-30800D02*
X27900Y-30800D01*
X22950Y-28750D02*
X22553Y-28353D01*
X22553Y-28353D02*
X17425Y-23225D01*
X18987Y-13041D02*
X18987Y-13687D01*
X19620Y-14320D02*
X19400Y-14100D01*
X19620Y-14320D02*
X20100Y-14320D01*
X20100Y-14320D02*
X20659Y-14320D01*
X18987Y-13687D02*
X19400Y-14100D01*
X27900Y-30800D02*
X26900Y-30800D01*
X12625Y-20900D02*
X12625Y-21225D01*
X12900Y-21500D02*
X14925Y-21500D01*
X12625Y-21225D02*
X12900Y-21500D01*
X14925Y-21500D02*
X14925Y-20550D01*
X14925Y-20550D02*
X15125Y-20350D01*
X16800Y-31175D02*
X16800Y-31500D01*
X15125Y-31625D02*
X15125Y-31200D01*
X15300Y-31800D02*
X15125Y-31625D01*
X16500Y-31800D02*
X15300Y-31800D01*
X16800Y-31500D02*
X16500Y-31800D01*
X22575Y-17500D02*
X22575Y-19125D01*
X22575Y-19125D02*
X22500Y-19200D01*
X15000Y-29200D02*
X14925Y-29200D01*
X14925Y-29200D02*
X14050Y-28325D01*
X19500Y-11400D02*
X19500Y-11100D01*
X19500Y-11100D02*
X19425Y-11025D01*
X19425Y-11025D02*
X19000Y-11025D01*
X18987Y-13041D02*
X18987Y-12489D01*
X19500Y-11976D02*
X19500Y-11400D01*
X18987Y-12489D02*
X19500Y-11976D01*
X20659Y-14320D02*
X21450Y-14320D01*
X22575Y-13775D02*
X22575Y-14200D01*
X22500Y-13700D02*
X22575Y-13775D01*
X21600Y-13700D02*
X22500Y-13700D01*
X21500Y-13800D02*
X21600Y-13700D01*
X21500Y-14270D02*
X21500Y-13800D01*
X21450Y-14320D02*
X21500Y-14270D01*
X20659Y-17078D02*
X22153Y-17078D01*
X22153Y-17078D02*
X22575Y-17500D01*
X16623Y-13041D02*
X16623Y-12323D01*
X16623Y-12323D02*
X16500Y-12200D01*
X16500Y-12200D02*
X16200Y-12200D01*
X16200Y-12200D02*
X16100Y-12100D01*
X16100Y-12100D02*
X16100Y-11500D01*
X16175Y-11125D02*
X16600Y-11125D01*
X16100Y-11500D02*
X16100Y-11200D01*
X16100Y-11200D02*
X16175Y-11125D01*
X10575Y-20900D02*
X11600Y-20900D01*
X11600Y-20900D02*
X12625Y-20900D01*
X15541Y-15304D02*
X14896Y-15304D01*
X13625Y-15425D02*
X13625Y-15100D01*
X13800Y-15600D02*
X13625Y-15425D01*
X14600Y-15600D02*
X13800Y-15600D01*
X14896Y-15304D02*
X14600Y-15600D01*
X12925Y-08300D02*
X12925Y-09100D01*
X12925Y-09100D02*
X12925Y-10109D01*
X15541Y-15895D02*
X14895Y-15895D01*
X14895Y-15895D02*
X14600Y-15600D01*
X13625Y-15100D02*
X13200Y-15100D01*
X11225Y-14575D02*
X11225Y-15000D01*
X11400Y-14400D02*
X11225Y-14575D01*
X12500Y-14400D02*
X11400Y-14400D01*
X13200Y-15100D02*
X12500Y-14400D01*
X16819Y-18159D02*
X16819Y-17781D01*
X18592Y-17792D02*
X18592Y-18159D01*
X18500Y-17700D02*
X18592Y-17792D01*
X16900Y-17700D02*
X17600Y-17700D01*
X17600Y-17700D02*
X18500Y-17700D01*
X16819Y-17781D02*
X16900Y-17700D01*
X12925Y-10109D02*
X14000Y-11184D01*
X11225Y-15000D02*
X10200Y-15000D01*
X10200Y-17600D02*
X11225Y-17600D01*
X15125Y-20350D02*
X15700Y-19775D01*
X15125Y-31200D02*
X15125Y-30300D01*
X15000Y-29200D02*
X15000Y-30175D01*
X15000Y-30175D02*
X15125Y-30300D01*
X21025Y-18925D02*
X21025Y-18300D01*
X21300Y-19200D02*
X21025Y-18925D01*
X21025Y-18300D02*
X21025Y-17525D01*
X20972Y-17472D02*
X20659Y-17472D01*
X21025Y-17525D02*
X20972Y-17472D01*
X21500Y-19200D02*
X21300Y-19200D01*
X16622Y-24353D02*
X15675Y-25300D01*
X16622Y-18159D02*
X16622Y-24353D01*
X13375Y-20900D02*
X13375Y-20410D01*
X13375Y-20410D02*
X12465Y-19500D01*
X15541Y-17471D02*
X14485Y-17471D01*
X12465Y-19491D02*
X12465Y-19500D01*
X14485Y-17471D02*
X12465Y-19491D01*
X09825Y-20210D02*
X10535Y-19500D01*
X10535Y-19500D02*
X10535Y-19465D01*
X14426Y-17274D02*
X15541Y-17274D01*
X12900Y-18800D02*
X14426Y-17274D01*
X11200Y-18800D02*
X12900Y-18800D01*
X10535Y-19465D02*
X11200Y-18800D01*
X09825Y-20900D02*
X09825Y-20210D01*
X16425Y-23650D02*
X15675Y-24400D01*
X16425Y-18159D02*
X16425Y-23650D01*
X11975Y-17525D02*
X12700Y-16800D01*
X15541Y-16486D02*
X13014Y-16486D01*
X11975Y-17600D02*
X11975Y-17525D01*
X13014Y-16486D02*
X12700Y-16800D01*
X11975Y-15075D02*
X12700Y-15800D01*
X15541Y-16092D02*
X12992Y-16092D01*
X11975Y-15000D02*
X11975Y-15075D01*
X12992Y-16092D02*
X12700Y-15800D01*
G54D29*
X16800Y-30425D02*
X19175Y-30425D01*
X16800Y-30425D02*
X16800Y-29200D01*
X19175Y-30425D02*
X19200Y-30400D01*
G54D30*
X17850Y-29400D02*
X17850Y-28875D01*
X18400Y-29950D02*
X17850Y-29400D01*
X20050Y-29950D02*
X18400Y-29950D01*
X20950Y-29050D02*
X20050Y-29950D01*
X21450Y-29050D02*
X20950Y-29050D01*
X10832Y-24809D02*
X11614Y-25591D01*
X13450Y-25251D02*
X13450Y-24900D01*
X09803Y-24809D02*
X10832Y-24809D01*
X14700Y-25300D02*
X14925Y-25300D01*
X13110Y-25591D02*
X13450Y-25251D01*
X11614Y-25591D02*
X13110Y-25591D01*
X14300Y-24900D02*
X14700Y-25300D01*
X13450Y-24900D02*
X14300Y-24900D01*
X12534Y-18346D02*
X13803Y-17077D01*
X09725Y-18346D02*
X12534Y-18346D01*
X13803Y-17077D02*
X15541Y-17077D01*
X15675Y-21500D02*
X15675Y-22000D01*
X15675Y-22000D02*
X15675Y-22087D01*
X15675Y-22087D02*
X15675Y-22600D01*
X15675Y-22087D02*
X13976Y-22087D01*
X13976Y-22087D02*
X13346Y-22717D01*
X13346Y-22717D02*
X11103Y-22717D01*
X11103Y-22717D02*
X10866Y-22480D01*
X10866Y-22480D02*
X09528Y-22480D01*
X09528Y-22480D02*
X09291Y-22717D01*
X09291Y-22717D02*
X08229Y-22717D01*
X08229Y-22717D02*
X08031Y-22519D01*
X08031Y-22519D02*
X08031Y-20355D01*
X08031Y-20040D02*
X09725Y-18346D01*
X08031Y-20355D02*
X08031Y-20040D01*
X10742Y-24009D02*
X11633Y-24900D01*
X14925Y-24400D02*
X13163Y-24400D01*
X13163Y-24400D02*
X12663Y-24900D01*
X14925Y-23500D02*
X14925Y-24400D01*
X09803Y-24009D02*
X10742Y-24009D01*
X11633Y-24900D02*
X12663Y-24900D01*
X17850Y-27375D02*
X18525Y-27375D01*
X18525Y-27375D02*
X18700Y-27550D01*
X13450Y-23900D02*
X13384Y-23900D01*
X19200Y-26759D02*
X19200Y-29400D01*
X17559Y-25118D02*
X19200Y-26759D01*
X16772Y-25118D02*
X17559Y-25118D01*
X16024Y-25866D02*
X16772Y-25118D01*
X11181Y-25866D02*
X16024Y-25866D01*
X10669Y-25354D02*
X11181Y-25866D01*
X09567Y-25354D02*
X10669Y-25354D01*
X09213Y-25000D02*
X09567Y-25354D01*
X09213Y-23779D02*
X09213Y-25000D01*
X09527Y-23465D02*
X09213Y-23779D01*
X10551Y-23465D02*
X09527Y-23465D01*
X11495Y-24409D02*
X10551Y-23465D01*
X12875Y-24409D02*
X11495Y-24409D01*
X13384Y-23900D02*
X12875Y-24409D01*
X13450Y-23900D02*
X13625Y-23900D01*
X13625Y-23900D02*
X14925Y-22600D01*
G54D10*
G36*
X20050Y-17479D02*
X19979Y-17550D01*
X18627Y-17550D01*
X18577Y-17515D01*
X18500Y-17500D01*
X17600Y-17500D01*
X16900Y-17500D01*
X16823Y-17515D01*
X16771Y-17550D01*
X16150Y-17550D01*
X16150Y-17734D01*
X16146Y-17735D01*
X16091Y-17758D01*
X16049Y-17800D01*
X16027Y-17855D01*
X16027Y-17914D01*
X16026Y-18121D01*
X16063Y-18158D01*
X16150Y-18158D01*
X16150Y-18160D01*
X16063Y-18160D01*
X16026Y-18197D01*
X16027Y-18404D01*
X16027Y-18463D01*
X16049Y-18518D01*
X16091Y-18560D01*
X16146Y-18583D01*
X16150Y-18583D01*
X16150Y-19150D01*
X16124Y-19150D01*
X16125Y-19063D01*
X16125Y-18987D01*
X16124Y-18820D01*
X16101Y-18765D01*
X16059Y-18723D01*
X16004Y-18701D01*
X15945Y-18701D01*
X15738Y-18700D01*
X15701Y-18737D01*
X15701Y-19024D01*
X16088Y-19024D01*
X16125Y-18987D01*
X16125Y-19063D01*
X16088Y-19026D01*
X15751Y-19026D01*
X15701Y-19026D01*
X15699Y-19026D01*
X15699Y-19024D01*
X15699Y-18737D01*
X15662Y-18700D01*
X15455Y-18701D01*
X15396Y-18701D01*
X15341Y-18723D01*
X15299Y-18765D01*
X15276Y-18820D01*
X15275Y-18987D01*
X15312Y-19024D01*
X15699Y-19024D01*
X15699Y-19026D01*
X15649Y-19026D01*
X15312Y-19026D01*
X15275Y-19063D01*
X15275Y-19150D01*
X15021Y-19150D01*
X14850Y-18979D01*
X14850Y-18121D01*
X15221Y-17750D01*
X15921Y-17750D01*
X16150Y-17521D01*
X16150Y-13621D01*
X16221Y-13550D01*
X18750Y-13550D01*
X18750Y-13721D01*
X18821Y-13792D01*
X18822Y-13793D01*
X18846Y-13828D01*
X19259Y-14241D01*
X19478Y-14461D01*
X19479Y-14461D01*
X19511Y-14483D01*
X19514Y-14485D01*
X19579Y-14550D01*
X20050Y-14550D01*
X20050Y-17479D01*
X20050Y-17479D01*
G37*
G54D30*
X20050Y-17479D02*
X19979Y-17550D01*
X18627Y-17550D01*
X18577Y-17515D01*
X18500Y-17500D01*
X17600Y-17500D01*
X16900Y-17500D01*
X16823Y-17515D01*
X16771Y-17550D01*
X16150Y-17550D01*
X16150Y-17734D01*
X16146Y-17735D01*
X16091Y-17758D01*
X16049Y-17800D01*
X16027Y-17855D01*
X16027Y-17914D01*
X16026Y-18121D01*
X16063Y-18158D01*
X16150Y-18158D01*
X16150Y-18160D01*
X16063Y-18160D01*
X16026Y-18197D01*
X16027Y-18404D01*
X16027Y-18463D01*
X16049Y-18518D01*
X16091Y-18560D01*
X16146Y-18583D01*
X16150Y-18583D01*
X16150Y-19150D01*
X16124Y-19150D01*
X16125Y-19063D01*
X16125Y-18987D01*
X16124Y-18820D01*
X16101Y-18765D01*
X16059Y-18723D01*
X16004Y-18701D01*
X15945Y-18701D01*
X15738Y-18700D01*
X15701Y-18737D01*
X15701Y-19024D01*
X16088Y-19024D01*
X16125Y-18987D01*
X16125Y-19063D01*
X16088Y-19026D01*
X15751Y-19026D01*
X15701Y-19026D01*
X15699Y-19026D01*
X15699Y-19024D01*
X15699Y-18737D01*
X15662Y-18700D01*
X15455Y-18701D01*
X15396Y-18701D01*
X15341Y-18723D01*
X15299Y-18765D01*
X15276Y-18820D01*
X15275Y-18987D01*
X15312Y-19024D01*
X15699Y-19024D01*
X15699Y-19026D01*
X15649Y-19026D01*
X15312Y-19026D01*
X15275Y-19063D01*
X15275Y-19150D01*
X15021Y-19150D01*
X14850Y-18979D01*
X14850Y-18121D01*
X15221Y-17750D01*
X15921Y-17750D01*
X16150Y-17521D01*
X16150Y-13621D01*
X16221Y-13550D01*
X18750Y-13550D01*
X18750Y-13721D01*
X18821Y-13792D01*
X18822Y-13793D01*
X18846Y-13828D01*
X19259Y-14241D01*
X19478Y-14461D01*
X19479Y-14461D01*
X19511Y-14483D01*
X19514Y-14485D01*
X19579Y-14550D01*
X20050Y-14550D01*
X20050Y-17479D01*
G54D10*
G36*
X14604Y-22287D02*
X14601Y-22296D01*
X14601Y-22355D01*
X14601Y-22641D01*
X13713Y-23528D01*
X13705Y-23520D01*
X13540Y-23451D01*
X13361Y-23451D01*
X13196Y-23519D01*
X13070Y-23645D01*
X13052Y-23686D01*
X13045Y-23665D01*
X13026Y-23637D01*
X12955Y-23609D01*
X12954Y-23610D01*
X12954Y-23608D01*
X12926Y-23537D01*
X12767Y-23464D01*
X12592Y-23457D01*
X12428Y-23518D01*
X12400Y-23537D01*
X12372Y-23608D01*
X12663Y-23899D01*
X12954Y-23608D01*
X12954Y-23610D01*
X12664Y-23900D01*
X12663Y-23901D01*
X12662Y-23901D01*
X12661Y-23900D01*
X12662Y-23900D01*
X12371Y-23609D01*
X12300Y-23637D01*
X12227Y-23796D01*
X12220Y-23971D01*
X12281Y-24135D01*
X12300Y-24163D01*
X12320Y-24170D01*
X12304Y-24187D01*
X12326Y-24209D01*
X11577Y-24209D01*
X10692Y-23324D01*
X10628Y-23280D01*
X10551Y-23265D01*
X10163Y-23265D01*
X10234Y-23112D01*
X10241Y-22939D01*
X10181Y-22777D01*
X10162Y-22749D01*
X10091Y-22722D01*
X09804Y-23009D01*
X09803Y-23010D01*
X09802Y-23010D01*
X09801Y-23009D01*
X09802Y-23009D01*
X09801Y-23008D01*
X09802Y-23007D01*
X09803Y-23008D01*
X09838Y-22972D01*
X10090Y-22721D01*
X10074Y-22680D01*
X10783Y-22680D01*
X10961Y-22858D01*
X10962Y-22858D01*
X10994Y-22880D01*
X11026Y-22902D01*
X11027Y-22902D01*
X11103Y-22917D01*
X13346Y-22917D01*
X13346Y-22916D01*
X13422Y-22902D01*
X13423Y-22902D01*
X13487Y-22858D01*
X14058Y-22287D01*
X14604Y-22287D01*
X14604Y-22287D01*
G37*
G54D30*
X14604Y-22287D02*
X14601Y-22296D01*
X14601Y-22355D01*
X14601Y-22641D01*
X13713Y-23528D01*
X13705Y-23520D01*
X13540Y-23451D01*
X13361Y-23451D01*
X13196Y-23519D01*
X13070Y-23645D01*
X13052Y-23686D01*
X13045Y-23665D01*
X13026Y-23637D01*
X12955Y-23609D01*
X12954Y-23610D01*
X12954Y-23608D01*
X12926Y-23537D01*
X12767Y-23464D01*
X12592Y-23457D01*
X12428Y-23518D01*
X12400Y-23537D01*
X12372Y-23608D01*
X12663Y-23899D01*
X12954Y-23608D01*
X12954Y-23610D01*
X12664Y-23900D01*
X12663Y-23901D01*
X12662Y-23901D01*
X12661Y-23900D01*
X12662Y-23900D01*
X12371Y-23609D01*
X12300Y-23637D01*
X12227Y-23796D01*
X12220Y-23971D01*
X12281Y-24135D01*
X12300Y-24163D01*
X12320Y-24170D01*
X12304Y-24187D01*
X12326Y-24209D01*
X11577Y-24209D01*
X10692Y-23324D01*
X10628Y-23280D01*
X10551Y-23265D01*
X10163Y-23265D01*
X10234Y-23112D01*
X10241Y-22939D01*
X10181Y-22777D01*
X10162Y-22749D01*
X10091Y-22722D01*
X09804Y-23009D01*
X09803Y-23010D01*
X09802Y-23010D01*
X09801Y-23009D01*
X09802Y-23009D01*
X09801Y-23008D01*
X09802Y-23007D01*
X09803Y-23008D01*
X09838Y-22972D01*
X10090Y-22721D01*
X10074Y-22680D01*
X10783Y-22680D01*
X10961Y-22858D01*
X10962Y-22858D01*
X10994Y-22880D01*
X11026Y-22902D01*
X11027Y-22902D01*
X11103Y-22917D01*
X13346Y-22917D01*
X13346Y-22916D01*
X13422Y-22902D01*
X13423Y-22902D01*
X13487Y-22858D01*
X14058Y-22287D01*
X14604Y-22287D01*
G54D10*
G36*
X16028Y-22865D02*
X15999Y-22894D01*
X15999Y-22845D01*
X15999Y-22295D01*
X15976Y-22240D01*
X15934Y-22198D01*
X15879Y-22176D01*
X15875Y-22176D01*
X15875Y-22087D01*
X15875Y-22000D01*
X15875Y-21924D01*
X15880Y-21924D01*
X15935Y-21901D01*
X15977Y-21859D01*
X15999Y-21804D01*
X15999Y-21745D01*
X15999Y-21195D01*
X15976Y-21140D01*
X15934Y-21098D01*
X15879Y-21076D01*
X15820Y-21076D01*
X15699Y-21076D01*
X15699Y-20063D01*
X15699Y-19776D01*
X15699Y-19774D01*
X15699Y-19487D01*
X15662Y-19450D01*
X15455Y-19451D01*
X15396Y-19451D01*
X15341Y-19473D01*
X15299Y-19515D01*
X15276Y-19570D01*
X15275Y-19737D01*
X15312Y-19774D01*
X15699Y-19774D01*
X15699Y-19776D01*
X15312Y-19776D01*
X15275Y-19813D01*
X15276Y-19980D01*
X15299Y-20035D01*
X15341Y-20077D01*
X15396Y-20099D01*
X15455Y-20099D01*
X15662Y-20100D01*
X15699Y-20063D01*
X15699Y-21076D01*
X15470Y-21076D01*
X15415Y-21099D01*
X15373Y-21141D01*
X15351Y-21196D01*
X15351Y-21255D01*
X15351Y-21805D01*
X15374Y-21860D01*
X15401Y-21887D01*
X15199Y-21887D01*
X15227Y-21859D01*
X15249Y-21804D01*
X15249Y-21745D01*
X15250Y-21538D01*
X15250Y-21462D01*
X15249Y-21255D01*
X15249Y-21196D01*
X15227Y-21141D01*
X15185Y-21099D01*
X15130Y-21076D01*
X14963Y-21075D01*
X14926Y-21112D01*
X14926Y-21499D01*
X15213Y-21499D01*
X15250Y-21462D01*
X15250Y-21538D01*
X15213Y-21501D01*
X14976Y-21501D01*
X14926Y-21501D01*
X14924Y-21501D01*
X14924Y-21499D01*
X14924Y-21112D01*
X14887Y-21075D01*
X14720Y-21076D01*
X14665Y-21099D01*
X14623Y-21141D01*
X14601Y-21196D01*
X14601Y-21255D01*
X14600Y-21462D01*
X14637Y-21499D01*
X14924Y-21499D01*
X14924Y-21501D01*
X14874Y-21501D01*
X14637Y-21501D01*
X14600Y-21538D01*
X14601Y-21745D01*
X14601Y-21804D01*
X14623Y-21859D01*
X14651Y-21887D01*
X13976Y-21887D01*
X13899Y-21902D01*
X13834Y-21946D01*
X13263Y-22517D01*
X12950Y-22517D01*
X12950Y-20938D01*
X12950Y-20862D01*
X12949Y-20655D01*
X12949Y-20596D01*
X12927Y-20541D01*
X12885Y-20499D01*
X12830Y-20476D01*
X12663Y-20475D01*
X12626Y-20512D01*
X12626Y-20899D01*
X12913Y-20899D01*
X12950Y-20862D01*
X12950Y-20938D01*
X12913Y-20901D01*
X12626Y-20901D01*
X12626Y-21288D01*
X12663Y-21325D01*
X12830Y-21324D01*
X12885Y-21301D01*
X12927Y-21259D01*
X12949Y-21204D01*
X12949Y-21145D01*
X12950Y-20938D01*
X12950Y-22517D01*
X12624Y-22517D01*
X12624Y-21288D01*
X12624Y-20901D01*
X12624Y-20899D01*
X12624Y-20512D01*
X12587Y-20475D01*
X12420Y-20476D01*
X12365Y-20499D01*
X12323Y-20541D01*
X12301Y-20596D01*
X12301Y-20655D01*
X12300Y-20862D01*
X12337Y-20899D01*
X12624Y-20899D01*
X12624Y-20901D01*
X12337Y-20901D01*
X12300Y-20938D01*
X12301Y-21145D01*
X12301Y-21204D01*
X12323Y-21259D01*
X12365Y-21301D01*
X12420Y-21324D01*
X12587Y-21325D01*
X12624Y-21288D01*
X12624Y-22517D01*
X12083Y-22517D01*
X12177Y-22424D01*
X12281Y-22174D01*
X12281Y-21903D01*
X12177Y-21653D01*
X11986Y-21461D01*
X11736Y-21357D01*
X11465Y-21357D01*
X11215Y-21461D01*
X11023Y-21652D01*
X10919Y-21902D01*
X10919Y-22173D01*
X10980Y-22320D01*
X10943Y-22295D01*
X10900Y-22286D01*
X10900Y-20938D01*
X10900Y-20862D01*
X10899Y-20655D01*
X10899Y-20596D01*
X10877Y-20541D01*
X10835Y-20499D01*
X10780Y-20476D01*
X10613Y-20475D01*
X10576Y-20512D01*
X10576Y-20899D01*
X10863Y-20899D01*
X10900Y-20862D01*
X10900Y-20938D01*
X10863Y-20901D01*
X10576Y-20901D01*
X10576Y-21288D01*
X10613Y-21325D01*
X10780Y-21324D01*
X10835Y-21301D01*
X10877Y-21259D01*
X10899Y-21204D01*
X10899Y-21145D01*
X10900Y-20938D01*
X10900Y-22286D01*
X10866Y-22280D01*
X10574Y-22280D01*
X10574Y-21288D01*
X10574Y-20901D01*
X10574Y-20899D01*
X10574Y-20512D01*
X10537Y-20475D01*
X10370Y-20476D01*
X10315Y-20499D01*
X10273Y-20541D01*
X10251Y-20596D01*
X10251Y-20655D01*
X10250Y-20862D01*
X10287Y-20899D01*
X10574Y-20899D01*
X10574Y-20901D01*
X10287Y-20901D01*
X10250Y-20938D01*
X10251Y-21145D01*
X10251Y-21204D01*
X10273Y-21259D01*
X10315Y-21301D01*
X10370Y-21324D01*
X10537Y-21325D01*
X10574Y-21288D01*
X10574Y-22280D01*
X09528Y-22280D01*
X09451Y-22295D01*
X09419Y-22317D01*
X09386Y-22339D01*
X09208Y-22517D01*
X08976Y-22517D01*
X09171Y-22437D01*
X09379Y-22229D01*
X09493Y-21957D01*
X09493Y-21663D01*
X09381Y-21391D01*
X09173Y-21183D01*
X08901Y-21069D01*
X08607Y-21069D01*
X08335Y-21181D01*
X08231Y-21285D01*
X08231Y-20355D01*
X08231Y-20122D01*
X09807Y-18546D01*
X12534Y-18546D01*
X12534Y-18545D01*
X12610Y-18531D01*
X12611Y-18531D01*
X12675Y-18487D01*
X13885Y-17277D01*
X14141Y-17277D01*
X12818Y-18600D01*
X11200Y-18600D01*
X11123Y-18615D01*
X11058Y-18659D01*
X10756Y-18960D01*
X10652Y-18917D01*
X10420Y-18917D01*
X10206Y-19005D01*
X10041Y-19169D01*
X09952Y-19383D01*
X09952Y-19615D01*
X10006Y-19746D01*
X09684Y-20069D01*
X09640Y-20133D01*
X09625Y-20210D01*
X09625Y-20476D01*
X09620Y-20476D01*
X09565Y-20499D01*
X09523Y-20541D01*
X09501Y-20596D01*
X09501Y-20655D01*
X09501Y-21205D01*
X09524Y-21260D01*
X09566Y-21302D01*
X09621Y-21324D01*
X09680Y-21324D01*
X10030Y-21324D01*
X10085Y-21301D01*
X10127Y-21259D01*
X10149Y-21204D01*
X10149Y-21145D01*
X10149Y-20595D01*
X10126Y-20540D01*
X10084Y-20498D01*
X10029Y-20476D01*
X10025Y-20476D01*
X10025Y-20292D01*
X10288Y-20028D01*
X10418Y-20083D01*
X10650Y-20083D01*
X10864Y-19995D01*
X11029Y-19831D01*
X11118Y-19617D01*
X11118Y-19385D01*
X11053Y-19228D01*
X11282Y-19000D01*
X12148Y-19000D01*
X12136Y-19005D01*
X11971Y-19169D01*
X11882Y-19383D01*
X11882Y-19615D01*
X11970Y-19829D01*
X12134Y-19994D01*
X12348Y-20083D01*
X12580Y-20083D01*
X12711Y-20028D01*
X13161Y-20479D01*
X13115Y-20499D01*
X13073Y-20541D01*
X13051Y-20596D01*
X13051Y-20655D01*
X13051Y-21205D01*
X13074Y-21260D01*
X13116Y-21302D01*
X13171Y-21324D01*
X13230Y-21324D01*
X13580Y-21324D01*
X13635Y-21301D01*
X13677Y-21259D01*
X13699Y-21204D01*
X13699Y-21145D01*
X13699Y-20595D01*
X13676Y-20540D01*
X13634Y-20498D01*
X13579Y-20476D01*
X13575Y-20476D01*
X13575Y-20410D01*
X13574Y-20409D01*
X13560Y-20333D01*
X13516Y-20269D01*
X13516Y-20268D01*
X12994Y-19746D01*
X13048Y-19617D01*
X13048Y-19385D01*
X12991Y-19246D01*
X14567Y-17671D01*
X14958Y-17671D01*
X14650Y-17979D01*
X14650Y-19121D01*
X14879Y-19350D01*
X16028Y-19350D01*
X16028Y-19460D01*
X16004Y-19451D01*
X15945Y-19451D01*
X15738Y-19450D01*
X15701Y-19487D01*
X15701Y-19724D01*
X15701Y-19774D01*
X15701Y-19776D01*
X15701Y-19826D01*
X15701Y-20063D01*
X15738Y-20100D01*
X15945Y-20099D01*
X16004Y-20099D01*
X16028Y-20089D01*
X16028Y-22865D01*
X16028Y-22865D01*
G37*
G54D30*
X16028Y-22865D02*
X15999Y-22894D01*
X15999Y-22845D01*
X15999Y-22295D01*
X15976Y-22240D01*
X15934Y-22198D01*
X15879Y-22176D01*
X15875Y-22176D01*
X15875Y-22087D01*
X15875Y-22000D01*
X15875Y-21924D01*
X15880Y-21924D01*
X15935Y-21901D01*
X15977Y-21859D01*
X15999Y-21804D01*
X15999Y-21745D01*
X15999Y-21195D01*
X15976Y-21140D01*
X15934Y-21098D01*
X15879Y-21076D01*
X15820Y-21076D01*
X15699Y-21076D01*
X15699Y-20063D01*
X15699Y-19776D01*
X15699Y-19774D01*
X15699Y-19487D01*
X15662Y-19450D01*
X15455Y-19451D01*
X15396Y-19451D01*
X15341Y-19473D01*
X15299Y-19515D01*
X15276Y-19570D01*
X15275Y-19737D01*
X15312Y-19774D01*
X15699Y-19774D01*
X15699Y-19776D01*
X15312Y-19776D01*
X15275Y-19813D01*
X15276Y-19980D01*
X15299Y-20035D01*
X15341Y-20077D01*
X15396Y-20099D01*
X15455Y-20099D01*
X15662Y-20100D01*
X15699Y-20063D01*
X15699Y-21076D01*
X15470Y-21076D01*
X15415Y-21099D01*
X15373Y-21141D01*
X15351Y-21196D01*
X15351Y-21255D01*
X15351Y-21805D01*
X15374Y-21860D01*
X15401Y-21887D01*
X15199Y-21887D01*
X15227Y-21859D01*
X15249Y-21804D01*
X15249Y-21745D01*
X15250Y-21538D01*
X15250Y-21462D01*
X15249Y-21255D01*
X15249Y-21196D01*
X15227Y-21141D01*
X15185Y-21099D01*
X15130Y-21076D01*
X14963Y-21075D01*
X14926Y-21112D01*
X14926Y-21499D01*
X15213Y-21499D01*
X15250Y-21462D01*
X15250Y-21538D01*
X15213Y-21501D01*
X14976Y-21501D01*
X14926Y-21501D01*
X14924Y-21501D01*
X14924Y-21499D01*
X14924Y-21112D01*
X14887Y-21075D01*
X14720Y-21076D01*
X14665Y-21099D01*
X14623Y-21141D01*
X14601Y-21196D01*
X14601Y-21255D01*
X14600Y-21462D01*
X14637Y-21499D01*
X14924Y-21499D01*
X14924Y-21501D01*
X14874Y-21501D01*
X14637Y-21501D01*
X14600Y-21538D01*
X14601Y-21745D01*
X14601Y-21804D01*
X14623Y-21859D01*
X14651Y-21887D01*
X13976Y-21887D01*
X13899Y-21902D01*
X13834Y-21946D01*
X13263Y-22517D01*
X12950Y-22517D01*
X12950Y-20938D01*
X12950Y-20862D01*
X12949Y-20655D01*
X12949Y-20596D01*
X12927Y-20541D01*
X12885Y-20499D01*
X12830Y-20476D01*
X12663Y-20475D01*
X12626Y-20512D01*
X12626Y-20899D01*
X12913Y-20899D01*
X12950Y-20862D01*
X12950Y-20938D01*
X12913Y-20901D01*
X12626Y-20901D01*
X12626Y-21288D01*
X12663Y-21325D01*
X12830Y-21324D01*
X12885Y-21301D01*
X12927Y-21259D01*
X12949Y-21204D01*
X12949Y-21145D01*
X12950Y-20938D01*
X12950Y-22517D01*
X12624Y-22517D01*
X12624Y-21288D01*
X12624Y-20901D01*
X12624Y-20899D01*
X12624Y-20512D01*
X12587Y-20475D01*
X12420Y-20476D01*
X12365Y-20499D01*
X12323Y-20541D01*
X12301Y-20596D01*
X12301Y-20655D01*
X12300Y-20862D01*
X12337Y-20899D01*
X12624Y-20899D01*
X12624Y-20901D01*
X12337Y-20901D01*
X12300Y-20938D01*
X12301Y-21145D01*
X12301Y-21204D01*
X12323Y-21259D01*
X12365Y-21301D01*
X12420Y-21324D01*
X12587Y-21325D01*
X12624Y-21288D01*
X12624Y-22517D01*
X12083Y-22517D01*
X12177Y-22424D01*
X12281Y-22174D01*
X12281Y-21903D01*
X12177Y-21653D01*
X11986Y-21461D01*
X11736Y-21357D01*
X11465Y-21357D01*
X11215Y-21461D01*
X11023Y-21652D01*
X10919Y-21902D01*
X10919Y-22173D01*
X10980Y-22320D01*
X10943Y-22295D01*
X10900Y-22286D01*
X10900Y-20938D01*
X10900Y-20862D01*
X10899Y-20655D01*
X10899Y-20596D01*
X10877Y-20541D01*
X10835Y-20499D01*
X10780Y-20476D01*
X10613Y-20475D01*
X10576Y-20512D01*
X10576Y-20899D01*
X10863Y-20899D01*
X10900Y-20862D01*
X10900Y-20938D01*
X10863Y-20901D01*
X10576Y-20901D01*
X10576Y-21288D01*
X10613Y-21325D01*
X10780Y-21324D01*
X10835Y-21301D01*
X10877Y-21259D01*
X10899Y-21204D01*
X10899Y-21145D01*
X10900Y-20938D01*
X10900Y-22286D01*
X10866Y-22280D01*
X10574Y-22280D01*
X10574Y-21288D01*
X10574Y-20901D01*
X10574Y-20899D01*
X10574Y-20512D01*
X10537Y-20475D01*
X10370Y-20476D01*
X10315Y-20499D01*
X10273Y-20541D01*
X10251Y-20596D01*
X10251Y-20655D01*
X10250Y-20862D01*
X10287Y-20899D01*
X10574Y-20899D01*
X10574Y-20901D01*
X10287Y-20901D01*
X10250Y-20938D01*
X10251Y-21145D01*
X10251Y-21204D01*
X10273Y-21259D01*
X10315Y-21301D01*
X10370Y-21324D01*
X10537Y-21325D01*
X10574Y-21288D01*
X10574Y-22280D01*
X09528Y-22280D01*
X09451Y-22295D01*
X09419Y-22317D01*
X09386Y-22339D01*
X09208Y-22517D01*
X08976Y-22517D01*
X09171Y-22437D01*
X09379Y-22229D01*
X09493Y-21957D01*
X09493Y-21663D01*
X09381Y-21391D01*
X09173Y-21183D01*
X08901Y-21069D01*
X08607Y-21069D01*
X08335Y-21181D01*
X08231Y-21285D01*
X08231Y-20355D01*
X08231Y-20122D01*
X09807Y-18546D01*
X12534Y-18546D01*
X12534Y-18545D01*
X12610Y-18531D01*
X12611Y-18531D01*
X12675Y-18487D01*
X13885Y-17277D01*
X14141Y-17277D01*
X12818Y-18600D01*
X11200Y-18600D01*
X11123Y-18615D01*
X11058Y-18659D01*
X10756Y-18960D01*
X10652Y-18917D01*
X10420Y-18917D01*
X10206Y-19005D01*
X10041Y-19169D01*
X09952Y-19383D01*
X09952Y-19615D01*
X10006Y-19746D01*
X09684Y-20069D01*
X09640Y-20133D01*
X09625Y-20210D01*
X09625Y-20476D01*
X09620Y-20476D01*
X09565Y-20499D01*
X09523Y-20541D01*
X09501Y-20596D01*
X09501Y-20655D01*
X09501Y-21205D01*
X09524Y-21260D01*
X09566Y-21302D01*
X09621Y-21324D01*
X09680Y-21324D01*
X10030Y-21324D01*
X10085Y-21301D01*
X10127Y-21259D01*
X10149Y-21204D01*
X10149Y-21145D01*
X10149Y-20595D01*
X10126Y-20540D01*
X10084Y-20498D01*
X10029Y-20476D01*
X10025Y-20476D01*
X10025Y-20292D01*
X10288Y-20028D01*
X10418Y-20083D01*
X10650Y-20083D01*
X10864Y-19995D01*
X11029Y-19831D01*
X11118Y-19617D01*
X11118Y-19385D01*
X11053Y-19228D01*
X11282Y-19000D01*
X12148Y-19000D01*
X12136Y-19005D01*
X11971Y-19169D01*
X11882Y-19383D01*
X11882Y-19615D01*
X11970Y-19829D01*
X12134Y-19994D01*
X12348Y-20083D01*
X12580Y-20083D01*
X12711Y-20028D01*
X13161Y-20479D01*
X13115Y-20499D01*
X13073Y-20541D01*
X13051Y-20596D01*
X13051Y-20655D01*
X13051Y-21205D01*
X13074Y-21260D01*
X13116Y-21302D01*
X13171Y-21324D01*
X13230Y-21324D01*
X13580Y-21324D01*
X13635Y-21301D01*
X13677Y-21259D01*
X13699Y-21204D01*
X13699Y-21145D01*
X13699Y-20595D01*
X13676Y-20540D01*
X13634Y-20498D01*
X13579Y-20476D01*
X13575Y-20476D01*
X13575Y-20410D01*
X13574Y-20409D01*
X13560Y-20333D01*
X13516Y-20269D01*
X13516Y-20268D01*
X12994Y-19746D01*
X13048Y-19617D01*
X13048Y-19385D01*
X12991Y-19246D01*
X14567Y-17671D01*
X14958Y-17671D01*
X14650Y-17979D01*
X14650Y-19121D01*
X14879Y-19350D01*
X16028Y-19350D01*
X16028Y-19460D01*
X16004Y-19451D01*
X15945Y-19451D01*
X15738Y-19450D01*
X15701Y-19487D01*
X15701Y-19724D01*
X15701Y-19774D01*
X15701Y-19776D01*
X15701Y-19826D01*
X15701Y-20063D01*
X15738Y-20100D01*
X15945Y-20099D01*
X16004Y-20099D01*
X16028Y-20089D01*
X16028Y-22865D01*
G54D10*
G36*
X17617Y-09000D02*
X16876Y-09742D01*
X16832Y-09806D01*
X16817Y-09883D01*
X16817Y-10800D01*
X16638Y-10800D01*
X16601Y-10837D01*
X16601Y-11074D01*
X16601Y-11124D01*
X16601Y-11126D01*
X16601Y-11176D01*
X16601Y-11413D01*
X16638Y-11450D01*
X16817Y-11449D01*
X16817Y-11551D01*
X16599Y-11551D01*
X16599Y-11413D01*
X16599Y-11126D01*
X16599Y-11124D01*
X16599Y-10837D01*
X16562Y-10800D01*
X16355Y-10801D01*
X16296Y-10801D01*
X16241Y-10823D01*
X16199Y-10865D01*
X16176Y-10920D01*
X16175Y-11087D01*
X16212Y-11124D01*
X16599Y-11124D01*
X16599Y-11126D01*
X16212Y-11126D01*
X16175Y-11163D01*
X16176Y-11330D01*
X16199Y-11385D01*
X16241Y-11427D01*
X16296Y-11449D01*
X16355Y-11449D01*
X16562Y-11450D01*
X16599Y-11413D01*
X16599Y-11551D01*
X16295Y-11551D01*
X16240Y-11574D01*
X16198Y-11616D01*
X16176Y-11671D01*
X16176Y-11730D01*
X16176Y-12080D01*
X16199Y-12135D01*
X16241Y-12177D01*
X16296Y-12199D01*
X16355Y-12199D01*
X16620Y-12199D01*
X16620Y-12616D01*
X16612Y-12616D01*
X16611Y-12606D01*
X16611Y-12605D01*
X16567Y-12541D01*
X16119Y-12093D01*
X16119Y-10363D01*
X17482Y-09000D01*
X17617Y-09000D01*
X17617Y-09000D01*
G37*
G54D30*
X17617Y-09000D02*
X16876Y-09742D01*
X16832Y-09806D01*
X16817Y-09883D01*
X16817Y-10800D01*
X16638Y-10800D01*
X16601Y-10837D01*
X16601Y-11074D01*
X16601Y-11124D01*
X16601Y-11126D01*
X16601Y-11176D01*
X16601Y-11413D01*
X16638Y-11450D01*
X16817Y-11449D01*
X16817Y-11551D01*
X16599Y-11551D01*
X16599Y-11413D01*
X16599Y-11126D01*
X16599Y-11124D01*
X16599Y-10837D01*
X16562Y-10800D01*
X16355Y-10801D01*
X16296Y-10801D01*
X16241Y-10823D01*
X16199Y-10865D01*
X16176Y-10920D01*
X16175Y-11087D01*
X16212Y-11124D01*
X16599Y-11124D01*
X16599Y-11126D01*
X16212Y-11126D01*
X16175Y-11163D01*
X16176Y-11330D01*
X16199Y-11385D01*
X16241Y-11427D01*
X16296Y-11449D01*
X16355Y-11449D01*
X16562Y-11450D01*
X16599Y-11413D01*
X16599Y-11551D01*
X16295Y-11551D01*
X16240Y-11574D01*
X16198Y-11616D01*
X16176Y-11671D01*
X16176Y-11730D01*
X16176Y-12080D01*
X16199Y-12135D01*
X16241Y-12177D01*
X16296Y-12199D01*
X16355Y-12199D01*
X16620Y-12199D01*
X16620Y-12616D01*
X16612Y-12616D01*
X16611Y-12606D01*
X16611Y-12605D01*
X16567Y-12541D01*
X16119Y-12093D01*
X16119Y-10363D01*
X17482Y-09000D01*
X17617Y-09000D01*
G54D10*
G36*
X21221Y-13000D02*
X21208Y-13009D01*
X20816Y-13402D01*
X20772Y-13466D01*
X20759Y-13528D01*
X20354Y-13528D01*
X20299Y-13551D01*
X20257Y-13593D01*
X20235Y-13648D01*
X20235Y-13707D01*
X20235Y-13811D01*
X20241Y-13827D01*
X20235Y-13845D01*
X20235Y-13904D01*
X20235Y-14008D01*
X20241Y-14024D01*
X20235Y-14042D01*
X20235Y-14101D01*
X20235Y-14205D01*
X20241Y-14221D01*
X20235Y-14238D01*
X20234Y-14250D01*
X19621Y-14250D01*
X19050Y-13679D01*
X19050Y-13465D01*
X19069Y-13465D01*
X19085Y-13458D01*
X19103Y-13465D01*
X19162Y-13465D01*
X19266Y-13465D01*
X19282Y-13458D01*
X19300Y-13465D01*
X19359Y-13465D01*
X19463Y-13465D01*
X19479Y-13458D01*
X19497Y-13465D01*
X19556Y-13465D01*
X19660Y-13465D01*
X19676Y-13458D01*
X19694Y-13465D01*
X19753Y-13465D01*
X19857Y-13465D01*
X19873Y-13458D01*
X19891Y-13465D01*
X19950Y-13465D01*
X20054Y-13465D01*
X20109Y-13442D01*
X20151Y-13400D01*
X20173Y-13345D01*
X20173Y-13286D01*
X20173Y-13000D01*
X21221Y-13000D01*
X21221Y-13000D01*
G37*
G54D30*
X21221Y-13000D02*
X21208Y-13009D01*
X20816Y-13402D01*
X20772Y-13466D01*
X20759Y-13528D01*
X20354Y-13528D01*
X20299Y-13551D01*
X20257Y-13593D01*
X20235Y-13648D01*
X20235Y-13707D01*
X20235Y-13811D01*
X20241Y-13827D01*
X20235Y-13845D01*
X20235Y-13904D01*
X20235Y-14008D01*
X20241Y-14024D01*
X20235Y-14042D01*
X20235Y-14101D01*
X20235Y-14205D01*
X20241Y-14221D01*
X20235Y-14238D01*
X20234Y-14250D01*
X19621Y-14250D01*
X19050Y-13679D01*
X19050Y-13465D01*
X19069Y-13465D01*
X19085Y-13458D01*
X19103Y-13465D01*
X19162Y-13465D01*
X19266Y-13465D01*
X19282Y-13458D01*
X19300Y-13465D01*
X19359Y-13465D01*
X19463Y-13465D01*
X19479Y-13458D01*
X19497Y-13465D01*
X19556Y-13465D01*
X19660Y-13465D01*
X19676Y-13458D01*
X19694Y-13465D01*
X19753Y-13465D01*
X19857Y-13465D01*
X19873Y-13458D01*
X19891Y-13465D01*
X19950Y-13465D01*
X20054Y-13465D01*
X20109Y-13442D01*
X20151Y-13400D01*
X20173Y-13345D01*
X20173Y-13286D01*
X20173Y-13000D01*
X21221Y-13000D01*
G54D10*
G36*
X24693Y-11876D02*
X19656Y-11876D01*
X19579Y-11891D01*
X19514Y-11935D01*
X19425Y-12024D01*
X19425Y-11063D01*
X19388Y-11026D01*
X19001Y-11026D01*
X19001Y-11313D01*
X19038Y-11350D01*
X19245Y-11349D01*
X19304Y-11349D01*
X19359Y-11327D01*
X19401Y-11285D01*
X19424Y-11230D01*
X19425Y-11063D01*
X19425Y-12024D01*
X19043Y-12407D01*
X18999Y-12471D01*
X18990Y-12517D01*
X18990Y-12099D01*
X19305Y-12099D01*
X19360Y-12076D01*
X19402Y-12034D01*
X19424Y-11979D01*
X19424Y-11920D01*
X19424Y-11570D01*
X19401Y-11515D01*
X19359Y-11473D01*
X19304Y-11451D01*
X19245Y-11451D01*
X18793Y-11451D01*
X18793Y-11349D01*
X18962Y-11350D01*
X18999Y-11313D01*
X18999Y-11076D01*
X18999Y-11026D01*
X18999Y-11024D01*
X19001Y-11024D01*
X19051Y-11024D01*
X19388Y-11024D01*
X19425Y-10987D01*
X19424Y-10820D01*
X19415Y-10800D01*
X23617Y-10800D01*
X24693Y-11876D01*
X24693Y-11876D01*
G37*
G54D30*
X24693Y-11876D02*
X19656Y-11876D01*
X19579Y-11891D01*
X19514Y-11935D01*
X19425Y-12024D01*
X19425Y-11063D01*
X19388Y-11026D01*
X19001Y-11026D01*
X19001Y-11313D01*
X19038Y-11350D01*
X19245Y-11349D01*
X19304Y-11349D01*
X19359Y-11327D01*
X19401Y-11285D01*
X19424Y-11230D01*
X19425Y-11063D01*
X19425Y-12024D01*
X19043Y-12407D01*
X18999Y-12471D01*
X18990Y-12517D01*
X18990Y-12099D01*
X19305Y-12099D01*
X19360Y-12076D01*
X19402Y-12034D01*
X19424Y-11979D01*
X19424Y-11920D01*
X19424Y-11570D01*
X19401Y-11515D01*
X19359Y-11473D01*
X19304Y-11451D01*
X19245Y-11451D01*
X18793Y-11451D01*
X18793Y-11349D01*
X18962Y-11350D01*
X18999Y-11313D01*
X18999Y-11076D01*
X18999Y-11026D01*
X18999Y-11024D01*
X19001Y-11024D01*
X19051Y-11024D01*
X19388Y-11024D01*
X19425Y-10987D01*
X19424Y-10820D01*
X19415Y-10800D01*
X23617Y-10800D01*
X24693Y-11876D01*
G54D10*
G36*
X26250Y-07016D02*
X25273Y-07993D01*
X17100Y-07993D01*
X16983Y-08016D01*
X16981Y-08016D01*
X16981Y-08017D01*
X16930Y-08051D01*
X16883Y-08083D01*
X16882Y-08083D01*
X16882Y-08084D01*
X16125Y-08841D01*
X15399Y-08115D01*
X15399Y-07995D01*
X15376Y-07940D01*
X15334Y-07898D01*
X15279Y-07876D01*
X15220Y-07876D01*
X14870Y-07876D01*
X14815Y-07899D01*
X14773Y-07941D01*
X14751Y-07996D01*
X14751Y-08055D01*
X14751Y-08605D01*
X14774Y-08660D01*
X14816Y-08702D01*
X14871Y-08724D01*
X14930Y-08724D01*
X15140Y-08724D01*
X15691Y-09275D01*
X15183Y-09783D01*
X15116Y-09882D01*
X15093Y-10000D01*
X15093Y-10050D01*
X15093Y-12750D01*
X15116Y-12868D01*
X15183Y-12967D01*
X15232Y-13017D01*
X15233Y-13017D01*
X15234Y-13018D01*
X15258Y-13043D01*
X14443Y-13043D01*
X14443Y-11113D01*
X14382Y-10949D01*
X14363Y-10921D01*
X14292Y-10893D01*
X14291Y-10894D01*
X14291Y-10892D01*
X14263Y-10821D01*
X14104Y-10748D01*
X13929Y-10741D01*
X13765Y-10802D01*
X13737Y-10821D01*
X13709Y-10892D01*
X14000Y-11183D01*
X14291Y-10892D01*
X14291Y-10894D01*
X14001Y-11184D01*
X14292Y-11475D01*
X14363Y-11447D01*
X14436Y-11288D01*
X14443Y-11113D01*
X14443Y-13043D01*
X14291Y-13043D01*
X14291Y-11476D01*
X14000Y-11185D01*
X13999Y-11186D01*
X13999Y-11184D01*
X13708Y-10893D01*
X13637Y-10921D01*
X13564Y-11080D01*
X13557Y-11255D01*
X13618Y-11419D01*
X13637Y-11447D01*
X13708Y-11475D01*
X13999Y-11184D01*
X13999Y-11186D01*
X13709Y-11476D01*
X13737Y-11547D01*
X13896Y-11620D01*
X14071Y-11627D01*
X14235Y-11566D01*
X14263Y-11547D01*
X14291Y-11476D01*
X14291Y-13043D01*
X13977Y-13043D01*
X13250Y-12316D01*
X13250Y-08338D01*
X13213Y-08301D01*
X12926Y-08301D01*
X12926Y-08688D01*
X12963Y-08725D01*
X13130Y-08724D01*
X13185Y-08701D01*
X13227Y-08659D01*
X13249Y-08604D01*
X13249Y-08545D01*
X13250Y-08338D01*
X13250Y-12316D01*
X12924Y-11990D01*
X12924Y-08688D01*
X12924Y-08301D01*
X12637Y-08301D01*
X12600Y-08338D01*
X12601Y-08545D01*
X12601Y-08604D01*
X12623Y-08659D01*
X12665Y-08701D01*
X12720Y-08724D01*
X12887Y-08725D01*
X12924Y-08688D01*
X12924Y-11990D01*
X12817Y-11883D01*
X12718Y-11816D01*
X12600Y-11793D01*
X11177Y-11793D01*
X11107Y-11723D01*
X11107Y-11300D01*
X11106Y-11299D01*
X11084Y-11183D01*
X11083Y-11181D01*
X11049Y-11130D01*
X11017Y-11083D01*
X11016Y-11082D01*
X10667Y-10733D01*
X10649Y-10720D01*
X10649Y-10620D01*
X10626Y-10565D01*
X10584Y-10523D01*
X10529Y-10501D01*
X10470Y-10501D01*
X09870Y-10501D01*
X09815Y-10524D01*
X09773Y-10566D01*
X09751Y-10621D01*
X09751Y-10680D01*
X09751Y-11259D01*
X09700Y-11250D01*
X09643Y-11250D01*
X09546Y-11250D01*
X09559Y-11237D01*
X09542Y-11220D01*
X09563Y-11213D01*
X09636Y-11054D01*
X09643Y-10879D01*
X09582Y-10715D01*
X09563Y-10687D01*
X09492Y-10659D01*
X09491Y-10660D01*
X09491Y-10658D01*
X09463Y-10587D01*
X09304Y-10514D01*
X09129Y-10507D01*
X08965Y-10568D01*
X08937Y-10587D01*
X08909Y-10658D01*
X09200Y-10949D01*
X09491Y-10658D01*
X09491Y-10660D01*
X09201Y-10950D01*
X09200Y-10951D01*
X09199Y-10951D01*
X09198Y-10950D01*
X09199Y-10950D01*
X08908Y-10659D01*
X08837Y-10687D01*
X08764Y-10846D01*
X08757Y-11021D01*
X08818Y-11185D01*
X08837Y-11213D01*
X08857Y-11220D01*
X08841Y-11237D01*
X08854Y-11250D01*
X08850Y-11250D01*
X08773Y-11265D01*
X08708Y-11309D01*
X08459Y-11559D01*
X08415Y-11623D01*
X08400Y-11700D01*
X08400Y-13200D01*
X08415Y-13277D01*
X08459Y-13341D01*
X08708Y-13591D01*
X08709Y-13591D01*
X08773Y-13635D01*
X08850Y-13650D01*
X08854Y-13650D01*
X08841Y-13663D01*
X08857Y-13679D01*
X08837Y-13687D01*
X08764Y-13846D01*
X08757Y-14021D01*
X08818Y-14185D01*
X08837Y-14213D01*
X08908Y-14241D01*
X09163Y-13985D01*
X09199Y-13950D01*
X09198Y-13949D01*
X09199Y-13948D01*
X09200Y-13949D01*
X09200Y-13948D01*
X09201Y-13949D01*
X09201Y-13950D01*
X09200Y-13951D01*
X09199Y-13952D01*
X08909Y-14242D01*
X08937Y-14313D01*
X09096Y-14386D01*
X09271Y-14393D01*
X09435Y-14332D01*
X09463Y-14313D01*
X09470Y-14292D01*
X09487Y-14309D01*
X09491Y-14305D01*
X09500Y-14296D01*
X09500Y-14350D01*
X09515Y-14427D01*
X09559Y-14491D01*
X09708Y-14641D01*
X09709Y-14641D01*
X09741Y-14663D01*
X09773Y-14685D01*
X09774Y-14685D01*
X09850Y-14700D01*
X10800Y-14700D01*
X10800Y-14699D01*
X10876Y-14685D01*
X10877Y-14685D01*
X10916Y-14658D01*
X10901Y-14696D01*
X10901Y-14755D01*
X10900Y-14962D01*
X10937Y-14999D01*
X11224Y-14999D01*
X11224Y-14612D01*
X11187Y-14575D01*
X11020Y-14576D01*
X10996Y-14585D01*
X11163Y-14419D01*
X12887Y-14419D01*
X13125Y-14657D01*
X13189Y-14701D01*
X13190Y-14701D01*
X13266Y-14716D01*
X13348Y-14716D01*
X13323Y-14741D01*
X13301Y-14796D01*
X13301Y-14855D01*
X13300Y-15062D01*
X13337Y-15099D01*
X13574Y-15099D01*
X13624Y-15099D01*
X13626Y-15099D01*
X13676Y-15099D01*
X13913Y-15099D01*
X13950Y-15062D01*
X13949Y-14855D01*
X13949Y-14796D01*
X13927Y-14741D01*
X13902Y-14716D01*
X14098Y-14716D01*
X14073Y-14741D01*
X14051Y-14796D01*
X14051Y-14855D01*
X14051Y-15405D01*
X14074Y-15460D01*
X14116Y-15502D01*
X14171Y-15524D01*
X14230Y-15524D01*
X14580Y-15524D01*
X14635Y-15501D01*
X14677Y-15459D01*
X14699Y-15404D01*
X14699Y-15345D01*
X14699Y-15307D01*
X15116Y-15307D01*
X15116Y-15342D01*
X15116Y-15355D01*
X15117Y-15386D01*
X15123Y-15402D01*
X15117Y-15420D01*
X15117Y-15479D01*
X15117Y-15583D01*
X15123Y-15599D01*
X15117Y-15617D01*
X15117Y-15676D01*
X15117Y-15780D01*
X15123Y-15796D01*
X15117Y-15813D01*
X15116Y-15844D01*
X15116Y-15857D01*
X15116Y-15892D01*
X13950Y-15892D01*
X13950Y-15138D01*
X13913Y-15101D01*
X13626Y-15101D01*
X13626Y-15488D01*
X13663Y-15525D01*
X13830Y-15524D01*
X13885Y-15501D01*
X13927Y-15459D01*
X13949Y-15404D01*
X13949Y-15345D01*
X13950Y-15138D01*
X13950Y-15892D01*
X13624Y-15892D01*
X13624Y-15488D01*
X13624Y-15101D01*
X13337Y-15101D01*
X13300Y-15138D01*
X13301Y-15345D01*
X13301Y-15404D01*
X13323Y-15459D01*
X13365Y-15501D01*
X13420Y-15524D01*
X13587Y-15525D01*
X13624Y-15488D01*
X13624Y-15892D01*
X13093Y-15892D01*
X13099Y-15880D01*
X13099Y-15721D01*
X13038Y-15574D01*
X12926Y-15462D01*
X12780Y-15401D01*
X12621Y-15401D01*
X12594Y-15411D01*
X12299Y-15116D01*
X12299Y-14695D01*
X12276Y-14640D01*
X12234Y-14598D01*
X12179Y-14576D01*
X12120Y-14576D01*
X11770Y-14576D01*
X11715Y-14599D01*
X11673Y-14641D01*
X11651Y-14696D01*
X11651Y-14755D01*
X11651Y-15305D01*
X11674Y-15360D01*
X11716Y-15402D01*
X11771Y-15424D01*
X11830Y-15424D01*
X12041Y-15424D01*
X12311Y-15694D01*
X12301Y-15720D01*
X12301Y-15879D01*
X12362Y-16026D01*
X12425Y-16089D01*
X11550Y-16089D01*
X11550Y-15038D01*
X11550Y-14962D01*
X11549Y-14755D01*
X11549Y-14696D01*
X11527Y-14641D01*
X11485Y-14599D01*
X11430Y-14576D01*
X11263Y-14575D01*
X11226Y-14612D01*
X11226Y-14999D01*
X11513Y-14999D01*
X11550Y-14962D01*
X11550Y-15038D01*
X11513Y-15001D01*
X11226Y-15001D01*
X11226Y-15388D01*
X11263Y-15425D01*
X11430Y-15424D01*
X11485Y-15401D01*
X11527Y-15359D01*
X11549Y-15304D01*
X11549Y-15245D01*
X11550Y-15038D01*
X11550Y-16089D01*
X11224Y-16089D01*
X11224Y-15388D01*
X11224Y-15001D01*
X10937Y-15001D01*
X10900Y-15038D01*
X10901Y-15245D01*
X10901Y-15304D01*
X10923Y-15359D01*
X10965Y-15401D01*
X11020Y-15424D01*
X11187Y-15425D01*
X11224Y-15388D01*
X11224Y-16089D01*
X10271Y-16089D01*
X09491Y-15308D01*
X08350Y-14167D01*
X08350Y-09632D01*
X09982Y-08000D01*
X12601Y-08000D01*
X12601Y-08055D01*
X12600Y-08262D01*
X12637Y-08299D01*
X12874Y-08299D01*
X12924Y-08299D01*
X12926Y-08299D01*
X12976Y-08299D01*
X13213Y-08299D01*
X13250Y-08262D01*
X13249Y-08055D01*
X13249Y-08000D01*
X13351Y-08000D01*
X13351Y-08055D01*
X13351Y-08605D01*
X13374Y-08660D01*
X13416Y-08702D01*
X13471Y-08724D01*
X13530Y-08724D01*
X13800Y-08724D01*
X13800Y-08812D01*
X13746Y-08835D01*
X13620Y-08961D01*
X13551Y-09126D01*
X13551Y-09305D01*
X13619Y-09470D01*
X13745Y-09596D01*
X13910Y-09665D01*
X14089Y-09665D01*
X14254Y-09597D01*
X14380Y-09471D01*
X14449Y-09306D01*
X14449Y-09127D01*
X14381Y-08962D01*
X14255Y-08836D01*
X14200Y-08813D01*
X14200Y-08724D01*
X14530Y-08724D01*
X14585Y-08701D01*
X14627Y-08659D01*
X14649Y-08604D01*
X14649Y-08545D01*
X14649Y-07995D01*
X14630Y-07951D01*
X16182Y-06400D01*
X26250Y-06400D01*
X26250Y-07016D01*
X26250Y-07016D01*
G37*
G54D30*
X26250Y-07016D02*
X25273Y-07993D01*
X17100Y-07993D01*
X16983Y-08016D01*
X16981Y-08016D01*
X16981Y-08017D01*
X16930Y-08051D01*
X16883Y-08083D01*
X16882Y-08083D01*
X16882Y-08084D01*
X16125Y-08841D01*
X15399Y-08115D01*
X15399Y-07995D01*
X15376Y-07940D01*
X15334Y-07898D01*
X15279Y-07876D01*
X15220Y-07876D01*
X14870Y-07876D01*
X14815Y-07899D01*
X14773Y-07941D01*
X14751Y-07996D01*
X14751Y-08055D01*
X14751Y-08605D01*
X14774Y-08660D01*
X14816Y-08702D01*
X14871Y-08724D01*
X14930Y-08724D01*
X15140Y-08724D01*
X15691Y-09275D01*
X15183Y-09783D01*
X15116Y-09882D01*
X15093Y-10000D01*
X15093Y-10050D01*
X15093Y-12750D01*
X15116Y-12868D01*
X15183Y-12967D01*
X15232Y-13017D01*
X15233Y-13017D01*
X15234Y-13018D01*
X15258Y-13043D01*
X14443Y-13043D01*
X14443Y-11113D01*
X14382Y-10949D01*
X14363Y-10921D01*
X14292Y-10893D01*
X14291Y-10894D01*
X14291Y-10892D01*
X14263Y-10821D01*
X14104Y-10748D01*
X13929Y-10741D01*
X13765Y-10802D01*
X13737Y-10821D01*
X13709Y-10892D01*
X14000Y-11183D01*
X14291Y-10892D01*
X14291Y-10894D01*
X14001Y-11184D01*
X14292Y-11475D01*
X14363Y-11447D01*
X14436Y-11288D01*
X14443Y-11113D01*
X14443Y-13043D01*
X14291Y-13043D01*
X14291Y-11476D01*
X14000Y-11185D01*
X13999Y-11186D01*
X13999Y-11184D01*
X13708Y-10893D01*
X13637Y-10921D01*
X13564Y-11080D01*
X13557Y-11255D01*
X13618Y-11419D01*
X13637Y-11447D01*
X13708Y-11475D01*
X13999Y-11184D01*
X13999Y-11186D01*
X13709Y-11476D01*
X13737Y-11547D01*
X13896Y-11620D01*
X14071Y-11627D01*
X14235Y-11566D01*
X14263Y-11547D01*
X14291Y-11476D01*
X14291Y-13043D01*
X13977Y-13043D01*
X13250Y-12316D01*
X13250Y-08338D01*
X13213Y-08301D01*
X12926Y-08301D01*
X12926Y-08688D01*
X12963Y-08725D01*
X13130Y-08724D01*
X13185Y-08701D01*
X13227Y-08659D01*
X13249Y-08604D01*
X13249Y-08545D01*
X13250Y-08338D01*
X13250Y-12316D01*
X12924Y-11990D01*
X12924Y-08688D01*
X12924Y-08301D01*
X12637Y-08301D01*
X12600Y-08338D01*
X12601Y-08545D01*
X12601Y-08604D01*
X12623Y-08659D01*
X12665Y-08701D01*
X12720Y-08724D01*
X12887Y-08725D01*
X12924Y-08688D01*
X12924Y-11990D01*
X12817Y-11883D01*
X12718Y-11816D01*
X12600Y-11793D01*
X11177Y-11793D01*
X11107Y-11723D01*
X11107Y-11300D01*
X11106Y-11299D01*
X11084Y-11183D01*
X11083Y-11181D01*
X11049Y-11130D01*
X11017Y-11083D01*
X11016Y-11082D01*
X10667Y-10733D01*
X10649Y-10720D01*
X10649Y-10620D01*
X10626Y-10565D01*
X10584Y-10523D01*
X10529Y-10501D01*
X10470Y-10501D01*
X09870Y-10501D01*
X09815Y-10524D01*
X09773Y-10566D01*
X09751Y-10621D01*
X09751Y-10680D01*
X09751Y-11259D01*
X09700Y-11250D01*
X09643Y-11250D01*
X09546Y-11250D01*
X09559Y-11237D01*
X09542Y-11220D01*
X09563Y-11213D01*
X09636Y-11054D01*
X09643Y-10879D01*
X09582Y-10715D01*
X09563Y-10687D01*
X09492Y-10659D01*
X09491Y-10660D01*
X09491Y-10658D01*
X09463Y-10587D01*
X09304Y-10514D01*
X09129Y-10507D01*
X08965Y-10568D01*
X08937Y-10587D01*
X08909Y-10658D01*
X09200Y-10949D01*
X09491Y-10658D01*
X09491Y-10660D01*
X09201Y-10950D01*
X09200Y-10951D01*
X09199Y-10951D01*
X09198Y-10950D01*
X09199Y-10950D01*
X08908Y-10659D01*
X08837Y-10687D01*
X08764Y-10846D01*
X08757Y-11021D01*
X08818Y-11185D01*
X08837Y-11213D01*
X08857Y-11220D01*
X08841Y-11237D01*
X08854Y-11250D01*
X08850Y-11250D01*
X08773Y-11265D01*
X08708Y-11309D01*
X08459Y-11559D01*
X08415Y-11623D01*
X08400Y-11700D01*
X08400Y-13200D01*
X08415Y-13277D01*
X08459Y-13341D01*
X08708Y-13591D01*
X08709Y-13591D01*
X08773Y-13635D01*
X08850Y-13650D01*
X08854Y-13650D01*
X08841Y-13663D01*
X08857Y-13679D01*
X08837Y-13687D01*
X08764Y-13846D01*
X08757Y-14021D01*
X08818Y-14185D01*
X08837Y-14213D01*
X08908Y-14241D01*
X09163Y-13985D01*
X09199Y-13950D01*
X09198Y-13949D01*
X09199Y-13948D01*
X09200Y-13949D01*
X09200Y-13948D01*
X09201Y-13949D01*
X09201Y-13950D01*
X09200Y-13951D01*
X09199Y-13952D01*
X08909Y-14242D01*
X08937Y-14313D01*
X09096Y-14386D01*
X09271Y-14393D01*
X09435Y-14332D01*
X09463Y-14313D01*
X09470Y-14292D01*
X09487Y-14309D01*
X09491Y-14305D01*
X09500Y-14296D01*
X09500Y-14350D01*
X09515Y-14427D01*
X09559Y-14491D01*
X09708Y-14641D01*
X09709Y-14641D01*
X09741Y-14663D01*
X09773Y-14685D01*
X09774Y-14685D01*
X09850Y-14700D01*
X10800Y-14700D01*
X10800Y-14699D01*
X10876Y-14685D01*
X10877Y-14685D01*
X10916Y-14658D01*
X10901Y-14696D01*
X10901Y-14755D01*
X10900Y-14962D01*
X10937Y-14999D01*
X11224Y-14999D01*
X11224Y-14612D01*
X11187Y-14575D01*
X11020Y-14576D01*
X10996Y-14585D01*
X11163Y-14419D01*
X12887Y-14419D01*
X13125Y-14657D01*
X13189Y-14701D01*
X13190Y-14701D01*
X13266Y-14716D01*
X13348Y-14716D01*
X13323Y-14741D01*
X13301Y-14796D01*
X13301Y-14855D01*
X13300Y-15062D01*
X13337Y-15099D01*
X13574Y-15099D01*
X13624Y-15099D01*
X13626Y-15099D01*
X13676Y-15099D01*
X13913Y-15099D01*
X13950Y-15062D01*
X13949Y-14855D01*
X13949Y-14796D01*
X13927Y-14741D01*
X13902Y-14716D01*
X14098Y-14716D01*
X14073Y-14741D01*
X14051Y-14796D01*
X14051Y-14855D01*
X14051Y-15405D01*
X14074Y-15460D01*
X14116Y-15502D01*
X14171Y-15524D01*
X14230Y-15524D01*
X14580Y-15524D01*
X14635Y-15501D01*
X14677Y-15459D01*
X14699Y-15404D01*
X14699Y-15345D01*
X14699Y-15307D01*
X15116Y-15307D01*
X15116Y-15342D01*
X15116Y-15355D01*
X15117Y-15386D01*
X15123Y-15402D01*
X15117Y-15420D01*
X15117Y-15479D01*
X15117Y-15583D01*
X15123Y-15599D01*
X15117Y-15617D01*
X15117Y-15676D01*
X15117Y-15780D01*
X15123Y-15796D01*
X15117Y-15813D01*
X15116Y-15844D01*
X15116Y-15857D01*
X15116Y-15892D01*
X13950Y-15892D01*
X13950Y-15138D01*
X13913Y-15101D01*
X13626Y-15101D01*
X13626Y-15488D01*
X13663Y-15525D01*
X13830Y-15524D01*
X13885Y-15501D01*
X13927Y-15459D01*
X13949Y-15404D01*
X13949Y-15345D01*
X13950Y-15138D01*
X13950Y-15892D01*
X13624Y-15892D01*
X13624Y-15488D01*
X13624Y-15101D01*
X13337Y-15101D01*
X13300Y-15138D01*
X13301Y-15345D01*
X13301Y-15404D01*
X13323Y-15459D01*
X13365Y-15501D01*
X13420Y-15524D01*
X13587Y-15525D01*
X13624Y-15488D01*
X13624Y-15892D01*
X13093Y-15892D01*
X13099Y-15880D01*
X13099Y-15721D01*
X13038Y-15574D01*
X12926Y-15462D01*
X12780Y-15401D01*
X12621Y-15401D01*
X12594Y-15411D01*
X12299Y-15116D01*
X12299Y-14695D01*
X12276Y-14640D01*
X12234Y-14598D01*
X12179Y-14576D01*
X12120Y-14576D01*
X11770Y-14576D01*
X11715Y-14599D01*
X11673Y-14641D01*
X11651Y-14696D01*
X11651Y-14755D01*
X11651Y-15305D01*
X11674Y-15360D01*
X11716Y-15402D01*
X11771Y-15424D01*
X11830Y-15424D01*
X12041Y-15424D01*
X12311Y-15694D01*
X12301Y-15720D01*
X12301Y-15879D01*
X12362Y-16026D01*
X12425Y-16089D01*
X11550Y-16089D01*
X11550Y-15038D01*
X11550Y-14962D01*
X11549Y-14755D01*
X11549Y-14696D01*
X11527Y-14641D01*
X11485Y-14599D01*
X11430Y-14576D01*
X11263Y-14575D01*
X11226Y-14612D01*
X11226Y-14999D01*
X11513Y-14999D01*
X11550Y-14962D01*
X11550Y-15038D01*
X11513Y-15001D01*
X11226Y-15001D01*
X11226Y-15388D01*
X11263Y-15425D01*
X11430Y-15424D01*
X11485Y-15401D01*
X11527Y-15359D01*
X11549Y-15304D01*
X11549Y-15245D01*
X11550Y-15038D01*
X11550Y-16089D01*
X11224Y-16089D01*
X11224Y-15388D01*
X11224Y-15001D01*
X10937Y-15001D01*
X10900Y-15038D01*
X10901Y-15245D01*
X10901Y-15304D01*
X10923Y-15359D01*
X10965Y-15401D01*
X11020Y-15424D01*
X11187Y-15425D01*
X11224Y-15388D01*
X11224Y-16089D01*
X10271Y-16089D01*
X09491Y-15308D01*
X08350Y-14167D01*
X08350Y-09632D01*
X09982Y-08000D01*
X12601Y-08000D01*
X12601Y-08055D01*
X12600Y-08262D01*
X12637Y-08299D01*
X12874Y-08299D01*
X12924Y-08299D01*
X12926Y-08299D01*
X12976Y-08299D01*
X13213Y-08299D01*
X13250Y-08262D01*
X13249Y-08055D01*
X13249Y-08000D01*
X13351Y-08000D01*
X13351Y-08055D01*
X13351Y-08605D01*
X13374Y-08660D01*
X13416Y-08702D01*
X13471Y-08724D01*
X13530Y-08724D01*
X13800Y-08724D01*
X13800Y-08812D01*
X13746Y-08835D01*
X13620Y-08961D01*
X13551Y-09126D01*
X13551Y-09305D01*
X13619Y-09470D01*
X13745Y-09596D01*
X13910Y-09665D01*
X14089Y-09665D01*
X14254Y-09597D01*
X14380Y-09471D01*
X14449Y-09306D01*
X14449Y-09127D01*
X14381Y-08962D01*
X14255Y-08836D01*
X14200Y-08813D01*
X14200Y-08724D01*
X14530Y-08724D01*
X14585Y-08701D01*
X14627Y-08659D01*
X14649Y-08604D01*
X14649Y-08545D01*
X14649Y-07995D01*
X14630Y-07951D01*
X16182Y-06400D01*
X26250Y-06400D01*
X26250Y-07016D01*
G54D10*
G36*
X26250Y-17251D02*
X23571Y-14573D01*
X23507Y-14529D01*
X23430Y-14514D01*
X22895Y-14514D01*
X22899Y-14504D01*
X22899Y-14445D01*
X22900Y-14238D01*
X22900Y-14162D01*
X22899Y-13955D01*
X22899Y-13896D01*
X22877Y-13841D01*
X22835Y-13799D01*
X22780Y-13776D01*
X22613Y-13775D01*
X22576Y-13812D01*
X22576Y-14199D01*
X22863Y-14199D01*
X22900Y-14162D01*
X22900Y-14238D01*
X22863Y-14201D01*
X22626Y-14201D01*
X22576Y-14201D01*
X22574Y-14201D01*
X22574Y-14199D01*
X22574Y-13812D01*
X22537Y-13775D01*
X22370Y-13776D01*
X22315Y-13799D01*
X22273Y-13841D01*
X22251Y-13896D01*
X22251Y-13955D01*
X22250Y-14162D01*
X22287Y-14199D01*
X22574Y-14199D01*
X22574Y-14201D01*
X22524Y-14201D01*
X22287Y-14201D01*
X22250Y-14238D01*
X22251Y-14445D01*
X22251Y-14504D01*
X22255Y-14514D01*
X22145Y-14514D01*
X22149Y-14504D01*
X22149Y-14445D01*
X22149Y-13895D01*
X22126Y-13840D01*
X22084Y-13798D01*
X22029Y-13776D01*
X21970Y-13776D01*
X21620Y-13776D01*
X21565Y-13799D01*
X21523Y-13841D01*
X21519Y-13851D01*
X21519Y-13807D01*
X21607Y-13719D01*
X23236Y-13719D01*
X26150Y-16632D01*
X26150Y-17000D01*
X26165Y-17077D01*
X26209Y-17141D01*
X26250Y-17182D01*
X26250Y-17251D01*
X26250Y-17251D01*
G37*
G54D30*
X26250Y-17251D02*
X23571Y-14573D01*
X23507Y-14529D01*
X23430Y-14514D01*
X22895Y-14514D01*
X22899Y-14504D01*
X22899Y-14445D01*
X22900Y-14238D01*
X22900Y-14162D01*
X22899Y-13955D01*
X22899Y-13896D01*
X22877Y-13841D01*
X22835Y-13799D01*
X22780Y-13776D01*
X22613Y-13775D01*
X22576Y-13812D01*
X22576Y-14199D01*
X22863Y-14199D01*
X22900Y-14162D01*
X22900Y-14238D01*
X22863Y-14201D01*
X22626Y-14201D01*
X22576Y-14201D01*
X22574Y-14201D01*
X22574Y-14199D01*
X22574Y-13812D01*
X22537Y-13775D01*
X22370Y-13776D01*
X22315Y-13799D01*
X22273Y-13841D01*
X22251Y-13896D01*
X22251Y-13955D01*
X22250Y-14162D01*
X22287Y-14199D01*
X22574Y-14199D01*
X22574Y-14201D01*
X22524Y-14201D01*
X22287Y-14201D01*
X22250Y-14238D01*
X22251Y-14445D01*
X22251Y-14504D01*
X22255Y-14514D01*
X22145Y-14514D01*
X22149Y-14504D01*
X22149Y-14445D01*
X22149Y-13895D01*
X22126Y-13840D01*
X22084Y-13798D01*
X22029Y-13776D01*
X21970Y-13776D01*
X21620Y-13776D01*
X21565Y-13799D01*
X21523Y-13841D01*
X21519Y-13851D01*
X21519Y-13807D01*
X21607Y-13719D01*
X23236Y-13719D01*
X26150Y-16632D01*
X26150Y-17000D01*
X26165Y-17077D01*
X26209Y-17141D01*
X26250Y-17182D01*
X26250Y-17251D01*
G54D10*
G36*
X26250Y-23600D02*
X25382Y-23600D01*
X22950Y-21168D01*
X22950Y-19238D01*
X22950Y-19162D01*
X22949Y-18930D01*
X22949Y-18871D01*
X22927Y-18816D01*
X22900Y-18789D01*
X22900Y-17538D01*
X22863Y-17501D01*
X22576Y-17501D01*
X22576Y-17888D01*
X22613Y-17925D01*
X22780Y-17924D01*
X22835Y-17901D01*
X22877Y-17859D01*
X22899Y-17804D01*
X22899Y-17745D01*
X22900Y-17538D01*
X22900Y-18789D01*
X22885Y-18774D01*
X22830Y-18751D01*
X22574Y-18750D01*
X22574Y-17888D01*
X22574Y-17501D01*
X22287Y-17501D01*
X22250Y-17538D01*
X22251Y-17745D01*
X22251Y-17804D01*
X22273Y-17859D01*
X22315Y-17901D01*
X22370Y-17924D01*
X22537Y-17925D01*
X22574Y-17888D01*
X22574Y-18750D01*
X22538Y-18750D01*
X22501Y-18787D01*
X22501Y-19199D01*
X22913Y-19199D01*
X22950Y-19162D01*
X22950Y-19238D01*
X22913Y-19201D01*
X22501Y-19201D01*
X22501Y-19613D01*
X22538Y-19650D01*
X22830Y-19649D01*
X22885Y-19626D01*
X22927Y-19584D01*
X22949Y-19529D01*
X22949Y-19470D01*
X22950Y-19238D01*
X22950Y-21168D01*
X22499Y-20717D01*
X22499Y-19613D01*
X22499Y-19201D01*
X22499Y-19199D01*
X22499Y-18787D01*
X22462Y-18750D01*
X22170Y-18751D01*
X22115Y-18774D01*
X22073Y-18816D01*
X22051Y-18871D01*
X22051Y-18930D01*
X22050Y-19162D01*
X22087Y-19199D01*
X22499Y-19199D01*
X22499Y-19201D01*
X22087Y-19201D01*
X22050Y-19238D01*
X22051Y-19470D01*
X22051Y-19529D01*
X22073Y-19584D01*
X22115Y-19626D01*
X22170Y-19649D01*
X22462Y-19650D01*
X22499Y-19613D01*
X22499Y-20717D01*
X21431Y-19649D01*
X21589Y-19649D01*
X21754Y-19581D01*
X21880Y-19455D01*
X21949Y-19290D01*
X21949Y-19111D01*
X21881Y-18946D01*
X21755Y-18820D01*
X21590Y-18751D01*
X21411Y-18751D01*
X21246Y-18819D01*
X21225Y-18840D01*
X21225Y-18724D01*
X21230Y-18724D01*
X21285Y-18701D01*
X21327Y-18659D01*
X21349Y-18604D01*
X21349Y-18545D01*
X21349Y-17995D01*
X21326Y-17940D01*
X21284Y-17898D01*
X21229Y-17876D01*
X21225Y-17876D01*
X21225Y-17525D01*
X21224Y-17524D01*
X21215Y-17475D01*
X21501Y-17475D01*
X21501Y-17805D01*
X21524Y-17860D01*
X21548Y-17884D01*
X21515Y-17899D01*
X21473Y-17941D01*
X21451Y-17996D01*
X21451Y-18055D01*
X21451Y-18605D01*
X21474Y-18660D01*
X21516Y-18702D01*
X21571Y-18724D01*
X21630Y-18724D01*
X21980Y-18724D01*
X22035Y-18701D01*
X22077Y-18659D01*
X22099Y-18604D01*
X22099Y-18545D01*
X22099Y-17995D01*
X22076Y-17940D01*
X22051Y-17915D01*
X22085Y-17901D01*
X22127Y-17859D01*
X22149Y-17804D01*
X22149Y-17745D01*
X22149Y-17195D01*
X22126Y-17140D01*
X22084Y-17098D01*
X22041Y-17081D01*
X22358Y-17081D01*
X22315Y-17099D01*
X22273Y-17141D01*
X22251Y-17196D01*
X22251Y-17255D01*
X22250Y-17462D01*
X22287Y-17499D01*
X22524Y-17499D01*
X22574Y-17499D01*
X22576Y-17499D01*
X22626Y-17499D01*
X22863Y-17499D01*
X22900Y-17462D01*
X22899Y-17281D01*
X23700Y-18082D01*
X23700Y-20600D01*
X23715Y-20677D01*
X23759Y-20741D01*
X26250Y-23232D01*
X26250Y-23600D01*
X26250Y-23600D01*
G37*
G54D30*
X26250Y-23600D02*
X25382Y-23600D01*
X22950Y-21168D01*
X22950Y-19238D01*
X22950Y-19162D01*
X22949Y-18930D01*
X22949Y-18871D01*
X22927Y-18816D01*
X22900Y-18789D01*
X22900Y-17538D01*
X22863Y-17501D01*
X22576Y-17501D01*
X22576Y-17888D01*
X22613Y-17925D01*
X22780Y-17924D01*
X22835Y-17901D01*
X22877Y-17859D01*
X22899Y-17804D01*
X22899Y-17745D01*
X22900Y-17538D01*
X22900Y-18789D01*
X22885Y-18774D01*
X22830Y-18751D01*
X22574Y-18750D01*
X22574Y-17888D01*
X22574Y-17501D01*
X22287Y-17501D01*
X22250Y-17538D01*
X22251Y-17745D01*
X22251Y-17804D01*
X22273Y-17859D01*
X22315Y-17901D01*
X22370Y-17924D01*
X22537Y-17925D01*
X22574Y-17888D01*
X22574Y-18750D01*
X22538Y-18750D01*
X22501Y-18787D01*
X22501Y-19199D01*
X22913Y-19199D01*
X22950Y-19162D01*
X22950Y-19238D01*
X22913Y-19201D01*
X22501Y-19201D01*
X22501Y-19613D01*
X22538Y-19650D01*
X22830Y-19649D01*
X22885Y-19626D01*
X22927Y-19584D01*
X22949Y-19529D01*
X22949Y-19470D01*
X22950Y-19238D01*
X22950Y-21168D01*
X22499Y-20717D01*
X22499Y-19613D01*
X22499Y-19201D01*
X22499Y-19199D01*
X22499Y-18787D01*
X22462Y-18750D01*
X22170Y-18751D01*
X22115Y-18774D01*
X22073Y-18816D01*
X22051Y-18871D01*
X22051Y-18930D01*
X22050Y-19162D01*
X22087Y-19199D01*
X22499Y-19199D01*
X22499Y-19201D01*
X22087Y-19201D01*
X22050Y-19238D01*
X22051Y-19470D01*
X22051Y-19529D01*
X22073Y-19584D01*
X22115Y-19626D01*
X22170Y-19649D01*
X22462Y-19650D01*
X22499Y-19613D01*
X22499Y-20717D01*
X21431Y-19649D01*
X21589Y-19649D01*
X21754Y-19581D01*
X21880Y-19455D01*
X21949Y-19290D01*
X21949Y-19111D01*
X21881Y-18946D01*
X21755Y-18820D01*
X21590Y-18751D01*
X21411Y-18751D01*
X21246Y-18819D01*
X21225Y-18840D01*
X21225Y-18724D01*
X21230Y-18724D01*
X21285Y-18701D01*
X21327Y-18659D01*
X21349Y-18604D01*
X21349Y-18545D01*
X21349Y-17995D01*
X21326Y-17940D01*
X21284Y-17898D01*
X21229Y-17876D01*
X21225Y-17876D01*
X21225Y-17525D01*
X21224Y-17524D01*
X21215Y-17475D01*
X21501Y-17475D01*
X21501Y-17805D01*
X21524Y-17860D01*
X21548Y-17884D01*
X21515Y-17899D01*
X21473Y-17941D01*
X21451Y-17996D01*
X21451Y-18055D01*
X21451Y-18605D01*
X21474Y-18660D01*
X21516Y-18702D01*
X21571Y-18724D01*
X21630Y-18724D01*
X21980Y-18724D01*
X22035Y-18701D01*
X22077Y-18659D01*
X22099Y-18604D01*
X22099Y-18545D01*
X22099Y-17995D01*
X22076Y-17940D01*
X22051Y-17915D01*
X22085Y-17901D01*
X22127Y-17859D01*
X22149Y-17804D01*
X22149Y-17745D01*
X22149Y-17195D01*
X22126Y-17140D01*
X22084Y-17098D01*
X22041Y-17081D01*
X22358Y-17081D01*
X22315Y-17099D01*
X22273Y-17141D01*
X22251Y-17196D01*
X22251Y-17255D01*
X22250Y-17462D01*
X22287Y-17499D01*
X22524Y-17499D01*
X22574Y-17499D01*
X22576Y-17499D01*
X22626Y-17499D01*
X22863Y-17499D01*
X22900Y-17462D01*
X22899Y-17281D01*
X23700Y-18082D01*
X23700Y-20600D01*
X23715Y-20677D01*
X23759Y-20741D01*
X26250Y-23232D01*
X26250Y-23600D01*
G54D10*
G36*
X26250Y-26600D02*
X24582Y-26600D01*
X20250Y-22267D01*
X19325Y-21342D01*
X19325Y-20413D01*
X19325Y-20337D01*
X19324Y-20170D01*
X19301Y-20115D01*
X19259Y-20073D01*
X19204Y-20051D01*
X19145Y-20051D01*
X18938Y-20050D01*
X18901Y-20087D01*
X18901Y-20374D01*
X19288Y-20374D01*
X19325Y-20337D01*
X19325Y-20413D01*
X19288Y-20376D01*
X18901Y-20376D01*
X18901Y-20663D01*
X18938Y-20700D01*
X19145Y-20699D01*
X19204Y-20699D01*
X19259Y-20677D01*
X19301Y-20635D01*
X19324Y-20580D01*
X19325Y-20413D01*
X19325Y-21342D01*
X18681Y-20699D01*
X18862Y-20700D01*
X18899Y-20663D01*
X18899Y-20426D01*
X18899Y-20376D01*
X18899Y-20374D01*
X18899Y-20324D01*
X18899Y-20087D01*
X18862Y-20050D01*
X18655Y-20051D01*
X18596Y-20051D01*
X18595Y-20051D01*
X18595Y-19948D01*
X18596Y-19949D01*
X18655Y-19949D01*
X19205Y-19949D01*
X19260Y-19926D01*
X19302Y-19884D01*
X19324Y-19829D01*
X19324Y-19770D01*
X19324Y-19606D01*
X20250Y-20532D01*
X26158Y-26441D01*
X26159Y-26441D01*
X26223Y-26485D01*
X26250Y-26490D01*
X26250Y-26600D01*
X26250Y-26600D01*
G37*
G54D30*
X26250Y-26600D02*
X24582Y-26600D01*
X20250Y-22267D01*
X19325Y-21342D01*
X19325Y-20413D01*
X19325Y-20337D01*
X19324Y-20170D01*
X19301Y-20115D01*
X19259Y-20073D01*
X19204Y-20051D01*
X19145Y-20051D01*
X18938Y-20050D01*
X18901Y-20087D01*
X18901Y-20374D01*
X19288Y-20374D01*
X19325Y-20337D01*
X19325Y-20413D01*
X19288Y-20376D01*
X18901Y-20376D01*
X18901Y-20663D01*
X18938Y-20700D01*
X19145Y-20699D01*
X19204Y-20699D01*
X19259Y-20677D01*
X19301Y-20635D01*
X19324Y-20580D01*
X19325Y-20413D01*
X19325Y-21342D01*
X18681Y-20699D01*
X18862Y-20700D01*
X18899Y-20663D01*
X18899Y-20426D01*
X18899Y-20376D01*
X18899Y-20374D01*
X18899Y-20324D01*
X18899Y-20087D01*
X18862Y-20050D01*
X18655Y-20051D01*
X18596Y-20051D01*
X18595Y-20051D01*
X18595Y-19948D01*
X18596Y-19949D01*
X18655Y-19949D01*
X19205Y-19949D01*
X19260Y-19926D01*
X19302Y-19884D01*
X19324Y-19829D01*
X19324Y-19770D01*
X19324Y-19606D01*
X20250Y-20532D01*
X26158Y-26441D01*
X26159Y-26441D01*
X26223Y-26485D01*
X26250Y-26490D01*
X26250Y-26600D01*
G54D10*
G36*
X26250Y-32550D02*
X20250Y-32550D01*
X07750Y-32550D01*
X07750Y-05250D01*
X26250Y-05250D01*
X26250Y-06000D01*
X16100Y-06000D01*
X16023Y-06015D01*
X15958Y-06059D01*
X14184Y-07834D01*
X14155Y-07876D01*
X14120Y-07876D01*
X14065Y-07899D01*
X14023Y-07941D01*
X14001Y-07996D01*
X14001Y-08055D01*
X14001Y-08100D01*
X13999Y-08100D01*
X13999Y-07995D01*
X13976Y-07940D01*
X13934Y-07898D01*
X13879Y-07876D01*
X13845Y-07876D01*
X13816Y-07834D01*
X13816Y-07833D01*
X13641Y-07659D01*
X13577Y-07615D01*
X13500Y-07600D01*
X09900Y-07600D01*
X09823Y-07615D01*
X09758Y-07659D01*
X08009Y-09409D01*
X07965Y-09473D01*
X07950Y-09550D01*
X07950Y-14250D01*
X07965Y-14327D01*
X08009Y-14391D01*
X10047Y-16430D01*
X10048Y-16430D01*
X10112Y-16474D01*
X10189Y-16489D01*
X12447Y-16489D01*
X12362Y-16574D01*
X12301Y-16720D01*
X12301Y-16879D01*
X12311Y-16905D01*
X12041Y-17176D01*
X11770Y-17176D01*
X11715Y-17199D01*
X11673Y-17241D01*
X11651Y-17296D01*
X11651Y-17355D01*
X11651Y-17905D01*
X11674Y-17960D01*
X11716Y-18002D01*
X11771Y-18024D01*
X11830Y-18024D01*
X12180Y-18024D01*
X12235Y-18001D01*
X12277Y-17959D01*
X12299Y-17904D01*
X12299Y-17845D01*
X12299Y-17483D01*
X12594Y-17188D01*
X12620Y-17199D01*
X12779Y-17199D01*
X12926Y-17138D01*
X13038Y-17026D01*
X13099Y-16880D01*
X13099Y-16721D01*
X13087Y-16694D01*
X13096Y-16686D01*
X15117Y-16686D01*
X15117Y-16765D01*
X15123Y-16781D01*
X15117Y-16799D01*
X15117Y-16858D01*
X15117Y-16877D01*
X13803Y-16877D01*
X13726Y-16892D01*
X13661Y-16936D01*
X12451Y-18146D01*
X11550Y-18146D01*
X11550Y-17638D01*
X11550Y-17562D01*
X11549Y-17355D01*
X11549Y-17296D01*
X11527Y-17241D01*
X11485Y-17199D01*
X11430Y-17176D01*
X11263Y-17175D01*
X11226Y-17212D01*
X11226Y-17599D01*
X11513Y-17599D01*
X11550Y-17562D01*
X11550Y-17638D01*
X11513Y-17601D01*
X11226Y-17601D01*
X11226Y-17988D01*
X11263Y-18025D01*
X11430Y-18024D01*
X11485Y-18001D01*
X11527Y-17959D01*
X11549Y-17904D01*
X11549Y-17845D01*
X11550Y-17638D01*
X11550Y-18146D01*
X11224Y-18146D01*
X11224Y-17988D01*
X11224Y-17601D01*
X11224Y-17599D01*
X11224Y-17212D01*
X11187Y-17175D01*
X11020Y-17176D01*
X10965Y-17199D01*
X10923Y-17241D01*
X10901Y-17296D01*
X10901Y-17355D01*
X10900Y-17562D01*
X10937Y-17599D01*
X11224Y-17599D01*
X11224Y-17601D01*
X10937Y-17601D01*
X10900Y-17638D01*
X10901Y-17845D01*
X10901Y-17904D01*
X10923Y-17959D01*
X10965Y-18001D01*
X11020Y-18024D01*
X11187Y-18025D01*
X11224Y-17988D01*
X11224Y-18146D01*
X09725Y-18146D01*
X09648Y-18161D01*
X09583Y-18205D01*
X07890Y-19899D01*
X07846Y-19963D01*
X07831Y-20040D01*
X07831Y-20355D01*
X07831Y-22519D01*
X07846Y-22596D01*
X07890Y-22660D01*
X08088Y-22858D01*
X08152Y-22902D01*
X08153Y-22902D01*
X08229Y-22917D01*
X09291Y-22917D01*
X09291Y-22916D01*
X09367Y-22902D01*
X09368Y-22902D01*
X09376Y-22896D01*
X09372Y-22906D01*
X09365Y-23079D01*
X09425Y-23241D01*
X09444Y-23269D01*
X09463Y-23276D01*
X09462Y-23277D01*
X09450Y-23280D01*
X09386Y-23324D01*
X09072Y-23638D01*
X09028Y-23702D01*
X09013Y-23779D01*
X09013Y-25000D01*
X09028Y-25077D01*
X09072Y-25141D01*
X09425Y-25495D01*
X09426Y-25495D01*
X09463Y-25520D01*
X09427Y-25557D01*
X09359Y-25720D01*
X09359Y-25897D01*
X09426Y-26060D01*
X09496Y-26130D01*
X09496Y-29069D01*
X09493Y-29072D01*
X09493Y-27357D01*
X09493Y-27063D01*
X09381Y-26791D01*
X09173Y-26583D01*
X08901Y-26469D01*
X08607Y-26469D01*
X08335Y-26581D01*
X08127Y-26789D01*
X08013Y-27061D01*
X08013Y-27355D01*
X08125Y-27627D01*
X08333Y-27835D01*
X08605Y-27949D01*
X08899Y-27949D01*
X09171Y-27837D01*
X09379Y-27629D01*
X09493Y-27357D01*
X09493Y-29072D01*
X09133Y-29433D01*
X09066Y-29532D01*
X09043Y-29650D01*
X09043Y-31550D01*
X09066Y-31668D01*
X09133Y-31767D01*
X09682Y-32317D01*
X09683Y-32317D01*
X09781Y-32383D01*
X09783Y-32384D01*
X09899Y-32406D01*
X09900Y-32407D01*
X11700Y-32407D01*
X11817Y-32384D01*
X11818Y-32384D01*
X11917Y-32317D01*
X12440Y-31794D01*
X12960Y-31794D01*
X13533Y-32367D01*
X13632Y-32433D01*
X13633Y-32434D01*
X13750Y-32457D01*
X18450Y-32457D01*
X18567Y-32434D01*
X18568Y-32434D01*
X18667Y-32367D01*
X19185Y-31849D01*
X19289Y-31849D01*
X19454Y-31781D01*
X19580Y-31655D01*
X19649Y-31490D01*
X19649Y-31311D01*
X19581Y-31146D01*
X19455Y-31020D01*
X19290Y-30951D01*
X19111Y-30951D01*
X18946Y-31019D01*
X18820Y-31145D01*
X18751Y-31310D01*
X18751Y-31414D01*
X18322Y-31843D01*
X17225Y-31843D01*
X17225Y-31213D01*
X17225Y-31137D01*
X17224Y-30970D01*
X17201Y-30915D01*
X17159Y-30873D01*
X17104Y-30851D01*
X17045Y-30851D01*
X16838Y-30850D01*
X16801Y-30887D01*
X16801Y-31174D01*
X17188Y-31174D01*
X17225Y-31137D01*
X17225Y-31213D01*
X17188Y-31176D01*
X16801Y-31176D01*
X16801Y-31463D01*
X16838Y-31500D01*
X17045Y-31499D01*
X17104Y-31499D01*
X17159Y-31477D01*
X17201Y-31435D01*
X17224Y-31380D01*
X17225Y-31213D01*
X17225Y-31843D01*
X16799Y-31843D01*
X16799Y-31463D01*
X16799Y-31176D01*
X16799Y-31174D01*
X16799Y-30887D01*
X16762Y-30850D01*
X16555Y-30851D01*
X16496Y-30851D01*
X16441Y-30873D01*
X16399Y-30915D01*
X16376Y-30970D01*
X16375Y-31137D01*
X16412Y-31174D01*
X16799Y-31174D01*
X16799Y-31176D01*
X16412Y-31176D01*
X16375Y-31213D01*
X16376Y-31380D01*
X16399Y-31435D01*
X16441Y-31477D01*
X16496Y-31499D01*
X16555Y-31499D01*
X16762Y-31500D01*
X16799Y-31463D01*
X16799Y-31843D01*
X15450Y-31843D01*
X15450Y-31238D01*
X15450Y-31162D01*
X15450Y-30338D01*
X15450Y-30262D01*
X15449Y-30055D01*
X15449Y-29996D01*
X15427Y-29941D01*
X15425Y-29939D01*
X15425Y-29238D01*
X15425Y-29162D01*
X15424Y-28830D01*
X15424Y-28771D01*
X15402Y-28716D01*
X15360Y-28674D01*
X15305Y-28651D01*
X15038Y-28650D01*
X15001Y-28687D01*
X15001Y-29199D01*
X15388Y-29199D01*
X15425Y-29162D01*
X15425Y-29238D01*
X15388Y-29201D01*
X15001Y-29201D01*
X15001Y-29713D01*
X15038Y-29750D01*
X15305Y-29749D01*
X15360Y-29726D01*
X15402Y-29684D01*
X15424Y-29629D01*
X15424Y-29570D01*
X15425Y-29238D01*
X15425Y-29939D01*
X15385Y-29899D01*
X15330Y-29876D01*
X15163Y-29875D01*
X15126Y-29912D01*
X15126Y-30299D01*
X15413Y-30299D01*
X15450Y-30262D01*
X15450Y-30338D01*
X15413Y-30301D01*
X15126Y-30301D01*
X15126Y-30688D01*
X15163Y-30725D01*
X15330Y-30724D01*
X15385Y-30701D01*
X15427Y-30659D01*
X15449Y-30604D01*
X15449Y-30545D01*
X15450Y-30338D01*
X15450Y-31162D01*
X15449Y-30955D01*
X15449Y-30896D01*
X15427Y-30841D01*
X15385Y-30799D01*
X15330Y-30776D01*
X15163Y-30775D01*
X15126Y-30812D01*
X15126Y-31199D01*
X15413Y-31199D01*
X15450Y-31162D01*
X15450Y-31238D01*
X15413Y-31201D01*
X15126Y-31201D01*
X15126Y-31588D01*
X15163Y-31625D01*
X15330Y-31624D01*
X15385Y-31601D01*
X15427Y-31559D01*
X15449Y-31504D01*
X15449Y-31445D01*
X15450Y-31238D01*
X15450Y-31843D01*
X15124Y-31843D01*
X15124Y-31588D01*
X15124Y-31201D01*
X15124Y-31199D01*
X15124Y-30812D01*
X15124Y-30688D01*
X15124Y-30301D01*
X15124Y-30299D01*
X15124Y-29912D01*
X15087Y-29875D01*
X14999Y-29875D01*
X14999Y-29713D01*
X14999Y-29201D01*
X14999Y-29199D01*
X14999Y-28687D01*
X14962Y-28650D01*
X14695Y-28651D01*
X14640Y-28674D01*
X14598Y-28716D01*
X14576Y-28771D01*
X14576Y-28830D01*
X14575Y-29162D01*
X14612Y-29199D01*
X14999Y-29199D01*
X14999Y-29201D01*
X14612Y-29201D01*
X14575Y-29238D01*
X14576Y-29570D01*
X14576Y-29629D01*
X14598Y-29684D01*
X14640Y-29726D01*
X14695Y-29749D01*
X14962Y-29750D01*
X14999Y-29713D01*
X14999Y-29875D01*
X14920Y-29876D01*
X14865Y-29899D01*
X14823Y-29941D01*
X14801Y-29996D01*
X14801Y-30055D01*
X14800Y-30262D01*
X14837Y-30299D01*
X15124Y-30299D01*
X15124Y-30301D01*
X14837Y-30301D01*
X14800Y-30338D01*
X14801Y-30545D01*
X14801Y-30604D01*
X14823Y-30659D01*
X14865Y-30701D01*
X14920Y-30724D01*
X15087Y-30725D01*
X15124Y-30688D01*
X15124Y-30812D01*
X15087Y-30775D01*
X14920Y-30776D01*
X14865Y-30799D01*
X14823Y-30841D01*
X14801Y-30896D01*
X14801Y-30955D01*
X14800Y-31162D01*
X14837Y-31199D01*
X15124Y-31199D01*
X15124Y-31201D01*
X14837Y-31201D01*
X14800Y-31238D01*
X14801Y-31445D01*
X14801Y-31504D01*
X14823Y-31559D01*
X14865Y-31601D01*
X14920Y-31624D01*
X15087Y-31625D01*
X15124Y-31588D01*
X15124Y-31843D01*
X14475Y-31843D01*
X14475Y-28363D01*
X14475Y-28287D01*
X14474Y-28120D01*
X14451Y-28065D01*
X14409Y-28023D01*
X14354Y-28001D01*
X14295Y-28001D01*
X14088Y-28000D01*
X14051Y-28037D01*
X14051Y-28324D01*
X14438Y-28324D01*
X14475Y-28287D01*
X14475Y-28363D01*
X14438Y-28326D01*
X14051Y-28326D01*
X14051Y-28613D01*
X14088Y-28650D01*
X14295Y-28649D01*
X14354Y-28649D01*
X14409Y-28627D01*
X14451Y-28585D01*
X14474Y-28530D01*
X14475Y-28363D01*
X14475Y-31843D01*
X13877Y-31843D01*
X13828Y-31794D01*
X14075Y-31794D01*
X14130Y-31771D01*
X14172Y-31729D01*
X14194Y-31674D01*
X14194Y-31615D01*
X14194Y-29725D01*
X14171Y-29670D01*
X14129Y-29628D01*
X14074Y-29606D01*
X14049Y-29606D01*
X14049Y-28613D01*
X14049Y-28326D01*
X14049Y-28324D01*
X14049Y-28037D01*
X14012Y-28000D01*
X13805Y-28001D01*
X13746Y-28001D01*
X13691Y-28023D01*
X13649Y-28065D01*
X13626Y-28120D01*
X13625Y-28287D01*
X13662Y-28324D01*
X14049Y-28324D01*
X14049Y-28326D01*
X13662Y-28326D01*
X13625Y-28363D01*
X13626Y-28530D01*
X13649Y-28585D01*
X13691Y-28627D01*
X13746Y-28649D01*
X13805Y-28649D01*
X14012Y-28650D01*
X14049Y-28613D01*
X14049Y-29606D01*
X14015Y-29606D01*
X12680Y-29606D01*
X12680Y-28528D01*
X12531Y-28128D01*
X12485Y-28058D01*
X12348Y-27953D01*
X12347Y-27954D01*
X12347Y-27952D01*
X12281Y-27865D01*
X12281Y-26898D01*
X12281Y-26627D01*
X12177Y-26377D01*
X11986Y-26185D01*
X11736Y-26081D01*
X11465Y-26081D01*
X11215Y-26185D01*
X11023Y-26376D01*
X10919Y-26626D01*
X10919Y-26897D01*
X11023Y-27147D01*
X11214Y-27339D01*
X11464Y-27443D01*
X11735Y-27443D01*
X11985Y-27339D01*
X12177Y-27148D01*
X12281Y-26898D01*
X12281Y-27865D01*
X12242Y-27815D01*
X11855Y-27637D01*
X11428Y-27620D01*
X11028Y-27769D01*
X10958Y-27815D01*
X10853Y-27952D01*
X11600Y-28699D01*
X12347Y-27952D01*
X12347Y-27954D01*
X11601Y-28700D01*
X12348Y-29447D01*
X12485Y-29342D01*
X12663Y-28955D01*
X12680Y-28528D01*
X12680Y-29606D01*
X12210Y-29606D01*
X12242Y-29585D01*
X12347Y-29448D01*
X11600Y-28701D01*
X11599Y-28702D01*
X11599Y-28700D01*
X10852Y-27953D01*
X10715Y-28058D01*
X10537Y-28445D01*
X10520Y-28872D01*
X10669Y-29272D01*
X10715Y-29342D01*
X10852Y-29447D01*
X11599Y-28700D01*
X11599Y-28702D01*
X10853Y-29448D01*
X10958Y-29585D01*
X11345Y-29763D01*
X11772Y-29780D01*
X12021Y-29687D01*
X12006Y-29726D01*
X12006Y-29785D01*
X12006Y-31360D01*
X11780Y-31586D01*
X11780Y-30528D01*
X11631Y-30128D01*
X11585Y-30058D01*
X11448Y-29953D01*
X11447Y-29954D01*
X11447Y-29952D01*
X11342Y-29815D01*
X10955Y-29637D01*
X10528Y-29620D01*
X10128Y-29769D01*
X10058Y-29815D01*
X09953Y-29952D01*
X10700Y-30699D01*
X11447Y-29952D01*
X11447Y-29954D01*
X10701Y-30700D01*
X11448Y-31447D01*
X11585Y-31342D01*
X11763Y-30955D01*
X11780Y-30528D01*
X11780Y-31586D01*
X11573Y-31793D01*
X11447Y-31793D01*
X11447Y-31448D01*
X10700Y-30701D01*
X09953Y-31448D01*
X10058Y-31585D01*
X10445Y-31763D01*
X10872Y-31780D01*
X11272Y-31631D01*
X11342Y-31585D01*
X11447Y-31448D01*
X11447Y-31793D01*
X10027Y-31793D01*
X09657Y-31422D01*
X09657Y-30971D01*
X09769Y-31272D01*
X09815Y-31342D01*
X09952Y-31447D01*
X10699Y-30700D01*
X09952Y-29953D01*
X09815Y-30058D01*
X09657Y-30401D01*
X09657Y-29777D01*
X10020Y-29415D01*
X10020Y-29414D01*
X10086Y-29316D01*
X10086Y-29315D01*
X10087Y-29314D01*
X10109Y-29197D01*
X10110Y-29197D01*
X10110Y-26130D01*
X10179Y-26061D01*
X10247Y-25898D01*
X10247Y-25721D01*
X10180Y-25558D01*
X10176Y-25554D01*
X10587Y-25554D01*
X11040Y-26007D01*
X11104Y-26051D01*
X11105Y-26051D01*
X11181Y-26066D01*
X15084Y-26066D01*
X15065Y-26074D01*
X15023Y-26116D01*
X15001Y-26171D01*
X15001Y-26230D01*
X15001Y-27030D01*
X15024Y-27085D01*
X15066Y-27127D01*
X15121Y-27149D01*
X15180Y-27149D01*
X15593Y-27149D01*
X15593Y-27268D01*
X14396Y-27268D01*
X14354Y-27251D01*
X14295Y-27251D01*
X13745Y-27251D01*
X13690Y-27274D01*
X13648Y-27316D01*
X13626Y-27371D01*
X13626Y-27430D01*
X13626Y-27780D01*
X13649Y-27835D01*
X13691Y-27877D01*
X13746Y-27899D01*
X13805Y-27899D01*
X14355Y-27899D01*
X14395Y-27882D01*
X15593Y-27882D01*
X15593Y-28651D01*
X15540Y-28674D01*
X15498Y-28716D01*
X15476Y-28771D01*
X15476Y-28830D01*
X15476Y-29630D01*
X15499Y-29685D01*
X15541Y-29727D01*
X15593Y-29747D01*
X15593Y-29921D01*
X15573Y-29941D01*
X15551Y-29996D01*
X15551Y-30055D01*
X15551Y-30605D01*
X15574Y-30660D01*
X15616Y-30702D01*
X15671Y-30724D01*
X15675Y-30724D01*
X15675Y-30776D01*
X15670Y-30776D01*
X15615Y-30799D01*
X15573Y-30841D01*
X15551Y-30896D01*
X15551Y-30955D01*
X15551Y-31505D01*
X15574Y-31560D01*
X15616Y-31602D01*
X15671Y-31624D01*
X15730Y-31624D01*
X16080Y-31624D01*
X16135Y-31601D01*
X16177Y-31559D01*
X16199Y-31504D01*
X16199Y-31445D01*
X16199Y-30895D01*
X16176Y-30840D01*
X16134Y-30798D01*
X16079Y-30776D01*
X16075Y-30776D01*
X16075Y-30724D01*
X16080Y-30724D01*
X16135Y-30701D01*
X16177Y-30659D01*
X16199Y-30604D01*
X16199Y-30545D01*
X16199Y-30315D01*
X16199Y-30314D01*
X16207Y-30275D01*
X16207Y-29748D01*
X16260Y-29726D01*
X16302Y-29684D01*
X16324Y-29629D01*
X16324Y-29570D01*
X16324Y-28770D01*
X16301Y-28715D01*
X16259Y-28673D01*
X16207Y-28652D01*
X16207Y-27575D01*
X16207Y-27550D01*
X16207Y-27149D01*
X16680Y-27149D01*
X16693Y-27143D01*
X16693Y-27750D01*
X16716Y-27868D01*
X16783Y-27967D01*
X17158Y-28342D01*
X17257Y-28408D01*
X17258Y-28409D01*
X17375Y-28432D01*
X17503Y-28432D01*
X17546Y-28449D01*
X17605Y-28449D01*
X18155Y-28449D01*
X18210Y-28426D01*
X18252Y-28384D01*
X18274Y-28329D01*
X18274Y-28270D01*
X18274Y-27920D01*
X18251Y-27865D01*
X18209Y-27823D01*
X18154Y-27801D01*
X18095Y-27801D01*
X17545Y-27801D01*
X17504Y-27818D01*
X17502Y-27818D01*
X17307Y-27623D01*
X17307Y-26907D01*
X17471Y-26907D01*
X17491Y-26927D01*
X17546Y-26949D01*
X17605Y-26949D01*
X18155Y-26949D01*
X18210Y-26926D01*
X18252Y-26884D01*
X18274Y-26829D01*
X18274Y-26770D01*
X18274Y-26420D01*
X18251Y-26365D01*
X18209Y-26323D01*
X18154Y-26301D01*
X18095Y-26301D01*
X17866Y-26301D01*
X17825Y-26293D01*
X17000Y-26293D01*
X16841Y-26293D01*
X17009Y-26125D01*
X17144Y-26125D01*
X17319Y-26053D01*
X17452Y-25919D01*
X17525Y-25745D01*
X17525Y-25556D01*
X17453Y-25381D01*
X17389Y-25318D01*
X17476Y-25318D01*
X19000Y-26841D01*
X19000Y-27126D01*
X18945Y-27126D01*
X18395Y-27126D01*
X18340Y-27149D01*
X18314Y-27175D01*
X18274Y-27175D01*
X18274Y-27170D01*
X18251Y-27115D01*
X18209Y-27073D01*
X18154Y-27051D01*
X18095Y-27051D01*
X17545Y-27051D01*
X17490Y-27074D01*
X17448Y-27116D01*
X17426Y-27171D01*
X17426Y-27230D01*
X17426Y-27580D01*
X17449Y-27635D01*
X17491Y-27677D01*
X17546Y-27699D01*
X17605Y-27699D01*
X18155Y-27699D01*
X18210Y-27676D01*
X18252Y-27634D01*
X18274Y-27579D01*
X18274Y-27575D01*
X18276Y-27575D01*
X18276Y-27855D01*
X18299Y-27910D01*
X18341Y-27952D01*
X18396Y-27974D01*
X18455Y-27974D01*
X19000Y-27974D01*
X19000Y-28951D01*
X18870Y-28951D01*
X18815Y-28974D01*
X18773Y-29016D01*
X18751Y-29071D01*
X18751Y-29130D01*
X18751Y-29730D01*
X18759Y-29750D01*
X18482Y-29750D01*
X18050Y-29317D01*
X18050Y-29199D01*
X18155Y-29199D01*
X18210Y-29176D01*
X18252Y-29134D01*
X18274Y-29079D01*
X18274Y-29020D01*
X18274Y-28670D01*
X18251Y-28615D01*
X18209Y-28573D01*
X18154Y-28551D01*
X18095Y-28551D01*
X17545Y-28551D01*
X17490Y-28574D01*
X17448Y-28616D01*
X17426Y-28671D01*
X17426Y-28730D01*
X17426Y-29080D01*
X17449Y-29135D01*
X17491Y-29177D01*
X17546Y-29199D01*
X17605Y-29199D01*
X17650Y-29199D01*
X17650Y-29400D01*
X17665Y-29477D01*
X17709Y-29541D01*
X18258Y-30091D01*
X18259Y-30091D01*
X18297Y-30118D01*
X17146Y-30118D01*
X17107Y-30102D01*
X17107Y-29748D01*
X17160Y-29726D01*
X17202Y-29684D01*
X17224Y-29629D01*
X17224Y-29570D01*
X17224Y-28770D01*
X17201Y-28715D01*
X17159Y-28673D01*
X17104Y-28651D01*
X17045Y-28651D01*
X16495Y-28651D01*
X16440Y-28674D01*
X16398Y-28716D01*
X16376Y-28771D01*
X16376Y-28830D01*
X16376Y-29630D01*
X16399Y-29685D01*
X16441Y-29727D01*
X16493Y-29747D01*
X16493Y-30101D01*
X16440Y-30124D01*
X16398Y-30166D01*
X16376Y-30221D01*
X16376Y-30280D01*
X16376Y-30630D01*
X16399Y-30685D01*
X16441Y-30727D01*
X16496Y-30749D01*
X16555Y-30749D01*
X17105Y-30749D01*
X17145Y-30732D01*
X18897Y-30732D01*
X18945Y-30780D01*
X19110Y-30849D01*
X19289Y-30849D01*
X19454Y-30781D01*
X19580Y-30655D01*
X19649Y-30490D01*
X19649Y-30311D01*
X19582Y-30150D01*
X20050Y-30150D01*
X20050Y-30149D01*
X20126Y-30135D01*
X20127Y-30135D01*
X20191Y-30091D01*
X20250Y-30032D01*
X21026Y-29256D01*
X21026Y-29355D01*
X21049Y-29410D01*
X21091Y-29452D01*
X21146Y-29474D01*
X21205Y-29474D01*
X21755Y-29474D01*
X21810Y-29451D01*
X21852Y-29409D01*
X21874Y-29354D01*
X21874Y-29295D01*
X21874Y-28745D01*
X21851Y-28690D01*
X21809Y-28648D01*
X21754Y-28626D01*
X21695Y-28626D01*
X21145Y-28626D01*
X21090Y-28649D01*
X21048Y-28691D01*
X21026Y-28746D01*
X21026Y-28805D01*
X21026Y-28850D01*
X20950Y-28850D01*
X20873Y-28865D01*
X20808Y-28909D01*
X20250Y-29467D01*
X20119Y-29598D01*
X20119Y-27484D01*
X20061Y-27329D01*
X20044Y-27301D01*
X19974Y-27277D01*
X19973Y-27278D01*
X19701Y-27550D01*
X19974Y-27823D01*
X20044Y-27799D01*
X20112Y-27648D01*
X20119Y-27484D01*
X20119Y-29598D01*
X19973Y-29744D01*
X19967Y-29750D01*
X19640Y-29750D01*
X19649Y-29729D01*
X19649Y-29670D01*
X19649Y-29070D01*
X19626Y-29015D01*
X19584Y-28973D01*
X19529Y-28951D01*
X19470Y-28951D01*
X19400Y-28951D01*
X19400Y-27861D01*
X19431Y-27892D01*
X19445Y-27877D01*
X19451Y-27894D01*
X19602Y-27962D01*
X19766Y-27969D01*
X19921Y-27911D01*
X19949Y-27894D01*
X19973Y-27824D01*
X19700Y-27551D01*
X19699Y-27551D01*
X19698Y-27550D01*
X19699Y-27550D01*
X19698Y-27549D01*
X19699Y-27548D01*
X19700Y-27549D01*
X19735Y-27513D01*
X19973Y-27276D01*
X19949Y-27206D01*
X19798Y-27138D01*
X19634Y-27131D01*
X19479Y-27189D01*
X19451Y-27206D01*
X19445Y-27222D01*
X19431Y-27208D01*
X19400Y-27239D01*
X19400Y-26759D01*
X19399Y-26758D01*
X19385Y-26682D01*
X19341Y-26618D01*
X19341Y-26617D01*
X17700Y-24977D01*
X17636Y-24933D01*
X17559Y-24918D01*
X16772Y-24918D01*
X16695Y-24933D01*
X16630Y-24977D01*
X15995Y-25612D01*
X15999Y-25604D01*
X15999Y-25545D01*
X15999Y-25258D01*
X16763Y-24495D01*
X16763Y-24494D01*
X16807Y-24430D01*
X16821Y-24353D01*
X16822Y-24353D01*
X16822Y-21246D01*
X16831Y-21293D01*
X16875Y-21357D01*
X20250Y-24732D01*
X25958Y-30441D01*
X25959Y-30441D01*
X26023Y-30485D01*
X26099Y-30499D01*
X26100Y-30500D01*
X26250Y-30500D01*
X26250Y-31100D01*
X22782Y-31100D01*
X21858Y-30175D01*
X21875Y-30135D01*
X21875Y-29966D01*
X21811Y-29810D01*
X21691Y-29690D01*
X21535Y-29625D01*
X21366Y-29625D01*
X21210Y-29689D01*
X21090Y-29809D01*
X21025Y-29965D01*
X21025Y-30134D01*
X21089Y-30290D01*
X21209Y-30410D01*
X21365Y-30475D01*
X21534Y-30475D01*
X21575Y-30457D01*
X22558Y-31441D01*
X22559Y-31441D01*
X22623Y-31485D01*
X22699Y-31499D01*
X22700Y-31500D01*
X26250Y-31500D01*
X26250Y-32550D01*
X26250Y-32550D01*
G37*
G54D30*
X26250Y-32550D02*
X20250Y-32550D01*
X07750Y-32550D01*
X07750Y-05250D01*
X26250Y-05250D01*
X26250Y-06000D01*
X16100Y-06000D01*
X16023Y-06015D01*
X15958Y-06059D01*
X14184Y-07834D01*
X14155Y-07876D01*
X14120Y-07876D01*
X14065Y-07899D01*
X14023Y-07941D01*
X14001Y-07996D01*
X14001Y-08055D01*
X14001Y-08100D01*
X13999Y-08100D01*
X13999Y-07995D01*
X13976Y-07940D01*
X13934Y-07898D01*
X13879Y-07876D01*
X13845Y-07876D01*
X13816Y-07834D01*
X13816Y-07833D01*
X13641Y-07659D01*
X13577Y-07615D01*
X13500Y-07600D01*
X09900Y-07600D01*
X09823Y-07615D01*
X09758Y-07659D01*
X08009Y-09409D01*
X07965Y-09473D01*
X07950Y-09550D01*
X07950Y-14250D01*
X07965Y-14327D01*
X08009Y-14391D01*
X10047Y-16430D01*
X10048Y-16430D01*
X10112Y-16474D01*
X10189Y-16489D01*
X12447Y-16489D01*
X12362Y-16574D01*
X12301Y-16720D01*
X12301Y-16879D01*
X12311Y-16905D01*
X12041Y-17176D01*
X11770Y-17176D01*
X11715Y-17199D01*
X11673Y-17241D01*
X11651Y-17296D01*
X11651Y-17355D01*
X11651Y-17905D01*
X11674Y-17960D01*
X11716Y-18002D01*
X11771Y-18024D01*
X11830Y-18024D01*
X12180Y-18024D01*
X12235Y-18001D01*
X12277Y-17959D01*
X12299Y-17904D01*
X12299Y-17845D01*
X12299Y-17483D01*
X12594Y-17188D01*
X12620Y-17199D01*
X12779Y-17199D01*
X12926Y-17138D01*
X13038Y-17026D01*
X13099Y-16880D01*
X13099Y-16721D01*
X13087Y-16694D01*
X13096Y-16686D01*
X15117Y-16686D01*
X15117Y-16765D01*
X15123Y-16781D01*
X15117Y-16799D01*
X15117Y-16858D01*
X15117Y-16877D01*
X13803Y-16877D01*
X13726Y-16892D01*
X13661Y-16936D01*
X12451Y-18146D01*
X11550Y-18146D01*
X11550Y-17638D01*
X11550Y-17562D01*
X11549Y-17355D01*
X11549Y-17296D01*
X11527Y-17241D01*
X11485Y-17199D01*
X11430Y-17176D01*
X11263Y-17175D01*
X11226Y-17212D01*
X11226Y-17599D01*
X11513Y-17599D01*
X11550Y-17562D01*
X11550Y-17638D01*
X11513Y-17601D01*
X11226Y-17601D01*
X11226Y-17988D01*
X11263Y-18025D01*
X11430Y-18024D01*
X11485Y-18001D01*
X11527Y-17959D01*
X11549Y-17904D01*
X11549Y-17845D01*
X11550Y-17638D01*
X11550Y-18146D01*
X11224Y-18146D01*
X11224Y-17988D01*
X11224Y-17601D01*
X11224Y-17599D01*
X11224Y-17212D01*
X11187Y-17175D01*
X11020Y-17176D01*
X10965Y-17199D01*
X10923Y-17241D01*
X10901Y-17296D01*
X10901Y-17355D01*
X10900Y-17562D01*
X10937Y-17599D01*
X11224Y-17599D01*
X11224Y-17601D01*
X10937Y-17601D01*
X10900Y-17638D01*
X10901Y-17845D01*
X10901Y-17904D01*
X10923Y-17959D01*
X10965Y-18001D01*
X11020Y-18024D01*
X11187Y-18025D01*
X11224Y-17988D01*
X11224Y-18146D01*
X09725Y-18146D01*
X09648Y-18161D01*
X09583Y-18205D01*
X07890Y-19899D01*
X07846Y-19963D01*
X07831Y-20040D01*
X07831Y-20355D01*
X07831Y-22519D01*
X07846Y-22596D01*
X07890Y-22660D01*
X08088Y-22858D01*
X08152Y-22902D01*
X08153Y-22902D01*
X08229Y-22917D01*
X09291Y-22917D01*
X09291Y-22916D01*
X09367Y-22902D01*
X09368Y-22902D01*
X09376Y-22896D01*
X09372Y-22906D01*
X09365Y-23079D01*
X09425Y-23241D01*
X09444Y-23269D01*
X09463Y-23276D01*
X09462Y-23277D01*
X09450Y-23280D01*
X09386Y-23324D01*
X09072Y-23638D01*
X09028Y-23702D01*
X09013Y-23779D01*
X09013Y-25000D01*
X09028Y-25077D01*
X09072Y-25141D01*
X09425Y-25495D01*
X09426Y-25495D01*
X09463Y-25520D01*
X09427Y-25557D01*
X09359Y-25720D01*
X09359Y-25897D01*
X09426Y-26060D01*
X09496Y-26130D01*
X09496Y-29069D01*
X09493Y-29072D01*
X09493Y-27357D01*
X09493Y-27063D01*
X09381Y-26791D01*
X09173Y-26583D01*
X08901Y-26469D01*
X08607Y-26469D01*
X08335Y-26581D01*
X08127Y-26789D01*
X08013Y-27061D01*
X08013Y-27355D01*
X08125Y-27627D01*
X08333Y-27835D01*
X08605Y-27949D01*
X08899Y-27949D01*
X09171Y-27837D01*
X09379Y-27629D01*
X09493Y-27357D01*
X09493Y-29072D01*
X09133Y-29433D01*
X09066Y-29532D01*
X09043Y-29650D01*
X09043Y-31550D01*
X09066Y-31668D01*
X09133Y-31767D01*
X09682Y-32317D01*
X09683Y-32317D01*
X09781Y-32383D01*
X09783Y-32384D01*
X09899Y-32406D01*
X09900Y-32407D01*
X11700Y-32407D01*
X11817Y-32384D01*
X11818Y-32384D01*
X11917Y-32317D01*
X12440Y-31794D01*
X12960Y-31794D01*
X13533Y-32367D01*
X13632Y-32433D01*
X13633Y-32434D01*
X13750Y-32457D01*
X18450Y-32457D01*
X18567Y-32434D01*
X18568Y-32434D01*
X18667Y-32367D01*
X19185Y-31849D01*
X19289Y-31849D01*
X19454Y-31781D01*
X19580Y-31655D01*
X19649Y-31490D01*
X19649Y-31311D01*
X19581Y-31146D01*
X19455Y-31020D01*
X19290Y-30951D01*
X19111Y-30951D01*
X18946Y-31019D01*
X18820Y-31145D01*
X18751Y-31310D01*
X18751Y-31414D01*
X18322Y-31843D01*
X17225Y-31843D01*
X17225Y-31213D01*
X17225Y-31137D01*
X17224Y-30970D01*
X17201Y-30915D01*
X17159Y-30873D01*
X17104Y-30851D01*
X17045Y-30851D01*
X16838Y-30850D01*
X16801Y-30887D01*
X16801Y-31174D01*
X17188Y-31174D01*
X17225Y-31137D01*
X17225Y-31213D01*
X17188Y-31176D01*
X16801Y-31176D01*
X16801Y-31463D01*
X16838Y-31500D01*
X17045Y-31499D01*
X17104Y-31499D01*
X17159Y-31477D01*
X17201Y-31435D01*
X17224Y-31380D01*
X17225Y-31213D01*
X17225Y-31843D01*
X16799Y-31843D01*
X16799Y-31463D01*
X16799Y-31176D01*
X16799Y-31174D01*
X16799Y-30887D01*
X16762Y-30850D01*
X16555Y-30851D01*
X16496Y-30851D01*
X16441Y-30873D01*
X16399Y-30915D01*
X16376Y-30970D01*
X16375Y-31137D01*
X16412Y-31174D01*
X16799Y-31174D01*
X16799Y-31176D01*
X16412Y-31176D01*
X16375Y-31213D01*
X16376Y-31380D01*
X16399Y-31435D01*
X16441Y-31477D01*
X16496Y-31499D01*
X16555Y-31499D01*
X16762Y-31500D01*
X16799Y-31463D01*
X16799Y-31843D01*
X15450Y-31843D01*
X15450Y-31238D01*
X15450Y-31162D01*
X15450Y-30338D01*
X15450Y-30262D01*
X15449Y-30055D01*
X15449Y-29996D01*
X15427Y-29941D01*
X15425Y-29939D01*
X15425Y-29238D01*
X15425Y-29162D01*
X15424Y-28830D01*
X15424Y-28771D01*
X15402Y-28716D01*
X15360Y-28674D01*
X15305Y-28651D01*
X15038Y-28650D01*
X15001Y-28687D01*
X15001Y-29199D01*
X15388Y-29199D01*
X15425Y-29162D01*
X15425Y-29238D01*
X15388Y-29201D01*
X15001Y-29201D01*
X15001Y-29713D01*
X15038Y-29750D01*
X15305Y-29749D01*
X15360Y-29726D01*
X15402Y-29684D01*
X15424Y-29629D01*
X15424Y-29570D01*
X15425Y-29238D01*
X15425Y-29939D01*
X15385Y-29899D01*
X15330Y-29876D01*
X15163Y-29875D01*
X15126Y-29912D01*
X15126Y-30299D01*
X15413Y-30299D01*
X15450Y-30262D01*
X15450Y-30338D01*
X15413Y-30301D01*
X15126Y-30301D01*
X15126Y-30688D01*
X15163Y-30725D01*
X15330Y-30724D01*
X15385Y-30701D01*
X15427Y-30659D01*
X15449Y-30604D01*
X15449Y-30545D01*
X15450Y-30338D01*
X15450Y-31162D01*
X15449Y-30955D01*
X15449Y-30896D01*
X15427Y-30841D01*
X15385Y-30799D01*
X15330Y-30776D01*
X15163Y-30775D01*
X15126Y-30812D01*
X15126Y-31199D01*
X15413Y-31199D01*
X15450Y-31162D01*
X15450Y-31238D01*
X15413Y-31201D01*
X15126Y-31201D01*
X15126Y-31588D01*
X15163Y-31625D01*
X15330Y-31624D01*
X15385Y-31601D01*
X15427Y-31559D01*
X15449Y-31504D01*
X15449Y-31445D01*
X15450Y-31238D01*
X15450Y-31843D01*
X15124Y-31843D01*
X15124Y-31588D01*
X15124Y-31201D01*
X15124Y-31199D01*
X15124Y-30812D01*
X15124Y-30688D01*
X15124Y-30301D01*
X15124Y-30299D01*
X15124Y-29912D01*
X15087Y-29875D01*
X14999Y-29875D01*
X14999Y-29713D01*
X14999Y-29201D01*
X14999Y-29199D01*
X14999Y-28687D01*
X14962Y-28650D01*
X14695Y-28651D01*
X14640Y-28674D01*
X14598Y-28716D01*
X14576Y-28771D01*
X14576Y-28830D01*
X14575Y-29162D01*
X14612Y-29199D01*
X14999Y-29199D01*
X14999Y-29201D01*
X14612Y-29201D01*
X14575Y-29238D01*
X14576Y-29570D01*
X14576Y-29629D01*
X14598Y-29684D01*
X14640Y-29726D01*
X14695Y-29749D01*
X14962Y-29750D01*
X14999Y-29713D01*
X14999Y-29875D01*
X14920Y-29876D01*
X14865Y-29899D01*
X14823Y-29941D01*
X14801Y-29996D01*
X14801Y-30055D01*
X14800Y-30262D01*
X14837Y-30299D01*
X15124Y-30299D01*
X15124Y-30301D01*
X14837Y-30301D01*
X14800Y-30338D01*
X14801Y-30545D01*
X14801Y-30604D01*
X14823Y-30659D01*
X14865Y-30701D01*
X14920Y-30724D01*
X15087Y-30725D01*
X15124Y-30688D01*
X15124Y-30812D01*
X15087Y-30775D01*
X14920Y-30776D01*
X14865Y-30799D01*
X14823Y-30841D01*
X14801Y-30896D01*
X14801Y-30955D01*
X14800Y-31162D01*
X14837Y-31199D01*
X15124Y-31199D01*
X15124Y-31201D01*
X14837Y-31201D01*
X14800Y-31238D01*
X14801Y-31445D01*
X14801Y-31504D01*
X14823Y-31559D01*
X14865Y-31601D01*
X14920Y-31624D01*
X15087Y-31625D01*
X15124Y-31588D01*
X15124Y-31843D01*
X14475Y-31843D01*
X14475Y-28363D01*
X14475Y-28287D01*
X14474Y-28120D01*
X14451Y-28065D01*
X14409Y-28023D01*
X14354Y-28001D01*
X14295Y-28001D01*
X14088Y-28000D01*
X14051Y-28037D01*
X14051Y-28324D01*
X14438Y-28324D01*
X14475Y-28287D01*
X14475Y-28363D01*
X14438Y-28326D01*
X14051Y-28326D01*
X14051Y-28613D01*
X14088Y-28650D01*
X14295Y-28649D01*
X14354Y-28649D01*
X14409Y-28627D01*
X14451Y-28585D01*
X14474Y-28530D01*
X14475Y-28363D01*
X14475Y-31843D01*
X13877Y-31843D01*
X13828Y-31794D01*
X14075Y-31794D01*
X14130Y-31771D01*
X14172Y-31729D01*
X14194Y-31674D01*
X14194Y-31615D01*
X14194Y-29725D01*
X14171Y-29670D01*
X14129Y-29628D01*
X14074Y-29606D01*
X14049Y-29606D01*
X14049Y-28613D01*
X14049Y-28326D01*
X14049Y-28324D01*
X14049Y-28037D01*
X14012Y-28000D01*
X13805Y-28001D01*
X13746Y-28001D01*
X13691Y-28023D01*
X13649Y-28065D01*
X13626Y-28120D01*
X13625Y-28287D01*
X13662Y-28324D01*
X14049Y-28324D01*
X14049Y-28326D01*
X13662Y-28326D01*
X13625Y-28363D01*
X13626Y-28530D01*
X13649Y-28585D01*
X13691Y-28627D01*
X13746Y-28649D01*
X13805Y-28649D01*
X14012Y-28650D01*
X14049Y-28613D01*
X14049Y-29606D01*
X14015Y-29606D01*
X12680Y-29606D01*
X12680Y-28528D01*
X12531Y-28128D01*
X12485Y-28058D01*
X12348Y-27953D01*
X12347Y-27954D01*
X12347Y-27952D01*
X12281Y-27865D01*
X12281Y-26898D01*
X12281Y-26627D01*
X12177Y-26377D01*
X11986Y-26185D01*
X11736Y-26081D01*
X11465Y-26081D01*
X11215Y-26185D01*
X11023Y-26376D01*
X10919Y-26626D01*
X10919Y-26897D01*
X11023Y-27147D01*
X11214Y-27339D01*
X11464Y-27443D01*
X11735Y-27443D01*
X11985Y-27339D01*
X12177Y-27148D01*
X12281Y-26898D01*
X12281Y-27865D01*
X12242Y-27815D01*
X11855Y-27637D01*
X11428Y-27620D01*
X11028Y-27769D01*
X10958Y-27815D01*
X10853Y-27952D01*
X11600Y-28699D01*
X12347Y-27952D01*
X12347Y-27954D01*
X11601Y-28700D01*
X12348Y-29447D01*
X12485Y-29342D01*
X12663Y-28955D01*
X12680Y-28528D01*
X12680Y-29606D01*
X12210Y-29606D01*
X12242Y-29585D01*
X12347Y-29448D01*
X11600Y-28701D01*
X11599Y-28702D01*
X11599Y-28700D01*
X10852Y-27953D01*
X10715Y-28058D01*
X10537Y-28445D01*
X10520Y-28872D01*
X10669Y-29272D01*
X10715Y-29342D01*
X10852Y-29447D01*
X11599Y-28700D01*
X11599Y-28702D01*
X10853Y-29448D01*
X10958Y-29585D01*
X11345Y-29763D01*
X11772Y-29780D01*
X12021Y-29687D01*
X12006Y-29726D01*
X12006Y-29785D01*
X12006Y-31360D01*
X11780Y-31586D01*
X11780Y-30528D01*
X11631Y-30128D01*
X11585Y-30058D01*
X11448Y-29953D01*
X11447Y-29954D01*
X11447Y-29952D01*
X11342Y-29815D01*
X10955Y-29637D01*
X10528Y-29620D01*
X10128Y-29769D01*
X10058Y-29815D01*
X09953Y-29952D01*
X10700Y-30699D01*
X11447Y-29952D01*
X11447Y-29954D01*
X10701Y-30700D01*
X11448Y-31447D01*
X11585Y-31342D01*
X11763Y-30955D01*
X11780Y-30528D01*
X11780Y-31586D01*
X11573Y-31793D01*
X11447Y-31793D01*
X11447Y-31448D01*
X10700Y-30701D01*
X09953Y-31448D01*
X10058Y-31585D01*
X10445Y-31763D01*
X10872Y-31780D01*
X11272Y-31631D01*
X11342Y-31585D01*
X11447Y-31448D01*
X11447Y-31793D01*
X10027Y-31793D01*
X09657Y-31422D01*
X09657Y-30971D01*
X09769Y-31272D01*
X09815Y-31342D01*
X09952Y-31447D01*
X10699Y-30700D01*
X09952Y-29953D01*
X09815Y-30058D01*
X09657Y-30401D01*
X09657Y-29777D01*
X10020Y-29415D01*
X10020Y-29414D01*
X10086Y-29316D01*
X10086Y-29315D01*
X10087Y-29314D01*
X10109Y-29197D01*
X10110Y-29197D01*
X10110Y-26130D01*
X10179Y-26061D01*
X10247Y-25898D01*
X10247Y-25721D01*
X10180Y-25558D01*
X10176Y-25554D01*
X10587Y-25554D01*
X11040Y-26007D01*
X11104Y-26051D01*
X11105Y-26051D01*
X11181Y-26066D01*
X15084Y-26066D01*
X15065Y-26074D01*
X15023Y-26116D01*
X15001Y-26171D01*
X15001Y-26230D01*
X15001Y-27030D01*
X15024Y-27085D01*
X15066Y-27127D01*
X15121Y-27149D01*
X15180Y-27149D01*
X15593Y-27149D01*
X15593Y-27268D01*
X14396Y-27268D01*
X14354Y-27251D01*
X14295Y-27251D01*
X13745Y-27251D01*
X13690Y-27274D01*
X13648Y-27316D01*
X13626Y-27371D01*
X13626Y-27430D01*
X13626Y-27780D01*
X13649Y-27835D01*
X13691Y-27877D01*
X13746Y-27899D01*
X13805Y-27899D01*
X14355Y-27899D01*
X14395Y-27882D01*
X15593Y-27882D01*
X15593Y-28651D01*
X15540Y-28674D01*
X15498Y-28716D01*
X15476Y-28771D01*
X15476Y-28830D01*
X15476Y-29630D01*
X15499Y-29685D01*
X15541Y-29727D01*
X15593Y-29747D01*
X15593Y-29921D01*
X15573Y-29941D01*
X15551Y-29996D01*
X15551Y-30055D01*
X15551Y-30605D01*
X15574Y-30660D01*
X15616Y-30702D01*
X15671Y-30724D01*
X15675Y-30724D01*
X15675Y-30776D01*
X15670Y-30776D01*
X15615Y-30799D01*
X15573Y-30841D01*
X15551Y-30896D01*
X15551Y-30955D01*
X15551Y-31505D01*
X15574Y-31560D01*
X15616Y-31602D01*
X15671Y-31624D01*
X15730Y-31624D01*
X16080Y-31624D01*
X16135Y-31601D01*
X16177Y-31559D01*
X16199Y-31504D01*
X16199Y-31445D01*
X16199Y-30895D01*
X16176Y-30840D01*
X16134Y-30798D01*
X16079Y-30776D01*
X16075Y-30776D01*
X16075Y-30724D01*
X16080Y-30724D01*
X16135Y-30701D01*
X16177Y-30659D01*
X16199Y-30604D01*
X16199Y-30545D01*
X16199Y-30315D01*
X16199Y-30314D01*
X16207Y-30275D01*
X16207Y-29748D01*
X16260Y-29726D01*
X16302Y-29684D01*
X16324Y-29629D01*
X16324Y-29570D01*
X16324Y-28770D01*
X16301Y-28715D01*
X16259Y-28673D01*
X16207Y-28652D01*
X16207Y-27575D01*
X16207Y-27550D01*
X16207Y-27149D01*
X16680Y-27149D01*
X16693Y-27143D01*
X16693Y-27750D01*
X16716Y-27868D01*
X16783Y-27967D01*
X17158Y-28342D01*
X17257Y-28408D01*
X17258Y-28409D01*
X17375Y-28432D01*
X17503Y-28432D01*
X17546Y-28449D01*
X17605Y-28449D01*
X18155Y-28449D01*
X18210Y-28426D01*
X18252Y-28384D01*
X18274Y-28329D01*
X18274Y-28270D01*
X18274Y-27920D01*
X18251Y-27865D01*
X18209Y-27823D01*
X18154Y-27801D01*
X18095Y-27801D01*
X17545Y-27801D01*
X17504Y-27818D01*
X17502Y-27818D01*
X17307Y-27623D01*
X17307Y-26907D01*
X17471Y-26907D01*
X17491Y-26927D01*
X17546Y-26949D01*
X17605Y-26949D01*
X18155Y-26949D01*
X18210Y-26926D01*
X18252Y-26884D01*
X18274Y-26829D01*
X18274Y-26770D01*
X18274Y-26420D01*
X18251Y-26365D01*
X18209Y-26323D01*
X18154Y-26301D01*
X18095Y-26301D01*
X17866Y-26301D01*
X17825Y-26293D01*
X17000Y-26293D01*
X16841Y-26293D01*
X17009Y-26125D01*
X17144Y-26125D01*
X17319Y-26053D01*
X17452Y-25919D01*
X17525Y-25745D01*
X17525Y-25556D01*
X17453Y-25381D01*
X17389Y-25318D01*
X17476Y-25318D01*
X19000Y-26841D01*
X19000Y-27126D01*
X18945Y-27126D01*
X18395Y-27126D01*
X18340Y-27149D01*
X18314Y-27175D01*
X18274Y-27175D01*
X18274Y-27170D01*
X18251Y-27115D01*
X18209Y-27073D01*
X18154Y-27051D01*
X18095Y-27051D01*
X17545Y-27051D01*
X17490Y-27074D01*
X17448Y-27116D01*
X17426Y-27171D01*
X17426Y-27230D01*
X17426Y-27580D01*
X17449Y-27635D01*
X17491Y-27677D01*
X17546Y-27699D01*
X17605Y-27699D01*
X18155Y-27699D01*
X18210Y-27676D01*
X18252Y-27634D01*
X18274Y-27579D01*
X18274Y-27575D01*
X18276Y-27575D01*
X18276Y-27855D01*
X18299Y-27910D01*
X18341Y-27952D01*
X18396Y-27974D01*
X18455Y-27974D01*
X19000Y-27974D01*
X19000Y-28951D01*
X18870Y-28951D01*
X18815Y-28974D01*
X18773Y-29016D01*
X18751Y-29071D01*
X18751Y-29130D01*
X18751Y-29730D01*
X18759Y-29750D01*
X18482Y-29750D01*
X18050Y-29317D01*
X18050Y-29199D01*
X18155Y-29199D01*
X18210Y-29176D01*
X18252Y-29134D01*
X18274Y-29079D01*
X18274Y-29020D01*
X18274Y-28670D01*
X18251Y-28615D01*
X18209Y-28573D01*
X18154Y-28551D01*
X18095Y-28551D01*
X17545Y-28551D01*
X17490Y-28574D01*
X17448Y-28616D01*
X17426Y-28671D01*
X17426Y-28730D01*
X17426Y-29080D01*
X17449Y-29135D01*
X17491Y-29177D01*
X17546Y-29199D01*
X17605Y-29199D01*
X17650Y-29199D01*
X17650Y-29400D01*
X17665Y-29477D01*
X17709Y-29541D01*
X18258Y-30091D01*
X18259Y-30091D01*
X18297Y-30118D01*
X17146Y-30118D01*
X17107Y-30102D01*
X17107Y-29748D01*
X17160Y-29726D01*
X17202Y-29684D01*
X17224Y-29629D01*
X17224Y-29570D01*
X17224Y-28770D01*
X17201Y-28715D01*
X17159Y-28673D01*
X17104Y-28651D01*
X17045Y-28651D01*
X16495Y-28651D01*
X16440Y-28674D01*
X16398Y-28716D01*
X16376Y-28771D01*
X16376Y-28830D01*
X16376Y-29630D01*
X16399Y-29685D01*
X16441Y-29727D01*
X16493Y-29747D01*
X16493Y-30101D01*
X16440Y-30124D01*
X16398Y-30166D01*
X16376Y-30221D01*
X16376Y-30280D01*
X16376Y-30630D01*
X16399Y-30685D01*
X16441Y-30727D01*
X16496Y-30749D01*
X16555Y-30749D01*
X17105Y-30749D01*
X17145Y-30732D01*
X18897Y-30732D01*
X18945Y-30780D01*
X19110Y-30849D01*
X19289Y-30849D01*
X19454Y-30781D01*
X19580Y-30655D01*
X19649Y-30490D01*
X19649Y-30311D01*
X19582Y-30150D01*
X20050Y-30150D01*
X20050Y-30149D01*
X20126Y-30135D01*
X20127Y-30135D01*
X20191Y-30091D01*
X20250Y-30032D01*
X21026Y-29256D01*
X21026Y-29355D01*
X21049Y-29410D01*
X21091Y-29452D01*
X21146Y-29474D01*
X21205Y-29474D01*
X21755Y-29474D01*
X21810Y-29451D01*
X21852Y-29409D01*
X21874Y-29354D01*
X21874Y-29295D01*
X21874Y-28745D01*
X21851Y-28690D01*
X21809Y-28648D01*
X21754Y-28626D01*
X21695Y-28626D01*
X21145Y-28626D01*
X21090Y-28649D01*
X21048Y-28691D01*
X21026Y-28746D01*
X21026Y-28805D01*
X21026Y-28850D01*
X20950Y-28850D01*
X20873Y-28865D01*
X20808Y-28909D01*
X20250Y-29467D01*
X20119Y-29598D01*
X20119Y-27484D01*
X20061Y-27329D01*
X20044Y-27301D01*
X19974Y-27277D01*
X19973Y-27278D01*
X19701Y-27550D01*
X19974Y-27823D01*
X20044Y-27799D01*
X20112Y-27648D01*
X20119Y-27484D01*
X20119Y-29598D01*
X19973Y-29744D01*
X19967Y-29750D01*
X19640Y-29750D01*
X19649Y-29729D01*
X19649Y-29670D01*
X19649Y-29070D01*
X19626Y-29015D01*
X19584Y-28973D01*
X19529Y-28951D01*
X19470Y-28951D01*
X19400Y-28951D01*
X19400Y-27861D01*
X19431Y-27892D01*
X19445Y-27877D01*
X19451Y-27894D01*
X19602Y-27962D01*
X19766Y-27969D01*
X19921Y-27911D01*
X19949Y-27894D01*
X19973Y-27824D01*
X19700Y-27551D01*
X19699Y-27551D01*
X19698Y-27550D01*
X19699Y-27550D01*
X19698Y-27549D01*
X19699Y-27548D01*
X19700Y-27549D01*
X19735Y-27513D01*
X19973Y-27276D01*
X19949Y-27206D01*
X19798Y-27138D01*
X19634Y-27131D01*
X19479Y-27189D01*
X19451Y-27206D01*
X19445Y-27222D01*
X19431Y-27208D01*
X19400Y-27239D01*
X19400Y-26759D01*
X19399Y-26758D01*
X19385Y-26682D01*
X19341Y-26618D01*
X19341Y-26617D01*
X17700Y-24977D01*
X17636Y-24933D01*
X17559Y-24918D01*
X16772Y-24918D01*
X16695Y-24933D01*
X16630Y-24977D01*
X15995Y-25612D01*
X15999Y-25604D01*
X15999Y-25545D01*
X15999Y-25258D01*
X16763Y-24495D01*
X16763Y-24494D01*
X16807Y-24430D01*
X16821Y-24353D01*
X16822Y-24353D01*
X16822Y-21246D01*
X16831Y-21293D01*
X16875Y-21357D01*
X20250Y-24732D01*
X25958Y-30441D01*
X25959Y-30441D01*
X26023Y-30485D01*
X26099Y-30499D01*
X26100Y-30500D01*
X26250Y-30500D01*
X26250Y-31100D01*
X22782Y-31100D01*
X21858Y-30175D01*
X21875Y-30135D01*
X21875Y-29966D01*
X21811Y-29810D01*
X21691Y-29690D01*
X21535Y-29625D01*
X21366Y-29625D01*
X21210Y-29689D01*
X21090Y-29809D01*
X21025Y-29965D01*
X21025Y-30134D01*
X21089Y-30290D01*
X21209Y-30410D01*
X21365Y-30475D01*
X21534Y-30475D01*
X21575Y-30457D01*
X22558Y-31441D01*
X22559Y-31441D01*
X22623Y-31485D01*
X22699Y-31499D01*
X22700Y-31500D01*
X26250Y-31500D01*
X26250Y-32550D01*
M02*
