G04 (created by PCBNEW-RS274X (2011-03-30 BZR 2932)-stable) date 30/04/2011 07:18:35 p.m.*
G01*
G70*
G90*
%MOIN*%
G04 Gerber Fmt 3.4, Leading zero omitted, Abs format*
%FSLAX34Y34*%
G04 APERTURE LIST*
%ADD10C,0.006000*%
%ADD11C,0.007000*%
%ADD12C,0.005000*%
%ADD13C,0.008000*%
G04 APERTURE END LIST*
G54D10*
G54D11*
X18912Y-19838D02*
X18909Y-19862D01*
X18902Y-19885D01*
X18891Y-19906D01*
X18875Y-19925D01*
X18857Y-19940D01*
X18836Y-19952D01*
X18812Y-19959D01*
X18788Y-19961D01*
X18765Y-19959D01*
X18742Y-19952D01*
X18721Y-19941D01*
X18702Y-19926D01*
X18686Y-19908D01*
X18675Y-19886D01*
X18667Y-19863D01*
X18665Y-19839D01*
X18667Y-19816D01*
X18673Y-19793D01*
X18684Y-19771D01*
X18699Y-19752D01*
X18718Y-19737D01*
X18739Y-19725D01*
X18762Y-19717D01*
X18786Y-19715D01*
X18809Y-19716D01*
X18832Y-19723D01*
X18854Y-19734D01*
X18873Y-19749D01*
X18889Y-19767D01*
X18901Y-19788D01*
X18908Y-19811D01*
X18911Y-19835D01*
X18912Y-19838D01*
X18788Y-20271D02*
X19221Y-19838D01*
X18788Y-24562D02*
X18788Y-24129D01*
X18788Y-24562D02*
X19221Y-24562D01*
X23512Y-24562D02*
X23512Y-24129D01*
X23512Y-24562D02*
X23079Y-24562D01*
X23512Y-19838D02*
X23512Y-20271D01*
X23512Y-19838D02*
X23079Y-19838D01*
G54D12*
X15200Y-31850D02*
X14800Y-31850D01*
X14800Y-31850D02*
X14800Y-31250D01*
X14800Y-31250D02*
X15200Y-31250D01*
X15600Y-31250D02*
X16000Y-31250D01*
X16000Y-31250D02*
X16000Y-31850D01*
X16000Y-31850D02*
X15600Y-31850D01*
X15200Y-29850D02*
X14800Y-29850D01*
X14800Y-29850D02*
X14800Y-29250D01*
X14800Y-29250D02*
X15200Y-29250D01*
X15600Y-29250D02*
X16000Y-29250D01*
X16000Y-29250D02*
X16000Y-29850D01*
X16000Y-29850D02*
X15600Y-29850D01*
X22300Y-11500D02*
X22300Y-11900D01*
X22300Y-11900D02*
X21700Y-11900D01*
X21700Y-11900D02*
X21700Y-11500D01*
X21700Y-11100D02*
X21700Y-10700D01*
X21700Y-10700D02*
X22300Y-10700D01*
X22300Y-10700D02*
X22300Y-11100D01*
X15200Y-32750D02*
X14800Y-32750D01*
X14800Y-32750D02*
X14800Y-32150D01*
X14800Y-32150D02*
X15200Y-32150D01*
X15600Y-32150D02*
X16000Y-32150D01*
X16000Y-32150D02*
X16000Y-32750D01*
X16000Y-32750D02*
X15600Y-32750D01*
X19850Y-30900D02*
X19450Y-30900D01*
X19450Y-30900D02*
X19450Y-30300D01*
X19450Y-30300D02*
X19850Y-30300D01*
X20250Y-30300D02*
X20650Y-30300D01*
X20650Y-30300D02*
X20650Y-30900D01*
X20650Y-30900D02*
X20250Y-30900D01*
X25050Y-24650D02*
X25450Y-24650D01*
X25450Y-24650D02*
X25450Y-25250D01*
X25450Y-25250D02*
X25050Y-25250D01*
X24650Y-25250D02*
X24250Y-25250D01*
X24250Y-25250D02*
X24250Y-24650D01*
X24250Y-24650D02*
X24650Y-24650D01*
X14700Y-22850D02*
X14300Y-22850D01*
X14300Y-22850D02*
X14300Y-22250D01*
X14300Y-22250D02*
X14700Y-22250D01*
X15100Y-22250D02*
X15500Y-22250D01*
X15500Y-22250D02*
X15500Y-22850D01*
X15500Y-22850D02*
X15100Y-22850D01*
X14700Y-23850D02*
X14300Y-23850D01*
X14300Y-23850D02*
X14300Y-23250D01*
X14300Y-23250D02*
X14700Y-23250D01*
X15100Y-23250D02*
X15500Y-23250D01*
X15500Y-23250D02*
X15500Y-23850D01*
X15500Y-23850D02*
X15100Y-23850D01*
X15200Y-30950D02*
X14800Y-30950D01*
X14800Y-30950D02*
X14800Y-30350D01*
X14800Y-30350D02*
X15200Y-30350D01*
X15600Y-30350D02*
X16000Y-30350D01*
X16000Y-30350D02*
X16000Y-30950D01*
X16000Y-30950D02*
X15600Y-30950D01*
X13500Y-22850D02*
X13500Y-22450D01*
X13500Y-22450D02*
X14100Y-22450D01*
X14100Y-22450D02*
X14100Y-22850D01*
X14100Y-23250D02*
X14100Y-23650D01*
X14100Y-23650D02*
X13500Y-23650D01*
X13500Y-23650D02*
X13500Y-23250D01*
X21450Y-11500D02*
X21450Y-11900D01*
X21450Y-11900D02*
X20850Y-11900D01*
X20850Y-11900D02*
X20850Y-11500D01*
X20850Y-11100D02*
X20850Y-10700D01*
X20850Y-10700D02*
X21450Y-10700D01*
X21450Y-10700D02*
X21450Y-11100D01*
X12000Y-22850D02*
X12000Y-22450D01*
X12000Y-22450D02*
X12600Y-22450D01*
X12600Y-22450D02*
X12600Y-22850D01*
X12600Y-23250D02*
X12600Y-23650D01*
X12600Y-23650D02*
X12000Y-23650D01*
X12000Y-23650D02*
X12000Y-23250D01*
X17750Y-26750D02*
X17750Y-27150D01*
X17750Y-27150D02*
X17150Y-27150D01*
X17150Y-27150D02*
X17150Y-26750D01*
X17150Y-26350D02*
X17150Y-25950D01*
X17150Y-25950D02*
X17750Y-25950D01*
X17750Y-25950D02*
X17750Y-26350D01*
X15200Y-29000D02*
X14800Y-29000D01*
X14800Y-29000D02*
X14800Y-28400D01*
X14800Y-28400D02*
X15200Y-28400D01*
X15600Y-28400D02*
X16000Y-28400D01*
X16000Y-28400D02*
X16000Y-29000D01*
X16000Y-29000D02*
X15600Y-29000D01*
X16950Y-11300D02*
X16950Y-11700D01*
X16950Y-11700D02*
X16350Y-11700D01*
X16350Y-11700D02*
X16350Y-11300D01*
X16350Y-10900D02*
X16350Y-10500D01*
X16350Y-10500D02*
X16950Y-10500D01*
X16950Y-10500D02*
X16950Y-10900D01*
X20600Y-11500D02*
X20600Y-11900D01*
X20600Y-11900D02*
X20000Y-11900D01*
X20000Y-11900D02*
X20000Y-11500D01*
X20000Y-11100D02*
X20000Y-10700D01*
X20000Y-10700D02*
X20600Y-10700D01*
X20600Y-10700D02*
X20600Y-11100D01*
X17650Y-23250D02*
X18050Y-23250D01*
X18050Y-23250D02*
X18050Y-23850D01*
X18050Y-23850D02*
X17650Y-23850D01*
X17250Y-23850D02*
X16850Y-23850D01*
X16850Y-23850D02*
X16850Y-23250D01*
X16850Y-23250D02*
X17250Y-23250D01*
X19300Y-26000D02*
X19300Y-26400D01*
X19300Y-26400D02*
X18700Y-26400D01*
X18700Y-26400D02*
X18700Y-26000D01*
X18700Y-25600D02*
X18700Y-25200D01*
X18700Y-25200D02*
X19300Y-25200D01*
X19300Y-25200D02*
X19300Y-25600D01*
X22400Y-26750D02*
X22400Y-27150D01*
X22400Y-27150D02*
X21800Y-27150D01*
X21800Y-27150D02*
X21800Y-26750D01*
X21800Y-26350D02*
X21800Y-25950D01*
X21800Y-25950D02*
X22400Y-25950D01*
X22400Y-25950D02*
X22400Y-26350D01*
X25050Y-23850D02*
X25450Y-23850D01*
X25450Y-23850D02*
X25450Y-24450D01*
X25450Y-24450D02*
X25050Y-24450D01*
X24650Y-24450D02*
X24250Y-24450D01*
X24250Y-24450D02*
X24250Y-23850D01*
X24250Y-23850D02*
X24650Y-23850D01*
X25600Y-20550D02*
X26000Y-20550D01*
X26000Y-20550D02*
X26000Y-21150D01*
X26000Y-21150D02*
X25600Y-21150D01*
X25200Y-21150D02*
X24800Y-21150D01*
X24800Y-21150D02*
X24800Y-20550D01*
X24800Y-20550D02*
X25200Y-20550D01*
X21800Y-17650D02*
X21800Y-17250D01*
X21800Y-17250D02*
X22400Y-17250D01*
X22400Y-17250D02*
X22400Y-17650D01*
X22400Y-18050D02*
X22400Y-18450D01*
X22400Y-18450D02*
X21800Y-18450D01*
X21800Y-18450D02*
X21800Y-18050D01*
X19300Y-18100D02*
X19300Y-17700D01*
X19300Y-17700D02*
X19900Y-17700D01*
X19900Y-17700D02*
X19900Y-18100D01*
X19900Y-18500D02*
X19900Y-18900D01*
X19900Y-18900D02*
X19300Y-18900D01*
X19300Y-18900D02*
X19300Y-18500D01*
X17350Y-22300D02*
X16950Y-22300D01*
X16950Y-22300D02*
X16950Y-21700D01*
X16950Y-21700D02*
X17350Y-21700D01*
X17750Y-21700D02*
X18150Y-21700D01*
X18150Y-21700D02*
X18150Y-22300D01*
X18150Y-22300D02*
X17750Y-22300D01*
X16700Y-26750D02*
X16700Y-27150D01*
X16700Y-27150D02*
X16100Y-27150D01*
X16100Y-27150D02*
X16100Y-26750D01*
X16100Y-26350D02*
X16100Y-25950D01*
X16100Y-25950D02*
X16700Y-25950D01*
X16700Y-25950D02*
X16700Y-26350D01*
G54D13*
X19789Y-10843D02*
X19651Y-10843D01*
X19789Y-13206D02*
X19789Y-10843D01*
X18765Y-10843D02*
X19041Y-10843D01*
X17859Y-10843D02*
X18135Y-10843D01*
X17111Y-10843D02*
X17230Y-10843D01*
X17111Y-13206D02*
X17111Y-10843D01*
X19789Y-13206D02*
X19237Y-13757D01*
X17111Y-13206D02*
X17663Y-13757D01*
G54D12*
X20956Y-22039D02*
X20956Y-21819D01*
X21165Y-22018D02*
X21155Y-22029D01*
X21127Y-22039D01*
X21108Y-22039D01*
X21079Y-22029D01*
X21060Y-22008D01*
X21051Y-21987D01*
X21041Y-21945D01*
X21041Y-21913D01*
X21051Y-21871D01*
X21060Y-21850D01*
X21079Y-21830D01*
X21108Y-21819D01*
X21127Y-21819D01*
X21155Y-21830D01*
X21165Y-21840D01*
X21355Y-22039D02*
X21241Y-22039D01*
X21298Y-22039D02*
X21298Y-21819D01*
X21279Y-21850D01*
X21260Y-21871D01*
X21241Y-21882D01*
X20632Y-22539D02*
X20537Y-22539D01*
X20537Y-22319D01*
X20699Y-22539D02*
X20699Y-22319D01*
X20775Y-22319D01*
X20794Y-22330D01*
X20803Y-22340D01*
X20813Y-22361D01*
X20813Y-22392D01*
X20803Y-22413D01*
X20794Y-22424D01*
X20775Y-22434D01*
X20699Y-22434D01*
X21013Y-22518D02*
X21003Y-22529D01*
X20975Y-22539D01*
X20956Y-22539D01*
X20927Y-22529D01*
X20908Y-22508D01*
X20899Y-22487D01*
X20889Y-22445D01*
X20889Y-22413D01*
X20899Y-22371D01*
X20908Y-22350D01*
X20927Y-22330D01*
X20956Y-22319D01*
X20975Y-22319D01*
X21003Y-22330D01*
X21013Y-22340D01*
X21203Y-22539D02*
X21089Y-22539D01*
X21146Y-22539D02*
X21146Y-22319D01*
X21127Y-22350D01*
X21108Y-22371D01*
X21089Y-22382D01*
X21270Y-22319D02*
X21403Y-22319D01*
X21317Y-22539D01*
X21574Y-22319D02*
X21479Y-22319D01*
X21469Y-22424D01*
X21479Y-22413D01*
X21498Y-22403D01*
X21545Y-22403D01*
X21564Y-22413D01*
X21574Y-22424D01*
X21583Y-22445D01*
X21583Y-22497D01*
X21574Y-22518D01*
X21564Y-22529D01*
X21545Y-22539D01*
X21498Y-22539D01*
X21479Y-22529D01*
X21469Y-22518D01*
X21650Y-22319D02*
X21783Y-22539D01*
X21783Y-22319D02*
X21650Y-22539D01*
G54D13*
X17569Y-09874D02*
X17569Y-10181D01*
X17584Y-10218D01*
X17600Y-10236D01*
X17630Y-10254D01*
X17691Y-10254D01*
X17722Y-10236D01*
X17737Y-10218D01*
X17752Y-10181D01*
X17752Y-09874D01*
X17828Y-10290D02*
X18072Y-10290D01*
X18331Y-10254D02*
X18224Y-10073D01*
X18148Y-10254D02*
X18148Y-09874D01*
X18270Y-09874D01*
X18301Y-09892D01*
X18316Y-09910D01*
X18331Y-09946D01*
X18331Y-10000D01*
X18316Y-10037D01*
X18301Y-10055D01*
X18270Y-10073D01*
X18148Y-10073D01*
X18468Y-10055D02*
X18575Y-10055D01*
X18621Y-10254D02*
X18468Y-10254D01*
X18468Y-09874D01*
X18621Y-09874D01*
X18926Y-09892D02*
X18895Y-09874D01*
X18850Y-09874D01*
X18804Y-09892D01*
X18773Y-09928D01*
X18758Y-09964D01*
X18743Y-10037D01*
X18743Y-10091D01*
X18758Y-10163D01*
X18773Y-10200D01*
X18804Y-10236D01*
X18850Y-10254D01*
X18880Y-10254D01*
X18926Y-10236D01*
X18941Y-10218D01*
X18941Y-10091D01*
X18880Y-10091D01*
X19246Y-10254D02*
X19063Y-10254D01*
X19154Y-10254D02*
X19154Y-09874D01*
X19124Y-09928D01*
X19093Y-09964D01*
X19063Y-09982D01*
M02*
