G04 (created by PCBNEW-RS274X (2011-03-30 BZR 2932)-stable) date 18/05/2011 11:49:28 p.m.*
G01*
G70*
G90*
%MOIN*%
G04 Gerber Fmt 3.4, Leading zero omitted, Abs format*
%FSLAX34Y34*%
G04 APERTURE LIST*
%ADD10C,0.006000*%
%ADD11C,0.007000*%
%ADD12C,0.005000*%
%ADD13C,0.008000*%
%ADD14C,0.012500*%
%ADD15C,0.015000*%
%ADD16C,0.012000*%
%ADD17C,0.007500*%
%ADD18C,0.010000*%
%ADD19C,0.005500*%
G04 APERTURE END LIST*
G54D10*
G54D11*
X58612Y-21488D02*
X58609Y-21512D01*
X58602Y-21535D01*
X58591Y-21556D01*
X58575Y-21575D01*
X58557Y-21590D01*
X58536Y-21602D01*
X58512Y-21609D01*
X58488Y-21611D01*
X58465Y-21609D01*
X58442Y-21602D01*
X58421Y-21591D01*
X58402Y-21576D01*
X58386Y-21558D01*
X58375Y-21536D01*
X58367Y-21513D01*
X58365Y-21489D01*
X58367Y-21466D01*
X58373Y-21443D01*
X58384Y-21421D01*
X58399Y-21402D01*
X58418Y-21387D01*
X58439Y-21375D01*
X58462Y-21367D01*
X58486Y-21365D01*
X58509Y-21366D01*
X58532Y-21373D01*
X58554Y-21384D01*
X58573Y-21399D01*
X58589Y-21417D01*
X58601Y-21438D01*
X58608Y-21461D01*
X58611Y-21485D01*
X58612Y-21488D01*
X58488Y-21921D02*
X58921Y-21488D01*
X58488Y-26212D02*
X58488Y-25779D01*
X58488Y-26212D02*
X58921Y-26212D01*
X63212Y-26212D02*
X63212Y-25779D01*
X63212Y-26212D02*
X62779Y-26212D01*
X63212Y-21488D02*
X63212Y-21921D01*
X63212Y-21488D02*
X62779Y-21488D01*
G54D12*
X57200Y-27550D02*
X56800Y-27550D01*
X56800Y-27550D02*
X56800Y-26950D01*
X56800Y-26950D02*
X57200Y-26950D01*
X57600Y-26950D02*
X58000Y-26950D01*
X58000Y-26950D02*
X58000Y-27550D01*
X58000Y-27550D02*
X57600Y-27550D01*
X56300Y-26950D02*
X56700Y-26950D01*
X56700Y-26950D02*
X56700Y-27550D01*
X56700Y-27550D02*
X56300Y-27550D01*
X55900Y-27550D02*
X55500Y-27550D01*
X55500Y-27550D02*
X55500Y-26950D01*
X55500Y-26950D02*
X55900Y-26950D01*
X58150Y-19200D02*
X58550Y-19200D01*
X58550Y-19200D02*
X58550Y-19800D01*
X58550Y-19800D02*
X58150Y-19800D01*
X57750Y-19800D02*
X57350Y-19800D01*
X57350Y-19800D02*
X57350Y-19200D01*
X57350Y-19200D02*
X57750Y-19200D01*
X58650Y-18650D02*
X58650Y-19050D01*
X58650Y-19050D02*
X58050Y-19050D01*
X58050Y-19050D02*
X58050Y-18650D01*
X58050Y-18250D02*
X58050Y-17850D01*
X58050Y-17850D02*
X58650Y-17850D01*
X58650Y-17850D02*
X58650Y-18250D01*
X57050Y-25450D02*
X56650Y-25450D01*
X56650Y-25450D02*
X56650Y-24850D01*
X56650Y-24850D02*
X57050Y-24850D01*
X57450Y-24850D02*
X57850Y-24850D01*
X57850Y-24850D02*
X57850Y-25450D01*
X57850Y-25450D02*
X57450Y-25450D01*
X57400Y-32850D02*
X57000Y-32850D01*
X57000Y-32850D02*
X57000Y-32250D01*
X57000Y-32250D02*
X57400Y-32250D01*
X57800Y-32250D02*
X58200Y-32250D01*
X58200Y-32250D02*
X58200Y-32850D01*
X58200Y-32850D02*
X57800Y-32850D01*
X59150Y-32250D02*
X59550Y-32250D01*
X59550Y-32250D02*
X59550Y-32850D01*
X59550Y-32850D02*
X59150Y-32850D01*
X58750Y-32850D02*
X58350Y-32850D01*
X58350Y-32850D02*
X58350Y-32250D01*
X58350Y-32250D02*
X58750Y-32250D01*
X55100Y-24500D02*
X54700Y-24500D01*
X54700Y-24500D02*
X54700Y-23900D01*
X54700Y-23900D02*
X55100Y-23900D01*
X55500Y-23900D02*
X55900Y-23900D01*
X55900Y-23900D02*
X55900Y-24500D01*
X55900Y-24500D02*
X55500Y-24500D01*
X56500Y-32400D02*
X56500Y-32800D01*
X56500Y-32800D02*
X55900Y-32800D01*
X55900Y-32800D02*
X55900Y-32400D01*
X55900Y-32000D02*
X55900Y-31600D01*
X55900Y-31600D02*
X56500Y-31600D01*
X56500Y-31600D02*
X56500Y-32000D01*
X54950Y-32400D02*
X54950Y-32800D01*
X54950Y-32800D02*
X54350Y-32800D01*
X54350Y-32800D02*
X54350Y-32400D01*
X54350Y-32000D02*
X54350Y-31600D01*
X54350Y-31600D02*
X54950Y-31600D01*
X54950Y-31600D02*
X54950Y-32000D01*
X62650Y-13500D02*
X62250Y-13500D01*
X62250Y-13500D02*
X62250Y-12900D01*
X62250Y-12900D02*
X62650Y-12900D01*
X63050Y-12900D02*
X63450Y-12900D01*
X63450Y-12900D02*
X63450Y-13500D01*
X63450Y-13500D02*
X63050Y-13500D01*
X61950Y-11950D02*
X61950Y-12350D01*
X61950Y-12350D02*
X61350Y-12350D01*
X61350Y-12350D02*
X61350Y-11950D01*
X61350Y-11550D02*
X61350Y-11150D01*
X61350Y-11150D02*
X61950Y-11150D01*
X61950Y-11150D02*
X61950Y-11550D01*
X60200Y-11550D02*
X59800Y-11550D01*
X59800Y-11550D02*
X59800Y-10950D01*
X59800Y-10950D02*
X60200Y-10950D01*
X60600Y-10950D02*
X61000Y-10950D01*
X61000Y-10950D02*
X61000Y-11550D01*
X61000Y-11550D02*
X60600Y-11550D01*
X58450Y-12700D02*
X58450Y-13100D01*
X58450Y-13100D02*
X57850Y-13100D01*
X57850Y-13100D02*
X57850Y-12700D01*
X57850Y-12300D02*
X57850Y-11900D01*
X57850Y-11900D02*
X58450Y-11900D01*
X58450Y-11900D02*
X58450Y-12300D01*
X55100Y-25200D02*
X54700Y-25200D01*
X54700Y-25200D02*
X54700Y-24600D01*
X54700Y-24600D02*
X55100Y-24600D01*
X55500Y-24600D02*
X55900Y-24600D01*
X55900Y-24600D02*
X55900Y-25200D01*
X55900Y-25200D02*
X55500Y-25200D01*
X64150Y-26800D02*
X63750Y-26800D01*
X63750Y-26800D02*
X63750Y-26200D01*
X63750Y-26200D02*
X64150Y-26200D01*
X64550Y-26200D02*
X64950Y-26200D01*
X64950Y-26200D02*
X64950Y-26800D01*
X64950Y-26800D02*
X64550Y-26800D01*
X62700Y-11950D02*
X62700Y-12350D01*
X62700Y-12350D02*
X62100Y-12350D01*
X62100Y-12350D02*
X62100Y-11950D01*
X62100Y-11550D02*
X62100Y-11150D01*
X62100Y-11150D02*
X62700Y-11150D01*
X62700Y-11150D02*
X62700Y-11550D01*
X57100Y-24000D02*
X56700Y-24000D01*
X56700Y-24000D02*
X56700Y-23400D01*
X56700Y-23400D02*
X57100Y-23400D01*
X57500Y-23400D02*
X57900Y-23400D01*
X57900Y-23400D02*
X57900Y-24000D01*
X57900Y-24000D02*
X57500Y-24000D01*
X60200Y-30800D02*
X59800Y-30800D01*
X59800Y-30800D02*
X59800Y-30200D01*
X59800Y-30200D02*
X60200Y-30200D01*
X60600Y-30200D02*
X61000Y-30200D01*
X61000Y-30200D02*
X61000Y-30800D01*
X61000Y-30800D02*
X60600Y-30800D01*
X59050Y-27600D02*
X59050Y-28000D01*
X59050Y-28000D02*
X58450Y-28000D01*
X58450Y-28000D02*
X58450Y-27600D01*
X58450Y-27200D02*
X58450Y-26800D01*
X58450Y-26800D02*
X59050Y-26800D01*
X59050Y-26800D02*
X59050Y-27200D01*
X55700Y-32400D02*
X55700Y-32800D01*
X55700Y-32800D02*
X55100Y-32800D01*
X55100Y-32800D02*
X55100Y-32400D01*
X55100Y-32000D02*
X55100Y-31600D01*
X55100Y-31600D02*
X55700Y-31600D01*
X55700Y-31600D02*
X55700Y-32000D01*
G54D13*
X61289Y-11993D02*
X61151Y-11993D01*
X61289Y-14356D02*
X61289Y-11993D01*
X60265Y-11993D02*
X60541Y-11993D01*
X59359Y-11993D02*
X59635Y-11993D01*
X58611Y-11993D02*
X58730Y-11993D01*
X58611Y-14356D02*
X58611Y-11993D01*
X61289Y-14356D02*
X60737Y-14907D01*
X58611Y-14356D02*
X59163Y-14907D01*
X76778Y-20792D02*
X76773Y-20834D01*
X76761Y-20875D01*
X76741Y-20913D01*
X76714Y-20947D01*
X76681Y-20974D01*
X76643Y-20994D01*
X76602Y-21007D01*
X76559Y-21011D01*
X76517Y-21008D01*
X76476Y-20995D01*
X76438Y-20976D01*
X76405Y-20949D01*
X76377Y-20916D01*
X76356Y-20878D01*
X76343Y-20837D01*
X76339Y-20795D01*
X76342Y-20753D01*
X76354Y-20712D01*
X76374Y-20673D01*
X76400Y-20640D01*
X76433Y-20612D01*
X76470Y-20591D01*
X76511Y-20578D01*
X76554Y-20573D01*
X76596Y-20576D01*
X76637Y-20587D01*
X76675Y-20607D01*
X76709Y-20633D01*
X76737Y-20666D01*
X76758Y-20703D01*
X76772Y-20744D01*
X76777Y-20786D01*
X76778Y-20792D01*
X77050Y-20694D02*
X76656Y-20300D01*
X76656Y-16756D02*
X80594Y-16756D01*
X80594Y-16756D02*
X80594Y-20694D01*
X80594Y-20694D02*
X77050Y-20694D01*
X76656Y-16756D02*
X76656Y-20300D01*
G54D12*
X79625Y-12925D02*
X79624Y-12934D01*
X79621Y-12944D01*
X79616Y-12952D01*
X79610Y-12960D01*
X79602Y-12966D01*
X79594Y-12971D01*
X79585Y-12973D01*
X79575Y-12974D01*
X79566Y-12974D01*
X79557Y-12971D01*
X79548Y-12966D01*
X79541Y-12960D01*
X79534Y-12953D01*
X79530Y-12944D01*
X79527Y-12935D01*
X79526Y-12925D01*
X79526Y-12916D01*
X79529Y-12907D01*
X79533Y-12898D01*
X79540Y-12891D01*
X79547Y-12884D01*
X79555Y-12880D01*
X79565Y-12877D01*
X79574Y-12876D01*
X79583Y-12876D01*
X79593Y-12879D01*
X79601Y-12883D01*
X79609Y-12889D01*
X79615Y-12897D01*
X79620Y-12905D01*
X79623Y-12914D01*
X79624Y-12924D01*
X79625Y-12925D01*
X80025Y-12925D02*
X79625Y-12925D01*
X79625Y-12925D02*
X79625Y-12325D01*
X79625Y-12325D02*
X80025Y-12325D01*
X80425Y-12325D02*
X80825Y-12325D01*
X80825Y-12325D02*
X80825Y-12925D01*
X80825Y-12925D02*
X80425Y-12925D01*
X73075Y-20025D02*
X73074Y-20034D01*
X73071Y-20044D01*
X73066Y-20052D01*
X73060Y-20060D01*
X73052Y-20066D01*
X73044Y-20071D01*
X73035Y-20073D01*
X73025Y-20074D01*
X73016Y-20074D01*
X73007Y-20071D01*
X72998Y-20066D01*
X72991Y-20060D01*
X72984Y-20053D01*
X72980Y-20044D01*
X72977Y-20035D01*
X72976Y-20025D01*
X72976Y-20016D01*
X72979Y-20007D01*
X72983Y-19998D01*
X72990Y-19991D01*
X72997Y-19984D01*
X73005Y-19980D01*
X73015Y-19977D01*
X73024Y-19976D01*
X73033Y-19976D01*
X73043Y-19979D01*
X73051Y-19983D01*
X73059Y-19989D01*
X73065Y-19997D01*
X73070Y-20005D01*
X73073Y-20014D01*
X73074Y-20024D01*
X73075Y-20025D01*
X73025Y-20475D02*
X73025Y-20075D01*
X73025Y-20075D02*
X73625Y-20075D01*
X73625Y-20075D02*
X73625Y-20475D01*
X73625Y-20875D02*
X73625Y-21275D01*
X73625Y-21275D02*
X73025Y-21275D01*
X73025Y-21275D02*
X73025Y-20875D01*
X81975Y-13675D02*
X81974Y-13684D01*
X81971Y-13694D01*
X81966Y-13702D01*
X81960Y-13710D01*
X81952Y-13716D01*
X81944Y-13721D01*
X81935Y-13723D01*
X81925Y-13724D01*
X81916Y-13724D01*
X81907Y-13721D01*
X81898Y-13716D01*
X81891Y-13710D01*
X81884Y-13703D01*
X81880Y-13694D01*
X81877Y-13685D01*
X81876Y-13675D01*
X81876Y-13666D01*
X81879Y-13657D01*
X81883Y-13648D01*
X81890Y-13641D01*
X81897Y-13634D01*
X81905Y-13630D01*
X81915Y-13627D01*
X81924Y-13626D01*
X81933Y-13626D01*
X81943Y-13629D01*
X81951Y-13633D01*
X81959Y-13639D01*
X81965Y-13647D01*
X81970Y-13655D01*
X81973Y-13664D01*
X81974Y-13674D01*
X81975Y-13675D01*
X81925Y-13225D02*
X81925Y-13625D01*
X81925Y-13625D02*
X81325Y-13625D01*
X81325Y-13625D02*
X81325Y-13225D01*
X81325Y-12825D02*
X81325Y-12425D01*
X81325Y-12425D02*
X81925Y-12425D01*
X81925Y-12425D02*
X81925Y-12825D01*
X76925Y-11525D02*
X76924Y-11534D01*
X76921Y-11544D01*
X76916Y-11552D01*
X76910Y-11560D01*
X76902Y-11566D01*
X76894Y-11571D01*
X76885Y-11573D01*
X76875Y-11574D01*
X76866Y-11574D01*
X76857Y-11571D01*
X76848Y-11566D01*
X76841Y-11560D01*
X76834Y-11553D01*
X76830Y-11544D01*
X76827Y-11535D01*
X76826Y-11525D01*
X76826Y-11516D01*
X76829Y-11507D01*
X76833Y-11498D01*
X76840Y-11491D01*
X76847Y-11484D01*
X76855Y-11480D01*
X76865Y-11477D01*
X76874Y-11476D01*
X76883Y-11476D01*
X76893Y-11479D01*
X76901Y-11483D01*
X76909Y-11489D01*
X76915Y-11497D01*
X76920Y-11505D01*
X76923Y-11514D01*
X76924Y-11524D01*
X76925Y-11525D01*
X76875Y-11975D02*
X76875Y-11575D01*
X76875Y-11575D02*
X77475Y-11575D01*
X77475Y-11575D02*
X77475Y-11975D01*
X77475Y-12375D02*
X77475Y-12775D01*
X77475Y-12775D02*
X76875Y-12775D01*
X76875Y-12775D02*
X76875Y-12375D01*
X70725Y-28875D02*
X70724Y-28884D01*
X70721Y-28894D01*
X70716Y-28902D01*
X70710Y-28910D01*
X70702Y-28916D01*
X70694Y-28921D01*
X70685Y-28923D01*
X70675Y-28924D01*
X70666Y-28924D01*
X70657Y-28921D01*
X70648Y-28916D01*
X70641Y-28910D01*
X70634Y-28903D01*
X70630Y-28894D01*
X70627Y-28885D01*
X70626Y-28875D01*
X70626Y-28866D01*
X70629Y-28857D01*
X70633Y-28848D01*
X70640Y-28841D01*
X70647Y-28834D01*
X70655Y-28830D01*
X70665Y-28827D01*
X70674Y-28826D01*
X70683Y-28826D01*
X70693Y-28829D01*
X70701Y-28833D01*
X70709Y-28839D01*
X70715Y-28847D01*
X70720Y-28855D01*
X70723Y-28864D01*
X70724Y-28874D01*
X70725Y-28875D01*
X71125Y-28875D02*
X70725Y-28875D01*
X70725Y-28875D02*
X70725Y-28275D01*
X70725Y-28275D02*
X71125Y-28275D01*
X71525Y-28275D02*
X71925Y-28275D01*
X71925Y-28275D02*
X71925Y-28875D01*
X71925Y-28875D02*
X71525Y-28875D01*
X76725Y-12825D02*
X76724Y-12834D01*
X76721Y-12844D01*
X76716Y-12852D01*
X76710Y-12860D01*
X76702Y-12866D01*
X76694Y-12871D01*
X76685Y-12873D01*
X76675Y-12874D01*
X76666Y-12874D01*
X76657Y-12871D01*
X76648Y-12866D01*
X76641Y-12860D01*
X76634Y-12853D01*
X76630Y-12844D01*
X76627Y-12835D01*
X76626Y-12825D01*
X76626Y-12816D01*
X76629Y-12807D01*
X76633Y-12798D01*
X76640Y-12791D01*
X76647Y-12784D01*
X76655Y-12780D01*
X76665Y-12777D01*
X76674Y-12776D01*
X76683Y-12776D01*
X76693Y-12779D01*
X76701Y-12783D01*
X76709Y-12789D01*
X76715Y-12797D01*
X76720Y-12805D01*
X76723Y-12814D01*
X76724Y-12824D01*
X76725Y-12825D01*
X76675Y-12375D02*
X76675Y-12775D01*
X76675Y-12775D02*
X76075Y-12775D01*
X76075Y-12775D02*
X76075Y-12375D01*
X76075Y-11975D02*
X76075Y-11575D01*
X76075Y-11575D02*
X76675Y-11575D01*
X76675Y-11575D02*
X76675Y-11975D01*
X72025Y-29375D02*
X72024Y-29384D01*
X72021Y-29394D01*
X72016Y-29402D01*
X72010Y-29410D01*
X72002Y-29416D01*
X71994Y-29421D01*
X71985Y-29423D01*
X71975Y-29424D01*
X71966Y-29424D01*
X71957Y-29421D01*
X71948Y-29416D01*
X71941Y-29410D01*
X71934Y-29403D01*
X71930Y-29394D01*
X71927Y-29385D01*
X71926Y-29375D01*
X71926Y-29366D01*
X71929Y-29357D01*
X71933Y-29348D01*
X71940Y-29341D01*
X71947Y-29334D01*
X71955Y-29330D01*
X71965Y-29327D01*
X71974Y-29326D01*
X71983Y-29326D01*
X71993Y-29329D01*
X72001Y-29333D01*
X72009Y-29339D01*
X72015Y-29347D01*
X72020Y-29355D01*
X72023Y-29364D01*
X72024Y-29374D01*
X72025Y-29375D01*
X71525Y-29375D02*
X71925Y-29375D01*
X71925Y-29375D02*
X71925Y-29975D01*
X71925Y-29975D02*
X71525Y-29975D01*
X71125Y-29975D02*
X70725Y-29975D01*
X70725Y-29975D02*
X70725Y-29375D01*
X70725Y-29375D02*
X71125Y-29375D01*
X84175Y-17875D02*
X84174Y-17884D01*
X84171Y-17894D01*
X84166Y-17902D01*
X84160Y-17910D01*
X84152Y-17916D01*
X84144Y-17921D01*
X84135Y-17923D01*
X84125Y-17924D01*
X84116Y-17924D01*
X84107Y-17921D01*
X84098Y-17916D01*
X84091Y-17910D01*
X84084Y-17903D01*
X84080Y-17894D01*
X84077Y-17885D01*
X84076Y-17875D01*
X84076Y-17866D01*
X84079Y-17857D01*
X84083Y-17848D01*
X84090Y-17841D01*
X84097Y-17834D01*
X84105Y-17830D01*
X84115Y-17827D01*
X84124Y-17826D01*
X84133Y-17826D01*
X84143Y-17829D01*
X84151Y-17833D01*
X84159Y-17839D01*
X84165Y-17847D01*
X84170Y-17855D01*
X84173Y-17864D01*
X84174Y-17874D01*
X84175Y-17875D01*
X84575Y-17875D02*
X84175Y-17875D01*
X84175Y-17875D02*
X84175Y-17275D01*
X84175Y-17275D02*
X84575Y-17275D01*
X84975Y-17275D02*
X85375Y-17275D01*
X85375Y-17275D02*
X85375Y-17875D01*
X85375Y-17875D02*
X84975Y-17875D01*
X78125Y-24775D02*
X78124Y-24784D01*
X78121Y-24794D01*
X78116Y-24802D01*
X78110Y-24810D01*
X78102Y-24816D01*
X78094Y-24821D01*
X78085Y-24823D01*
X78075Y-24824D01*
X78066Y-24824D01*
X78057Y-24821D01*
X78048Y-24816D01*
X78041Y-24810D01*
X78034Y-24803D01*
X78030Y-24794D01*
X78027Y-24785D01*
X78026Y-24775D01*
X78026Y-24766D01*
X78029Y-24757D01*
X78033Y-24748D01*
X78040Y-24741D01*
X78047Y-24734D01*
X78055Y-24730D01*
X78065Y-24727D01*
X78074Y-24726D01*
X78083Y-24726D01*
X78093Y-24729D01*
X78101Y-24733D01*
X78109Y-24739D01*
X78115Y-24747D01*
X78120Y-24755D01*
X78123Y-24764D01*
X78124Y-24774D01*
X78125Y-24775D01*
X77625Y-24775D02*
X78025Y-24775D01*
X78025Y-24775D02*
X78025Y-25375D01*
X78025Y-25375D02*
X77625Y-25375D01*
X77225Y-25375D02*
X76825Y-25375D01*
X76825Y-25375D02*
X76825Y-24775D01*
X76825Y-24775D02*
X77225Y-24775D01*
X77125Y-21925D02*
X77124Y-21934D01*
X77121Y-21944D01*
X77116Y-21952D01*
X77110Y-21960D01*
X77102Y-21966D01*
X77094Y-21971D01*
X77085Y-21973D01*
X77075Y-21974D01*
X77066Y-21974D01*
X77057Y-21971D01*
X77048Y-21966D01*
X77041Y-21960D01*
X77034Y-21953D01*
X77030Y-21944D01*
X77027Y-21935D01*
X77026Y-21925D01*
X77026Y-21916D01*
X77029Y-21907D01*
X77033Y-21898D01*
X77040Y-21891D01*
X77047Y-21884D01*
X77055Y-21880D01*
X77065Y-21877D01*
X77074Y-21876D01*
X77083Y-21876D01*
X77093Y-21879D01*
X77101Y-21883D01*
X77109Y-21889D01*
X77115Y-21897D01*
X77120Y-21905D01*
X77123Y-21914D01*
X77124Y-21924D01*
X77125Y-21925D01*
X76625Y-21925D02*
X77025Y-21925D01*
X77025Y-21925D02*
X77025Y-22525D01*
X77025Y-22525D02*
X76625Y-22525D01*
X76225Y-22525D02*
X75825Y-22525D01*
X75825Y-22525D02*
X75825Y-21925D01*
X75825Y-21925D02*
X76225Y-21925D01*
X78175Y-25375D02*
X78174Y-25384D01*
X78171Y-25394D01*
X78166Y-25402D01*
X78160Y-25410D01*
X78152Y-25416D01*
X78144Y-25421D01*
X78135Y-25423D01*
X78125Y-25424D01*
X78116Y-25424D01*
X78107Y-25421D01*
X78098Y-25416D01*
X78091Y-25410D01*
X78084Y-25403D01*
X78080Y-25394D01*
X78077Y-25385D01*
X78076Y-25375D01*
X78076Y-25366D01*
X78079Y-25357D01*
X78083Y-25348D01*
X78090Y-25341D01*
X78097Y-25334D01*
X78105Y-25330D01*
X78115Y-25327D01*
X78124Y-25326D01*
X78133Y-25326D01*
X78143Y-25329D01*
X78151Y-25333D01*
X78159Y-25339D01*
X78165Y-25347D01*
X78170Y-25355D01*
X78173Y-25364D01*
X78174Y-25374D01*
X78175Y-25375D01*
X78575Y-25375D02*
X78175Y-25375D01*
X78175Y-25375D02*
X78175Y-24775D01*
X78175Y-24775D02*
X78575Y-24775D01*
X78975Y-24775D02*
X79375Y-24775D01*
X79375Y-24775D02*
X79375Y-25375D01*
X79375Y-25375D02*
X78975Y-25375D01*
X78475Y-26725D02*
X78474Y-26734D01*
X78471Y-26744D01*
X78466Y-26752D01*
X78460Y-26760D01*
X78452Y-26766D01*
X78444Y-26771D01*
X78435Y-26773D01*
X78425Y-26774D01*
X78416Y-26774D01*
X78407Y-26771D01*
X78398Y-26766D01*
X78391Y-26760D01*
X78384Y-26753D01*
X78380Y-26744D01*
X78377Y-26735D01*
X78376Y-26725D01*
X78376Y-26716D01*
X78379Y-26707D01*
X78383Y-26698D01*
X78390Y-26691D01*
X78397Y-26684D01*
X78405Y-26680D01*
X78415Y-26677D01*
X78424Y-26676D01*
X78433Y-26676D01*
X78443Y-26679D01*
X78451Y-26683D01*
X78459Y-26689D01*
X78465Y-26697D01*
X78470Y-26705D01*
X78473Y-26714D01*
X78474Y-26724D01*
X78475Y-26725D01*
X78425Y-26275D02*
X78425Y-26675D01*
X78425Y-26675D02*
X77825Y-26675D01*
X77825Y-26675D02*
X77825Y-26275D01*
X77825Y-25875D02*
X77825Y-25475D01*
X77825Y-25475D02*
X78425Y-25475D01*
X78425Y-25475D02*
X78425Y-25875D01*
X87925Y-15975D02*
X87924Y-15984D01*
X87921Y-15994D01*
X87916Y-16002D01*
X87910Y-16010D01*
X87902Y-16016D01*
X87894Y-16021D01*
X87885Y-16023D01*
X87875Y-16024D01*
X87866Y-16024D01*
X87857Y-16021D01*
X87848Y-16016D01*
X87841Y-16010D01*
X87834Y-16003D01*
X87830Y-15994D01*
X87827Y-15985D01*
X87826Y-15975D01*
X87826Y-15966D01*
X87829Y-15957D01*
X87833Y-15948D01*
X87840Y-15941D01*
X87847Y-15934D01*
X87855Y-15930D01*
X87865Y-15927D01*
X87874Y-15926D01*
X87883Y-15926D01*
X87893Y-15929D01*
X87901Y-15933D01*
X87909Y-15939D01*
X87915Y-15947D01*
X87920Y-15955D01*
X87923Y-15964D01*
X87924Y-15974D01*
X87925Y-15975D01*
X87425Y-15975D02*
X87825Y-15975D01*
X87825Y-15975D02*
X87825Y-16575D01*
X87825Y-16575D02*
X87425Y-16575D01*
X87025Y-16575D02*
X86625Y-16575D01*
X86625Y-16575D02*
X86625Y-15975D01*
X86625Y-15975D02*
X87025Y-15975D01*
X79625Y-13675D02*
X79624Y-13684D01*
X79621Y-13694D01*
X79616Y-13702D01*
X79610Y-13710D01*
X79602Y-13716D01*
X79594Y-13721D01*
X79585Y-13723D01*
X79575Y-13724D01*
X79566Y-13724D01*
X79557Y-13721D01*
X79548Y-13716D01*
X79541Y-13710D01*
X79534Y-13703D01*
X79530Y-13694D01*
X79527Y-13685D01*
X79526Y-13675D01*
X79526Y-13666D01*
X79529Y-13657D01*
X79533Y-13648D01*
X79540Y-13641D01*
X79547Y-13634D01*
X79555Y-13630D01*
X79565Y-13627D01*
X79574Y-13626D01*
X79583Y-13626D01*
X79593Y-13629D01*
X79601Y-13633D01*
X79609Y-13639D01*
X79615Y-13647D01*
X79620Y-13655D01*
X79623Y-13664D01*
X79624Y-13674D01*
X79625Y-13675D01*
X80025Y-13675D02*
X79625Y-13675D01*
X79625Y-13675D02*
X79625Y-13075D01*
X79625Y-13075D02*
X80025Y-13075D01*
X80425Y-13075D02*
X80825Y-13075D01*
X80825Y-13075D02*
X80825Y-13675D01*
X80825Y-13675D02*
X80425Y-13675D01*
X75775Y-21475D02*
X75774Y-21484D01*
X75771Y-21494D01*
X75766Y-21502D01*
X75760Y-21510D01*
X75752Y-21516D01*
X75744Y-21521D01*
X75735Y-21523D01*
X75725Y-21524D01*
X75716Y-21524D01*
X75707Y-21521D01*
X75698Y-21516D01*
X75691Y-21510D01*
X75684Y-21503D01*
X75680Y-21494D01*
X75677Y-21485D01*
X75676Y-21475D01*
X75676Y-21466D01*
X75679Y-21457D01*
X75683Y-21448D01*
X75690Y-21441D01*
X75697Y-21434D01*
X75705Y-21430D01*
X75715Y-21427D01*
X75724Y-21426D01*
X75733Y-21426D01*
X75743Y-21429D01*
X75751Y-21433D01*
X75759Y-21439D01*
X75765Y-21447D01*
X75770Y-21455D01*
X75773Y-21464D01*
X75774Y-21474D01*
X75775Y-21475D01*
X76175Y-21475D02*
X75775Y-21475D01*
X75775Y-21475D02*
X75775Y-20875D01*
X75775Y-20875D02*
X76175Y-20875D01*
X76575Y-20875D02*
X76975Y-20875D01*
X76975Y-20875D02*
X76975Y-21475D01*
X76975Y-21475D02*
X76575Y-21475D01*
X81375Y-20525D02*
X81374Y-20534D01*
X81371Y-20544D01*
X81366Y-20552D01*
X81360Y-20560D01*
X81352Y-20566D01*
X81344Y-20571D01*
X81335Y-20573D01*
X81325Y-20574D01*
X81316Y-20574D01*
X81307Y-20571D01*
X81298Y-20566D01*
X81291Y-20560D01*
X81284Y-20553D01*
X81280Y-20544D01*
X81277Y-20535D01*
X81276Y-20525D01*
X81276Y-20516D01*
X81279Y-20507D01*
X81283Y-20498D01*
X81290Y-20491D01*
X81297Y-20484D01*
X81305Y-20480D01*
X81315Y-20477D01*
X81324Y-20476D01*
X81333Y-20476D01*
X81343Y-20479D01*
X81351Y-20483D01*
X81359Y-20489D01*
X81365Y-20497D01*
X81370Y-20505D01*
X81373Y-20514D01*
X81374Y-20524D01*
X81375Y-20525D01*
X81775Y-20525D02*
X81375Y-20525D01*
X81375Y-20525D02*
X81375Y-19925D01*
X81375Y-19925D02*
X81775Y-19925D01*
X82175Y-19925D02*
X82575Y-19925D01*
X82575Y-19925D02*
X82575Y-20525D01*
X82575Y-20525D02*
X82175Y-20525D01*
X79475Y-21425D02*
X79474Y-21434D01*
X79471Y-21444D01*
X79466Y-21452D01*
X79460Y-21460D01*
X79452Y-21466D01*
X79444Y-21471D01*
X79435Y-21473D01*
X79425Y-21474D01*
X79416Y-21474D01*
X79407Y-21471D01*
X79398Y-21466D01*
X79391Y-21460D01*
X79384Y-21453D01*
X79380Y-21444D01*
X79377Y-21435D01*
X79376Y-21425D01*
X79376Y-21416D01*
X79379Y-21407D01*
X79383Y-21398D01*
X79390Y-21391D01*
X79397Y-21384D01*
X79405Y-21380D01*
X79415Y-21377D01*
X79424Y-21376D01*
X79433Y-21376D01*
X79443Y-21379D01*
X79451Y-21383D01*
X79459Y-21389D01*
X79465Y-21397D01*
X79470Y-21405D01*
X79473Y-21414D01*
X79474Y-21424D01*
X79475Y-21425D01*
X79425Y-21875D02*
X79425Y-21475D01*
X79425Y-21475D02*
X80025Y-21475D01*
X80025Y-21475D02*
X80025Y-21875D01*
X80025Y-22275D02*
X80025Y-22675D01*
X80025Y-22675D02*
X79425Y-22675D01*
X79425Y-22675D02*
X79425Y-22275D01*
X81375Y-17275D02*
X81374Y-17284D01*
X81371Y-17294D01*
X81366Y-17302D01*
X81360Y-17310D01*
X81352Y-17316D01*
X81344Y-17321D01*
X81335Y-17323D01*
X81325Y-17324D01*
X81316Y-17324D01*
X81307Y-17321D01*
X81298Y-17316D01*
X81291Y-17310D01*
X81284Y-17303D01*
X81280Y-17294D01*
X81277Y-17285D01*
X81276Y-17275D01*
X81276Y-17266D01*
X81279Y-17257D01*
X81283Y-17248D01*
X81290Y-17241D01*
X81297Y-17234D01*
X81305Y-17230D01*
X81315Y-17227D01*
X81324Y-17226D01*
X81333Y-17226D01*
X81343Y-17229D01*
X81351Y-17233D01*
X81359Y-17239D01*
X81365Y-17247D01*
X81370Y-17255D01*
X81373Y-17264D01*
X81374Y-17274D01*
X81375Y-17275D01*
X81775Y-17275D02*
X81375Y-17275D01*
X81375Y-17275D02*
X81375Y-16675D01*
X81375Y-16675D02*
X81775Y-16675D01*
X82175Y-16675D02*
X82575Y-16675D01*
X82575Y-16675D02*
X82575Y-17275D01*
X82575Y-17275D02*
X82175Y-17275D01*
X77225Y-16025D02*
X77224Y-16034D01*
X77221Y-16044D01*
X77216Y-16052D01*
X77210Y-16060D01*
X77202Y-16066D01*
X77194Y-16071D01*
X77185Y-16073D01*
X77175Y-16074D01*
X77166Y-16074D01*
X77157Y-16071D01*
X77148Y-16066D01*
X77141Y-16060D01*
X77134Y-16053D01*
X77130Y-16044D01*
X77127Y-16035D01*
X77126Y-16025D01*
X77126Y-16016D01*
X77129Y-16007D01*
X77133Y-15998D01*
X77140Y-15991D01*
X77147Y-15984D01*
X77155Y-15980D01*
X77165Y-15977D01*
X77174Y-15976D01*
X77183Y-15976D01*
X77193Y-15979D01*
X77201Y-15983D01*
X77209Y-15989D01*
X77215Y-15997D01*
X77220Y-16005D01*
X77223Y-16014D01*
X77224Y-16024D01*
X77225Y-16025D01*
X77175Y-15575D02*
X77175Y-15975D01*
X77175Y-15975D02*
X76575Y-15975D01*
X76575Y-15975D02*
X76575Y-15575D01*
X76575Y-15175D02*
X76575Y-14775D01*
X76575Y-14775D02*
X77175Y-14775D01*
X77175Y-14775D02*
X77175Y-15175D01*
X75975Y-20125D02*
X75974Y-20134D01*
X75971Y-20144D01*
X75966Y-20152D01*
X75960Y-20160D01*
X75952Y-20166D01*
X75944Y-20171D01*
X75935Y-20173D01*
X75925Y-20174D01*
X75916Y-20174D01*
X75907Y-20171D01*
X75898Y-20166D01*
X75891Y-20160D01*
X75884Y-20153D01*
X75880Y-20144D01*
X75877Y-20135D01*
X75876Y-20125D01*
X75876Y-20116D01*
X75879Y-20107D01*
X75883Y-20098D01*
X75890Y-20091D01*
X75897Y-20084D01*
X75905Y-20080D01*
X75915Y-20077D01*
X75924Y-20076D01*
X75933Y-20076D01*
X75943Y-20079D01*
X75951Y-20083D01*
X75959Y-20089D01*
X75965Y-20097D01*
X75970Y-20105D01*
X75973Y-20114D01*
X75974Y-20124D01*
X75975Y-20125D01*
X75475Y-20125D02*
X75875Y-20125D01*
X75875Y-20125D02*
X75875Y-20725D01*
X75875Y-20725D02*
X75475Y-20725D01*
X75075Y-20725D02*
X74675Y-20725D01*
X74675Y-20725D02*
X74675Y-20125D01*
X74675Y-20125D02*
X75075Y-20125D01*
X77125Y-22725D02*
X77124Y-22734D01*
X77121Y-22744D01*
X77116Y-22752D01*
X77110Y-22760D01*
X77102Y-22766D01*
X77094Y-22771D01*
X77085Y-22773D01*
X77075Y-22774D01*
X77066Y-22774D01*
X77057Y-22771D01*
X77048Y-22766D01*
X77041Y-22760D01*
X77034Y-22753D01*
X77030Y-22744D01*
X77027Y-22735D01*
X77026Y-22725D01*
X77026Y-22716D01*
X77029Y-22707D01*
X77033Y-22698D01*
X77040Y-22691D01*
X77047Y-22684D01*
X77055Y-22680D01*
X77065Y-22677D01*
X77074Y-22676D01*
X77083Y-22676D01*
X77093Y-22679D01*
X77101Y-22683D01*
X77109Y-22689D01*
X77115Y-22697D01*
X77120Y-22705D01*
X77123Y-22714D01*
X77124Y-22724D01*
X77125Y-22725D01*
X76625Y-22725D02*
X77025Y-22725D01*
X77025Y-22725D02*
X77025Y-23325D01*
X77025Y-23325D02*
X76625Y-23325D01*
X76225Y-23325D02*
X75825Y-23325D01*
X75825Y-23325D02*
X75825Y-22725D01*
X75825Y-22725D02*
X76225Y-22725D01*
G54D13*
X85675Y-20025D02*
X85675Y-21225D01*
X85675Y-21225D02*
X88475Y-21225D01*
X88475Y-21225D02*
X88475Y-20025D01*
X85675Y-18825D02*
X85675Y-18525D01*
X85675Y-18525D02*
X86275Y-17625D01*
X86275Y-17625D02*
X87875Y-17625D01*
X87875Y-17625D02*
X88475Y-18525D01*
X88475Y-18525D02*
X88475Y-18825D01*
G54D12*
X48776Y-14275D02*
X48756Y-14469D01*
X48700Y-14656D01*
X48608Y-14828D01*
X48485Y-14980D01*
X48334Y-15104D01*
X48162Y-15197D01*
X47976Y-15255D01*
X47781Y-15275D01*
X47588Y-15258D01*
X47401Y-15203D01*
X47227Y-15112D01*
X47075Y-14990D01*
X46950Y-14840D01*
X46855Y-14669D01*
X46796Y-14483D01*
X46775Y-14288D01*
X46791Y-14095D01*
X46845Y-13907D01*
X46934Y-13733D01*
X47055Y-13580D01*
X47204Y-13454D01*
X47375Y-13358D01*
X47561Y-13298D01*
X47755Y-13275D01*
X47948Y-13290D01*
X48136Y-13342D01*
X48311Y-13430D01*
X48465Y-13551D01*
X48592Y-13698D01*
X48689Y-13868D01*
X48751Y-14054D01*
X48775Y-14248D01*
X48776Y-14275D01*
X43676Y-15075D02*
X43656Y-15269D01*
X43600Y-15456D01*
X43508Y-15628D01*
X43385Y-15780D01*
X43234Y-15904D01*
X43062Y-15997D01*
X42876Y-16055D01*
X42681Y-16075D01*
X42488Y-16058D01*
X42301Y-16003D01*
X42127Y-15912D01*
X41975Y-15790D01*
X41850Y-15640D01*
X41755Y-15469D01*
X41696Y-15283D01*
X41675Y-15088D01*
X41691Y-14895D01*
X41745Y-14707D01*
X41834Y-14533D01*
X41955Y-14380D01*
X42104Y-14254D01*
X42275Y-14158D01*
X42461Y-14098D01*
X42655Y-14075D01*
X42848Y-14090D01*
X43036Y-14142D01*
X43211Y-14230D01*
X43365Y-14351D01*
X43492Y-14498D01*
X43589Y-14668D01*
X43651Y-14854D01*
X43675Y-15048D01*
X43676Y-15075D01*
X46076Y-24825D02*
X46056Y-25019D01*
X46000Y-25206D01*
X45908Y-25378D01*
X45785Y-25530D01*
X45634Y-25654D01*
X45462Y-25747D01*
X45276Y-25805D01*
X45081Y-25825D01*
X44888Y-25808D01*
X44701Y-25753D01*
X44527Y-25662D01*
X44375Y-25540D01*
X44250Y-25390D01*
X44155Y-25219D01*
X44096Y-25033D01*
X44075Y-24838D01*
X44091Y-24645D01*
X44145Y-24457D01*
X44234Y-24283D01*
X44355Y-24130D01*
X44504Y-24004D01*
X44675Y-23908D01*
X44861Y-23848D01*
X45055Y-23825D01*
X45248Y-23840D01*
X45436Y-23892D01*
X45611Y-23980D01*
X45765Y-24101D01*
X45892Y-24248D01*
X45989Y-24418D01*
X46051Y-24604D01*
X46075Y-24798D01*
X46076Y-24825D01*
G54D14*
X33125Y-18875D02*
X33125Y-21375D01*
X35125Y-18875D02*
X35125Y-21375D01*
X34125Y-22375D02*
X34212Y-22371D01*
X34298Y-22359D01*
X34383Y-22340D01*
X34467Y-22314D01*
X34547Y-22281D01*
X34625Y-22241D01*
X34698Y-22194D01*
X34767Y-22141D01*
X34832Y-22082D01*
X34891Y-22017D01*
X34944Y-21948D01*
X34991Y-21874D01*
X35031Y-21797D01*
X35064Y-21717D01*
X35090Y-21633D01*
X35109Y-21548D01*
X35121Y-21462D01*
X35125Y-21375D01*
X33125Y-21375D02*
X33129Y-21462D01*
X33141Y-21548D01*
X33160Y-21633D01*
X33186Y-21717D01*
X33219Y-21797D01*
X33259Y-21874D01*
X33306Y-21948D01*
X33359Y-22017D01*
X33418Y-22082D01*
X33483Y-22141D01*
X33552Y-22194D01*
X33626Y-22241D01*
X33703Y-22281D01*
X33783Y-22314D01*
X33867Y-22340D01*
X33952Y-22359D01*
X34038Y-22371D01*
X34125Y-22375D01*
X35125Y-18875D02*
X35121Y-18788D01*
X35109Y-18702D01*
X35090Y-18617D01*
X35064Y-18533D01*
X35031Y-18453D01*
X34991Y-18376D01*
X34944Y-18302D01*
X34891Y-18233D01*
X34832Y-18168D01*
X34767Y-18109D01*
X34698Y-18056D01*
X34625Y-18009D01*
X34547Y-17969D01*
X34467Y-17936D01*
X34383Y-17910D01*
X34298Y-17891D01*
X34212Y-17879D01*
X34125Y-17875D01*
X34125Y-17875D02*
X34038Y-17879D01*
X33952Y-17891D01*
X33867Y-17910D01*
X33783Y-17936D01*
X33703Y-17969D01*
X33626Y-18009D01*
X33552Y-18056D01*
X33483Y-18109D01*
X33418Y-18168D01*
X33359Y-18233D01*
X33306Y-18302D01*
X33259Y-18376D01*
X33219Y-18453D01*
X33186Y-18533D01*
X33160Y-18617D01*
X33141Y-18702D01*
X33129Y-18788D01*
X33125Y-18875D01*
X45475Y-20225D02*
X45475Y-22725D01*
X47475Y-20225D02*
X47475Y-22725D01*
X46475Y-23725D02*
X46562Y-23721D01*
X46648Y-23709D01*
X46733Y-23690D01*
X46817Y-23664D01*
X46897Y-23631D01*
X46975Y-23591D01*
X47048Y-23544D01*
X47117Y-23491D01*
X47182Y-23432D01*
X47241Y-23367D01*
X47294Y-23298D01*
X47341Y-23224D01*
X47381Y-23147D01*
X47414Y-23067D01*
X47440Y-22983D01*
X47459Y-22898D01*
X47471Y-22812D01*
X47475Y-22725D01*
X45475Y-22725D02*
X45479Y-22812D01*
X45491Y-22898D01*
X45510Y-22983D01*
X45536Y-23067D01*
X45569Y-23147D01*
X45609Y-23224D01*
X45656Y-23298D01*
X45709Y-23367D01*
X45768Y-23432D01*
X45833Y-23491D01*
X45902Y-23544D01*
X45976Y-23591D01*
X46053Y-23631D01*
X46133Y-23664D01*
X46217Y-23690D01*
X46302Y-23709D01*
X46388Y-23721D01*
X46475Y-23725D01*
X47475Y-20225D02*
X47471Y-20138D01*
X47459Y-20052D01*
X47440Y-19967D01*
X47414Y-19883D01*
X47381Y-19803D01*
X47341Y-19726D01*
X47294Y-19652D01*
X47241Y-19583D01*
X47182Y-19518D01*
X47117Y-19459D01*
X47048Y-19406D01*
X46975Y-19359D01*
X46897Y-19319D01*
X46817Y-19286D01*
X46733Y-19260D01*
X46648Y-19241D01*
X46562Y-19229D01*
X46475Y-19225D01*
X46475Y-19225D02*
X46388Y-19229D01*
X46302Y-19241D01*
X46217Y-19260D01*
X46133Y-19286D01*
X46053Y-19319D01*
X45976Y-19359D01*
X45902Y-19406D01*
X45833Y-19459D01*
X45768Y-19518D01*
X45709Y-19583D01*
X45656Y-19652D01*
X45609Y-19726D01*
X45569Y-19803D01*
X45536Y-19883D01*
X45510Y-19967D01*
X45491Y-20052D01*
X45479Y-20138D01*
X45475Y-20225D01*
G54D15*
X52175Y-08425D02*
X52175Y-08125D01*
X52175Y-08125D02*
X48775Y-08125D01*
X48775Y-08125D02*
X48775Y-08425D01*
X52175Y-09625D02*
X48775Y-09625D01*
X52175Y-13425D02*
X48775Y-13425D01*
X48775Y-08425D02*
X48775Y-13425D01*
X52175Y-08425D02*
X52175Y-13425D01*
G54D13*
X43780Y-25128D02*
X43775Y-25176D01*
X43760Y-25224D01*
X43737Y-25267D01*
X43706Y-25305D01*
X43668Y-25336D01*
X43625Y-25360D01*
X43578Y-25374D01*
X43529Y-25379D01*
X43481Y-25375D01*
X43434Y-25361D01*
X43391Y-25338D01*
X43352Y-25308D01*
X43321Y-25270D01*
X43297Y-25227D01*
X43282Y-25180D01*
X43277Y-25131D01*
X43281Y-25083D01*
X43294Y-25036D01*
X43317Y-24992D01*
X43347Y-24953D01*
X43385Y-24922D01*
X43428Y-24898D01*
X43474Y-24882D01*
X43523Y-24877D01*
X43571Y-24880D01*
X43619Y-24894D01*
X43663Y-24916D01*
X43701Y-24946D01*
X43733Y-24983D01*
X43758Y-25026D01*
X43773Y-25073D01*
X43779Y-25121D01*
X43780Y-25128D01*
X43568Y-25128D02*
X43567Y-25135D01*
X43564Y-25143D01*
X43561Y-25150D01*
X43556Y-25156D01*
X43550Y-25161D01*
X43543Y-25164D01*
X43536Y-25167D01*
X43528Y-25167D01*
X43521Y-25167D01*
X43514Y-25165D01*
X43507Y-25161D01*
X43501Y-25156D01*
X43495Y-25150D01*
X43492Y-25143D01*
X43489Y-25136D01*
X43489Y-25128D01*
X43489Y-25121D01*
X43491Y-25114D01*
X43495Y-25107D01*
X43500Y-25101D01*
X43506Y-25096D01*
X43512Y-25092D01*
X43520Y-25089D01*
X43528Y-25089D01*
X43534Y-25089D01*
X43542Y-25091D01*
X43549Y-25095D01*
X43555Y-25100D01*
X43560Y-25105D01*
X43564Y-25112D01*
X43567Y-25120D01*
X43567Y-25127D01*
X43568Y-25128D01*
X43583Y-25128D02*
X43581Y-25138D01*
X43578Y-25148D01*
X43573Y-25158D01*
X43567Y-25166D01*
X43558Y-25173D01*
X43549Y-25178D01*
X43539Y-25181D01*
X43528Y-25182D01*
X43518Y-25182D01*
X43508Y-25178D01*
X43498Y-25174D01*
X43490Y-25167D01*
X43483Y-25159D01*
X43478Y-25149D01*
X43475Y-25139D01*
X43474Y-25128D01*
X43474Y-25119D01*
X43477Y-25108D01*
X43482Y-25099D01*
X43489Y-25090D01*
X43497Y-25083D01*
X43506Y-25078D01*
X43517Y-25075D01*
X43527Y-25074D01*
X43537Y-25074D01*
X43547Y-25077D01*
X43557Y-25082D01*
X43565Y-25089D01*
X43572Y-25097D01*
X43578Y-25106D01*
X43581Y-25116D01*
X43582Y-25127D01*
X43583Y-25128D01*
X43639Y-25128D02*
X43636Y-25149D01*
X43630Y-25170D01*
X43620Y-25189D01*
X43606Y-25206D01*
X43590Y-25220D01*
X43571Y-25230D01*
X43550Y-25236D01*
X43528Y-25238D01*
X43508Y-25237D01*
X43487Y-25230D01*
X43468Y-25220D01*
X43451Y-25207D01*
X43437Y-25190D01*
X43426Y-25171D01*
X43420Y-25151D01*
X43418Y-25129D01*
X43419Y-25108D01*
X43425Y-25088D01*
X43435Y-25068D01*
X43449Y-25051D01*
X43465Y-25037D01*
X43484Y-25027D01*
X43505Y-25020D01*
X43526Y-25018D01*
X43547Y-25019D01*
X43568Y-25025D01*
X43587Y-25035D01*
X43604Y-25048D01*
X43618Y-25065D01*
X43629Y-25083D01*
X43636Y-25104D01*
X43638Y-25125D01*
X43639Y-25128D01*
X43704Y-25128D02*
X43700Y-25161D01*
X43690Y-25194D01*
X43674Y-25224D01*
X43653Y-25251D01*
X43626Y-25273D01*
X43596Y-25289D01*
X43564Y-25299D01*
X43530Y-25302D01*
X43497Y-25299D01*
X43464Y-25290D01*
X43434Y-25274D01*
X43407Y-25253D01*
X43385Y-25226D01*
X43369Y-25196D01*
X43358Y-25164D01*
X43355Y-25130D01*
X43357Y-25097D01*
X43367Y-25064D01*
X43382Y-25034D01*
X43404Y-25007D01*
X43430Y-24985D01*
X43459Y-24968D01*
X43492Y-24958D01*
X43526Y-24954D01*
X43559Y-24956D01*
X43592Y-24965D01*
X43622Y-24981D01*
X43649Y-25002D01*
X43672Y-25028D01*
X43688Y-25057D01*
X43699Y-25090D01*
X43703Y-25124D01*
X43704Y-25128D01*
X43331Y-24577D02*
X43331Y-19419D01*
X37819Y-24931D02*
X42977Y-24931D01*
X43331Y-24577D02*
X42977Y-24931D01*
X37819Y-24931D02*
X37819Y-19419D01*
X37819Y-19419D02*
X43331Y-19419D01*
G54D16*
X32275Y-30475D02*
X52275Y-30475D01*
X32275Y-32475D02*
X52275Y-32475D01*
X32275Y-32475D02*
X32275Y-30475D01*
X52275Y-32475D02*
X52275Y-30475D01*
X40325Y-29625D02*
X36325Y-29625D01*
X36325Y-29625D02*
X36325Y-27625D01*
X36325Y-27625D02*
X40325Y-27625D01*
X40325Y-27625D02*
X40325Y-29625D01*
G54D11*
X32675Y-16925D02*
X32675Y-10525D01*
X40175Y-10525D02*
X31525Y-10525D01*
X40175Y-16925D02*
X31525Y-16925D01*
X40175Y-16925D02*
X40175Y-10525D01*
X31525Y-10525D02*
X31525Y-16925D01*
G54D12*
X40375Y-12825D02*
X40374Y-12834D01*
X40371Y-12844D01*
X40366Y-12852D01*
X40360Y-12860D01*
X40352Y-12866D01*
X40344Y-12871D01*
X40335Y-12873D01*
X40325Y-12874D01*
X40316Y-12874D01*
X40307Y-12871D01*
X40298Y-12866D01*
X40291Y-12860D01*
X40284Y-12853D01*
X40280Y-12844D01*
X40277Y-12835D01*
X40276Y-12825D01*
X40276Y-12816D01*
X40279Y-12807D01*
X40283Y-12798D01*
X40290Y-12791D01*
X40297Y-12784D01*
X40305Y-12780D01*
X40315Y-12777D01*
X40324Y-12776D01*
X40333Y-12776D01*
X40343Y-12779D01*
X40351Y-12783D01*
X40359Y-12789D01*
X40365Y-12797D01*
X40370Y-12805D01*
X40373Y-12814D01*
X40374Y-12824D01*
X40375Y-12825D01*
X40775Y-12825D02*
X40375Y-12825D01*
X40375Y-12825D02*
X40375Y-12225D01*
X40375Y-12225D02*
X40775Y-12225D01*
X41175Y-12225D02*
X41575Y-12225D01*
X41575Y-12225D02*
X41575Y-12825D01*
X41575Y-12825D02*
X41175Y-12825D01*
X40375Y-11225D02*
X40374Y-11234D01*
X40371Y-11244D01*
X40366Y-11252D01*
X40360Y-11260D01*
X40352Y-11266D01*
X40344Y-11271D01*
X40335Y-11273D01*
X40325Y-11274D01*
X40316Y-11274D01*
X40307Y-11271D01*
X40298Y-11266D01*
X40291Y-11260D01*
X40284Y-11253D01*
X40280Y-11244D01*
X40277Y-11235D01*
X40276Y-11225D01*
X40276Y-11216D01*
X40279Y-11207D01*
X40283Y-11198D01*
X40290Y-11191D01*
X40297Y-11184D01*
X40305Y-11180D01*
X40315Y-11177D01*
X40324Y-11176D01*
X40333Y-11176D01*
X40343Y-11179D01*
X40351Y-11183D01*
X40359Y-11189D01*
X40365Y-11197D01*
X40370Y-11205D01*
X40373Y-11214D01*
X40374Y-11224D01*
X40375Y-11225D01*
X40775Y-11225D02*
X40375Y-11225D01*
X40375Y-11225D02*
X40375Y-10625D01*
X40375Y-10625D02*
X40775Y-10625D01*
X41175Y-10625D02*
X41575Y-10625D01*
X41575Y-10625D02*
X41575Y-11225D01*
X41575Y-11225D02*
X41175Y-11225D01*
X45375Y-21325D02*
X45374Y-21334D01*
X45371Y-21344D01*
X45366Y-21352D01*
X45360Y-21360D01*
X45352Y-21366D01*
X45344Y-21371D01*
X45335Y-21373D01*
X45325Y-21374D01*
X45316Y-21374D01*
X45307Y-21371D01*
X45298Y-21366D01*
X45291Y-21360D01*
X45284Y-21353D01*
X45280Y-21344D01*
X45277Y-21335D01*
X45276Y-21325D01*
X45276Y-21316D01*
X45279Y-21307D01*
X45283Y-21298D01*
X45290Y-21291D01*
X45297Y-21284D01*
X45305Y-21280D01*
X45315Y-21277D01*
X45324Y-21276D01*
X45333Y-21276D01*
X45343Y-21279D01*
X45351Y-21283D01*
X45359Y-21289D01*
X45365Y-21297D01*
X45370Y-21305D01*
X45373Y-21314D01*
X45374Y-21324D01*
X45375Y-21325D01*
X45325Y-20875D02*
X45325Y-21275D01*
X45325Y-21275D02*
X44725Y-21275D01*
X44725Y-21275D02*
X44725Y-20875D01*
X44725Y-20475D02*
X44725Y-20075D01*
X44725Y-20075D02*
X45325Y-20075D01*
X45325Y-20075D02*
X45325Y-20475D01*
X36225Y-22375D02*
X36224Y-22384D01*
X36221Y-22394D01*
X36216Y-22402D01*
X36210Y-22410D01*
X36202Y-22416D01*
X36194Y-22421D01*
X36185Y-22423D01*
X36175Y-22424D01*
X36166Y-22424D01*
X36157Y-22421D01*
X36148Y-22416D01*
X36141Y-22410D01*
X36134Y-22403D01*
X36130Y-22394D01*
X36127Y-22385D01*
X36126Y-22375D01*
X36126Y-22366D01*
X36129Y-22357D01*
X36133Y-22348D01*
X36140Y-22341D01*
X36147Y-22334D01*
X36155Y-22330D01*
X36165Y-22327D01*
X36174Y-22326D01*
X36183Y-22326D01*
X36193Y-22329D01*
X36201Y-22333D01*
X36209Y-22339D01*
X36215Y-22347D01*
X36220Y-22355D01*
X36223Y-22364D01*
X36224Y-22374D01*
X36225Y-22375D01*
X36175Y-22825D02*
X36175Y-22425D01*
X36175Y-22425D02*
X36775Y-22425D01*
X36775Y-22425D02*
X36775Y-22825D01*
X36775Y-23225D02*
X36775Y-23625D01*
X36775Y-23625D02*
X36175Y-23625D01*
X36175Y-23625D02*
X36175Y-23225D01*
X36225Y-20275D02*
X36224Y-20284D01*
X36221Y-20294D01*
X36216Y-20302D01*
X36210Y-20310D01*
X36202Y-20316D01*
X36194Y-20321D01*
X36185Y-20323D01*
X36175Y-20324D01*
X36166Y-20324D01*
X36157Y-20321D01*
X36148Y-20316D01*
X36141Y-20310D01*
X36134Y-20303D01*
X36130Y-20294D01*
X36127Y-20285D01*
X36126Y-20275D01*
X36126Y-20266D01*
X36129Y-20257D01*
X36133Y-20248D01*
X36140Y-20241D01*
X36147Y-20234D01*
X36155Y-20230D01*
X36165Y-20227D01*
X36174Y-20226D01*
X36183Y-20226D01*
X36193Y-20229D01*
X36201Y-20233D01*
X36209Y-20239D01*
X36215Y-20247D01*
X36220Y-20255D01*
X36223Y-20264D01*
X36224Y-20274D01*
X36225Y-20275D01*
X36175Y-20725D02*
X36175Y-20325D01*
X36175Y-20325D02*
X36775Y-20325D01*
X36775Y-20325D02*
X36775Y-20725D01*
X36775Y-21125D02*
X36775Y-21525D01*
X36775Y-21525D02*
X36175Y-21525D01*
X36175Y-21525D02*
X36175Y-21125D01*
X41775Y-25975D02*
X41774Y-25984D01*
X41771Y-25994D01*
X41766Y-26002D01*
X41760Y-26010D01*
X41752Y-26016D01*
X41744Y-26021D01*
X41735Y-26023D01*
X41725Y-26024D01*
X41716Y-26024D01*
X41707Y-26021D01*
X41698Y-26016D01*
X41691Y-26010D01*
X41684Y-26003D01*
X41680Y-25994D01*
X41677Y-25985D01*
X41676Y-25975D01*
X41676Y-25966D01*
X41679Y-25957D01*
X41683Y-25948D01*
X41690Y-25941D01*
X41697Y-25934D01*
X41705Y-25930D01*
X41715Y-25927D01*
X41724Y-25926D01*
X41733Y-25926D01*
X41743Y-25929D01*
X41751Y-25933D01*
X41759Y-25939D01*
X41765Y-25947D01*
X41770Y-25955D01*
X41773Y-25964D01*
X41774Y-25974D01*
X41775Y-25975D01*
X41275Y-25975D02*
X41675Y-25975D01*
X41675Y-25975D02*
X41675Y-26575D01*
X41675Y-26575D02*
X41275Y-26575D01*
X40875Y-26575D02*
X40475Y-26575D01*
X40475Y-26575D02*
X40475Y-25975D01*
X40475Y-25975D02*
X40875Y-25975D01*
X43175Y-25975D02*
X43174Y-25984D01*
X43171Y-25994D01*
X43166Y-26002D01*
X43160Y-26010D01*
X43152Y-26016D01*
X43144Y-26021D01*
X43135Y-26023D01*
X43125Y-26024D01*
X43116Y-26024D01*
X43107Y-26021D01*
X43098Y-26016D01*
X43091Y-26010D01*
X43084Y-26003D01*
X43080Y-25994D01*
X43077Y-25985D01*
X43076Y-25975D01*
X43076Y-25966D01*
X43079Y-25957D01*
X43083Y-25948D01*
X43090Y-25941D01*
X43097Y-25934D01*
X43105Y-25930D01*
X43115Y-25927D01*
X43124Y-25926D01*
X43133Y-25926D01*
X43143Y-25929D01*
X43151Y-25933D01*
X43159Y-25939D01*
X43165Y-25947D01*
X43170Y-25955D01*
X43173Y-25964D01*
X43174Y-25974D01*
X43175Y-25975D01*
X42675Y-25975D02*
X43075Y-25975D01*
X43075Y-25975D02*
X43075Y-26575D01*
X43075Y-26575D02*
X42675Y-26575D01*
X42275Y-26575D02*
X41875Y-26575D01*
X41875Y-26575D02*
X41875Y-25975D01*
X41875Y-25975D02*
X42275Y-25975D01*
X35425Y-21625D02*
X35424Y-21634D01*
X35421Y-21644D01*
X35416Y-21652D01*
X35410Y-21660D01*
X35402Y-21666D01*
X35394Y-21671D01*
X35385Y-21673D01*
X35375Y-21674D01*
X35366Y-21674D01*
X35357Y-21671D01*
X35348Y-21666D01*
X35341Y-21660D01*
X35334Y-21653D01*
X35330Y-21644D01*
X35327Y-21635D01*
X35326Y-21625D01*
X35326Y-21616D01*
X35329Y-21607D01*
X35333Y-21598D01*
X35340Y-21591D01*
X35347Y-21584D01*
X35355Y-21580D01*
X35365Y-21577D01*
X35374Y-21576D01*
X35383Y-21576D01*
X35393Y-21579D01*
X35401Y-21583D01*
X35409Y-21589D01*
X35415Y-21597D01*
X35420Y-21605D01*
X35423Y-21614D01*
X35424Y-21624D01*
X35425Y-21625D01*
X35375Y-22075D02*
X35375Y-21675D01*
X35375Y-21675D02*
X35975Y-21675D01*
X35975Y-21675D02*
X35975Y-22075D01*
X35975Y-22475D02*
X35975Y-22875D01*
X35975Y-22875D02*
X35375Y-22875D01*
X35375Y-22875D02*
X35375Y-22475D01*
X40675Y-17875D02*
X40674Y-17884D01*
X40671Y-17894D01*
X40666Y-17902D01*
X40660Y-17910D01*
X40652Y-17916D01*
X40644Y-17921D01*
X40635Y-17923D01*
X40625Y-17924D01*
X40616Y-17924D01*
X40607Y-17921D01*
X40598Y-17916D01*
X40591Y-17910D01*
X40584Y-17903D01*
X40580Y-17894D01*
X40577Y-17885D01*
X40576Y-17875D01*
X40576Y-17866D01*
X40579Y-17857D01*
X40583Y-17848D01*
X40590Y-17841D01*
X40597Y-17834D01*
X40605Y-17830D01*
X40615Y-17827D01*
X40624Y-17826D01*
X40633Y-17826D01*
X40643Y-17829D01*
X40651Y-17833D01*
X40659Y-17839D01*
X40665Y-17847D01*
X40670Y-17855D01*
X40673Y-17864D01*
X40674Y-17874D01*
X40675Y-17875D01*
X40175Y-17875D02*
X40575Y-17875D01*
X40575Y-17875D02*
X40575Y-18475D01*
X40575Y-18475D02*
X40175Y-18475D01*
X39775Y-18475D02*
X39375Y-18475D01*
X39375Y-18475D02*
X39375Y-17875D01*
X39375Y-17875D02*
X39775Y-17875D01*
X33625Y-10325D02*
X33624Y-10334D01*
X33621Y-10344D01*
X33616Y-10352D01*
X33610Y-10360D01*
X33602Y-10366D01*
X33594Y-10371D01*
X33585Y-10373D01*
X33575Y-10374D01*
X33566Y-10374D01*
X33557Y-10371D01*
X33548Y-10366D01*
X33541Y-10360D01*
X33534Y-10353D01*
X33530Y-10344D01*
X33527Y-10335D01*
X33526Y-10325D01*
X33526Y-10316D01*
X33529Y-10307D01*
X33533Y-10298D01*
X33540Y-10291D01*
X33547Y-10284D01*
X33555Y-10280D01*
X33565Y-10277D01*
X33574Y-10276D01*
X33583Y-10276D01*
X33593Y-10279D01*
X33601Y-10283D01*
X33609Y-10289D01*
X33615Y-10297D01*
X33620Y-10305D01*
X33623Y-10314D01*
X33624Y-10324D01*
X33625Y-10325D01*
X34025Y-10325D02*
X33625Y-10325D01*
X33625Y-10325D02*
X33625Y-09725D01*
X33625Y-09725D02*
X34025Y-09725D01*
X34425Y-09725D02*
X34825Y-09725D01*
X34825Y-09725D02*
X34825Y-10325D01*
X34825Y-10325D02*
X34425Y-10325D01*
X39375Y-17675D02*
X39374Y-17684D01*
X39371Y-17694D01*
X39366Y-17702D01*
X39360Y-17710D01*
X39352Y-17716D01*
X39344Y-17721D01*
X39335Y-17723D01*
X39325Y-17724D01*
X39316Y-17724D01*
X39307Y-17721D01*
X39298Y-17716D01*
X39291Y-17710D01*
X39284Y-17703D01*
X39280Y-17694D01*
X39277Y-17685D01*
X39276Y-17675D01*
X39276Y-17666D01*
X39279Y-17657D01*
X39283Y-17648D01*
X39290Y-17641D01*
X39297Y-17634D01*
X39305Y-17630D01*
X39315Y-17627D01*
X39324Y-17626D01*
X39333Y-17626D01*
X39343Y-17629D01*
X39351Y-17633D01*
X39359Y-17639D01*
X39365Y-17647D01*
X39370Y-17655D01*
X39373Y-17664D01*
X39374Y-17674D01*
X39375Y-17675D01*
X39775Y-17675D02*
X39375Y-17675D01*
X39375Y-17675D02*
X39375Y-17075D01*
X39375Y-17075D02*
X39775Y-17075D01*
X40175Y-17075D02*
X40575Y-17075D01*
X40575Y-17075D02*
X40575Y-17675D01*
X40575Y-17675D02*
X40175Y-17675D01*
X34775Y-17075D02*
X34774Y-17084D01*
X34771Y-17094D01*
X34766Y-17102D01*
X34760Y-17110D01*
X34752Y-17116D01*
X34744Y-17121D01*
X34735Y-17123D01*
X34725Y-17124D01*
X34716Y-17124D01*
X34707Y-17121D01*
X34698Y-17116D01*
X34691Y-17110D01*
X34684Y-17103D01*
X34680Y-17094D01*
X34677Y-17085D01*
X34676Y-17075D01*
X34676Y-17066D01*
X34679Y-17057D01*
X34683Y-17048D01*
X34690Y-17041D01*
X34697Y-17034D01*
X34705Y-17030D01*
X34715Y-17027D01*
X34724Y-17026D01*
X34733Y-17026D01*
X34743Y-17029D01*
X34751Y-17033D01*
X34759Y-17039D01*
X34765Y-17047D01*
X34770Y-17055D01*
X34773Y-17064D01*
X34774Y-17074D01*
X34775Y-17075D01*
X34275Y-17075D02*
X34675Y-17075D01*
X34675Y-17075D02*
X34675Y-17675D01*
X34675Y-17675D02*
X34275Y-17675D01*
X33875Y-17675D02*
X33475Y-17675D01*
X33475Y-17675D02*
X33475Y-17075D01*
X33475Y-17075D02*
X33875Y-17075D01*
X40375Y-15225D02*
X40374Y-15234D01*
X40371Y-15244D01*
X40366Y-15252D01*
X40360Y-15260D01*
X40352Y-15266D01*
X40344Y-15271D01*
X40335Y-15273D01*
X40325Y-15274D01*
X40316Y-15274D01*
X40307Y-15271D01*
X40298Y-15266D01*
X40291Y-15260D01*
X40284Y-15253D01*
X40280Y-15244D01*
X40277Y-15235D01*
X40276Y-15225D01*
X40276Y-15216D01*
X40279Y-15207D01*
X40283Y-15198D01*
X40290Y-15191D01*
X40297Y-15184D01*
X40305Y-15180D01*
X40315Y-15177D01*
X40324Y-15176D01*
X40333Y-15176D01*
X40343Y-15179D01*
X40351Y-15183D01*
X40359Y-15189D01*
X40365Y-15197D01*
X40370Y-15205D01*
X40373Y-15214D01*
X40374Y-15224D01*
X40375Y-15225D01*
X40775Y-15225D02*
X40375Y-15225D01*
X40375Y-15225D02*
X40375Y-14625D01*
X40375Y-14625D02*
X40775Y-14625D01*
X41175Y-14625D02*
X41575Y-14625D01*
X41575Y-14625D02*
X41575Y-15225D01*
X41575Y-15225D02*
X41175Y-15225D01*
X39575Y-26075D02*
X39574Y-26084D01*
X39571Y-26094D01*
X39566Y-26102D01*
X39560Y-26110D01*
X39552Y-26116D01*
X39544Y-26121D01*
X39535Y-26123D01*
X39525Y-26124D01*
X39516Y-26124D01*
X39507Y-26121D01*
X39498Y-26116D01*
X39491Y-26110D01*
X39484Y-26103D01*
X39480Y-26094D01*
X39477Y-26085D01*
X39476Y-26075D01*
X39476Y-26066D01*
X39479Y-26057D01*
X39483Y-26048D01*
X39490Y-26041D01*
X39497Y-26034D01*
X39505Y-26030D01*
X39515Y-26027D01*
X39524Y-26026D01*
X39533Y-26026D01*
X39543Y-26029D01*
X39551Y-26033D01*
X39559Y-26039D01*
X39565Y-26047D01*
X39570Y-26055D01*
X39573Y-26064D01*
X39574Y-26074D01*
X39575Y-26075D01*
X39525Y-26525D02*
X39525Y-26125D01*
X39525Y-26125D02*
X40125Y-26125D01*
X40125Y-26125D02*
X40125Y-26525D01*
X40125Y-26925D02*
X40125Y-27325D01*
X40125Y-27325D02*
X39525Y-27325D01*
X39525Y-27325D02*
X39525Y-26925D01*
X37175Y-26075D02*
X37174Y-26084D01*
X37171Y-26094D01*
X37166Y-26102D01*
X37160Y-26110D01*
X37152Y-26116D01*
X37144Y-26121D01*
X37135Y-26123D01*
X37125Y-26124D01*
X37116Y-26124D01*
X37107Y-26121D01*
X37098Y-26116D01*
X37091Y-26110D01*
X37084Y-26103D01*
X37080Y-26094D01*
X37077Y-26085D01*
X37076Y-26075D01*
X37076Y-26066D01*
X37079Y-26057D01*
X37083Y-26048D01*
X37090Y-26041D01*
X37097Y-26034D01*
X37105Y-26030D01*
X37115Y-26027D01*
X37124Y-26026D01*
X37133Y-26026D01*
X37143Y-26029D01*
X37151Y-26033D01*
X37159Y-26039D01*
X37165Y-26047D01*
X37170Y-26055D01*
X37173Y-26064D01*
X37174Y-26074D01*
X37175Y-26075D01*
X37125Y-26525D02*
X37125Y-26125D01*
X37125Y-26125D02*
X37725Y-26125D01*
X37725Y-26125D02*
X37725Y-26525D01*
X37725Y-26925D02*
X37725Y-27325D01*
X37725Y-27325D02*
X37125Y-27325D01*
X37125Y-27325D02*
X37125Y-26925D01*
X36375Y-26075D02*
X36374Y-26084D01*
X36371Y-26094D01*
X36366Y-26102D01*
X36360Y-26110D01*
X36352Y-26116D01*
X36344Y-26121D01*
X36335Y-26123D01*
X36325Y-26124D01*
X36316Y-26124D01*
X36307Y-26121D01*
X36298Y-26116D01*
X36291Y-26110D01*
X36284Y-26103D01*
X36280Y-26094D01*
X36277Y-26085D01*
X36276Y-26075D01*
X36276Y-26066D01*
X36279Y-26057D01*
X36283Y-26048D01*
X36290Y-26041D01*
X36297Y-26034D01*
X36305Y-26030D01*
X36315Y-26027D01*
X36324Y-26026D01*
X36333Y-26026D01*
X36343Y-26029D01*
X36351Y-26033D01*
X36359Y-26039D01*
X36365Y-26047D01*
X36370Y-26055D01*
X36373Y-26064D01*
X36374Y-26074D01*
X36375Y-26075D01*
X36325Y-26525D02*
X36325Y-26125D01*
X36325Y-26125D02*
X36925Y-26125D01*
X36925Y-26125D02*
X36925Y-26525D01*
X36925Y-26925D02*
X36925Y-27325D01*
X36925Y-27325D02*
X36325Y-27325D01*
X36325Y-27325D02*
X36325Y-26925D01*
X40375Y-16025D02*
X40374Y-16034D01*
X40371Y-16044D01*
X40366Y-16052D01*
X40360Y-16060D01*
X40352Y-16066D01*
X40344Y-16071D01*
X40335Y-16073D01*
X40325Y-16074D01*
X40316Y-16074D01*
X40307Y-16071D01*
X40298Y-16066D01*
X40291Y-16060D01*
X40284Y-16053D01*
X40280Y-16044D01*
X40277Y-16035D01*
X40276Y-16025D01*
X40276Y-16016D01*
X40279Y-16007D01*
X40283Y-15998D01*
X40290Y-15991D01*
X40297Y-15984D01*
X40305Y-15980D01*
X40315Y-15977D01*
X40324Y-15976D01*
X40333Y-15976D01*
X40343Y-15979D01*
X40351Y-15983D01*
X40359Y-15989D01*
X40365Y-15997D01*
X40370Y-16005D01*
X40373Y-16014D01*
X40374Y-16024D01*
X40375Y-16025D01*
X40775Y-16025D02*
X40375Y-16025D01*
X40375Y-16025D02*
X40375Y-15425D01*
X40375Y-15425D02*
X40775Y-15425D01*
X41175Y-15425D02*
X41575Y-15425D01*
X41575Y-15425D02*
X41575Y-16025D01*
X41575Y-16025D02*
X41175Y-16025D01*
X41675Y-11425D02*
X41674Y-11434D01*
X41671Y-11444D01*
X41666Y-11452D01*
X41660Y-11460D01*
X41652Y-11466D01*
X41644Y-11471D01*
X41635Y-11473D01*
X41625Y-11474D01*
X41616Y-11474D01*
X41607Y-11471D01*
X41598Y-11466D01*
X41591Y-11460D01*
X41584Y-11453D01*
X41580Y-11444D01*
X41577Y-11435D01*
X41576Y-11425D01*
X41576Y-11416D01*
X41579Y-11407D01*
X41583Y-11398D01*
X41590Y-11391D01*
X41597Y-11384D01*
X41605Y-11380D01*
X41615Y-11377D01*
X41624Y-11376D01*
X41633Y-11376D01*
X41643Y-11379D01*
X41651Y-11383D01*
X41659Y-11389D01*
X41665Y-11397D01*
X41670Y-11405D01*
X41673Y-11414D01*
X41674Y-11424D01*
X41675Y-11425D01*
X41175Y-11425D02*
X41575Y-11425D01*
X41575Y-11425D02*
X41575Y-12025D01*
X41575Y-12025D02*
X41175Y-12025D01*
X40775Y-12025D02*
X40375Y-12025D01*
X40375Y-12025D02*
X40375Y-11425D01*
X40375Y-11425D02*
X40775Y-11425D01*
X41675Y-13025D02*
X41674Y-13034D01*
X41671Y-13044D01*
X41666Y-13052D01*
X41660Y-13060D01*
X41652Y-13066D01*
X41644Y-13071D01*
X41635Y-13073D01*
X41625Y-13074D01*
X41616Y-13074D01*
X41607Y-13071D01*
X41598Y-13066D01*
X41591Y-13060D01*
X41584Y-13053D01*
X41580Y-13044D01*
X41577Y-13035D01*
X41576Y-13025D01*
X41576Y-13016D01*
X41579Y-13007D01*
X41583Y-12998D01*
X41590Y-12991D01*
X41597Y-12984D01*
X41605Y-12980D01*
X41615Y-12977D01*
X41624Y-12976D01*
X41633Y-12976D01*
X41643Y-12979D01*
X41651Y-12983D01*
X41659Y-12989D01*
X41665Y-12997D01*
X41670Y-13005D01*
X41673Y-13014D01*
X41674Y-13024D01*
X41675Y-13025D01*
X41175Y-13025D02*
X41575Y-13025D01*
X41575Y-13025D02*
X41575Y-13625D01*
X41575Y-13625D02*
X41175Y-13625D01*
X40775Y-13625D02*
X40375Y-13625D01*
X40375Y-13625D02*
X40375Y-13025D01*
X40375Y-13025D02*
X40775Y-13025D01*
X32425Y-20175D02*
X32424Y-20184D01*
X32421Y-20194D01*
X32416Y-20202D01*
X32410Y-20210D01*
X32402Y-20216D01*
X32394Y-20221D01*
X32385Y-20223D01*
X32375Y-20224D01*
X32366Y-20224D01*
X32357Y-20221D01*
X32348Y-20216D01*
X32341Y-20210D01*
X32334Y-20203D01*
X32330Y-20194D01*
X32327Y-20185D01*
X32326Y-20175D01*
X32326Y-20166D01*
X32329Y-20157D01*
X32333Y-20148D01*
X32340Y-20141D01*
X32347Y-20134D01*
X32355Y-20130D01*
X32365Y-20127D01*
X32374Y-20126D01*
X32383Y-20126D01*
X32393Y-20129D01*
X32401Y-20133D01*
X32409Y-20139D01*
X32415Y-20147D01*
X32420Y-20155D01*
X32423Y-20164D01*
X32424Y-20174D01*
X32425Y-20175D01*
X32375Y-20625D02*
X32375Y-20225D01*
X32375Y-20225D02*
X32975Y-20225D01*
X32975Y-20225D02*
X32975Y-20625D01*
X32975Y-21025D02*
X32975Y-21425D01*
X32975Y-21425D02*
X32375Y-21425D01*
X32375Y-21425D02*
X32375Y-21025D01*
X33025Y-20075D02*
X33024Y-20084D01*
X33021Y-20094D01*
X33016Y-20102D01*
X33010Y-20110D01*
X33002Y-20116D01*
X32994Y-20121D01*
X32985Y-20123D01*
X32975Y-20124D01*
X32966Y-20124D01*
X32957Y-20121D01*
X32948Y-20116D01*
X32941Y-20110D01*
X32934Y-20103D01*
X32930Y-20094D01*
X32927Y-20085D01*
X32926Y-20075D01*
X32926Y-20066D01*
X32929Y-20057D01*
X32933Y-20048D01*
X32940Y-20041D01*
X32947Y-20034D01*
X32955Y-20030D01*
X32965Y-20027D01*
X32974Y-20026D01*
X32983Y-20026D01*
X32993Y-20029D01*
X33001Y-20033D01*
X33009Y-20039D01*
X33015Y-20047D01*
X33020Y-20055D01*
X33023Y-20064D01*
X33024Y-20074D01*
X33025Y-20075D01*
X32975Y-19625D02*
X32975Y-20025D01*
X32975Y-20025D02*
X32375Y-20025D01*
X32375Y-20025D02*
X32375Y-19625D01*
X32375Y-19225D02*
X32375Y-18825D01*
X32375Y-18825D02*
X32975Y-18825D01*
X32975Y-18825D02*
X32975Y-19225D01*
X48275Y-21425D02*
X48274Y-21434D01*
X48271Y-21444D01*
X48266Y-21452D01*
X48260Y-21460D01*
X48252Y-21466D01*
X48244Y-21471D01*
X48235Y-21473D01*
X48225Y-21474D01*
X48216Y-21474D01*
X48207Y-21471D01*
X48198Y-21466D01*
X48191Y-21460D01*
X48184Y-21453D01*
X48180Y-21444D01*
X48177Y-21435D01*
X48176Y-21425D01*
X48176Y-21416D01*
X48179Y-21407D01*
X48183Y-21398D01*
X48190Y-21391D01*
X48197Y-21384D01*
X48205Y-21380D01*
X48215Y-21377D01*
X48224Y-21376D01*
X48233Y-21376D01*
X48243Y-21379D01*
X48251Y-21383D01*
X48259Y-21389D01*
X48265Y-21397D01*
X48270Y-21405D01*
X48273Y-21414D01*
X48274Y-21424D01*
X48275Y-21425D01*
X48225Y-20975D02*
X48225Y-21375D01*
X48225Y-21375D02*
X47625Y-21375D01*
X47625Y-21375D02*
X47625Y-20975D01*
X47625Y-20575D02*
X47625Y-20175D01*
X47625Y-20175D02*
X48225Y-20175D01*
X48225Y-20175D02*
X48225Y-20575D01*
X47675Y-21525D02*
X47674Y-21534D01*
X47671Y-21544D01*
X47666Y-21552D01*
X47660Y-21560D01*
X47652Y-21566D01*
X47644Y-21571D01*
X47635Y-21573D01*
X47625Y-21574D01*
X47616Y-21574D01*
X47607Y-21571D01*
X47598Y-21566D01*
X47591Y-21560D01*
X47584Y-21553D01*
X47580Y-21544D01*
X47577Y-21535D01*
X47576Y-21525D01*
X47576Y-21516D01*
X47579Y-21507D01*
X47583Y-21498D01*
X47590Y-21491D01*
X47597Y-21484D01*
X47605Y-21480D01*
X47615Y-21477D01*
X47624Y-21476D01*
X47633Y-21476D01*
X47643Y-21479D01*
X47651Y-21483D01*
X47659Y-21489D01*
X47665Y-21497D01*
X47670Y-21505D01*
X47673Y-21514D01*
X47674Y-21524D01*
X47675Y-21525D01*
X47625Y-21975D02*
X47625Y-21575D01*
X47625Y-21575D02*
X48225Y-21575D01*
X48225Y-21575D02*
X48225Y-21975D01*
X48225Y-22375D02*
X48225Y-22775D01*
X48225Y-22775D02*
X47625Y-22775D01*
X47625Y-22775D02*
X47625Y-22375D01*
X35625Y-19325D02*
X35624Y-19334D01*
X35621Y-19344D01*
X35616Y-19352D01*
X35610Y-19360D01*
X35602Y-19366D01*
X35594Y-19371D01*
X35585Y-19373D01*
X35575Y-19374D01*
X35566Y-19374D01*
X35557Y-19371D01*
X35548Y-19366D01*
X35541Y-19360D01*
X35534Y-19353D01*
X35530Y-19344D01*
X35527Y-19335D01*
X35526Y-19325D01*
X35526Y-19316D01*
X35529Y-19307D01*
X35533Y-19298D01*
X35540Y-19291D01*
X35547Y-19284D01*
X35555Y-19280D01*
X35565Y-19277D01*
X35574Y-19276D01*
X35583Y-19276D01*
X35593Y-19279D01*
X35601Y-19283D01*
X35609Y-19289D01*
X35615Y-19297D01*
X35620Y-19305D01*
X35623Y-19314D01*
X35624Y-19324D01*
X35625Y-19325D01*
X36025Y-19325D02*
X35625Y-19325D01*
X35625Y-19325D02*
X35625Y-18725D01*
X35625Y-18725D02*
X36025Y-18725D01*
X36425Y-18725D02*
X36825Y-18725D01*
X36825Y-18725D02*
X36825Y-19325D01*
X36825Y-19325D02*
X36425Y-19325D01*
X35625Y-18325D02*
X35624Y-18334D01*
X35621Y-18344D01*
X35616Y-18352D01*
X35610Y-18360D01*
X35602Y-18366D01*
X35594Y-18371D01*
X35585Y-18373D01*
X35575Y-18374D01*
X35566Y-18374D01*
X35557Y-18371D01*
X35548Y-18366D01*
X35541Y-18360D01*
X35534Y-18353D01*
X35530Y-18344D01*
X35527Y-18335D01*
X35526Y-18325D01*
X35526Y-18316D01*
X35529Y-18307D01*
X35533Y-18298D01*
X35540Y-18291D01*
X35547Y-18284D01*
X35555Y-18280D01*
X35565Y-18277D01*
X35574Y-18276D01*
X35583Y-18276D01*
X35593Y-18279D01*
X35601Y-18283D01*
X35609Y-18289D01*
X35615Y-18297D01*
X35620Y-18305D01*
X35623Y-18314D01*
X35624Y-18324D01*
X35625Y-18325D01*
X36025Y-18325D02*
X35625Y-18325D01*
X35625Y-18325D02*
X35625Y-17725D01*
X35625Y-17725D02*
X36025Y-17725D01*
X36425Y-17725D02*
X36825Y-17725D01*
X36825Y-17725D02*
X36825Y-18325D01*
X36825Y-18325D02*
X36425Y-18325D01*
X34675Y-25475D02*
X34674Y-25484D01*
X34671Y-25494D01*
X34666Y-25502D01*
X34660Y-25510D01*
X34652Y-25516D01*
X34644Y-25521D01*
X34635Y-25523D01*
X34625Y-25524D01*
X34616Y-25524D01*
X34607Y-25521D01*
X34598Y-25516D01*
X34591Y-25510D01*
X34584Y-25503D01*
X34580Y-25494D01*
X34577Y-25485D01*
X34576Y-25475D01*
X34576Y-25466D01*
X34579Y-25457D01*
X34583Y-25448D01*
X34590Y-25441D01*
X34597Y-25434D01*
X34605Y-25430D01*
X34615Y-25427D01*
X34624Y-25426D01*
X34633Y-25426D01*
X34643Y-25429D01*
X34651Y-25433D01*
X34659Y-25439D01*
X34665Y-25447D01*
X34670Y-25455D01*
X34673Y-25464D01*
X34674Y-25474D01*
X34675Y-25475D01*
X34175Y-25475D02*
X34575Y-25475D01*
X34575Y-25475D02*
X34575Y-26075D01*
X34575Y-26075D02*
X34175Y-26075D01*
X33775Y-26075D02*
X33375Y-26075D01*
X33375Y-26075D02*
X33375Y-25475D01*
X33375Y-25475D02*
X33775Y-25475D01*
X37975Y-26075D02*
X37974Y-26084D01*
X37971Y-26094D01*
X37966Y-26102D01*
X37960Y-26110D01*
X37952Y-26116D01*
X37944Y-26121D01*
X37935Y-26123D01*
X37925Y-26124D01*
X37916Y-26124D01*
X37907Y-26121D01*
X37898Y-26116D01*
X37891Y-26110D01*
X37884Y-26103D01*
X37880Y-26094D01*
X37877Y-26085D01*
X37876Y-26075D01*
X37876Y-26066D01*
X37879Y-26057D01*
X37883Y-26048D01*
X37890Y-26041D01*
X37897Y-26034D01*
X37905Y-26030D01*
X37915Y-26027D01*
X37924Y-26026D01*
X37933Y-26026D01*
X37943Y-26029D01*
X37951Y-26033D01*
X37959Y-26039D01*
X37965Y-26047D01*
X37970Y-26055D01*
X37973Y-26064D01*
X37974Y-26074D01*
X37975Y-26075D01*
X37925Y-26525D02*
X37925Y-26125D01*
X37925Y-26125D02*
X38525Y-26125D01*
X38525Y-26125D02*
X38525Y-26525D01*
X38525Y-26925D02*
X38525Y-27325D01*
X38525Y-27325D02*
X37925Y-27325D01*
X37925Y-27325D02*
X37925Y-26925D01*
X35425Y-23125D02*
X35424Y-23134D01*
X35421Y-23144D01*
X35416Y-23152D01*
X35410Y-23160D01*
X35402Y-23166D01*
X35394Y-23171D01*
X35385Y-23173D01*
X35375Y-23174D01*
X35366Y-23174D01*
X35357Y-23171D01*
X35348Y-23166D01*
X35341Y-23160D01*
X35334Y-23153D01*
X35330Y-23144D01*
X35327Y-23135D01*
X35326Y-23125D01*
X35326Y-23116D01*
X35329Y-23107D01*
X35333Y-23098D01*
X35340Y-23091D01*
X35347Y-23084D01*
X35355Y-23080D01*
X35365Y-23077D01*
X35374Y-23076D01*
X35383Y-23076D01*
X35393Y-23079D01*
X35401Y-23083D01*
X35409Y-23089D01*
X35415Y-23097D01*
X35420Y-23105D01*
X35423Y-23114D01*
X35424Y-23124D01*
X35425Y-23125D01*
X35375Y-23575D02*
X35375Y-23175D01*
X35375Y-23175D02*
X35975Y-23175D01*
X35975Y-23175D02*
X35975Y-23575D01*
X35975Y-23975D02*
X35975Y-24375D01*
X35975Y-24375D02*
X35375Y-24375D01*
X35375Y-24375D02*
X35375Y-23975D01*
X41675Y-13825D02*
X41674Y-13834D01*
X41671Y-13844D01*
X41666Y-13852D01*
X41660Y-13860D01*
X41652Y-13866D01*
X41644Y-13871D01*
X41635Y-13873D01*
X41625Y-13874D01*
X41616Y-13874D01*
X41607Y-13871D01*
X41598Y-13866D01*
X41591Y-13860D01*
X41584Y-13853D01*
X41580Y-13844D01*
X41577Y-13835D01*
X41576Y-13825D01*
X41576Y-13816D01*
X41579Y-13807D01*
X41583Y-13798D01*
X41590Y-13791D01*
X41597Y-13784D01*
X41605Y-13780D01*
X41615Y-13777D01*
X41624Y-13776D01*
X41633Y-13776D01*
X41643Y-13779D01*
X41651Y-13783D01*
X41659Y-13789D01*
X41665Y-13797D01*
X41670Y-13805D01*
X41673Y-13814D01*
X41674Y-13824D01*
X41675Y-13825D01*
X41175Y-13825D02*
X41575Y-13825D01*
X41575Y-13825D02*
X41575Y-14425D01*
X41575Y-14425D02*
X41175Y-14425D01*
X40775Y-14425D02*
X40375Y-14425D01*
X40375Y-14425D02*
X40375Y-13825D01*
X40375Y-13825D02*
X40775Y-13825D01*
X41675Y-16225D02*
X41674Y-16234D01*
X41671Y-16244D01*
X41666Y-16252D01*
X41660Y-16260D01*
X41652Y-16266D01*
X41644Y-16271D01*
X41635Y-16273D01*
X41625Y-16274D01*
X41616Y-16274D01*
X41607Y-16271D01*
X41598Y-16266D01*
X41591Y-16260D01*
X41584Y-16253D01*
X41580Y-16244D01*
X41577Y-16235D01*
X41576Y-16225D01*
X41576Y-16216D01*
X41579Y-16207D01*
X41583Y-16198D01*
X41590Y-16191D01*
X41597Y-16184D01*
X41605Y-16180D01*
X41615Y-16177D01*
X41624Y-16176D01*
X41633Y-16176D01*
X41643Y-16179D01*
X41651Y-16183D01*
X41659Y-16189D01*
X41665Y-16197D01*
X41670Y-16205D01*
X41673Y-16214D01*
X41674Y-16224D01*
X41675Y-16225D01*
X41175Y-16225D02*
X41575Y-16225D01*
X41575Y-16225D02*
X41575Y-16825D01*
X41575Y-16825D02*
X41175Y-16825D01*
X40775Y-16825D02*
X40375Y-16825D01*
X40375Y-16825D02*
X40375Y-16225D01*
X40375Y-16225D02*
X40775Y-16225D01*
X46875Y-25525D02*
X46874Y-25534D01*
X46871Y-25544D01*
X46866Y-25552D01*
X46860Y-25560D01*
X46852Y-25566D01*
X46844Y-25571D01*
X46835Y-25573D01*
X46825Y-25574D01*
X46816Y-25574D01*
X46807Y-25571D01*
X46798Y-25566D01*
X46791Y-25560D01*
X46784Y-25553D01*
X46780Y-25544D01*
X46777Y-25535D01*
X46776Y-25525D01*
X46776Y-25516D01*
X46779Y-25507D01*
X46783Y-25498D01*
X46790Y-25491D01*
X46797Y-25484D01*
X46805Y-25480D01*
X46815Y-25477D01*
X46824Y-25476D01*
X46833Y-25476D01*
X46843Y-25479D01*
X46851Y-25483D01*
X46859Y-25489D01*
X46865Y-25497D01*
X46870Y-25505D01*
X46873Y-25514D01*
X46874Y-25524D01*
X46875Y-25525D01*
X46825Y-25075D02*
X46825Y-25475D01*
X46825Y-25475D02*
X46225Y-25475D01*
X46225Y-25475D02*
X46225Y-25075D01*
X46225Y-24675D02*
X46225Y-24275D01*
X46225Y-24275D02*
X46825Y-24275D01*
X46825Y-24275D02*
X46825Y-24675D01*
X35425Y-20275D02*
X35424Y-20284D01*
X35421Y-20294D01*
X35416Y-20302D01*
X35410Y-20310D01*
X35402Y-20316D01*
X35394Y-20321D01*
X35385Y-20323D01*
X35375Y-20324D01*
X35366Y-20324D01*
X35357Y-20321D01*
X35348Y-20316D01*
X35341Y-20310D01*
X35334Y-20303D01*
X35330Y-20294D01*
X35327Y-20285D01*
X35326Y-20275D01*
X35326Y-20266D01*
X35329Y-20257D01*
X35333Y-20248D01*
X35340Y-20241D01*
X35347Y-20234D01*
X35355Y-20230D01*
X35365Y-20227D01*
X35374Y-20226D01*
X35383Y-20226D01*
X35393Y-20229D01*
X35401Y-20233D01*
X35409Y-20239D01*
X35415Y-20247D01*
X35420Y-20255D01*
X35423Y-20264D01*
X35424Y-20274D01*
X35425Y-20275D01*
X35375Y-20725D02*
X35375Y-20325D01*
X35375Y-20325D02*
X35975Y-20325D01*
X35975Y-20325D02*
X35975Y-20725D01*
X35975Y-21125D02*
X35975Y-21525D01*
X35975Y-21525D02*
X35375Y-21525D01*
X35375Y-21525D02*
X35375Y-21125D01*
X38775Y-26075D02*
X38774Y-26084D01*
X38771Y-26094D01*
X38766Y-26102D01*
X38760Y-26110D01*
X38752Y-26116D01*
X38744Y-26121D01*
X38735Y-26123D01*
X38725Y-26124D01*
X38716Y-26124D01*
X38707Y-26121D01*
X38698Y-26116D01*
X38691Y-26110D01*
X38684Y-26103D01*
X38680Y-26094D01*
X38677Y-26085D01*
X38676Y-26075D01*
X38676Y-26066D01*
X38679Y-26057D01*
X38683Y-26048D01*
X38690Y-26041D01*
X38697Y-26034D01*
X38705Y-26030D01*
X38715Y-26027D01*
X38724Y-26026D01*
X38733Y-26026D01*
X38743Y-26029D01*
X38751Y-26033D01*
X38759Y-26039D01*
X38765Y-26047D01*
X38770Y-26055D01*
X38773Y-26064D01*
X38774Y-26074D01*
X38775Y-26075D01*
X38725Y-26525D02*
X38725Y-26125D01*
X38725Y-26125D02*
X39325Y-26125D01*
X39325Y-26125D02*
X39325Y-26525D01*
X39325Y-26925D02*
X39325Y-27325D01*
X39325Y-27325D02*
X38725Y-27325D01*
X38725Y-27325D02*
X38725Y-26925D01*
X45325Y-15525D02*
X45324Y-15534D01*
X45321Y-15544D01*
X45316Y-15552D01*
X45310Y-15560D01*
X45302Y-15566D01*
X45294Y-15571D01*
X45285Y-15573D01*
X45275Y-15574D01*
X45266Y-15574D01*
X45257Y-15571D01*
X45248Y-15566D01*
X45241Y-15560D01*
X45234Y-15553D01*
X45230Y-15544D01*
X45227Y-15535D01*
X45226Y-15525D01*
X45226Y-15516D01*
X45229Y-15507D01*
X45233Y-15498D01*
X45240Y-15491D01*
X45247Y-15484D01*
X45255Y-15480D01*
X45265Y-15477D01*
X45274Y-15476D01*
X45283Y-15476D01*
X45293Y-15479D01*
X45301Y-15483D01*
X45309Y-15489D01*
X45315Y-15497D01*
X45320Y-15505D01*
X45323Y-15514D01*
X45324Y-15524D01*
X45325Y-15525D01*
X44825Y-15525D02*
X45225Y-15525D01*
X45225Y-15525D02*
X45225Y-16125D01*
X45225Y-16125D02*
X44825Y-16125D01*
X44425Y-16125D02*
X44025Y-16125D01*
X44025Y-16125D02*
X44025Y-15525D01*
X44025Y-15525D02*
X44425Y-15525D01*
G54D13*
X43825Y-14075D02*
X43825Y-15275D01*
X43825Y-15275D02*
X46625Y-15275D01*
X46625Y-15275D02*
X46625Y-14075D01*
X43825Y-12875D02*
X43825Y-12575D01*
X43825Y-12575D02*
X44425Y-11675D01*
X44425Y-11675D02*
X46025Y-11675D01*
X46025Y-11675D02*
X46625Y-12575D01*
X46625Y-12575D02*
X46625Y-12875D01*
G54D11*
X35195Y-22705D02*
X35195Y-25145D01*
X35195Y-25145D02*
X34251Y-25145D01*
X35195Y-22705D02*
X34251Y-22705D01*
X32755Y-25145D02*
X32755Y-22705D01*
X32755Y-22705D02*
X33699Y-22705D01*
X32755Y-25145D02*
X33699Y-25145D01*
G54D13*
X34431Y-23925D02*
X34422Y-24013D01*
X34396Y-24098D01*
X34354Y-24177D01*
X34298Y-24246D01*
X34229Y-24303D01*
X34151Y-24345D01*
X34066Y-24371D01*
X33978Y-24380D01*
X33890Y-24372D01*
X33805Y-24347D01*
X33726Y-24306D01*
X33656Y-24250D01*
X33599Y-24182D01*
X33556Y-24104D01*
X33529Y-24019D01*
X33520Y-23931D01*
X33527Y-23843D01*
X33552Y-23758D01*
X33592Y-23678D01*
X33647Y-23609D01*
X33715Y-23551D01*
X33793Y-23508D01*
X33878Y-23480D01*
X33966Y-23470D01*
X34054Y-23476D01*
X34139Y-23500D01*
X34219Y-23540D01*
X34289Y-23595D01*
X34347Y-23663D01*
X34391Y-23740D01*
X34419Y-23824D01*
X34430Y-23913D01*
X34431Y-23925D01*
G54D12*
X60656Y-23689D02*
X60656Y-23469D01*
X60865Y-23668D02*
X60855Y-23679D01*
X60827Y-23689D01*
X60808Y-23689D01*
X60779Y-23679D01*
X60760Y-23658D01*
X60751Y-23637D01*
X60741Y-23595D01*
X60741Y-23563D01*
X60751Y-23521D01*
X60760Y-23500D01*
X60779Y-23480D01*
X60808Y-23469D01*
X60827Y-23469D01*
X60855Y-23480D01*
X60865Y-23490D01*
X61055Y-23689D02*
X60941Y-23689D01*
X60998Y-23689D02*
X60998Y-23469D01*
X60979Y-23500D01*
X60960Y-23521D01*
X60941Y-23532D01*
X60332Y-24189D02*
X60237Y-24189D01*
X60237Y-23969D01*
X60399Y-24189D02*
X60399Y-23969D01*
X60475Y-23969D01*
X60494Y-23980D01*
X60503Y-23990D01*
X60513Y-24011D01*
X60513Y-24042D01*
X60503Y-24063D01*
X60494Y-24074D01*
X60475Y-24084D01*
X60399Y-24084D01*
X60713Y-24168D02*
X60703Y-24179D01*
X60675Y-24189D01*
X60656Y-24189D01*
X60627Y-24179D01*
X60608Y-24158D01*
X60599Y-24137D01*
X60589Y-24095D01*
X60589Y-24063D01*
X60599Y-24021D01*
X60608Y-24000D01*
X60627Y-23980D01*
X60656Y-23969D01*
X60675Y-23969D01*
X60703Y-23980D01*
X60713Y-23990D01*
X60903Y-24189D02*
X60789Y-24189D01*
X60846Y-24189D02*
X60846Y-23969D01*
X60827Y-24000D01*
X60808Y-24021D01*
X60789Y-24032D01*
X60970Y-23969D02*
X61103Y-23969D01*
X61017Y-24189D01*
X61274Y-23969D02*
X61179Y-23969D01*
X61169Y-24074D01*
X61179Y-24063D01*
X61198Y-24053D01*
X61245Y-24053D01*
X61264Y-24063D01*
X61274Y-24074D01*
X61283Y-24095D01*
X61283Y-24147D01*
X61274Y-24168D01*
X61264Y-24179D01*
X61245Y-24189D01*
X61198Y-24189D01*
X61179Y-24179D01*
X61169Y-24168D01*
X61350Y-23969D02*
X61483Y-24189D01*
X61483Y-23969D02*
X61350Y-24189D01*
G54D13*
X59069Y-11024D02*
X59069Y-11331D01*
X59084Y-11368D01*
X59100Y-11386D01*
X59130Y-11404D01*
X59191Y-11404D01*
X59222Y-11386D01*
X59237Y-11368D01*
X59252Y-11331D01*
X59252Y-11024D01*
X59328Y-11440D02*
X59572Y-11440D01*
X59831Y-11404D02*
X59724Y-11223D01*
X59648Y-11404D02*
X59648Y-11024D01*
X59770Y-11024D01*
X59801Y-11042D01*
X59816Y-11060D01*
X59831Y-11096D01*
X59831Y-11150D01*
X59816Y-11187D01*
X59801Y-11205D01*
X59770Y-11223D01*
X59648Y-11223D01*
X59968Y-11205D02*
X60075Y-11205D01*
X60121Y-11404D02*
X59968Y-11404D01*
X59968Y-11024D01*
X60121Y-11024D01*
X60426Y-11042D02*
X60395Y-11024D01*
X60350Y-11024D01*
X60304Y-11042D01*
X60273Y-11078D01*
X60258Y-11114D01*
X60243Y-11187D01*
X60243Y-11241D01*
X60258Y-11313D01*
X60273Y-11350D01*
X60304Y-11386D01*
X60350Y-11404D01*
X60380Y-11404D01*
X60426Y-11386D01*
X60441Y-11368D01*
X60441Y-11241D01*
X60380Y-11241D01*
X60746Y-11404D02*
X60563Y-11404D01*
X60654Y-11404D02*
X60654Y-11024D01*
X60624Y-11078D01*
X60593Y-11114D01*
X60563Y-11132D01*
X78435Y-15719D02*
X78694Y-15719D01*
X78724Y-15704D01*
X78739Y-15688D01*
X78755Y-15658D01*
X78755Y-15597D01*
X78739Y-15566D01*
X78724Y-15551D01*
X78694Y-15536D01*
X78435Y-15536D01*
X78755Y-15216D02*
X78755Y-15399D01*
X78755Y-15308D02*
X78435Y-15308D01*
X78480Y-15338D01*
X78511Y-15369D01*
X78526Y-15399D01*
X79239Y-15708D02*
X79255Y-15662D01*
X79255Y-15586D01*
X79239Y-15556D01*
X79224Y-15540D01*
X79194Y-15525D01*
X79163Y-15525D01*
X79133Y-15540D01*
X79117Y-15556D01*
X79102Y-15586D01*
X79087Y-15647D01*
X79072Y-15678D01*
X79056Y-15693D01*
X79026Y-15708D01*
X78995Y-15708D01*
X78965Y-15693D01*
X78950Y-15678D01*
X78935Y-15647D01*
X78935Y-15571D01*
X78950Y-15525D01*
X78935Y-15434D02*
X78935Y-15251D01*
X79255Y-15342D02*
X78935Y-15342D01*
X79255Y-15144D02*
X78935Y-15144D01*
X79163Y-15037D01*
X78935Y-14930D01*
X79255Y-14930D01*
X78935Y-14808D02*
X78935Y-14610D01*
X79056Y-14717D01*
X79056Y-14671D01*
X79072Y-14641D01*
X79087Y-14625D01*
X79117Y-14610D01*
X79194Y-14610D01*
X79224Y-14625D01*
X79239Y-14641D01*
X79255Y-14671D01*
X79255Y-14763D01*
X79239Y-14793D01*
X79224Y-14808D01*
X78965Y-14488D02*
X78950Y-14473D01*
X78935Y-14442D01*
X78935Y-14366D01*
X78950Y-14336D01*
X78965Y-14320D01*
X78995Y-14305D01*
X79026Y-14305D01*
X79072Y-14320D01*
X79255Y-14503D01*
X79255Y-14305D01*
X79087Y-14061D02*
X79087Y-14168D01*
X79255Y-14168D02*
X78935Y-14168D01*
X78935Y-14015D01*
X79255Y-13726D02*
X79255Y-13909D01*
X79255Y-13818D02*
X78935Y-13818D01*
X78980Y-13848D01*
X79011Y-13879D01*
X79026Y-13909D01*
X78935Y-13528D02*
X78935Y-13497D01*
X78950Y-13467D01*
X78965Y-13452D01*
X78995Y-13436D01*
X79056Y-13421D01*
X79133Y-13421D01*
X79194Y-13436D01*
X79224Y-13452D01*
X79239Y-13467D01*
X79255Y-13497D01*
X79255Y-13528D01*
X79239Y-13558D01*
X79224Y-13574D01*
X79194Y-13589D01*
X79133Y-13604D01*
X79056Y-13604D01*
X78995Y-13589D01*
X78965Y-13574D01*
X78950Y-13558D01*
X78935Y-13528D01*
X78935Y-13131D02*
X78935Y-13284D01*
X79087Y-13299D01*
X79072Y-13284D01*
X79056Y-13253D01*
X79056Y-13177D01*
X79072Y-13147D01*
X79087Y-13131D01*
X79117Y-13116D01*
X79194Y-13116D01*
X79224Y-13131D01*
X79239Y-13147D01*
X79255Y-13177D01*
X79255Y-13253D01*
X79239Y-13284D01*
X79224Y-13299D01*
X79255Y-12796D02*
X79102Y-12903D01*
X79255Y-12979D02*
X78935Y-12979D01*
X78935Y-12857D01*
X78950Y-12826D01*
X78965Y-12811D01*
X78995Y-12796D01*
X79041Y-12796D01*
X79072Y-12811D01*
X79087Y-12826D01*
X79102Y-12857D01*
X79102Y-12979D01*
X79072Y-12613D02*
X79056Y-12644D01*
X79041Y-12659D01*
X79011Y-12674D01*
X78995Y-12674D01*
X78965Y-12659D01*
X78950Y-12644D01*
X78935Y-12613D01*
X78935Y-12552D01*
X78950Y-12522D01*
X78965Y-12506D01*
X78995Y-12491D01*
X79011Y-12491D01*
X79041Y-12506D01*
X79056Y-12522D01*
X79072Y-12552D01*
X79072Y-12613D01*
X79087Y-12644D01*
X79102Y-12659D01*
X79133Y-12674D01*
X79194Y-12674D01*
X79224Y-12659D01*
X79239Y-12644D01*
X79255Y-12613D01*
X79255Y-12552D01*
X79239Y-12522D01*
X79224Y-12506D01*
X79194Y-12491D01*
X79133Y-12491D01*
X79102Y-12506D01*
X79087Y-12522D01*
X79072Y-12552D01*
X78935Y-12400D02*
X78935Y-12217D01*
X79255Y-12308D02*
X78935Y-12308D01*
X78935Y-11973D02*
X78935Y-12034D01*
X78950Y-12064D01*
X78965Y-12079D01*
X79011Y-12110D01*
X79072Y-12125D01*
X79194Y-12125D01*
X79224Y-12110D01*
X79239Y-12095D01*
X79255Y-12064D01*
X79255Y-12003D01*
X79239Y-11973D01*
X79224Y-11957D01*
X79194Y-11942D01*
X79117Y-11942D01*
X79087Y-11957D01*
X79072Y-11973D01*
X79056Y-12003D01*
X79056Y-12064D01*
X79072Y-12095D01*
X79087Y-12110D01*
X79117Y-12125D01*
G54D12*
X80583Y-12126D02*
X80500Y-12007D01*
X80441Y-12126D02*
X80441Y-11876D01*
X80536Y-11876D01*
X80560Y-11888D01*
X80571Y-11900D01*
X80583Y-11924D01*
X80583Y-11960D01*
X80571Y-11983D01*
X80560Y-11995D01*
X80536Y-12007D01*
X80441Y-12007D01*
X80679Y-11900D02*
X80691Y-11888D01*
X80714Y-11876D01*
X80774Y-11876D01*
X80798Y-11888D01*
X80810Y-11900D01*
X80821Y-11924D01*
X80821Y-11948D01*
X80810Y-11983D01*
X80667Y-12126D01*
X80821Y-12126D01*
X74026Y-21117D02*
X73907Y-21200D01*
X74026Y-21259D02*
X73776Y-21259D01*
X73776Y-21164D01*
X73788Y-21140D01*
X73800Y-21129D01*
X73824Y-21117D01*
X73860Y-21117D01*
X73883Y-21129D01*
X73895Y-21140D01*
X73907Y-21164D01*
X73907Y-21259D01*
X74026Y-20879D02*
X74026Y-21021D01*
X74026Y-20950D02*
X73776Y-20950D01*
X73812Y-20974D01*
X73836Y-20998D01*
X73848Y-21021D01*
X81126Y-12667D02*
X81007Y-12750D01*
X81126Y-12809D02*
X80876Y-12809D01*
X80876Y-12714D01*
X80888Y-12690D01*
X80900Y-12679D01*
X80924Y-12667D01*
X80960Y-12667D01*
X80983Y-12679D01*
X80995Y-12690D01*
X81007Y-12714D01*
X81007Y-12809D01*
X80960Y-12452D02*
X81126Y-12452D01*
X80864Y-12512D02*
X81043Y-12571D01*
X81043Y-12417D01*
X77876Y-12617D02*
X77757Y-12700D01*
X77876Y-12759D02*
X77626Y-12759D01*
X77626Y-12664D01*
X77638Y-12640D01*
X77650Y-12629D01*
X77674Y-12617D01*
X77710Y-12617D01*
X77733Y-12629D01*
X77745Y-12640D01*
X77757Y-12664D01*
X77757Y-12759D01*
X77626Y-12390D02*
X77626Y-12509D01*
X77745Y-12521D01*
X77733Y-12509D01*
X77721Y-12486D01*
X77721Y-12426D01*
X77733Y-12402D01*
X77745Y-12390D01*
X77769Y-12379D01*
X77829Y-12379D01*
X77852Y-12390D01*
X77864Y-12402D01*
X77876Y-12426D01*
X77876Y-12486D01*
X77864Y-12509D01*
X77852Y-12521D01*
X71683Y-28076D02*
X71600Y-27957D01*
X71541Y-28076D02*
X71541Y-27826D01*
X71636Y-27826D01*
X71660Y-27838D01*
X71671Y-27850D01*
X71683Y-27874D01*
X71683Y-27910D01*
X71671Y-27933D01*
X71660Y-27945D01*
X71636Y-27957D01*
X71541Y-27957D01*
X71898Y-27826D02*
X71850Y-27826D01*
X71826Y-27838D01*
X71814Y-27850D01*
X71791Y-27886D01*
X71779Y-27933D01*
X71779Y-28029D01*
X71791Y-28052D01*
X71802Y-28064D01*
X71826Y-28076D01*
X71874Y-28076D01*
X71898Y-28064D01*
X71910Y-28052D01*
X71921Y-28029D01*
X71921Y-27969D01*
X71910Y-27945D01*
X71898Y-27933D01*
X71874Y-27921D01*
X71826Y-27921D01*
X71802Y-27933D01*
X71791Y-27945D01*
X71779Y-27969D01*
X75876Y-11817D02*
X75757Y-11900D01*
X75876Y-11959D02*
X75626Y-11959D01*
X75626Y-11864D01*
X75638Y-11840D01*
X75650Y-11829D01*
X75674Y-11817D01*
X75710Y-11817D01*
X75733Y-11829D01*
X75745Y-11840D01*
X75757Y-11864D01*
X75757Y-11959D01*
X75626Y-11733D02*
X75626Y-11567D01*
X75876Y-11674D01*
X70883Y-30376D02*
X70800Y-30257D01*
X70741Y-30376D02*
X70741Y-30126D01*
X70836Y-30126D01*
X70860Y-30138D01*
X70871Y-30150D01*
X70883Y-30174D01*
X70883Y-30210D01*
X70871Y-30233D01*
X70860Y-30245D01*
X70836Y-30257D01*
X70741Y-30257D01*
X71026Y-30233D02*
X71002Y-30221D01*
X70991Y-30210D01*
X70979Y-30186D01*
X70979Y-30174D01*
X70991Y-30150D01*
X71002Y-30138D01*
X71026Y-30126D01*
X71074Y-30126D01*
X71098Y-30138D01*
X71110Y-30150D01*
X71121Y-30174D01*
X71121Y-30186D01*
X71110Y-30210D01*
X71098Y-30221D01*
X71074Y-30233D01*
X71026Y-30233D01*
X71002Y-30245D01*
X70991Y-30257D01*
X70979Y-30281D01*
X70979Y-30329D01*
X70991Y-30352D01*
X71002Y-30364D01*
X71026Y-30376D01*
X71074Y-30376D01*
X71098Y-30364D01*
X71110Y-30352D01*
X71121Y-30329D01*
X71121Y-30281D01*
X71110Y-30257D01*
X71098Y-30245D01*
X71074Y-30233D01*
X85133Y-17076D02*
X85050Y-16957D01*
X84991Y-17076D02*
X84991Y-16826D01*
X85086Y-16826D01*
X85110Y-16838D01*
X85121Y-16850D01*
X85133Y-16874D01*
X85133Y-16910D01*
X85121Y-16933D01*
X85110Y-16945D01*
X85086Y-16957D01*
X84991Y-16957D01*
X85252Y-17076D02*
X85300Y-17076D01*
X85324Y-17064D01*
X85336Y-17052D01*
X85360Y-17017D01*
X85371Y-16969D01*
X85371Y-16874D01*
X85360Y-16850D01*
X85348Y-16838D01*
X85324Y-16826D01*
X85276Y-16826D01*
X85252Y-16838D01*
X85241Y-16850D01*
X85229Y-16874D01*
X85229Y-16933D01*
X85241Y-16957D01*
X85252Y-16969D01*
X85276Y-16981D01*
X85324Y-16981D01*
X85348Y-16969D01*
X85360Y-16957D01*
X85371Y-16933D01*
X76983Y-25752D02*
X76971Y-25764D01*
X76936Y-25776D01*
X76912Y-25776D01*
X76876Y-25764D01*
X76852Y-25740D01*
X76841Y-25717D01*
X76829Y-25669D01*
X76829Y-25633D01*
X76841Y-25586D01*
X76852Y-25562D01*
X76876Y-25538D01*
X76912Y-25526D01*
X76936Y-25526D01*
X76971Y-25538D01*
X76983Y-25550D01*
X77079Y-25550D02*
X77091Y-25538D01*
X77114Y-25526D01*
X77174Y-25526D01*
X77198Y-25538D01*
X77210Y-25550D01*
X77221Y-25574D01*
X77221Y-25598D01*
X77210Y-25633D01*
X77067Y-25776D01*
X77221Y-25776D01*
X75983Y-22902D02*
X75971Y-22914D01*
X75936Y-22926D01*
X75912Y-22926D01*
X75876Y-22914D01*
X75852Y-22890D01*
X75841Y-22867D01*
X75829Y-22819D01*
X75829Y-22783D01*
X75841Y-22736D01*
X75852Y-22712D01*
X75876Y-22688D01*
X75912Y-22676D01*
X75936Y-22676D01*
X75971Y-22688D01*
X75983Y-22700D01*
X76067Y-22676D02*
X76221Y-22676D01*
X76138Y-22771D01*
X76174Y-22771D01*
X76198Y-22783D01*
X76210Y-22795D01*
X76221Y-22819D01*
X76221Y-22879D01*
X76210Y-22902D01*
X76198Y-22914D01*
X76174Y-22926D01*
X76102Y-22926D01*
X76079Y-22914D01*
X76067Y-22902D01*
X79133Y-24552D02*
X79121Y-24564D01*
X79086Y-24576D01*
X79062Y-24576D01*
X79026Y-24564D01*
X79002Y-24540D01*
X78991Y-24517D01*
X78979Y-24469D01*
X78979Y-24433D01*
X78991Y-24386D01*
X79002Y-24362D01*
X79026Y-24338D01*
X79062Y-24326D01*
X79086Y-24326D01*
X79121Y-24338D01*
X79133Y-24350D01*
X79348Y-24410D02*
X79348Y-24576D01*
X79288Y-24314D02*
X79229Y-24493D01*
X79383Y-24493D01*
X77602Y-25717D02*
X77614Y-25729D01*
X77626Y-25764D01*
X77626Y-25788D01*
X77614Y-25824D01*
X77590Y-25848D01*
X77567Y-25859D01*
X77519Y-25871D01*
X77483Y-25871D01*
X77436Y-25859D01*
X77412Y-25848D01*
X77388Y-25824D01*
X77376Y-25788D01*
X77376Y-25764D01*
X77388Y-25729D01*
X77400Y-25717D01*
X77376Y-25490D02*
X77376Y-25609D01*
X77495Y-25621D01*
X77483Y-25609D01*
X77471Y-25586D01*
X77471Y-25526D01*
X77483Y-25502D01*
X77495Y-25490D01*
X77519Y-25479D01*
X77579Y-25479D01*
X77602Y-25490D01*
X77614Y-25502D01*
X77626Y-25526D01*
X77626Y-25586D01*
X77614Y-25609D01*
X77602Y-25621D01*
X86289Y-16952D02*
X86277Y-16964D01*
X86242Y-16976D01*
X86218Y-16976D01*
X86182Y-16964D01*
X86158Y-16940D01*
X86147Y-16917D01*
X86135Y-16869D01*
X86135Y-16833D01*
X86147Y-16786D01*
X86158Y-16762D01*
X86182Y-16738D01*
X86218Y-16726D01*
X86242Y-16726D01*
X86277Y-16738D01*
X86289Y-16750D01*
X86337Y-17000D02*
X86527Y-17000D01*
X86587Y-16976D02*
X86587Y-16726D01*
X86682Y-16726D01*
X86706Y-16738D01*
X86717Y-16750D01*
X86729Y-16774D01*
X86729Y-16810D01*
X86717Y-16833D01*
X86706Y-16845D01*
X86682Y-16857D01*
X86587Y-16857D01*
X86884Y-16726D02*
X86932Y-16726D01*
X86956Y-16738D01*
X86979Y-16762D01*
X86991Y-16810D01*
X86991Y-16893D01*
X86979Y-16940D01*
X86956Y-16964D01*
X86932Y-16976D01*
X86884Y-16976D01*
X86860Y-16964D01*
X86837Y-16940D01*
X86825Y-16893D01*
X86825Y-16810D01*
X86837Y-16762D01*
X86860Y-16738D01*
X86884Y-16726D01*
X87075Y-16726D02*
X87134Y-16976D01*
X87182Y-16798D01*
X87229Y-16976D01*
X87289Y-16726D01*
X87373Y-16750D02*
X87385Y-16738D01*
X87408Y-16726D01*
X87468Y-16726D01*
X87492Y-16738D01*
X87504Y-16750D01*
X87515Y-16774D01*
X87515Y-16798D01*
X87504Y-16833D01*
X87361Y-16976D01*
X87515Y-16976D01*
X80583Y-12876D02*
X80500Y-12757D01*
X80441Y-12876D02*
X80441Y-12626D01*
X80536Y-12626D01*
X80560Y-12638D01*
X80571Y-12650D01*
X80583Y-12674D01*
X80583Y-12710D01*
X80571Y-12733D01*
X80560Y-12745D01*
X80536Y-12757D01*
X80441Y-12757D01*
X80667Y-12626D02*
X80821Y-12626D01*
X80738Y-12721D01*
X80774Y-12721D01*
X80798Y-12733D01*
X80810Y-12745D01*
X80821Y-12769D01*
X80821Y-12829D01*
X80810Y-12852D01*
X80798Y-12864D01*
X80774Y-12876D01*
X80702Y-12876D01*
X80679Y-12864D01*
X80667Y-12852D01*
X76614Y-20652D02*
X76602Y-20664D01*
X76567Y-20676D01*
X76543Y-20676D01*
X76507Y-20664D01*
X76483Y-20640D01*
X76472Y-20617D01*
X76460Y-20569D01*
X76460Y-20533D01*
X76472Y-20486D01*
X76483Y-20462D01*
X76507Y-20438D01*
X76543Y-20426D01*
X76567Y-20426D01*
X76602Y-20438D01*
X76614Y-20450D01*
X76852Y-20676D02*
X76710Y-20676D01*
X76781Y-20676D02*
X76781Y-20426D01*
X76757Y-20462D01*
X76733Y-20486D01*
X76710Y-20498D01*
X77090Y-20676D02*
X76948Y-20676D01*
X77019Y-20676D02*
X77019Y-20426D01*
X76995Y-20462D01*
X76971Y-20486D01*
X76948Y-20498D01*
X82214Y-19702D02*
X82202Y-19714D01*
X82167Y-19726D01*
X82143Y-19726D01*
X82107Y-19714D01*
X82083Y-19690D01*
X82072Y-19667D01*
X82060Y-19619D01*
X82060Y-19583D01*
X82072Y-19536D01*
X82083Y-19512D01*
X82107Y-19488D01*
X82143Y-19476D01*
X82167Y-19476D01*
X82202Y-19488D01*
X82214Y-19500D01*
X82452Y-19726D02*
X82310Y-19726D01*
X82381Y-19726D02*
X82381Y-19476D01*
X82357Y-19512D01*
X82333Y-19536D01*
X82310Y-19548D01*
X82607Y-19476D02*
X82631Y-19476D01*
X82655Y-19488D01*
X82667Y-19500D01*
X82679Y-19524D01*
X82690Y-19571D01*
X82690Y-19631D01*
X82679Y-19679D01*
X82667Y-19702D01*
X82655Y-19714D01*
X82631Y-19726D01*
X82607Y-19726D01*
X82583Y-19714D01*
X82571Y-19702D01*
X82560Y-19679D01*
X82548Y-19631D01*
X82548Y-19571D01*
X82560Y-19524D01*
X82571Y-19500D01*
X82583Y-19488D01*
X82607Y-19476D01*
X80402Y-22517D02*
X80414Y-22529D01*
X80426Y-22564D01*
X80426Y-22588D01*
X80414Y-22624D01*
X80390Y-22648D01*
X80367Y-22659D01*
X80319Y-22671D01*
X80283Y-22671D01*
X80236Y-22659D01*
X80212Y-22648D01*
X80188Y-22624D01*
X80176Y-22588D01*
X80176Y-22564D01*
X80188Y-22529D01*
X80200Y-22517D01*
X80426Y-22398D02*
X80426Y-22350D01*
X80414Y-22326D01*
X80402Y-22314D01*
X80367Y-22290D01*
X80319Y-22279D01*
X80224Y-22279D01*
X80200Y-22290D01*
X80188Y-22302D01*
X80176Y-22326D01*
X80176Y-22374D01*
X80188Y-22398D01*
X80200Y-22409D01*
X80224Y-22421D01*
X80283Y-22421D01*
X80307Y-22409D01*
X80319Y-22398D01*
X80331Y-22374D01*
X80331Y-22326D01*
X80319Y-22302D01*
X80307Y-22290D01*
X80283Y-22279D01*
X82333Y-16452D02*
X82321Y-16464D01*
X82286Y-16476D01*
X82262Y-16476D01*
X82226Y-16464D01*
X82202Y-16440D01*
X82191Y-16417D01*
X82179Y-16369D01*
X82179Y-16333D01*
X82191Y-16286D01*
X82202Y-16262D01*
X82226Y-16238D01*
X82262Y-16226D01*
X82286Y-16226D01*
X82321Y-16238D01*
X82333Y-16250D01*
X82476Y-16333D02*
X82452Y-16321D01*
X82441Y-16310D01*
X82429Y-16286D01*
X82429Y-16274D01*
X82441Y-16250D01*
X82452Y-16238D01*
X82476Y-16226D01*
X82524Y-16226D01*
X82548Y-16238D01*
X82560Y-16250D01*
X82571Y-16274D01*
X82571Y-16286D01*
X82560Y-16310D01*
X82548Y-16321D01*
X82524Y-16333D01*
X82476Y-16333D01*
X82452Y-16345D01*
X82441Y-16357D01*
X82429Y-16381D01*
X82429Y-16429D01*
X82441Y-16452D01*
X82452Y-16464D01*
X82476Y-16476D01*
X82524Y-16476D01*
X82548Y-16464D01*
X82560Y-16452D01*
X82571Y-16429D01*
X82571Y-16381D01*
X82560Y-16357D01*
X82548Y-16345D01*
X82524Y-16333D01*
X76352Y-15017D02*
X76364Y-15029D01*
X76376Y-15064D01*
X76376Y-15088D01*
X76364Y-15124D01*
X76340Y-15148D01*
X76317Y-15159D01*
X76269Y-15171D01*
X76233Y-15171D01*
X76186Y-15159D01*
X76162Y-15148D01*
X76138Y-15124D01*
X76126Y-15088D01*
X76126Y-15064D01*
X76138Y-15029D01*
X76150Y-15017D01*
X76126Y-14933D02*
X76126Y-14767D01*
X76376Y-14874D01*
X74833Y-21102D02*
X74821Y-21114D01*
X74786Y-21126D01*
X74762Y-21126D01*
X74726Y-21114D01*
X74702Y-21090D01*
X74691Y-21067D01*
X74679Y-21019D01*
X74679Y-20983D01*
X74691Y-20936D01*
X74702Y-20912D01*
X74726Y-20888D01*
X74762Y-20876D01*
X74786Y-20876D01*
X74821Y-20888D01*
X74833Y-20900D01*
X75048Y-20876D02*
X75000Y-20876D01*
X74976Y-20888D01*
X74964Y-20900D01*
X74941Y-20936D01*
X74929Y-20983D01*
X74929Y-21079D01*
X74941Y-21102D01*
X74952Y-21114D01*
X74976Y-21126D01*
X75024Y-21126D01*
X75048Y-21114D01*
X75060Y-21102D01*
X75071Y-21079D01*
X75071Y-21019D01*
X75060Y-20995D01*
X75048Y-20983D01*
X75024Y-20971D01*
X74976Y-20971D01*
X74952Y-20983D01*
X74941Y-20995D01*
X74929Y-21019D01*
X75983Y-23702D02*
X75971Y-23714D01*
X75936Y-23726D01*
X75912Y-23726D01*
X75876Y-23714D01*
X75852Y-23690D01*
X75841Y-23667D01*
X75829Y-23619D01*
X75829Y-23583D01*
X75841Y-23536D01*
X75852Y-23512D01*
X75876Y-23488D01*
X75912Y-23476D01*
X75936Y-23476D01*
X75971Y-23488D01*
X75983Y-23500D01*
X76221Y-23726D02*
X76079Y-23726D01*
X76150Y-23726D02*
X76150Y-23476D01*
X76126Y-23512D01*
X76102Y-23536D01*
X76079Y-23548D01*
G54D13*
X85870Y-16987D02*
X85870Y-17311D01*
X85889Y-17349D01*
X85908Y-17368D01*
X85946Y-17387D01*
X86023Y-17387D01*
X86061Y-17368D01*
X86080Y-17349D01*
X86099Y-17311D01*
X86099Y-16987D01*
X86270Y-17025D02*
X86289Y-17006D01*
X86327Y-16987D01*
X86423Y-16987D01*
X86461Y-17006D01*
X86480Y-17025D01*
X86499Y-17063D01*
X86499Y-17101D01*
X86480Y-17158D01*
X86251Y-17387D01*
X86499Y-17387D01*
X87168Y-17387D02*
X86939Y-17387D01*
X87053Y-17387D02*
X87053Y-16987D01*
X87015Y-17044D01*
X86977Y-17082D01*
X86939Y-17101D01*
X87549Y-17387D02*
X87320Y-17387D01*
X87434Y-17387D02*
X87434Y-16987D01*
X87396Y-17044D01*
X87358Y-17082D01*
X87320Y-17101D01*
X87930Y-17387D02*
X87701Y-17387D01*
X87815Y-17387D02*
X87815Y-16987D01*
X87777Y-17044D01*
X87739Y-17082D01*
X87701Y-17101D01*
X88063Y-16987D02*
X88330Y-16987D01*
X88158Y-17387D01*
G54D12*
X47368Y-15775D02*
X47382Y-15789D01*
X47396Y-15832D01*
X47396Y-15861D01*
X47382Y-15904D01*
X47354Y-15932D01*
X47325Y-15947D01*
X47268Y-15961D01*
X47225Y-15961D01*
X47168Y-15947D01*
X47139Y-15932D01*
X47111Y-15904D01*
X47096Y-15861D01*
X47096Y-15832D01*
X47111Y-15789D01*
X47125Y-15775D01*
X47096Y-15504D02*
X47096Y-15647D01*
X47239Y-15661D01*
X47225Y-15647D01*
X47211Y-15618D01*
X47211Y-15547D01*
X47225Y-15518D01*
X47239Y-15504D01*
X47268Y-15489D01*
X47339Y-15489D01*
X47368Y-15504D01*
X47382Y-15518D01*
X47396Y-15547D01*
X47396Y-15618D01*
X47382Y-15647D01*
X47368Y-15661D01*
X48318Y-15992D02*
X48332Y-16004D01*
X48346Y-16039D01*
X48346Y-16063D01*
X48332Y-16099D01*
X48304Y-16123D01*
X48275Y-16134D01*
X48218Y-16146D01*
X48175Y-16146D01*
X48118Y-16134D01*
X48089Y-16123D01*
X48061Y-16099D01*
X48046Y-16063D01*
X48046Y-16039D01*
X48061Y-16004D01*
X48075Y-15992D01*
X48346Y-15884D02*
X48046Y-15884D01*
X48046Y-15789D01*
X48061Y-15765D01*
X48075Y-15754D01*
X48104Y-15742D01*
X48146Y-15742D01*
X48175Y-15754D01*
X48189Y-15765D01*
X48204Y-15789D01*
X48204Y-15884D01*
X48346Y-15504D02*
X48346Y-15646D01*
X48346Y-15575D02*
X48046Y-15575D01*
X48089Y-15599D01*
X48118Y-15623D01*
X48132Y-15646D01*
G54D17*
X47732Y-15639D02*
X47732Y-15410D01*
X47846Y-15524D02*
X47618Y-15524D01*
G54D12*
X43118Y-16625D02*
X43132Y-16639D01*
X43146Y-16682D01*
X43146Y-16711D01*
X43132Y-16754D01*
X43104Y-16782D01*
X43075Y-16797D01*
X43018Y-16811D01*
X42975Y-16811D01*
X42918Y-16797D01*
X42889Y-16782D01*
X42861Y-16754D01*
X42846Y-16711D01*
X42846Y-16682D01*
X42861Y-16639D01*
X42875Y-16625D01*
X42846Y-16368D02*
X42846Y-16425D01*
X42861Y-16454D01*
X42875Y-16468D01*
X42918Y-16497D01*
X42975Y-16511D01*
X43089Y-16511D01*
X43118Y-16497D01*
X43132Y-16482D01*
X43146Y-16454D01*
X43146Y-16397D01*
X43132Y-16368D01*
X43118Y-16354D01*
X43089Y-16339D01*
X43018Y-16339D01*
X42989Y-16354D01*
X42975Y-16368D01*
X42961Y-16397D01*
X42961Y-16454D01*
X42975Y-16482D01*
X42989Y-16497D01*
X43018Y-16511D01*
X42718Y-16842D02*
X42732Y-16854D01*
X42746Y-16889D01*
X42746Y-16913D01*
X42732Y-16949D01*
X42704Y-16973D01*
X42675Y-16984D01*
X42618Y-16996D01*
X42575Y-16996D01*
X42518Y-16984D01*
X42489Y-16973D01*
X42461Y-16949D01*
X42446Y-16913D01*
X42446Y-16889D01*
X42461Y-16854D01*
X42475Y-16842D01*
X42746Y-16734D02*
X42446Y-16734D01*
X42446Y-16639D01*
X42461Y-16615D01*
X42475Y-16604D01*
X42504Y-16592D01*
X42546Y-16592D01*
X42575Y-16604D01*
X42589Y-16615D01*
X42604Y-16639D01*
X42604Y-16734D01*
X42746Y-16354D02*
X42746Y-16496D01*
X42746Y-16425D02*
X42446Y-16425D01*
X42489Y-16449D01*
X42518Y-16473D01*
X42532Y-16496D01*
G54D17*
X42682Y-13989D02*
X42682Y-13760D01*
X42796Y-13874D02*
X42568Y-13874D01*
G54D12*
X45518Y-26518D02*
X45532Y-26532D01*
X45546Y-26575D01*
X45546Y-26604D01*
X45532Y-26647D01*
X45504Y-26675D01*
X45475Y-26690D01*
X45418Y-26704D01*
X45375Y-26704D01*
X45318Y-26690D01*
X45289Y-26675D01*
X45261Y-26647D01*
X45246Y-26604D01*
X45246Y-26575D01*
X45261Y-26532D01*
X45275Y-26518D01*
X45275Y-26404D02*
X45261Y-26390D01*
X45246Y-26361D01*
X45246Y-26290D01*
X45261Y-26261D01*
X45275Y-26247D01*
X45304Y-26232D01*
X45332Y-26232D01*
X45375Y-26247D01*
X45546Y-26418D01*
X45546Y-26232D01*
X45546Y-25946D02*
X45546Y-26118D01*
X45546Y-26032D02*
X45246Y-26032D01*
X45289Y-26061D01*
X45318Y-26089D01*
X45332Y-26118D01*
X45118Y-26442D02*
X45132Y-26454D01*
X45146Y-26489D01*
X45146Y-26513D01*
X45132Y-26549D01*
X45104Y-26573D01*
X45075Y-26584D01*
X45018Y-26596D01*
X44975Y-26596D01*
X44918Y-26584D01*
X44889Y-26573D01*
X44861Y-26549D01*
X44846Y-26513D01*
X44846Y-26489D01*
X44861Y-26454D01*
X44875Y-26442D01*
X45146Y-26334D02*
X44846Y-26334D01*
X44846Y-26239D01*
X44861Y-26215D01*
X44875Y-26204D01*
X44904Y-26192D01*
X44946Y-26192D01*
X44975Y-26204D01*
X44989Y-26215D01*
X45004Y-26239D01*
X45004Y-26334D01*
X45146Y-25954D02*
X45146Y-26096D01*
X45146Y-26025D02*
X44846Y-26025D01*
X44889Y-26049D01*
X44918Y-26073D01*
X44932Y-26096D01*
G54D17*
X45082Y-24039D02*
X45082Y-23810D01*
X45196Y-23924D02*
X44968Y-23924D01*
G54D16*
X31768Y-17960D02*
X32368Y-17560D01*
X31768Y-17560D02*
X32368Y-17960D01*
X31768Y-17389D02*
X31768Y-17018D01*
X31996Y-17218D01*
X31996Y-17132D01*
X32025Y-17075D01*
X32054Y-17046D01*
X32111Y-17018D01*
X32254Y-17018D01*
X32311Y-17046D01*
X32339Y-17075D01*
X32368Y-17132D01*
X32368Y-17304D01*
X32339Y-17361D01*
X32311Y-17389D01*
X32775Y-18439D02*
X32746Y-18497D01*
X32718Y-18525D01*
X32661Y-18554D01*
X32632Y-18554D01*
X32575Y-18525D01*
X32546Y-18497D01*
X32518Y-18439D01*
X32518Y-18325D01*
X32546Y-18268D01*
X32575Y-18239D01*
X32632Y-18211D01*
X32661Y-18211D01*
X32718Y-18239D01*
X32746Y-18268D01*
X32775Y-18325D01*
X32775Y-18439D01*
X32804Y-18497D01*
X32832Y-18525D01*
X32889Y-18554D01*
X33004Y-18554D01*
X33061Y-18525D01*
X33089Y-18497D01*
X33118Y-18439D01*
X33118Y-18325D01*
X33089Y-18268D01*
X33061Y-18239D01*
X33004Y-18211D01*
X32889Y-18211D01*
X32832Y-18239D01*
X32804Y-18268D01*
X32775Y-18325D01*
X33118Y-17954D02*
X32518Y-17954D01*
X32946Y-17754D01*
X32518Y-17554D01*
X33118Y-17554D01*
X33118Y-17268D02*
X32518Y-17268D01*
X33118Y-17011D02*
X32804Y-17011D01*
X32746Y-17040D01*
X32718Y-17097D01*
X32718Y-17182D01*
X32746Y-17240D01*
X32775Y-17268D01*
X32718Y-16782D02*
X32718Y-16468D01*
X33118Y-16782D01*
X33118Y-16468D01*
X46568Y-19010D02*
X47168Y-18610D01*
X46568Y-18610D02*
X47168Y-19010D01*
X46625Y-18411D02*
X46596Y-18382D01*
X46568Y-18325D01*
X46568Y-18182D01*
X46596Y-18125D01*
X46625Y-18096D01*
X46682Y-18068D01*
X46739Y-18068D01*
X46825Y-18096D01*
X47168Y-18439D01*
X47168Y-18068D01*
X45775Y-18939D02*
X45746Y-18910D01*
X45718Y-18853D01*
X45718Y-18710D01*
X45746Y-18653D01*
X45775Y-18624D01*
X45832Y-18596D01*
X45889Y-18596D01*
X45975Y-18624D01*
X46318Y-18967D01*
X46318Y-18596D01*
X45718Y-18053D02*
X45718Y-18339D01*
X46004Y-18368D01*
X45975Y-18339D01*
X45946Y-18282D01*
X45946Y-18139D01*
X45975Y-18082D01*
X46004Y-18053D01*
X46061Y-18025D01*
X46204Y-18025D01*
X46261Y-18053D01*
X46289Y-18082D01*
X46318Y-18139D01*
X46318Y-18282D01*
X46289Y-18339D01*
X46261Y-18368D01*
X46318Y-17768D02*
X45718Y-17768D01*
X46146Y-17568D01*
X45718Y-17368D01*
X46318Y-17368D01*
X46318Y-17082D02*
X45718Y-17082D01*
X46318Y-16825D02*
X46004Y-16825D01*
X45946Y-16854D01*
X45918Y-16911D01*
X45918Y-16996D01*
X45946Y-17054D01*
X45975Y-17082D01*
X45918Y-16596D02*
X45918Y-16282D01*
X46318Y-16596D01*
X46318Y-16282D01*
G54D18*
X48042Y-10287D02*
X48042Y-10573D01*
X48022Y-10630D01*
X47984Y-10668D01*
X47927Y-10687D01*
X47889Y-10687D01*
X48442Y-10687D02*
X48213Y-10687D01*
X48327Y-10687D02*
X48327Y-10287D01*
X48289Y-10344D01*
X48251Y-10382D01*
X48213Y-10401D01*
X43772Y-10037D02*
X43772Y-09637D01*
X43867Y-09637D01*
X43925Y-09656D01*
X43963Y-09694D01*
X43982Y-09732D01*
X44001Y-09808D01*
X44001Y-09865D01*
X43982Y-09942D01*
X43963Y-09980D01*
X43925Y-10018D01*
X43867Y-10037D01*
X43772Y-10037D01*
X44401Y-09999D02*
X44382Y-10018D01*
X44325Y-10037D01*
X44287Y-10037D01*
X44229Y-10018D01*
X44191Y-09980D01*
X44172Y-09942D01*
X44153Y-09865D01*
X44153Y-09808D01*
X44172Y-09732D01*
X44191Y-09694D01*
X44229Y-09656D01*
X44287Y-09637D01*
X44325Y-09637D01*
X44382Y-09656D01*
X44401Y-09675D01*
X44477Y-10075D02*
X44782Y-10075D01*
X44877Y-10037D02*
X44877Y-09637D01*
X45030Y-09637D01*
X45068Y-09656D01*
X45087Y-09675D01*
X45106Y-09713D01*
X45106Y-09770D01*
X45087Y-09808D01*
X45068Y-09827D01*
X45030Y-09846D01*
X44877Y-09846D01*
X45353Y-09637D02*
X45430Y-09637D01*
X45468Y-09656D01*
X45506Y-09694D01*
X45525Y-09770D01*
X45525Y-09904D01*
X45506Y-09980D01*
X45468Y-10018D01*
X45430Y-10037D01*
X45353Y-10037D01*
X45315Y-10018D01*
X45277Y-09980D01*
X45258Y-09904D01*
X45258Y-09770D01*
X45277Y-09694D01*
X45315Y-09656D01*
X45353Y-09637D01*
X45658Y-09637D02*
X45753Y-10037D01*
X45830Y-09751D01*
X45906Y-10037D01*
X46001Y-09637D01*
X46153Y-09827D02*
X46287Y-09827D01*
X46344Y-10037D02*
X46153Y-10037D01*
X46153Y-09637D01*
X46344Y-09637D01*
X46744Y-10037D02*
X46610Y-09846D01*
X46515Y-10037D02*
X46515Y-09637D01*
X46668Y-09637D01*
X46706Y-09656D01*
X46725Y-09675D01*
X46744Y-09713D01*
X46744Y-09770D01*
X46725Y-09808D01*
X46706Y-09827D01*
X46668Y-09846D01*
X46515Y-09846D01*
X46820Y-10075D02*
X47125Y-10075D01*
X47335Y-09637D02*
X47335Y-09923D01*
X47315Y-09980D01*
X47277Y-10018D01*
X47220Y-10037D01*
X47182Y-10037D01*
X47506Y-09923D02*
X47697Y-09923D01*
X47468Y-10037D02*
X47601Y-09637D01*
X47735Y-10037D01*
X48097Y-09999D02*
X48078Y-10018D01*
X48021Y-10037D01*
X47983Y-10037D01*
X47925Y-10018D01*
X47887Y-09980D01*
X47868Y-09942D01*
X47849Y-09865D01*
X47849Y-09808D01*
X47868Y-09732D01*
X47887Y-09694D01*
X47925Y-09656D01*
X47983Y-09637D01*
X48021Y-09637D01*
X48078Y-09656D01*
X48097Y-09675D01*
X48268Y-10037D02*
X48268Y-09637D01*
X48497Y-10037D02*
X48325Y-09808D01*
X48497Y-09637D02*
X48268Y-09865D01*
G54D13*
X40301Y-22211D02*
X40301Y-22502D01*
X40318Y-22536D01*
X40335Y-22554D01*
X40369Y-22571D01*
X40438Y-22571D01*
X40472Y-22554D01*
X40489Y-22536D01*
X40506Y-22502D01*
X40506Y-22211D01*
X40866Y-22571D02*
X40661Y-22571D01*
X40763Y-22571D02*
X40763Y-22211D01*
X40729Y-22262D01*
X40695Y-22296D01*
X40661Y-22314D01*
X39452Y-22071D02*
X39281Y-22071D01*
X39281Y-21711D01*
X39572Y-22071D02*
X39572Y-21711D01*
X39692Y-21968D01*
X39812Y-21711D01*
X39812Y-22071D01*
X39948Y-21711D02*
X40171Y-21711D01*
X40051Y-21848D01*
X40103Y-21848D01*
X40137Y-21865D01*
X40154Y-21882D01*
X40171Y-21916D01*
X40171Y-22002D01*
X40154Y-22036D01*
X40137Y-22054D01*
X40103Y-22071D01*
X40000Y-22071D01*
X39966Y-22054D01*
X39948Y-22036D01*
X40309Y-22054D02*
X40360Y-22071D01*
X40446Y-22071D01*
X40480Y-22054D01*
X40497Y-22036D01*
X40514Y-22002D01*
X40514Y-21968D01*
X40497Y-21934D01*
X40480Y-21916D01*
X40446Y-21899D01*
X40377Y-21882D01*
X40343Y-21865D01*
X40326Y-21848D01*
X40309Y-21814D01*
X40309Y-21779D01*
X40326Y-21745D01*
X40343Y-21728D01*
X40377Y-21711D01*
X40463Y-21711D01*
X40514Y-21728D01*
X40823Y-21711D02*
X40754Y-21711D01*
X40720Y-21728D01*
X40703Y-21745D01*
X40669Y-21796D01*
X40652Y-21865D01*
X40652Y-22002D01*
X40669Y-22036D01*
X40686Y-22054D01*
X40720Y-22071D01*
X40789Y-22071D01*
X40823Y-22054D01*
X40840Y-22036D01*
X40857Y-22002D01*
X40857Y-21916D01*
X40840Y-21882D01*
X40823Y-21865D01*
X40789Y-21848D01*
X40720Y-21848D01*
X40686Y-21865D01*
X40669Y-21882D01*
X40652Y-21916D01*
X41029Y-22071D02*
X41097Y-22071D01*
X41132Y-22054D01*
X41149Y-22036D01*
X41183Y-21985D01*
X41200Y-21916D01*
X41200Y-21779D01*
X41183Y-21745D01*
X41166Y-21728D01*
X41132Y-21711D01*
X41063Y-21711D01*
X41029Y-21728D01*
X41012Y-21745D01*
X40995Y-21779D01*
X40995Y-21865D01*
X41012Y-21899D01*
X41029Y-21916D01*
X41063Y-21934D01*
X41132Y-21934D01*
X41166Y-21916D01*
X41183Y-21899D01*
X41200Y-21865D01*
X41509Y-21711D02*
X41440Y-21711D01*
X41406Y-21728D01*
X41389Y-21745D01*
X41355Y-21796D01*
X41338Y-21865D01*
X41338Y-22002D01*
X41355Y-22036D01*
X41372Y-22054D01*
X41406Y-22071D01*
X41475Y-22071D01*
X41509Y-22054D01*
X41526Y-22036D01*
X41543Y-22002D01*
X41543Y-21916D01*
X41526Y-21882D01*
X41509Y-21865D01*
X41475Y-21848D01*
X41406Y-21848D01*
X41372Y-21865D01*
X41355Y-21882D01*
X41338Y-21916D01*
X41869Y-21711D02*
X41698Y-21711D01*
X41681Y-21882D01*
X41698Y-21865D01*
X41732Y-21848D01*
X41818Y-21848D01*
X41852Y-21865D01*
X41869Y-21882D01*
X41886Y-21916D01*
X41886Y-22002D01*
X41869Y-22036D01*
X41852Y-22054D01*
X41818Y-22071D01*
X41732Y-22071D01*
X41698Y-22054D01*
X41681Y-22036D01*
G54D18*
X45725Y-30187D02*
X45725Y-29787D01*
X45878Y-29787D01*
X45916Y-29806D01*
X45935Y-29825D01*
X45954Y-29863D01*
X45954Y-29920D01*
X45935Y-29958D01*
X45916Y-29977D01*
X45878Y-29996D01*
X45725Y-29996D01*
X46125Y-30187D02*
X46125Y-29787D01*
X46391Y-29787D02*
X46468Y-29787D01*
X46506Y-29806D01*
X46544Y-29844D01*
X46563Y-29920D01*
X46563Y-30054D01*
X46544Y-30130D01*
X46506Y-30168D01*
X46468Y-30187D01*
X46391Y-30187D01*
X46353Y-30168D01*
X46315Y-30130D01*
X46296Y-30054D01*
X46296Y-29920D01*
X46315Y-29844D01*
X46353Y-29806D01*
X46391Y-29787D01*
X46944Y-30187D02*
X46715Y-30187D01*
X46829Y-30187D02*
X46829Y-29787D01*
X46791Y-29844D01*
X46753Y-29882D01*
X46715Y-29901D01*
G54D13*
X42156Y-30149D02*
X42137Y-30168D01*
X42080Y-30187D01*
X42042Y-30187D01*
X41984Y-30168D01*
X41946Y-30130D01*
X41927Y-30092D01*
X41908Y-30015D01*
X41908Y-29958D01*
X41927Y-29882D01*
X41946Y-29844D01*
X41984Y-29806D01*
X42042Y-29787D01*
X42080Y-29787D01*
X42137Y-29806D01*
X42156Y-29825D01*
X42403Y-29787D02*
X42480Y-29787D01*
X42518Y-29806D01*
X42556Y-29844D01*
X42575Y-29920D01*
X42575Y-30054D01*
X42556Y-30130D01*
X42518Y-30168D01*
X42480Y-30187D01*
X42403Y-30187D01*
X42365Y-30168D01*
X42327Y-30130D01*
X42308Y-30054D01*
X42308Y-29920D01*
X42327Y-29844D01*
X42365Y-29806D01*
X42403Y-29787D01*
X42746Y-30187D02*
X42746Y-29787D01*
X42975Y-30187D01*
X42975Y-29787D01*
X43165Y-30187D02*
X43165Y-29787D01*
X43394Y-30187D01*
X43394Y-29787D01*
X43489Y-30225D02*
X43794Y-30225D01*
X43870Y-29825D02*
X43889Y-29806D01*
X43927Y-29787D01*
X44023Y-29787D01*
X44061Y-29806D01*
X44080Y-29825D01*
X44099Y-29863D01*
X44099Y-29901D01*
X44080Y-29958D01*
X43851Y-30187D01*
X44099Y-30187D01*
X44346Y-29787D02*
X44385Y-29787D01*
X44423Y-29806D01*
X44442Y-29825D01*
X44461Y-29863D01*
X44480Y-29939D01*
X44480Y-30035D01*
X44461Y-30111D01*
X44442Y-30149D01*
X44423Y-30168D01*
X44385Y-30187D01*
X44346Y-30187D01*
X44308Y-30168D01*
X44289Y-30149D01*
X44270Y-30111D01*
X44251Y-30035D01*
X44251Y-29939D01*
X44270Y-29863D01*
X44289Y-29825D01*
X44308Y-29806D01*
X44346Y-29787D01*
X44613Y-29787D02*
X44880Y-30187D01*
X44880Y-29787D02*
X44613Y-30187D01*
X45013Y-29825D02*
X45032Y-29806D01*
X45070Y-29787D01*
X45166Y-29787D01*
X45204Y-29806D01*
X45223Y-29825D01*
X45242Y-29863D01*
X45242Y-29901D01*
X45223Y-29958D01*
X44994Y-30187D01*
X45242Y-30187D01*
X35330Y-29187D02*
X35330Y-28787D01*
X35483Y-28787D01*
X35521Y-28806D01*
X35540Y-28825D01*
X35559Y-28863D01*
X35559Y-28920D01*
X35540Y-28958D01*
X35521Y-28977D01*
X35483Y-28996D01*
X35330Y-28996D01*
X35940Y-29187D02*
X35711Y-29187D01*
X35825Y-29187D02*
X35825Y-28787D01*
X35787Y-28844D01*
X35749Y-28882D01*
X35711Y-28901D01*
G54D11*
X35712Y-10035D02*
X35712Y-10294D01*
X35725Y-10324D01*
X35738Y-10339D01*
X35765Y-10355D01*
X35818Y-10355D01*
X35845Y-10339D01*
X35858Y-10324D01*
X35872Y-10294D01*
X35872Y-10035D01*
X35991Y-10065D02*
X36005Y-10050D01*
X36031Y-10035D01*
X36098Y-10035D01*
X36125Y-10050D01*
X36138Y-10065D01*
X36151Y-10095D01*
X36151Y-10126D01*
X36138Y-10172D01*
X35978Y-10355D01*
X36151Y-10355D01*
X37731Y-10035D02*
X37731Y-10263D01*
X37717Y-10309D01*
X37691Y-10339D01*
X37651Y-10355D01*
X37624Y-10355D01*
X37917Y-10035D02*
X37944Y-10035D01*
X37970Y-10050D01*
X37984Y-10065D01*
X37997Y-10095D01*
X38010Y-10156D01*
X38010Y-10233D01*
X37997Y-10294D01*
X37984Y-10324D01*
X37970Y-10339D01*
X37944Y-10355D01*
X37917Y-10355D01*
X37890Y-10339D01*
X37877Y-10324D01*
X37864Y-10294D01*
X37850Y-10233D01*
X37850Y-10156D01*
X37864Y-10095D01*
X37877Y-10065D01*
X37890Y-10050D01*
X37917Y-10035D01*
X38184Y-10035D02*
X38211Y-10035D01*
X38237Y-10050D01*
X38251Y-10065D01*
X38264Y-10095D01*
X38277Y-10156D01*
X38277Y-10233D01*
X38264Y-10294D01*
X38251Y-10324D01*
X38237Y-10339D01*
X38211Y-10355D01*
X38184Y-10355D01*
X38157Y-10339D01*
X38144Y-10324D01*
X38131Y-10294D01*
X38117Y-10233D01*
X38117Y-10156D01*
X38131Y-10095D01*
X38144Y-10065D01*
X38157Y-10050D01*
X38184Y-10035D01*
X38398Y-10233D02*
X38611Y-10233D01*
X38798Y-10035D02*
X38825Y-10035D01*
X38851Y-10050D01*
X38865Y-10065D01*
X38878Y-10095D01*
X38891Y-10156D01*
X38891Y-10233D01*
X38878Y-10294D01*
X38865Y-10324D01*
X38851Y-10339D01*
X38825Y-10355D01*
X38798Y-10355D01*
X38771Y-10339D01*
X38758Y-10324D01*
X38745Y-10294D01*
X38731Y-10233D01*
X38731Y-10156D01*
X38745Y-10095D01*
X38758Y-10065D01*
X38771Y-10050D01*
X38798Y-10035D01*
X39065Y-10035D02*
X39092Y-10035D01*
X39118Y-10050D01*
X39132Y-10065D01*
X39145Y-10095D01*
X39158Y-10156D01*
X39158Y-10233D01*
X39145Y-10294D01*
X39132Y-10324D01*
X39118Y-10339D01*
X39092Y-10355D01*
X39065Y-10355D01*
X39038Y-10339D01*
X39025Y-10324D01*
X39012Y-10294D01*
X38998Y-10233D01*
X38998Y-10156D01*
X39012Y-10095D01*
X39025Y-10065D01*
X39038Y-10050D01*
X39065Y-10035D01*
X39399Y-10035D02*
X39345Y-10035D01*
X39319Y-10050D01*
X39305Y-10065D01*
X39279Y-10111D01*
X39265Y-10172D01*
X39265Y-10294D01*
X39279Y-10324D01*
X39292Y-10339D01*
X39319Y-10355D01*
X39372Y-10355D01*
X39399Y-10339D01*
X39412Y-10324D01*
X39425Y-10294D01*
X39425Y-10217D01*
X39412Y-10187D01*
X39399Y-10172D01*
X39372Y-10156D01*
X39319Y-10156D01*
X39292Y-10172D01*
X39279Y-10187D01*
X39265Y-10217D01*
X39532Y-10065D02*
X39546Y-10050D01*
X39572Y-10035D01*
X39639Y-10035D01*
X39666Y-10050D01*
X39679Y-10065D01*
X39692Y-10095D01*
X39692Y-10126D01*
X39679Y-10172D01*
X39519Y-10355D01*
X39692Y-10355D01*
X39813Y-10355D02*
X39813Y-10035D01*
X39973Y-10355D01*
X39973Y-10035D01*
X40239Y-10355D02*
X40106Y-10355D01*
X40106Y-10035D01*
G54D12*
X41833Y-12752D02*
X41821Y-12764D01*
X41786Y-12776D01*
X41762Y-12776D01*
X41726Y-12764D01*
X41702Y-12740D01*
X41691Y-12717D01*
X41679Y-12669D01*
X41679Y-12633D01*
X41691Y-12586D01*
X41702Y-12562D01*
X41726Y-12538D01*
X41762Y-12526D01*
X41786Y-12526D01*
X41821Y-12538D01*
X41833Y-12550D01*
X41917Y-12526D02*
X42071Y-12526D01*
X41988Y-12621D01*
X42024Y-12621D01*
X42048Y-12633D01*
X42060Y-12645D01*
X42071Y-12669D01*
X42071Y-12729D01*
X42060Y-12752D01*
X42048Y-12764D01*
X42024Y-12776D01*
X41952Y-12776D01*
X41929Y-12764D01*
X41917Y-12752D01*
X41833Y-11152D02*
X41821Y-11164D01*
X41786Y-11176D01*
X41762Y-11176D01*
X41726Y-11164D01*
X41702Y-11140D01*
X41691Y-11117D01*
X41679Y-11069D01*
X41679Y-11033D01*
X41691Y-10986D01*
X41702Y-10962D01*
X41726Y-10938D01*
X41762Y-10926D01*
X41786Y-10926D01*
X41821Y-10938D01*
X41833Y-10950D01*
X42048Y-11010D02*
X42048Y-11176D01*
X41988Y-10914D02*
X41929Y-11093D01*
X42083Y-11093D01*
X45252Y-21936D02*
X45264Y-21948D01*
X45276Y-21983D01*
X45276Y-22007D01*
X45264Y-22043D01*
X45240Y-22067D01*
X45217Y-22078D01*
X45169Y-22090D01*
X45133Y-22090D01*
X45086Y-22078D01*
X45062Y-22067D01*
X45038Y-22043D01*
X45026Y-22007D01*
X45026Y-21983D01*
X45038Y-21948D01*
X45050Y-21936D01*
X45276Y-21698D02*
X45276Y-21840D01*
X45276Y-21769D02*
X45026Y-21769D01*
X45062Y-21793D01*
X45086Y-21817D01*
X45098Y-21840D01*
X45026Y-21471D02*
X45026Y-21590D01*
X45145Y-21602D01*
X45133Y-21590D01*
X45121Y-21567D01*
X45121Y-21507D01*
X45133Y-21483D01*
X45145Y-21471D01*
X45169Y-21460D01*
X45229Y-21460D01*
X45252Y-21471D01*
X45264Y-21483D01*
X45276Y-21507D01*
X45276Y-21567D01*
X45264Y-21590D01*
X45252Y-21602D01*
X36702Y-24236D02*
X36714Y-24248D01*
X36726Y-24283D01*
X36726Y-24307D01*
X36714Y-24343D01*
X36690Y-24367D01*
X36667Y-24378D01*
X36619Y-24390D01*
X36583Y-24390D01*
X36536Y-24378D01*
X36512Y-24367D01*
X36488Y-24343D01*
X36476Y-24307D01*
X36476Y-24283D01*
X36488Y-24248D01*
X36500Y-24236D01*
X36726Y-23998D02*
X36726Y-24140D01*
X36726Y-24069D02*
X36476Y-24069D01*
X36512Y-24093D01*
X36536Y-24117D01*
X36548Y-24140D01*
X36560Y-23783D02*
X36726Y-23783D01*
X36464Y-23843D02*
X36643Y-23902D01*
X36643Y-23748D01*
X36702Y-20086D02*
X36714Y-20098D01*
X36726Y-20133D01*
X36726Y-20157D01*
X36714Y-20193D01*
X36690Y-20217D01*
X36667Y-20228D01*
X36619Y-20240D01*
X36583Y-20240D01*
X36536Y-20228D01*
X36512Y-20217D01*
X36488Y-20193D01*
X36476Y-20157D01*
X36476Y-20133D01*
X36488Y-20098D01*
X36500Y-20086D01*
X36726Y-19848D02*
X36726Y-19990D01*
X36726Y-19919D02*
X36476Y-19919D01*
X36512Y-19943D01*
X36536Y-19967D01*
X36548Y-19990D01*
X36476Y-19764D02*
X36476Y-19610D01*
X36571Y-19693D01*
X36571Y-19657D01*
X36583Y-19633D01*
X36595Y-19621D01*
X36619Y-19610D01*
X36679Y-19610D01*
X36702Y-19621D01*
X36714Y-19633D01*
X36726Y-19657D01*
X36726Y-19729D01*
X36714Y-19752D01*
X36702Y-19764D01*
X41214Y-26852D02*
X41202Y-26864D01*
X41167Y-26876D01*
X41143Y-26876D01*
X41107Y-26864D01*
X41083Y-26840D01*
X41072Y-26817D01*
X41060Y-26769D01*
X41060Y-26733D01*
X41072Y-26686D01*
X41083Y-26662D01*
X41107Y-26638D01*
X41143Y-26626D01*
X41167Y-26626D01*
X41202Y-26638D01*
X41214Y-26650D01*
X41452Y-26876D02*
X41310Y-26876D01*
X41381Y-26876D02*
X41381Y-26626D01*
X41357Y-26662D01*
X41333Y-26686D01*
X41310Y-26698D01*
X41548Y-26650D02*
X41560Y-26638D01*
X41583Y-26626D01*
X41643Y-26626D01*
X41667Y-26638D01*
X41679Y-26650D01*
X41690Y-26674D01*
X41690Y-26698D01*
X41679Y-26733D01*
X41536Y-26876D01*
X41690Y-26876D01*
X42664Y-26852D02*
X42652Y-26864D01*
X42617Y-26876D01*
X42593Y-26876D01*
X42557Y-26864D01*
X42533Y-26840D01*
X42522Y-26817D01*
X42510Y-26769D01*
X42510Y-26733D01*
X42522Y-26686D01*
X42533Y-26662D01*
X42557Y-26638D01*
X42593Y-26626D01*
X42617Y-26626D01*
X42652Y-26638D01*
X42664Y-26650D01*
X42902Y-26876D02*
X42760Y-26876D01*
X42831Y-26876D02*
X42831Y-26626D01*
X42807Y-26662D01*
X42783Y-26686D01*
X42760Y-26698D01*
X43057Y-26626D02*
X43081Y-26626D01*
X43105Y-26638D01*
X43117Y-26650D01*
X43129Y-26674D01*
X43140Y-26721D01*
X43140Y-26781D01*
X43129Y-26829D01*
X43117Y-26852D01*
X43105Y-26864D01*
X43081Y-26876D01*
X43057Y-26876D01*
X43033Y-26864D01*
X43021Y-26852D01*
X43010Y-26829D01*
X42998Y-26781D01*
X42998Y-26721D01*
X43010Y-26674D01*
X43021Y-26650D01*
X43033Y-26638D01*
X43057Y-26626D01*
X36214Y-22202D02*
X36202Y-22214D01*
X36167Y-22226D01*
X36143Y-22226D01*
X36107Y-22214D01*
X36083Y-22190D01*
X36072Y-22167D01*
X36060Y-22119D01*
X36060Y-22083D01*
X36072Y-22036D01*
X36083Y-22012D01*
X36107Y-21988D01*
X36143Y-21976D01*
X36167Y-21976D01*
X36202Y-21988D01*
X36214Y-22000D01*
X36452Y-22226D02*
X36310Y-22226D01*
X36381Y-22226D02*
X36381Y-21976D01*
X36357Y-22012D01*
X36333Y-22036D01*
X36310Y-22048D01*
X36571Y-22226D02*
X36619Y-22226D01*
X36643Y-22214D01*
X36655Y-22202D01*
X36679Y-22167D01*
X36690Y-22119D01*
X36690Y-22024D01*
X36679Y-22000D01*
X36667Y-21988D01*
X36643Y-21976D01*
X36595Y-21976D01*
X36571Y-21988D01*
X36560Y-22000D01*
X36548Y-22024D01*
X36548Y-22083D01*
X36560Y-22107D01*
X36571Y-22119D01*
X36595Y-22131D01*
X36643Y-22131D01*
X36667Y-22119D01*
X36679Y-22107D01*
X36690Y-22083D01*
X38764Y-18402D02*
X38752Y-18414D01*
X38717Y-18426D01*
X38693Y-18426D01*
X38657Y-18414D01*
X38633Y-18390D01*
X38622Y-18367D01*
X38610Y-18319D01*
X38610Y-18283D01*
X38622Y-18236D01*
X38633Y-18212D01*
X38657Y-18188D01*
X38693Y-18176D01*
X38717Y-18176D01*
X38752Y-18188D01*
X38764Y-18200D01*
X39002Y-18426D02*
X38860Y-18426D01*
X38931Y-18426D02*
X38931Y-18176D01*
X38907Y-18212D01*
X38883Y-18236D01*
X38860Y-18248D01*
X39145Y-18283D02*
X39121Y-18271D01*
X39110Y-18260D01*
X39098Y-18236D01*
X39098Y-18224D01*
X39110Y-18200D01*
X39121Y-18188D01*
X39145Y-18176D01*
X39193Y-18176D01*
X39217Y-18188D01*
X39229Y-18200D01*
X39240Y-18224D01*
X39240Y-18236D01*
X39229Y-18260D01*
X39217Y-18271D01*
X39193Y-18283D01*
X39145Y-18283D01*
X39121Y-18295D01*
X39110Y-18307D01*
X39098Y-18331D01*
X39098Y-18379D01*
X39110Y-18402D01*
X39121Y-18414D01*
X39145Y-18426D01*
X39193Y-18426D01*
X39217Y-18414D01*
X39229Y-18402D01*
X39240Y-18379D01*
X39240Y-18331D01*
X39229Y-18307D01*
X39217Y-18295D01*
X39193Y-18283D01*
X33183Y-10276D02*
X33100Y-10157D01*
X33041Y-10276D02*
X33041Y-10026D01*
X33136Y-10026D01*
X33160Y-10038D01*
X33171Y-10050D01*
X33183Y-10074D01*
X33183Y-10110D01*
X33171Y-10133D01*
X33160Y-10145D01*
X33136Y-10157D01*
X33041Y-10157D01*
X33279Y-10050D02*
X33291Y-10038D01*
X33314Y-10026D01*
X33374Y-10026D01*
X33398Y-10038D01*
X33410Y-10050D01*
X33421Y-10074D01*
X33421Y-10098D01*
X33410Y-10133D01*
X33267Y-10276D01*
X33421Y-10276D01*
X38764Y-17626D02*
X38681Y-17507D01*
X38622Y-17626D02*
X38622Y-17376D01*
X38717Y-17376D01*
X38741Y-17388D01*
X38752Y-17400D01*
X38764Y-17424D01*
X38764Y-17460D01*
X38752Y-17483D01*
X38741Y-17495D01*
X38717Y-17507D01*
X38622Y-17507D01*
X39002Y-17626D02*
X38860Y-17626D01*
X38931Y-17626D02*
X38931Y-17376D01*
X38907Y-17412D01*
X38883Y-17436D01*
X38860Y-17448D01*
X39157Y-17376D02*
X39181Y-17376D01*
X39205Y-17388D01*
X39217Y-17400D01*
X39229Y-17424D01*
X39240Y-17471D01*
X39240Y-17531D01*
X39229Y-17579D01*
X39217Y-17602D01*
X39205Y-17614D01*
X39181Y-17626D01*
X39157Y-17626D01*
X39133Y-17614D01*
X39121Y-17602D01*
X39110Y-17579D01*
X39098Y-17531D01*
X39098Y-17471D01*
X39110Y-17424D01*
X39121Y-17400D01*
X39133Y-17388D01*
X39157Y-17376D01*
X34983Y-17626D02*
X34900Y-17507D01*
X34841Y-17626D02*
X34841Y-17376D01*
X34936Y-17376D01*
X34960Y-17388D01*
X34971Y-17400D01*
X34983Y-17424D01*
X34983Y-17460D01*
X34971Y-17483D01*
X34960Y-17495D01*
X34936Y-17507D01*
X34841Y-17507D01*
X35221Y-17626D02*
X35079Y-17626D01*
X35150Y-17626D02*
X35150Y-17376D01*
X35126Y-17412D01*
X35102Y-17436D01*
X35079Y-17448D01*
X41783Y-15102D02*
X41771Y-15114D01*
X41736Y-15126D01*
X41712Y-15126D01*
X41676Y-15114D01*
X41652Y-15090D01*
X41641Y-15067D01*
X41629Y-15019D01*
X41629Y-14983D01*
X41641Y-14936D01*
X41652Y-14912D01*
X41676Y-14888D01*
X41712Y-14876D01*
X41736Y-14876D01*
X41771Y-14888D01*
X41783Y-14900D01*
X41879Y-14900D02*
X41891Y-14888D01*
X41914Y-14876D01*
X41974Y-14876D01*
X41998Y-14888D01*
X42010Y-14900D01*
X42021Y-14924D01*
X42021Y-14948D01*
X42010Y-14983D01*
X41867Y-15126D01*
X42021Y-15126D01*
X40476Y-27186D02*
X40357Y-27269D01*
X40476Y-27328D02*
X40226Y-27328D01*
X40226Y-27233D01*
X40238Y-27209D01*
X40250Y-27198D01*
X40274Y-27186D01*
X40310Y-27186D01*
X40333Y-27198D01*
X40345Y-27209D01*
X40357Y-27233D01*
X40357Y-27328D01*
X40476Y-26948D02*
X40476Y-27090D01*
X40476Y-27019D02*
X40226Y-27019D01*
X40262Y-27043D01*
X40286Y-27067D01*
X40298Y-27090D01*
X40476Y-26710D02*
X40476Y-26852D01*
X40476Y-26781D02*
X40226Y-26781D01*
X40262Y-26805D01*
X40286Y-26829D01*
X40298Y-26852D01*
X37264Y-25926D02*
X37181Y-25807D01*
X37122Y-25926D02*
X37122Y-25676D01*
X37217Y-25676D01*
X37241Y-25688D01*
X37252Y-25700D01*
X37264Y-25724D01*
X37264Y-25760D01*
X37252Y-25783D01*
X37241Y-25795D01*
X37217Y-25807D01*
X37122Y-25807D01*
X37502Y-25926D02*
X37360Y-25926D01*
X37431Y-25926D02*
X37431Y-25676D01*
X37407Y-25712D01*
X37383Y-25736D01*
X37360Y-25748D01*
X37598Y-25700D02*
X37610Y-25688D01*
X37633Y-25676D01*
X37693Y-25676D01*
X37717Y-25688D01*
X37729Y-25700D01*
X37740Y-25724D01*
X37740Y-25748D01*
X37729Y-25783D01*
X37586Y-25926D01*
X37740Y-25926D01*
X36126Y-26886D02*
X36007Y-26969D01*
X36126Y-27028D02*
X35876Y-27028D01*
X35876Y-26933D01*
X35888Y-26909D01*
X35900Y-26898D01*
X35924Y-26886D01*
X35960Y-26886D01*
X35983Y-26898D01*
X35995Y-26909D01*
X36007Y-26933D01*
X36007Y-27028D01*
X36126Y-26648D02*
X36126Y-26790D01*
X36126Y-26719D02*
X35876Y-26719D01*
X35912Y-26743D01*
X35936Y-26767D01*
X35948Y-26790D01*
X35876Y-26564D02*
X35876Y-26410D01*
X35971Y-26493D01*
X35971Y-26457D01*
X35983Y-26433D01*
X35995Y-26421D01*
X36019Y-26410D01*
X36079Y-26410D01*
X36102Y-26421D01*
X36114Y-26433D01*
X36126Y-26457D01*
X36126Y-26529D01*
X36114Y-26552D01*
X36102Y-26564D01*
X41783Y-15952D02*
X41771Y-15964D01*
X41736Y-15976D01*
X41712Y-15976D01*
X41676Y-15964D01*
X41652Y-15940D01*
X41641Y-15917D01*
X41629Y-15869D01*
X41629Y-15833D01*
X41641Y-15786D01*
X41652Y-15762D01*
X41676Y-15738D01*
X41712Y-15726D01*
X41736Y-15726D01*
X41771Y-15738D01*
X41783Y-15750D01*
X42021Y-15976D02*
X41879Y-15976D01*
X41950Y-15976D02*
X41950Y-15726D01*
X41926Y-15762D01*
X41902Y-15786D01*
X41879Y-15798D01*
X41833Y-11976D02*
X41750Y-11857D01*
X41691Y-11976D02*
X41691Y-11726D01*
X41786Y-11726D01*
X41810Y-11738D01*
X41821Y-11750D01*
X41833Y-11774D01*
X41833Y-11810D01*
X41821Y-11833D01*
X41810Y-11845D01*
X41786Y-11857D01*
X41691Y-11857D01*
X42048Y-11726D02*
X42000Y-11726D01*
X41976Y-11738D01*
X41964Y-11750D01*
X41941Y-11786D01*
X41929Y-11833D01*
X41929Y-11929D01*
X41941Y-11952D01*
X41952Y-11964D01*
X41976Y-11976D01*
X42024Y-11976D01*
X42048Y-11964D01*
X42060Y-11952D01*
X42071Y-11929D01*
X42071Y-11869D01*
X42060Y-11845D01*
X42048Y-11833D01*
X42024Y-11821D01*
X41976Y-11821D01*
X41952Y-11833D01*
X41941Y-11845D01*
X41929Y-11869D01*
X41833Y-13576D02*
X41750Y-13457D01*
X41691Y-13576D02*
X41691Y-13326D01*
X41786Y-13326D01*
X41810Y-13338D01*
X41821Y-13350D01*
X41833Y-13374D01*
X41833Y-13410D01*
X41821Y-13433D01*
X41810Y-13445D01*
X41786Y-13457D01*
X41691Y-13457D01*
X42060Y-13326D02*
X41941Y-13326D01*
X41929Y-13445D01*
X41941Y-13433D01*
X41964Y-13421D01*
X42024Y-13421D01*
X42048Y-13433D01*
X42060Y-13445D01*
X42071Y-13469D01*
X42071Y-13529D01*
X42060Y-13552D01*
X42048Y-13564D01*
X42024Y-13576D01*
X41964Y-13576D01*
X41941Y-13564D01*
X41929Y-13552D01*
X32202Y-20586D02*
X32214Y-20598D01*
X32226Y-20633D01*
X32226Y-20657D01*
X32214Y-20693D01*
X32190Y-20717D01*
X32167Y-20728D01*
X32119Y-20740D01*
X32083Y-20740D01*
X32036Y-20728D01*
X32012Y-20717D01*
X31988Y-20693D01*
X31976Y-20657D01*
X31976Y-20633D01*
X31988Y-20598D01*
X32000Y-20586D01*
X32000Y-20490D02*
X31988Y-20478D01*
X31976Y-20455D01*
X31976Y-20395D01*
X31988Y-20371D01*
X32000Y-20359D01*
X32024Y-20348D01*
X32048Y-20348D01*
X32083Y-20359D01*
X32226Y-20502D01*
X32226Y-20348D01*
X31976Y-20264D02*
X31976Y-20098D01*
X32226Y-20205D01*
X32202Y-19236D02*
X32214Y-19248D01*
X32226Y-19283D01*
X32226Y-19307D01*
X32214Y-19343D01*
X32190Y-19367D01*
X32167Y-19378D01*
X32119Y-19390D01*
X32083Y-19390D01*
X32036Y-19378D01*
X32012Y-19367D01*
X31988Y-19343D01*
X31976Y-19307D01*
X31976Y-19283D01*
X31988Y-19248D01*
X32000Y-19236D01*
X32000Y-19140D02*
X31988Y-19128D01*
X31976Y-19105D01*
X31976Y-19045D01*
X31988Y-19021D01*
X32000Y-19009D01*
X32024Y-18998D01*
X32048Y-18998D01*
X32083Y-19009D01*
X32226Y-19152D01*
X32226Y-18998D01*
X31976Y-18783D02*
X31976Y-18831D01*
X31988Y-18855D01*
X32000Y-18867D01*
X32036Y-18890D01*
X32083Y-18902D01*
X32179Y-18902D01*
X32202Y-18890D01*
X32214Y-18879D01*
X32226Y-18855D01*
X32226Y-18807D01*
X32214Y-18783D01*
X32202Y-18771D01*
X32179Y-18760D01*
X32119Y-18760D01*
X32095Y-18771D01*
X32083Y-18783D01*
X32071Y-18807D01*
X32071Y-18855D01*
X32083Y-18879D01*
X32095Y-18890D01*
X32119Y-18902D01*
X48502Y-20686D02*
X48514Y-20698D01*
X48526Y-20733D01*
X48526Y-20757D01*
X48514Y-20793D01*
X48490Y-20817D01*
X48467Y-20828D01*
X48419Y-20840D01*
X48383Y-20840D01*
X48336Y-20828D01*
X48312Y-20817D01*
X48288Y-20793D01*
X48276Y-20757D01*
X48276Y-20733D01*
X48288Y-20698D01*
X48300Y-20686D01*
X48300Y-20590D02*
X48288Y-20578D01*
X48276Y-20555D01*
X48276Y-20495D01*
X48288Y-20471D01*
X48300Y-20459D01*
X48324Y-20448D01*
X48348Y-20448D01*
X48383Y-20459D01*
X48526Y-20602D01*
X48526Y-20448D01*
X48360Y-20233D02*
X48526Y-20233D01*
X48264Y-20293D02*
X48443Y-20352D01*
X48443Y-20198D01*
X48502Y-22086D02*
X48514Y-22098D01*
X48526Y-22133D01*
X48526Y-22157D01*
X48514Y-22193D01*
X48490Y-22217D01*
X48467Y-22228D01*
X48419Y-22240D01*
X48383Y-22240D01*
X48336Y-22228D01*
X48312Y-22217D01*
X48288Y-22193D01*
X48276Y-22157D01*
X48276Y-22133D01*
X48288Y-22098D01*
X48300Y-22086D01*
X48300Y-21990D02*
X48288Y-21978D01*
X48276Y-21955D01*
X48276Y-21895D01*
X48288Y-21871D01*
X48300Y-21859D01*
X48324Y-21848D01*
X48348Y-21848D01*
X48383Y-21859D01*
X48526Y-22002D01*
X48526Y-21848D01*
X48276Y-21621D02*
X48276Y-21740D01*
X48395Y-21752D01*
X48383Y-21740D01*
X48371Y-21717D01*
X48371Y-21657D01*
X48383Y-21633D01*
X48395Y-21621D01*
X48419Y-21610D01*
X48479Y-21610D01*
X48502Y-21621D01*
X48514Y-21633D01*
X48526Y-21657D01*
X48526Y-21717D01*
X48514Y-21740D01*
X48502Y-21752D01*
X36314Y-18602D02*
X36302Y-18614D01*
X36267Y-18626D01*
X36243Y-18626D01*
X36207Y-18614D01*
X36183Y-18590D01*
X36172Y-18567D01*
X36160Y-18519D01*
X36160Y-18483D01*
X36172Y-18436D01*
X36183Y-18412D01*
X36207Y-18388D01*
X36243Y-18376D01*
X36267Y-18376D01*
X36302Y-18388D01*
X36314Y-18400D01*
X36410Y-18400D02*
X36422Y-18388D01*
X36445Y-18376D01*
X36505Y-18376D01*
X36529Y-18388D01*
X36541Y-18400D01*
X36552Y-18424D01*
X36552Y-18448D01*
X36541Y-18483D01*
X36398Y-18626D01*
X36552Y-18626D01*
X36636Y-18376D02*
X36790Y-18376D01*
X36707Y-18471D01*
X36743Y-18471D01*
X36767Y-18483D01*
X36779Y-18495D01*
X36790Y-18519D01*
X36790Y-18579D01*
X36779Y-18602D01*
X36767Y-18614D01*
X36743Y-18626D01*
X36671Y-18626D01*
X36648Y-18614D01*
X36636Y-18602D01*
X36364Y-17602D02*
X36352Y-17614D01*
X36317Y-17626D01*
X36293Y-17626D01*
X36257Y-17614D01*
X36233Y-17590D01*
X36222Y-17567D01*
X36210Y-17519D01*
X36210Y-17483D01*
X36222Y-17436D01*
X36233Y-17412D01*
X36257Y-17388D01*
X36293Y-17376D01*
X36317Y-17376D01*
X36352Y-17388D01*
X36364Y-17400D01*
X36460Y-17400D02*
X36472Y-17388D01*
X36495Y-17376D01*
X36555Y-17376D01*
X36579Y-17388D01*
X36591Y-17400D01*
X36602Y-17424D01*
X36602Y-17448D01*
X36591Y-17483D01*
X36448Y-17626D01*
X36602Y-17626D01*
X36698Y-17400D02*
X36710Y-17388D01*
X36733Y-17376D01*
X36793Y-17376D01*
X36817Y-17388D01*
X36829Y-17400D01*
X36840Y-17424D01*
X36840Y-17448D01*
X36829Y-17483D01*
X36686Y-17626D01*
X36840Y-17626D01*
X34114Y-26376D02*
X34031Y-26257D01*
X33972Y-26376D02*
X33972Y-26126D01*
X34067Y-26126D01*
X34091Y-26138D01*
X34102Y-26150D01*
X34114Y-26174D01*
X34114Y-26210D01*
X34102Y-26233D01*
X34091Y-26245D01*
X34067Y-26257D01*
X33972Y-26257D01*
X34352Y-26376D02*
X34210Y-26376D01*
X34281Y-26376D02*
X34281Y-26126D01*
X34257Y-26162D01*
X34233Y-26186D01*
X34210Y-26198D01*
X34567Y-26210D02*
X34567Y-26376D01*
X34507Y-26114D02*
X34448Y-26293D01*
X34602Y-26293D01*
X38283Y-25926D02*
X38200Y-25807D01*
X38141Y-25926D02*
X38141Y-25676D01*
X38236Y-25676D01*
X38260Y-25688D01*
X38271Y-25700D01*
X38283Y-25724D01*
X38283Y-25760D01*
X38271Y-25783D01*
X38260Y-25795D01*
X38236Y-25807D01*
X38141Y-25807D01*
X38402Y-25926D02*
X38450Y-25926D01*
X38474Y-25914D01*
X38486Y-25902D01*
X38510Y-25867D01*
X38521Y-25819D01*
X38521Y-25724D01*
X38510Y-25700D01*
X38498Y-25688D01*
X38474Y-25676D01*
X38426Y-25676D01*
X38402Y-25688D01*
X38391Y-25700D01*
X38379Y-25724D01*
X38379Y-25783D01*
X38391Y-25807D01*
X38402Y-25819D01*
X38426Y-25831D01*
X38474Y-25831D01*
X38498Y-25819D01*
X38510Y-25807D01*
X38521Y-25783D01*
X35902Y-24767D02*
X35914Y-24779D01*
X35926Y-24814D01*
X35926Y-24838D01*
X35914Y-24874D01*
X35890Y-24898D01*
X35867Y-24909D01*
X35819Y-24921D01*
X35783Y-24921D01*
X35736Y-24909D01*
X35712Y-24898D01*
X35688Y-24874D01*
X35676Y-24838D01*
X35676Y-24814D01*
X35688Y-24779D01*
X35700Y-24767D01*
X35783Y-24624D02*
X35771Y-24648D01*
X35760Y-24659D01*
X35736Y-24671D01*
X35724Y-24671D01*
X35700Y-24659D01*
X35688Y-24648D01*
X35676Y-24624D01*
X35676Y-24576D01*
X35688Y-24552D01*
X35700Y-24540D01*
X35724Y-24529D01*
X35736Y-24529D01*
X35760Y-24540D01*
X35771Y-24552D01*
X35783Y-24576D01*
X35783Y-24624D01*
X35795Y-24648D01*
X35807Y-24659D01*
X35831Y-24671D01*
X35879Y-24671D01*
X35902Y-24659D01*
X35914Y-24648D01*
X35926Y-24624D01*
X35926Y-24576D01*
X35914Y-24552D01*
X35902Y-24540D01*
X35879Y-24529D01*
X35831Y-24529D01*
X35807Y-24540D01*
X35795Y-24552D01*
X35783Y-24576D01*
X41783Y-14326D02*
X41700Y-14207D01*
X41641Y-14326D02*
X41641Y-14076D01*
X41736Y-14076D01*
X41760Y-14088D01*
X41771Y-14100D01*
X41783Y-14124D01*
X41783Y-14160D01*
X41771Y-14183D01*
X41760Y-14195D01*
X41736Y-14207D01*
X41641Y-14207D01*
X41998Y-14160D02*
X41998Y-14326D01*
X41938Y-14064D02*
X41879Y-14243D01*
X42033Y-14243D01*
X41833Y-16826D02*
X41750Y-16707D01*
X41691Y-16826D02*
X41691Y-16576D01*
X41786Y-16576D01*
X41810Y-16588D01*
X41821Y-16600D01*
X41833Y-16624D01*
X41833Y-16660D01*
X41821Y-16683D01*
X41810Y-16695D01*
X41786Y-16707D01*
X41691Y-16707D01*
X41917Y-16576D02*
X42071Y-16576D01*
X41988Y-16671D01*
X42024Y-16671D01*
X42048Y-16683D01*
X42060Y-16695D01*
X42071Y-16719D01*
X42071Y-16779D01*
X42060Y-16802D01*
X42048Y-16814D01*
X42024Y-16826D01*
X41952Y-16826D01*
X41929Y-16814D01*
X41917Y-16802D01*
X47152Y-24567D02*
X47164Y-24579D01*
X47176Y-24614D01*
X47176Y-24638D01*
X47164Y-24674D01*
X47140Y-24698D01*
X47117Y-24709D01*
X47069Y-24721D01*
X47033Y-24721D01*
X46986Y-24709D01*
X46962Y-24698D01*
X46938Y-24674D01*
X46926Y-24638D01*
X46926Y-24614D01*
X46938Y-24579D01*
X46950Y-24567D01*
X47176Y-24448D02*
X47176Y-24400D01*
X47164Y-24376D01*
X47152Y-24364D01*
X47117Y-24340D01*
X47069Y-24329D01*
X46974Y-24329D01*
X46950Y-24340D01*
X46938Y-24352D01*
X46926Y-24376D01*
X46926Y-24424D01*
X46938Y-24448D01*
X46950Y-24459D01*
X46974Y-24471D01*
X47033Y-24471D01*
X47057Y-24459D01*
X47069Y-24448D01*
X47081Y-24424D01*
X47081Y-24376D01*
X47069Y-24352D01*
X47057Y-24340D01*
X47033Y-24329D01*
X35976Y-19867D02*
X35857Y-19950D01*
X35976Y-20009D02*
X35726Y-20009D01*
X35726Y-19914D01*
X35738Y-19890D01*
X35750Y-19879D01*
X35774Y-19867D01*
X35810Y-19867D01*
X35833Y-19879D01*
X35845Y-19890D01*
X35857Y-19914D01*
X35857Y-20009D01*
X35726Y-19783D02*
X35726Y-19617D01*
X35976Y-19724D01*
X39183Y-25926D02*
X39100Y-25807D01*
X39041Y-25926D02*
X39041Y-25676D01*
X39136Y-25676D01*
X39160Y-25688D01*
X39171Y-25700D01*
X39183Y-25724D01*
X39183Y-25760D01*
X39171Y-25783D01*
X39160Y-25795D01*
X39136Y-25807D01*
X39041Y-25807D01*
X39326Y-25783D02*
X39302Y-25771D01*
X39291Y-25760D01*
X39279Y-25736D01*
X39279Y-25724D01*
X39291Y-25700D01*
X39302Y-25688D01*
X39326Y-25676D01*
X39374Y-25676D01*
X39398Y-25688D01*
X39410Y-25700D01*
X39421Y-25724D01*
X39421Y-25736D01*
X39410Y-25760D01*
X39398Y-25771D01*
X39374Y-25783D01*
X39326Y-25783D01*
X39302Y-25795D01*
X39291Y-25807D01*
X39279Y-25831D01*
X39279Y-25879D01*
X39291Y-25902D01*
X39302Y-25914D01*
X39326Y-25926D01*
X39374Y-25926D01*
X39398Y-25914D01*
X39410Y-25902D01*
X39421Y-25879D01*
X39421Y-25831D01*
X39410Y-25807D01*
X39398Y-25795D01*
X39374Y-25783D01*
X44933Y-16502D02*
X44921Y-16514D01*
X44886Y-16526D01*
X44862Y-16526D01*
X44826Y-16514D01*
X44802Y-16490D01*
X44791Y-16467D01*
X44779Y-16419D01*
X44779Y-16383D01*
X44791Y-16336D01*
X44802Y-16312D01*
X44826Y-16288D01*
X44862Y-16276D01*
X44886Y-16276D01*
X44921Y-16288D01*
X44933Y-16300D01*
X45017Y-16276D02*
X45183Y-16276D01*
X45076Y-16526D01*
G54D13*
X43187Y-12430D02*
X43511Y-12430D01*
X43549Y-12411D01*
X43568Y-12392D01*
X43587Y-12354D01*
X43587Y-12277D01*
X43568Y-12239D01*
X43549Y-12220D01*
X43511Y-12201D01*
X43187Y-12201D01*
X43187Y-12049D02*
X43187Y-11801D01*
X43339Y-11935D01*
X43339Y-11877D01*
X43358Y-11839D01*
X43377Y-11820D01*
X43415Y-11801D01*
X43511Y-11801D01*
X43549Y-11820D01*
X43568Y-11839D01*
X43587Y-11877D01*
X43587Y-11992D01*
X43568Y-12030D01*
X43549Y-12049D01*
X43587Y-13932D02*
X43587Y-14161D01*
X43587Y-14047D02*
X43187Y-14047D01*
X43244Y-14085D01*
X43282Y-14123D01*
X43301Y-14161D01*
X43587Y-13551D02*
X43587Y-13780D01*
X43587Y-13666D02*
X43187Y-13666D01*
X43244Y-13704D01*
X43282Y-13742D01*
X43301Y-13780D01*
X43587Y-13170D02*
X43587Y-13399D01*
X43587Y-13285D02*
X43187Y-13285D01*
X43244Y-13323D01*
X43282Y-13361D01*
X43301Y-13399D01*
X43187Y-13037D02*
X43187Y-12770D01*
X43587Y-12942D01*
G54D19*
X32568Y-24642D02*
X32580Y-24611D01*
X32580Y-24558D01*
X32568Y-24537D01*
X32555Y-24527D01*
X32531Y-24516D01*
X32506Y-24516D01*
X32481Y-24527D01*
X32469Y-24537D01*
X32456Y-24558D01*
X32444Y-24600D01*
X32432Y-24621D01*
X32419Y-24632D01*
X32395Y-24642D01*
X32370Y-24642D01*
X32345Y-24632D01*
X32333Y-24621D01*
X32320Y-24600D01*
X32320Y-24548D01*
X32333Y-24516D01*
X32320Y-24443D02*
X32580Y-24390D01*
X32395Y-24348D01*
X32580Y-24306D01*
X32320Y-24254D01*
X32605Y-24223D02*
X32605Y-24055D01*
X32580Y-24003D02*
X32320Y-24003D01*
X32320Y-23919D01*
X32333Y-23898D01*
X32345Y-23887D01*
X32370Y-23877D01*
X32407Y-23877D01*
X32432Y-23887D01*
X32444Y-23898D01*
X32456Y-23919D01*
X32456Y-24003D01*
X32320Y-23783D02*
X32531Y-23783D01*
X32555Y-23772D01*
X32568Y-23762D01*
X32580Y-23741D01*
X32580Y-23699D01*
X32568Y-23678D01*
X32555Y-23667D01*
X32531Y-23657D01*
X32320Y-23657D01*
X32568Y-23563D02*
X32580Y-23532D01*
X32580Y-23479D01*
X32568Y-23458D01*
X32555Y-23448D01*
X32531Y-23437D01*
X32506Y-23437D01*
X32481Y-23448D01*
X32469Y-23458D01*
X32456Y-23479D01*
X32444Y-23521D01*
X32432Y-23542D01*
X32419Y-23553D01*
X32395Y-23563D01*
X32370Y-23563D01*
X32345Y-23553D01*
X32333Y-23542D01*
X32320Y-23521D01*
X32320Y-23469D01*
X32333Y-23437D01*
X32580Y-23343D02*
X32320Y-23343D01*
X32444Y-23343D02*
X32444Y-23217D01*
X32580Y-23217D02*
X32320Y-23217D01*
M02*
