G04 (created by PCBNEW-RS274X (2011-03-30 BZR 2932)-stable) date 18/05/2011 11:49:28 p.m.*
G01*
G70*
G90*
%MOIN*%
G04 Gerber Fmt 3.4, Leading zero omitted, Abs format*
%FSLAX34Y34*%
G04 APERTURE LIST*
%ADD10C,0.006000*%
%ADD11C,0.076000*%
%ADD12C,0.209000*%
%ADD13R,0.209000X0.209000*%
%ADD14R,0.075000X0.075000*%
%ADD15C,0.075000*%
%ADD16R,0.080000X0.080000*%
%ADD17C,0.080000*%
%ADD18C,0.085000*%
%ADD19C,0.070000*%
%ADD20R,0.055000X0.075000*%
%ADD21R,0.075000X0.055000*%
%ADD22C,0.079100*%
%ADD23C,0.138100*%
%ADD24C,0.126300*%
%ADD25O,0.150000X0.209000*%
%ADD26O,0.209000X0.140000*%
%ADD27C,0.180000*%
%ADD28R,0.079100X0.079100*%
%ADD29C,0.110000*%
G04 APERTURE END LIST*
G54D10*
G54D11*
X57750Y-26600D03*
X55750Y-26600D03*
G54D12*
X54750Y-11550D03*
G54D13*
X54750Y-13950D03*
G54D12*
X56750Y-12450D03*
G54D14*
X59950Y-29700D03*
G54D15*
X60950Y-29700D03*
G54D14*
X63200Y-12400D03*
G54D15*
X63200Y-11400D03*
G54D16*
X55250Y-16800D03*
G54D17*
X54250Y-16800D03*
G54D16*
X63600Y-27400D03*
G54D17*
X64600Y-27400D03*
G54D16*
X55250Y-15600D03*
G54D17*
X54250Y-15600D03*
G54D16*
X56650Y-18750D03*
G54D17*
X55650Y-18750D03*
X56650Y-19750D03*
X55650Y-19750D03*
X56650Y-20750D03*
X55650Y-20750D03*
X56650Y-21750D03*
X55650Y-21750D03*
G54D18*
X65950Y-23350D03*
X66950Y-23350D03*
X65950Y-22350D03*
X66950Y-22350D03*
X65950Y-21350D03*
X66950Y-21350D03*
X66950Y-18350D03*
X65950Y-18350D03*
X66950Y-19350D03*
X65950Y-19350D03*
X66950Y-20350D03*
X65950Y-20350D03*
X65950Y-14350D03*
X66950Y-14350D03*
X65950Y-13350D03*
X66950Y-13350D03*
X66950Y-15350D03*
X65950Y-15350D03*
X66950Y-16350D03*
X65950Y-16350D03*
X66950Y-17350D03*
X65950Y-17350D03*
X65950Y-29350D03*
X66950Y-29350D03*
X65950Y-28350D03*
X66950Y-28350D03*
X65950Y-27350D03*
X66950Y-27350D03*
X66950Y-24350D03*
X65950Y-24350D03*
X66950Y-25350D03*
X65950Y-25350D03*
X66950Y-26350D03*
X65950Y-26350D03*
X65950Y-32350D03*
X66950Y-32350D03*
X65950Y-31350D03*
X66950Y-31350D03*
X65950Y-30350D03*
X66950Y-30350D03*
X66950Y-11350D03*
X65950Y-11350D03*
X66950Y-12350D03*
X65950Y-12350D03*
X66950Y-33350D03*
X65950Y-33350D03*
X66950Y-34350D03*
X65950Y-34350D03*
X66950Y-35350D03*
X65950Y-35350D03*
G54D19*
X56200Y-24050D03*
X56200Y-25050D03*
G54D20*
X63175Y-23150D03*
X63925Y-23150D03*
G54D21*
X59950Y-21525D03*
X59950Y-20775D03*
G54D20*
X63175Y-25100D03*
X63925Y-25100D03*
G54D21*
X62000Y-21525D03*
X62000Y-20775D03*
G54D17*
X59000Y-19534D03*
X59000Y-17566D03*
G54D22*
X54400Y-33350D03*
X55400Y-33350D03*
X56200Y-33350D03*
X57200Y-33350D03*
G54D23*
X53200Y-34400D03*
X58600Y-34400D03*
G54D17*
X61800Y-32550D03*
X62800Y-32550D03*
X62800Y-33337D03*
X61800Y-33337D03*
G54D24*
X59938Y-34400D03*
X64662Y-34400D03*
G54D16*
X86575Y-21775D03*
G54D17*
X87575Y-21775D03*
G54D16*
X86725Y-17125D03*
G54D17*
X87725Y-17125D03*
G54D16*
X74225Y-20425D03*
G54D17*
X74225Y-21425D03*
G54D11*
X77125Y-24425D03*
X79125Y-24425D03*
G54D25*
X87725Y-27825D03*
G54D10*
G36*
X86075Y-26780D02*
X86075Y-28870D01*
X84575Y-28870D01*
X84575Y-26780D01*
X86075Y-26780D01*
X86075Y-26780D01*
G37*
G54D26*
X86825Y-29825D03*
G54D14*
X72375Y-29675D03*
G54D15*
X73375Y-29675D03*
G54D14*
X84275Y-16775D03*
G54D15*
X85275Y-16775D03*
G54D16*
X68975Y-29425D03*
G54D17*
X69975Y-29425D03*
X68975Y-24425D03*
X69975Y-28425D03*
X68975Y-23425D03*
X69975Y-27425D03*
X68975Y-22425D03*
X69975Y-26425D03*
X68975Y-21425D03*
X69975Y-25425D03*
X68975Y-20425D03*
X69975Y-24425D03*
X68975Y-19425D03*
X69975Y-23425D03*
X68975Y-18425D03*
X69975Y-22425D03*
X68975Y-17425D03*
X69975Y-21425D03*
X68975Y-16425D03*
X69975Y-20425D03*
X68975Y-15425D03*
X69975Y-19425D03*
X68975Y-14425D03*
X69975Y-18425D03*
X69975Y-17425D03*
X68975Y-13425D03*
X69975Y-16425D03*
X69975Y-14425D03*
X69975Y-13425D03*
X69975Y-12425D03*
X69975Y-11425D03*
X68975Y-12425D03*
X68975Y-11425D03*
X68975Y-28425D03*
X68975Y-27425D03*
X68975Y-26425D03*
X68975Y-25425D03*
X68975Y-10425D03*
X69975Y-10425D03*
X69975Y-15425D03*
G54D16*
X87625Y-24875D03*
G54D17*
X86625Y-24875D03*
G54D16*
X87625Y-23725D03*
G54D17*
X86625Y-23725D03*
G54D16*
X72525Y-20175D03*
G54D17*
X72525Y-21175D03*
G54D16*
X75925Y-16525D03*
G54D17*
X75925Y-15525D03*
X74925Y-16525D03*
X74925Y-15525D03*
X73925Y-16525D03*
X73925Y-15525D03*
X72925Y-16525D03*
X72925Y-15525D03*
G54D19*
X77325Y-22025D03*
X77325Y-23025D03*
G54D17*
X79059Y-26775D03*
X77091Y-26775D03*
G54D22*
X80825Y-11775D03*
X79825Y-11775D03*
X79025Y-11775D03*
X78025Y-11775D03*
G54D23*
X82025Y-10725D03*
X76625Y-10725D03*
G54D17*
X83625Y-13225D03*
X83625Y-12225D03*
X84412Y-12225D03*
X84412Y-13225D03*
G54D24*
X85475Y-15087D03*
X85475Y-10363D03*
G54D14*
X47775Y-14775D03*
G54D15*
X47775Y-13775D03*
G54D14*
X42675Y-14575D03*
G54D15*
X42675Y-15575D03*
G54D14*
X45075Y-24325D03*
G54D15*
X45075Y-25325D03*
G54D11*
X34125Y-19125D03*
X34125Y-21125D03*
X46475Y-20475D03*
X46475Y-22475D03*
G54D12*
X50475Y-11225D03*
G54D13*
X50475Y-13625D03*
G54D12*
X48475Y-12125D03*
G54D16*
X51775Y-30975D03*
G54D17*
X51775Y-31975D03*
X46775Y-30975D03*
X50775Y-31975D03*
X45775Y-30975D03*
X49775Y-31975D03*
X44775Y-30975D03*
X48775Y-31975D03*
X43775Y-30975D03*
X47775Y-31975D03*
X42775Y-30975D03*
X46775Y-31975D03*
X41775Y-30975D03*
X45775Y-31975D03*
X40775Y-30975D03*
X44775Y-31975D03*
X39775Y-30975D03*
X43775Y-31975D03*
X38775Y-30975D03*
X42775Y-31975D03*
X37775Y-30975D03*
X41775Y-31975D03*
X36775Y-30975D03*
X40775Y-31975D03*
X39775Y-31975D03*
X35775Y-30975D03*
X38775Y-31975D03*
X36775Y-31975D03*
X35775Y-31975D03*
X34775Y-31975D03*
X33775Y-31975D03*
X34775Y-30975D03*
X33775Y-30975D03*
X50775Y-30975D03*
X49775Y-30975D03*
X48775Y-30975D03*
X47775Y-30975D03*
X32775Y-30975D03*
X32775Y-31975D03*
X37775Y-31975D03*
G54D16*
X39825Y-28125D03*
G54D17*
X39825Y-29125D03*
X38825Y-28125D03*
X38825Y-29125D03*
X37825Y-28125D03*
X37825Y-29125D03*
X36825Y-28125D03*
X36825Y-29125D03*
G54D19*
X37175Y-19025D03*
X37175Y-18025D03*
G54D27*
X35775Y-15975D03*
X35775Y-11475D03*
G54D28*
X38275Y-11975D03*
G54D22*
X39275Y-12475D03*
X38275Y-12975D03*
X39275Y-13475D03*
X38275Y-13975D03*
X39275Y-14475D03*
X38275Y-14975D03*
X39275Y-15475D03*
G54D29*
X36975Y-10625D03*
X36975Y-16825D03*
G54D18*
X33845Y-11235D03*
X34445Y-12235D03*
X33845Y-15215D03*
X34445Y-16215D03*
G54D17*
X33975Y-22941D03*
X33975Y-24909D03*
M02*
