G04 (created by PCBNEW-RS274X (2011-03-30 BZR 2932)-stable) date 18/05/2011 11:49:28 p.m.*
G01*
G70*
G90*
%MOIN*%
G04 Gerber Fmt 3.4, Leading zero omitted, Abs format*
%FSLAX34Y34*%
G04 APERTURE LIST*
%ADD10C,0.006000*%
%ADD11R,0.055000X0.010000*%
%ADD12R,0.010000X0.055000*%
%ADD13R,0.055000X0.009200*%
%ADD14R,0.035000X0.055000*%
%ADD15R,0.055000X0.035000*%
%ADD16R,0.150000X0.080000*%
%ADD17R,0.055000X0.080000*%
%ADD18R,0.144000X0.080000*%
%ADD19R,0.040000X0.080000*%
%ADD20R,0.058000X0.010000*%
%ADD21R,0.010000X0.058000*%
G04 APERTURE END LIST*
G54D10*
G54D11*
X58291Y-21978D03*
G54D12*
X58978Y-26409D03*
G54D11*
X63409Y-25722D03*
G54D12*
X62722Y-21291D03*
G54D11*
X58291Y-22175D03*
G54D12*
X59175Y-26409D03*
G54D11*
X63409Y-25525D03*
G54D12*
X62525Y-21291D03*
G54D13*
X58291Y-22372D03*
G54D12*
X59372Y-26409D03*
G54D11*
X63409Y-25328D03*
G54D12*
X62328Y-21291D03*
G54D11*
X58291Y-22569D03*
G54D12*
X59569Y-26409D03*
G54D11*
X63409Y-25131D03*
G54D12*
X62131Y-21291D03*
G54D11*
X58291Y-22766D03*
G54D12*
X59766Y-26409D03*
G54D11*
X63409Y-24934D03*
G54D12*
X61934Y-21291D03*
G54D11*
X58291Y-22963D03*
G54D12*
X59963Y-26409D03*
G54D11*
X63409Y-24737D03*
G54D12*
X61737Y-21291D03*
G54D11*
X58291Y-23160D03*
G54D12*
X60160Y-26409D03*
G54D11*
X63409Y-24540D03*
G54D12*
X61540Y-21291D03*
G54D11*
X58291Y-23357D03*
G54D12*
X60357Y-26409D03*
G54D11*
X63409Y-24343D03*
G54D12*
X61343Y-21291D03*
G54D11*
X58291Y-23554D03*
G54D12*
X60554Y-26409D03*
G54D11*
X63409Y-24146D03*
G54D12*
X61146Y-21291D03*
G54D11*
X58291Y-23751D03*
G54D12*
X60751Y-26409D03*
G54D11*
X63409Y-23949D03*
G54D12*
X60949Y-21291D03*
G54D11*
X58291Y-23948D03*
G54D12*
X60948Y-26409D03*
G54D11*
X63409Y-23752D03*
G54D12*
X60752Y-21291D03*
G54D11*
X58291Y-24145D03*
G54D12*
X61145Y-26409D03*
G54D11*
X63409Y-23555D03*
G54D12*
X60555Y-21291D03*
G54D11*
X58291Y-24342D03*
G54D12*
X61342Y-26409D03*
G54D10*
G36*
X63134Y-23308D02*
X63684Y-23308D01*
X63684Y-23408D01*
X63134Y-23408D01*
X63134Y-23308D01*
X63134Y-23308D01*
G37*
G54D12*
X60358Y-21291D03*
G54D11*
X58291Y-24539D03*
G54D12*
X61539Y-26409D03*
G54D10*
G36*
X63134Y-23111D02*
X63684Y-23111D01*
X63684Y-23211D01*
X63134Y-23211D01*
X63134Y-23111D01*
X63134Y-23111D01*
G37*
G54D12*
X60161Y-21291D03*
G54D11*
X58291Y-24736D03*
G54D12*
X61736Y-26409D03*
G54D11*
X63409Y-22964D03*
G54D12*
X59964Y-21291D03*
G54D11*
X58291Y-24933D03*
G54D12*
X61933Y-26409D03*
G54D11*
X63409Y-22767D03*
G54D12*
X59767Y-21291D03*
G54D11*
X58291Y-25130D03*
G54D12*
X62130Y-26409D03*
G54D11*
X63409Y-22570D03*
G54D12*
X59570Y-21291D03*
G54D11*
X58291Y-25327D03*
G54D12*
X62327Y-26409D03*
G54D11*
X63409Y-22373D03*
G54D12*
X59373Y-21291D03*
G54D11*
X58291Y-25524D03*
G54D12*
X62524Y-26409D03*
G54D11*
X63409Y-22176D03*
G54D12*
X59176Y-21291D03*
G54D11*
X58291Y-25721D03*
G54D12*
X62721Y-26409D03*
G54D11*
X63409Y-21979D03*
G54D12*
X58979Y-21291D03*
G54D14*
X57025Y-27250D03*
X57775Y-27250D03*
X56475Y-27250D03*
X55725Y-27250D03*
X58325Y-19500D03*
X57575Y-19500D03*
G54D15*
X58350Y-18825D03*
X58350Y-18075D03*
G54D14*
X56875Y-25150D03*
X57625Y-25150D03*
X57225Y-32550D03*
X57975Y-32550D03*
X59325Y-32550D03*
X58575Y-32550D03*
X54925Y-24200D03*
X55675Y-24200D03*
G54D15*
X56200Y-32575D03*
X56200Y-31825D03*
X54650Y-32575D03*
X54650Y-31825D03*
G54D14*
X62475Y-13200D03*
X63225Y-13200D03*
G54D15*
X61650Y-12125D03*
X61650Y-11375D03*
G54D14*
X60025Y-11250D03*
X60775Y-11250D03*
G54D15*
X58150Y-12875D03*
X58150Y-12125D03*
G54D14*
X54925Y-24900D03*
X55675Y-24900D03*
X63975Y-26500D03*
X64725Y-26500D03*
G54D15*
X62400Y-12125D03*
X62400Y-11375D03*
G54D14*
X56925Y-23700D03*
X57675Y-23700D03*
X60025Y-30500D03*
X60775Y-30500D03*
G54D15*
X58750Y-27775D03*
X58750Y-27025D03*
X55400Y-32575D03*
X55400Y-31825D03*
G54D16*
X59950Y-14750D03*
G54D17*
X59950Y-12150D03*
X59050Y-12150D03*
X60850Y-12150D03*
G54D12*
X77147Y-21087D03*
G54D11*
X80987Y-20203D03*
G54D12*
X80103Y-16363D03*
G54D11*
X76263Y-17247D03*
G54D12*
X77344Y-21087D03*
G54D11*
X80987Y-20006D03*
G54D12*
X79906Y-16363D03*
G54D11*
X76263Y-17444D03*
G54D12*
X77541Y-21087D03*
G54D11*
X80987Y-19809D03*
G54D12*
X79709Y-16363D03*
G54D11*
X76263Y-17641D03*
G54D12*
X77738Y-21087D03*
G54D11*
X80987Y-19612D03*
G54D12*
X79512Y-16363D03*
G54D11*
X76263Y-17838D03*
G54D12*
X77935Y-21087D03*
G54D11*
X80987Y-19415D03*
G54D12*
X79315Y-16363D03*
G54D11*
X76263Y-18035D03*
G54D12*
X78132Y-21087D03*
G54D11*
X80987Y-19218D03*
G54D12*
X79118Y-16363D03*
G54D11*
X76263Y-18232D03*
G54D12*
X78329Y-21087D03*
G54D11*
X80987Y-19021D03*
G54D12*
X78921Y-16363D03*
G54D11*
X76263Y-18429D03*
G54D12*
X78526Y-21087D03*
G54D11*
X80987Y-18824D03*
G54D12*
X78724Y-16363D03*
G54D11*
X76263Y-18626D03*
G54D12*
X78723Y-21087D03*
G54D11*
X80987Y-18627D03*
G54D12*
X78527Y-16363D03*
G54D11*
X76263Y-18823D03*
G54D12*
X78920Y-21087D03*
G54D11*
X80987Y-18430D03*
G54D12*
X78330Y-16363D03*
G54D11*
X76263Y-19020D03*
G54D12*
X79117Y-21087D03*
G54D11*
X80987Y-18233D03*
G54D12*
X78133Y-16363D03*
G54D11*
X76263Y-19217D03*
G54D12*
X79314Y-21087D03*
G54D11*
X80987Y-18036D03*
G54D12*
X77936Y-16363D03*
G54D11*
X76263Y-19414D03*
G54D12*
X79511Y-21087D03*
G54D11*
X80987Y-17839D03*
G54D12*
X77739Y-16363D03*
G54D11*
X76263Y-19611D03*
G54D12*
X79708Y-21087D03*
G54D11*
X80987Y-17642D03*
G54D12*
X77542Y-16363D03*
G54D11*
X76263Y-19808D03*
G54D12*
X79905Y-21087D03*
G54D11*
X80987Y-17445D03*
G54D12*
X77345Y-16363D03*
G54D11*
X76263Y-20005D03*
G54D12*
X80102Y-21087D03*
G54D11*
X80987Y-17248D03*
G54D12*
X77148Y-16363D03*
G54D11*
X76263Y-20202D03*
G54D14*
X79850Y-12625D03*
X80600Y-12625D03*
G54D15*
X73325Y-20300D03*
X73325Y-21050D03*
X81625Y-13400D03*
X81625Y-12650D03*
X77175Y-11800D03*
X77175Y-12550D03*
G54D14*
X70950Y-28575D03*
X71700Y-28575D03*
G54D15*
X76375Y-12550D03*
X76375Y-11800D03*
G54D14*
X71700Y-29675D03*
X70950Y-29675D03*
X84400Y-17575D03*
X85150Y-17575D03*
X77800Y-25075D03*
X77050Y-25075D03*
X76800Y-22225D03*
X76050Y-22225D03*
X78400Y-25075D03*
X79150Y-25075D03*
G54D15*
X78125Y-26450D03*
X78125Y-25700D03*
G54D14*
X87600Y-16275D03*
X86850Y-16275D03*
X79850Y-13375D03*
X80600Y-13375D03*
X76000Y-21175D03*
X76750Y-21175D03*
X81600Y-20225D03*
X82350Y-20225D03*
G54D15*
X79725Y-21700D03*
X79725Y-22450D03*
G54D14*
X81600Y-16975D03*
X82350Y-16975D03*
G54D15*
X76875Y-15750D03*
X76875Y-15000D03*
G54D14*
X75650Y-20425D03*
X74900Y-20425D03*
X76800Y-23025D03*
X76050Y-23025D03*
G54D18*
X87075Y-18125D03*
G54D19*
X87075Y-20725D03*
X87975Y-20725D03*
X86175Y-20725D03*
G54D20*
X43675Y-24539D03*
G54D21*
X42939Y-19075D03*
G54D20*
X37475Y-19811D03*
G54D21*
X38211Y-25275D03*
G54D20*
X43675Y-24342D03*
G54D21*
X42742Y-19075D03*
G54D20*
X37475Y-20008D03*
G54D21*
X38408Y-25275D03*
G54D20*
X43675Y-24145D03*
G54D21*
X42545Y-19075D03*
G54D20*
X37475Y-20205D03*
G54D21*
X38605Y-25275D03*
G54D20*
X43675Y-23948D03*
G54D21*
X42348Y-19075D03*
G54D20*
X37475Y-20402D03*
G54D21*
X38802Y-25275D03*
G54D20*
X43675Y-23751D03*
G54D21*
X42151Y-19075D03*
G54D20*
X37475Y-20599D03*
G54D21*
X38999Y-25275D03*
G54D20*
X43675Y-23554D03*
G54D21*
X41954Y-19075D03*
G54D20*
X37475Y-20796D03*
G54D21*
X39196Y-25275D03*
G54D20*
X43675Y-23357D03*
G54D21*
X41757Y-19075D03*
G54D20*
X37475Y-20993D03*
G54D21*
X39393Y-25275D03*
G54D20*
X43675Y-23160D03*
G54D21*
X41560Y-19075D03*
G54D20*
X37475Y-21190D03*
G54D21*
X39590Y-25275D03*
G54D20*
X43675Y-22963D03*
G54D21*
X41363Y-19075D03*
G54D20*
X37475Y-21387D03*
G54D21*
X39787Y-25275D03*
G54D20*
X43675Y-22766D03*
G54D21*
X41166Y-19075D03*
G54D20*
X37475Y-21584D03*
G54D21*
X39984Y-25275D03*
G54D20*
X43675Y-22569D03*
G54D21*
X40969Y-19075D03*
G54D20*
X37475Y-21781D03*
G54D21*
X40181Y-25275D03*
G54D20*
X43675Y-22372D03*
G54D21*
X40772Y-19075D03*
G54D20*
X37475Y-21978D03*
G54D21*
X40378Y-25275D03*
G54D20*
X43675Y-22175D03*
G54D21*
X40575Y-19075D03*
G54D20*
X37475Y-22175D03*
G54D21*
X40575Y-25275D03*
G54D20*
X43675Y-21978D03*
G54D21*
X40378Y-19075D03*
G54D20*
X37475Y-22372D03*
G54D21*
X40772Y-25275D03*
G54D20*
X43675Y-21781D03*
G54D21*
X40181Y-19075D03*
G54D20*
X37475Y-22569D03*
G54D21*
X40969Y-25275D03*
G54D20*
X43675Y-21584D03*
G54D21*
X39984Y-19075D03*
G54D20*
X37475Y-22766D03*
G54D21*
X41166Y-25275D03*
G54D20*
X43675Y-21387D03*
G54D21*
X39787Y-19075D03*
G54D20*
X37475Y-22963D03*
G54D21*
X41363Y-25275D03*
G54D20*
X43675Y-21190D03*
G54D21*
X39590Y-19075D03*
G54D20*
X37475Y-23160D03*
G54D21*
X41560Y-25275D03*
G54D20*
X43675Y-20993D03*
G54D21*
X39393Y-19075D03*
G54D20*
X37475Y-23357D03*
G54D21*
X41757Y-25275D03*
G54D20*
X43675Y-20796D03*
G54D21*
X39196Y-19075D03*
G54D20*
X37475Y-23554D03*
G54D21*
X41954Y-25275D03*
G54D20*
X43675Y-20599D03*
G54D21*
X38999Y-19075D03*
G54D20*
X37475Y-23751D03*
G54D21*
X42151Y-25275D03*
G54D20*
X43675Y-20402D03*
G54D21*
X38802Y-19075D03*
G54D20*
X37475Y-23948D03*
G54D21*
X42348Y-25275D03*
G54D20*
X43675Y-20205D03*
G54D21*
X38605Y-19075D03*
G54D20*
X37475Y-24145D03*
G54D21*
X42545Y-25275D03*
G54D20*
X43675Y-20008D03*
G54D21*
X38408Y-19075D03*
G54D20*
X37475Y-24342D03*
G54D21*
X42742Y-25275D03*
G54D20*
X43675Y-19811D03*
G54D21*
X38211Y-19075D03*
G54D20*
X37475Y-24539D03*
G54D21*
X42939Y-25275D03*
G54D14*
X40600Y-12525D03*
X41350Y-12525D03*
X40600Y-10925D03*
X41350Y-10925D03*
G54D15*
X45025Y-21050D03*
X45025Y-20300D03*
X36475Y-22650D03*
X36475Y-23400D03*
X36475Y-20550D03*
X36475Y-21300D03*
G54D14*
X41450Y-26275D03*
X40700Y-26275D03*
X42850Y-26275D03*
X42100Y-26275D03*
G54D15*
X35675Y-21900D03*
X35675Y-22650D03*
G54D14*
X40350Y-18175D03*
X39600Y-18175D03*
X33850Y-10025D03*
X34600Y-10025D03*
X39600Y-17375D03*
X40350Y-17375D03*
X34450Y-17375D03*
X33700Y-17375D03*
X40600Y-14925D03*
X41350Y-14925D03*
G54D15*
X39825Y-26350D03*
X39825Y-27100D03*
X37425Y-26350D03*
X37425Y-27100D03*
X36625Y-26350D03*
X36625Y-27100D03*
G54D14*
X40600Y-15725D03*
X41350Y-15725D03*
X41350Y-11725D03*
X40600Y-11725D03*
X41350Y-13325D03*
X40600Y-13325D03*
G54D15*
X32675Y-20450D03*
X32675Y-21200D03*
X32675Y-19800D03*
X32675Y-19050D03*
X47925Y-21150D03*
X47925Y-20400D03*
X47925Y-21800D03*
X47925Y-22550D03*
G54D14*
X35850Y-19025D03*
X36600Y-19025D03*
X35850Y-18025D03*
X36600Y-18025D03*
X34350Y-25775D03*
X33600Y-25775D03*
G54D15*
X38225Y-26350D03*
X38225Y-27100D03*
X35675Y-23400D03*
X35675Y-24150D03*
G54D14*
X41350Y-14125D03*
X40600Y-14125D03*
X41350Y-16525D03*
X40600Y-16525D03*
G54D15*
X46525Y-25250D03*
X46525Y-24500D03*
X35675Y-20550D03*
X35675Y-21300D03*
X39025Y-26350D03*
X39025Y-27100D03*
G54D14*
X45000Y-15825D03*
X44250Y-15825D03*
G54D18*
X45225Y-12175D03*
G54D19*
X45225Y-14775D03*
X46125Y-14775D03*
X44325Y-14775D03*
M02*
