M48
;DRILL file {PCBnew (2011-03-30 BZR 2932)-stable} date 18/05/2011 11:49:26 p.m.
;FORMAT={-:-/ absolute / inch / decimal}
FMAT,2
INCH,TZ
T1C0.010
T2C0.018
T3C0.030
T4C0.032
T5C0.035
T6C0.039
T7C0.040
T8C0.063
T9C0.091
T10C0.128
%
G90
G05
M72
T1
X3.803Y2.133
X3.803Y2.168
X3.823Y2.198
X3.838Y2.482
X3.863Y2.462
X3.883Y1.848
X3.883Y2.473
X3.903Y2.482
X3.963Y1.683
X4.013Y1.958
X4.058Y1.863
X4.067Y2.478
X4.093Y2.478
X4.118Y2.478
X4.192Y2.478
X4.218Y2.478
X4.308Y2.232
X4.322Y2.113
X4.423Y2.107
X4.428Y2.293
X4.438Y2.268
X4.567Y2.607
X4.588Y2.638
X4.607Y2.768
X4.633Y2.793
X5.835Y2.655
X5.860Y3.200
X5.880Y2.455
X5.995Y2.200
X6.200Y2.200
X6.270Y2.510
X6.275Y2.315
X7.218Y2.857
X7.253Y1.868
X7.353Y1.848
X7.568Y1.178
X7.678Y1.998
X7.778Y1.253
X7.778Y1.518
X7.788Y1.553
X7.808Y1.578
X7.928Y2.063
X7.973Y2.058
X8.002Y2.058
X8.053Y1.748
X8.053Y2.002
X8.098Y1.268
X8.103Y1.338
T2
X3.435Y2.648
X3.678Y2.548
X3.798Y2.308
X3.858Y2.067
X3.928Y2.028
X4.098Y1.958
X4.123Y1.818
X4.188Y1.958
X4.293Y2.453
X4.308Y2.323
X5.755Y2.565
X5.770Y2.315
X5.865Y2.655
X5.955Y2.075
X5.995Y1.545
X6.145Y2.695
X6.145Y3.100
X6.160Y2.075
X6.395Y2.275
X6.395Y2.550
X7.863Y1.873
X8.162Y1.383
T3
X3.413Y1.913
X3.413Y2.113
X4.648Y2.048
X4.648Y2.248
X5.575Y2.660
X5.775Y2.660
X7.713Y2.443
X7.913Y2.443
T4
X3.718Y1.803
X3.718Y1.903
X4.268Y1.458
X4.268Y1.558
X4.508Y2.433
X4.508Y2.533
X4.777Y1.378
X4.777Y1.478
X5.178Y3.098
X5.620Y2.405
X5.620Y2.505
X5.995Y2.970
X6.095Y2.970
X6.180Y3.255
X6.180Y3.334
X6.280Y3.255
X6.280Y3.334
X6.320Y1.140
X6.320Y1.240
X6.898Y2.943
X7.238Y2.968
X7.338Y2.968
X7.423Y2.043
X7.423Y2.143
X7.732Y2.203
X7.732Y2.303
X8.363Y1.223
X8.363Y1.323
X8.428Y1.678
X8.441Y1.223
X8.441Y1.323
X8.527Y1.678
X8.658Y2.178
X8.673Y1.713
X8.758Y2.178
X8.773Y1.713
T5
X3.828Y1.198
X3.828Y1.298
X3.828Y1.398
X3.828Y1.498
X3.928Y1.248
X3.928Y1.348
X3.928Y1.448
X3.928Y1.548
T6
X5.440Y3.335
X5.540Y3.335
X5.620Y3.335
X5.720Y3.335
X7.803Y1.178
X7.903Y1.178
X7.983Y1.178
X8.082Y1.178
T7
X3.278Y3.098
X3.278Y3.198
X3.377Y3.098
X3.377Y3.198
X3.385Y1.123
X3.385Y1.522
X3.398Y2.294
X3.398Y2.491
X3.445Y1.224
X3.445Y1.622
X3.478Y3.098
X3.478Y3.198
X3.578Y3.098
X3.578Y3.198
X3.678Y3.098
X3.678Y3.198
X3.683Y2.813
X3.683Y2.913
X3.778Y3.098
X3.778Y3.198
X3.783Y2.813
X3.783Y2.913
X3.878Y3.098
X3.878Y3.198
X3.883Y2.813
X3.883Y2.913
X3.978Y3.098
X3.978Y3.198
X3.983Y2.813
X3.983Y2.913
X4.078Y3.098
X4.078Y3.198
X4.178Y3.098
X4.178Y3.198
X4.277Y3.098
X4.277Y3.198
X4.378Y3.098
X4.378Y3.198
X4.478Y3.098
X4.478Y3.198
X4.578Y3.098
X4.578Y3.198
X4.678Y3.098
X4.678Y3.198
X4.777Y3.098
X4.777Y3.198
X4.878Y3.098
X4.878Y3.198
X4.978Y3.098
X4.978Y3.198
X5.078Y3.098
X5.078Y3.198
X5.178Y3.198
X5.425Y1.560
X5.425Y1.680
X5.525Y1.560
X5.525Y1.680
X5.565Y1.875
X5.565Y1.975
X5.565Y2.075
X5.565Y2.175
X5.665Y1.875
X5.665Y1.975
X5.665Y2.075
X5.665Y2.175
X5.900Y1.757
X5.900Y1.953
X6.360Y2.740
X6.460Y2.740
X6.595Y1.135
X6.595Y1.235
X6.595Y1.335
X6.595Y1.435
X6.595Y1.535
X6.595Y1.635
X6.595Y1.735
X6.595Y1.835
X6.595Y1.935
X6.595Y2.035
X6.595Y2.135
X6.595Y2.235
X6.595Y2.335
X6.595Y2.435
X6.595Y2.535
X6.595Y2.635
X6.595Y2.735
X6.595Y2.835
X6.595Y2.935
X6.595Y3.035
X6.595Y3.135
X6.595Y3.235
X6.595Y3.335
X6.595Y3.435
X6.595Y3.535
X6.695Y1.135
X6.695Y1.235
X6.695Y1.335
X6.695Y1.435
X6.695Y1.535
X6.695Y1.635
X6.695Y1.735
X6.695Y1.835
X6.695Y1.935
X6.695Y2.035
X6.695Y2.135
X6.695Y2.235
X6.695Y2.335
X6.695Y2.435
X6.695Y2.535
X6.695Y2.635
X6.695Y2.735
X6.695Y2.835
X6.695Y2.935
X6.695Y3.035
X6.695Y3.135
X6.695Y3.235
X6.695Y3.335
X6.695Y3.435
X6.695Y3.535
X6.898Y1.043
X6.898Y1.143
X6.898Y1.243
X6.898Y1.343
X6.898Y1.443
X6.898Y1.543
X6.898Y1.643
X6.898Y1.743
X6.898Y1.843
X6.898Y1.943
X6.898Y2.043
X6.898Y2.143
X6.898Y2.243
X6.898Y2.343
X6.898Y2.443
X6.898Y2.543
X6.898Y2.643
X6.898Y2.743
X6.898Y2.843
X6.998Y1.043
X6.998Y1.143
X6.998Y1.243
X6.998Y1.343
X6.998Y1.443
X6.998Y1.543
X6.998Y1.643
X6.998Y1.743
X6.998Y1.843
X6.998Y1.943
X6.998Y2.043
X6.998Y2.143
X6.998Y2.243
X6.998Y2.343
X6.998Y2.443
X6.998Y2.543
X6.998Y2.643
X6.998Y2.743
X6.998Y2.843
X6.998Y2.943
X7.253Y2.018
X7.253Y2.118
X7.293Y1.553
X7.293Y1.653
X7.393Y1.553
X7.393Y1.653
X7.493Y1.553
X7.493Y1.653
X7.593Y1.553
X7.593Y1.653
X7.709Y2.678
X7.906Y2.678
X8.662Y2.373
X8.662Y2.488
X8.763Y2.373
X8.763Y2.488
T8
X3.698Y1.063
X3.698Y1.683
T9
X5.320Y3.440
X5.860Y3.440
X5.994Y3.440
X6.466Y3.440
X7.663Y1.073
X8.203Y1.073
X8.548Y1.036
X8.548Y1.509
T10
X3.578Y1.148
X3.578Y1.598
T7
X4.848Y1.183G85X4.848Y1.243
G05
X5.078Y1.123G85X5.018Y1.123
G05
X5.078Y1.363G85X5.018Y1.363
G05
X5.505Y1.155G85X5.445Y1.155
G05
X5.505Y1.395G85X5.445Y1.395
G05
X5.675Y1.215G85X5.675Y1.275
G05
X8.533Y2.813G85X8.533Y2.752
G05
X8.713Y2.982G85X8.652Y2.982
G05
X8.773Y2.813G85X8.773Y2.752
G05
T0
M30
